<?xml version="1.0" encoding="utf-8" standalone="no"?>
<!DOCTYPE svg PUBLIC "-//W3C//DTD SVG 1.1//EN"
  "http://www.w3.org/Graphics/SVG/1.1/DTD/svg11.dtd">
<svg xmlns:xlink="http://www.w3.org/1999/xlink" width="656.39952pt" height="425.99952pt" viewBox="0 0 656.39952 425.99952" xmlns="http://www.w3.org/2000/svg" version="1.1">
 <metadata>
  <rdf:RDF xmlns:dc="http://purl.org/dc/elements/1.1/" xmlns:cc="http://creativecommons.org/ns#" xmlns:rdf="http://www.w3.org/1999/02/22-rdf-syntax-ns#">
   <cc:Work>
    <dc:type rdf:resource="http://purl.org/dc/dcmitype/StillImage"/>
    <dc:date>2026-06-05T14:40:49.237934</dc:date>
    <dc:format>image/svg+xml</dc:format>
    <dc:creator>
     <cc:Agent>
      <dc:title>Matplotlib v3.9.2, https://matplotlib.org/</dc:title>
     </cc:Agent>
    </dc:creator>
   </cc:Work>
  </rdf:RDF>
 </metadata>
 <defs>
  <style type="text/css">*{stroke-linejoin: round; stroke-linecap: butt}</style>
 </defs>
 <g id="figure_1">
  <g id="patch_1">
   <path d="M 0 425.99952 
L 656.39952 425.99952 
L 656.39952 0 
L 0 0 
z
" style="fill: #f7f5ef"/>
  </g>
  <g id="axes_1">
   <g id="patch_2">
    <path d="M 51.827953 378.010629 
L 597.495551 378.010629 
L 597.495551 36.6295 
L 51.827953 36.6295 
z
" style="fill: #fbfaf6"/>
   </g>
   <g id="patch_3">
    <path d="M 51.827953 182.935698 
L 597.495551 182.935698 
L 597.495551 36.6295 
L 51.827953 36.6295 
z
" clip-path="url(#p5a54642f57)" style="fill: #2f9c5b; opacity: 0.055"/>
   </g>
   <g id="matplotlib.axis_1">
    <g id="xtick_1">
     <g id="line2d_1">
      <path d="M 51.827953 378.010629 
L 51.827953 36.6295 
" clip-path="url(#p5a54642f57)" style="fill: none; stroke: #d8d1c5; stroke-opacity: 0.34; stroke-width: 0.85; stroke-linecap: square"/>
     </g>
     <g id="line2d_2">
      <defs>
       <path id="md662bd2238" d="M 0 0 
L 0 3.5 
" style="stroke: #32383a; stroke-width: 0.8"/>
      </defs>
      <g>
       <use xlink:href="#md662bd2238" x="51.827953" y="378.010629" style="fill: #32383a; stroke: #32383a; stroke-width: 0.8"/>
      </g>
     </g>
     <g id="text_1">
      <!-- 0 -->
      <g style="fill: #32383a" transform="translate(48.74932 393.404067) scale(0.105 -0.105)">
       <defs>
        <path id="MicrosoftYaHei-30" d="M 284 2325 
Q 284 3606 709 4264 
Q 1134 4922 1941 4922 
Q 3478 4922 3478 2441 
Q 3478 1216 3045 567 
Q 2613 -81 1831 -81 
Q 1094 -81 689 534 
Q 284 1150 284 2325 
z
M 909 2353 
Q 909 425 1888 425 
Q 2850 425 2850 2384 
Q 2850 4413 1906 4413 
Q 909 4413 909 2353 
z
" transform="scale(0.015625)"/>
       </defs>
       <use xlink:href="#MicrosoftYaHei-30"/>
      </g>
     </g>
    </g>
    <g id="xtick_2">
     <g id="line2d_3">
      <path d="M 160.961473 378.010629 
L 160.961473 36.6295 
" clip-path="url(#p5a54642f57)" style="fill: none; stroke: #d8d1c5; stroke-opacity: 0.34; stroke-width: 0.85; stroke-linecap: square"/>
     </g>
     <g id="line2d_4">
      <g>
       <use xlink:href="#md662bd2238" x="160.961473" y="378.010629" style="fill: #32383a; stroke: #32383a; stroke-width: 0.8"/>
      </g>
     </g>
     <g id="text_2">
      <!-- 1 -->
      <g style="fill: #32383a" transform="translate(157.88284 393.404067) scale(0.105 -0.105)">
       <defs>
        <path id="MicrosoftYaHei-31" d="M 1781 0 
L 1781 4141 
Q 1638 3997 1295 3819 
Q 953 3641 663 3569 
L 663 4169 
Q 1047 4275 1484 4508 
Q 1922 4741 2156 4947 
L 2388 4947 
L 2388 0 
L 1781 0 
z
" transform="scale(0.015625)"/>
       </defs>
       <use xlink:href="#MicrosoftYaHei-31"/>
      </g>
     </g>
    </g>
    <g id="xtick_3">
     <g id="line2d_5">
      <path d="M 270.094992 378.010629 
L 270.094992 36.6295 
" clip-path="url(#p5a54642f57)" style="fill: none; stroke: #d8d1c5; stroke-opacity: 0.34; stroke-width: 0.85; stroke-linecap: square"/>
     </g>
     <g id="line2d_6">
      <g>
       <use xlink:href="#md662bd2238" x="270.094992" y="378.010629" style="fill: #32383a; stroke: #32383a; stroke-width: 0.8"/>
      </g>
     </g>
     <g id="text_3">
      <!-- 2 -->
      <g style="fill: #32383a" transform="translate(267.01636 393.404067) scale(0.105 -0.105)">
       <defs>
        <path id="MicrosoftYaHei-32" d="M 2666 3572 
Q 2666 3963 2419 4186 
Q 2172 4409 1747 4409 
Q 1447 4409 1140 4256 
Q 834 4103 569 3819 
L 569 4413 
Q 806 4659 1107 4790 
Q 1409 4922 1816 4922 
Q 2472 4922 2872 4570 
Q 3272 4219 3272 3619 
Q 3272 3084 3026 2693 
Q 2781 2303 2188 1894 
Q 1581 1475 1376 1294 
Q 1172 1113 1090 947 
Q 1009 781 1009 544 
L 3416 544 
L 3416 0 
L 372 0 
L 372 241 
Q 372 659 486 951 
Q 600 1244 862 1520 
Q 1125 1797 1681 2184 
Q 2250 2584 2458 2886 
Q 2666 3188 2666 3572 
z
" transform="scale(0.015625)"/>
       </defs>
       <use xlink:href="#MicrosoftYaHei-32"/>
      </g>
     </g>
    </g>
    <g id="xtick_4">
     <g id="line2d_7">
      <path d="M 379.228512 378.010629 
L 379.228512 36.6295 
" clip-path="url(#p5a54642f57)" style="fill: none; stroke: #d8d1c5; stroke-opacity: 0.34; stroke-width: 0.85; stroke-linecap: square"/>
     </g>
     <g id="line2d_8">
      <g>
       <use xlink:href="#md662bd2238" x="379.228512" y="378.010629" style="fill: #32383a; stroke: #32383a; stroke-width: 0.8"/>
      </g>
     </g>
     <g id="text_4">
      <!-- 3 -->
      <g style="fill: #32383a" transform="translate(376.149879 393.404067) scale(0.105 -0.105)">
       <defs>
        <path id="MicrosoftYaHei-33" d="M 447 809 
Q 944 425 1569 425 
Q 2069 425 2361 670 
Q 2653 916 2653 1328 
Q 2653 2247 1338 2247 
L 934 2247 
L 934 2753 
L 1319 2753 
Q 2484 2753 2484 3616 
Q 2484 4413 1594 4413 
Q 1084 4413 634 4069 
L 634 4647 
Q 1109 4922 1744 4922 
Q 2363 4922 2738 4598 
Q 3113 4275 3113 3759 
Q 3113 2809 2144 2538 
L 2144 2525 
Q 2669 2469 2973 2155 
Q 3278 1841 3278 1372 
Q 3278 719 2808 319 
Q 2338 -81 1556 -81 
Q 869 -81 447 175 
L 447 809 
z
" transform="scale(0.015625)"/>
       </defs>
       <use xlink:href="#MicrosoftYaHei-33"/>
      </g>
     </g>
    </g>
    <g id="xtick_5">
     <g id="line2d_9">
      <path d="M 488.362032 378.010629 
L 488.362032 36.6295 
" clip-path="url(#p5a54642f57)" style="fill: none; stroke: #d8d1c5; stroke-opacity: 0.34; stroke-width: 0.85; stroke-linecap: square"/>
     </g>
     <g id="line2d_10">
      <g>
       <use xlink:href="#md662bd2238" x="488.362032" y="378.010629" style="fill: #32383a; stroke: #32383a; stroke-width: 0.8"/>
      </g>
     </g>
     <g id="text_5">
      <!-- 4 -->
      <g style="fill: #32383a" transform="translate(485.283399 393.404067) scale(0.105 -0.105)">
       <defs>
        <path id="MicrosoftYaHei-34" d="M 2906 4841 
L 2906 1644 
L 3631 1644 
L 3631 1138 
L 2906 1138 
L 2906 0 
L 2313 0 
L 2313 1138 
L 53 1138 
L 53 1616 
Q 656 2294 1265 3178 
Q 1875 4063 2272 4841 
L 2906 4841 
z
M 741 1644 
L 2313 1644 
L 2313 3950 
Q 1988 3366 1616 2817 
Q 1244 2269 741 1644 
z
" transform="scale(0.015625)"/>
       </defs>
       <use xlink:href="#MicrosoftYaHei-34"/>
      </g>
     </g>
    </g>
    <g id="xtick_6">
     <g id="line2d_11">
      <path d="M 597.495551 378.010629 
L 597.495551 36.6295 
" clip-path="url(#p5a54642f57)" style="fill: none; stroke: #d8d1c5; stroke-opacity: 0.34; stroke-width: 0.85; stroke-linecap: square"/>
     </g>
     <g id="line2d_12">
      <g>
       <use xlink:href="#md662bd2238" x="597.495551" y="378.010629" style="fill: #32383a; stroke: #32383a; stroke-width: 0.8"/>
      </g>
     </g>
     <g id="text_6">
      <!-- 5 -->
      <g style="fill: #32383a" transform="translate(594.416918 393.404067) scale(0.105 -0.105)">
       <defs>
        <path id="MicrosoftYaHei-35" d="M 3294 1494 
Q 3294 784 2823 350 
Q 2353 -84 1559 -84 
Q 878 -84 544 119 
L 544 744 
Q 1034 425 1544 425 
Q 2050 425 2361 704 
Q 2672 984 2672 1447 
Q 2672 1909 2348 2167 
Q 2025 2425 1434 2425 
Q 978 2425 613 2384 
L 791 4841 
L 3053 4841 
L 3053 4303 
L 1306 4303 
L 1206 2931 
L 1647 2950 
Q 2416 2950 2855 2567 
Q 3294 2184 3294 1494 
z
" transform="scale(0.015625)"/>
       </defs>
       <use xlink:href="#MicrosoftYaHei-35"/>
      </g>
     </g>
    </g>
    <g id="text_7">
     <!-- 统一补贴强度  b -->
     <g transform="translate(280.55494 415.766676) scale(0.122 -0.122)">
      <defs>
       <path id="MicrosoftYaHei-7edf" d="M 5100 3641 
Q 5625 2934 6175 2047 
Q 5956 1922 5713 1766 
Q 5556 2031 5413 2275 
Q 5122 2256 4813 2241 
L 4813 122 
Q 4813 -259 5094 -259 
L 5400 -259 
Q 5706 -259 5750 53 
Q 5800 428 5813 866 
Q 6019 778 6313 684 
Q 6263 141 6206 -159 
Q 6119 -703 5550 -703 
L 5013 -703 
Q 4331 -703 4331 78 
L 4331 2213 
Q 3981 2194 3606 2169 
Q 3556 809 3256 272 
Q 2900 -416 1925 -866 
Q 1788 -672 1606 -447 
Q 2513 -78 2819 522 
Q 3100 1000 3122 2138 
Q 2994 2128 2863 2122 
Q 2594 2097 2363 2041 
L 2150 2528 
Q 2419 2641 2581 2828 
Q 3050 3388 3463 4047 
L 2100 4047 
L 2100 4491 
L 4094 4491 
Q 3859 4850 3650 5128 
L 4063 5384 
Q 4300 5091 4594 4684 
L 4297 4491 
L 6200 4491 
L 6200 4047 
L 3663 4047 
L 4006 3897 
Q 3488 3197 2988 2609 
Q 4166 2650 5153 2694 
Q 4916 3075 4700 3391 
L 5100 3641 
z
M 894 1534 
Q 1394 1603 2175 1722 
Q 2138 1472 2113 1259 
Q 1331 1153 325 991 
L 225 1441 
Q 616 1841 1153 2744 
Q 503 2700 219 2678 
L 100 3103 
Q 650 3828 1288 5316 
L 1763 5128 
Q 1156 3941 656 3141 
Q 1066 3147 1394 3159 
Q 1581 3494 1788 3884 
L 2256 3678 
Q 1544 2434 894 1534 
z
M 81 222 
Q 1119 422 2225 672 
Q 2200 347 2200 222 
Q 1069 -28 225 -253 
L 81 222 
z
" transform="scale(0.015625)"/>
       <path id="MicrosoftYaHei-4e00" d="M 100 2703 
L 6313 2703 
L 6313 2153 
L 100 2153 
L 100 2703 
z
" transform="scale(0.015625)"/>
       <path id="MicrosoftYaHei-8865" d="M 163 3616 
L 163 4078 
L 2450 4078 
L 2450 3603 
Q 2106 3072 1700 2591 
L 1700 2228 
Q 1813 2147 1931 2066 
Q 2388 2516 2781 3009 
L 3169 2666 
Q 2681 2222 2256 1841 
Q 2650 1566 3031 1291 
L 2725 872 
Q 2156 1347 1700 1697 
L 1700 -841 
L 1194 -841 
L 1194 2047 
Q 750 1609 244 1228 
Q 163 1509 75 1766 
Q 1181 2597 1875 3616 
L 163 3616 
z
M 3775 5266 
L 4294 5266 
L 4294 3184 
L 4613 3434 
Q 5569 2584 6331 1784 
L 5888 1372 
Q 5194 2203 4294 3053 
L 4294 -841 
L 3775 -841 
L 3775 5266 
z
M 1038 5059 
L 1475 5278 
Q 1706 4909 1963 4422 
L 1500 4184 
Q 1256 4691 1038 5059 
z
" transform="scale(0.015625)"/>
       <path id="MicrosoftYaHei-8d34" d="M 3238 2116 
L 4213 2116 
L 4213 5322 
L 4719 5322 
L 4719 3997 
L 6313 3997 
L 6313 3522 
L 4719 3522 
L 4719 2116 
L 5975 2116 
L 5975 -866 
L 5500 -866 
L 5500 -503 
L 3713 -503 
L 3713 -866 
L 3238 -866 
L 3238 2116 
z
M 431 4997 
L 2831 4997 
L 2831 1078 
L 2381 1078 
L 2381 4541 
L 881 4541 
L 881 1041 
L 431 1041 
L 431 4997 
z
M 5500 1691 
L 3713 1691 
L 3713 -78 
L 5500 -78 
L 5500 1691 
z
M 1406 4022 
L 1856 4022 
L 1856 2691 
Q 1856 1466 1700 809 
L 1931 1016 
Q 2531 366 3050 -216 
L 2631 -553 
Q 2169 53 1650 634 
Q 1438 -78 475 -809 
Q 325 -609 125 -397 
Q 919 122 1169 709 
Q 1406 1203 1406 2509 
L 1406 4022 
z
" transform="scale(0.015625)"/>
       <path id="MicrosoftYaHei-5f3a" d="M 5250 466 
L 5669 666 
Q 6031 28 6363 -641 
L 5894 -878 
Q 5794 -641 5688 -416 
Q 3750 -547 2219 -653 
L 2150 -134 
Q 3088 -97 3969 -59 
L 3969 866 
L 2894 866 
L 2894 622 
L 2431 622 
L 2431 2616 
L 3969 2616 
L 3969 3297 
L 3144 3297 
L 3144 3047 
L 2681 3047 
L 2681 4972 
L 5731 4972 
L 5731 3047 
L 5269 3047 
L 5269 3297 
L 4444 3297 
L 4444 2616 
L 5988 2616 
L 5988 866 
L 4444 866 
L 4444 -41 
Q 4975 -22 5488 3 
Q 5369 241 5250 466 
z
M 425 3466 
L 1650 3466 
L 1650 4516 
L 238 4516 
L 238 4941 
L 2113 4941 
L 2113 2772 
L 1650 2772 
L 1650 3041 
L 831 3041 
L 719 2072 
L 2056 2072 
Q 1994 741 1944 128 
Q 1888 -722 1100 -722 
Q 819 -722 425 -716 
Q 388 -484 325 -216 
Q 731 -247 1019 -247 
Q 1444 -247 1475 191 
Q 1525 828 1563 1647 
L 225 1647 
L 425 3466 
z
M 5269 4547 
L 3144 4547 
L 3144 3722 
L 5269 3722 
L 5269 4547 
z
M 5525 1291 
L 5525 2191 
L 4444 2191 
L 4444 1291 
L 5525 1291 
z
M 2894 1291 
L 3969 1291 
L 3969 2191 
L 2894 2191 
L 2894 1291 
z
" transform="scale(0.015625)"/>
       <path id="MicrosoftYaHei-5ea6" d="M 1550 1216 
L 1550 1628 
L 5469 1628 
L 5469 1222 
Q 4903 613 4147 163 
Q 5050 -200 6263 -309 
L 6019 -797 
Q 4625 -603 3644 -109 
Q 2600 -619 1250 -866 
Q 1150 -666 994 -416 
Q 2231 -222 3166 166 
Q 2497 600 2066 1216 
L 1550 1216 
z
M 1363 3541 
L 2294 3541 
L 2294 4066 
L 2769 4066 
L 2769 3541 
L 4538 3541 
L 4538 4072 
L 5013 4072 
L 5013 3541 
L 6150 3541 
L 6150 3128 
L 5013 3128 
L 5013 1928 
L 4538 1928 
L 4538 2147 
L 2769 2147 
L 2769 1922 
L 2294 1922 
L 2294 3128 
L 1363 3128 
L 1363 3541 
z
M 3025 5172 
L 3481 5391 
Q 3694 5056 3909 4634 
L 6213 4634 
L 6213 4197 
L 1225 4197 
L 1225 2316 
Q 1225 178 394 -872 
Q 238 -666 38 -447 
Q 725 397 738 2347 
L 738 4634 
L 3331 4634 
Q 3188 4909 3025 5172 
z
M 2769 2547 
L 4538 2547 
L 4538 3128 
L 2769 3128 
L 2769 2547 
z
M 4819 1216 
L 2588 1216 
Q 3031 728 3656 391 
Q 4334 741 4819 1216 
z
" transform="scale(0.015625)"/>
       <path id="MicrosoftYaHei-20" transform="scale(0.015625)"/>
       <path id="MicrosoftYaHei-62" d="M 1159 488 
L 1159 0 
L 547 0 
L 547 5116 
L 1159 5116 
L 1159 2859 
L 1172 2859 
Q 1578 3538 2359 3538 
Q 3009 3538 3392 3080 
Q 3775 2622 3775 1828 
Q 3775 953 3345 436 
Q 2916 -81 2200 -81 
Q 1525 -81 1172 488 
L 1159 488 
z
M 1156 1422 
Q 1156 1003 1428 714 
Q 1700 425 2109 425 
Q 2597 425 2872 800 
Q 3147 1175 3147 1838 
Q 3147 2384 2890 2707 
Q 2634 3031 2191 3031 
Q 1741 3031 1448 2709 
Q 1156 2388 1156 1891 
L 1156 1422 
z
" transform="scale(0.015625)"/>
      </defs>
      <use xlink:href="#MicrosoftYaHei-7edf"/>
      <use xlink:href="#MicrosoftYaHei-4e00" x="100"/>
      <use xlink:href="#MicrosoftYaHei-8865" x="200"/>
      <use xlink:href="#MicrosoftYaHei-8d34" x="300"/>
      <use xlink:href="#MicrosoftYaHei-5f3a" x="400"/>
      <use xlink:href="#MicrosoftYaHei-5ea6" x="500"/>
      <use xlink:href="#MicrosoftYaHei-20" x="600"/>
      <use xlink:href="#MicrosoftYaHei-20" x="629.589844"/>
      <use xlink:href="#MicrosoftYaHei-62" x="659.179688"/>
     </g>
    </g>
   </g>
   <g id="matplotlib.axis_2">
    <g id="ytick_1">
     <g id="line2d_13">
      <path d="M 51.827953 378.010629 
L 597.495551 378.010629 
" clip-path="url(#p5a54642f57)" style="fill: none; stroke: #d8d1c5; stroke-opacity: 0.34; stroke-width: 0.85; stroke-linecap: square"/>
     </g>
     <g id="line2d_14">
      <defs>
       <path id="m509f219020" d="M 0 0 
L -3.5 0 
" style="stroke: #32383a; stroke-width: 0.8"/>
      </defs>
      <g>
       <use xlink:href="#m509f219020" x="51.827953" y="378.010629" style="fill: #32383a; stroke: #32383a; stroke-width: 0.8"/>
      </g>
     </g>
     <g id="text_8">
      <!-- 0.0 -->
      <g style="fill: #2f9c5b" transform="translate(29.985219 382.207348) scale(0.105 -0.105)">
       <defs>
        <path id="MicrosoftYaHei-2e" d="M 372 322 
Q 372 491 487 606 
Q 603 722 775 722 
Q 950 722 1065 605 
Q 1181 488 1181 322 
Q 1181 159 1065 42 
Q 950 -75 772 -75 
Q 600 -75 486 42 
Q 372 159 372 322 
z
" transform="scale(0.015625)"/>
       </defs>
       <use xlink:href="#MicrosoftYaHei-30"/>
       <use xlink:href="#MicrosoftYaHei-2e" x="58.642578"/>
       <use xlink:href="#MicrosoftYaHei-30" x="82.714844"/>
      </g>
     </g>
    </g>
    <g id="ytick_2">
     <g id="line2d_15">
      <path d="M 51.827953 312.985652 
L 597.495551 312.985652 
" clip-path="url(#p5a54642f57)" style="fill: none; stroke: #d8d1c5; stroke-opacity: 0.34; stroke-width: 0.85; stroke-linecap: square"/>
     </g>
     <g id="line2d_16">
      <g>
       <use xlink:href="#m509f219020" x="51.827953" y="312.985652" style="fill: #32383a; stroke: #32383a; stroke-width: 0.8"/>
      </g>
     </g>
     <g id="text_9">
      <!-- 0.2 -->
      <g style="fill: #2f9c5b" transform="translate(29.985219 317.182371) scale(0.105 -0.105)">
       <use xlink:href="#MicrosoftYaHei-30"/>
       <use xlink:href="#MicrosoftYaHei-2e" x="58.642578"/>
       <use xlink:href="#MicrosoftYaHei-32" x="82.714844"/>
      </g>
     </g>
    </g>
    <g id="ytick_3">
     <g id="line2d_17">
      <path d="M 51.827953 247.960675 
L 597.495551 247.960675 
" clip-path="url(#p5a54642f57)" style="fill: none; stroke: #d8d1c5; stroke-opacity: 0.34; stroke-width: 0.85; stroke-linecap: square"/>
     </g>
     <g id="line2d_18">
      <g>
       <use xlink:href="#m509f219020" x="51.827953" y="247.960675" style="fill: #32383a; stroke: #32383a; stroke-width: 0.8"/>
      </g>
     </g>
     <g id="text_10">
      <!-- 0.4 -->
      <g style="fill: #2f9c5b" transform="translate(29.985219 252.157394) scale(0.105 -0.105)">
       <use xlink:href="#MicrosoftYaHei-30"/>
       <use xlink:href="#MicrosoftYaHei-2e" x="58.642578"/>
       <use xlink:href="#MicrosoftYaHei-34" x="82.714844"/>
      </g>
     </g>
    </g>
    <g id="ytick_4">
     <g id="line2d_19">
      <path d="M 51.827953 182.935698 
L 597.495551 182.935698 
" clip-path="url(#p5a54642f57)" style="fill: none; stroke: #d8d1c5; stroke-opacity: 0.34; stroke-width: 0.85; stroke-linecap: square"/>
     </g>
     <g id="line2d_20">
      <g>
       <use xlink:href="#m509f219020" x="51.827953" y="182.935698" style="fill: #32383a; stroke: #32383a; stroke-width: 0.8"/>
      </g>
     </g>
     <g id="text_11">
      <!-- 0.6 -->
      <g style="fill: #2f9c5b" transform="translate(29.985219 187.132417) scale(0.105 -0.105)">
       <defs>
        <path id="MicrosoftYaHei-36" d="M 3181 4219 
Q 2803 4413 2391 4413 
Q 1763 4413 1381 3866 
Q 1000 3319 994 2372 
L 1009 2372 
Q 1353 3038 2106 3038 
Q 2734 3038 3109 2628 
Q 3484 2219 3484 1541 
Q 3484 831 3051 375 
Q 2619 -81 1947 -81 
Q 1209 -81 789 495 
Q 369 1072 369 2131 
Q 369 3413 920 4167 
Q 1472 4922 2372 4922 
Q 2888 4922 3181 4781 
L 3181 4219 
z
M 1031 1584 
Q 1031 1106 1286 765 
Q 1541 425 1963 425 
Q 2363 425 2613 719 
Q 2863 1013 2863 1475 
Q 2863 1975 2627 2253 
Q 2391 2531 1956 2531 
Q 1544 2531 1287 2250 
Q 1031 1969 1031 1584 
z
" transform="scale(0.015625)"/>
       </defs>
       <use xlink:href="#MicrosoftYaHei-30"/>
       <use xlink:href="#MicrosoftYaHei-2e" x="58.642578"/>
       <use xlink:href="#MicrosoftYaHei-36" x="82.714844"/>
      </g>
     </g>
    </g>
    <g id="ytick_5">
     <g id="line2d_21">
      <path d="M 51.827953 117.910721 
L 597.495551 117.910721 
" clip-path="url(#p5a54642f57)" style="fill: none; stroke: #d8d1c5; stroke-opacity: 0.34; stroke-width: 0.85; stroke-linecap: square"/>
     </g>
     <g id="line2d_22">
      <g>
       <use xlink:href="#m509f219020" x="51.827953" y="117.910721" style="fill: #32383a; stroke: #32383a; stroke-width: 0.8"/>
      </g>
     </g>
     <g id="text_12">
      <!-- 0.8 -->
      <g style="fill: #2f9c5b" transform="translate(29.985219 122.10744) scale(0.105 -0.105)">
       <defs>
        <path id="MicrosoftYaHei-38" d="M 306 1350 
Q 306 1769 556 2122 
Q 806 2475 1200 2625 
Q 884 2803 700 3081 
Q 516 3359 516 3684 
Q 516 4028 692 4312 
Q 869 4597 1183 4759 
Q 1497 4922 1875 4922 
Q 2256 4922 2572 4761 
Q 2888 4600 3063 4315 
Q 3238 4031 3238 3684 
Q 3238 3366 3058 3086 
Q 2878 2806 2559 2625 
Q 2953 2472 3200 2119 
Q 3447 1766 3447 1350 
Q 3447 938 3250 611 
Q 3053 284 2690 103 
Q 2328 -78 1875 -78 
Q 1425 -78 1065 103 
Q 706 284 506 612 
Q 306 941 306 1350 
z
M 906 1378 
Q 906 947 1172 687 
Q 1438 428 1878 428 
Q 2309 428 2582 692 
Q 2856 956 2856 1378 
Q 2856 1778 2579 2051 
Q 2303 2325 1878 2325 
Q 1456 2325 1181 2058 
Q 906 1791 906 1378 
z
M 1081 3634 
Q 1081 3309 1312 3076 
Q 1544 2844 1878 2844 
Q 2206 2844 2445 3078 
Q 2684 3313 2684 3634 
Q 2684 3963 2454 4191 
Q 2225 4419 1878 4419 
Q 1534 4419 1307 4195 
Q 1081 3972 1081 3634 
z
" transform="scale(0.015625)"/>
       </defs>
       <use xlink:href="#MicrosoftYaHei-30"/>
       <use xlink:href="#MicrosoftYaHei-2e" x="58.642578"/>
       <use xlink:href="#MicrosoftYaHei-38" x="82.714844"/>
      </g>
     </g>
    </g>
    <g id="ytick_6">
     <g id="line2d_23">
      <path d="M 51.827953 52.885744 
L 597.495551 52.885744 
" clip-path="url(#p5a54642f57)" style="fill: none; stroke: #d8d1c5; stroke-opacity: 0.34; stroke-width: 0.85; stroke-linecap: square"/>
     </g>
     <g id="line2d_24">
      <g>
       <use xlink:href="#m509f219020" x="51.827953" y="52.885744" style="fill: #32383a; stroke: #32383a; stroke-width: 0.8"/>
      </g>
     </g>
     <g id="text_13">
      <!-- 1.0 -->
      <g style="fill: #2f9c5b" transform="translate(29.985219 57.082463) scale(0.105 -0.105)">
       <use xlink:href="#MicrosoftYaHei-31"/>
       <use xlink:href="#MicrosoftYaHei-2e" x="58.642578"/>
       <use xlink:href="#MicrosoftYaHei-30" x="82.714844"/>
      </g>
     </g>
    </g>
    <g id="text_14">
     <!-- 最终综合份额  $L_A$ -->
     <g style="fill: #2f9c5b" transform="translate(16.952375 254.046065) rotate(-90) scale(0.122 -0.122)">
      <defs>
       <path id="MicrosoftYaHei-6700" d="M 169 -28 
Q 475 3 781 38 
L 781 2416 
L 94 2416 
L 94 2791 
L 6288 2791 
L 6288 2416 
L 3025 2416 
L 3025 331 
Q 3325 375 3625 422 
Q 3619 309 3631 22 
Q 3338 -19 3025 -63 
L 3025 -859 
L 2600 -859 
L 2600 -125 
Q 1525 -278 281 -472 
L 169 -28 
z
M 1038 5053 
L 5363 5053 
L 5363 3047 
L 4925 3047 
L 4925 3191 
L 1475 3191 
L 1475 3047 
L 1038 3047 
L 1038 5053 
z
M 3338 1609 
L 3338 1972 
L 5819 1972 
L 5819 1609 
Q 5500 844 4981 278 
Q 5516 -113 6306 -316 
Q 6144 -553 6025 -753 
Q 5219 -488 4666 -34 
Q 4128 -516 3413 -822 
Q 3306 -634 3125 -428 
Q 3834 -156 4347 266 
Q 3825 825 3603 1609 
L 3338 1609 
z
M 1475 3553 
L 4925 3553 
L 4925 3953 
L 1475 3953 
L 1475 3553 
z
M 4925 4691 
L 1475 4691 
L 1475 4291 
L 4925 4291 
L 4925 4691 
z
M 5344 1609 
L 4025 1609 
Q 4222 994 4659 556 
Q 5094 1013 5344 1609 
z
M 2600 269 
L 2600 691 
L 1206 691 
L 1206 88 
Q 1913 172 2600 269 
z
M 1206 1916 
L 2600 1916 
L 2600 2416 
L 1206 2416 
L 1206 1916 
z
M 1206 1053 
L 2600 1053 
L 2600 1553 
L 1206 1553 
L 1206 1053 
z
" transform="scale(0.015625)"/>
       <path id="MicrosoftYaHei-7ec8" d="M 2156 3234 
Q 2944 4253 3356 5366 
L 3825 5209 
Q 3700 4925 3563 4653 
L 5906 4653 
L 5906 4209 
Q 5425 3378 4663 2750 
Q 5381 2259 6350 2097 
Q 6219 1797 6131 1566 
Q 5038 1875 4278 2456 
Q 3447 1878 2331 1503 
Q 2231 1734 2113 1941 
Q 3156 2238 3931 2756 
Q 3434 3228 3119 3847 
Q 2816 3350 2469 2903 
Q 2350 3041 2156 3234 
z
M 888 1528 
Q 1413 1603 2113 1709 
Q 2075 1466 2056 1241 
Q 1344 1141 319 978 
L 219 1434 
Q 594 1828 1163 2794 
Q 506 2753 219 2728 
L 100 3153 
Q 663 3897 1288 5366 
L 1763 5178 
Q 1156 3991 656 3191 
Q 1047 3200 1403 3209 
Q 1638 3625 1900 4122 
L 2369 3916 
Q 1463 2347 888 1528 
z
M 2625 109 
L 2819 547 
Q 3969 234 5675 -297 
L 5444 -791 
Q 3850 -222 2625 109 
z
M 5356 4234 
L 3372 4234 
Q 3750 3513 4303 3028 
Q 4938 3541 5356 4234 
z
M 88 66 
Q 1069 259 2250 547 
Q 2231 203 2231 78 
Q 1375 -109 225 -416 
L 88 66 
z
M 3338 1247 
L 3525 1666 
Q 4469 1384 5413 1047 
L 5206 553 
Q 4275 953 3338 1247 
z
" transform="scale(0.015625)"/>
       <path id="MicrosoftYaHei-7efc" d="M 881 1578 
Q 1550 1684 2100 1778 
Q 2063 1534 2044 1303 
Q 988 1159 306 1022 
L 194 1484 
Q 678 1988 1188 2756 
Q 581 2719 250 2691 
L 131 3116 
Q 813 4022 1394 5347 
L 1869 5159 
Q 1288 4041 694 3153 
Q 1091 3163 1453 3172 
Q 1691 3566 1938 4016 
L 2400 3784 
Q 1588 2484 881 1578 
z
M 2406 2016 
L 6275 2016 
L 6275 1603 
L 4638 1603 
L 4638 3 
Q 4638 -747 3888 -747 
Q 3631 -747 3213 -741 
Q 3181 -553 3119 -259 
Q 3469 -297 3756 -297 
Q 4163 -297 4163 134 
L 4163 1603 
L 2406 1603 
L 2406 2016 
z
M 2513 4528 
L 4166 4528 
Q 3931 4878 3713 5147 
L 4125 5397 
Q 4431 5041 4650 4716 
L 4347 4528 
L 6194 4528 
L 6194 3522 
L 5731 3522 
L 5731 4116 
L 2975 4116 
L 2975 3522 
L 2513 3522 
L 2513 4528 
z
M 2781 3241 
L 5913 3241 
L 5913 2828 
L 2781 2828 
L 2781 3241 
z
M 113 84 
Q 944 197 2175 428 
Q 2138 91 2131 -34 
Q 1425 -147 225 -391 
L 113 84 
z
M 3044 1284 
L 3500 1091 
Q 3081 203 2688 -428 
Q 2469 -309 2238 -197 
Q 2681 466 3044 1284 
z
M 5081 1059 
L 5506 1278 
Q 5931 641 6344 -134 
L 5888 -384 
Q 5469 441 5081 1059 
z
" transform="scale(0.015625)"/>
       <path id="MicrosoftYaHei-5408" d="M 1025 1909 
L 5381 1909 
L 5381 -866 
L 4881 -866 
L 4881 -447 
L 1525 -447 
L 1525 -878 
L 1025 -878 
L 1025 1909 
z
M 3700 5234 
L 3550 5053 
Q 4594 3697 6319 3009 
Q 6125 2734 5988 2509 
Q 5481 2753 5025 3059 
L 5025 2703 
L 1369 2703 
L 1369 3016 
Q 913 2716 394 2428 
Q 269 2641 81 2897 
Q 2013 3866 3000 5234 
L 3700 5234 
z
M 4881 1453 
L 1525 1453 
L 1525 -3 
L 4881 -3 
L 4881 1453 
z
M 3219 4691 
Q 2581 3872 1550 3147 
L 4894 3147 
Q 3944 3797 3219 4691 
z
" transform="scale(0.015625)"/>
       <path id="MicrosoftYaHei-4efd" d="M 2269 2653 
L 5394 2653 
Q 5388 2566 5300 366 
Q 5275 -709 4319 -722 
Q 3806 -722 3425 -703 
Q 3394 -416 3331 -184 
Q 3763 -241 4200 -253 
Q 4806 -297 4813 422 
Q 4863 1259 4888 2216 
L 3481 2216 
Q 3463 1222 3181 572 
Q 2844 -172 2019 -822 
Q 1856 -622 1656 -416 
Q 2450 203 2713 772 
Q 2969 1275 2997 2216 
L 2269 2216 
L 2269 2653 
z
M 75 2353 
Q 969 3534 1525 5284 
L 2013 5116 
Q 1709 4284 1350 3559 
L 1350 -809 
L 875 -809 
L 875 2691 
Q 588 2216 275 1797 
Q 181 2066 75 2353 
z
M 4006 5116 
L 4419 5291 
Q 5038 3703 6325 2972 
Q 6088 2697 5969 2516 
Q 4575 3472 4006 5116 
z
M 1588 2741 
Q 2563 3597 3163 5034 
L 3606 4866 
Q 3025 3409 1963 2397 
Q 1738 2628 1588 2741 
z
" transform="scale(0.015625)"/>
       <path id="MicrosoftYaHei-989d" d="M 863 2484 
L 1094 2834 
Q 1463 2653 1794 2491 
Q 2119 2809 2344 3203 
L 1125 3203 
Q 794 2659 419 2247 
Q 281 2397 125 2547 
Q 719 3172 1100 4072 
L 1513 3934 
Q 1425 3747 1331 3578 
L 2844 3578 
L 2844 3222 
Q 2588 2703 2194 2291 
Q 2738 2016 3194 1778 
L 2938 1372 
Q 2406 1678 1850 1978 
Q 1381 1597 763 1322 
L 2756 1322 
L 2756 -684 
L 2344 -684 
L 2344 -416 
L 1063 -416 
L 1063 -734 
L 650 -734 
L 650 1272 
Q 463 1197 269 1128 
Q 188 1297 63 1509 
Q 869 1766 1444 2191 
Q 1156 2334 863 2484 
z
M 3369 3728 
L 4281 3728 
L 4425 4516 
L 3244 4516 
L 3244 4941 
L 6231 4941 
L 6231 4516 
L 4906 4516 
L 4738 3728 
L 6038 3728 
L 6038 591 
L 5600 591 
L 5600 3303 
L 3806 3303 
L 3806 591 
L 3369 591 
L 3369 3728 
z
M 4481 2916 
L 4931 2916 
Q 4944 1322 4788 709 
Q 5688 78 6356 -453 
L 6044 -853 
Q 5438 -303 4619 291 
Q 4231 -416 3169 -916 
Q 3044 -734 2869 -516 
Q 4019 -3 4294 716 
Q 4519 1216 4481 2916 
z
M 250 4591 
L 1538 4591 
Q 1413 4872 1244 5172 
L 1650 5347 
Q 1881 4916 2031 4591 
L 3138 4591 
L 3138 3709 
L 2713 3709 
L 2713 4216 
L 675 4216 
L 675 3709 
L 250 3709 
L 250 4591 
z
M 2344 934 
L 1063 934 
L 1063 -28 
L 2344 -28 
L 2344 934 
z
" transform="scale(0.015625)"/>
       <path id="DejaVuSans-Oblique-4c" d="M 1075 4666 
L 1709 4666 
L 909 525 
L 3181 525 
L 3078 0 
L 172 0 
L 1075 4666 
z
" transform="scale(0.015625)"/>
       <path id="DejaVuSans-Oblique-41" d="M 2356 4666 
L 3072 4666 
L 3938 0 
L 3278 0 
L 3084 1197 
L 984 1197 
L 325 0 
L -341 0 
L 2356 4666 
z
M 2584 4044 
L 1275 1722 
L 2988 1722 
L 2584 4044 
z
" transform="scale(0.015625)"/>
      </defs>
      <use xlink:href="#MicrosoftYaHei-6700" transform="translate(0 0.671875)"/>
      <use xlink:href="#MicrosoftYaHei-7ec8" transform="translate(100 0.671875)"/>
      <use xlink:href="#MicrosoftYaHei-7efc" transform="translate(200 0.671875)"/>
      <use xlink:href="#MicrosoftYaHei-5408" transform="translate(300 0.671875)"/>
      <use xlink:href="#MicrosoftYaHei-4efd" transform="translate(400 0.671875)"/>
      <use xlink:href="#MicrosoftYaHei-989d" transform="translate(500 0.671875)"/>
      <use xlink:href="#MicrosoftYaHei-20" transform="translate(600 0.671875)"/>
      <use xlink:href="#MicrosoftYaHei-20" transform="translate(629.589844 0.671875)"/>
      <use xlink:href="#DejaVuSans-Oblique-4c" transform="translate(659.179688 0.671875)"/>
      <use xlink:href="#DejaVuSans-Oblique-41" transform="translate(714.892578 -15.734375) scale(0.7)"/>
     </g>
    </g>
   </g>
   <g id="line2d_25">
    <path d="M 51.827953 182.935698 
L 597.495551 182.935698 
" clip-path="url(#p5a54642f57)" style="fill: none; stroke-dasharray: 4.6,4.6; stroke-dashoffset: 0; stroke: #687070; stroke-opacity: 0.7; stroke-width: 1.15"/>
   </g>
   <g id="line2d_26">
    <path d="M 51.827953 377.459501 
L 57.284629 377.400226 
L 62.741305 377.334417 
L 68.197981 377.261315 
L 73.654657 377.180064 
L 79.111333 377.089699 
L 84.568009 376.989122 
L 90.024685 376.877091 
L 95.481361 376.752186 
L 100.938037 376.612782 
L 106.394713 376.457014 
L 111.851389 376.282727 
L 117.308065 376.087425 
L 122.764741 375.86819 
L 128.221417 375.621593 
L 133.678093 375.343579 
L 139.134769 375.029295 
L 144.591445 374.672881 
L 150.048121 52.975333 
L 155.504797 52.966786 
L 160.961473 52.959049 
L 166.418149 52.952058 
L 171.874825 52.945733 
L 177.331501 52.940014 
L 182.788177 52.934841 
L 188.244853 52.93016 
L 193.701529 52.925928 
L 199.158205 52.922099 
L 204.614881 52.918635 
L 210.071557 52.915503 
L 215.528233 52.912668 
L 220.984909 52.910103 
L 226.441585 52.907783 
L 231.898261 52.905685 
L 237.354936 52.903786 
L 242.811612 52.902068 
L 248.268288 52.900514 
L 253.724964 52.899109 
L 259.18164 52.897837 
L 264.638316 52.896685 
L 270.094992 52.895644 
L 275.551668 52.894702 
L 281.008344 52.893849 
L 286.46502 52.893078 
L 291.921696 52.892381 
L 297.378372 52.891749 
L 302.835048 52.891178 
L 308.291724 52.89066 
L 313.7484 52.890192 
L 319.205076 52.889769 
L 324.661752 52.889385 
L 330.118428 52.889039 
L 335.575104 52.888725 
L 341.03178 52.888442 
L 346.488456 52.888185 
L 351.945132 52.887953 
L 357.401808 52.887744 
L 362.858484 52.887553 
L 368.31516 52.887381 
L 373.771836 52.887225 
L 379.228512 52.887084 
L 384.685188 52.886957 
L 390.141864 52.886841 
L 395.59854 52.886738 
L 401.055216 52.886643 
L 406.511892 52.886558 
L 411.968568 52.88648 
L 417.425244 52.88641 
L 422.88192 52.886347 
L 428.338596 52.88629 
L 433.795272 52.886238 
L 439.251948 52.886191 
L 444.708624 52.886149 
L 450.1653 52.88611 
L 455.621976 52.886076 
L 461.078652 52.886044 
L 466.535328 52.886016 
L 471.992004 52.88599 
L 477.44868 52.885965 
L 482.905356 52.885943 
L 488.362032 52.885924 
L 493.818708 52.885907 
L 499.275384 52.885892 
L 504.73206 52.885877 
L 510.188736 52.885861 
L 515.645412 52.885854 
L 521.102088 52.885842 
L 526.558763 52.885829 
L 532.015439 52.885823 
L 537.472115 52.885817 
L 542.928791 52.885814 
L 548.385467 52.885808 
L 553.842143 52.885822 
L 559.298819 52.885825 
L 564.755495 52.885812 
L 570.212171 52.885798 
L 575.668847 52.885792 
L 581.125523 52.88579 
L 586.582199 52.885787 
L 592.038875 52.885808 
L 597.495551 52.885782 
" clip-path="url(#p5a54642f57)" style="fill: none; stroke: #2f9c5b; stroke-width: 2.8; stroke-linecap: round"/>
   </g>
   <g id="line2d_27">
    <path d="M 150.048121 378.010629 
L 150.048121 36.6295 
" clip-path="url(#p5a54642f57)" style="fill: none; stroke-dasharray: 2.5,5; stroke-dashoffset: 0; stroke: #2f9c5b; stroke-width: 1.25"/>
   </g>
   <g id="patch_4">
    <path d="M 51.827953 378.010629 
L 51.827953 36.6295 
" style="fill: none; stroke: #a9a197; stroke-width: 0.8; stroke-linejoin: miter; stroke-linecap: square"/>
   </g>
   <g id="patch_5">
    <path d="M 51.827953 378.010629 
L 597.495551 378.010629 
" style="fill: none; stroke: #a9a197; stroke-width: 0.8; stroke-linejoin: miter; stroke-linecap: square"/>
   </g>
   <g id="text_15">
    <!-- 实验 10：补贴强度、市场份额与累计利润 -->
    <g transform="translate(168.999252 20.6295) scale(0.168 -0.168)">
     <defs>
      <path id="MicrosoftYaHei-Bold-5b9e" d="M 4219 3716 
Q 4181 2422 4056 1653 
L 6238 1653 
L 6238 878 
L 3863 878 
Q 3850 841 3813 766 
Q 5019 372 6206 -66 
L 5881 -847 
Q 4619 -316 3369 153 
Q 2550 -616 863 -916 
Q 556 -384 331 -78 
Q 2338 209 2894 878 
L 169 878 
L 169 1653 
L 2144 1653 
Q 1481 2053 931 2328 
L 1319 2934 
Q 1894 2659 2638 2247 
L 2244 1653 
L 3175 1653 
Q 3331 2453 3350 3716 
L 4219 3716 
z
M 300 3078 
L 300 4703 
L 2819 4703 
Q 2700 5009 2606 5228 
L 3675 5341 
Q 3769 5084 3888 4703 
L 6094 4703 
L 6094 3078 
L 5225 3078 
L 5225 3953 
L 1169 3953 
L 1169 3078 
L 300 3078 
z
M 1813 3772 
Q 2469 3484 3163 3134 
L 2769 2497 
Q 2031 2909 1450 3184 
L 1813 3772 
z
" transform="scale(0.015625)"/>
      <path id="MicrosoftYaHei-Bold-9a8c" d="M 1138 4053 
L 969 2491 
L 1419 2491 
L 1563 4241 
L 200 4241 
L 200 4991 
L 2369 4991 
L 2163 2491 
L 2525 2491 
Q 2463 691 2413 203 
Q 2369 -553 1838 -672 
Q 1581 -709 644 -709 
Q 588 -253 519 134 
Q 906 91 1350 78 
Q 1669 78 1694 378 
Q 1731 791 1763 1741 
L 181 1741 
L 400 4053 
L 1138 4053 
z
M 5544 2647 
L 3163 2647 
L 3163 2997 
Q 2944 2797 2706 2603 
Q 2525 2991 2300 3391 
Q 3313 4134 3925 5278 
L 4875 5278 
L 4738 5053 
Q 5469 3984 6381 3466 
Q 6163 3116 5950 2691 
Q 5738 2828 5544 2984 
L 5544 2647 
z
M 2556 116 
L 4694 116 
Q 5063 1253 5250 2303 
L 6025 2103 
Q 5775 1141 5438 116 
L 6213 116 
L 6213 -634 
L 2556 -634 
L 2556 116 
z
M 3263 2172 
Q 3569 1397 3856 503 
L 3175 259 
Q 2981 978 2625 1934 
L 3263 2172 
z
M 4425 2428 
Q 4644 1584 4806 753 
L 4113 584 
Q 3988 1366 3763 2278 
L 4425 2428 
z
M 75 1216 
Q 763 1278 1525 1378 
Q 1531 984 1538 628 
Q 838 541 175 428 
L 75 1216 
z
M 4300 4347 
Q 4013 3897 3544 3384 
L 5113 3384 
Q 4663 3859 4300 4347 
z
" transform="scale(0.015625)"/>
      <path id="MicrosoftYaHei-Bold-20" transform="scale(0.015625)"/>
      <path id="MicrosoftYaHei-Bold-31" d="M 2716 4947 
L 2716 0 
L 1700 0 
L 1700 3809 
Q 1513 3647 1188 3517 
Q 863 3388 591 3356 
L 591 4222 
Q 1447 4472 2072 4947 
L 2716 4947 
z
" transform="scale(0.015625)"/>
      <path id="MicrosoftYaHei-Bold-30" d="M 244 2341 
Q 244 3597 706 4259 
Q 1169 4922 2044 4922 
Q 3713 4922 3713 2453 
Q 3713 1238 3259 577 
Q 2806 -84 1950 -84 
Q 244 -84 244 2341 
z
M 1266 2366 
Q 1266 691 1981 691 
Q 2684 691 2684 2416 
Q 2684 4147 2000 4147 
Q 1266 4147 1266 2366 
z
" transform="scale(0.015625)"/>
      <path id="MicrosoftYaHei-Bold-ff1a" d="M 1594 3506 
Q 1831 3506 2000 3354 
Q 2169 3203 2169 2981 
Q 2169 2766 2003 2614 
Q 1838 2463 1594 2463 
Q 1353 2463 1189 2616 
Q 1025 2769 1025 2981 
Q 1025 3200 1192 3353 
Q 1359 3506 1594 3506 
z
M 1594 959 
Q 1831 959 2000 806 
Q 2169 653 2169 434 
Q 2169 222 2000 69 
Q 1831 -84 1594 -84 
Q 1356 -84 1190 69 
Q 1025 222 1025 434 
Q 1025 653 1190 806 
Q 1356 959 1594 959 
z
" transform="scale(0.015625)"/>
      <path id="MicrosoftYaHei-Bold-8865" d="M 2806 2972 
L 3431 2578 
Q 3084 2116 2728 1688 
L 3338 1284 
L 2819 634 
Q 2350 1006 1925 1325 
L 1925 -866 
L 1056 -866 
L 1056 1528 
Q 713 1181 325 822 
Q 200 1322 44 1766 
Q 944 2491 1569 3309 
L 163 3309 
L 163 4122 
L 1284 4122 
Q 1019 4519 650 4991 
L 1369 5397 
Q 1794 4897 2113 4447 
L 1563 4122 
L 2581 4122 
L 2581 3372 
Q 2297 2941 1925 2488 
L 1925 2194 
Q 2056 2116 2181 2034 
Q 2509 2503 2806 2972 
z
M 4875 3428 
Q 5694 2716 6356 2059 
L 5675 1384 
Q 5150 1975 4569 2566 
L 4569 -866 
L 3663 -866 
L 3663 5297 
L 4569 5297 
L 4569 3156 
L 4875 3428 
z
" transform="scale(0.015625)"/>
      <path id="MicrosoftYaHei-Bold-8d34" d="M 3231 -834 
L 3231 2341 
L 4150 2341 
L 4150 5309 
L 4994 5309 
L 4994 4141 
L 6313 4141 
L 6313 3391 
L 4994 3391 
L 4994 2341 
L 6031 2341 
L 6031 -822 
L 5250 -822 
L 5250 -434 
L 4013 -434 
L 4013 -834 
L 3231 -834 
z
M 5250 1591 
L 4013 1591 
L 4013 316 
L 5250 316 
L 5250 1591 
z
M 350 1147 
L 350 5059 
L 2975 5059 
L 2975 1172 
L 2281 1172 
L 2281 4341 
L 1044 4341 
L 1044 1147 
L 350 1147 
z
M 1338 4078 
L 1988 4078 
L 1988 1841 
Q 1988 1559 1947 1300 
L 3088 -91 
L 2475 -609 
Q 2059 9 1706 503 
Q 1356 -259 563 -822 
Q 381 -547 94 -178 
Q 1338 703 1338 1847 
L 1338 4078 
z
" transform="scale(0.015625)"/>
      <path id="MicrosoftYaHei-Bold-5f3a" d="M 163 1403 
L 325 3622 
L 1375 3622 
L 1375 4353 
L 194 4353 
L 194 5097 
L 2150 5097 
L 2150 2878 
L 1050 2878 
L 994 2147 
L 2081 2147 
Q 2056 622 2017 169 
Q 1978 -284 1847 -478 
Q 1716 -672 1497 -736 
Q 1278 -800 381 -784 
Q 331 -478 200 53 
Q 672 34 866 34 
Q 1113 34 1181 201 
Q 1250 369 1275 1403 
L 163 1403 
z
M 5716 816 
Q 6025 191 6344 -572 
L 5625 -859 
L 5463 -459 
Q 4025 -631 2325 -791 
L 2175 9 
L 3813 128 
L 3813 816 
L 2406 816 
L 2406 2797 
L 3813 2797 
L 3813 3228 
L 2613 3228 
L 2613 5091 
L 5813 5091 
L 5813 3228 
L 4613 3228 
L 4613 2797 
L 6031 2797 
L 6031 816 
L 5716 816 
z
M 5025 4403 
L 3400 4403 
L 3400 3916 
L 5025 3916 
L 5025 4403 
z
M 5256 1503 
L 5256 2109 
L 4613 2109 
L 4613 1503 
L 5256 1503 
z
M 3181 1503 
L 3813 1503 
L 3813 2109 
L 3181 2109 
L 3181 1503 
z
M 5709 816 
L 4613 816 
L 4613 200 
L 5150 253 
L 5013 553 
L 5709 816 
z
" transform="scale(0.015625)"/>
      <path id="MicrosoftYaHei-Bold-5ea6" d="M 5656 1697 
L 5656 1022 
Q 5156 447 4656 97 
Q 5344 -34 6306 -66 
Q 6119 -428 5938 -822 
Q 4556 -653 3719 -353 
Q 2825 -653 1494 -872 
Q 1338 -522 1088 -178 
Q 2100 -128 2888 78 
Q 2369 453 1938 1022 
L 1538 1022 
L 1538 1697 
L 5656 1697 
z
M 1325 2478 
Q 1338 134 700 -884 
Q 356 -553 19 -297 
Q 550 697 525 2591 
L 525 4772 
L 3013 4772 
Q 2944 4953 2831 5209 
L 3869 5359 
Q 3981 5072 4094 4772 
L 6256 4772 
L 6256 4072 
L 1325 4072 
L 1325 2478 
z
M 1463 3684 
L 2144 3684 
L 2144 3947 
L 2944 3947 
L 2944 3684 
L 4494 3684 
L 4494 3947 
L 5294 3947 
L 5294 3684 
L 6144 3684 
L 6144 3009 
L 5294 3009 
L 5294 1991 
L 2144 1991 
L 2144 3009 
L 1463 3009 
L 1463 3684 
z
M 3756 378 
Q 4325 641 4725 1022 
L 2825 1022 
Q 3225 622 3756 378 
z
M 4494 2628 
L 4494 3009 
L 2944 3009 
L 2944 2628 
L 4494 2628 
z
" transform="scale(0.015625)"/>
      <path id="MicrosoftYaHei-Bold-3001" d="M 2106 -219 
L 1459 -853 
Q 997 -344 219 363 
L 831 950 
Q 1381 528 2106 -219 
z
" transform="scale(0.015625)"/>
      <path id="MicrosoftYaHei-Bold-5e02" d="M 1513 -191 
L 663 -191 
L 663 3003 
L 2750 3003 
L 2750 3728 
L 231 3728 
L 231 4541 
L 2678 4541 
Q 2556 4856 2444 5128 
L 3438 5359 
Q 3588 4969 3728 4541 
L 6200 4541 
L 6200 3728 
L 3650 3728 
L 3650 3003 
L 5888 3003 
L 5888 784 
Q 5888 509 5802 309 
Q 5716 109 5547 -9 
Q 5378 -128 5156 -161 
Q 4934 -194 4125 -203 
Q 4025 209 3894 609 
Q 4238 584 4600 584 
Q 5038 584 5038 1003 
L 5038 2216 
L 3650 2216 
L 3650 -853 
L 2750 -853 
L 2750 2216 
L 1513 2216 
L 1513 -191 
z
" transform="scale(0.015625)"/>
      <path id="MicrosoftYaHei-Bold-573a" d="M 3869 3053 
L 6113 3053 
Q 6113 1753 6038 378 
Q 5994 -659 5094 -722 
Q 4756 -747 4294 -759 
Q 4250 -391 4138 109 
Q 3781 -403 3300 -816 
Q 2944 -541 2544 -278 
Q 3906 759 4225 2303 
L 3719 2303 
Q 3375 1041 2550 284 
Q 2400 416 2256 534 
Q 2250 322 2256 72 
Q 1150 -153 244 -366 
L 81 528 
Q 444 591 813 659 
L 813 2866 
L 144 2866 
L 144 3722 
L 813 3722 
L 813 5303 
L 1644 5303 
L 1644 3722 
L 2238 3722 
L 2238 2866 
L 1644 2866 
L 1644 822 
Q 1794 853 1938 884 
Q 2631 1434 2925 2303 
L 2369 2303 
L 2369 3047 
L 4231 4253 
L 2363 4253 
L 2363 5003 
L 5700 5003 
L 5700 4284 
L 3869 3053 
z
M 4694 116 
Q 5213 116 5244 559 
Q 5300 1203 5325 2303 
L 5000 2303 
Q 4769 1047 4156 134 
Q 4450 116 4694 116 
z
" transform="scale(0.015625)"/>
      <path id="MicrosoftYaHei-Bold-4efd" d="M 1294 5291 
L 2175 5047 
Q 1953 4322 1669 3653 
L 1669 -797 
L 819 -797 
L 819 2013 
Q 603 1666 369 1341 
Q 294 1728 100 2472 
Q 863 3709 1294 5291 
z
M 5000 5184 
Q 5413 3928 6306 3147 
L 5938 2197 
Q 5806 2316 5684 2441 
L 5597 275 
Q 5575 -159 5378 -396 
Q 5181 -634 4906 -678 
Q 4631 -722 3800 -722 
Q 3700 -209 3588 178 
Q 4000 147 4234 147 
Q 4488 147 4606 237 
Q 4725 328 4734 759 
L 4769 2097 
L 3809 2097 
Q 3806 66 2394 -834 
Q 2194 -578 1769 -178 
Q 2916 491 2916 2097 
L 2525 2097 
L 2525 2466 
Q 2369 2294 2200 2134 
Q 2050 2516 1813 3028 
Q 2688 3834 3094 5197 
L 3906 4984 
Q 3581 3809 2869 2878 
L 5294 2878 
Q 4525 3822 4213 4984 
L 5000 5184 
z
" transform="scale(0.015625)"/>
      <path id="MicrosoftYaHei-Bold-989d" d="M 213 3753 
L 213 4803 
L 1272 4803 
Q 1206 5000 1125 5216 
L 2000 5347 
L 2175 4803 
L 3106 4803 
L 3106 5109 
L 6244 5109 
L 6244 4359 
L 4959 4359 
Q 4922 4069 4878 3822 
L 6069 3822 
L 6069 616 
L 5331 616 
L 5331 3103 
L 3956 3103 
L 3956 616 
L 3219 616 
L 3219 3822 
L 4069 3822 
Q 4109 4081 4144 4359 
L 3119 4359 
L 3119 3853 
L 2463 3853 
L 2463 4197 
L 869 4197 
L 869 3753 
L 213 3753 
z
M 538 -747 
L 538 1256 
Q 444 1228 350 1203 
Q 225 1547 94 1809 
Q 725 1978 1181 2247 
L 869 2403 
L 1225 2891 
L 1722 2659 
Q 1950 2884 2106 3153 
L 1291 3153 
Q 1044 2769 738 2434 
Q 531 2578 150 2778 
Q 819 3459 1069 4178 
L 1713 3934 
Q 1672 3841 1628 3753 
L 2925 3753 
L 2925 3166 
Q 2703 2706 2375 2341 
Q 2788 2131 3206 1903 
L 2875 1297 
L 2863 1303 
L 2863 -216 
Q 3722 91 4005 525 
Q 4288 959 4288 1966 
L 4288 2891 
L 5025 2891 
L 5025 1878 
Q 5025 1284 4925 838 
Q 5709 322 6306 -122 
L 5863 -872 
Q 5350 -419 4647 125 
Q 4241 -509 3256 -866 
Q 3069 -550 2863 -300 
L 2863 -703 
L 2138 -703 
L 2138 -497 
L 1263 -497 
L 1263 -747 
L 538 -747 
z
M 1000 1416 
L 2675 1416 
Q 2256 1663 1859 1881 
Q 1478 1609 1000 1416 
z
M 2138 734 
L 1263 734 
L 1263 184 
L 2138 184 
L 2138 734 
z
" transform="scale(0.015625)"/>
      <path id="MicrosoftYaHei-Bold-4e0e" d="M 6138 3747 
L 2000 3747 
L 1956 3041 
L 5838 3041 
L 5738 541 
Q 5709 -169 5351 -453 
Q 4994 -738 4381 -741 
L 3031 -741 
Q 2956 -359 2813 166 
Q 3463 134 4081 134 
Q 4731 134 4784 526 
Q 4838 919 4863 2234 
L 969 2234 
L 1144 5272 
L 2094 5272 
L 2050 4566 
L 6138 4566 
L 6138 3747 
z
M 4456 766 
L 181 766 
L 181 1584 
L 4456 1584 
L 4456 766 
z
" transform="scale(0.015625)"/>
      <path id="MicrosoftYaHei-Bold-7d2f" d="M 4494 2097 
Q 5331 1578 6038 1053 
L 5581 559 
Q 5394 713 5178 878 
L 3738 828 
L 3738 -141 
Q 3738 -444 3578 -606 
Q 3419 -769 3134 -798 
Q 2850 -828 2044 -828 
Q 2006 -516 1881 -66 
Q 2238 -100 2484 -100 
Q 2706 -100 2797 -40 
Q 2888 19 2888 159 
L 2888 788 
Q 1763 725 763 634 
L 513 1297 
Q 1572 1594 2416 1894 
Q 1694 1856 1088 1803 
L 888 2366 
Q 1450 2559 1894 2778 
L 619 2778 
L 619 5109 
L 5781 5109 
L 5781 2778 
L 4631 2778 
L 5125 2366 
Q 3625 1734 2006 1272 
L 4475 1400 
L 4075 1684 
L 4494 2097 
z
M 4913 4547 
L 3625 4547 
L 3625 4197 
L 4913 4197 
L 4913 4547 
z
M 1488 4197 
L 2775 4197 
L 2775 4547 
L 1488 4547 
L 1488 4197 
z
M 1488 3341 
L 2775 3341 
L 2775 3684 
L 1488 3684 
L 1488 3341 
z
M 4913 3341 
L 4913 3684 
L 3625 3684 
L 3625 3341 
L 4913 3341 
z
M 4431 2778 
L 3103 2778 
L 2219 2366 
L 3706 2406 
Q 4109 2591 4431 2778 
z
M 4413 666 
Q 5394 328 6313 -53 
L 5944 -734 
Q 4869 -222 4075 72 
L 4413 666 
z
M 1738 666 
L 2181 147 
Q 1375 -372 463 -759 
Q 319 -466 94 -97 
Q 1156 284 1738 666 
z
" transform="scale(0.015625)"/>
      <path id="MicrosoftYaHei-Bold-8ba1" d="M 1194 5334 
Q 1681 4678 2019 4172 
L 1219 3691 
Q 913 4241 463 4916 
L 1194 5334 
z
M 2175 3428 
L 3763 3428 
L 3763 5328 
L 4700 5328 
L 4700 3428 
L 6300 3428 
L 6300 2591 
L 4700 2591 
L 4700 -847 
L 3763 -847 
L 3763 2591 
L 2175 2591 
L 2175 3428 
z
M 2481 1341 
Q 2531 759 2588 416 
Q 1388 -366 1063 -722 
L 600 -109 
Q 756 78 756 416 
L 756 2422 
L 119 2422 
L 119 3234 
L 1588 3234 
L 1588 766 
Q 1844 916 2481 1341 
z
" transform="scale(0.015625)"/>
      <path id="MicrosoftYaHei-Bold-5229" d="M 6031 5272 
L 6031 72 
Q 6031 -456 5684 -632 
Q 5338 -809 4119 -784 
Q 4031 -297 3906 59 
Q 4184 44 4513 44 
Q 4719 44 4872 48 
Q 5025 53 5103 154 
Q 5181 256 5181 453 
L 5181 5272 
L 6031 5272 
z
M 75 928 
Q 934 1853 1338 2709 
L 125 2709 
L 125 3516 
L 1400 3516 
L 1400 4203 
L 288 4103 
Q 206 4622 144 4897 
Q 1581 4984 3169 5166 
L 3325 4397 
L 2238 4284 
L 2238 3516 
L 3400 3516 
L 3400 2709 
L 2238 2709 
L 2238 2025 
L 2431 2228 
Q 2806 1928 3563 1272 
L 2963 666 
L 2238 1406 
L 2238 -859 
L 1400 -859 
L 1400 1344 
Q 988 600 413 -78 
Q 294 328 75 928 
z
M 4475 641 
L 3650 641 
L 3650 4678 
L 4475 4678 
L 4475 641 
z
" transform="scale(0.015625)"/>
      <path id="MicrosoftYaHei-Bold-6da6" d="M 3600 5003 
L 6088 5003 
L 6088 -34 
Q 6088 -728 5356 -784 
Q 5031 -809 4150 -809 
Q 4069 -403 3969 28 
Q 4619 -3 4975 -3 
Q 5263 -3 5263 291 
L 5263 4241 
L 3600 4241 
L 3600 5003 
z
M 2700 1078 
L 3500 1078 
L 3500 1816 
L 2838 1816 
L 2838 2466 
L 3500 2466 
L 3500 3191 
L 2750 3191 
L 2750 3872 
L 5038 3872 
L 5038 3191 
L 4275 3191 
L 4275 2466 
L 4938 2466 
L 4938 1816 
L 4275 1816 
L 4275 1078 
L 5075 1078 
L 5075 403 
L 2700 403 
L 2700 1078 
z
M 2513 -834 
L 1688 -834 
L 1688 4078 
L 2513 4078 
L 2513 -834 
z
M 838 1822 
Q 1225 1653 1619 1528 
Q 1356 497 1025 -834 
Q 619 -684 225 -578 
Q 550 447 838 1822 
z
M 600 3609 
Q 1075 3266 1588 2822 
L 1025 2147 
Q 606 2553 88 3016 
L 600 3609 
z
M 775 5241 
Q 1481 4734 1800 4472 
L 1219 3841 
Q 781 4272 256 4697 
L 775 5241 
z
M 2069 4947 
L 2644 5384 
Q 3013 4972 3331 4584 
L 2700 4116 
Q 2388 4547 2069 4947 
z
" transform="scale(0.015625)"/>
     </defs>
     <use xlink:href="#MicrosoftYaHei-Bold-5b9e"/>
     <use xlink:href="#MicrosoftYaHei-Bold-9a8c" x="100"/>
     <use xlink:href="#MicrosoftYaHei-Bold-20" x="200"/>
     <use xlink:href="#MicrosoftYaHei-Bold-31" x="229.785156"/>
     <use xlink:href="#MicrosoftYaHei-Bold-30" x="291.455078"/>
     <use xlink:href="#MicrosoftYaHei-Bold-ff1a" x="353.125"/>
     <use xlink:href="#MicrosoftYaHei-Bold-8865" x="453.125"/>
     <use xlink:href="#MicrosoftYaHei-Bold-8d34" x="553.125"/>
     <use xlink:href="#MicrosoftYaHei-Bold-5f3a" x="653.125"/>
     <use xlink:href="#MicrosoftYaHei-Bold-5ea6" x="753.125"/>
     <use xlink:href="#MicrosoftYaHei-Bold-3001" x="853.125"/>
     <use xlink:href="#MicrosoftYaHei-Bold-5e02" x="953.125"/>
     <use xlink:href="#MicrosoftYaHei-Bold-573a" x="1053.125"/>
     <use xlink:href="#MicrosoftYaHei-Bold-4efd" x="1153.125"/>
     <use xlink:href="#MicrosoftYaHei-Bold-989d" x="1253.125"/>
     <use xlink:href="#MicrosoftYaHei-Bold-4e0e" x="1353.125"/>
     <use xlink:href="#MicrosoftYaHei-Bold-7d2f" x="1453.125"/>
     <use xlink:href="#MicrosoftYaHei-Bold-8ba1" x="1553.125"/>
     <use xlink:href="#MicrosoftYaHei-Bold-5229" x="1653.125"/>
     <use xlink:href="#MicrosoftYaHei-Bold-6da6" x="1753.125"/>
    </g>
   </g>
   <g id="PathCollection_1">
    <defs>
     <path id="mb098272cd2" d="M 0 3.872983 
C 1.027127 3.872983 2.012324 3.464901 2.738613 2.738613 
C 3.464901 2.012324 3.872983 1.027127 3.872983 0 
C 3.872983 -1.027127 3.464901 -2.012324 2.738613 -2.738613 
C 2.012324 -3.464901 1.027127 -3.872983 0 -3.872983 
C -1.027127 -3.872983 -2.012324 -3.464901 -2.738613 -2.738613 
C -3.464901 -2.012324 -3.872983 -1.027127 -3.872983 0 
C -3.872983 1.027127 -3.464901 2.012324 -2.738613 2.738613 
C -2.012324 3.464901 -1.027127 3.872983 0 3.872983 
z
" style="stroke: #fbfaf6; stroke-width: 1.1"/>
    </defs>
    <g clip-path="url(#p5a54642f57)">
     <use xlink:href="#mb098272cd2" x="150.048121" y="182.935698" style="fill: #2f9c5b; stroke: #fbfaf6; stroke-width: 1.1"/>
    </g>
   </g>
   <g id="legend_1">
    <g id="patch_6">
     <path d="M 504.895551 373.010629 
L 590.495551 373.010629 
Q 592.495551 373.010629 592.495551 371.010629 
L 592.495551 341.051254 
Q 592.495551 339.051254 590.495551 339.051254 
L 504.895551 339.051254 
Q 502.895551 339.051254 502.895551 341.051254 
L 502.895551 371.010629 
Q 502.895551 373.010629 504.895551 373.010629 
z
" style="fill: #fbfaf6; opacity: 0.94; stroke: #d7d0c2; stroke-linejoin: miter"/>
    </g>
    <g id="line2d_28">
     <path d="M 506.895551 347.545004 
L 516.895551 347.545004 
L 526.895551 347.545004 
" style="fill: none; stroke: #2f9c5b; stroke-width: 2.8; stroke-linecap: round"/>
    </g>
    <g id="text_16">
     <!-- 最终份额 $L_A$ -->
     <g transform="translate(534.895551 351.045004) scale(0.1 -0.1)">
      <use xlink:href="#MicrosoftYaHei-6700" transform="translate(0 0.15625)"/>
      <use xlink:href="#MicrosoftYaHei-7ec8" transform="translate(100 0.15625)"/>
      <use xlink:href="#MicrosoftYaHei-4efd" transform="translate(200 0.15625)"/>
      <use xlink:href="#MicrosoftYaHei-989d" transform="translate(300 0.15625)"/>
      <use xlink:href="#MicrosoftYaHei-20" transform="translate(400 0.15625)"/>
      <use xlink:href="#DejaVuSans-Oblique-4c" transform="translate(429.589844 0.15625)"/>
      <use xlink:href="#DejaVuSans-Oblique-41" transform="translate(485.302734 -16.25) scale(0.7)"/>
     </g>
    </g>
    <g id="line2d_29">
     <path d="M 506.895551 363.024692 
L 516.895551 363.024692 
L 526.895551 363.024692 
" style="fill: none; stroke: #d95f59; stroke-width: 2.4; stroke-linecap: round"/>
    </g>
    <g id="text_17">
     <!-- 累计利润 -->
     <g transform="translate(534.895551 366.524692) scale(0.1 -0.1)">
      <defs>
       <path id="MicrosoftYaHei-7d2f" d="M 4550 1991 
Q 5425 1278 5944 772 
L 5600 422 
Q 5356 675 5097 922 
Q 4334 891 3556 856 
L 3556 22 
Q 3556 -753 2775 -753 
Q 2375 -753 1881 -747 
Q 1844 -497 1788 -228 
Q 2269 -272 2650 -272 
Q 3069 -272 3069 184 
L 3069 834 
Q 2231 794 1375 753 
Q 1100 741 844 703 
L 675 1178 
Q 1056 1222 1531 1403 
Q 2172 1650 2916 1984 
Q 2138 1959 1531 1922 
Q 1231 1903 1081 1884 
L 919 2297 
Q 1231 2359 1550 2503 
Q 1969 2691 2378 2909 
L 1206 2909 
L 1206 2728 
L 731 2728 
L 731 5103 
L 5675 5103 
L 5675 2728 
L 5200 2728 
L 5200 2909 
L 3125 2909 
Q 2434 2559 1763 2272 
Q 2581 2294 3669 2334 
Q 4100 2538 4563 2772 
L 4888 2434 
Q 3394 1728 1825 1147 
Q 3403 1216 4684 1297 
Q 4456 1500 4219 1697 
L 4550 1991 
z
M 3431 3272 
L 5200 3272 
L 5200 3841 
L 3431 3841 
L 3431 3272 
z
M 1206 3272 
L 2969 3272 
L 2969 3841 
L 1206 3841 
L 1206 3272 
z
M 5200 4741 
L 3431 4741 
L 3431 4178 
L 5200 4178 
L 5200 4741 
z
M 1206 4178 
L 2969 4178 
L 2969 4741 
L 1206 4741 
L 1206 4178 
z
M 1894 572 
L 2175 184 
Q 1263 -272 381 -616 
Q 288 -422 163 -197 
Q 1094 166 1894 572 
z
M 4431 547 
Q 5363 234 6219 -147 
L 6025 -572 
Q 5188 -191 4219 134 
L 4431 547 
z
" transform="scale(0.015625)"/>
       <path id="MicrosoftYaHei-8ba1" d="M 2100 3153 
L 3919 3153 
L 3919 5303 
L 4456 5303 
L 4456 3153 
L 6288 3153 
L 6288 2703 
L 4456 2703 
L 4456 -822 
L 3919 -822 
L 3919 2703 
L 2100 2703 
L 2100 3153 
z
M 2675 903 
Q 2694 578 2719 359 
Q 1719 -266 1069 -728 
L 769 -303 
Q 988 -116 988 266 
L 988 2741 
L 100 2741 
L 100 3191 
L 1488 3191 
L 1488 153 
Q 2031 484 2675 903 
z
M 738 5222 
Q 1419 4522 1725 4184 
L 1288 3816 
Q 894 4334 356 4891 
L 738 5222 
z
" transform="scale(0.015625)"/>
       <path id="MicrosoftYaHei-5229" d="M 75 741 
Q 913 1653 1488 2997 
L 106 2997 
L 106 3453 
L 1606 3453 
L 1606 4391 
Q 963 4328 331 4272 
Q 288 4503 206 4747 
Q 1706 4866 3269 5066 
L 3394 4591 
Q 2731 4509 2081 4441 
L 2081 3453 
L 3500 3453 
L 3500 2997 
L 2081 2997 
L 2081 2159 
L 2356 2422 
Q 2944 1922 3525 1347 
L 3144 959 
Q 2763 1403 2081 2053 
L 2081 -828 
L 1606 -828 
L 1606 2297 
Q 1069 1084 325 178 
Q 156 584 75 741 
z
M 5444 5197 
L 5938 5197 
L 5938 -9 
Q 5938 -803 5138 -797 
Q 4881 -797 4306 -791 
Q 4269 -534 4213 -228 
Q 4719 -284 4981 -284 
Q 5444 -291 5444 184 
L 5444 5197 
z
M 3963 4572 
L 4438 4572 
L 4438 622 
L 3963 622 
L 3963 4572 
z
" transform="scale(0.015625)"/>
       <path id="MicrosoftYaHei-6da6" d="M 3500 4916 
L 6088 4916 
L 6088 -34 
Q 6088 -766 5338 -766 
Q 4988 -766 4494 -759 
Q 4463 -553 4400 -278 
Q 4925 -316 5213 -316 
Q 5613 -316 5613 47 
L 5613 4491 
L 3500 4491 
L 3500 4916 
z
M 2613 941 
L 3750 941 
L 3750 1997 
L 2775 1997 
L 2775 2384 
L 3750 2384 
L 3750 3347 
L 2681 3347 
L 2681 3747 
L 5269 3747 
L 5269 3347 
L 4200 3347 
L 4200 2384 
L 5188 2384 
L 5188 1997 
L 4200 1997 
L 4200 941 
L 5350 941 
L 5350 541 
L 2613 541 
L 2613 941 
z
M 2350 -847 
L 1875 -847 
L 1875 4191 
L 2350 4191 
L 2350 -847 
z
M 256 -634 
Q 619 441 900 1784 
Q 1175 1666 1406 1591 
Q 1019 72 806 -803 
L 256 -634 
z
M 325 4853 
L 650 5184 
Q 1063 4872 1725 4303 
Q 1513 4097 1350 3934 
Q 706 4541 325 4853 
z
M 81 3222 
L 400 3578 
Q 938 3209 1475 2778 
Q 1269 2559 1113 2372 
Q 500 2916 81 3222 
z
M 2188 5022 
L 2538 5291 
Q 2913 4878 3225 4491 
L 2819 4191 
Q 2556 4572 2188 5022 
z
" transform="scale(0.015625)"/>
      </defs>
      <use xlink:href="#MicrosoftYaHei-7d2f"/>
      <use xlink:href="#MicrosoftYaHei-8ba1" x="100"/>
      <use xlink:href="#MicrosoftYaHei-5229" x="200"/>
      <use xlink:href="#MicrosoftYaHei-6da6" x="300"/>
     </g>
    </g>
   </g>
  </g>
  <g id="axes_2">
   <g id="matplotlib.axis_3">
    <g id="ytick_7">
     <g id="line2d_30">
      <defs>
       <path id="m2ace9d112c" d="M 0 0 
L 3.5 0 
" style="stroke: #000000; stroke-width: 0.8"/>
      </defs>
      <g>
       <use xlink:href="#m2ace9d112c" x="597.495551" y="363.29469" style="stroke: #000000; stroke-width: 0.8"/>
      </g>
     </g>
     <g id="text_18">
      <!-- -350 -->
      <g style="fill: #d95f59" transform="translate(604.495551 367.291565) scale(0.1 -0.1)">
       <defs>
        <path id="MicrosoftYaHei-2d" d="M 2328 1681 
L 488 1681 
L 488 2153 
L 2328 2153 
L 2328 1681 
z
" transform="scale(0.015625)"/>
       </defs>
       <use xlink:href="#MicrosoftYaHei-2d"/>
       <use xlink:href="#MicrosoftYaHei-33" x="43.261719"/>
       <use xlink:href="#MicrosoftYaHei-35" x="101.904297"/>
       <use xlink:href="#MicrosoftYaHei-30" x="160.546875"/>
      </g>
     </g>
    </g>
    <g id="ytick_8">
     <g id="line2d_31">
      <g>
       <use xlink:href="#m2ace9d112c" x="597.495551" y="324.721739" style="stroke: #000000; stroke-width: 0.8"/>
      </g>
     </g>
     <g id="text_19">
      <!-- -300 -->
      <g style="fill: #d95f59" transform="translate(604.495551 328.718614) scale(0.1 -0.1)">
       <use xlink:href="#MicrosoftYaHei-2d"/>
       <use xlink:href="#MicrosoftYaHei-33" x="43.261719"/>
       <use xlink:href="#MicrosoftYaHei-30" x="101.904297"/>
       <use xlink:href="#MicrosoftYaHei-30" x="160.546875"/>
      </g>
     </g>
    </g>
    <g id="ytick_9">
     <g id="line2d_32">
      <g>
       <use xlink:href="#m2ace9d112c" x="597.495551" y="286.148787" style="stroke: #000000; stroke-width: 0.8"/>
      </g>
     </g>
     <g id="text_20">
      <!-- -250 -->
      <g style="fill: #d95f59" transform="translate(604.495551 290.145662) scale(0.1 -0.1)">
       <use xlink:href="#MicrosoftYaHei-2d"/>
       <use xlink:href="#MicrosoftYaHei-32" x="43.261719"/>
       <use xlink:href="#MicrosoftYaHei-35" x="101.904297"/>
       <use xlink:href="#MicrosoftYaHei-30" x="160.546875"/>
      </g>
     </g>
    </g>
    <g id="ytick_10">
     <g id="line2d_33">
      <g>
       <use xlink:href="#m2ace9d112c" x="597.495551" y="247.575836" style="stroke: #000000; stroke-width: 0.8"/>
      </g>
     </g>
     <g id="text_21">
      <!-- -200 -->
      <g style="fill: #d95f59" transform="translate(604.495551 251.572711) scale(0.1 -0.1)">
       <use xlink:href="#MicrosoftYaHei-2d"/>
       <use xlink:href="#MicrosoftYaHei-32" x="43.261719"/>
       <use xlink:href="#MicrosoftYaHei-30" x="101.904297"/>
       <use xlink:href="#MicrosoftYaHei-30" x="160.546875"/>
      </g>
     </g>
    </g>
    <g id="ytick_11">
     <g id="line2d_34">
      <g>
       <use xlink:href="#m2ace9d112c" x="597.495551" y="209.002885" style="stroke: #000000; stroke-width: 0.8"/>
      </g>
     </g>
     <g id="text_22">
      <!-- -150 -->
      <g style="fill: #d95f59" transform="translate(604.495551 212.99976) scale(0.1 -0.1)">
       <use xlink:href="#MicrosoftYaHei-2d"/>
       <use xlink:href="#MicrosoftYaHei-31" x="43.261719"/>
       <use xlink:href="#MicrosoftYaHei-35" x="101.904297"/>
       <use xlink:href="#MicrosoftYaHei-30" x="160.546875"/>
      </g>
     </g>
    </g>
    <g id="ytick_12">
     <g id="line2d_35">
      <g>
       <use xlink:href="#m2ace9d112c" x="597.495551" y="170.429934" style="stroke: #000000; stroke-width: 0.8"/>
      </g>
     </g>
     <g id="text_23">
      <!-- -100 -->
      <g style="fill: #d95f59" transform="translate(604.495551 174.426809) scale(0.1 -0.1)">
       <use xlink:href="#MicrosoftYaHei-2d"/>
       <use xlink:href="#MicrosoftYaHei-31" x="43.261719"/>
       <use xlink:href="#MicrosoftYaHei-30" x="101.904297"/>
       <use xlink:href="#MicrosoftYaHei-30" x="160.546875"/>
      </g>
     </g>
    </g>
    <g id="ytick_13">
     <g id="line2d_36">
      <g>
       <use xlink:href="#m2ace9d112c" x="597.495551" y="131.856982" style="stroke: #000000; stroke-width: 0.8"/>
      </g>
     </g>
     <g id="text_24">
      <!-- -50 -->
      <g style="fill: #d95f59" transform="translate(604.495551 135.853857) scale(0.1 -0.1)">
       <use xlink:href="#MicrosoftYaHei-2d"/>
       <use xlink:href="#MicrosoftYaHei-35" x="43.261719"/>
       <use xlink:href="#MicrosoftYaHei-30" x="101.904297"/>
      </g>
     </g>
    </g>
    <g id="ytick_14">
     <g id="line2d_37">
      <g>
       <use xlink:href="#m2ace9d112c" x="597.495551" y="93.284031" style="stroke: #000000; stroke-width: 0.8"/>
      </g>
     </g>
     <g id="text_25">
      <!-- 0 -->
      <g style="fill: #d95f59" transform="translate(604.495551 97.280906) scale(0.1 -0.1)">
       <use xlink:href="#MicrosoftYaHei-30"/>
      </g>
     </g>
    </g>
    <g id="ytick_15">
     <g id="line2d_38">
      <g>
       <use xlink:href="#m2ace9d112c" x="597.495551" y="54.71108" style="stroke: #000000; stroke-width: 0.8"/>
      </g>
     </g>
     <g id="text_26">
      <!-- 50 -->
      <g style="fill: #d95f59" transform="translate(604.495551 58.707955) scale(0.1 -0.1)">
       <use xlink:href="#MicrosoftYaHei-35"/>
       <use xlink:href="#MicrosoftYaHei-30" x="58.642578"/>
      </g>
     </g>
    </g>
    <g id="text_27">
     <!-- 累计利润 -->
     <g style="fill: #d95f59" transform="translate(646.166676 231.720065) rotate(-90) scale(0.122 -0.122)">
      <use xlink:href="#MicrosoftYaHei-7d2f"/>
      <use xlink:href="#MicrosoftYaHei-8ba1" x="100"/>
      <use xlink:href="#MicrosoftYaHei-5229" x="200"/>
      <use xlink:href="#MicrosoftYaHei-6da6" x="300"/>
     </g>
    </g>
   </g>
   <g id="line2d_39">
    <path d="M 51.827953 95.092514 
L 57.284629 95.123319 
L 62.741305 95.15598 
L 68.197981 95.190826 
L 73.654657 95.228247 
L 79.111333 95.268699 
L 84.568009 95.312728 
L 90.024685 95.360982 
L 95.481361 95.414244 
L 100.938037 95.473469 
L 106.394713 95.539845 
L 111.851389 95.614883 
L 117.308065 95.700583 
L 122.764741 95.799738 
L 128.221417 95.91663 
L 133.678093 96.058973 
L 139.134769 96.245926 
L 144.591445 96.623598 
L 150.048121 52.146824 
L 155.504797 55.453724 
L 160.961473 58.996954 
L 166.418149 62.631116 
L 171.874825 66.313649 
L 177.331501 70.026103 
L 182.788177 73.758775 
L 188.244853 77.505921 
L 193.701529 81.263858 
L 199.158205 85.030081 
L 204.614881 88.802811 
L 210.071557 92.580742 
L 215.528233 96.362886 
L 220.984909 100.148479 
L 226.441585 103.936923 
L 231.898261 107.727739 
L 237.354936 111.520539 
L 242.811612 115.315007 
L 248.268288 119.110883 
L 253.724964 122.90795 
L 259.18164 126.706027 
L 264.638316 130.504963 
L 270.094992 134.304628 
L 275.551668 138.104914 
L 281.008344 141.905728 
L 286.46502 145.706991 
L 291.921696 149.508636 
L 297.378372 153.310606 
L 302.835048 157.11285 
L 308.291724 160.915327 
L 313.7484 164.718 
L 319.205076 168.520837 
L 324.661752 172.323813 
L 330.118428 176.126903 
L 335.575104 179.930088 
L 341.03178 183.733352 
L 346.488456 187.536679 
L 351.945132 191.340058 
L 357.401808 195.143478 
L 362.858484 198.946929 
L 368.31516 202.750405 
L 373.771836 206.553899 
L 379.228512 210.357406 
L 384.685188 214.16092 
L 390.141864 217.964439 
L 395.59854 221.767959 
L 401.055216 225.571478 
L 406.511892 229.374993 
L 411.968568 233.178502 
L 417.425244 236.982006 
L 422.88192 240.785502 
L 428.338596 244.58899 
L 433.795272 248.392469 
L 439.251948 252.195938 
L 444.708624 255.999399 
L 450.1653 259.80285 
L 455.621976 263.606291 
L 461.078652 267.409723 
L 466.535328 271.213146 
L 471.992004 275.01656 
L 477.44868 278.819965 
L 482.905356 282.623362 
L 488.362032 286.42675 
L 493.818708 290.230131 
L 499.275384 294.033504 
L 504.73206 297.83687 
L 510.188736 301.640229 
L 515.645412 305.443582 
L 521.102088 309.246929 
L 526.558763 313.050269 
L 532.015439 316.853604 
L 537.472115 320.656935 
L 542.928791 324.460259 
L 548.385467 328.263579 
L 553.842143 332.066895 
L 559.298819 335.870208 
L 564.755495 339.673516 
L 570.212171 343.476821 
L 575.668847 347.280123 
L 581.125523 351.083422 
L 586.582199 354.886719 
L 592.038875 358.690013 
L 597.495551 362.493305 
" clip-path="url(#p5a54642f57)" style="fill: none; stroke: #d95f59; stroke-width: 2.4; stroke-linecap: round"/>
   </g>
   <g id="line2d_40">
    <path d="M 150.048121 378.010629 
L 150.048121 36.6295 
" clip-path="url(#p5a54642f57)" style="fill: none; stroke-dasharray: 5,5; stroke-dashoffset: 0; stroke: #d95f59; stroke-width: 1.25"/>
   </g>
   <g id="patch_7">
    <path d="M 51.827953 378.010629 
L 51.827953 36.6295 
" style="fill: none; stroke: #000000; stroke-width: 0.8; stroke-linejoin: miter; stroke-linecap: square"/>
   </g>
   <g id="patch_8">
    <path d="M 51.827953 378.010629 
L 597.495551 378.010629 
" style="fill: none; stroke: #000000; stroke-width: 0.8; stroke-linejoin: miter; stroke-linecap: square"/>
   </g>
   <g id="text_28">
    <!-- 利润最优 -->
    <g style="fill: #a94844" transform="translate(163.144143 48.730099) scale(0.104 -0.104)">
     <defs>
      <path id="MicrosoftYaHei-4f18" d="M 1825 3609 
L 3184 3609 
Q 3216 4322 3213 5272 
L 3713 5272 
Q 3719 4338 3688 3609 
L 6188 3609 
L 6188 3153 
L 4475 3153 
L 4475 228 
Q 4475 -122 4838 -122 
L 5244 -122 
Q 5656 -122 5700 303 
Q 5750 659 5781 1266 
Q 6031 1166 6294 1066 
Q 6244 528 6175 109 
Q 6100 -291 5900 -447 
Q 5713 -603 5275 -597 
L 4763 -597 
Q 4325 -597 4150 -422 
Q 3969 -259 3969 184 
L 3969 3153 
L 3663 3153 
Q 3600 791 1950 -803 
Q 1775 -597 1575 -397 
Q 3100 1028 3159 3153 
L 1825 3153 
L 1825 3609 
z
M 88 2334 
Q 1056 3641 1556 5291 
L 2063 5122 
Q 1753 4253 1388 3522 
L 1388 -809 
L 913 -809 
L 913 2666 
Q 616 2184 288 1778 
Q 194 2047 88 2334 
z
M 4600 5184 
Q 5269 4759 5713 4391 
Q 5538 4197 5388 3991 
Q 4875 4447 4325 4841 
L 4600 5184 
z
" transform="scale(0.015625)"/>
     </defs>
     <use xlink:href="#MicrosoftYaHei-5229"/>
     <use xlink:href="#MicrosoftYaHei-6da6" x="100"/>
     <use xlink:href="#MicrosoftYaHei-6700" x="200"/>
     <use xlink:href="#MicrosoftYaHei-4f18" x="300"/>
    </g>
    <!-- b≈0.90 -->
    <g style="fill: #a94844" transform="translate(163.144143 61.291674) scale(0.104 -0.104)">
     <defs>
      <path id="MicrosoftYaHei-2248" d="M 4053 3256 
Q 4028 2750 3778 2472 
Q 3528 2194 3094 2194 
Q 2728 2194 2203 2550 
Q 1872 2778 1669 2778 
Q 1203 2778 1184 2191 
L 700 2191 
Q 722 2703 980 2978 
Q 1238 3253 1659 3253 
Q 2019 3253 2456 2959 
Q 2894 2663 3116 2663 
Q 3322 2663 3444 2823 
Q 3566 2984 3572 3256 
L 4053 3256 
z
M 4053 1853 
Q 4028 1347 3778 1067 
Q 3528 788 3094 788 
Q 2725 788 2203 1147 
Q 1878 1369 1669 1369 
Q 1203 1369 1184 784 
L 700 784 
Q 722 1294 980 1572 
Q 1238 1850 1659 1850 
Q 2022 1850 2456 1559 
Q 2906 1256 3116 1256 
Q 3319 1256 3441 1423 
Q 3563 1591 3572 1853 
L 4053 1853 
z
" transform="scale(0.015625)"/>
      <path id="MicrosoftYaHei-39" d="M 578 656 
Q 978 425 1441 425 
Q 2091 425 2448 937 
Q 2806 1450 2806 2394 
Q 2800 2388 2794 2394 
Q 2475 1788 1722 1788 
Q 1113 1788 713 2206 
Q 313 2625 313 3294 
Q 313 4006 750 4464 
Q 1188 4922 1884 4922 
Q 2606 4922 3012 4355 
Q 3419 3788 3419 2703 
Q 3419 1363 2894 641 
Q 2369 -81 1441 -81 
Q 931 -81 578 84 
L 578 656 
z
M 931 3372 
Q 931 2884 1181 2598 
Q 1431 2313 1872 2313 
Q 2253 2313 2512 2573 
Q 2772 2834 2772 3206 
Q 2772 3728 2514 4070 
Q 2256 4413 1834 4413 
Q 1444 4413 1187 4116 
Q 931 3819 931 3372 
z
" transform="scale(0.015625)"/>
     </defs>
     <use xlink:href="#MicrosoftYaHei-62"/>
     <use xlink:href="#MicrosoftYaHei-2248" x="63.867188"/>
     <use xlink:href="#MicrosoftYaHei-30" x="138.134766"/>
     <use xlink:href="#MicrosoftYaHei-2e" x="196.777344"/>
     <use xlink:href="#MicrosoftYaHei-39" x="220.849609"/>
     <use xlink:href="#MicrosoftYaHei-30" x="279.492188"/>
    </g>
   </g>
   <g id="PathCollection_2">
    <defs>
     <path id="mc95d6eb9e2" d="M 0 4.123106 
C 1.09346 4.123106 2.142283 3.688669 2.915476 2.915476 
C 3.688669 2.142283 4.123106 1.09346 4.123106 0 
C 4.123106 -1.09346 3.688669 -2.142283 2.915476 -2.915476 
C 2.142283 -3.688669 1.09346 -4.123106 0 -4.123106 
C -1.09346 -4.123106 -2.142283 -3.688669 -2.915476 -2.915476 
C -3.688669 -2.142283 -4.123106 -1.09346 -4.123106 0 
C -4.123106 1.09346 -3.688669 2.142283 -2.915476 2.915476 
C -2.142283 3.688669 -1.09346 4.123106 0 4.123106 
z
" style="stroke: #fbfaf6; stroke-width: 1.2"/>
    </defs>
    <g clip-path="url(#p5a54642f57)">
     <use xlink:href="#mc95d6eb9e2" x="150.048121" y="52.146824" style="fill: #d95f59; stroke: #fbfaf6; stroke-width: 1.2"/>
    </g>
   </g>
  </g>
 </g>
 <defs>
  <clipPath id="p5a54642f57">
   <rect x="51.827953" y="36.6295" width="545.667598" height="341.381129"/>
  </clipPath>
 </defs>
</svg>
