<?xml version="1.0" encoding="utf-8" standalone="no"?>
<!DOCTYPE svg PUBLIC "-//W3C//DTD SVG 1.1//EN"
  "http://www.w3.org/Graphics/SVG/1.1/DTD/svg11.dtd">
<svg xmlns:xlink="http://www.w3.org/1999/xlink" width="641.99952pt" height="411.59952pt" viewBox="0 0 641.99952 411.59952" xmlns="http://www.w3.org/2000/svg" version="1.1">
 <metadata>
  <rdf:RDF xmlns:dc="http://purl.org/dc/elements/1.1/" xmlns:cc="http://creativecommons.org/ns#" xmlns:rdf="http://www.w3.org/1999/02/22-rdf-syntax-ns#">
   <cc:Work>
    <dc:type rdf:resource="http://purl.org/dc/dcmitype/StillImage"/>
    <dc:date>2026-06-05T14:40:25.040592</dc:date>
    <dc:format>image/svg+xml</dc:format>
    <dc:creator>
     <cc:Agent>
      <dc:title>Matplotlib v3.9.2, https://matplotlib.org/</dc:title>
     </cc:Agent>
    </dc:creator>
   </cc:Work>
  </rdf:RDF>
 </metadata>
 <defs>
  <style type="text/css">*{stroke-linejoin: round; stroke-linecap: butt}</style>
 </defs>
 <g id="figure_1">
  <g id="patch_1">
   <path d="M 0 411.59952 
L 641.99952 411.59952 
L 641.99952 0 
L 0 0 
z
" style="fill: #f7f5ef"/>
  </g>
  <g id="axes_1">
   <g id="patch_2">
    <path d="M 51.827953 363.463848 
L 631.720887 363.463848 
L 631.720887 36.789375 
L 51.827953 36.789375 
z
" style="fill: #fbfaf6"/>
   </g>
   <g id="patch_3">
    <path d="M 51.827953 357.357783 
L 631.720887 357.357783 
L 631.720887 296.297134 
L 51.827953 296.297134 
z
" clip-path="url(#p5151d7e388)" style="fill: #557c83; opacity: 0.07"/>
   </g>
   <g id="patch_4">
    <path d="M 51.827953 296.297134 
L 631.720887 296.297134 
L 631.720887 113.115186 
L 51.827953 113.115186 
z
" clip-path="url(#p5151d7e388)" style="fill: #e58f3a; opacity: 0.08"/>
   </g>
   <g id="patch_5">
    <path d="M 51.827953 113.115186 
L 631.720887 113.115186 
L 631.720887 36.789375 
L 51.827953 36.789375 
z
" clip-path="url(#p5151d7e388)" style="fill: #d95f59; opacity: 0.07"/>
   </g>
   <g id="matplotlib.axis_1">
    <g id="xtick_1">
     <g id="line2d_1">
      <path d="M 51.827953 363.463848 
L 51.827953 36.789375 
" clip-path="url(#p5151d7e388)" style="fill: none; stroke: #d8d1c5; stroke-opacity: 0.34; stroke-width: 0.85; stroke-linecap: square"/>
     </g>
     <g id="line2d_2">
      <defs>
       <path id="mbd323fa9e6" d="M 0 0 
L 0 3.5 
" style="stroke: #32383a; stroke-width: 0.8"/>
      </defs>
      <g>
       <use xlink:href="#mbd323fa9e6" x="51.827953" y="363.463848" style="fill: #32383a; stroke: #32383a; stroke-width: 0.8"/>
      </g>
     </g>
     <g id="text_1">
      <!-- 0 -->
      <g style="fill: #32383a" transform="translate(48.74932 378.857286) scale(0.105 -0.105)">
       <defs>
        <path id="MicrosoftYaHei-30" d="M 284 2325 
Q 284 3606 709 4264 
Q 1134 4922 1941 4922 
Q 3478 4922 3478 2441 
Q 3478 1216 3045 567 
Q 2613 -81 1831 -81 
Q 1094 -81 689 534 
Q 284 1150 284 2325 
z
M 909 2353 
Q 909 425 1888 425 
Q 2850 425 2850 2384 
Q 2850 4413 1906 4413 
Q 909 4413 909 2353 
z
" transform="scale(0.015625)"/>
       </defs>
       <use xlink:href="#MicrosoftYaHei-30"/>
      </g>
     </g>
    </g>
    <g id="xtick_2">
     <g id="line2d_3">
      <path d="M 167.80654 363.463848 
L 167.80654 36.789375 
" clip-path="url(#p5151d7e388)" style="fill: none; stroke: #d8d1c5; stroke-opacity: 0.34; stroke-width: 0.85; stroke-linecap: square"/>
     </g>
     <g id="line2d_4">
      <g>
       <use xlink:href="#mbd323fa9e6" x="167.80654" y="363.463848" style="fill: #32383a; stroke: #32383a; stroke-width: 0.8"/>
      </g>
     </g>
     <g id="text_2">
      <!-- 1 -->
      <g style="fill: #32383a" transform="translate(164.727907 378.857286) scale(0.105 -0.105)">
       <defs>
        <path id="MicrosoftYaHei-31" d="M 1781 0 
L 1781 4141 
Q 1638 3997 1295 3819 
Q 953 3641 663 3569 
L 663 4169 
Q 1047 4275 1484 4508 
Q 1922 4741 2156 4947 
L 2388 4947 
L 2388 0 
L 1781 0 
z
" transform="scale(0.015625)"/>
       </defs>
       <use xlink:href="#MicrosoftYaHei-31"/>
      </g>
     </g>
    </g>
    <g id="xtick_3">
     <g id="line2d_5">
      <path d="M 283.785127 363.463848 
L 283.785127 36.789375 
" clip-path="url(#p5151d7e388)" style="fill: none; stroke: #d8d1c5; stroke-opacity: 0.34; stroke-width: 0.85; stroke-linecap: square"/>
     </g>
     <g id="line2d_6">
      <g>
       <use xlink:href="#mbd323fa9e6" x="283.785127" y="363.463848" style="fill: #32383a; stroke: #32383a; stroke-width: 0.8"/>
      </g>
     </g>
     <g id="text_3">
      <!-- 2 -->
      <g style="fill: #32383a" transform="translate(280.706494 378.857286) scale(0.105 -0.105)">
       <defs>
        <path id="MicrosoftYaHei-32" d="M 2666 3572 
Q 2666 3963 2419 4186 
Q 2172 4409 1747 4409 
Q 1447 4409 1140 4256 
Q 834 4103 569 3819 
L 569 4413 
Q 806 4659 1107 4790 
Q 1409 4922 1816 4922 
Q 2472 4922 2872 4570 
Q 3272 4219 3272 3619 
Q 3272 3084 3026 2693 
Q 2781 2303 2188 1894 
Q 1581 1475 1376 1294 
Q 1172 1113 1090 947 
Q 1009 781 1009 544 
L 3416 544 
L 3416 0 
L 372 0 
L 372 241 
Q 372 659 486 951 
Q 600 1244 862 1520 
Q 1125 1797 1681 2184 
Q 2250 2584 2458 2886 
Q 2666 3188 2666 3572 
z
" transform="scale(0.015625)"/>
       </defs>
       <use xlink:href="#MicrosoftYaHei-32"/>
      </g>
     </g>
    </g>
    <g id="xtick_4">
     <g id="line2d_7">
      <path d="M 399.763714 363.463848 
L 399.763714 36.789375 
" clip-path="url(#p5151d7e388)" style="fill: none; stroke: #d8d1c5; stroke-opacity: 0.34; stroke-width: 0.85; stroke-linecap: square"/>
     </g>
     <g id="line2d_8">
      <g>
       <use xlink:href="#mbd323fa9e6" x="399.763714" y="363.463848" style="fill: #32383a; stroke: #32383a; stroke-width: 0.8"/>
      </g>
     </g>
     <g id="text_4">
      <!-- 3 -->
      <g style="fill: #32383a" transform="translate(396.685081 378.857286) scale(0.105 -0.105)">
       <defs>
        <path id="MicrosoftYaHei-33" d="M 447 809 
Q 944 425 1569 425 
Q 2069 425 2361 670 
Q 2653 916 2653 1328 
Q 2653 2247 1338 2247 
L 934 2247 
L 934 2753 
L 1319 2753 
Q 2484 2753 2484 3616 
Q 2484 4413 1594 4413 
Q 1084 4413 634 4069 
L 634 4647 
Q 1109 4922 1744 4922 
Q 2363 4922 2738 4598 
Q 3113 4275 3113 3759 
Q 3113 2809 2144 2538 
L 2144 2525 
Q 2669 2469 2973 2155 
Q 3278 1841 3278 1372 
Q 3278 719 2808 319 
Q 2338 -81 1556 -81 
Q 869 -81 447 175 
L 447 809 
z
" transform="scale(0.015625)"/>
       </defs>
       <use xlink:href="#MicrosoftYaHei-33"/>
      </g>
     </g>
    </g>
    <g id="xtick_5">
     <g id="line2d_9">
      <path d="M 515.7423 363.463848 
L 515.7423 36.789375 
" clip-path="url(#p5151d7e388)" style="fill: none; stroke: #d8d1c5; stroke-opacity: 0.34; stroke-width: 0.85; stroke-linecap: square"/>
     </g>
     <g id="line2d_10">
      <g>
       <use xlink:href="#mbd323fa9e6" x="515.7423" y="363.463848" style="fill: #32383a; stroke: #32383a; stroke-width: 0.8"/>
      </g>
     </g>
     <g id="text_5">
      <!-- 4 -->
      <g style="fill: #32383a" transform="translate(512.663668 378.857286) scale(0.105 -0.105)">
       <defs>
        <path id="MicrosoftYaHei-34" d="M 2906 4841 
L 2906 1644 
L 3631 1644 
L 3631 1138 
L 2906 1138 
L 2906 0 
L 2313 0 
L 2313 1138 
L 53 1138 
L 53 1616 
Q 656 2294 1265 3178 
Q 1875 4063 2272 4841 
L 2906 4841 
z
M 741 1644 
L 2313 1644 
L 2313 3950 
Q 1988 3366 1616 2817 
Q 1244 2269 741 1644 
z
" transform="scale(0.015625)"/>
       </defs>
       <use xlink:href="#MicrosoftYaHei-34"/>
      </g>
     </g>
    </g>
    <g id="xtick_6">
     <g id="line2d_11">
      <path d="M 631.720887 363.463848 
L 631.720887 36.789375 
" clip-path="url(#p5151d7e388)" style="fill: none; stroke: #d8d1c5; stroke-opacity: 0.34; stroke-width: 0.85; stroke-linecap: square"/>
     </g>
     <g id="line2d_12">
      <g>
       <use xlink:href="#mbd323fa9e6" x="631.720887" y="363.463848" style="fill: #32383a; stroke: #32383a; stroke-width: 0.8"/>
      </g>
     </g>
     <g id="text_6">
      <!-- 5 -->
      <g style="fill: #32383a" transform="translate(628.642254 378.857286) scale(0.105 -0.105)">
       <defs>
        <path id="MicrosoftYaHei-35" d="M 3294 1494 
Q 3294 784 2823 350 
Q 2353 -84 1559 -84 
Q 878 -84 544 119 
L 544 744 
Q 1034 425 1544 425 
Q 2050 425 2361 704 
Q 2672 984 2672 1447 
Q 2672 1909 2348 2167 
Q 2025 2425 1434 2425 
Q 978 2425 613 2384 
L 791 4841 
L 3053 4841 
L 3053 4303 
L 1306 4303 
L 1206 2931 
L 1647 2950 
Q 2416 2950 2855 2567 
Q 3294 2184 3294 1494 
z
" transform="scale(0.015625)"/>
       </defs>
       <use xlink:href="#MicrosoftYaHei-35"/>
      </g>
     </g>
    </g>
    <g id="text_7">
     <!-- 对称网络效应强度  $k = \alpha = \beta$ -->
     <g transform="translate(262.90142 401.366676) scale(0.122 -0.122)">
      <defs>
       <path id="MicrosoftYaHei-5bf9" d="M 694 3691 
Q 1234 2909 1741 2166 
Q 2113 3081 2213 4147 
L 250 4147 
L 250 4622 
L 2725 4622 
L 2725 4166 
Q 2553 2809 2059 1700 
Q 2569 953 3044 247 
L 2594 -53 
Q 2203 563 1803 1181 
Q 1247 163 388 -622 
Q 263 -428 81 -166 
Q 975 638 1500 1647 
Q 919 2538 319 3434 
L 694 3691 
z
M 2975 3941 
L 5056 3941 
L 5056 5278 
L 5563 5278 
L 5563 3941 
L 6325 3941 
L 6325 3466 
L 5563 3466 
L 5563 191 
Q 5563 -716 4669 -716 
Q 4388 -716 3744 -709 
Q 3713 -478 3644 -147 
Q 4263 -197 4588 -197 
Q 5056 -197 5056 278 
L 5056 3466 
L 2975 3466 
L 2975 3941 
z
M 3088 2684 
L 3494 2928 
Q 4000 2184 4388 1484 
L 3919 1216 
Q 3550 1922 3088 2684 
z
" transform="scale(0.015625)"/>
       <path id="MicrosoftYaHei-79f0" d="M 81 847 
Q 769 1847 1138 3003 
L 113 3003 
L 113 3428 
L 1150 3428 
L 1150 4372 
Q 725 4322 263 4278 
Q 219 4491 150 4728 
Q 1644 4872 2525 5028 
L 2644 4572 
Q 2156 4497 1594 4428 
L 1594 3428 
L 2406 3428 
L 2406 3278 
Q 2975 4122 3456 5341 
L 3931 5184 
Q 3744 4753 3563 4378 
L 6131 4378 
L 6131 3934 
Q 6000 3603 5644 2884 
Q 5456 2984 5181 3072 
Q 5444 3622 5569 3934 
L 3338 3934 
Q 3006 3291 2694 2841 
Q 2531 3016 2406 3134 
L 2406 3003 
L 1594 3003 
L 1594 2341 
L 1813 2541 
Q 2294 2091 2569 1766 
L 2244 1453 
Q 1906 1859 1594 2178 
L 1594 -853 
L 1150 -853 
L 1150 1897 
Q 794 1003 325 341 
Q 219 603 81 847 
z
M 4006 3628 
L 4481 3628 
L 4481 -34 
Q 4481 -753 3769 -753 
Q 3481 -753 3069 -734 
Q 3038 -503 2994 -228 
Q 3331 -278 3719 -278 
Q 4006 -278 4006 41 
L 4006 3628 
z
M 4806 2434 
L 5238 2628 
Q 5744 1753 6325 416 
L 5838 178 
Q 5325 1416 4806 2434 
z
M 3100 2616 
L 3569 2447 
Q 3150 1172 2656 147 
Q 2456 247 2188 347 
Q 2669 1334 3100 2616 
z
" transform="scale(0.015625)"/>
       <path id="MicrosoftYaHei-7f51" d="M 1075 3641 
L 1444 3834 
Q 1816 3244 2184 2628 
Q 2488 3281 2706 3928 
L 3131 3772 
Q 2822 2931 2450 2175 
Q 2809 1563 3163 922 
L 2738 697 
Q 2478 1191 2203 1691 
Q 1819 969 1375 328 
L 1000 544 
L 1000 -759 
L 531 -759 
L 531 4953 
L 5856 4953 
L 5856 -59 
Q 5856 -728 5138 -728 
Q 4738 -728 4181 -716 
Q 4150 -516 4094 -228 
Q 4619 -272 4988 -272 
Q 5388 -272 5388 72 
L 5388 4503 
L 1000 4503 
L 1000 572 
Q 1538 1363 1947 2150 
Q 1531 2891 1075 3641 
z
M 3156 3341 
L 3519 3553 
Q 3831 3047 4166 2481 
Q 4525 3197 4775 3891 
L 5200 3728 
Q 4847 2838 4428 2028 
Q 4822 1353 5244 597 
L 4825 359 
Q 4513 953 4175 1559 
Q 3788 866 3350 241 
L 2969 484 
Q 3506 1263 3919 2016 
Q 3553 2672 3156 3341 
z
" transform="scale(0.015625)"/>
       <path id="MicrosoftYaHei-7edc" d="M 2244 3241 
Q 3013 4303 3394 5366 
L 3863 5209 
Q 3741 4922 3609 4653 
L 5844 4653 
L 5844 4209 
Q 5391 3431 4694 2831 
Q 5297 2463 6313 2166 
Q 6188 1947 6063 1628 
Q 5028 1988 4294 2528 
Q 3453 1941 2431 1553 
Q 2300 1766 2131 1991 
Q 3091 2316 3906 2853 
Q 3441 3291 3166 3813 
Q 2881 3328 2569 2909 
Q 2450 3047 2244 3241 
z
M 2725 1584 
L 5813 1584 
L 5813 -847 
L 5331 -847 
L 5331 -534 
L 3206 -534 
L 3206 -847 
L 2725 -847 
L 2725 1584 
z
M 900 1616 
Q 1550 1678 2131 1759 
Q 2106 1478 2088 1334 
Q 981 1197 350 1103 
L 250 1559 
Q 609 1822 1256 2941 
Q 659 2900 288 2866 
L 163 3278 
Q 763 4197 1181 5297 
L 1669 5122 
Q 1250 4228 694 3316 
Q 941 3316 1475 3328 
Q 1703 3741 1963 4247 
L 2425 4047 
Q 1675 2716 900 1616 
z
M 5331 1134 
L 3206 1134 
L 3206 -84 
L 5331 -84 
L 5331 1134 
z
M 5275 4228 
L 3419 4228 
Q 3756 3584 4284 3125 
Q 4888 3609 5275 4228 
z
M 163 153 
Q 1200 353 2325 616 
Q 2300 316 2300 141 
Q 1300 -84 300 -341 
L 163 153 
z
" transform="scale(0.015625)"/>
       <path id="MicrosoftYaHei-6548" d="M 4088 5334 
L 4581 5253 
Q 4453 4653 4259 4122 
L 6269 4122 
L 6269 3697 
L 5838 3697 
Q 5672 1869 5050 841 
Q 5572 128 6388 -347 
Q 6188 -622 6050 -841 
Q 5250 -313 4728 391 
Q 4153 -328 3300 -891 
Q 3163 -709 2944 -497 
Q 3872 125 4428 853 
Q 3897 1797 3753 3025 
Q 3603 2766 3431 2528 
Q 3300 2716 3119 2928 
Q 3844 3941 4088 5334 
z
M 694 1909 
L 1031 2203 
Q 1456 1800 1863 1394 
Q 2138 1847 2350 2378 
L 2800 2141 
Q 2538 1550 2209 1047 
Q 2659 591 3088 134 
L 2669 -222 
Q 2275 225 1913 625 
Q 1250 -238 356 -809 
Q 238 -641 31 -397 
Q 947 128 1584 981 
Q 1113 1491 694 1909 
z
M 5344 3697 
L 4125 3697 
Q 4222 2322 4741 1338 
Q 5263 2306 5344 3697 
z
M 175 4297 
L 3325 4297 
L 3325 3872 
L 175 3872 
L 175 4297 
z
M 1063 3628 
L 1475 3372 
Q 963 2641 413 1953 
Q 256 2084 44 2241 
Q 506 2797 1063 3628 
z
M 2344 3609 
Q 2744 3197 3263 2591 
L 2894 2278 
Q 2506 2759 2006 3341 
L 2344 3609 
z
M 1306 5141 
L 1731 5359 
Q 1988 4953 2206 4547 
L 1769 4322 
Q 1544 4772 1306 5141 
z
" transform="scale(0.015625)"/>
       <path id="MicrosoftYaHei-5e94" d="M 2969 5134 
L 3425 5378 
Q 3694 5034 3938 4634 
L 3634 4459 
L 6169 4459 
L 6169 3984 
L 1300 3984 
L 1300 2453 
Q 1300 241 388 -853 
Q 238 -647 25 -422 
Q 775 416 775 2441 
L 775 4459 
L 3419 4459 
Q 3216 4803 2969 5134 
z
M 1263 -9 
L 4153 -9 
Q 4641 1238 5188 3403 
L 5731 3253 
Q 5147 1191 4694 -9 
L 6238 -9 
L 6238 -484 
L 1263 -484 
L 1263 -9 
z
M 1600 3059 
L 2075 3222 
Q 2463 2084 2825 672 
L 2294 509 
Q 2006 1747 1600 3059 
z
M 3106 3372 
L 3588 3509 
Q 3913 2384 4163 991 
L 3613 847 
Q 3431 2084 3106 3372 
z
" transform="scale(0.015625)"/>
       <path id="MicrosoftYaHei-5f3a" d="M 5250 466 
L 5669 666 
Q 6031 28 6363 -641 
L 5894 -878 
Q 5794 -641 5688 -416 
Q 3750 -547 2219 -653 
L 2150 -134 
Q 3088 -97 3969 -59 
L 3969 866 
L 2894 866 
L 2894 622 
L 2431 622 
L 2431 2616 
L 3969 2616 
L 3969 3297 
L 3144 3297 
L 3144 3047 
L 2681 3047 
L 2681 4972 
L 5731 4972 
L 5731 3047 
L 5269 3047 
L 5269 3297 
L 4444 3297 
L 4444 2616 
L 5988 2616 
L 5988 866 
L 4444 866 
L 4444 -41 
Q 4975 -22 5488 3 
Q 5369 241 5250 466 
z
M 425 3466 
L 1650 3466 
L 1650 4516 
L 238 4516 
L 238 4941 
L 2113 4941 
L 2113 2772 
L 1650 2772 
L 1650 3041 
L 831 3041 
L 719 2072 
L 2056 2072 
Q 1994 741 1944 128 
Q 1888 -722 1100 -722 
Q 819 -722 425 -716 
Q 388 -484 325 -216 
Q 731 -247 1019 -247 
Q 1444 -247 1475 191 
Q 1525 828 1563 1647 
L 225 1647 
L 425 3466 
z
M 5269 4547 
L 3144 4547 
L 3144 3722 
L 5269 3722 
L 5269 4547 
z
M 5525 1291 
L 5525 2191 
L 4444 2191 
L 4444 1291 
L 5525 1291 
z
M 2894 1291 
L 3969 1291 
L 3969 2191 
L 2894 2191 
L 2894 1291 
z
" transform="scale(0.015625)"/>
       <path id="MicrosoftYaHei-5ea6" d="M 1550 1216 
L 1550 1628 
L 5469 1628 
L 5469 1222 
Q 4903 613 4147 163 
Q 5050 -200 6263 -309 
L 6019 -797 
Q 4625 -603 3644 -109 
Q 2600 -619 1250 -866 
Q 1150 -666 994 -416 
Q 2231 -222 3166 166 
Q 2497 600 2066 1216 
L 1550 1216 
z
M 1363 3541 
L 2294 3541 
L 2294 4066 
L 2769 4066 
L 2769 3541 
L 4538 3541 
L 4538 4072 
L 5013 4072 
L 5013 3541 
L 6150 3541 
L 6150 3128 
L 5013 3128 
L 5013 1928 
L 4538 1928 
L 4538 2147 
L 2769 2147 
L 2769 1922 
L 2294 1922 
L 2294 3128 
L 1363 3128 
L 1363 3541 
z
M 3025 5172 
L 3481 5391 
Q 3694 5056 3909 4634 
L 6213 4634 
L 6213 4197 
L 1225 4197 
L 1225 2316 
Q 1225 178 394 -872 
Q 238 -666 38 -447 
Q 725 397 738 2347 
L 738 4634 
L 3331 4634 
Q 3188 4909 3025 5172 
z
M 2769 2547 
L 4538 2547 
L 4538 3128 
L 2769 3128 
L 2769 2547 
z
M 4819 1216 
L 2588 1216 
Q 3031 728 3656 391 
Q 4334 741 4819 1216 
z
" transform="scale(0.015625)"/>
       <path id="MicrosoftYaHei-20" transform="scale(0.015625)"/>
       <path id="DejaVuSans-Oblique-6b" d="M 1172 4863 
L 1747 4863 
L 1197 2028 
L 3169 3500 
L 3916 3500 
L 1716 1825 
L 3322 0 
L 2625 0 
L 1131 1709 
L 800 0 
L 225 0 
L 1172 4863 
z
" transform="scale(0.015625)"/>
       <path id="DejaVuSans-3d" d="M 678 2906 
L 4684 2906 
L 4684 2381 
L 678 2381 
L 678 2906 
z
M 678 1631 
L 4684 1631 
L 4684 1100 
L 678 1100 
L 678 1631 
z
" transform="scale(0.015625)"/>
       <path id="DejaVuSans-Oblique-3b1" d="M 2619 1628 
L 2622 2350 
Q 2625 3088 2069 3091 
Q 1653 3094 1394 2747 
Q 1069 2319 959 1747 
Q 825 1059 994 731 
Q 1169 397 1547 397 
Q 1966 397 2319 1063 
L 2619 1628 
z
M 2166 3578 
Q 3141 3594 3128 2584 
Q 3128 2584 3616 3500 
L 4128 3500 
L 3119 1603 
L 3109 919 
Q 3109 766 3194 638 
Q 3291 488 3391 488 
L 3669 488 
L 3575 0 
L 3228 0 
Q 2934 0 2722 263 
Q 2622 394 2619 669 
Q 2416 334 2066 50 
Q 1900 -81 1453 -78 
Q 722 -72 456 397 
Q 184 884 353 1747 
Q 534 2675 1009 3097 
Q 1544 3569 2166 3578 
z
" transform="scale(0.015625)"/>
       <path id="DejaVuSans-Oblique-3b2" d="M 872 216 
L 572 -1331 
L -6 -1331 
L 928 3478 
Q 1206 4903 2538 4903 
Q 3888 4903 3659 3700 
Q 3503 2844 2894 2531 
Q 3713 2250 3553 1416 
Q 3272 -69 1759 -66 
Q 1097 -63 872 216 
z
M 1019 966 
Q 1259 422 1875 425 
Q 2775 425 2966 1406 
Q 3138 2288 1675 2219 
L 1778 2750 
Q 2909 2731 3106 3750 
Q 3241 4438 2509 4434 
Q 1691 4434 1503 3459 
L 1019 966 
z
" transform="scale(0.015625)"/>
      </defs>
      <use xlink:href="#MicrosoftYaHei-5bf9" transform="translate(0 0.765625)"/>
      <use xlink:href="#MicrosoftYaHei-79f0" transform="translate(100 0.765625)"/>
      <use xlink:href="#MicrosoftYaHei-7f51" transform="translate(200 0.765625)"/>
      <use xlink:href="#MicrosoftYaHei-7edc" transform="translate(300 0.765625)"/>
      <use xlink:href="#MicrosoftYaHei-6548" transform="translate(400 0.765625)"/>
      <use xlink:href="#MicrosoftYaHei-5e94" transform="translate(500 0.765625)"/>
      <use xlink:href="#MicrosoftYaHei-5f3a" transform="translate(600 0.765625)"/>
      <use xlink:href="#MicrosoftYaHei-5ea6" transform="translate(700 0.765625)"/>
      <use xlink:href="#MicrosoftYaHei-20" transform="translate(800 0.765625)"/>
      <use xlink:href="#MicrosoftYaHei-20" transform="translate(829.589844 0.765625)"/>
      <use xlink:href="#DejaVuSans-Oblique-6b" transform="translate(859.179688 0.765625)"/>
      <use xlink:href="#DejaVuSans-3d" transform="translate(936.572266 0.765625)"/>
      <use xlink:href="#DejaVuSans-Oblique-3b1" transform="translate(1039.84375 0.765625)"/>
      <use xlink:href="#DejaVuSans-3d" transform="translate(1125.244141 0.765625)"/>
      <use xlink:href="#DejaVuSans-Oblique-3b2" transform="translate(1228.515625 0.765625)"/>
     </g>
    </g>
   </g>
   <g id="matplotlib.axis_2">
    <g id="ytick_1">
     <g id="line2d_13">
      <path d="M 51.827953 357.357783 
L 631.720887 357.357783 
" clip-path="url(#p5151d7e388)" style="fill: none; stroke: #d8d1c5; stroke-opacity: 0.34; stroke-width: 0.85; stroke-linecap: square"/>
     </g>
     <g id="line2d_14">
      <defs>
       <path id="m023aa8298e" d="M 0 0 
L -3.5 0 
" style="stroke: #32383a; stroke-width: 0.8"/>
      </defs>
      <g>
       <use xlink:href="#m023aa8298e" x="51.827953" y="357.357783" style="fill: #32383a; stroke: #32383a; stroke-width: 0.8"/>
      </g>
     </g>
     <g id="text_8">
      <!-- 0.0 -->
      <g style="fill: #32383a" transform="translate(29.985219 361.554502) scale(0.105 -0.105)">
       <defs>
        <path id="MicrosoftYaHei-2e" d="M 372 322 
Q 372 491 487 606 
Q 603 722 775 722 
Q 950 722 1065 605 
Q 1181 488 1181 322 
Q 1181 159 1065 42 
Q 950 -75 772 -75 
Q 600 -75 486 42 
Q 372 159 372 322 
z
" transform="scale(0.015625)"/>
       </defs>
       <use xlink:href="#MicrosoftYaHei-30"/>
       <use xlink:href="#MicrosoftYaHei-2e" x="58.642578"/>
       <use xlink:href="#MicrosoftYaHei-30" x="82.714844"/>
      </g>
     </g>
    </g>
    <g id="ytick_2">
     <g id="line2d_15">
      <path d="M 51.827953 296.297134 
L 631.720887 296.297134 
" clip-path="url(#p5151d7e388)" style="fill: none; stroke: #d8d1c5; stroke-opacity: 0.34; stroke-width: 0.85; stroke-linecap: square"/>
     </g>
     <g id="line2d_16">
      <g>
       <use xlink:href="#m023aa8298e" x="51.827953" y="296.297134" style="fill: #32383a; stroke: #32383a; stroke-width: 0.8"/>
      </g>
     </g>
     <g id="text_9">
      <!-- 0.2 -->
      <g style="fill: #32383a" transform="translate(29.985219 300.493853) scale(0.105 -0.105)">
       <use xlink:href="#MicrosoftYaHei-30"/>
       <use xlink:href="#MicrosoftYaHei-2e" x="58.642578"/>
       <use xlink:href="#MicrosoftYaHei-32" x="82.714844"/>
      </g>
     </g>
    </g>
    <g id="ytick_3">
     <g id="line2d_17">
      <path d="M 51.827953 235.236485 
L 631.720887 235.236485 
" clip-path="url(#p5151d7e388)" style="fill: none; stroke: #d8d1c5; stroke-opacity: 0.34; stroke-width: 0.85; stroke-linecap: square"/>
     </g>
     <g id="line2d_18">
      <g>
       <use xlink:href="#m023aa8298e" x="51.827953" y="235.236485" style="fill: #32383a; stroke: #32383a; stroke-width: 0.8"/>
      </g>
     </g>
     <g id="text_10">
      <!-- 0.4 -->
      <g style="fill: #32383a" transform="translate(29.985219 239.433204) scale(0.105 -0.105)">
       <use xlink:href="#MicrosoftYaHei-30"/>
       <use xlink:href="#MicrosoftYaHei-2e" x="58.642578"/>
       <use xlink:href="#MicrosoftYaHei-34" x="82.714844"/>
      </g>
     </g>
    </g>
    <g id="ytick_4">
     <g id="line2d_19">
      <path d="M 51.827953 174.175836 
L 631.720887 174.175836 
" clip-path="url(#p5151d7e388)" style="fill: none; stroke: #d8d1c5; stroke-opacity: 0.34; stroke-width: 0.85; stroke-linecap: square"/>
     </g>
     <g id="line2d_20">
      <g>
       <use xlink:href="#m023aa8298e" x="51.827953" y="174.175836" style="fill: #32383a; stroke: #32383a; stroke-width: 0.8"/>
      </g>
     </g>
     <g id="text_11">
      <!-- 0.6 -->
      <g style="fill: #32383a" transform="translate(29.985219 178.372554) scale(0.105 -0.105)">
       <defs>
        <path id="MicrosoftYaHei-36" d="M 3181 4219 
Q 2803 4413 2391 4413 
Q 1763 4413 1381 3866 
Q 1000 3319 994 2372 
L 1009 2372 
Q 1353 3038 2106 3038 
Q 2734 3038 3109 2628 
Q 3484 2219 3484 1541 
Q 3484 831 3051 375 
Q 2619 -81 1947 -81 
Q 1209 -81 789 495 
Q 369 1072 369 2131 
Q 369 3413 920 4167 
Q 1472 4922 2372 4922 
Q 2888 4922 3181 4781 
L 3181 4219 
z
M 1031 1584 
Q 1031 1106 1286 765 
Q 1541 425 1963 425 
Q 2363 425 2613 719 
Q 2863 1013 2863 1475 
Q 2863 1975 2627 2253 
Q 2391 2531 1956 2531 
Q 1544 2531 1287 2250 
Q 1031 1969 1031 1584 
z
" transform="scale(0.015625)"/>
       </defs>
       <use xlink:href="#MicrosoftYaHei-30"/>
       <use xlink:href="#MicrosoftYaHei-2e" x="58.642578"/>
       <use xlink:href="#MicrosoftYaHei-36" x="82.714844"/>
      </g>
     </g>
    </g>
    <g id="ytick_5">
     <g id="line2d_21">
      <path d="M 51.827953 113.115186 
L 631.720887 113.115186 
" clip-path="url(#p5151d7e388)" style="fill: none; stroke: #d8d1c5; stroke-opacity: 0.34; stroke-width: 0.85; stroke-linecap: square"/>
     </g>
     <g id="line2d_22">
      <g>
       <use xlink:href="#m023aa8298e" x="51.827953" y="113.115186" style="fill: #32383a; stroke: #32383a; stroke-width: 0.8"/>
      </g>
     </g>
     <g id="text_12">
      <!-- 0.8 -->
      <g style="fill: #32383a" transform="translate(29.985219 117.311905) scale(0.105 -0.105)">
       <defs>
        <path id="MicrosoftYaHei-38" d="M 306 1350 
Q 306 1769 556 2122 
Q 806 2475 1200 2625 
Q 884 2803 700 3081 
Q 516 3359 516 3684 
Q 516 4028 692 4312 
Q 869 4597 1183 4759 
Q 1497 4922 1875 4922 
Q 2256 4922 2572 4761 
Q 2888 4600 3063 4315 
Q 3238 4031 3238 3684 
Q 3238 3366 3058 3086 
Q 2878 2806 2559 2625 
Q 2953 2472 3200 2119 
Q 3447 1766 3447 1350 
Q 3447 938 3250 611 
Q 3053 284 2690 103 
Q 2328 -78 1875 -78 
Q 1425 -78 1065 103 
Q 706 284 506 612 
Q 306 941 306 1350 
z
M 906 1378 
Q 906 947 1172 687 
Q 1438 428 1878 428 
Q 2309 428 2582 692 
Q 2856 956 2856 1378 
Q 2856 1778 2579 2051 
Q 2303 2325 1878 2325 
Q 1456 2325 1181 2058 
Q 906 1791 906 1378 
z
M 1081 3634 
Q 1081 3309 1312 3076 
Q 1544 2844 1878 2844 
Q 2206 2844 2445 3078 
Q 2684 3313 2684 3634 
Q 2684 3963 2454 4191 
Q 2225 4419 1878 4419 
Q 1534 4419 1307 4195 
Q 1081 3972 1081 3634 
z
" transform="scale(0.015625)"/>
       </defs>
       <use xlink:href="#MicrosoftYaHei-30"/>
       <use xlink:href="#MicrosoftYaHei-2e" x="58.642578"/>
       <use xlink:href="#MicrosoftYaHei-38" x="82.714844"/>
      </g>
     </g>
    </g>
    <g id="ytick_6">
     <g id="line2d_23">
      <path d="M 51.827953 52.054537 
L 631.720887 52.054537 
" clip-path="url(#p5151d7e388)" style="fill: none; stroke: #d8d1c5; stroke-opacity: 0.34; stroke-width: 0.85; stroke-linecap: square"/>
     </g>
     <g id="line2d_24">
      <g>
       <use xlink:href="#m023aa8298e" x="51.827953" y="52.054537" style="fill: #32383a; stroke: #32383a; stroke-width: 0.8"/>
      </g>
     </g>
     <g id="text_13">
      <!-- 1.0 -->
      <g style="fill: #32383a" transform="translate(29.985219 56.251256) scale(0.105 -0.105)">
       <use xlink:href="#MicrosoftYaHei-31"/>
       <use xlink:href="#MicrosoftYaHei-2e" x="58.642578"/>
       <use xlink:href="#MicrosoftYaHei-30" x="82.714844"/>
      </g>
     </g>
    </g>
    <g id="text_14">
     <!-- 市场集中度  C -->
     <g transform="translate(16.952375 238.317377) rotate(-90) scale(0.122 -0.122)">
      <defs>
       <path id="MicrosoftYaHei-5e02" d="M 1206 -191 
L 719 -191 
L 719 3041 
L 2950 3041 
L 2950 3903 
L 188 3903 
L 188 4378 
L 3103 4378 
Q 2909 4769 2650 5166 
L 3131 5391 
Q 3400 4997 3625 4584 
L 3213 4378 
L 6238 4378 
L 6238 3903 
L 3450 3903 
L 3450 3041 
L 5719 3041 
L 5719 703 
Q 5719 -84 4975 -84 
Q 4631 -84 4081 -72 
Q 4050 134 3994 428 
Q 4513 397 4825 397 
Q 5231 397 5231 809 
L 5231 2578 
L 3450 2578 
L 3450 -841 
L 2950 -841 
L 2950 2578 
L 1206 2578 
L 1206 -191 
z
" transform="scale(0.015625)"/>
       <path id="MicrosoftYaHei-573a" d="M 4800 4491 
L 2363 4491 
L 2363 4941 
L 5688 4941 
L 5688 4484 
L 3225 2928 
L 6063 2928 
Q 5988 1197 5919 253 
Q 5838 -703 5038 -703 
Q 4763 -703 4194 -684 
Q 4150 -372 4088 -141 
Q 4519 -209 4962 -209 
Q 5406 -209 5450 322 
Q 5513 1103 5575 2478 
L 4906 2478 
Q 4628 375 2963 -853 
Q 2788 -634 2613 -472 
Q 4163 600 4441 2478 
L 3641 2478 
Q 3281 913 1863 -103 
Q 1713 78 1538 259 
Q 2831 1144 3175 2478 
L 2431 2478 
L 2431 2953 
L 4800 4491 
z
M 94 703 
Q 547 888 1006 1088 
L 1006 3247 
L 169 3247 
L 169 3697 
L 1006 3697 
L 1006 5259 
L 1469 5259 
L 1469 3697 
L 2231 3697 
L 2231 3247 
L 1469 3247 
L 1469 1294 
Q 1819 1453 2175 1622 
Q 2188 1359 2231 1153 
Q 1319 741 288 222 
L 94 703 
z
" transform="scale(0.015625)"/>
       <path id="MicrosoftYaHei-96c6" d="M 3056 5134 
L 3425 5359 
Q 3719 5034 3906 4722 
L 3619 4541 
L 6013 4541 
L 6013 4153 
L 3644 4153 
L 3644 3709 
L 5738 3709 
L 5738 3347 
L 3644 3347 
L 3644 2903 
L 5738 2903 
L 5738 2541 
L 3644 2541 
L 3644 2084 
L 6031 2084 
L 6031 1697 
L 1475 1697 
L 1475 1459 
L 1038 1459 
L 1038 3684 
Q 716 3309 381 3009 
Q 281 3191 81 3422 
Q 988 4178 1613 5284 
L 2044 5091 
Q 1869 4803 1688 4541 
L 3456 4541 
Q 3288 4825 3056 5134 
z
M 288 1141 
L 2981 1141 
L 2981 1566 
L 3419 1566 
L 3419 1141 
L 6106 1141 
L 6106 741 
L 3906 741 
Q 5000 -31 6338 -303 
Q 6169 -566 6044 -766 
Q 4519 -325 3419 631 
L 3419 -834 
L 2981 -834 
L 2981 638 
Q 1844 -313 356 -778 
Q 225 -584 63 -384 
Q 1406 -56 2475 741 
L 288 741 
L 288 1141 
z
M 1475 2084 
L 3206 2084 
L 3206 2541 
L 1475 2541 
L 1475 2084 
z
M 1475 2903 
L 3206 2903 
L 3206 3347 
L 1475 3347 
L 1475 2903 
z
M 1475 3709 
L 3206 3709 
L 3206 4153 
L 1475 4153 
L 1475 3709 
z
" transform="scale(0.015625)"/>
       <path id="MicrosoftYaHei-4e2d" d="M 525 3972 
L 2931 3972 
L 2931 5334 
L 3469 5334 
L 3469 3972 
L 5900 3972 
L 5900 1122 
L 5388 1122 
L 5388 1459 
L 3469 1459 
L 3469 -866 
L 2931 -866 
L 2931 1459 
L 1038 1459 
L 1038 1122 
L 525 1122 
L 525 3972 
z
M 5388 3509 
L 3469 3509 
L 3469 1922 
L 5388 1922 
L 5388 3509 
z
M 1038 1922 
L 2931 1922 
L 2931 3509 
L 1038 3509 
L 1038 1922 
z
" transform="scale(0.015625)"/>
       <path id="MicrosoftYaHei-43" d="M 3938 200 
Q 3403 -81 2597 -81 
Q 1556 -81 934 580 
Q 313 1241 313 2328 
Q 313 3497 1013 4209 
Q 1713 4922 2791 4922 
Q 3484 4922 3938 4725 
L 3938 4072 
Q 3419 4359 2797 4359 
Q 1988 4359 1478 3820 
Q 969 3281 969 2366 
Q 969 1497 1444 986 
Q 1919 475 2688 475 
Q 3406 475 3938 800 
L 3938 200 
z
" transform="scale(0.015625)"/>
      </defs>
      <use xlink:href="#MicrosoftYaHei-5e02"/>
      <use xlink:href="#MicrosoftYaHei-573a" x="100"/>
      <use xlink:href="#MicrosoftYaHei-96c6" x="200"/>
      <use xlink:href="#MicrosoftYaHei-4e2d" x="300"/>
      <use xlink:href="#MicrosoftYaHei-5ea6" x="400"/>
      <use xlink:href="#MicrosoftYaHei-20" x="500"/>
      <use xlink:href="#MicrosoftYaHei-20" x="529.589844"/>
      <use xlink:href="#MicrosoftYaHei-43" x="559.179688"/>
     </g>
    </g>
   </g>
   <g id="line2d_25">
    <path d="M 51.827953 357.357777 
L 63.425812 357.35778 
L 75.02367 357.357774 
L 86.621529 357.35778 
L 98.219388 357.357782 
L 109.817247 357.357772 
L 121.415105 357.356398 
L 133.012964 357.154518 
L 144.610823 330.906356 
L 156.208681 203.985011 
L 167.80654 156.294553 
L 179.404399 127.752148 
L 191.002257 108.679581 
L 202.600116 95.236796 
L 214.197975 85.441454 
L 225.795833 78.137054 
L 237.393692 72.596091 
L 248.991551 68.33697 
L 260.589409 65.028705 
L 272.187268 62.437225 
L 283.785127 60.392979 
L 295.382985 58.771227 
L 306.980844 57.478385 
L 318.578703 56.443621 
L 330.176561 55.612596 
L 341.77442 54.943283 
L 353.372279 54.402806 
L 364.970138 53.965538 
L 376.567996 53.611124 
L 388.165855 53.323436 
L 399.763714 53.089608 
L 411.361572 52.899359 
L 422.959431 52.744399 
L 434.55729 52.618089 
L 446.155148 52.515069 
L 457.753007 52.430988 
L 469.350866 52.36232 
L 480.948724 52.306242 
L 492.546583 52.260419 
L 504.144442 52.222964 
L 515.7423 52.192351 
L 527.340159 52.167297 
L 538.938018 52.146813 
L 550.535876 52.130057 
L 562.133735 52.116361 
L 573.731594 52.105138 
L 585.329452 52.09596 
L 596.927311 52.088448 
L 608.52517 52.082296 
L 620.123029 52.077263 
L 631.720887 52.073144 
" clip-path="url(#p5151d7e388)" style="fill: none; stroke: #2f9c5b; stroke-width: 2.8; stroke-linecap: round"/>
   </g>
   <g id="line2d_26">
    <path d="M 51.827953 296.297134 
L 631.720887 296.297134 
" clip-path="url(#p5151d7e388)" style="fill: none; stroke-dasharray: 4.8,4.8; stroke-dashoffset: 0; stroke: #e58f3a; stroke-width: 1.2"/>
   </g>
   <g id="line2d_27">
    <path d="M 51.827953 113.115186 
L 631.720887 113.115186 
" clip-path="url(#p5151d7e388)" style="fill: none; stroke-dasharray: 4.8,4.8; stroke-dashoffset: 0; stroke: #d95f59; stroke-width: 1.2"/>
   </g>
   <g id="line2d_28">
    <path d="M 156.208681 363.463848 
L 156.208681 36.789375 
" clip-path="url(#p5151d7e388)" style="fill: none; stroke-dasharray: 2.4,4.8; stroke-dashoffset: 0; stroke: #e58f3a; stroke-width: 1.2"/>
   </g>
   <g id="line2d_29">
    <path d="M 191.002257 363.463848 
L 191.002257 36.789375 
" clip-path="url(#p5151d7e388)" style="fill: none; stroke-dasharray: 2.4,4.8; stroke-dashoffset: 0; stroke: #d95f59; stroke-width: 1.2"/>
   </g>
   <g id="patch_6">
    <path d="M 51.827953 363.463848 
L 51.827953 36.789375 
" style="fill: none; stroke: #a9a197; stroke-width: 0.8; stroke-linejoin: miter; stroke-linecap: square"/>
   </g>
   <g id="patch_7">
    <path d="M 51.827953 363.463848 
L 631.720887 363.463848 
" style="fill: none; stroke: #a9a197; stroke-width: 0.8; stroke-linejoin: miter; stroke-linecap: square"/>
   </g>
   <g id="text_15">
    <!-- 倾斜阈值 -->
    <g style="fill: #b4671f" transform="translate(164.327182 268.591181) scale(0.103 -0.103)">
     <defs>
      <path id="MicrosoftYaHei-503e" d="M 3331 3741 
L 4175 3741 
L 4338 4509 
L 3063 4509 
L 3063 4934 
L 6288 4934 
L 6288 4509 
L 4844 4509 
L 4656 3741 
L 6019 3741 
L 6019 503 
L 5594 503 
L 5594 3328 
L 3756 3328 
L 3756 503 
L 3331 503 
L 3331 3741 
z
M 88 2228 
Q 888 3647 1200 5297 
L 1663 5209 
Q 1500 4516 1281 3872 
L 1281 -847 
L 844 -847 
L 844 2784 
Q 588 2228 281 1722 
Q 200 1972 88 2228 
z
M 3106 1109 
Q 3113 847 3131 603 
Q 2694 409 2313 191 
Q 2150 84 2019 -34 
L 1725 378 
Q 1925 541 1925 884 
L 1925 5141 
L 2363 5141 
L 2363 3434 
L 3075 3434 
L 3075 3009 
L 2363 3009 
L 2363 741 
Q 2725 909 3106 1109 
z
M 4456 2978 
L 4894 2978 
L 4894 2166 
Q 4894 1416 4756 884 
Q 5394 359 6319 -534 
L 5969 -897 
Q 5375 -247 4606 441 
Q 4213 -378 3200 -909 
Q 3031 -672 2875 -528 
Q 3750 -122 4131 522 
Q 4456 1084 4456 2241 
L 4456 2978 
z
" transform="scale(0.015625)"/>
      <path id="MicrosoftYaHei-659c" d="M 188 2197 
L 1550 2197 
L 1550 2959 
L 725 2959 
L 725 3259 
Q 531 3066 338 2897 
Q 263 3072 63 3372 
Q 906 3991 1594 5222 
L 2138 5222 
L 2081 5122 
Q 2713 4491 3319 3847 
L 3013 3459 
Q 2450 4109 1831 4722 
Q 1369 3953 844 3391 
L 2838 3391 
L 2838 2959 
L 2006 2959 
L 2006 2197 
L 3100 2197 
L 3100 1766 
L 2006 1766 
L 2006 -84 
Q 2006 -759 1394 -759 
Q 1194 -759 731 -741 
Q 694 -447 650 -222 
Q 975 -278 1244 -278 
Q 1550 -278 1550 28 
L 1550 1766 
L 188 1766 
L 188 2197 
z
M 2994 1366 
L 5031 1616 
L 5031 5284 
L 5506 5284 
L 5506 1672 
L 6281 1772 
L 6319 1322 
L 5506 1216 
L 5506 -828 
L 5031 -828 
L 5031 1159 
L 3081 916 
L 2994 1366 
z
M 63 9 
Q 513 634 781 1441 
L 1231 1297 
Q 881 347 456 -234 
Q 306 -116 63 9 
z
M 3375 4441 
L 3681 4728 
Q 4200 4272 4688 3766 
L 4344 3416 
Q 3881 3947 3375 4441 
z
M 2256 1197 
L 2631 1416 
Q 3013 847 3344 266 
L 2931 -3 
Q 2650 541 2256 1197 
z
M 3213 2947 
L 3506 3234 
Q 4044 2778 4519 2272 
L 4181 1941 
Q 3713 2459 3213 2947 
z
" transform="scale(0.015625)"/>
      <path id="MicrosoftYaHei-9608" d="M 3163 703 
Q 3475 947 3731 1234 
Q 3500 1984 3419 3141 
L 1225 3141 
L 1225 3541 
L 3394 3541 
Q 3381 3891 3381 4284 
L 3813 4284 
Q 3819 3891 3838 3541 
L 5313 3541 
L 5313 3141 
L 3856 3141 
Q 3925 2266 4075 1659 
Q 4425 2153 4650 2753 
L 5075 2572 
Q 4725 1791 4231 1166 
Q 4344 872 4488 678 
Q 4706 434 4763 691 
Q 4819 984 4844 1266 
Q 5088 1159 5269 1122 
Q 5194 584 5131 316 
Q 5038 -59 4819 -59 
Q 4469 -59 4106 434 
Q 3994 584 3906 784 
Q 3656 516 3381 284 
Q 3281 528 3163 703 
z
M 2425 4491 
L 2425 4916 
L 5988 4916 
L 5988 -3 
Q 5988 -766 5181 -766 
Q 4819 -766 4356 -753 
Q 4300 -403 4256 -284 
Q 4769 -322 5088 -322 
Q 5544 -322 5544 97 
L 5544 4491 
L 2425 4491 
z
M 1425 2609 
L 3106 2609 
L 3106 909 
L 2700 909 
L 2700 1134 
L 1831 1134 
L 1831 847 
L 1425 847 
L 1425 2609 
z
M 431 4084 
L 875 4084 
L 875 -816 
L 431 -816 
L 431 4084 
z
M 1119 378 
Q 2169 466 3200 578 
Q 3206 347 3213 153 
Q 2256 59 1181 -47 
L 1119 378 
z
M 2700 2234 
L 1831 2234 
L 1831 1509 
L 2700 1509 
L 2700 2234 
z
M 800 4984 
L 1119 5278 
Q 1563 4872 1975 4422 
L 1613 4091 
Q 1213 4566 800 4984 
z
M 4038 4141 
L 4269 4428 
Q 4619 4184 4931 3934 
L 4663 3616 
Q 4444 3809 4038 4141 
z
" transform="scale(0.015625)"/>
      <path id="MicrosoftYaHei-503c" d="M 1619 -216 
L 2250 -216 
L 2250 3653 
L 3725 3653 
L 3725 4222 
L 1913 4222 
L 1913 4647 
L 3725 4647 
L 3725 5309 
L 4200 5309 
L 4200 4647 
L 6169 4647 
L 6169 4222 
L 4200 4222 
L 4200 3653 
L 5713 3653 
L 5713 -216 
L 6306 -216 
L 6306 -641 
L 1619 -641 
L 1619 -216 
z
M 69 2247 
Q 906 3497 1369 5278 
L 1831 5141 
Q 1581 4334 1288 3628 
L 1288 -816 
L 831 -816 
L 831 2666 
Q 563 2166 263 1734 
Q 175 1997 69 2247 
z
M 2713 -216 
L 5250 -216 
L 5250 353 
L 2713 353 
L 2713 -216 
z
M 5250 3241 
L 2713 3241 
L 2713 2678 
L 5250 2678 
L 5250 3241 
z
M 2713 1716 
L 5250 1716 
L 5250 2278 
L 2713 2278 
L 2713 1716 
z
M 2713 753 
L 5250 753 
L 5250 1316 
L 2713 1316 
L 2713 753 
z
" transform="scale(0.015625)"/>
     </defs>
     <use xlink:href="#MicrosoftYaHei-503e"/>
     <use xlink:href="#MicrosoftYaHei-659c" x="100"/>
     <use xlink:href="#MicrosoftYaHei-9608" x="200"/>
     <use xlink:href="#MicrosoftYaHei-503c" x="300"/>
    </g>
    <!-- k≈0.90 -->
    <g style="fill: #b4671f" transform="translate(164.327182 281.031972) scale(0.103 -0.103)">
     <defs>
      <path id="MicrosoftYaHei-6b" d="M 3484 0 
L 2650 0 
L 1172 1666 
L 1159 1666 
L 1159 0 
L 547 0 
L 547 5116 
L 1159 5116 
L 1159 1872 
L 1172 1872 
L 2575 3456 
L 3363 3456 
L 1800 1794 
L 3484 0 
z
" transform="scale(0.015625)"/>
      <path id="MicrosoftYaHei-2248" d="M 4053 3256 
Q 4028 2750 3778 2472 
Q 3528 2194 3094 2194 
Q 2728 2194 2203 2550 
Q 1872 2778 1669 2778 
Q 1203 2778 1184 2191 
L 700 2191 
Q 722 2703 980 2978 
Q 1238 3253 1659 3253 
Q 2019 3253 2456 2959 
Q 2894 2663 3116 2663 
Q 3322 2663 3444 2823 
Q 3566 2984 3572 3256 
L 4053 3256 
z
M 4053 1853 
Q 4028 1347 3778 1067 
Q 3528 788 3094 788 
Q 2725 788 2203 1147 
Q 1878 1369 1669 1369 
Q 1203 1369 1184 784 
L 700 784 
Q 722 1294 980 1572 
Q 1238 1850 1659 1850 
Q 2022 1850 2456 1559 
Q 2906 1256 3116 1256 
Q 3319 1256 3441 1423 
Q 3563 1591 3572 1853 
L 4053 1853 
z
" transform="scale(0.015625)"/>
      <path id="MicrosoftYaHei-39" d="M 578 656 
Q 978 425 1441 425 
Q 2091 425 2448 937 
Q 2806 1450 2806 2394 
Q 2800 2388 2794 2394 
Q 2475 1788 1722 1788 
Q 1113 1788 713 2206 
Q 313 2625 313 3294 
Q 313 4006 750 4464 
Q 1188 4922 1884 4922 
Q 2606 4922 3012 4355 
Q 3419 3788 3419 2703 
Q 3419 1363 2894 641 
Q 2369 -81 1441 -81 
Q 931 -81 578 84 
L 578 656 
z
M 931 3372 
Q 931 2884 1181 2598 
Q 1431 2313 1872 2313 
Q 2253 2313 2512 2573 
Q 2772 2834 2772 3206 
Q 2772 3728 2514 4070 
Q 2256 4413 1834 4413 
Q 1444 4413 1187 4116 
Q 931 3819 931 3372 
z
" transform="scale(0.015625)"/>
     </defs>
     <use xlink:href="#MicrosoftYaHei-6b"/>
     <use xlink:href="#MicrosoftYaHei-2248" x="54.443359"/>
     <use xlink:href="#MicrosoftYaHei-30" x="128.710938"/>
     <use xlink:href="#MicrosoftYaHei-2e" x="187.353516"/>
     <use xlink:href="#MicrosoftYaHei-39" x="211.425781"/>
     <use xlink:href="#MicrosoftYaHei-30" x="270.068359"/>
    </g>
   </g>
   <g id="text_16">
    <!-- 锁定阈值 -->
    <g style="fill: #a94844" transform="translate(199.120758 88.954783) scale(0.103 -0.103)">
     <defs>
      <path id="MicrosoftYaHei-9501" d="M 2513 3491 
L 4013 3491 
L 4013 5266 
L 4488 5266 
L 4488 3491 
L 6000 3491 
L 6000 553 
L 5525 553 
L 5525 3053 
L 2988 3053 
L 2988 553 
L 2513 553 
L 2513 3491 
z
M 2263 541 
Q 2269 241 2294 22 
Q 1863 -191 1375 -484 
Q 1263 -547 1113 -697 
L 781 -266 
Q 981 -78 981 203 
L 981 1559 
L 144 1559 
L 144 1991 
L 981 1991 
L 981 2834 
L 563 2834 
L 563 3266 
L 2169 3266 
L 2169 2834 
L 1438 2834 
L 1438 1991 
L 2263 1991 
L 2263 1559 
L 1438 1559 
L 1438 78 
Q 1831 291 2263 541 
z
M 4019 2716 
L 4500 2716 
Q 4506 1191 4369 816 
Q 5381 197 6288 -441 
L 5950 -859 
Q 5081 -178 4188 391 
Q 3638 -516 2238 -928 
Q 2094 -716 1919 -484 
Q 3931 3 3994 1522 
Q 4019 1928 4019 2716 
z
M 69 3384 
Q 663 4228 1038 5316 
L 1506 5159 
Q 1338 4741 1144 4353 
L 2275 4353 
L 2275 3922 
L 919 3922 
Q 644 3416 331 2959 
Q 213 3184 69 3384 
z
M 5000 3884 
Q 5444 4441 5775 4978 
L 6219 4722 
Q 5850 4184 5388 3609 
L 5000 3884 
z
M 2294 4722 
L 2675 4959 
Q 3063 4478 3463 3903 
L 3031 3628 
Q 2675 4222 2294 4722 
z
" transform="scale(0.015625)"/>
      <path id="MicrosoftYaHei-5b9a" d="M 81 -384 
Q 1119 509 1281 2241 
L 1806 2159 
Q 1731 1581 1578 1081 
Q 2063 50 3081 -103 
L 3081 2647 
L 225 2647 
L 225 3116 
L 6163 3116 
L 6163 2647 
L 3600 2647 
L 3600 1634 
L 5775 1634 
L 5775 1172 
L 3600 1172 
L 3600 -138 
Q 4844 -169 6306 -116 
Q 6200 -359 6125 -634 
Q 4594 -653 3450 -616 
Q 2041 -616 1378 528 
Q 1022 -300 413 -872 
Q 269 -628 81 -384 
z
M 450 4566 
L 3116 4566 
Q 2931 4834 2725 5091 
L 3200 5347 
Q 3444 5066 3731 4716 
L 3450 4566 
L 5981 4566 
L 5981 3378 
L 5488 3378 
L 5488 4097 
L 944 4097 
L 944 3384 
L 450 3384 
L 450 4566 
z
" transform="scale(0.015625)"/>
     </defs>
     <use xlink:href="#MicrosoftYaHei-9501"/>
     <use xlink:href="#MicrosoftYaHei-5b9a" x="100"/>
     <use xlink:href="#MicrosoftYaHei-9608" x="200"/>
     <use xlink:href="#MicrosoftYaHei-503c" x="300"/>
    </g>
    <!-- k≈1.20 -->
    <g style="fill: #a94844" transform="translate(199.120758 101.395573) scale(0.103 -0.103)">
     <use xlink:href="#MicrosoftYaHei-6b"/>
     <use xlink:href="#MicrosoftYaHei-2248" x="54.443359"/>
     <use xlink:href="#MicrosoftYaHei-31" x="128.710938"/>
     <use xlink:href="#MicrosoftYaHei-2e" x="187.353516"/>
     <use xlink:href="#MicrosoftYaHei-32" x="211.425781"/>
     <use xlink:href="#MicrosoftYaHei-30" x="270.068359"/>
    </g>
   </g>
   <g id="text_17">
    <!-- 实验 6：对称网络效应路径下的临界跃迁 -->
    <g transform="translate(189.500905 20.789375) scale(0.17 -0.17)">
     <defs>
      <path id="MicrosoftYaHei-Bold-5b9e" d="M 4219 3716 
Q 4181 2422 4056 1653 
L 6238 1653 
L 6238 878 
L 3863 878 
Q 3850 841 3813 766 
Q 5019 372 6206 -66 
L 5881 -847 
Q 4619 -316 3369 153 
Q 2550 -616 863 -916 
Q 556 -384 331 -78 
Q 2338 209 2894 878 
L 169 878 
L 169 1653 
L 2144 1653 
Q 1481 2053 931 2328 
L 1319 2934 
Q 1894 2659 2638 2247 
L 2244 1653 
L 3175 1653 
Q 3331 2453 3350 3716 
L 4219 3716 
z
M 300 3078 
L 300 4703 
L 2819 4703 
Q 2700 5009 2606 5228 
L 3675 5341 
Q 3769 5084 3888 4703 
L 6094 4703 
L 6094 3078 
L 5225 3078 
L 5225 3953 
L 1169 3953 
L 1169 3078 
L 300 3078 
z
M 1813 3772 
Q 2469 3484 3163 3134 
L 2769 2497 
Q 2031 2909 1450 3184 
L 1813 3772 
z
" transform="scale(0.015625)"/>
      <path id="MicrosoftYaHei-Bold-9a8c" d="M 1138 4053 
L 969 2491 
L 1419 2491 
L 1563 4241 
L 200 4241 
L 200 4991 
L 2369 4991 
L 2163 2491 
L 2525 2491 
Q 2463 691 2413 203 
Q 2369 -553 1838 -672 
Q 1581 -709 644 -709 
Q 588 -253 519 134 
Q 906 91 1350 78 
Q 1669 78 1694 378 
Q 1731 791 1763 1741 
L 181 1741 
L 400 4053 
L 1138 4053 
z
M 5544 2647 
L 3163 2647 
L 3163 2997 
Q 2944 2797 2706 2603 
Q 2525 2991 2300 3391 
Q 3313 4134 3925 5278 
L 4875 5278 
L 4738 5053 
Q 5469 3984 6381 3466 
Q 6163 3116 5950 2691 
Q 5738 2828 5544 2984 
L 5544 2647 
z
M 2556 116 
L 4694 116 
Q 5063 1253 5250 2303 
L 6025 2103 
Q 5775 1141 5438 116 
L 6213 116 
L 6213 -634 
L 2556 -634 
L 2556 116 
z
M 3263 2172 
Q 3569 1397 3856 503 
L 3175 259 
Q 2981 978 2625 1934 
L 3263 2172 
z
M 4425 2428 
Q 4644 1584 4806 753 
L 4113 584 
Q 3988 1366 3763 2278 
L 4425 2428 
z
M 75 1216 
Q 763 1278 1525 1378 
Q 1531 984 1538 628 
Q 838 541 175 428 
L 75 1216 
z
M 4300 4347 
Q 4013 3897 3544 3384 
L 5113 3384 
Q 4663 3859 4300 4347 
z
" transform="scale(0.015625)"/>
      <path id="MicrosoftYaHei-Bold-20" transform="scale(0.015625)"/>
      <path id="MicrosoftYaHei-Bold-36" d="M 3378 3938 
Q 3009 4147 2575 4147 
Q 2016 4147 1680 3708 
Q 1344 3269 1344 2572 
L 1363 2572 
Q 1709 3103 2391 3103 
Q 3000 3103 3358 2686 
Q 3716 2269 3716 1600 
Q 3716 869 3250 392 
Q 2784 -84 2059 -84 
Q 1228 -84 786 516 
Q 344 1116 344 2159 
Q 344 3388 917 4155 
Q 1491 4922 2513 4922 
Q 3063 4922 3378 4791 
L 3378 3938 
z
M 1378 1591 
Q 1378 1216 1565 953 
Q 1753 691 2059 691 
Q 2369 691 2547 931 
Q 2725 1172 2725 1534 
Q 2725 2350 2053 2350 
Q 1750 2350 1564 2134 
Q 1378 1919 1378 1591 
z
" transform="scale(0.015625)"/>
      <path id="MicrosoftYaHei-Bold-ff1a" d="M 1594 3506 
Q 1831 3506 2000 3354 
Q 2169 3203 2169 2981 
Q 2169 2766 2003 2614 
Q 1838 2463 1594 2463 
Q 1353 2463 1189 2616 
Q 1025 2769 1025 2981 
Q 1025 3200 1192 3353 
Q 1359 3506 1594 3506 
z
M 1594 959 
Q 1831 959 2000 806 
Q 2169 653 2169 434 
Q 2169 222 2000 69 
Q 1831 -84 1594 -84 
Q 1356 -84 1190 69 
Q 1025 222 1025 434 
Q 1025 653 1190 806 
Q 1356 959 1594 959 
z
" transform="scale(0.015625)"/>
      <path id="MicrosoftYaHei-Bold-5bf9" d="M 3050 4234 
L 4850 4234 
L 4850 5309 
L 5744 5309 
L 5744 4234 
L 6319 4234 
L 6319 3409 
L 5744 3409 
L 5744 216 
Q 5744 -250 5539 -490 
Q 5334 -731 4987 -754 
Q 4641 -778 3656 -778 
Q 3594 -359 3450 147 
Q 3931 109 4409 109 
Q 4850 109 4850 516 
L 4850 3409 
L 3050 3409 
L 3050 4234 
z
M 863 3772 
L 1691 2509 
Q 1934 3206 2025 4016 
L 188 4016 
L 188 4834 
L 2900 4834 
L 2900 4028 
Q 2709 2722 2247 1669 
L 3169 278 
L 2394 -228 
L 1781 778 
Q 1269 -47 550 -684 
Q 369 -316 88 153 
Q 816 772 1278 1594 
L 181 3341 
L 863 3772 
z
M 3463 3047 
Q 4069 2278 4588 1528 
L 3844 1041 
Q 3375 1841 2813 2609 
L 3463 3047 
z
" transform="scale(0.015625)"/>
      <path id="MicrosoftYaHei-Bold-79f0" d="M 88 1153 
Q 597 1766 953 2716 
L 150 2716 
L 150 3522 
L 981 3522 
L 981 4225 
L 250 4153 
Q 188 4697 156 4897 
Q 1419 5016 2381 5153 
L 2525 4409 
L 1756 4313 
L 1756 3522 
L 2409 3522 
Q 2956 4428 3125 5284 
L 3944 5159 
Q 3856 4834 3753 4528 
L 6169 4528 
L 6169 3803 
L 5906 2709 
L 5131 2872 
L 5356 3784 
L 3459 3784 
Q 3206 3216 2875 2716 
Q 2691 2966 2450 3241 
L 2450 2716 
L 1756 2716 
L 1756 2384 
Q 2144 2159 2556 1891 
L 2188 1209 
Q 1969 1400 1756 1572 
L 1756 -797 
L 981 -797 
L 981 1181 
Q 697 572 400 159 
Q 288 566 88 1153 
z
M 4700 3366 
L 4700 134 
Q 4700 -263 4559 -470 
Q 4419 -678 4122 -717 
Q 3825 -756 3144 -747 
Q 3088 -303 3000 66 
Q 3288 34 3575 34 
Q 3875 34 3875 309 
L 3875 3366 
L 4700 3366 
z
M 2150 516 
Q 2606 1559 2881 2541 
L 3625 2328 
Q 3338 1253 2888 166 
Q 2550 341 2150 516 
z
M 5631 2528 
Q 5863 1878 6300 397 
L 5500 122 
Q 5206 1372 4913 2322 
L 5631 2528 
z
" transform="scale(0.015625)"/>
      <path id="MicrosoftYaHei-Bold-7f51" d="M 1781 4059 
L 2334 2925 
Q 2581 3484 2800 4091 
L 3222 3897 
L 3556 4047 
L 4063 2950 
Q 4297 3509 4513 4116 
L 5188 3828 
Q 4872 2891 4488 2028 
L 5144 566 
L 4438 216 
L 4059 1128 
Q 3756 528 3425 -34 
Q 3284 75 3147 175 
L 2813 9 
L 2328 1159 
Q 1969 481 1575 -103 
Q 1419 44 1194 228 
L 1194 -809 
L 356 -809 
L 356 5078 
L 6038 5078 
L 6038 278 
Q 6038 -206 5853 -467 
Q 5669 -728 5336 -772 
Q 5003 -816 4094 -816 
Q 4006 -309 3900 59 
Q 4344 16 4800 16 
Q 5200 16 5200 409 
L 5200 4297 
L 1194 4297 
L 1194 3753 
L 1781 4059 
z
M 1194 3628 
L 1194 775 
Q 1584 1381 1928 2066 
Q 1559 2884 1194 3628 
z
M 3216 3088 
Q 2997 2534 2759 2025 
L 3194 1091 
Q 3438 1550 3669 2047 
L 3216 3088 
z
" transform="scale(0.015625)"/>
      <path id="MicrosoftYaHei-Bold-7edc" d="M 1025 3353 
Q 1288 3366 1400 3366 
Q 1644 3791 1900 4334 
L 2638 3997 
Q 2019 2922 1338 1784 
Q 1806 1847 2313 1922 
Q 2269 1503 2263 1147 
Q 975 978 481 859 
L 238 1559 
Q 550 1878 988 2641 
Q 631 2616 325 2578 
L 88 3284 
Q 531 3822 1163 5328 
L 1938 5028 
Q 1488 4172 1025 3353 
z
M 2675 -859 
L 2675 1666 
L 5900 1666 
L 5900 -859 
L 5088 -859 
L 5088 -572 
L 3488 -572 
L 3488 -859 
L 2675 -859 
z
M 238 -497 
L 94 378 
Q 875 459 2463 703 
Q 2425 178 2431 -159 
Q 1038 -353 238 -497 
z
M 5088 884 
L 3488 884 
L 3488 209 
L 5088 209 
L 5088 884 
z
M 2494 3609 
Q 3225 4434 3694 5328 
L 4538 5191 
Q 4394 4934 4244 4703 
L 6038 4703 
L 6038 3953 
Q 5681 3297 5056 2791 
Q 5625 2584 6319 2478 
Q 6188 2009 6131 1666 
Q 5019 1909 4288 2297 
Q 3513 1922 2463 1653 
Q 2288 2134 2150 2397 
Q 2975 2572 3569 2803 
Q 3356 2997 3163 3241 
Q 3006 3084 2894 2972 
Q 2744 3247 2494 3609 
z
M 3781 3972 
Q 3725 3897 3656 3809 
Q 3919 3441 4288 3172 
Q 4800 3509 5063 3972 
L 3781 3972 
z
" transform="scale(0.015625)"/>
      <path id="MicrosoftYaHei-Bold-6548" d="M 1169 2122 
L 1806 1500 
Q 2019 1891 2131 2341 
L 2778 2159 
Q 2425 2663 1944 3203 
L 2550 3634 
Q 2841 3325 3084 3041 
Q 3653 4084 3956 5359 
L 4769 5247 
Q 4666 4809 4506 4366 
L 6294 4366 
L 6294 3534 
L 5931 3534 
Q 5778 1931 5213 928 
Q 5666 353 6319 22 
Q 6100 -278 5788 -809 
Q 5156 -378 4703 216 
Q 4141 -419 3331 -866 
Q 3069 -478 2756 -147 
Q 3644 325 4213 1000 
Q 3863 1697 3688 2556 
Q 3534 2281 3363 2003 
Q 3259 2166 3128 2363 
L 2838 2144 
L 2919 2122 
Q 2725 1472 2394 919 
Q 2791 519 3081 209 
L 2475 -372 
Q 2219 -59 1928 266 
Q 1375 -388 581 -866 
Q 350 -484 56 -91 
Q 856 300 1366 872 
Q 1013 1241 619 1628 
L 1169 2122 
z
M 4713 1772 
Q 5038 2481 5147 3534 
L 4256 3534 
Q 4378 2525 4713 1772 
z
M 200 4553 
L 1388 4553 
Q 1294 4847 1163 5178 
L 2000 5359 
Q 2163 4922 2259 4553 
L 3325 4553 
L 3325 3778 
L 200 3778 
L 200 4553 
z
M 950 3609 
L 1663 3272 
Q 1200 2441 625 1872 
Q 269 2284 75 2466 
Q 588 2984 950 3609 
z
" transform="scale(0.015625)"/>
      <path id="MicrosoftYaHei-Bold-5e94" d="M 1438 2491 
Q 1438 119 794 -866 
Q 506 -597 88 -266 
Q 619 622 613 2603 
L 613 4566 
L 3009 4566 
Q 2894 4853 2781 5116 
L 3788 5353 
Q 3928 5016 4103 4566 
L 6225 4566 
L 6225 3797 
L 1438 3797 
L 1438 2491 
z
M 3013 3309 
L 3794 3541 
Q 4125 2678 4513 1316 
L 3669 1084 
Q 3300 2416 3013 3309 
z
M 1325 316 
L 4300 316 
Q 4681 1541 5200 3453 
L 6069 3228 
Q 5744 2006 5184 316 
L 6250 316 
L 6250 -553 
L 1325 -553 
L 1325 316 
z
M 1475 2984 
L 2225 3303 
Q 2775 2103 3244 828 
L 2406 516 
Q 2006 1684 1475 2984 
z
" transform="scale(0.015625)"/>
      <path id="MicrosoftYaHei-Bold-8def" d="M 438 4966 
L 2613 4966 
L 2613 3916 
Q 3234 4569 3581 5359 
L 4475 5253 
Q 4341 4978 4188 4722 
L 6050 4722 
L 6050 4016 
Q 5734 3316 5156 2813 
Q 5663 2619 6313 2541 
Q 6194 2209 6075 1734 
Q 5106 1916 4409 2306 
Q 3700 1928 2738 1741 
Q 2600 2109 2419 2459 
Q 3153 2588 3703 2816 
Q 3416 3084 3203 3413 
Q 3063 3259 2913 3116 
Q 2834 3244 2613 3556 
L 2613 2816 
L 2063 2816 
L 2063 2066 
L 2550 2066 
L 2550 1341 
L 2063 1341 
L 2063 447 
L 2763 534 
Q 2744 378 2738 -303 
L 200 -653 
L 106 222 
L 313 244 
L 313 2416 
L 938 2416 
L 938 313 
L 1288 353 
L 1288 2816 
L 438 2816 
L 438 4966 
z
M 1213 3516 
L 1838 3516 
L 1838 4166 
L 1213 4166 
L 1213 3516 
z
M 4416 3213 
Q 4863 3538 5088 3978 
L 3728 3978 
Q 3988 3525 4416 3213 
z
M 2975 -853 
L 2975 1722 
L 5900 1722 
L 5900 -841 
L 5113 -841 
L 5113 -516 
L 3763 -516 
L 3763 -853 
L 2975 -853 
z
M 5113 947 
L 3763 947 
L 3763 259 
L 5113 259 
L 5113 947 
z
" transform="scale(0.015625)"/>
      <path id="MicrosoftYaHei-Bold-5f84" d="M 1450 5366 
L 2144 4797 
Q 1400 3816 444 2947 
Q 344 3328 131 3909 
Q 913 4597 1450 5366 
z
M 1588 -784 
L 781 -784 
L 781 1309 
Q 556 1075 331 866 
Q 250 1253 69 1841 
Q 850 2553 1575 3609 
L 2256 3153 
Q 2141 2984 2025 2825 
Q 3756 3381 4744 4259 
L 2325 4259 
L 2325 5009 
L 5788 5009 
L 5788 4272 
Q 5416 3819 4916 3419 
Q 5747 3056 6350 2772 
L 5863 2034 
Q 5006 2519 4209 2922 
Q 3409 2428 2369 2034 
Q 2188 2381 1966 2741 
Q 1775 2484 1588 2244 
L 1588 -784 
z
M 1913 128 
L 3663 128 
L 3663 1216 
L 2225 1216 
L 2225 1966 
L 6000 1966 
L 6000 1216 
L 4556 1216 
L 4556 128 
L 6300 128 
L 6300 -622 
L 1913 -622 
L 1913 128 
z
" transform="scale(0.015625)"/>
      <path id="MicrosoftYaHei-Bold-4e0b" d="M 4038 3372 
Q 5050 2647 6069 1866 
L 5425 1078 
Q 4363 1997 3488 2647 
L 3488 -822 
L 2475 -822 
L 2475 4066 
L 175 4066 
L 175 4947 
L 6213 4947 
L 6213 4066 
L 3488 4066 
L 3488 2822 
L 4038 3372 
z
" transform="scale(0.015625)"/>
      <path id="MicrosoftYaHei-Bold-7684" d="M 1250 5303 
L 2181 5159 
L 1900 4309 
L 2963 4309 
L 2963 3091 
Q 3466 3934 3925 5316 
L 4788 5091 
Q 4650 4675 4494 4278 
L 6106 4278 
L 6034 681 
Q 6019 100 5937 -133 
Q 5856 -366 5684 -512 
Q 5513 -659 5205 -712 
Q 4897 -766 3863 -766 
Q 3769 -216 3625 178 
Q 4088 141 4609 141 
Q 4759 141 4868 175 
Q 4978 209 5048 279 
Q 5119 350 5144 437 
Q 5169 525 5184 1206 
L 5213 2484 
Q 5225 3081 5225 3453 
L 4138 3453 
Q 3931 3016 3700 2603 
Q 3403 2797 2963 2988 
L 2963 -734 
L 2094 -734 
L 2094 -284 
L 1206 -284 
L 1206 -772 
L 338 -772 
L 338 4309 
L 997 4309 
Q 1178 4922 1250 5303 
z
M 2094 3491 
L 1206 3491 
L 1206 2422 
L 2094 2422 
L 2094 3491 
z
M 1206 534 
L 2094 534 
L 2094 1603 
L 1206 1603 
L 1206 534 
z
M 3944 2703 
Q 4394 2166 4913 1397 
L 4125 872 
Q 3650 1653 3219 2203 
L 3944 2703 
z
" transform="scale(0.015625)"/>
      <path id="MicrosoftYaHei-Bold-4e34" d="M 2638 2566 
L 4550 2566 
Q 4138 2953 3650 3359 
L 4091 3791 
L 3534 3791 
Q 3228 3288 2850 2797 
Q 2569 3031 2188 3300 
L 2188 -822 
L 1400 -822 
L 1400 5284 
L 2188 5284 
L 2188 3391 
Q 2947 4288 3450 5366 
L 4250 5178 
Q 4116 4856 3956 4541 
L 6275 4541 
L 6275 3791 
L 4275 3791 
Q 4725 3469 5213 3072 
L 4747 2566 
L 6100 2566 
L 6100 -784 
L 5325 -784 
L 5325 -491 
L 3413 -491 
L 3413 -784 
L 2638 -784 
L 2638 2566 
z
M 3413 234 
L 4019 234 
L 4019 1841 
L 3413 1841 
L 3413 234 
z
M 5325 1841 
L 4719 1841 
L 4719 234 
L 5325 234 
L 5325 1841 
z
M 331 4691 
L 1044 4691 
L 1044 -234 
L 331 -234 
L 331 4691 
z
" transform="scale(0.015625)"/>
      <path id="MicrosoftYaHei-Bold-754c" d="M 3838 1284 
L 4109 1284 
Q 3544 1634 3200 2053 
Q 2841 1656 2228 1291 
L 2569 1291 
Q 2597 291 2270 -114 
Q 1944 -519 1188 -853 
Q 869 -441 625 -209 
Q 1413 144 1580 375 
Q 1747 606 1766 1038 
Q 1228 769 544 516 
Q 363 884 100 1278 
Q 1394 1609 2156 2078 
L 675 2078 
L 675 5053 
L 5750 5053 
L 5750 2078 
L 4213 2078 
Q 5038 1553 6325 1328 
Q 6119 984 5881 516 
Q 5216 722 4688 972 
L 4688 -828 
L 3838 -828 
L 3838 1284 
z
M 4913 4378 
L 3638 4378 
L 3638 3903 
L 4913 3903 
L 4913 4378 
z
M 1513 3903 
L 2788 3903 
L 2788 4378 
L 1513 4378 
L 1513 3903 
z
M 4913 2753 
L 4913 3228 
L 3638 3228 
L 3638 2753 
L 4913 2753 
z
M 1513 2753 
L 2788 2753 
L 2788 3228 
L 1513 3228 
L 1513 2753 
z
" transform="scale(0.015625)"/>
      <path id="MicrosoftYaHei-Bold-8dc3" d="M 456 4966 
L 2631 4966 
L 2631 2816 
L 2081 2816 
L 2081 2128 
L 2700 2128 
L 2700 1403 
L 2081 1403 
L 2081 572 
L 2756 672 
Q 2734 350 2728 88 
Q 3775 1003 3928 2128 
L 2813 2128 
L 2813 2922 
L 4025 2922 
Q 4066 3453 4078 4134 
Q 3534 4097 2981 4072 
Q 2950 4428 2869 4878 
Q 4519 4928 6006 5097 
L 6188 4316 
Q 5556 4250 4913 4197 
Q 4897 3394 4872 2922 
L 6275 2922 
L 6275 2128 
L 4956 2128 
Q 5344 597 6363 -97 
Q 5981 -534 5763 -816 
Q 4856 -106 4497 1253 
Q 4125 6 3069 -853 
Q 2844 -578 2497 -197 
Q 1088 -391 200 -553 
L 106 328 
L 338 353 
L 338 2416 
L 963 2416 
L 963 425 
L 1306 469 
L 1306 2816 
L 456 2816 
L 456 4966 
z
M 1856 3516 
L 1856 4166 
L 1231 4166 
L 1231 3516 
L 1856 3516 
z
" transform="scale(0.015625)"/>
      <path id="MicrosoftYaHei-Bold-8fc1" d="M 975 5291 
Q 1431 4716 1856 4116 
L 1081 3622 
Q 725 4203 263 4872 
L 975 5291 
z
M 4525 403 
L 3638 403 
L 3638 2159 
L 1963 2159 
L 1963 2959 
L 3638 2959 
L 3638 4116 
L 2244 4041 
Q 2175 4391 2050 4853 
Q 3888 4922 5894 5103 
L 6081 4291 
L 4525 4172 
L 4525 2959 
L 6213 2959 
L 6213 2159 
L 4525 2159 
L 4525 403 
z
M 6306 203 
Q 6144 -228 6000 -659 
Q 4238 -659 2994 -634 
Q 1750 -609 1231 22 
Q 997 -231 469 -816 
L 94 109 
Q 297 319 800 772 
L 800 2341 
L 175 2341 
L 175 3166 
L 1638 3166 
L 1638 700 
Q 2216 159 3325 159 
Q 5947 159 6306 203 
z
" transform="scale(0.015625)"/>
     </defs>
     <use xlink:href="#MicrosoftYaHei-Bold-5b9e"/>
     <use xlink:href="#MicrosoftYaHei-Bold-9a8c" x="100"/>
     <use xlink:href="#MicrosoftYaHei-Bold-20" x="200"/>
     <use xlink:href="#MicrosoftYaHei-Bold-36" x="229.785156"/>
     <use xlink:href="#MicrosoftYaHei-Bold-ff1a" x="291.455078"/>
     <use xlink:href="#MicrosoftYaHei-Bold-5bf9" x="391.455078"/>
     <use xlink:href="#MicrosoftYaHei-Bold-79f0" x="491.455078"/>
     <use xlink:href="#MicrosoftYaHei-Bold-7f51" x="591.455078"/>
     <use xlink:href="#MicrosoftYaHei-Bold-7edc" x="691.455078"/>
     <use xlink:href="#MicrosoftYaHei-Bold-6548" x="791.455078"/>
     <use xlink:href="#MicrosoftYaHei-Bold-5e94" x="891.455078"/>
     <use xlink:href="#MicrosoftYaHei-Bold-8def" x="991.455078"/>
     <use xlink:href="#MicrosoftYaHei-Bold-5f84" x="1091.455078"/>
     <use xlink:href="#MicrosoftYaHei-Bold-4e0b" x="1191.455078"/>
     <use xlink:href="#MicrosoftYaHei-Bold-7684" x="1291.455078"/>
     <use xlink:href="#MicrosoftYaHei-Bold-4e34" x="1391.455078"/>
     <use xlink:href="#MicrosoftYaHei-Bold-754c" x="1491.455078"/>
     <use xlink:href="#MicrosoftYaHei-Bold-8dc3" x="1591.455078"/>
     <use xlink:href="#MicrosoftYaHei-Bold-8fc1" x="1691.455078"/>
    </g>
   </g>
  </g>
 </g>
 <defs>
  <clipPath id="p5151d7e388">
   <rect x="51.827953" y="36.789375" width="579.892934" height="326.674473"/>
  </clipPath>
 </defs>
</svg>
