<?xml version="1.0" encoding="utf-8" standalone="no"?>
<!DOCTYPE svg PUBLIC "-//W3C//DTD SVG 1.1//EN"
  "http://www.w3.org/Graphics/SVG/1.1/DTD/svg11.dtd">
<svg xmlns:xlink="http://www.w3.org/1999/xlink" width="656.39952pt" height="418.79952pt" viewBox="0 0 656.39952 418.79952" xmlns="http://www.w3.org/2000/svg" version="1.1">
 <metadata>
  <rdf:RDF xmlns:dc="http://purl.org/dc/elements/1.1/" xmlns:cc="http://creativecommons.org/ns#" xmlns:rdf="http://www.w3.org/1999/02/22-rdf-syntax-ns#">
   <cc:Work>
    <dc:type rdf:resource="http://purl.org/dc/dcmitype/StillImage"/>
    <dc:date>2026-06-05T14:40:34.286470</dc:date>
    <dc:format>image/svg+xml</dc:format>
    <dc:creator>
     <cc:Agent>
      <dc:title>Matplotlib v3.9.2, https://matplotlib.org/</dc:title>
     </cc:Agent>
    </dc:creator>
   </cc:Work>
  </rdf:RDF>
 </metadata>
 <defs>
  <style type="text/css">*{stroke-linejoin: round; stroke-linecap: butt}</style>
 </defs>
 <g id="figure_1">
  <g id="patch_1">
   <path d="M 0 418.79952 
L 656.39952 418.79952 
L 656.39952 0 
L 0 0 
z
" style="fill: #f7f5ef"/>
  </g>
  <g id="axes_1">
   <g id="patch_2">
    <path d="M 51.827953 370.663848 
L 641.778153 370.663848 
L 641.778153 36.6295 
L 51.827953 36.6295 
z
" style="fill: #fbfaf6"/>
   </g>
   <g id="patch_3">
    <path d="M 51.827953 174.173055 
L 641.778153 174.173055 
L 641.778153 43.179193 
L 51.827953 43.179193 
z
" clip-path="url(#p31cf710f32)" style="fill: #2f9c5b; opacity: 0.055"/>
   </g>
   <g id="matplotlib.axis_1">
    <g id="xtick_1">
     <g id="line2d_1">
      <path d="M 51.827953 370.663848 
L 51.827953 36.6295 
" clip-path="url(#p31cf710f32)" style="fill: none; stroke: #d8d1c5; stroke-opacity: 0.34; stroke-width: 0.85; stroke-linecap: square"/>
     </g>
     <g id="line2d_2">
      <defs>
       <path id="mb7a45bf635" d="M 0 0 
L 0 3.5 
" style="stroke: #32383a; stroke-width: 0.8"/>
      </defs>
      <g>
       <use xlink:href="#mb7a45bf635" x="51.827953" y="370.663848" style="fill: #32383a; stroke: #32383a; stroke-width: 0.8"/>
      </g>
     </g>
     <g id="text_1">
      <!-- 0.0 -->
      <g style="fill: #32383a" transform="translate(44.406586 386.057286) scale(0.105 -0.105)">
       <defs>
        <path id="MicrosoftYaHei-30" d="M 284 2325 
Q 284 3606 709 4264 
Q 1134 4922 1941 4922 
Q 3478 4922 3478 2441 
Q 3478 1216 3045 567 
Q 2613 -81 1831 -81 
Q 1094 -81 689 534 
Q 284 1150 284 2325 
z
M 909 2353 
Q 909 425 1888 425 
Q 2850 425 2850 2384 
Q 2850 4413 1906 4413 
Q 909 4413 909 2353 
z
" transform="scale(0.015625)"/>
        <path id="MicrosoftYaHei-2e" d="M 372 322 
Q 372 491 487 606 
Q 603 722 775 722 
Q 950 722 1065 605 
Q 1181 488 1181 322 
Q 1181 159 1065 42 
Q 950 -75 772 -75 
Q 600 -75 486 42 
Q 372 159 372 322 
z
" transform="scale(0.015625)"/>
       </defs>
       <use xlink:href="#MicrosoftYaHei-30"/>
       <use xlink:href="#MicrosoftYaHei-2e" x="58.642578"/>
       <use xlink:href="#MicrosoftYaHei-30" x="82.714844"/>
      </g>
     </g>
    </g>
    <g id="xtick_2">
     <g id="line2d_3">
      <path d="M 169.817993 370.663848 
L 169.817993 36.6295 
" clip-path="url(#p31cf710f32)" style="fill: none; stroke: #d8d1c5; stroke-opacity: 0.34; stroke-width: 0.85; stroke-linecap: square"/>
     </g>
     <g id="line2d_4">
      <g>
       <use xlink:href="#mb7a45bf635" x="169.817993" y="370.663848" style="fill: #32383a; stroke: #32383a; stroke-width: 0.8"/>
      </g>
     </g>
     <g id="text_2">
      <!-- 0.2 -->
      <g style="fill: #32383a" transform="translate(162.396626 386.057286) scale(0.105 -0.105)">
       <defs>
        <path id="MicrosoftYaHei-32" d="M 2666 3572 
Q 2666 3963 2419 4186 
Q 2172 4409 1747 4409 
Q 1447 4409 1140 4256 
Q 834 4103 569 3819 
L 569 4413 
Q 806 4659 1107 4790 
Q 1409 4922 1816 4922 
Q 2472 4922 2872 4570 
Q 3272 4219 3272 3619 
Q 3272 3084 3026 2693 
Q 2781 2303 2188 1894 
Q 1581 1475 1376 1294 
Q 1172 1113 1090 947 
Q 1009 781 1009 544 
L 3416 544 
L 3416 0 
L 372 0 
L 372 241 
Q 372 659 486 951 
Q 600 1244 862 1520 
Q 1125 1797 1681 2184 
Q 2250 2584 2458 2886 
Q 2666 3188 2666 3572 
z
" transform="scale(0.015625)"/>
       </defs>
       <use xlink:href="#MicrosoftYaHei-30"/>
       <use xlink:href="#MicrosoftYaHei-2e" x="58.642578"/>
       <use xlink:href="#MicrosoftYaHei-32" x="82.714844"/>
      </g>
     </g>
    </g>
    <g id="xtick_3">
     <g id="line2d_5">
      <path d="M 287.808033 370.663848 
L 287.808033 36.6295 
" clip-path="url(#p31cf710f32)" style="fill: none; stroke: #d8d1c5; stroke-opacity: 0.34; stroke-width: 0.85; stroke-linecap: square"/>
     </g>
     <g id="line2d_6">
      <g>
       <use xlink:href="#mb7a45bf635" x="287.808033" y="370.663848" style="fill: #32383a; stroke: #32383a; stroke-width: 0.8"/>
      </g>
     </g>
     <g id="text_3">
      <!-- 0.4 -->
      <g style="fill: #32383a" transform="translate(280.386666 386.057286) scale(0.105 -0.105)">
       <defs>
        <path id="MicrosoftYaHei-34" d="M 2906 4841 
L 2906 1644 
L 3631 1644 
L 3631 1138 
L 2906 1138 
L 2906 0 
L 2313 0 
L 2313 1138 
L 53 1138 
L 53 1616 
Q 656 2294 1265 3178 
Q 1875 4063 2272 4841 
L 2906 4841 
z
M 741 1644 
L 2313 1644 
L 2313 3950 
Q 1988 3366 1616 2817 
Q 1244 2269 741 1644 
z
" transform="scale(0.015625)"/>
       </defs>
       <use xlink:href="#MicrosoftYaHei-30"/>
       <use xlink:href="#MicrosoftYaHei-2e" x="58.642578"/>
       <use xlink:href="#MicrosoftYaHei-34" x="82.714844"/>
      </g>
     </g>
    </g>
    <g id="xtick_4">
     <g id="line2d_7">
      <path d="M 405.798073 370.663848 
L 405.798073 36.6295 
" clip-path="url(#p31cf710f32)" style="fill: none; stroke: #d8d1c5; stroke-opacity: 0.34; stroke-width: 0.85; stroke-linecap: square"/>
     </g>
     <g id="line2d_8">
      <g>
       <use xlink:href="#mb7a45bf635" x="405.798073" y="370.663848" style="fill: #32383a; stroke: #32383a; stroke-width: 0.8"/>
      </g>
     </g>
     <g id="text_4">
      <!-- 0.6 -->
      <g style="fill: #32383a" transform="translate(398.376706 386.057286) scale(0.105 -0.105)">
       <defs>
        <path id="MicrosoftYaHei-36" d="M 3181 4219 
Q 2803 4413 2391 4413 
Q 1763 4413 1381 3866 
Q 1000 3319 994 2372 
L 1009 2372 
Q 1353 3038 2106 3038 
Q 2734 3038 3109 2628 
Q 3484 2219 3484 1541 
Q 3484 831 3051 375 
Q 2619 -81 1947 -81 
Q 1209 -81 789 495 
Q 369 1072 369 2131 
Q 369 3413 920 4167 
Q 1472 4922 2372 4922 
Q 2888 4922 3181 4781 
L 3181 4219 
z
M 1031 1584 
Q 1031 1106 1286 765 
Q 1541 425 1963 425 
Q 2363 425 2613 719 
Q 2863 1013 2863 1475 
Q 2863 1975 2627 2253 
Q 2391 2531 1956 2531 
Q 1544 2531 1287 2250 
Q 1031 1969 1031 1584 
z
" transform="scale(0.015625)"/>
       </defs>
       <use xlink:href="#MicrosoftYaHei-30"/>
       <use xlink:href="#MicrosoftYaHei-2e" x="58.642578"/>
       <use xlink:href="#MicrosoftYaHei-36" x="82.714844"/>
      </g>
     </g>
    </g>
    <g id="xtick_5">
     <g id="line2d_9">
      <path d="M 523.788113 370.663848 
L 523.788113 36.6295 
" clip-path="url(#p31cf710f32)" style="fill: none; stroke: #d8d1c5; stroke-opacity: 0.34; stroke-width: 0.85; stroke-linecap: square"/>
     </g>
     <g id="line2d_10">
      <g>
       <use xlink:href="#mb7a45bf635" x="523.788113" y="370.663848" style="fill: #32383a; stroke: #32383a; stroke-width: 0.8"/>
      </g>
     </g>
     <g id="text_5">
      <!-- 0.8 -->
      <g style="fill: #32383a" transform="translate(516.366746 386.057286) scale(0.105 -0.105)">
       <defs>
        <path id="MicrosoftYaHei-38" d="M 306 1350 
Q 306 1769 556 2122 
Q 806 2475 1200 2625 
Q 884 2803 700 3081 
Q 516 3359 516 3684 
Q 516 4028 692 4312 
Q 869 4597 1183 4759 
Q 1497 4922 1875 4922 
Q 2256 4922 2572 4761 
Q 2888 4600 3063 4315 
Q 3238 4031 3238 3684 
Q 3238 3366 3058 3086 
Q 2878 2806 2559 2625 
Q 2953 2472 3200 2119 
Q 3447 1766 3447 1350 
Q 3447 938 3250 611 
Q 3053 284 2690 103 
Q 2328 -78 1875 -78 
Q 1425 -78 1065 103 
Q 706 284 506 612 
Q 306 941 306 1350 
z
M 906 1378 
Q 906 947 1172 687 
Q 1438 428 1878 428 
Q 2309 428 2582 692 
Q 2856 956 2856 1378 
Q 2856 1778 2579 2051 
Q 2303 2325 1878 2325 
Q 1456 2325 1181 2058 
Q 906 1791 906 1378 
z
M 1081 3634 
Q 1081 3309 1312 3076 
Q 1544 2844 1878 2844 
Q 2206 2844 2445 3078 
Q 2684 3313 2684 3634 
Q 2684 3963 2454 4191 
Q 2225 4419 1878 4419 
Q 1534 4419 1307 4195 
Q 1081 3972 1081 3634 
z
" transform="scale(0.015625)"/>
       </defs>
       <use xlink:href="#MicrosoftYaHei-30"/>
       <use xlink:href="#MicrosoftYaHei-2e" x="58.642578"/>
       <use xlink:href="#MicrosoftYaHei-38" x="82.714844"/>
      </g>
     </g>
    </g>
    <g id="xtick_6">
     <g id="line2d_11">
      <path d="M 641.778153 370.663848 
L 641.778153 36.6295 
" clip-path="url(#p31cf710f32)" style="fill: none; stroke: #d8d1c5; stroke-opacity: 0.34; stroke-width: 0.85; stroke-linecap: square"/>
     </g>
     <g id="line2d_12">
      <g>
       <use xlink:href="#mb7a45bf635" x="641.778153" y="370.663848" style="fill: #32383a; stroke: #32383a; stroke-width: 0.8"/>
      </g>
     </g>
     <g id="text_6">
      <!-- 1.0 -->
      <g style="fill: #32383a" transform="translate(634.356786 386.057286) scale(0.105 -0.105)">
       <defs>
        <path id="MicrosoftYaHei-31" d="M 1781 0 
L 1781 4141 
Q 1638 3997 1295 3819 
Q 953 3641 663 3569 
L 663 4169 
Q 1047 4275 1484 4508 
Q 1922 4741 2156 4947 
L 2388 4947 
L 2388 0 
L 1781 0 
z
" transform="scale(0.015625)"/>
       </defs>
       <use xlink:href="#MicrosoftYaHei-31"/>
       <use xlink:href="#MicrosoftYaHei-2e" x="58.642578"/>
       <use xlink:href="#MicrosoftYaHei-30" x="82.714844"/>
      </g>
     </g>
    </g>
    <g id="text_7">
     <!-- 用户补贴比例  $\rho$ -->
     <g transform="translate(302.700053 408.566676) scale(0.122 -0.122)">
      <defs>
       <path id="MicrosoftYaHei-7528" d="M 3088 -734 
L 3088 1253 
L 1269 1253 
Q 1163 -47 513 -903 
Q 350 -697 144 -472 
Q 550 103 694 803 
Q 831 1478 831 2716 
L 831 4947 
L 5925 4947 
L 5925 -22 
Q 5925 -766 5219 -766 
Q 4788 -766 4250 -747 
Q 4219 -541 4156 -228 
Q 4700 -266 5038 -266 
Q 5425 -266 5425 103 
L 5425 1253 
L 3588 1253 
L 3588 -734 
L 3088 -734 
z
M 3588 1703 
L 5425 1703 
L 5425 2872 
L 3588 2872 
L 3588 1703 
z
M 5425 4484 
L 3588 4484 
L 3588 3322 
L 5425 3322 
L 5425 4484 
z
M 1303 1703 
L 3088 1703 
L 3088 2872 
L 1331 2872 
Q 1350 2266 1303 1703 
z
M 1331 4484 
L 1331 3322 
L 3088 3322 
L 3088 4484 
L 1331 4484 
z
" transform="scale(0.015625)"/>
       <path id="MicrosoftYaHei-6237" d="M 2725 5116 
L 3175 5384 
Q 3475 5028 3769 4609 
L 3463 4416 
L 5794 4416 
L 5794 1647 
L 5294 1647 
L 5294 1972 
L 1347 1972 
Q 1263 172 419 -903 
Q 250 -697 56 -491 
Q 856 484 856 2434 
L 856 4416 
L 3241 4416 
Q 3013 4766 2725 5116 
z
M 1356 3966 
L 1356 2422 
L 5294 2422 
L 5294 3966 
L 1356 3966 
z
" transform="scale(0.015625)"/>
       <path id="MicrosoftYaHei-8865" d="M 163 3616 
L 163 4078 
L 2450 4078 
L 2450 3603 
Q 2106 3072 1700 2591 
L 1700 2228 
Q 1813 2147 1931 2066 
Q 2388 2516 2781 3009 
L 3169 2666 
Q 2681 2222 2256 1841 
Q 2650 1566 3031 1291 
L 2725 872 
Q 2156 1347 1700 1697 
L 1700 -841 
L 1194 -841 
L 1194 2047 
Q 750 1609 244 1228 
Q 163 1509 75 1766 
Q 1181 2597 1875 3616 
L 163 3616 
z
M 3775 5266 
L 4294 5266 
L 4294 3184 
L 4613 3434 
Q 5569 2584 6331 1784 
L 5888 1372 
Q 5194 2203 4294 3053 
L 4294 -841 
L 3775 -841 
L 3775 5266 
z
M 1038 5059 
L 1475 5278 
Q 1706 4909 1963 4422 
L 1500 4184 
Q 1256 4691 1038 5059 
z
" transform="scale(0.015625)"/>
       <path id="MicrosoftYaHei-8d34" d="M 3238 2116 
L 4213 2116 
L 4213 5322 
L 4719 5322 
L 4719 3997 
L 6313 3997 
L 6313 3522 
L 4719 3522 
L 4719 2116 
L 5975 2116 
L 5975 -866 
L 5500 -866 
L 5500 -503 
L 3713 -503 
L 3713 -866 
L 3238 -866 
L 3238 2116 
z
M 431 4997 
L 2831 4997 
L 2831 1078 
L 2381 1078 
L 2381 4541 
L 881 4541 
L 881 1041 
L 431 1041 
L 431 4997 
z
M 5500 1691 
L 3713 1691 
L 3713 -78 
L 5500 -78 
L 5500 1691 
z
M 1406 4022 
L 1856 4022 
L 1856 2691 
Q 1856 1466 1700 809 
L 1931 1016 
Q 2531 366 3050 -216 
L 2631 -553 
Q 2169 53 1650 634 
Q 1438 -78 475 -809 
Q 325 -609 125 -397 
Q 919 122 1169 709 
Q 1406 1203 1406 2509 
L 1406 4022 
z
" transform="scale(0.015625)"/>
       <path id="MicrosoftYaHei-6bd4" d="M 3225 5316 
L 3744 5316 
L 3744 2672 
Q 4959 3550 5744 4509 
L 6188 4178 
Q 5175 3063 3744 2056 
L 3744 247 
Q 3744 -166 4106 -166 
L 5175 -166 
Q 5588 -166 5650 203 
Q 5725 678 5763 1247 
Q 6025 1147 6300 1066 
Q 6244 484 6150 22 
Q 6019 -622 5319 -622 
L 3944 -622 
Q 3225 -622 3225 159 
L 3225 5316 
z
M 1063 5153 
L 1063 3278 
L 2825 3278 
L 2825 2809 
L 1063 2809 
L 1063 153 
Q 1713 428 2763 928 
Q 2763 634 2788 366 
Q 1869 -3 1231 -328 
Q 956 -472 725 -672 
L 344 -184 
Q 544 -34 544 272 
L 544 5153 
L 1063 5153 
z
" transform="scale(0.015625)"/>
       <path id="MicrosoftYaHei-4f8b" d="M 2381 1841 
L 2631 2191 
Q 2916 1997 3247 1738 
Q 3488 2378 3581 3128 
L 2703 3128 
Q 2350 1984 1831 1291 
Q 1700 1491 1531 1678 
Q 2238 2694 2578 4522 
L 1900 4522 
L 1900 4959 
L 4319 4959 
L 4319 4522 
L 3044 4522 
Q 2947 4009 2828 3559 
L 4044 3559 
L 4044 3128 
Q 3788 666 2038 -822 
Q 1900 -634 1694 -416 
Q 2578 297 3063 1303 
Q 2753 1556 2381 1841 
z
M 88 2291 
Q 894 3659 1281 5322 
L 1744 5234 
Q 1578 4534 1325 3853 
L 1325 -809 
L 900 -809 
L 900 2847 
Q 625 2275 288 1716 
Q 213 1966 88 2291 
z
M 5575 5303 
L 6031 5303 
L 6031 84 
Q 6031 -391 5881 -566 
Q 5750 -728 5356 -734 
Q 5088 -741 4488 -722 
Q 4463 -466 4400 -203 
Q 4881 -253 5188 -253 
Q 5431 -259 5500 -166 
Q 5575 -84 5575 234 
L 5575 5303 
z
M 4913 653 
L 4469 653 
L 4469 4322 
L 4913 4322 
L 4913 653 
z
" transform="scale(0.015625)"/>
       <path id="MicrosoftYaHei-20" transform="scale(0.015625)"/>
       <path id="DejaVuSans-Oblique-3c1" d="M 1203 2875 
Q 1453 3194 1981 3475 
Q 2188 3584 2756 3584 
Q 3394 3584 3694 3078 
Q 3994 2572 3834 1747 
Q 3672 922 3175 415 
Q 2678 -91 2041 -91 
Q 1656 -91 1409 63 
Q 1163 213 1044 525 
L 681 -1331 
L 103 -1331 
L 697 1716 
Q 838 2438 1203 2875 
z
M 3238 1747 
Q 3359 2381 3169 2744 
Q 2978 3103 2522 3103 
Q 2066 3103 1734 2744 
Q 1403 2381 1281 1747 
Q 1156 1113 1347 750 
Q 1538 391 1994 391 
Q 2450 391 2781 750 
Q 3113 1113 3238 1747 
z
" transform="scale(0.015625)"/>
      </defs>
      <use xlink:href="#MicrosoftYaHei-7528" transform="translate(0 0.875)"/>
      <use xlink:href="#MicrosoftYaHei-6237" transform="translate(100 0.875)"/>
      <use xlink:href="#MicrosoftYaHei-8865" transform="translate(200 0.875)"/>
      <use xlink:href="#MicrosoftYaHei-8d34" transform="translate(300 0.875)"/>
      <use xlink:href="#MicrosoftYaHei-6bd4" transform="translate(400 0.875)"/>
      <use xlink:href="#MicrosoftYaHei-4f8b" transform="translate(500 0.875)"/>
      <use xlink:href="#MicrosoftYaHei-20" transform="translate(600 0.875)"/>
      <use xlink:href="#MicrosoftYaHei-20" transform="translate(629.589844 0.875)"/>
      <use xlink:href="#DejaVuSans-Oblique-3c1" transform="translate(659.179688 0.875)"/>
     </g>
    </g>
   </g>
   <g id="matplotlib.axis_2">
    <g id="ytick_1">
     <g id="line2d_13">
      <path d="M 51.827953 370.663848 
L 641.778153 370.663848 
" clip-path="url(#p31cf710f32)" style="fill: none; stroke: #d8d1c5; stroke-opacity: 0.34; stroke-width: 0.85; stroke-linecap: square"/>
     </g>
     <g id="line2d_14">
      <defs>
       <path id="mf09db4ec70" d="M 0 0 
L -3.5 0 
" style="stroke: #32383a; stroke-width: 0.8"/>
      </defs>
      <g>
       <use xlink:href="#mf09db4ec70" x="51.827953" y="370.663848" style="fill: #32383a; stroke: #32383a; stroke-width: 0.8"/>
      </g>
     </g>
     <g id="text_8">
      <!-- 0.0 -->
      <g style="fill: #32383a" transform="translate(29.985219 374.860567) scale(0.105 -0.105)">
       <use xlink:href="#MicrosoftYaHei-30"/>
       <use xlink:href="#MicrosoftYaHei-2e" x="58.642578"/>
       <use xlink:href="#MicrosoftYaHei-30" x="82.714844"/>
      </g>
     </g>
    </g>
    <g id="ytick_2">
     <g id="line2d_15">
      <path d="M 51.827953 305.166917 
L 641.778153 305.166917 
" clip-path="url(#p31cf710f32)" style="fill: none; stroke: #d8d1c5; stroke-opacity: 0.34; stroke-width: 0.85; stroke-linecap: square"/>
     </g>
     <g id="line2d_16">
      <g>
       <use xlink:href="#mf09db4ec70" x="51.827953" y="305.166917" style="fill: #32383a; stroke: #32383a; stroke-width: 0.8"/>
      </g>
     </g>
     <g id="text_9">
      <!-- 0.2 -->
      <g style="fill: #32383a" transform="translate(29.985219 309.363636) scale(0.105 -0.105)">
       <use xlink:href="#MicrosoftYaHei-30"/>
       <use xlink:href="#MicrosoftYaHei-2e" x="58.642578"/>
       <use xlink:href="#MicrosoftYaHei-32" x="82.714844"/>
      </g>
     </g>
    </g>
    <g id="ytick_3">
     <g id="line2d_17">
      <path d="M 51.827953 239.669986 
L 641.778153 239.669986 
" clip-path="url(#p31cf710f32)" style="fill: none; stroke: #d8d1c5; stroke-opacity: 0.34; stroke-width: 0.85; stroke-linecap: square"/>
     </g>
     <g id="line2d_18">
      <g>
       <use xlink:href="#mf09db4ec70" x="51.827953" y="239.669986" style="fill: #32383a; stroke: #32383a; stroke-width: 0.8"/>
      </g>
     </g>
     <g id="text_10">
      <!-- 0.4 -->
      <g style="fill: #32383a" transform="translate(29.985219 243.866705) scale(0.105 -0.105)">
       <use xlink:href="#MicrosoftYaHei-30"/>
       <use xlink:href="#MicrosoftYaHei-2e" x="58.642578"/>
       <use xlink:href="#MicrosoftYaHei-34" x="82.714844"/>
      </g>
     </g>
    </g>
    <g id="ytick_4">
     <g id="line2d_19">
      <path d="M 51.827953 174.173055 
L 641.778153 174.173055 
" clip-path="url(#p31cf710f32)" style="fill: none; stroke: #d8d1c5; stroke-opacity: 0.34; stroke-width: 0.85; stroke-linecap: square"/>
     </g>
     <g id="line2d_20">
      <g>
       <use xlink:href="#mf09db4ec70" x="51.827953" y="174.173055" style="fill: #32383a; stroke: #32383a; stroke-width: 0.8"/>
      </g>
     </g>
     <g id="text_11">
      <!-- 0.6 -->
      <g style="fill: #32383a" transform="translate(29.985219 178.369774) scale(0.105 -0.105)">
       <use xlink:href="#MicrosoftYaHei-30"/>
       <use xlink:href="#MicrosoftYaHei-2e" x="58.642578"/>
       <use xlink:href="#MicrosoftYaHei-36" x="82.714844"/>
      </g>
     </g>
    </g>
    <g id="ytick_5">
     <g id="line2d_21">
      <path d="M 51.827953 108.676124 
L 641.778153 108.676124 
" clip-path="url(#p31cf710f32)" style="fill: none; stroke: #d8d1c5; stroke-opacity: 0.34; stroke-width: 0.85; stroke-linecap: square"/>
     </g>
     <g id="line2d_22">
      <g>
       <use xlink:href="#mf09db4ec70" x="51.827953" y="108.676124" style="fill: #32383a; stroke: #32383a; stroke-width: 0.8"/>
      </g>
     </g>
     <g id="text_12">
      <!-- 0.8 -->
      <g style="fill: #32383a" transform="translate(29.985219 112.872843) scale(0.105 -0.105)">
       <use xlink:href="#MicrosoftYaHei-30"/>
       <use xlink:href="#MicrosoftYaHei-2e" x="58.642578"/>
       <use xlink:href="#MicrosoftYaHei-38" x="82.714844"/>
      </g>
     </g>
    </g>
    <g id="ytick_6">
     <g id="line2d_23">
      <path d="M 51.827953 43.179193 
L 641.778153 43.179193 
" clip-path="url(#p31cf710f32)" style="fill: none; stroke: #d8d1c5; stroke-opacity: 0.34; stroke-width: 0.85; stroke-linecap: square"/>
     </g>
     <g id="line2d_24">
      <g>
       <use xlink:href="#mf09db4ec70" x="51.827953" y="43.179193" style="fill: #32383a; stroke: #32383a; stroke-width: 0.8"/>
      </g>
     </g>
     <g id="text_13">
      <!-- 1.0 -->
      <g style="fill: #32383a" transform="translate(29.985219 47.375912) scale(0.105 -0.105)">
       <use xlink:href="#MicrosoftYaHei-31"/>
       <use xlink:href="#MicrosoftYaHei-2e" x="58.642578"/>
       <use xlink:href="#MicrosoftYaHei-30" x="82.714844"/>
      </g>
     </g>
    </g>
    <g id="text_14">
     <!-- 平台 A 最终综合份额  $L_A$ -->
     <g transform="translate(16.952375 270.502674) rotate(-90) scale(0.122 -0.122)">
      <defs>
       <path id="MicrosoftYaHei-5e73" d="M 169 1934 
L 2938 1934 
L 2938 4547 
L 450 4547 
L 450 5028 
L 5975 5028 
L 5975 4547 
L 3463 4547 
L 3463 1934 
L 6250 1934 
L 6250 1453 
L 3463 1453 
L 3463 -847 
L 2938 -847 
L 2938 1453 
L 169 1453 
L 169 1934 
z
M 3950 2559 
Q 4638 3284 5188 4159 
L 5656 3859 
Q 4950 2891 4338 2234 
L 3950 2559 
z
M 769 3859 
L 1163 4134 
Q 1863 3316 2369 2553 
L 1925 2222 
Q 1444 3003 769 3859 
z
" transform="scale(0.015625)"/>
       <path id="MicrosoftYaHei-53f0" d="M 5431 2022 
L 5431 -816 
L 4919 -816 
L 4919 -403 
L 1481 -403 
L 1481 -816 
L 969 -816 
L 969 2022 
L 5431 2022 
z
M 4513 4503 
Q 5494 3591 6369 2634 
L 5925 2266 
Q 5675 2559 5419 2844 
Q 2613 2725 1131 2641 
Q 788 2616 469 2541 
L 263 3078 
Q 550 3184 781 3372 
Q 1850 4247 2738 5391 
L 3206 5103 
Q 2269 4003 1250 3147 
Q 3166 3206 5019 3284 
Q 4591 3750 4150 4191 
L 4513 4503 
z
M 4919 1559 
L 1481 1559 
L 1481 47 
L 4919 47 
L 4919 1559 
z
" transform="scale(0.015625)"/>
       <path id="MicrosoftYaHei-41" d="M 4428 0 
L 3738 0 
L 3244 1325 
L 1228 1325 
L 763 0 
L 72 0 
L 1916 4841 
L 2584 4841 
L 4428 0 
z
M 3050 1872 
L 2319 3884 
Q 2284 3981 2244 4222 
L 2228 4222 
Q 2194 4003 2150 3884 
L 1425 1872 
L 3050 1872 
z
" transform="scale(0.015625)"/>
       <path id="MicrosoftYaHei-6700" d="M 169 -28 
Q 475 3 781 38 
L 781 2416 
L 94 2416 
L 94 2791 
L 6288 2791 
L 6288 2416 
L 3025 2416 
L 3025 331 
Q 3325 375 3625 422 
Q 3619 309 3631 22 
Q 3338 -19 3025 -63 
L 3025 -859 
L 2600 -859 
L 2600 -125 
Q 1525 -278 281 -472 
L 169 -28 
z
M 1038 5053 
L 5363 5053 
L 5363 3047 
L 4925 3047 
L 4925 3191 
L 1475 3191 
L 1475 3047 
L 1038 3047 
L 1038 5053 
z
M 3338 1609 
L 3338 1972 
L 5819 1972 
L 5819 1609 
Q 5500 844 4981 278 
Q 5516 -113 6306 -316 
Q 6144 -553 6025 -753 
Q 5219 -488 4666 -34 
Q 4128 -516 3413 -822 
Q 3306 -634 3125 -428 
Q 3834 -156 4347 266 
Q 3825 825 3603 1609 
L 3338 1609 
z
M 1475 3553 
L 4925 3553 
L 4925 3953 
L 1475 3953 
L 1475 3553 
z
M 4925 4691 
L 1475 4691 
L 1475 4291 
L 4925 4291 
L 4925 4691 
z
M 5344 1609 
L 4025 1609 
Q 4222 994 4659 556 
Q 5094 1013 5344 1609 
z
M 2600 269 
L 2600 691 
L 1206 691 
L 1206 88 
Q 1913 172 2600 269 
z
M 1206 1916 
L 2600 1916 
L 2600 2416 
L 1206 2416 
L 1206 1916 
z
M 1206 1053 
L 2600 1053 
L 2600 1553 
L 1206 1553 
L 1206 1053 
z
" transform="scale(0.015625)"/>
       <path id="MicrosoftYaHei-7ec8" d="M 2156 3234 
Q 2944 4253 3356 5366 
L 3825 5209 
Q 3700 4925 3563 4653 
L 5906 4653 
L 5906 4209 
Q 5425 3378 4663 2750 
Q 5381 2259 6350 2097 
Q 6219 1797 6131 1566 
Q 5038 1875 4278 2456 
Q 3447 1878 2331 1503 
Q 2231 1734 2113 1941 
Q 3156 2238 3931 2756 
Q 3434 3228 3119 3847 
Q 2816 3350 2469 2903 
Q 2350 3041 2156 3234 
z
M 888 1528 
Q 1413 1603 2113 1709 
Q 2075 1466 2056 1241 
Q 1344 1141 319 978 
L 219 1434 
Q 594 1828 1163 2794 
Q 506 2753 219 2728 
L 100 3153 
Q 663 3897 1288 5366 
L 1763 5178 
Q 1156 3991 656 3191 
Q 1047 3200 1403 3209 
Q 1638 3625 1900 4122 
L 2369 3916 
Q 1463 2347 888 1528 
z
M 2625 109 
L 2819 547 
Q 3969 234 5675 -297 
L 5444 -791 
Q 3850 -222 2625 109 
z
M 5356 4234 
L 3372 4234 
Q 3750 3513 4303 3028 
Q 4938 3541 5356 4234 
z
M 88 66 
Q 1069 259 2250 547 
Q 2231 203 2231 78 
Q 1375 -109 225 -416 
L 88 66 
z
M 3338 1247 
L 3525 1666 
Q 4469 1384 5413 1047 
L 5206 553 
Q 4275 953 3338 1247 
z
" transform="scale(0.015625)"/>
       <path id="MicrosoftYaHei-7efc" d="M 881 1578 
Q 1550 1684 2100 1778 
Q 2063 1534 2044 1303 
Q 988 1159 306 1022 
L 194 1484 
Q 678 1988 1188 2756 
Q 581 2719 250 2691 
L 131 3116 
Q 813 4022 1394 5347 
L 1869 5159 
Q 1288 4041 694 3153 
Q 1091 3163 1453 3172 
Q 1691 3566 1938 4016 
L 2400 3784 
Q 1588 2484 881 1578 
z
M 2406 2016 
L 6275 2016 
L 6275 1603 
L 4638 1603 
L 4638 3 
Q 4638 -747 3888 -747 
Q 3631 -747 3213 -741 
Q 3181 -553 3119 -259 
Q 3469 -297 3756 -297 
Q 4163 -297 4163 134 
L 4163 1603 
L 2406 1603 
L 2406 2016 
z
M 2513 4528 
L 4166 4528 
Q 3931 4878 3713 5147 
L 4125 5397 
Q 4431 5041 4650 4716 
L 4347 4528 
L 6194 4528 
L 6194 3522 
L 5731 3522 
L 5731 4116 
L 2975 4116 
L 2975 3522 
L 2513 3522 
L 2513 4528 
z
M 2781 3241 
L 5913 3241 
L 5913 2828 
L 2781 2828 
L 2781 3241 
z
M 113 84 
Q 944 197 2175 428 
Q 2138 91 2131 -34 
Q 1425 -147 225 -391 
L 113 84 
z
M 3044 1284 
L 3500 1091 
Q 3081 203 2688 -428 
Q 2469 -309 2238 -197 
Q 2681 466 3044 1284 
z
M 5081 1059 
L 5506 1278 
Q 5931 641 6344 -134 
L 5888 -384 
Q 5469 441 5081 1059 
z
" transform="scale(0.015625)"/>
       <path id="MicrosoftYaHei-5408" d="M 1025 1909 
L 5381 1909 
L 5381 -866 
L 4881 -866 
L 4881 -447 
L 1525 -447 
L 1525 -878 
L 1025 -878 
L 1025 1909 
z
M 3700 5234 
L 3550 5053 
Q 4594 3697 6319 3009 
Q 6125 2734 5988 2509 
Q 5481 2753 5025 3059 
L 5025 2703 
L 1369 2703 
L 1369 3016 
Q 913 2716 394 2428 
Q 269 2641 81 2897 
Q 2013 3866 3000 5234 
L 3700 5234 
z
M 4881 1453 
L 1525 1453 
L 1525 -3 
L 4881 -3 
L 4881 1453 
z
M 3219 4691 
Q 2581 3872 1550 3147 
L 4894 3147 
Q 3944 3797 3219 4691 
z
" transform="scale(0.015625)"/>
       <path id="MicrosoftYaHei-4efd" d="M 2269 2653 
L 5394 2653 
Q 5388 2566 5300 366 
Q 5275 -709 4319 -722 
Q 3806 -722 3425 -703 
Q 3394 -416 3331 -184 
Q 3763 -241 4200 -253 
Q 4806 -297 4813 422 
Q 4863 1259 4888 2216 
L 3481 2216 
Q 3463 1222 3181 572 
Q 2844 -172 2019 -822 
Q 1856 -622 1656 -416 
Q 2450 203 2713 772 
Q 2969 1275 2997 2216 
L 2269 2216 
L 2269 2653 
z
M 75 2353 
Q 969 3534 1525 5284 
L 2013 5116 
Q 1709 4284 1350 3559 
L 1350 -809 
L 875 -809 
L 875 2691 
Q 588 2216 275 1797 
Q 181 2066 75 2353 
z
M 4006 5116 
L 4419 5291 
Q 5038 3703 6325 2972 
Q 6088 2697 5969 2516 
Q 4575 3472 4006 5116 
z
M 1588 2741 
Q 2563 3597 3163 5034 
L 3606 4866 
Q 3025 3409 1963 2397 
Q 1738 2628 1588 2741 
z
" transform="scale(0.015625)"/>
       <path id="MicrosoftYaHei-989d" d="M 863 2484 
L 1094 2834 
Q 1463 2653 1794 2491 
Q 2119 2809 2344 3203 
L 1125 3203 
Q 794 2659 419 2247 
Q 281 2397 125 2547 
Q 719 3172 1100 4072 
L 1513 3934 
Q 1425 3747 1331 3578 
L 2844 3578 
L 2844 3222 
Q 2588 2703 2194 2291 
Q 2738 2016 3194 1778 
L 2938 1372 
Q 2406 1678 1850 1978 
Q 1381 1597 763 1322 
L 2756 1322 
L 2756 -684 
L 2344 -684 
L 2344 -416 
L 1063 -416 
L 1063 -734 
L 650 -734 
L 650 1272 
Q 463 1197 269 1128 
Q 188 1297 63 1509 
Q 869 1766 1444 2191 
Q 1156 2334 863 2484 
z
M 3369 3728 
L 4281 3728 
L 4425 4516 
L 3244 4516 
L 3244 4941 
L 6231 4941 
L 6231 4516 
L 4906 4516 
L 4738 3728 
L 6038 3728 
L 6038 591 
L 5600 591 
L 5600 3303 
L 3806 3303 
L 3806 591 
L 3369 591 
L 3369 3728 
z
M 4481 2916 
L 4931 2916 
Q 4944 1322 4788 709 
Q 5688 78 6356 -453 
L 6044 -853 
Q 5438 -303 4619 291 
Q 4231 -416 3169 -916 
Q 3044 -734 2869 -516 
Q 4019 -3 4294 716 
Q 4519 1216 4481 2916 
z
M 250 4591 
L 1538 4591 
Q 1413 4872 1244 5172 
L 1650 5347 
Q 1881 4916 2031 4591 
L 3138 4591 
L 3138 3709 
L 2713 3709 
L 2713 4216 
L 675 4216 
L 675 3709 
L 250 3709 
L 250 4591 
z
M 2344 934 
L 1063 934 
L 1063 -28 
L 2344 -28 
L 2344 934 
z
" transform="scale(0.015625)"/>
       <path id="DejaVuSans-Oblique-4c" d="M 1075 4666 
L 1709 4666 
L 909 525 
L 3181 525 
L 3078 0 
L 172 0 
L 1075 4666 
z
" transform="scale(0.015625)"/>
       <path id="DejaVuSans-Oblique-41" d="M 2356 4666 
L 3072 4666 
L 3938 0 
L 3278 0 
L 3084 1197 
L 984 1197 
L 325 0 
L -341 0 
L 2356 4666 
z
M 2584 4044 
L 1275 1722 
L 2988 1722 
L 2584 4044 
z
" transform="scale(0.015625)"/>
      </defs>
      <use xlink:href="#MicrosoftYaHei-5e73" transform="translate(0 0.671875)"/>
      <use xlink:href="#MicrosoftYaHei-53f0" transform="translate(100 0.671875)"/>
      <use xlink:href="#MicrosoftYaHei-20" transform="translate(200 0.671875)"/>
      <use xlink:href="#MicrosoftYaHei-41" transform="translate(229.589844 0.671875)"/>
      <use xlink:href="#MicrosoftYaHei-20" transform="translate(299.951172 0.671875)"/>
      <use xlink:href="#MicrosoftYaHei-6700" transform="translate(329.541016 0.671875)"/>
      <use xlink:href="#MicrosoftYaHei-7ec8" transform="translate(429.541016 0.671875)"/>
      <use xlink:href="#MicrosoftYaHei-7efc" transform="translate(529.541016 0.671875)"/>
      <use xlink:href="#MicrosoftYaHei-5408" transform="translate(629.541016 0.671875)"/>
      <use xlink:href="#MicrosoftYaHei-4efd" transform="translate(729.541016 0.671875)"/>
      <use xlink:href="#MicrosoftYaHei-989d" transform="translate(829.541016 0.671875)"/>
      <use xlink:href="#MicrosoftYaHei-20" transform="translate(929.541016 0.671875)"/>
      <use xlink:href="#MicrosoftYaHei-20" transform="translate(959.130859 0.671875)"/>
      <use xlink:href="#DejaVuSans-Oblique-4c" transform="translate(988.720703 0.671875)"/>
      <use xlink:href="#DejaVuSans-Oblique-41" transform="translate(1044.433594 -15.734375) scale(0.7)"/>
     </g>
    </g>
   </g>
   <g id="line2d_25">
    <path d="M 51.827953 174.173055 
L 641.778153 174.173055 
" clip-path="url(#p31cf710f32)" style="fill: none; stroke-dasharray: 4.6,4.6; stroke-dashoffset: 0; stroke: #687070; stroke-opacity: 0.7; stroke-width: 1.15"/>
   </g>
   <g id="line2d_26">
    <path d="M 51.827953 365.710614 
L 57.727455 365.826466 
L 63.626957 365.938712 
L 69.526459 366.04744 
L 75.425961 366.152731 
L 81.325463 366.254667 
L 87.224965 366.353323 
L 93.124467 366.448777 
L 99.023969 366.5411 
L 104.923471 366.630364 
L 110.822973 366.716636 
L 116.722475 366.799983 
L 122.621977 366.880468 
L 128.521479 366.958153 
L 134.420981 367.033098 
L 140.320483 367.10536 
L 146.219985 367.174994 
L 152.119487 367.242054 
L 158.018989 367.306592 
L 163.918491 367.368657 
L 169.817993 367.428297 
L 175.717495 367.485557 
L 181.616997 367.540483 
L 187.516499 367.593115 
L 193.416001 367.643495 
L 199.315503 367.691661 
L 205.215005 367.73765 
L 211.114507 367.781499 
L 217.014009 367.823241 
L 222.913511 367.862907 
L 228.813013 367.900529 
L 234.712515 367.936135 
L 240.612017 367.969754 
L 246.511519 368.001411 
L 252.411021 368.03113 
L 258.310523 368.058934 
L 264.210025 368.084846 
L 270.109527 368.108885 
L 276.009029 368.131069 
L 281.908531 368.151416 
L 287.808033 368.169941 
L 293.707535 368.186659 
L 299.607037 368.201582 
L 305.506539 368.214723 
L 311.406041 368.226092 
L 317.305543 368.235696 
L 323.205045 368.243544 
L 329.104547 368.249642 
L 335.004049 368.253994 
L 340.903551 368.256604 
L 346.803053 368.257474 
L 352.702555 368.256604 
L 358.602057 368.253994 
L 364.501559 368.249642 
L 370.401061 368.243544 
L 376.300563 368.235696 
L 382.200065 368.226092 
L 388.099567 368.214723 
L 393.999069 368.201582 
L 399.898571 368.186659 
L 405.798073 368.169941 
L 411.697575 368.151416 
L 417.597077 368.131069 
L 423.496579 368.108885 
L 429.396081 368.084846 
L 435.295583 368.058934 
L 441.195085 368.03113 
L 447.094587 368.001411 
L 452.994089 367.969754 
L 458.893591 367.936135 
L 464.793093 367.900529 
L 470.692595 367.862907 
L 476.592097 367.823241 
L 482.491599 367.781499 
L 488.391101 367.73765 
L 494.290603 367.691661 
L 500.190105 367.643495 
L 506.089607 367.593115 
L 511.989109 367.540483 
L 517.888611 367.485557 
L 523.788113 367.428297 
L 529.687615 367.368657 
L 535.587117 367.306592 
L 541.486619 367.242054 
L 547.386121 367.174994 
L 553.285623 367.10536 
L 559.185125 367.033098 
L 565.084627 366.958153 
L 570.984129 366.880468 
L 576.883631 366.799983 
L 582.783133 366.716636 
L 588.682635 366.630364 
L 594.582137 366.5411 
L 600.481639 366.448777 
L 606.381141 366.353323 
L 612.280643 366.254667 
L 618.180145 366.152731 
L 624.079647 366.04744 
L 629.979149 365.938712 
L 635.878651 365.826466 
L 641.778153 365.710614 
" clip-path="url(#p31cf710f32)" style="fill: none; stroke: #6e7885; stroke-width: 2.5; stroke-linecap: round"/>
   </g>
   <g id="line2d_27">
    <path d="M 51.827953 364.664758 
L 57.727455 364.818188 
L 63.626957 364.96663 
L 69.526459 365.110213 
L 75.425961 365.249062 
L 81.325463 365.383298 
L 87.224965 365.513038 
L 93.124467 365.638395 
L 99.023969 365.75948 
L 104.923471 365.876397 
L 110.822973 365.98925 
L 116.722475 366.098137 
L 122.621977 366.203153 
L 128.521479 366.304391 
L 134.420981 366.40194 
L 140.320483 366.495885 
L 146.219985 366.58631 
L 152.119487 366.673293 
L 158.018989 366.756911 
L 163.918491 366.837237 
L 169.817993 366.914344 
L 175.717495 366.988298 
L 181.616997 367.059165 
L 187.516499 367.127007 
L 193.416001 367.191885 
L 199.315503 367.253855 
L 205.215005 367.312972 
L 211.114507 367.369289 
L 217.014009 367.422855 
L 222.913511 367.473719 
L 228.813013 367.521924 
L 234.712515 367.567514 
L 240.612017 367.610528 
L 246.511519 367.651006 
L 252.411021 367.688982 
L 258.310523 367.724491 
L 264.210025 367.757564 
L 270.109527 367.788231 
L 276.009029 367.816518 
L 281.908531 367.84245 
L 287.808033 367.866051 
L 293.707535 367.887342 
L 299.607037 367.906341 
L 305.506539 367.923065 
L 311.406041 367.93753 
L 317.305543 367.949748 
L 323.205045 367.959729 
L 329.104547 367.967483 
L 335.004049 367.973017 
L 340.903551 367.976335 
L 346.803053 367.977441 
L 352.702555 367.976335 
L 358.602057 367.973017 
L 364.501559 367.967483 
L 370.401061 367.959729 
L 376.300563 367.949748 
L 382.200065 367.93753 
L 388.099567 367.923065 
L 393.999069 367.906341 
L 399.898571 367.887342 
L 405.798073 367.866051 
L 411.697575 367.84245 
L 417.597077 367.816518 
L 423.496579 367.788231 
L 429.396081 367.757564 
L 435.295583 367.724491 
L 441.195085 367.688982 
L 447.094587 367.651006 
L 452.994089 367.610528 
L 458.893591 367.567514 
L 464.793093 367.521924 
L 470.692595 367.473719 
L 476.592097 367.422855 
L 482.491599 367.369289 
L 488.391101 367.312972 
L 494.290603 367.253855 
L 500.190105 367.191885 
L 506.089607 367.127007 
L 511.989109 367.059165 
L 517.888611 366.988298 
L 523.788113 366.914344 
L 529.687615 366.837237 
L 535.587117 366.756911 
L 541.486619 366.673293 
L 547.386121 366.58631 
L 553.285623 366.495885 
L 559.185125 366.40194 
L 565.084627 366.304391 
L 570.984129 366.203153 
L 576.883631 366.098137 
L 582.783133 365.98925 
L 588.682635 365.876397 
L 594.582137 365.75948 
L 600.481639 365.638395 
L 606.381141 365.513038 
L 612.280643 365.383298 
L 618.180145 365.249062 
L 624.079647 365.110213 
L 629.979149 364.96663 
L 635.878651 364.818188 
L 641.778153 364.664758 
" clip-path="url(#p31cf710f32)" style="fill: none; stroke: #557c83; stroke-width: 2.5; stroke-linecap: round"/>
   </g>
   <g id="line2d_28">
    <path d="M 51.827953 43.462715 
L 57.727455 43.454526 
L 63.626957 43.446587 
L 69.526459 43.438945 
L 75.425961 43.431566 
L 81.325463 43.424442 
L 87.224965 43.417557 
L 93.124467 43.410927 
L 99.023969 43.404539 
L 104.923471 364.967321 
L 110.822973 365.113982 
L 116.722475 365.255299 
L 122.621977 365.391413 
L 128.521479 365.52246 
L 134.420981 365.648571 
L 140.320483 365.76987 
L 146.219985 365.886481 
L 152.119487 365.998519 
L 158.018989 366.106097 
L 163.918491 366.209322 
L 169.817993 366.308297 
L 175.717495 366.403122 
L 181.616997 366.493893 
L 187.516499 366.580699 
L 193.416001 366.663629 
L 199.315503 366.742765 
L 205.215005 366.818187 
L 211.114507 366.889972 
L 217.014009 366.95819 
L 222.913511 367.022912 
L 228.813013 367.084201 
L 234.712515 367.14212 
L 240.612017 367.196728 
L 246.511519 367.248078 
L 252.411021 367.296223 
L 258.310523 367.341212 
L 264.210025 367.383089 
L 270.109527 367.421898 
L 276.009029 367.457676 
L 281.908531 367.490461 
L 287.808033 367.520285 
L 293.707535 367.547179 
L 299.607037 367.57117 
L 305.506539 367.592281 
L 311.406041 367.610535 
L 317.305543 367.625949 
L 323.205045 367.638539 
L 329.104547 367.648319 
L 335.004049 367.655297 
L 340.903551 367.659481 
L 346.803053 367.660875 
L 352.702555 367.659481 
L 358.602057 367.655297 
L 364.501559 367.648319 
L 370.401061 367.638539 
L 376.300563 367.625949 
L 382.200065 367.610535 
L 388.099567 367.592281 
L 393.999069 367.57117 
L 399.898571 367.547179 
L 405.798073 367.520285 
L 411.697575 367.490461 
L 417.597077 367.457676 
L 423.496579 367.421898 
L 429.396081 367.383089 
L 435.295583 367.341212 
L 441.195085 367.296223 
L 447.094587 367.248078 
L 452.994089 367.196728 
L 458.893591 367.14212 
L 464.793093 367.084201 
L 470.692595 367.022912 
L 476.592097 366.95819 
L 482.491599 366.889972 
L 488.391101 366.818187 
L 494.290603 366.742765 
L 500.190105 366.663629 
L 506.089607 366.580699 
L 511.989109 366.493893 
L 517.888611 366.403122 
L 523.788113 366.308297 
L 529.687615 366.209322 
L 535.587117 366.106097 
L 541.486619 365.998519 
L 547.386121 365.886481 
L 553.285623 365.76987 
L 559.185125 365.648571 
L 565.084627 365.52246 
L 570.984129 365.391413 
L 576.883631 365.255299 
L 582.783133 365.113982 
L 588.682635 364.967321 
L 594.582137 43.404539 
L 600.481639 43.410927 
L 606.381141 43.417557 
L 612.280643 43.424442 
L 618.180145 43.431566 
L 624.079647 43.438945 
L 629.979149 43.446587 
L 635.878651 43.454526 
L 641.778153 43.462715 
" clip-path="url(#p31cf710f32)" style="fill: none; stroke: #2f9c5b; stroke-width: 2.5; stroke-linecap: round"/>
   </g>
   <g id="line2d_29">
    <path d="M 51.827953 43.460623 
L 57.727455 43.451853 
L 63.626957 43.443392 
L 69.526459 43.435235 
L 75.425961 43.427369 
L 81.325463 43.419795 
L 87.224965 43.4125 
L 93.124467 43.405476 
L 99.023969 43.398711 
L 104.923471 43.392197 
L 110.822973 43.385923 
L 116.722475 43.379896 
L 122.621977 43.374097 
L 128.521479 43.368531 
L 134.420981 43.363175 
L 140.320483 43.358026 
L 146.219985 43.353091 
L 152.119487 43.348353 
L 158.018989 43.34382 
L 163.918491 43.339462 
L 169.817993 43.335298 
L 175.717495 43.331307 
L 181.616997 43.327507 
L 187.516499 43.323858 
L 193.416001 43.320383 
L 199.315503 43.317083 
L 205.215005 43.313924 
L 211.114507 43.310924 
L 217.014009 43.308095 
L 222.913511 43.30539 
L 228.813013 43.302852 
L 234.712515 43.300433 
L 240.612017 43.298168 
L 246.511519 43.296025 
L 252.411021 43.294029 
L 258.310523 43.292166 
L 264.210025 43.29045 
L 270.109527 43.288832 
L 276.009029 367.04706 
L 281.908531 367.088227 
L 287.808033 367.125658 
L 293.707535 367.159397 
L 299.607037 367.189482 
L 305.506539 367.215947 
L 311.406041 367.238823 
L 317.305543 367.258135 
L 323.205045 367.273906 
L 329.104547 367.286154 
L 335.004049 367.294892 
L 340.903551 367.300131 
L 346.803053 367.301877 
L 352.702555 367.300131 
L 358.602057 367.294892 
L 364.501559 367.286154 
L 370.401061 367.273906 
L 376.300563 367.258135 
L 382.200065 367.238823 
L 388.099567 367.215947 
L 393.999069 367.189482 
L 399.898571 367.159397 
L 405.798073 367.125658 
L 411.697575 367.088227 
L 417.597077 367.04706 
L 423.496579 43.288832 
L 429.396081 43.29045 
L 435.295583 43.292166 
L 441.195085 43.294029 
L 447.094587 43.296025 
L 452.994089 43.298168 
L 458.893591 43.300433 
L 464.793093 43.302852 
L 470.692595 43.30539 
L 476.592097 43.308095 
L 482.491599 43.310924 
L 488.391101 43.313924 
L 494.290603 43.317083 
L 500.190105 43.320383 
L 506.089607 43.323858 
L 511.989109 43.327507 
L 517.888611 43.331307 
L 523.788113 43.335298 
L 529.687615 43.339462 
L 535.587117 43.34382 
L 541.486619 43.348353 
L 547.386121 43.353091 
L 553.285623 43.358026 
L 559.185125 43.363175 
L 565.084627 43.368531 
L 570.984129 43.374097 
L 576.883631 43.379896 
L 582.783133 43.385923 
L 588.682635 43.392197 
L 594.582137 43.398711 
L 600.481639 43.405476 
L 606.381141 43.4125 
L 612.280643 43.419795 
L 618.180145 43.427369 
L 624.079647 43.435235 
L 629.979149 43.443392 
L 635.878651 43.451853 
L 641.778153 43.460623 
" clip-path="url(#p31cf710f32)" style="fill: none; stroke: #e58f3a; stroke-width: 2.5; stroke-linecap: round"/>
   </g>
   <g id="line2d_30">
    <path d="M 51.827953 43.458912 
L 57.727455 43.44957 
L 63.626957 43.440578 
L 69.526459 43.431921 
L 75.425961 43.423594 
L 81.325463 43.415583 
L 87.224965 43.40788 
L 93.124467 43.400471 
L 99.023969 43.39335 
L 104.923471 43.386503 
L 110.822973 43.379928 
L 116.722475 43.373611 
L 122.621977 43.367541 
L 128.521479 43.361718 
L 134.420981 43.35613 
L 140.320483 43.350772 
L 146.219985 43.345635 
L 152.119487 43.34071 
L 158.018989 43.335998 
L 163.918491 43.331491 
L 169.817993 43.327178 
L 175.717495 43.323056 
L 181.616997 43.319122 
L 187.516499 43.31537 
L 193.416001 43.311795 
L 199.315503 43.308386 
L 205.215005 43.305145 
L 211.114507 43.302066 
L 217.014009 43.299147 
L 222.913511 43.296384 
L 228.813013 43.293775 
L 234.712515 43.291311 
L 240.612017 43.288992 
L 246.511519 43.286812 
L 252.411021 43.284774 
L 258.310523 43.282872 
L 264.210025 43.281105 
L 270.109527 43.279471 
L 276.009029 43.277966 
L 281.908531 43.276582 
L 287.808033 43.275328 
L 293.707535 43.274198 
L 299.607037 43.27319 
L 305.506539 43.272309 
L 311.406041 43.271546 
L 317.305543 43.270899 
L 323.205045 43.270371 
L 329.104547 43.269964 
L 335.004049 43.26967 
L 340.903551 43.269498 
L 346.803053 43.269439 
L 352.702555 43.269498 
L 358.602057 43.26967 
L 364.501559 43.269964 
L 370.401061 43.270371 
L 376.300563 43.270899 
L 382.200065 43.271546 
L 388.099567 43.272309 
L 393.999069 43.27319 
L 399.898571 43.274198 
L 405.798073 43.275328 
L 411.697575 43.276582 
L 417.597077 43.277966 
L 423.496579 43.279471 
L 429.396081 43.281105 
L 435.295583 43.282872 
L 441.195085 43.284774 
L 447.094587 43.286812 
L 452.994089 43.288992 
L 458.893591 43.291311 
L 464.793093 43.293775 
L 470.692595 43.296384 
L 476.592097 43.299147 
L 482.491599 43.302066 
L 488.391101 43.305145 
L 494.290603 43.308386 
L 500.190105 43.311795 
L 506.089607 43.31537 
L 511.989109 43.319122 
L 517.888611 43.323056 
L 523.788113 43.327178 
L 529.687615 43.331491 
L 535.587117 43.335998 
L 541.486619 43.34071 
L 547.386121 43.345635 
L 553.285623 43.350772 
L 559.185125 43.35613 
L 565.084627 43.361718 
L 570.984129 43.367541 
L 576.883631 43.373611 
L 582.783133 43.379928 
L 588.682635 43.386503 
L 594.582137 43.39335 
L 600.481639 43.400471 
L 606.381141 43.40788 
L 612.280643 43.415583 
L 618.180145 43.423594 
L 624.079647 43.431921 
L 629.979149 43.440578 
L 635.878651 43.44957 
L 641.778153 43.458912 
" clip-path="url(#p31cf710f32)" style="fill: none; stroke: #d95f59; stroke-width: 2.5; stroke-linecap: round"/>
   </g>
   <g id="patch_4">
    <path d="M 51.827953 370.663848 
L 51.827953 36.6295 
" style="fill: none; stroke: #a9a197; stroke-width: 0.8; stroke-linejoin: miter; stroke-linecap: square"/>
   </g>
   <g id="patch_5">
    <path d="M 51.827953 370.663848 
L 641.778153 370.663848 
" style="fill: none; stroke: #a9a197; stroke-width: 0.8; stroke-linejoin: miter; stroke-linecap: square"/>
   </g>
   <g id="text_15">
    <!-- 预算不足：分配比例影响有限 -->
    <g style="fill: #a94844" transform="translate(110.822973 344.465076) scale(0.105 -0.105)">
     <defs>
      <path id="MicrosoftYaHei-9884" d="M 531 3872 
L 844 4147 
Q 1069 3947 1275 3747 
L 1938 4553 
L 175 4553 
L 175 4991 
L 2513 4991 
L 2513 4553 
L 1588 3434 
Q 1694 3322 1794 3216 
L 1544 2997 
L 2681 2997 
L 2681 2578 
Q 2581 2097 2369 1466 
Q 2175 1534 1938 1609 
Q 2094 2003 2213 2559 
L 1588 2559 
L 1588 -72 
Q 1588 -784 888 -784 
L 225 -784 
Q 194 -559 138 -278 
Q 450 -316 769 -316 
Q 1119 -316 1119 84 
L 1119 2559 
L 113 2559 
L 113 2997 
L 1344 2997 
Q 938 3484 531 3872 
z
M 2969 3716 
L 4025 3716 
L 4181 4572 
L 2744 4572 
L 2744 5009 
L 6294 5009 
L 6294 4572 
L 4688 4572 
L 4506 3716 
L 6006 3716 
L 6006 641 
L 5550 641 
L 5550 3284 
L 3425 3284 
L 3425 641 
L 2969 641 
L 2969 3716 
z
M 4244 3028 
L 4706 3028 
L 4706 2097 
Q 4706 1366 4519 841 
Q 5500 184 6306 -441 
L 5963 -847 
Q 5200 -197 4325 428 
Q 4263 334 4200 247 
Q 3694 -397 2613 -897 
Q 2413 -641 2263 -484 
Q 3381 -22 3831 572 
Q 4244 1109 4244 2128 
L 4244 3028 
z
" transform="scale(0.015625)"/>
      <path id="MicrosoftYaHei-7b97" d="M 969 3728 
L 2006 3728 
Q 1775 4016 1544 4266 
L 1769 4428 
L 1244 4428 
Q 875 3963 400 3566 
Q 263 3722 88 3884 
Q 856 4484 1300 5347 
L 1831 5347 
Q 1684 5059 1506 4791 
L 3325 4791 
L 3325 4428 
L 1919 4428 
Q 2144 4200 2369 3953 
L 2072 3728 
L 4953 3728 
Q 4716 4003 4425 4266 
L 4641 4428 
L 4019 4428 
Q 3772 4050 3506 3753 
Q 3344 3897 3125 4047 
Q 3656 4603 4000 5347 
L 4538 5347 
Q 4394 5053 4244 4791 
L 6225 4791 
L 6225 4428 
L 4800 4428 
Q 5069 4206 5294 3972 
L 4991 3728 
L 5475 3728 
L 5475 916 
L 5038 916 
L 5038 1122 
L 1406 1122 
L 1406 916 
L 969 916 
L 969 3728 
z
M 150 609 
L 1850 609 
Q 1875 788 1875 1003 
L 2331 1003 
Q 2331 794 2309 609 
L 4356 609 
L 4356 997 
L 4819 997 
L 4819 609 
L 6300 609 
L 6300 222 
L 4819 222 
L 4819 -828 
L 4356 -828 
L 4356 222 
L 2244 222 
Q 2019 -619 763 -884 
Q 644 -691 488 -472 
Q 1525 -297 1756 222 
L 150 222 
L 150 609 
z
M 5038 3378 
L 1406 3378 
L 1406 2959 
L 5038 2959 
L 5038 3378 
z
M 1406 1472 
L 5038 1472 
L 5038 1891 
L 1406 1891 
L 1406 1472 
z
M 1406 2216 
L 5038 2216 
L 5038 2634 
L 1406 2634 
L 1406 2216 
z
" transform="scale(0.015625)"/>
      <path id="MicrosoftYaHei-4e0d" d="M 225 4772 
L 6181 4772 
L 6181 4284 
L 3881 4284 
Q 3581 3766 3081 3053 
L 3444 3053 
L 3444 -866 
L 2906 -866 
L 2906 2859 
Q 1838 1541 388 609 
Q 231 834 38 1059 
Q 2006 2291 3213 4284 
L 225 4284 
L 225 4772 
z
M 4069 2859 
Q 5238 2147 6325 1409 
L 5969 916 
Q 4681 1872 3763 2434 
L 4069 2859 
z
" transform="scale(0.015625)"/>
      <path id="MicrosoftYaHei-8db3" d="M 31 -384 
Q 1081 503 1238 2241 
L 1769 2159 
Q 1694 1559 1531 1041 
Q 2041 63 3050 -100 
L 3050 2822 
L 1400 2822 
L 1400 2553 
L 894 2553 
L 894 5059 
L 5538 5059 
L 5538 2553 
L 5031 2553 
L 5031 2822 
L 3569 2822 
L 3569 1641 
L 5913 1641 
L 5913 1184 
L 3569 1184 
L 3569 -138 
Q 4763 -169 6325 -109 
Q 6225 -359 6144 -628 
Q 4538 -641 3438 -616 
Q 1984 -597 1331 503 
Q 975 -306 363 -872 
Q 219 -628 31 -384 
z
M 5031 4603 
L 1400 4603 
L 1400 3278 
L 5031 3278 
L 5031 4603 
z
" transform="scale(0.015625)"/>
      <path id="MicrosoftYaHei-ff1a" d="M 1606 3531 
Q 1772 3531 1890 3415 
Q 2009 3300 2009 3138 
Q 2009 2975 1893 2858 
Q 1778 2741 1606 2741 
Q 1434 2741 1318 2858 
Q 1203 2975 1203 3138 
Q 1203 3300 1322 3415 
Q 1441 3531 1606 3531 
z
M 1606 716 
Q 1772 716 1890 600 
Q 2009 484 2009 319 
Q 2009 150 1890 36 
Q 1772 -78 1606 -78 
Q 1441 -78 1322 36 
Q 1203 150 1203 319 
Q 1203 484 1322 600 
Q 1441 716 1606 716 
z
" transform="scale(0.015625)"/>
      <path id="MicrosoftYaHei-5206" d="M 900 2559 
L 5056 2559 
Q 5025 1497 4963 484 
Q 4888 -684 3856 -678 
Q 3350 -684 2788 -647 
Q 2750 -384 2700 -116 
Q 3181 -184 3775 -191 
Q 4400 -203 4463 541 
Q 4513 1216 4538 2097 
L 2616 2097 
Q 2541 1053 2181 416 
Q 1706 -422 588 -878 
Q 425 -666 231 -459 
Q 1269 -72 1725 666 
Q 2053 1225 2103 2097 
L 900 2097 
L 900 2559 
z
M 3488 5159 
L 3938 5353 
Q 4625 3678 6350 2847 
Q 6069 2553 5944 2372 
Q 4225 3366 3488 5159 
z
M 50 2766 
Q 1338 3678 2250 5253 
L 2694 5009 
Q 1744 3347 413 2341 
Q 281 2534 50 2766 
z
" transform="scale(0.015625)"/>
      <path id="MicrosoftYaHei-914d" d="M 388 3697 
L 1244 3697 
L 1244 4516 
L 194 4516 
L 194 4928 
L 3506 4928 
L 3506 4516 
L 2469 4516 
L 2469 3697 
L 3375 3697 
L 3375 -766 
L 2956 -766 
L 2956 -366 
L 806 -366 
L 806 -772 
L 388 -772 
L 388 3697 
z
M 3831 2916 
L 5488 2916 
L 5488 4541 
L 3725 4541 
L 3725 4978 
L 5938 4978 
L 5938 2234 
L 5488 2234 
L 5488 2478 
L 4281 2478 
L 4281 316 
Q 4281 -178 4706 -178 
L 5300 -178 
Q 5669 -178 5719 191 
Q 5800 609 5831 1203 
Q 6006 1116 6300 997 
Q 6256 491 6169 34 
Q 6063 -628 5381 -628 
L 4575 -628 
Q 3831 -628 3831 253 
L 3831 2916 
z
M 2069 2291 
L 2069 3297 
L 1644 3297 
L 1644 3047 
Q 1644 2047 1125 1391 
Q 975 1538 806 1697 
L 806 1178 
L 2956 1178 
L 2956 1778 
L 2513 1778 
Q 2069 1778 2069 2291 
z
M 806 34 
L 2956 34 
L 2956 784 
L 806 784 
L 806 34 
z
M 2956 3297 
L 2469 3297 
L 2469 2428 
Q 2456 2147 2700 2166 
L 2956 2166 
L 2956 3297 
z
M 806 1738 
Q 1244 2234 1244 3078 
L 1244 3297 
L 806 3297 
L 806 1738 
z
M 1644 3697 
L 2069 3697 
L 2069 4516 
L 1644 4516 
L 1644 3697 
z
" transform="scale(0.015625)"/>
      <path id="MicrosoftYaHei-5f71" d="M 119 2734 
L 1803 2734 
Q 1713 2903 1613 3053 
L 1897 3191 
L 875 3191 
L 875 3028 
L 450 3028 
L 450 5041 
L 3563 5041 
L 3563 3028 
L 3138 3028 
L 3138 3191 
L 2047 3191 
Q 2188 2972 2303 2734 
L 3969 2734 
L 3969 2372 
L 119 2372 
L 119 2734 
z
M 550 2016 
L 3475 2016 
L 3475 703 
L 3050 703 
L 3050 797 
L 2275 797 
L 2275 -72 
Q 2275 -791 1625 -791 
Q 1406 -791 1050 -784 
Q 1025 -559 969 -341 
Q 1288 -384 1513 -384 
Q 1844 -384 1844 -22 
L 1844 797 
L 975 797 
L 975 703 
L 550 703 
L 550 2016 
z
M 3600 -497 
Q 5038 378 5913 1734 
L 6300 1447 
Q 5319 -9 3931 -866 
Q 3763 -634 3600 -497 
z
M 3825 1784 
Q 4913 2522 5756 3634 
L 6144 3328 
Q 5200 2178 4150 1409 
Q 3981 1628 3825 1784 
z
M 3756 3616 
Q 4681 4203 5469 5222 
L 5856 4934 
Q 5075 3928 4088 3259 
Q 3906 3478 3756 3616 
z
M 3050 1678 
L 975 1678 
L 975 1134 
L 3050 1134 
L 3050 1678 
z
M 3138 4691 
L 875 4691 
L 875 4278 
L 3138 4278 
L 3138 4691 
z
M 875 3541 
L 3138 3541 
L 3138 3953 
L 875 3953 
L 875 3541 
z
M 81 -347 
Q 525 22 1019 609 
L 1381 359 
Q 838 -278 400 -634 
L 81 -347 
z
M 2575 372 
L 2869 641 
Q 3225 359 3675 -47 
L 3350 -366 
Q 3019 3 2575 372 
z
" transform="scale(0.015625)"/>
      <path id="MicrosoftYaHei-54cd" d="M 2425 4441 
L 3525 4441 
Q 3700 4884 3838 5316 
L 4344 5197 
Q 4181 4803 4019 4441 
L 5875 4441 
L 5875 -59 
Q 5875 -766 5225 -772 
Q 4900 -778 4444 -772 
Q 4413 -547 4356 -284 
Q 4781 -322 5100 -322 
Q 5438 -322 5438 72 
L 5438 4016 
L 2863 4016 
L 2863 -859 
L 2425 -859 
L 2425 4441 
z
M 413 4484 
L 1925 4484 
L 1925 166 
L 1488 166 
L 1488 641 
L 850 641 
L 850 72 
L 413 72 
L 413 4484 
z
M 3325 3191 
L 4975 3191 
L 4975 741 
L 3750 741 
L 3750 466 
L 3325 466 
L 3325 3191 
z
M 1488 4053 
L 850 4053 
L 850 1072 
L 1488 1072 
L 1488 4053 
z
M 4550 2803 
L 3750 2803 
L 3750 1128 
L 4550 1128 
L 4550 2803 
z
" transform="scale(0.015625)"/>
      <path id="MicrosoftYaHei-6709" d="M 1856 -816 
L 1363 -816 
L 1363 2419 
Q 909 1891 363 1403 
Q 231 1622 63 1859 
Q 1269 2869 1947 4097 
L 238 4097 
L 238 4559 
L 2181 4559 
Q 2359 4950 2488 5359 
L 3006 5241 
Q 2881 4894 2731 4559 
L 6263 4559 
L 6263 4097 
L 2506 4097 
Q 2313 3728 2081 3378 
L 5506 3378 
L 5506 41 
Q 5506 -734 4750 -734 
Q 4419 -741 3744 -741 
Q 3713 -528 3650 -228 
Q 4225 -272 4575 -272 
Q 5006 -272 5006 153 
L 5006 597 
L 1856 597 
L 1856 -816 
z
M 1856 1022 
L 5006 1022 
L 5006 1772 
L 1856 1772 
L 1856 1022 
z
M 5006 2941 
L 1856 2941 
L 1856 2197 
L 5006 2197 
L 5006 2941 
z
" transform="scale(0.015625)"/>
      <path id="MicrosoftYaHei-9650" d="M 2675 4984 
L 5638 4984 
L 5638 1872 
L 5175 1872 
L 5175 2041 
L 4119 2041 
Q 4313 1478 4650 1028 
Q 5213 1384 5838 1909 
L 6169 1516 
Q 5481 1034 4944 691 
Q 5488 141 6313 -191 
Q 6081 -416 5913 -647 
Q 4175 266 3675 2041 
L 3138 2041 
L 3138 -84 
Q 3556 103 4231 466 
Q 4238 178 4263 -28 
Q 3706 -297 3181 -609 
Q 3056 -678 2844 -872 
L 2488 -403 
Q 2675 -241 2675 9 
L 2675 4984 
z
M 2275 1603 
Q 2456 409 1681 266 
Q 1400 209 1050 253 
Q 1000 509 913 778 
Q 1244 697 1488 728 
Q 1913 809 1775 1622 
Q 1688 2122 1206 2747 
Q 1431 3428 1794 4566 
L 869 4566 
L 869 -891 
L 400 -891 
L 400 5003 
L 2294 5003 
L 2294 4566 
Q 1988 3684 1706 2828 
Q 2206 2147 2275 1603 
z
M 5175 2466 
L 5175 3309 
L 3138 3309 
L 3138 2466 
L 5175 2466 
z
M 5175 4559 
L 3138 4559 
L 3138 3728 
L 5175 3728 
L 5175 4559 
z
" transform="scale(0.015625)"/>
     </defs>
     <use xlink:href="#MicrosoftYaHei-9884"/>
     <use xlink:href="#MicrosoftYaHei-7b97" x="100"/>
     <use xlink:href="#MicrosoftYaHei-4e0d" x="200"/>
     <use xlink:href="#MicrosoftYaHei-8db3" x="300"/>
     <use xlink:href="#MicrosoftYaHei-ff1a" x="400"/>
     <use xlink:href="#MicrosoftYaHei-5206" x="500"/>
     <use xlink:href="#MicrosoftYaHei-914d" x="600"/>
     <use xlink:href="#MicrosoftYaHei-6bd4" x="700"/>
     <use xlink:href="#MicrosoftYaHei-4f8b" x="800"/>
     <use xlink:href="#MicrosoftYaHei-5f71" x="900"/>
     <use xlink:href="#MicrosoftYaHei-54cd" x="1000"/>
     <use xlink:href="#MicrosoftYaHei-6709" x="1100"/>
     <use xlink:href="#MicrosoftYaHei-9650" x="1200"/>
    </g>
   </g>
   <g id="text_16">
    <!-- 临界预算附近 -->
    <g style="fill: #247b46" transform="translate(361.599069 82.532025) scale(0.108 -0.108)">
     <defs>
      <path id="MicrosoftYaHei-4e34" d="M 2681 2472 
L 6006 2472 
L 6006 -784 
L 5525 -784 
L 5525 -378 
L 3163 -378 
L 3163 -784 
L 2681 -784 
L 2681 2472 
z
M 1519 5278 
L 2013 5278 
L 2013 -816 
L 1519 -816 
L 1519 5278 
z
M 2181 3091 
Q 2988 4166 3444 5353 
L 3913 5197 
Q 3750 4803 3572 4434 
L 6275 4434 
L 6275 3972 
L 3334 3972 
Q 2975 3306 2556 2734 
Q 2438 2872 2181 3091 
z
M 400 4684 
L 894 4684 
L 894 -228 
L 400 -228 
L 400 4684 
z
M 5525 2022 
L 4581 2022 
L 4581 59 
L 5525 59 
L 5525 2022 
z
M 3163 59 
L 4100 59 
L 4100 2022 
L 3163 2022 
L 3163 59 
z
M 4056 3847 
Q 4588 3434 5063 2984 
L 4700 2609 
Q 4181 3166 3731 3528 
L 4056 3847 
z
" transform="scale(0.015625)"/>
      <path id="MicrosoftYaHei-754c" d="M 5656 5028 
L 5656 2041 
L 5181 2041 
L 5181 2266 
L 3913 2266 
Q 4772 1494 6319 1147 
Q 6113 866 5988 666 
Q 5213 916 4588 1281 
L 4588 -797 
L 4088 -797 
L 4088 1391 
L 4409 1391 
Q 3813 1769 3356 2266 
L 3113 2266 
Q 2619 1809 1994 1416 
L 2350 1416 
Q 2350 472 2044 22 
Q 1750 -447 888 -859 
Q 744 -666 525 -453 
Q 1331 -97 1606 284 
Q 1841 591 1856 1328 
Q 1206 934 425 603 
Q 306 778 94 1009 
Q 1588 1553 2466 2266 
L 1225 2266 
L 1225 2041 
L 750 2041 
L 750 5028 
L 5656 5028 
z
M 3438 2678 
L 5181 2678 
L 5181 3441 
L 3438 3441 
L 3438 2678 
z
M 5181 4616 
L 3438 4616 
L 3438 3853 
L 5181 3853 
L 5181 4616 
z
M 1225 3853 
L 2963 3853 
L 2963 4616 
L 1225 4616 
L 1225 3853 
z
M 1225 2678 
L 2963 2678 
L 2963 3441 
L 1225 3441 
L 1225 2678 
z
" transform="scale(0.015625)"/>
      <path id="MicrosoftYaHei-9644" d="M 2225 1622 
Q 2400 453 1613 297 
Q 1350 253 1006 291 
Q 956 547 869 775 
L 869 -841 
L 400 -841 
L 400 5022 
L 2231 5022 
L 2231 4584 
Q 2000 3803 1669 2866 
Q 2150 2178 2225 1622 
z
M 3475 3947 
L 5056 3947 
L 5056 5284 
L 5544 5284 
L 5544 3947 
L 6325 3947 
L 6325 3478 
L 5544 3478 
L 5544 122 
Q 5544 -709 4650 -709 
Q 4281 -709 3900 -697 
Q 3869 -466 3800 -159 
Q 4269 -216 4588 -216 
Q 5056 -216 5056 216 
L 5056 3478 
L 3475 3478 
L 3475 3947 
z
M 2044 2772 
Q 2725 3809 3150 5291 
L 3638 5184 
Q 3459 4606 3244 4088 
L 3244 -828 
L 2769 -828 
L 2769 3081 
Q 2550 2678 2306 2322 
Q 2194 2566 2044 2772 
z
M 1444 747 
Q 1869 828 1731 1641 
Q 1644 2147 1169 2766 
Q 1438 3553 1719 4584 
L 869 4584 
L 869 797 
Q 1200 716 1444 747 
z
M 3581 2747 
L 3975 2934 
Q 4350 2266 4656 1516 
L 4194 1309 
Q 3900 2072 3581 2747 
z
" transform="scale(0.015625)"/>
      <path id="MicrosoftYaHei-8fd1" d="M 3088 4272 
L 3088 3166 
L 6244 3166 
L 6244 2703 
L 4994 2703 
L 4994 84 
L 4500 84 
L 4500 2703 
L 3084 2703 
Q 3038 1038 2225 91 
Q 2044 247 1819 422 
Q 2606 1334 2606 2916 
L 2606 4709 
Q 4131 4809 5863 5097 
L 5975 4634 
Q 4388 4391 3088 4272 
z
M 2700 -147 
L 4531 -178 
L 6313 -116 
Q 6206 -366 6113 -609 
L 4375 -622 
L 2650 -597 
Q 1594 -578 1100 116 
Q 925 -22 375 -672 
L 113 -147 
Q 597 297 881 538 
L 881 2684 
L 156 2684 
L 156 3134 
L 1363 3134 
L 1363 422 
Q 1813 -119 2700 -147 
z
M 794 5278 
Q 1238 4753 1738 4097 
L 1300 3778 
Q 763 4572 413 5003 
L 794 5278 
z
" transform="scale(0.015625)"/>
     </defs>
     <use xlink:href="#MicrosoftYaHei-4e34"/>
     <use xlink:href="#MicrosoftYaHei-754c" x="100"/>
     <use xlink:href="#MicrosoftYaHei-9884" x="200"/>
     <use xlink:href="#MicrosoftYaHei-7b97" x="300"/>
     <use xlink:href="#MicrosoftYaHei-9644" x="400"/>
     <use xlink:href="#MicrosoftYaHei-8fd1" x="500"/>
    </g>
    <!-- 比例选择变得关键 -->
    <g style="fill: #247b46" transform="translate(350.799069 95.576738) scale(0.108 -0.108)">
     <defs>
      <path id="MicrosoftYaHei-9009" d="M 1756 2753 
L 3825 2753 
L 3825 3797 
L 2772 3797 
Q 2584 3322 2381 2947 
Q 2219 3053 1944 3172 
Q 2431 4028 2669 5072 
L 3156 4966 
Q 3047 4575 2928 4228 
L 3825 4228 
L 3825 5316 
L 4313 5316 
L 4313 4228 
L 5944 4228 
L 5944 3797 
L 4313 3797 
L 4313 2753 
L 6244 2753 
L 6244 2322 
L 4769 2322 
L 4769 984 
Q 4769 653 5044 653 
L 5344 653 
Q 5631 653 5675 953 
Q 5713 1197 5744 1691 
Q 5938 1603 6219 1509 
Q 6169 1078 6113 784 
Q 6013 228 5400 228 
L 4938 228 
Q 4288 228 4288 934 
L 4288 2322 
L 3447 2322 
Q 3444 2038 3431 1816 
Q 3394 647 2119 84 
Q 1994 266 1806 503 
Q 2906 959 2950 1816 
Q 2963 2003 2972 2322 
L 1756 2322 
L 1756 2753 
z
M 2694 -197 
L 4000 -209 
L 6300 -166 
Q 6231 -372 6125 -659 
L 3947 -684 
L 2638 -666 
Q 1513 -628 1081 91 
Q 825 -147 331 -747 
L 75 -228 
Q 628 306 875 538 
L 875 2641 
L 131 2641 
L 131 3103 
L 1356 3103 
L 1356 431 
Q 1741 -184 2694 -197 
z
M 856 5203 
Q 1175 4816 1731 4022 
L 1288 3709 
Q 781 4503 456 4934 
L 856 5203 
z
" transform="scale(0.015625)"/>
      <path id="MicrosoftYaHei-62e9" d="M 2325 4578 
L 2325 5009 
L 5894 5009 
L 5894 4591 
Q 5491 3856 4675 3309 
Q 5366 3025 6319 2903 
Q 6163 2622 6056 2409 
Q 4963 2622 4200 3028 
Q 3409 2613 2325 2334 
Q 2250 2553 2113 2797 
Q 3047 3013 3734 3316 
Q 3013 3831 2688 4578 
L 2325 4578 
z
M 2006 728 
L 3950 728 
L 3950 1453 
L 2388 1453 
L 2388 1903 
L 3950 1903 
L 3950 2616 
L 4425 2616 
L 4425 1903 
L 6025 1903 
L 6025 1453 
L 4425 1453 
L 4425 728 
L 6319 728 
L 6319 278 
L 4425 278 
L 4425 -791 
L 3950 -791 
L 3950 278 
L 2006 278 
L 2006 728 
z
M 88 1953 
Q 544 2056 969 2159 
L 969 3647 
L 144 3647 
L 144 4084 
L 969 4084 
L 969 5303 
L 1438 5303 
L 1438 4084 
L 2238 4084 
L 2238 3647 
L 1438 3647 
L 1438 2278 
Q 1778 2366 2094 2453 
Q 2106 2178 2138 1991 
Q 1772 1894 1438 1800 
L 1438 -66 
Q 1438 -759 806 -759 
Q 656 -759 219 -747 
Q 194 -491 138 -241 
Q 494 -291 694 -291 
Q 969 -291 969 41 
L 969 1672 
Q 531 1550 150 1441 
L 88 1953 
z
M 5338 4578 
L 3159 4578 
Q 3497 3950 4197 3544 
Q 4981 3984 5338 4578 
z
" transform="scale(0.015625)"/>
      <path id="MicrosoftYaHei-53d8" d="M 838 1634 
L 838 2066 
L 5088 2066 
L 5088 1634 
Q 4494 853 3659 309 
Q 4675 -178 6313 -297 
Q 6088 -609 5950 -822 
Q 4275 -594 3178 34 
Q 2122 -509 425 -866 
Q 269 -622 106 -403 
Q 1741 -122 2728 328 
Q 2047 838 1553 1634 
L 838 1634 
z
M 231 4534 
L 3081 4534 
Q 2888 4884 2725 5141 
L 3175 5359 
Q 3481 4884 3600 4659 
L 3359 4534 
L 6200 4534 
L 6200 4091 
L 4181 4091 
L 4181 2353 
L 3700 2353 
L 3700 4091 
L 2694 4091 
L 2694 2341 
L 2213 2341 
L 2213 4091 
L 231 4091 
L 231 4534 
z
M 4475 1634 
L 2116 1634 
Q 2575 953 3197 572 
Q 3947 1016 4475 1634 
z
M 4556 3434 
L 4900 3728 
Q 5700 3009 6213 2459 
L 5825 2116 
Q 5219 2797 4556 3434 
z
M 1381 3741 
L 1756 3422 
Q 1119 2691 500 2097 
Q 344 2272 138 2447 
Q 794 3009 1381 3741 
z
" transform="scale(0.015625)"/>
      <path id="MicrosoftYaHei-5f97" d="M 2531 5034 
L 5725 5034 
L 5725 2547 
L 5275 2547 
L 5275 2759 
L 2981 2759 
L 2981 2547 
L 2531 2547 
L 2531 5034 
z
M 1925 1322 
L 4925 1322 
L 4925 1834 
L 2188 1834 
L 2188 2247 
L 6163 2247 
L 6163 1834 
L 5400 1834 
L 5400 1322 
L 6313 1322 
L 6313 909 
L 5400 909 
L 5400 3 
Q 5400 -741 4650 -741 
Q 4313 -741 3719 -734 
Q 3688 -528 3625 -228 
Q 4038 -272 4538 -272 
Q 4925 -272 4925 122 
L 4925 909 
L 1925 909 
L 1925 1322 
z
M 81 1634 
Q 869 2378 1594 3684 
L 2031 3459 
Q 1750 2984 1469 2572 
L 1469 -834 
L 1000 -834 
L 1000 1928 
Q 653 1491 300 1134 
Q 206 1378 81 1634 
z
M 2981 3153 
L 5275 3153 
L 5275 3709 
L 2981 3709 
L 2981 3153 
z
M 5275 4641 
L 2981 4641 
L 2981 4091 
L 5275 4091 
L 5275 4641 
z
M 106 3578 
Q 988 4278 1594 5334 
L 2038 5078 
Q 1269 3928 363 3134 
Q 250 3353 106 3578 
z
M 2525 622 
L 2881 891 
Q 3244 509 3563 122 
L 3175 -159 
Q 2875 228 2525 622 
z
" transform="scale(0.015625)"/>
      <path id="MicrosoftYaHei-5173" d="M 131 -397 
Q 2372 400 2803 1897 
L 256 1897 
L 256 2372 
L 2894 2372 
Q 2906 2506 2906 3566 
L 625 3566 
L 625 4041 
L 2125 4041 
Q 1588 4631 1206 4991 
L 1569 5316 
Q 2106 4834 2550 4397 
L 2150 4041 
L 3641 4041 
Q 4125 4725 4494 5322 
L 5013 5034 
Q 4581 4484 4219 4041 
L 5800 4041 
L 5800 3566 
L 3438 3566 
Q 3438 2647 3428 2372 
L 6169 2372 
L 6169 1897 
L 3516 1897 
Q 4250 325 6281 -259 
Q 6025 -522 5819 -766 
Q 3894 -16 3203 1491 
Q 2694 28 494 -847 
Q 331 -634 131 -397 
z
" transform="scale(0.015625)"/>
      <path id="MicrosoftYaHei-952e" d="M 3450 4347 
L 3450 4709 
L 4313 4709 
L 4313 5322 
L 4738 5322 
L 4738 4709 
L 5831 4709 
L 5831 3822 
L 6244 3822 
L 6244 3459 
L 5831 3459 
L 5831 2416 
L 5419 2416 
L 5419 2566 
L 4738 2566 
L 4738 2009 
L 5844 2009 
L 5844 1647 
L 4738 1647 
L 4738 1078 
L 5913 1078 
L 5913 716 
L 4738 716 
L 4738 3 
L 4313 3 
L 4313 716 
L 3225 716 
L 3225 1078 
L 4313 1078 
L 4313 1647 
L 3350 1647 
L 3350 2009 
L 4313 2009 
L 4313 2566 
L 3456 2566 
L 3456 2928 
L 4313 2928 
L 4313 3459 
L 3156 3459 
L 3156 3822 
L 4313 3822 
L 4313 4347 
L 3450 4347 
z
M 2200 1809 
Q 2350 1353 2544 1006 
Q 2741 1628 2763 2403 
L 1981 2403 
L 1981 2828 
L 2750 4309 
L 2025 4309 
L 2025 4697 
L 3206 4697 
L 3206 4297 
L 2425 2791 
L 3169 2791 
L 3169 2434 
Q 3141 1397 2825 581 
Q 3391 -122 4244 -172 
Q 5013 -228 6319 -153 
Q 6231 -353 6131 -609 
Q 5063 -653 4294 -597 
Q 3294 -584 2634 156 
Q 2344 -406 1894 -847 
Q 1806 -703 1588 -478 
Q 2069 -59 2353 528 
Q 2053 994 1844 1653 
L 2200 1809 
z
M 125 2197 
L 794 2197 
L 794 2891 
L 469 2891 
L 469 3203 
Q 403 3081 331 2966 
Q 169 3178 38 3341 
Q 569 4234 819 5341 
L 1256 5234 
Q 1141 4794 1000 4391 
L 1888 4391 
L 1888 3978 
L 841 3978 
Q 694 3622 522 3303 
L 1794 3303 
L 1794 2891 
L 1219 2891 
L 1219 2197 
L 1981 2197 
L 1981 1784 
L 1219 1784 
L 1219 409 
Q 1450 591 1781 897 
Q 1819 666 1881 409 
Q 1575 166 1231 -109 
Q 1056 -247 888 -428 
L 575 -22 
Q 794 184 794 509 
L 794 1784 
L 125 1784 
L 125 2197 
z
M 4738 2928 
L 5419 2928 
L 5419 3459 
L 4738 3459 
L 4738 2928 
z
M 5419 4347 
L 4738 4347 
L 4738 3822 
L 5419 3822 
L 5419 4347 
z
" transform="scale(0.015625)"/>
     </defs>
     <use xlink:href="#MicrosoftYaHei-6bd4"/>
     <use xlink:href="#MicrosoftYaHei-4f8b" x="100"/>
     <use xlink:href="#MicrosoftYaHei-9009" x="200"/>
     <use xlink:href="#MicrosoftYaHei-62e9" x="300"/>
     <use xlink:href="#MicrosoftYaHei-53d8" x="400"/>
     <use xlink:href="#MicrosoftYaHei-5f97" x="500"/>
     <use xlink:href="#MicrosoftYaHei-5173" x="600"/>
     <use xlink:href="#MicrosoftYaHei-952e" x="700"/>
    </g>
   </g>
   <g id="text_17">
    <!-- 实验 8：临界预算附近的双边补贴分配 -->
    <g transform="translate(204.72099 20.6295) scale(0.168 -0.168)">
     <defs>
      <path id="MicrosoftYaHei-Bold-5b9e" d="M 4219 3716 
Q 4181 2422 4056 1653 
L 6238 1653 
L 6238 878 
L 3863 878 
Q 3850 841 3813 766 
Q 5019 372 6206 -66 
L 5881 -847 
Q 4619 -316 3369 153 
Q 2550 -616 863 -916 
Q 556 -384 331 -78 
Q 2338 209 2894 878 
L 169 878 
L 169 1653 
L 2144 1653 
Q 1481 2053 931 2328 
L 1319 2934 
Q 1894 2659 2638 2247 
L 2244 1653 
L 3175 1653 
Q 3331 2453 3350 3716 
L 4219 3716 
z
M 300 3078 
L 300 4703 
L 2819 4703 
Q 2700 5009 2606 5228 
L 3675 5341 
Q 3769 5084 3888 4703 
L 6094 4703 
L 6094 3078 
L 5225 3078 
L 5225 3953 
L 1169 3953 
L 1169 3078 
L 300 3078 
z
M 1813 3772 
Q 2469 3484 3163 3134 
L 2769 2497 
Q 2031 2909 1450 3184 
L 1813 3772 
z
" transform="scale(0.015625)"/>
      <path id="MicrosoftYaHei-Bold-9a8c" d="M 1138 4053 
L 969 2491 
L 1419 2491 
L 1563 4241 
L 200 4241 
L 200 4991 
L 2369 4991 
L 2163 2491 
L 2525 2491 
Q 2463 691 2413 203 
Q 2369 -553 1838 -672 
Q 1581 -709 644 -709 
Q 588 -253 519 134 
Q 906 91 1350 78 
Q 1669 78 1694 378 
Q 1731 791 1763 1741 
L 181 1741 
L 400 4053 
L 1138 4053 
z
M 5544 2647 
L 3163 2647 
L 3163 2997 
Q 2944 2797 2706 2603 
Q 2525 2991 2300 3391 
Q 3313 4134 3925 5278 
L 4875 5278 
L 4738 5053 
Q 5469 3984 6381 3466 
Q 6163 3116 5950 2691 
Q 5738 2828 5544 2984 
L 5544 2647 
z
M 2556 116 
L 4694 116 
Q 5063 1253 5250 2303 
L 6025 2103 
Q 5775 1141 5438 116 
L 6213 116 
L 6213 -634 
L 2556 -634 
L 2556 116 
z
M 3263 2172 
Q 3569 1397 3856 503 
L 3175 259 
Q 2981 978 2625 1934 
L 3263 2172 
z
M 4425 2428 
Q 4644 1584 4806 753 
L 4113 584 
Q 3988 1366 3763 2278 
L 4425 2428 
z
M 75 1216 
Q 763 1278 1525 1378 
Q 1531 984 1538 628 
Q 838 541 175 428 
L 75 1216 
z
M 4300 4347 
Q 4013 3897 3544 3384 
L 5113 3384 
Q 4663 3859 4300 4347 
z
" transform="scale(0.015625)"/>
      <path id="MicrosoftYaHei-Bold-20" transform="scale(0.015625)"/>
      <path id="MicrosoftYaHei-Bold-38" d="M 269 1303 
Q 269 1725 512 2053 
Q 756 2381 1219 2534 
Q 850 2719 648 3003 
Q 447 3288 447 3634 
Q 447 3997 645 4292 
Q 844 4588 1200 4755 
Q 1556 4922 1997 4922 
Q 2441 4922 2800 4758 
Q 3159 4594 3359 4298 
Q 3559 4003 3559 3647 
Q 3559 3309 3339 3018 
Q 3119 2728 2747 2559 
Q 3200 2403 3453 2076 
Q 3706 1750 3706 1313 
Q 3706 697 3228 309 
Q 2750 -78 1988 -78 
Q 1225 -78 747 309 
Q 269 697 269 1303 
z
M 1278 1394 
Q 1278 1056 1472 853 
Q 1666 650 1991 650 
Q 2303 650 2503 853 
Q 2703 1056 2703 1394 
Q 2703 1709 2500 1920 
Q 2297 2131 1991 2131 
Q 1675 2131 1476 1920 
Q 1278 1709 1278 1394 
z
M 1428 3531 
Q 1428 3266 1592 3077 
Q 1756 2888 2006 2888 
Q 2247 2888 2415 3072 
Q 2584 3256 2584 3531 
Q 2584 3806 2420 3997 
Q 2256 4188 2006 4188 
Q 1750 4188 1589 3997 
Q 1428 3806 1428 3531 
z
" transform="scale(0.015625)"/>
      <path id="MicrosoftYaHei-Bold-ff1a" d="M 1594 3506 
Q 1831 3506 2000 3354 
Q 2169 3203 2169 2981 
Q 2169 2766 2003 2614 
Q 1838 2463 1594 2463 
Q 1353 2463 1189 2616 
Q 1025 2769 1025 2981 
Q 1025 3200 1192 3353 
Q 1359 3506 1594 3506 
z
M 1594 959 
Q 1831 959 2000 806 
Q 2169 653 2169 434 
Q 2169 222 2000 69 
Q 1831 -84 1594 -84 
Q 1356 -84 1190 69 
Q 1025 222 1025 434 
Q 1025 653 1190 806 
Q 1356 959 1594 959 
z
" transform="scale(0.015625)"/>
      <path id="MicrosoftYaHei-Bold-4e34" d="M 2638 2566 
L 4550 2566 
Q 4138 2953 3650 3359 
L 4091 3791 
L 3534 3791 
Q 3228 3288 2850 2797 
Q 2569 3031 2188 3300 
L 2188 -822 
L 1400 -822 
L 1400 5284 
L 2188 5284 
L 2188 3391 
Q 2947 4288 3450 5366 
L 4250 5178 
Q 4116 4856 3956 4541 
L 6275 4541 
L 6275 3791 
L 4275 3791 
Q 4725 3469 5213 3072 
L 4747 2566 
L 6100 2566 
L 6100 -784 
L 5325 -784 
L 5325 -491 
L 3413 -491 
L 3413 -784 
L 2638 -784 
L 2638 2566 
z
M 3413 234 
L 4019 234 
L 4019 1841 
L 3413 1841 
L 3413 234 
z
M 5325 1841 
L 4719 1841 
L 4719 234 
L 5325 234 
L 5325 1841 
z
M 331 4691 
L 1044 4691 
L 1044 -234 
L 331 -234 
L 331 4691 
z
" transform="scale(0.015625)"/>
      <path id="MicrosoftYaHei-Bold-754c" d="M 3838 1284 
L 4109 1284 
Q 3544 1634 3200 2053 
Q 2841 1656 2228 1291 
L 2569 1291 
Q 2597 291 2270 -114 
Q 1944 -519 1188 -853 
Q 869 -441 625 -209 
Q 1413 144 1580 375 
Q 1747 606 1766 1038 
Q 1228 769 544 516 
Q 363 884 100 1278 
Q 1394 1609 2156 2078 
L 675 2078 
L 675 5053 
L 5750 5053 
L 5750 2078 
L 4213 2078 
Q 5038 1553 6325 1328 
Q 6119 984 5881 516 
Q 5216 722 4688 972 
L 4688 -828 
L 3838 -828 
L 3838 1284 
z
M 4913 4378 
L 3638 4378 
L 3638 3903 
L 4913 3903 
L 4913 4378 
z
M 1513 3903 
L 2788 3903 
L 2788 4378 
L 1513 4378 
L 1513 3903 
z
M 4913 2753 
L 4913 3228 
L 3638 3228 
L 3638 2753 
L 4913 2753 
z
M 1513 2753 
L 2788 2753 
L 2788 3228 
L 1513 3228 
L 1513 2753 
z
" transform="scale(0.015625)"/>
      <path id="MicrosoftYaHei-Bold-9884" d="M 2725 2984 
L 2525 903 
L 1963 903 
L 2088 2209 
L 1663 2209 
L 1663 -66 
Q 1663 -778 981 -822 
Q 763 -841 288 -841 
Q 213 -459 119 -34 
Q 319 -47 506 -47 
Q 850 -47 850 316 
L 850 2209 
L 75 2209 
L 75 2984 
L 938 2984 
Q 538 3266 181 3509 
L 625 4066 
Q 956 3797 1288 3516 
L 1800 4253 
L 175 4253 
L 175 5003 
L 2638 5003 
L 2638 4203 
L 1800 2984 
L 2725 2984 
z
M 2938 703 
L 2938 3703 
L 3913 3703 
L 4013 4241 
L 2813 4241 
L 2813 5016 
L 6188 5016 
L 6188 4241 
L 4856 4241 
L 4738 3703 
L 6081 3703 
L 6081 703 
L 5275 703 
L 5275 2928 
L 3744 2928 
L 3744 703 
L 2938 703 
z
M 4119 2603 
L 4906 2603 
L 4906 2422 
Q 4906 1447 4756 872 
Q 5606 278 6319 -303 
L 5731 -903 
Q 5175 -366 4450 191 
Q 4050 -366 3006 -909 
Q 2744 -509 2488 -178 
Q 3600 316 3881 878 
Q 4125 1366 4119 2422 
L 4119 2603 
z
" transform="scale(0.015625)"/>
      <path id="MicrosoftYaHei-Bold-7b97" d="M 100 697 
L 1575 697 
Q 1603 844 1613 1003 
L 706 1003 
L 706 3694 
Q 572 3581 431 3478 
Q 325 3803 75 4228 
Q 700 4634 1119 5341 
L 2006 5341 
Q 1888 5122 1759 4922 
L 3113 4922 
L 3113 4381 
Q 3563 4788 3800 5347 
L 4619 5347 
Q 4541 5125 4450 4922 
L 6213 4922 
L 6213 4347 
L 5338 4347 
L 5513 3972 
L 4738 3816 
L 5719 3816 
L 5719 1003 
L 4906 1003 
L 4906 697 
L 6300 697 
L 6300 97 
L 4906 97 
L 4906 -809 
L 4081 -809 
L 4081 97 
L 2281 97 
Q 2050 -534 1388 -897 
Q 994 -616 581 -384 
Q 1031 -209 1291 97 
L 100 97 
L 100 697 
z
M 2575 3972 
L 1800 3816 
L 3519 3816 
Q 3203 4013 2856 4178 
Q 2969 4259 3069 4347 
L 2403 4347 
Q 2494 4156 2575 3972 
z
M 3694 3816 
L 4703 3816 
Q 4603 4106 4484 4347 
L 4131 4347 
Q 3934 4056 3694 3816 
z
M 841 3816 
L 1766 3816 
Q 1703 4031 1572 4347 
L 1344 4347 
Q 1106 4059 841 3816 
z
M 4900 3303 
L 1525 3303 
L 1525 2991 
L 4900 2991 
L 4900 3303 
z
M 1525 2253 
L 4900 2253 
L 4900 2566 
L 1525 2566 
L 1525 2253 
z
M 4900 1516 
L 4900 1828 
L 1525 1828 
L 1525 1516 
L 4900 1516 
z
M 2406 697 
L 4081 697 
L 4081 1003 
L 2428 1003 
Q 2425 856 2406 697 
z
" transform="scale(0.015625)"/>
      <path id="MicrosoftYaHei-Bold-9644" d="M 3188 5334 
L 3950 5259 
Q 3772 4734 3544 4216 
L 3544 -841 
L 2775 -841 
L 2775 2731 
Q 2625 2478 2463 2228 
Q 2288 2591 2075 2947 
Q 2875 4197 3188 5334 
z
M 3750 4166 
L 5013 4166 
L 5013 5266 
L 5794 5266 
L 5794 4166 
L 6319 4166 
L 6319 3341 
L 5794 3341 
L 5794 222 
Q 5794 -209 5644 -443 
Q 5494 -678 5233 -722 
Q 4972 -766 4238 -766 
Q 4181 -347 4069 41 
Q 4381 22 4638 22 
Q 5013 22 5013 372 
L 5013 3341 
L 3750 3341 
L 3750 4166 
z
M 1563 128 
L 1338 128 
Q 1256 691 1213 909 
Q 1350 884 1450 884 
Q 1750 884 1750 1328 
Q 1750 1872 1213 2653 
L 1706 4303 
L 1156 4303 
L 1156 -853 
L 375 -853 
L 375 5066 
L 2444 5066 
L 2444 4366 
L 1913 2797 
Q 2475 1934 2475 1178 
Q 2475 128 1563 128 
z
M 3631 2722 
L 4306 2966 
Q 4606 2234 4844 1497 
L 4119 1247 
Q 3913 1972 3631 2722 
z
" transform="scale(0.015625)"/>
      <path id="MicrosoftYaHei-Bold-8fd1" d="M 1000 5353 
Q 1469 4778 1906 4153 
Q 1581 3953 1138 3647 
Q 763 4241 288 4897 
L 1000 5353 
z
M 6188 2553 
L 5200 2553 
L 5200 297 
L 4338 297 
L 4338 2553 
L 3259 2553 
Q 3194 1175 2669 259 
Q 2363 522 1844 859 
Q 2406 1597 2406 3016 
L 2406 4766 
Q 4156 4966 5681 5322 
L 6056 4447 
Q 4506 4153 3269 4041 
L 3269 3328 
L 6188 3328 
L 6188 2553 
z
M 6325 134 
L 6031 -703 
L 2550 -663 
Q 2119 -656 1761 -515 
Q 1403 -375 1188 -84 
Q 663 -597 431 -859 
L 81 128 
L 700 659 
L 700 2378 
L 131 2378 
L 131 3203 
L 1563 3203 
L 1563 666 
Q 2031 109 2819 109 
L 3741 97 
Q 4703 97 6325 134 
z
" transform="scale(0.015625)"/>
      <path id="MicrosoftYaHei-Bold-7684" d="M 1250 5303 
L 2181 5159 
L 1900 4309 
L 2963 4309 
L 2963 3091 
Q 3466 3934 3925 5316 
L 4788 5091 
Q 4650 4675 4494 4278 
L 6106 4278 
L 6034 681 
Q 6019 100 5937 -133 
Q 5856 -366 5684 -512 
Q 5513 -659 5205 -712 
Q 4897 -766 3863 -766 
Q 3769 -216 3625 178 
Q 4088 141 4609 141 
Q 4759 141 4868 175 
Q 4978 209 5048 279 
Q 5119 350 5144 437 
Q 5169 525 5184 1206 
L 5213 2484 
Q 5225 3081 5225 3453 
L 4138 3453 
Q 3931 3016 3700 2603 
Q 3403 2797 2963 2988 
L 2963 -734 
L 2094 -734 
L 2094 -284 
L 1206 -284 
L 1206 -772 
L 338 -772 
L 338 4309 
L 997 4309 
Q 1178 4922 1250 5303 
z
M 2094 3491 
L 1206 3491 
L 1206 2422 
L 2094 2422 
L 2094 3491 
z
M 1206 534 
L 2094 534 
L 2094 1603 
L 1206 1603 
L 1206 534 
z
M 3944 2703 
Q 4394 2166 4913 1397 
L 4125 872 
Q 3650 1653 3219 2203 
L 3944 2703 
z
" transform="scale(0.015625)"/>
      <path id="MicrosoftYaHei-Bold-53cc" d="M 6050 4903 
Q 6006 2691 5013 1119 
Q 5559 422 6338 -84 
Q 6269 -172 5638 -859 
Q 4931 -331 4409 325 
Q 3813 -344 3000 -866 
Q 2713 -441 2425 -97 
Q 3284 431 3875 1119 
Q 3259 2194 3038 3553 
L 3863 3728 
Q 4053 2756 4466 1969 
Q 4988 2906 5113 4078 
L 2919 4078 
L 2919 4903 
L 6050 4903 
z
M 844 3897 
L 1672 2622 
Q 1872 3300 1944 4078 
L 175 4078 
L 175 4903 
L 2831 4903 
Q 2838 3091 2278 1681 
L 2950 641 
Q 2556 384 2181 103 
L 1806 731 
Q 1297 -119 531 -791 
Q 313 -366 75 41 
Q 822 713 1278 1619 
L 163 3453 
L 844 3897 
z
" transform="scale(0.015625)"/>
      <path id="MicrosoftYaHei-Bold-8fb9" d="M 3013 5303 
L 3913 5303 
L 3903 4309 
L 5906 4309 
L 5875 2722 
Q 5853 1803 5826 1461 
Q 5800 1119 5625 875 
Q 5450 631 5189 575 
Q 4928 519 4044 528 
Q 3981 866 3831 1397 
Q 4347 1359 4556 1359 
Q 4897 1359 4934 1687 
Q 4972 2016 4981 3497 
L 3884 3497 
Q 3838 1316 2550 328 
Q 2369 516 1881 984 
Q 2922 1700 2975 3497 
L 2044 3497 
L 2044 4309 
L 2997 4309 
L 3013 5303 
z
M 1031 5291 
Q 1456 4709 1856 4097 
L 1100 3622 
Q 738 4272 325 4866 
L 1031 5291 
z
M 6306 166 
Q 6144 -278 6025 -672 
L 4147 -672 
L 2806 -656 
Q 2325 -647 1922 -487 
Q 1519 -328 1288 -9 
L 463 -828 
L 113 166 
L 881 747 
L 881 2422 
L 150 2422 
L 150 3266 
L 1744 3266 
L 1744 616 
Q 2247 147 3100 147 
Q 4653 147 6306 166 
z
" transform="scale(0.015625)"/>
      <path id="MicrosoftYaHei-Bold-8865" d="M 2806 2972 
L 3431 2578 
Q 3084 2116 2728 1688 
L 3338 1284 
L 2819 634 
Q 2350 1006 1925 1325 
L 1925 -866 
L 1056 -866 
L 1056 1528 
Q 713 1181 325 822 
Q 200 1322 44 1766 
Q 944 2491 1569 3309 
L 163 3309 
L 163 4122 
L 1284 4122 
Q 1019 4519 650 4991 
L 1369 5397 
Q 1794 4897 2113 4447 
L 1563 4122 
L 2581 4122 
L 2581 3372 
Q 2297 2941 1925 2488 
L 1925 2194 
Q 2056 2116 2181 2034 
Q 2509 2503 2806 2972 
z
M 4875 3428 
Q 5694 2716 6356 2059 
L 5675 1384 
Q 5150 1975 4569 2566 
L 4569 -866 
L 3663 -866 
L 3663 5297 
L 4569 5297 
L 4569 3156 
L 4875 3428 
z
" transform="scale(0.015625)"/>
      <path id="MicrosoftYaHei-Bold-8d34" d="M 3231 -834 
L 3231 2341 
L 4150 2341 
L 4150 5309 
L 4994 5309 
L 4994 4141 
L 6313 4141 
L 6313 3391 
L 4994 3391 
L 4994 2341 
L 6031 2341 
L 6031 -822 
L 5250 -822 
L 5250 -434 
L 4013 -434 
L 4013 -834 
L 3231 -834 
z
M 5250 1591 
L 4013 1591 
L 4013 316 
L 5250 316 
L 5250 1591 
z
M 350 1147 
L 350 5059 
L 2975 5059 
L 2975 1172 
L 2281 1172 
L 2281 4341 
L 1044 4341 
L 1044 1147 
L 350 1147 
z
M 1338 4078 
L 1988 4078 
L 1988 1841 
Q 1988 1559 1947 1300 
L 3088 -91 
L 2475 -609 
Q 2059 9 1706 503 
Q 1356 -259 563 -822 
Q 381 -547 94 -178 
Q 1338 703 1338 1847 
L 1338 4078 
z
" transform="scale(0.015625)"/>
      <path id="MicrosoftYaHei-Bold-5206" d="M 6350 3028 
Q 6088 2703 5750 2228 
Q 5519 2409 5303 2603 
Q 5219 606 5172 190 
Q 5125 -225 4862 -451 
Q 4600 -678 4128 -678 
Q 3484 -678 2913 -659 
Q 2856 -141 2781 284 
Q 3594 216 3956 216 
Q 4172 216 4230 408 
Q 4288 600 4325 1978 
L 2781 1978 
Q 2728 1100 2529 631 
Q 2331 163 1907 -215 
Q 1484 -594 844 -872 
Q 456 -353 194 -78 
Q 750 144 1111 414 
Q 1472 684 1630 989 
Q 1788 1294 1841 1978 
L 950 1978 
L 950 2475 
Q 794 2356 631 2247 
Q 344 2653 63 2953 
Q 1475 3947 2194 5316 
L 3031 4953 
Q 2378 3722 1391 2841 
L 5047 2841 
Q 4088 3766 3463 4903 
L 4238 5303 
Q 5038 3922 6350 3028 
z
" transform="scale(0.015625)"/>
      <path id="MicrosoftYaHei-Bold-914d" d="M 163 5009 
L 3406 5009 
L 3406 4297 
L 2519 4297 
L 2519 3753 
L 3325 3753 
L 3325 -797 
L 2663 -797 
L 2663 -391 
L 994 -391 
L 994 -784 
L 331 -784 
L 331 3753 
L 1138 3753 
L 1138 4297 
L 163 4297 
L 163 5009 
z
M 1700 3753 
L 1981 3753 
L 1981 4297 
L 1700 4297 
L 1700 3753 
z
M 1350 1397 
Q 1166 1556 994 1694 
L 994 1266 
L 2663 1266 
L 2663 1634 
L 2531 1634 
Q 1981 1634 1981 2197 
L 1981 3097 
L 1697 3097 
Q 1672 1950 1350 1397 
z
M 2738 2159 
L 2781 2159 
L 2781 3097 
L 2519 3097 
L 2519 2397 
Q 2519 2159 2738 2159 
z
M 888 1941 
Q 1131 2303 1131 3097 
L 888 3097 
L 888 1941 
z
M 994 259 
L 2663 259 
L 2663 647 
L 994 647 
L 994 259 
z
M 5538 1334 
Q 5819 1209 6331 1047 
Q 6209 119 6125 -164 
Q 6041 -447 5842 -578 
Q 5644 -709 5325 -709 
L 4513 -709 
Q 3713 -709 3713 153 
L 3713 3003 
L 5188 3003 
L 5188 4184 
L 3619 4184 
L 3619 4984 
L 6000 4984 
L 6000 2203 
L 4519 2203 
L 4519 359 
Q 4519 78 4788 78 
L 5081 78 
Q 5316 78 5394 250 
Q 5472 422 5538 1334 
z
" transform="scale(0.015625)"/>
     </defs>
     <use xlink:href="#MicrosoftYaHei-Bold-5b9e"/>
     <use xlink:href="#MicrosoftYaHei-Bold-9a8c" x="100"/>
     <use xlink:href="#MicrosoftYaHei-Bold-20" x="200"/>
     <use xlink:href="#MicrosoftYaHei-Bold-38" x="229.785156"/>
     <use xlink:href="#MicrosoftYaHei-Bold-ff1a" x="291.455078"/>
     <use xlink:href="#MicrosoftYaHei-Bold-4e34" x="391.455078"/>
     <use xlink:href="#MicrosoftYaHei-Bold-754c" x="491.455078"/>
     <use xlink:href="#MicrosoftYaHei-Bold-9884" x="591.455078"/>
     <use xlink:href="#MicrosoftYaHei-Bold-7b97" x="691.455078"/>
     <use xlink:href="#MicrosoftYaHei-Bold-9644" x="791.455078"/>
     <use xlink:href="#MicrosoftYaHei-Bold-8fd1" x="891.455078"/>
     <use xlink:href="#MicrosoftYaHei-Bold-7684" x="991.455078"/>
     <use xlink:href="#MicrosoftYaHei-Bold-53cc" x="1091.455078"/>
     <use xlink:href="#MicrosoftYaHei-Bold-8fb9" x="1191.455078"/>
     <use xlink:href="#MicrosoftYaHei-Bold-8865" x="1291.455078"/>
     <use xlink:href="#MicrosoftYaHei-Bold-8d34" x="1391.455078"/>
     <use xlink:href="#MicrosoftYaHei-Bold-5206" x="1491.455078"/>
     <use xlink:href="#MicrosoftYaHei-Bold-914d" x="1591.455078"/>
    </g>
   </g>
   <g id="legend_1">
    <g id="patch_6">
     <path d="M 523.357247 365.963848 
L 635.198153 365.963848 
Q 637.078153 365.963848 637.078153 364.083848 
L 637.078153 292.269317 
Q 637.078153 290.389317 635.198153 290.389317 
L 523.357247 290.389317 
Q 521.477247 290.389317 521.477247 292.269317 
L 521.477247 364.083848 
Q 521.477247 365.963848 523.357247 365.963848 
z
" style="fill: #fbfaf6; opacity: 0.94; stroke: #d7d0c2; stroke-linejoin: miter"/>
    </g>
    <g id="line2d_31">
     <path d="M 525.237247 298.373442 
L 534.637247 298.373442 
L 544.037247 298.373442 
" style="fill: none; stroke: #6e7885; stroke-width: 2.5; stroke-linecap: round"/>
    </g>
    <g id="text_18">
     <!-- B=1.4, 最优ρ=0.00 -->
     <g transform="translate(551.557247 301.663442) scale(0.094 -0.094)">
      <defs>
       <path id="MicrosoftYaHei-42" d="M 625 0 
L 625 4841 
L 2047 4841 
Q 2684 4841 3065 4536 
Q 3447 4231 3447 3728 
Q 3447 3328 3220 3022 
Q 2994 2716 2597 2588 
L 2597 2575 
Q 3091 2519 3386 2201 
Q 3681 1884 3681 1397 
Q 3681 772 3232 386 
Q 2784 0 2084 0 
L 625 0 
z
M 1250 4294 
L 1250 2778 
L 1819 2778 
Q 2272 2778 2530 2998 
Q 2788 3219 2788 3609 
Q 2788 4294 1875 4294 
L 1250 4294 
z
M 1250 2234 
L 1250 547 
L 2000 547 
Q 2491 547 2758 773 
Q 3025 1000 3025 1403 
Q 3025 2234 1897 2234 
L 1250 2234 
z
" transform="scale(0.015625)"/>
       <path id="MicrosoftYaHei-3d" d="M 3972 2497 
L 788 2497 
L 788 2969 
L 3972 2969 
L 3972 2497 
z
M 3972 1053 
L 788 1053 
L 788 1525 
L 3972 1525 
L 3972 1053 
z
" transform="scale(0.015625)"/>
       <path id="MicrosoftYaHei-2c" d="M 1109 778 
L 575 -888 
L 131 -888 
L 519 778 
L 1109 778 
z
" transform="scale(0.015625)"/>
       <path id="MicrosoftYaHei-4f18" d="M 1825 3609 
L 3184 3609 
Q 3216 4322 3213 5272 
L 3713 5272 
Q 3719 4338 3688 3609 
L 6188 3609 
L 6188 3153 
L 4475 3153 
L 4475 228 
Q 4475 -122 4838 -122 
L 5244 -122 
Q 5656 -122 5700 303 
Q 5750 659 5781 1266 
Q 6031 1166 6294 1066 
Q 6244 528 6175 109 
Q 6100 -291 5900 -447 
Q 5713 -603 5275 -597 
L 4763 -597 
Q 4325 -597 4150 -422 
Q 3969 -259 3969 184 
L 3969 3153 
L 3663 3153 
Q 3600 791 1950 -803 
Q 1775 -597 1575 -397 
Q 3100 1028 3159 3153 
L 1825 3153 
L 1825 3609 
z
M 88 2334 
Q 1056 3641 1556 5291 
L 2063 5122 
Q 1753 4253 1388 3522 
L 1388 -809 
L 913 -809 
L 913 2666 
Q 616 2184 288 1778 
Q 194 2047 88 2334 
z
M 4600 5184 
Q 5269 4759 5713 4391 
Q 5538 4197 5388 3991 
Q 4875 4447 4325 4841 
L 4600 5184 
z
" transform="scale(0.015625)"/>
       <path id="MicrosoftYaHei-3c1" d="M 1141 322 
L 1141 -1338 
L 531 -1338 
L 531 1769 
Q 531 2613 932 3075 
Q 1334 3538 2084 3538 
Q 2834 3538 3296 3044 
Q 3759 2550 3759 1781 
Q 3759 903 3339 411 
Q 2919 -81 2181 -81 
Q 1538 -81 1153 322 
L 1141 322 
z
M 1141 894 
Q 1272 691 1540 559 
Q 1809 428 2091 428 
Q 3128 428 3128 1753 
Q 3128 2297 2837 2662 
Q 2547 3028 2091 3028 
Q 1141 3028 1141 1775 
L 1141 894 
z
" transform="scale(0.015625)"/>
      </defs>
      <use xlink:href="#MicrosoftYaHei-42"/>
      <use xlink:href="#MicrosoftYaHei-3d" x="62.744141"/>
      <use xlink:href="#MicrosoftYaHei-31" x="136.914062"/>
      <use xlink:href="#MicrosoftYaHei-2e" x="195.556641"/>
      <use xlink:href="#MicrosoftYaHei-34" x="219.628906"/>
      <use xlink:href="#MicrosoftYaHei-2c" x="278.271484"/>
      <use xlink:href="#MicrosoftYaHei-20" x="302.34375"/>
      <use xlink:href="#MicrosoftYaHei-6700" x="331.933594"/>
      <use xlink:href="#MicrosoftYaHei-4f18" x="431.933594"/>
      <use xlink:href="#MicrosoftYaHei-3c1" x="531.933594"/>
      <use xlink:href="#MicrosoftYaHei-3d" x="595.605469"/>
      <use xlink:href="#MicrosoftYaHei-30" x="669.775391"/>
      <use xlink:href="#MicrosoftYaHei-2e" x="728.417969"/>
      <use xlink:href="#MicrosoftYaHei-30" x="752.490234"/>
      <use xlink:href="#MicrosoftYaHei-30" x="811.132812"/>
     </g>
    </g>
    <g id="line2d_32">
     <path d="M 525.237247 312.924348 
L 534.637247 312.924348 
L 544.037247 312.924348 
" style="fill: none; stroke: #557c83; stroke-width: 2.5; stroke-linecap: round"/>
    </g>
    <g id="text_19">
     <!-- B=1.5, 最优ρ=0.00 -->
     <g transform="translate(551.557247 316.214348) scale(0.094 -0.094)">
      <defs>
       <path id="MicrosoftYaHei-35" d="M 3294 1494 
Q 3294 784 2823 350 
Q 2353 -84 1559 -84 
Q 878 -84 544 119 
L 544 744 
Q 1034 425 1544 425 
Q 2050 425 2361 704 
Q 2672 984 2672 1447 
Q 2672 1909 2348 2167 
Q 2025 2425 1434 2425 
Q 978 2425 613 2384 
L 791 4841 
L 3053 4841 
L 3053 4303 
L 1306 4303 
L 1206 2931 
L 1647 2950 
Q 2416 2950 2855 2567 
Q 3294 2184 3294 1494 
z
" transform="scale(0.015625)"/>
      </defs>
      <use xlink:href="#MicrosoftYaHei-42"/>
      <use xlink:href="#MicrosoftYaHei-3d" x="62.744141"/>
      <use xlink:href="#MicrosoftYaHei-31" x="136.914062"/>
      <use xlink:href="#MicrosoftYaHei-2e" x="195.556641"/>
      <use xlink:href="#MicrosoftYaHei-35" x="219.628906"/>
      <use xlink:href="#MicrosoftYaHei-2c" x="278.271484"/>
      <use xlink:href="#MicrosoftYaHei-20" x="302.34375"/>
      <use xlink:href="#MicrosoftYaHei-6700" x="331.933594"/>
      <use xlink:href="#MicrosoftYaHei-4f18" x="431.933594"/>
      <use xlink:href="#MicrosoftYaHei-3c1" x="531.933594"/>
      <use xlink:href="#MicrosoftYaHei-3d" x="595.605469"/>
      <use xlink:href="#MicrosoftYaHei-30" x="669.775391"/>
      <use xlink:href="#MicrosoftYaHei-2e" x="728.417969"/>
      <use xlink:href="#MicrosoftYaHei-30" x="752.490234"/>
      <use xlink:href="#MicrosoftYaHei-30" x="811.132812"/>
     </g>
    </g>
    <g id="line2d_33">
     <path d="M 525.237247 327.475254 
L 534.637247 327.475254 
L 544.037247 327.475254 
" style="fill: none; stroke: #2f9c5b; stroke-width: 2.5; stroke-linecap: round"/>
    </g>
    <g id="text_20">
     <!-- B=1.6, 最优ρ=0.92 -->
     <g transform="translate(551.557247 330.765254) scale(0.094 -0.094)">
      <defs>
       <path id="MicrosoftYaHei-39" d="M 578 656 
Q 978 425 1441 425 
Q 2091 425 2448 937 
Q 2806 1450 2806 2394 
Q 2800 2388 2794 2394 
Q 2475 1788 1722 1788 
Q 1113 1788 713 2206 
Q 313 2625 313 3294 
Q 313 4006 750 4464 
Q 1188 4922 1884 4922 
Q 2606 4922 3012 4355 
Q 3419 3788 3419 2703 
Q 3419 1363 2894 641 
Q 2369 -81 1441 -81 
Q 931 -81 578 84 
L 578 656 
z
M 931 3372 
Q 931 2884 1181 2598 
Q 1431 2313 1872 2313 
Q 2253 2313 2512 2573 
Q 2772 2834 2772 3206 
Q 2772 3728 2514 4070 
Q 2256 4413 1834 4413 
Q 1444 4413 1187 4116 
Q 931 3819 931 3372 
z
" transform="scale(0.015625)"/>
      </defs>
      <use xlink:href="#MicrosoftYaHei-42"/>
      <use xlink:href="#MicrosoftYaHei-3d" x="62.744141"/>
      <use xlink:href="#MicrosoftYaHei-31" x="136.914062"/>
      <use xlink:href="#MicrosoftYaHei-2e" x="195.556641"/>
      <use xlink:href="#MicrosoftYaHei-36" x="219.628906"/>
      <use xlink:href="#MicrosoftYaHei-2c" x="278.271484"/>
      <use xlink:href="#MicrosoftYaHei-20" x="302.34375"/>
      <use xlink:href="#MicrosoftYaHei-6700" x="331.933594"/>
      <use xlink:href="#MicrosoftYaHei-4f18" x="431.933594"/>
      <use xlink:href="#MicrosoftYaHei-3c1" x="531.933594"/>
      <use xlink:href="#MicrosoftYaHei-3d" x="595.605469"/>
      <use xlink:href="#MicrosoftYaHei-30" x="669.775391"/>
      <use xlink:href="#MicrosoftYaHei-2e" x="728.417969"/>
      <use xlink:href="#MicrosoftYaHei-39" x="752.490234"/>
      <use xlink:href="#MicrosoftYaHei-32" x="811.132812"/>
     </g>
    </g>
    <g id="line2d_34">
     <path d="M 525.237247 342.026161 
L 534.637247 342.026161 
L 544.037247 342.026161 
" style="fill: none; stroke: #e58f3a; stroke-width: 2.5; stroke-linecap: round"/>
    </g>
    <g id="text_21">
     <!-- B=1.7, 最优ρ=0.37 -->
     <g transform="translate(551.557247 345.316161) scale(0.094 -0.094)">
      <defs>
       <path id="MicrosoftYaHei-37" d="M 3422 4463 
Q 2659 3131 2223 1998 
Q 1788 866 1684 0 
L 1047 0 
Q 1163 853 1594 1947 
Q 2025 3041 2747 4300 
L 347 4300 
L 347 4841 
L 3422 4841 
L 3422 4463 
z
" transform="scale(0.015625)"/>
       <path id="MicrosoftYaHei-33" d="M 447 809 
Q 944 425 1569 425 
Q 2069 425 2361 670 
Q 2653 916 2653 1328 
Q 2653 2247 1338 2247 
L 934 2247 
L 934 2753 
L 1319 2753 
Q 2484 2753 2484 3616 
Q 2484 4413 1594 4413 
Q 1084 4413 634 4069 
L 634 4647 
Q 1109 4922 1744 4922 
Q 2363 4922 2738 4598 
Q 3113 4275 3113 3759 
Q 3113 2809 2144 2538 
L 2144 2525 
Q 2669 2469 2973 2155 
Q 3278 1841 3278 1372 
Q 3278 719 2808 319 
Q 2338 -81 1556 -81 
Q 869 -81 447 175 
L 447 809 
z
" transform="scale(0.015625)"/>
      </defs>
      <use xlink:href="#MicrosoftYaHei-42"/>
      <use xlink:href="#MicrosoftYaHei-3d" x="62.744141"/>
      <use xlink:href="#MicrosoftYaHei-31" x="136.914062"/>
      <use xlink:href="#MicrosoftYaHei-2e" x="195.556641"/>
      <use xlink:href="#MicrosoftYaHei-37" x="219.628906"/>
      <use xlink:href="#MicrosoftYaHei-2c" x="278.271484"/>
      <use xlink:href="#MicrosoftYaHei-20" x="302.34375"/>
      <use xlink:href="#MicrosoftYaHei-6700" x="331.933594"/>
      <use xlink:href="#MicrosoftYaHei-4f18" x="431.933594"/>
      <use xlink:href="#MicrosoftYaHei-3c1" x="531.933594"/>
      <use xlink:href="#MicrosoftYaHei-3d" x="595.605469"/>
      <use xlink:href="#MicrosoftYaHei-30" x="669.775391"/>
      <use xlink:href="#MicrosoftYaHei-2e" x="728.417969"/>
      <use xlink:href="#MicrosoftYaHei-33" x="752.490234"/>
      <use xlink:href="#MicrosoftYaHei-37" x="811.132812"/>
     </g>
    </g>
    <g id="line2d_35">
     <path d="M 525.237247 356.577067 
L 534.637247 356.577067 
L 544.037247 356.577067 
" style="fill: none; stroke: #d95f59; stroke-width: 2.5; stroke-linecap: round"/>
    </g>
    <g id="text_22">
     <!-- B=1.8, 最优ρ=0.50 -->
     <g transform="translate(551.557247 359.867067) scale(0.094 -0.094)">
      <use xlink:href="#MicrosoftYaHei-42"/>
      <use xlink:href="#MicrosoftYaHei-3d" x="62.744141"/>
      <use xlink:href="#MicrosoftYaHei-31" x="136.914062"/>
      <use xlink:href="#MicrosoftYaHei-2e" x="195.556641"/>
      <use xlink:href="#MicrosoftYaHei-38" x="219.628906"/>
      <use xlink:href="#MicrosoftYaHei-2c" x="278.271484"/>
      <use xlink:href="#MicrosoftYaHei-20" x="302.34375"/>
      <use xlink:href="#MicrosoftYaHei-6700" x="331.933594"/>
      <use xlink:href="#MicrosoftYaHei-4f18" x="431.933594"/>
      <use xlink:href="#MicrosoftYaHei-3c1" x="531.933594"/>
      <use xlink:href="#MicrosoftYaHei-3d" x="595.605469"/>
      <use xlink:href="#MicrosoftYaHei-30" x="669.775391"/>
      <use xlink:href="#MicrosoftYaHei-2e" x="728.417969"/>
      <use xlink:href="#MicrosoftYaHei-35" x="752.490234"/>
      <use xlink:href="#MicrosoftYaHei-30" x="811.132812"/>
     </g>
    </g>
   </g>
  </g>
 </g>
 <defs>
  <clipPath id="p31cf710f32">
   <rect x="51.827953" y="36.6295" width="589.9502" height="334.034348"/>
  </clipPath>
 </defs>
</svg>
