<?xml version="1.0" encoding="utf-8" standalone="no"?>
<!DOCTYPE svg PUBLIC "-//W3C//DTD SVG 1.1//EN"
  "http://www.w3.org/Graphics/SVG/1.1/DTD/svg11.dtd">
<svg xmlns:xlink="http://www.w3.org/1999/xlink" width="656.39952pt" height="418.79952pt" viewBox="0 0 656.39952 418.79952" xmlns="http://www.w3.org/2000/svg" version="1.1">
 <metadata>
  <rdf:RDF xmlns:dc="http://purl.org/dc/elements/1.1/" xmlns:cc="http://creativecommons.org/ns#" xmlns:rdf="http://www.w3.org/1999/02/22-rdf-syntax-ns#">
   <cc:Work>
    <dc:type rdf:resource="http://purl.org/dc/dcmitype/StillImage"/>
    <dc:date>2026-06-05T14:40:41.108046</dc:date>
    <dc:format>image/svg+xml</dc:format>
    <dc:creator>
     <cc:Agent>
      <dc:title>Matplotlib v3.9.2, https://matplotlib.org/</dc:title>
     </cc:Agent>
    </dc:creator>
   </cc:Work>
  </rdf:RDF>
 </metadata>
 <defs>
  <style type="text/css">*{stroke-linejoin: round; stroke-linecap: butt}</style>
 </defs>
 <g id="figure_1">
  <g id="patch_1">
   <path d="M 0 418.79952 
L 656.39952 418.79952 
L 656.39952 0 
L 0 0 
z
" style="fill: #f7f5ef"/>
  </g>
  <g id="axes_1">
   <g id="patch_2">
    <path d="M 51.827953 370.663848 
L 641.778153 370.663848 
L 641.778153 36.469625 
L 51.827953 36.469625 
z
" style="fill: #fbfaf6"/>
   </g>
   <g id="matplotlib.axis_1">
    <g id="xtick_1">
     <g id="line2d_1">
      <path d="M 51.827953 370.663848 
L 51.827953 36.469625 
" clip-path="url(#p9936a66a5d)" style="fill: none; stroke: #d8d1c5; stroke-opacity: 0.34; stroke-width: 0.85; stroke-linecap: square"/>
     </g>
     <g id="line2d_2">
      <defs>
       <path id="m9e0ff975d6" d="M 0 0 
L 0 3.5 
" style="stroke: #32383a; stroke-width: 0.8"/>
      </defs>
      <g>
       <use xlink:href="#m9e0ff975d6" x="51.827953" y="370.663848" style="fill: #32383a; stroke: #32383a; stroke-width: 0.8"/>
      </g>
     </g>
     <g id="text_1">
      <!-- 0.0 -->
      <g style="fill: #32383a" transform="translate(44.406586 386.057286) scale(0.105 -0.105)">
       <defs>
        <path id="MicrosoftYaHei-30" d="M 284 2325 
Q 284 3606 709 4264 
Q 1134 4922 1941 4922 
Q 3478 4922 3478 2441 
Q 3478 1216 3045 567 
Q 2613 -81 1831 -81 
Q 1094 -81 689 534 
Q 284 1150 284 2325 
z
M 909 2353 
Q 909 425 1888 425 
Q 2850 425 2850 2384 
Q 2850 4413 1906 4413 
Q 909 4413 909 2353 
z
" transform="scale(0.015625)"/>
        <path id="MicrosoftYaHei-2e" d="M 372 322 
Q 372 491 487 606 
Q 603 722 775 722 
Q 950 722 1065 605 
Q 1181 488 1181 322 
Q 1181 159 1065 42 
Q 950 -75 772 -75 
Q 600 -75 486 42 
Q 372 159 372 322 
z
" transform="scale(0.015625)"/>
       </defs>
       <use xlink:href="#MicrosoftYaHei-30"/>
       <use xlink:href="#MicrosoftYaHei-2e" x="58.642578"/>
       <use xlink:href="#MicrosoftYaHei-30" x="82.714844"/>
      </g>
     </g>
    </g>
    <g id="xtick_2">
     <g id="line2d_3">
      <path d="M 169.817993 370.663848 
L 169.817993 36.469625 
" clip-path="url(#p9936a66a5d)" style="fill: none; stroke: #d8d1c5; stroke-opacity: 0.34; stroke-width: 0.85; stroke-linecap: square"/>
     </g>
     <g id="line2d_4">
      <g>
       <use xlink:href="#m9e0ff975d6" x="169.817993" y="370.663848" style="fill: #32383a; stroke: #32383a; stroke-width: 0.8"/>
      </g>
     </g>
     <g id="text_2">
      <!-- 0.2 -->
      <g style="fill: #32383a" transform="translate(162.396626 386.057286) scale(0.105 -0.105)">
       <defs>
        <path id="MicrosoftYaHei-32" d="M 2666 3572 
Q 2666 3963 2419 4186 
Q 2172 4409 1747 4409 
Q 1447 4409 1140 4256 
Q 834 4103 569 3819 
L 569 4413 
Q 806 4659 1107 4790 
Q 1409 4922 1816 4922 
Q 2472 4922 2872 4570 
Q 3272 4219 3272 3619 
Q 3272 3084 3026 2693 
Q 2781 2303 2188 1894 
Q 1581 1475 1376 1294 
Q 1172 1113 1090 947 
Q 1009 781 1009 544 
L 3416 544 
L 3416 0 
L 372 0 
L 372 241 
Q 372 659 486 951 
Q 600 1244 862 1520 
Q 1125 1797 1681 2184 
Q 2250 2584 2458 2886 
Q 2666 3188 2666 3572 
z
" transform="scale(0.015625)"/>
       </defs>
       <use xlink:href="#MicrosoftYaHei-30"/>
       <use xlink:href="#MicrosoftYaHei-2e" x="58.642578"/>
       <use xlink:href="#MicrosoftYaHei-32" x="82.714844"/>
      </g>
     </g>
    </g>
    <g id="xtick_3">
     <g id="line2d_5">
      <path d="M 287.808033 370.663848 
L 287.808033 36.469625 
" clip-path="url(#p9936a66a5d)" style="fill: none; stroke: #d8d1c5; stroke-opacity: 0.34; stroke-width: 0.85; stroke-linecap: square"/>
     </g>
     <g id="line2d_6">
      <g>
       <use xlink:href="#m9e0ff975d6" x="287.808033" y="370.663848" style="fill: #32383a; stroke: #32383a; stroke-width: 0.8"/>
      </g>
     </g>
     <g id="text_3">
      <!-- 0.4 -->
      <g style="fill: #32383a" transform="translate(280.386666 386.057286) scale(0.105 -0.105)">
       <defs>
        <path id="MicrosoftYaHei-34" d="M 2906 4841 
L 2906 1644 
L 3631 1644 
L 3631 1138 
L 2906 1138 
L 2906 0 
L 2313 0 
L 2313 1138 
L 53 1138 
L 53 1616 
Q 656 2294 1265 3178 
Q 1875 4063 2272 4841 
L 2906 4841 
z
M 741 1644 
L 2313 1644 
L 2313 3950 
Q 1988 3366 1616 2817 
Q 1244 2269 741 1644 
z
" transform="scale(0.015625)"/>
       </defs>
       <use xlink:href="#MicrosoftYaHei-30"/>
       <use xlink:href="#MicrosoftYaHei-2e" x="58.642578"/>
       <use xlink:href="#MicrosoftYaHei-34" x="82.714844"/>
      </g>
     </g>
    </g>
    <g id="xtick_4">
     <g id="line2d_7">
      <path d="M 405.798073 370.663848 
L 405.798073 36.469625 
" clip-path="url(#p9936a66a5d)" style="fill: none; stroke: #d8d1c5; stroke-opacity: 0.34; stroke-width: 0.85; stroke-linecap: square"/>
     </g>
     <g id="line2d_8">
      <g>
       <use xlink:href="#m9e0ff975d6" x="405.798073" y="370.663848" style="fill: #32383a; stroke: #32383a; stroke-width: 0.8"/>
      </g>
     </g>
     <g id="text_4">
      <!-- 0.6 -->
      <g style="fill: #32383a" transform="translate(398.376706 386.057286) scale(0.105 -0.105)">
       <defs>
        <path id="MicrosoftYaHei-36" d="M 3181 4219 
Q 2803 4413 2391 4413 
Q 1763 4413 1381 3866 
Q 1000 3319 994 2372 
L 1009 2372 
Q 1353 3038 2106 3038 
Q 2734 3038 3109 2628 
Q 3484 2219 3484 1541 
Q 3484 831 3051 375 
Q 2619 -81 1947 -81 
Q 1209 -81 789 495 
Q 369 1072 369 2131 
Q 369 3413 920 4167 
Q 1472 4922 2372 4922 
Q 2888 4922 3181 4781 
L 3181 4219 
z
M 1031 1584 
Q 1031 1106 1286 765 
Q 1541 425 1963 425 
Q 2363 425 2613 719 
Q 2863 1013 2863 1475 
Q 2863 1975 2627 2253 
Q 2391 2531 1956 2531 
Q 1544 2531 1287 2250 
Q 1031 1969 1031 1584 
z
" transform="scale(0.015625)"/>
       </defs>
       <use xlink:href="#MicrosoftYaHei-30"/>
       <use xlink:href="#MicrosoftYaHei-2e" x="58.642578"/>
       <use xlink:href="#MicrosoftYaHei-36" x="82.714844"/>
      </g>
     </g>
    </g>
    <g id="xtick_5">
     <g id="line2d_9">
      <path d="M 523.788113 370.663848 
L 523.788113 36.469625 
" clip-path="url(#p9936a66a5d)" style="fill: none; stroke: #d8d1c5; stroke-opacity: 0.34; stroke-width: 0.85; stroke-linecap: square"/>
     </g>
     <g id="line2d_10">
      <g>
       <use xlink:href="#m9e0ff975d6" x="523.788113" y="370.663848" style="fill: #32383a; stroke: #32383a; stroke-width: 0.8"/>
      </g>
     </g>
     <g id="text_5">
      <!-- 0.8 -->
      <g style="fill: #32383a" transform="translate(516.366746 386.057286) scale(0.105 -0.105)">
       <defs>
        <path id="MicrosoftYaHei-38" d="M 306 1350 
Q 306 1769 556 2122 
Q 806 2475 1200 2625 
Q 884 2803 700 3081 
Q 516 3359 516 3684 
Q 516 4028 692 4312 
Q 869 4597 1183 4759 
Q 1497 4922 1875 4922 
Q 2256 4922 2572 4761 
Q 2888 4600 3063 4315 
Q 3238 4031 3238 3684 
Q 3238 3366 3058 3086 
Q 2878 2806 2559 2625 
Q 2953 2472 3200 2119 
Q 3447 1766 3447 1350 
Q 3447 938 3250 611 
Q 3053 284 2690 103 
Q 2328 -78 1875 -78 
Q 1425 -78 1065 103 
Q 706 284 506 612 
Q 306 941 306 1350 
z
M 906 1378 
Q 906 947 1172 687 
Q 1438 428 1878 428 
Q 2309 428 2582 692 
Q 2856 956 2856 1378 
Q 2856 1778 2579 2051 
Q 2303 2325 1878 2325 
Q 1456 2325 1181 2058 
Q 906 1791 906 1378 
z
M 1081 3634 
Q 1081 3309 1312 3076 
Q 1544 2844 1878 2844 
Q 2206 2844 2445 3078 
Q 2684 3313 2684 3634 
Q 2684 3963 2454 4191 
Q 2225 4419 1878 4419 
Q 1534 4419 1307 4195 
Q 1081 3972 1081 3634 
z
" transform="scale(0.015625)"/>
       </defs>
       <use xlink:href="#MicrosoftYaHei-30"/>
       <use xlink:href="#MicrosoftYaHei-2e" x="58.642578"/>
       <use xlink:href="#MicrosoftYaHei-38" x="82.714844"/>
      </g>
     </g>
    </g>
    <g id="xtick_6">
     <g id="line2d_11">
      <path d="M 641.778153 370.663848 
L 641.778153 36.469625 
" clip-path="url(#p9936a66a5d)" style="fill: none; stroke: #d8d1c5; stroke-opacity: 0.34; stroke-width: 0.85; stroke-linecap: square"/>
     </g>
     <g id="line2d_12">
      <g>
       <use xlink:href="#m9e0ff975d6" x="641.778153" y="370.663848" style="fill: #32383a; stroke: #32383a; stroke-width: 0.8"/>
      </g>
     </g>
     <g id="text_6">
      <!-- 1.0 -->
      <g style="fill: #32383a" transform="translate(634.356786 386.057286) scale(0.105 -0.105)">
       <defs>
        <path id="MicrosoftYaHei-31" d="M 1781 0 
L 1781 4141 
Q 1638 3997 1295 3819 
Q 953 3641 663 3569 
L 663 4169 
Q 1047 4275 1484 4508 
Q 1922 4741 2156 4947 
L 2388 4947 
L 2388 0 
L 1781 0 
z
" transform="scale(0.015625)"/>
       </defs>
       <use xlink:href="#MicrosoftYaHei-31"/>
       <use xlink:href="#MicrosoftYaHei-2e" x="58.642578"/>
       <use xlink:href="#MicrosoftYaHei-30" x="82.714844"/>
      </g>
     </g>
    </g>
    <g id="text_7">
     <!-- 用户补贴比例  $\rho$ -->
     <g transform="translate(302.700053 408.566676) scale(0.122 -0.122)">
      <defs>
       <path id="MicrosoftYaHei-7528" d="M 3088 -734 
L 3088 1253 
L 1269 1253 
Q 1163 -47 513 -903 
Q 350 -697 144 -472 
Q 550 103 694 803 
Q 831 1478 831 2716 
L 831 4947 
L 5925 4947 
L 5925 -22 
Q 5925 -766 5219 -766 
Q 4788 -766 4250 -747 
Q 4219 -541 4156 -228 
Q 4700 -266 5038 -266 
Q 5425 -266 5425 103 
L 5425 1253 
L 3588 1253 
L 3588 -734 
L 3088 -734 
z
M 3588 1703 
L 5425 1703 
L 5425 2872 
L 3588 2872 
L 3588 1703 
z
M 5425 4484 
L 3588 4484 
L 3588 3322 
L 5425 3322 
L 5425 4484 
z
M 1303 1703 
L 3088 1703 
L 3088 2872 
L 1331 2872 
Q 1350 2266 1303 1703 
z
M 1331 4484 
L 1331 3322 
L 3088 3322 
L 3088 4484 
L 1331 4484 
z
" transform="scale(0.015625)"/>
       <path id="MicrosoftYaHei-6237" d="M 2725 5116 
L 3175 5384 
Q 3475 5028 3769 4609 
L 3463 4416 
L 5794 4416 
L 5794 1647 
L 5294 1647 
L 5294 1972 
L 1347 1972 
Q 1263 172 419 -903 
Q 250 -697 56 -491 
Q 856 484 856 2434 
L 856 4416 
L 3241 4416 
Q 3013 4766 2725 5116 
z
M 1356 3966 
L 1356 2422 
L 5294 2422 
L 5294 3966 
L 1356 3966 
z
" transform="scale(0.015625)"/>
       <path id="MicrosoftYaHei-8865" d="M 163 3616 
L 163 4078 
L 2450 4078 
L 2450 3603 
Q 2106 3072 1700 2591 
L 1700 2228 
Q 1813 2147 1931 2066 
Q 2388 2516 2781 3009 
L 3169 2666 
Q 2681 2222 2256 1841 
Q 2650 1566 3031 1291 
L 2725 872 
Q 2156 1347 1700 1697 
L 1700 -841 
L 1194 -841 
L 1194 2047 
Q 750 1609 244 1228 
Q 163 1509 75 1766 
Q 1181 2597 1875 3616 
L 163 3616 
z
M 3775 5266 
L 4294 5266 
L 4294 3184 
L 4613 3434 
Q 5569 2584 6331 1784 
L 5888 1372 
Q 5194 2203 4294 3053 
L 4294 -841 
L 3775 -841 
L 3775 5266 
z
M 1038 5059 
L 1475 5278 
Q 1706 4909 1963 4422 
L 1500 4184 
Q 1256 4691 1038 5059 
z
" transform="scale(0.015625)"/>
       <path id="MicrosoftYaHei-8d34" d="M 3238 2116 
L 4213 2116 
L 4213 5322 
L 4719 5322 
L 4719 3997 
L 6313 3997 
L 6313 3522 
L 4719 3522 
L 4719 2116 
L 5975 2116 
L 5975 -866 
L 5500 -866 
L 5500 -503 
L 3713 -503 
L 3713 -866 
L 3238 -866 
L 3238 2116 
z
M 431 4997 
L 2831 4997 
L 2831 1078 
L 2381 1078 
L 2381 4541 
L 881 4541 
L 881 1041 
L 431 1041 
L 431 4997 
z
M 5500 1691 
L 3713 1691 
L 3713 -78 
L 5500 -78 
L 5500 1691 
z
M 1406 4022 
L 1856 4022 
L 1856 2691 
Q 1856 1466 1700 809 
L 1931 1016 
Q 2531 366 3050 -216 
L 2631 -553 
Q 2169 53 1650 634 
Q 1438 -78 475 -809 
Q 325 -609 125 -397 
Q 919 122 1169 709 
Q 1406 1203 1406 2509 
L 1406 4022 
z
" transform="scale(0.015625)"/>
       <path id="MicrosoftYaHei-6bd4" d="M 3225 5316 
L 3744 5316 
L 3744 2672 
Q 4959 3550 5744 4509 
L 6188 4178 
Q 5175 3063 3744 2056 
L 3744 247 
Q 3744 -166 4106 -166 
L 5175 -166 
Q 5588 -166 5650 203 
Q 5725 678 5763 1247 
Q 6025 1147 6300 1066 
Q 6244 484 6150 22 
Q 6019 -622 5319 -622 
L 3944 -622 
Q 3225 -622 3225 159 
L 3225 5316 
z
M 1063 5153 
L 1063 3278 
L 2825 3278 
L 2825 2809 
L 1063 2809 
L 1063 153 
Q 1713 428 2763 928 
Q 2763 634 2788 366 
Q 1869 -3 1231 -328 
Q 956 -472 725 -672 
L 344 -184 
Q 544 -34 544 272 
L 544 5153 
L 1063 5153 
z
" transform="scale(0.015625)"/>
       <path id="MicrosoftYaHei-4f8b" d="M 2381 1841 
L 2631 2191 
Q 2916 1997 3247 1738 
Q 3488 2378 3581 3128 
L 2703 3128 
Q 2350 1984 1831 1291 
Q 1700 1491 1531 1678 
Q 2238 2694 2578 4522 
L 1900 4522 
L 1900 4959 
L 4319 4959 
L 4319 4522 
L 3044 4522 
Q 2947 4009 2828 3559 
L 4044 3559 
L 4044 3128 
Q 3788 666 2038 -822 
Q 1900 -634 1694 -416 
Q 2578 297 3063 1303 
Q 2753 1556 2381 1841 
z
M 88 2291 
Q 894 3659 1281 5322 
L 1744 5234 
Q 1578 4534 1325 3853 
L 1325 -809 
L 900 -809 
L 900 2847 
Q 625 2275 288 1716 
Q 213 1966 88 2291 
z
M 5575 5303 
L 6031 5303 
L 6031 84 
Q 6031 -391 5881 -566 
Q 5750 -728 5356 -734 
Q 5088 -741 4488 -722 
Q 4463 -466 4400 -203 
Q 4881 -253 5188 -253 
Q 5431 -259 5500 -166 
Q 5575 -84 5575 234 
L 5575 5303 
z
M 4913 653 
L 4469 653 
L 4469 4322 
L 4913 4322 
L 4913 653 
z
" transform="scale(0.015625)"/>
       <path id="MicrosoftYaHei-20" transform="scale(0.015625)"/>
       <path id="DejaVuSans-Oblique-3c1" d="M 1203 2875 
Q 1453 3194 1981 3475 
Q 2188 3584 2756 3584 
Q 3394 3584 3694 3078 
Q 3994 2572 3834 1747 
Q 3672 922 3175 415 
Q 2678 -91 2041 -91 
Q 1656 -91 1409 63 
Q 1163 213 1044 525 
L 681 -1331 
L 103 -1331 
L 697 1716 
Q 838 2438 1203 2875 
z
M 3238 1747 
Q 3359 2381 3169 2744 
Q 2978 3103 2522 3103 
Q 2066 3103 1734 2744 
Q 1403 2381 1281 1747 
Q 1156 1113 1347 750 
Q 1538 391 1994 391 
Q 2450 391 2781 750 
Q 3113 1113 3238 1747 
z
" transform="scale(0.015625)"/>
      </defs>
      <use xlink:href="#MicrosoftYaHei-7528" transform="translate(0 0.875)"/>
      <use xlink:href="#MicrosoftYaHei-6237" transform="translate(100 0.875)"/>
      <use xlink:href="#MicrosoftYaHei-8865" transform="translate(200 0.875)"/>
      <use xlink:href="#MicrosoftYaHei-8d34" transform="translate(300 0.875)"/>
      <use xlink:href="#MicrosoftYaHei-6bd4" transform="translate(400 0.875)"/>
      <use xlink:href="#MicrosoftYaHei-4f8b" transform="translate(500 0.875)"/>
      <use xlink:href="#MicrosoftYaHei-20" transform="translate(600 0.875)"/>
      <use xlink:href="#MicrosoftYaHei-20" transform="translate(629.589844 0.875)"/>
      <use xlink:href="#DejaVuSans-Oblique-3c1" transform="translate(659.179688 0.875)"/>
     </g>
    </g>
   </g>
   <g id="matplotlib.axis_2">
    <g id="ytick_1">
     <g id="line2d_13">
      <path d="M 51.827953 370.663848 
L 641.778153 370.663848 
" clip-path="url(#p9936a66a5d)" style="fill: none; stroke: #d8d1c5; stroke-opacity: 0.34; stroke-width: 0.85; stroke-linecap: square"/>
     </g>
     <g id="line2d_14">
      <defs>
       <path id="m089da05a89" d="M 0 0 
L -3.5 0 
" style="stroke: #32383a; stroke-width: 0.8"/>
      </defs>
      <g>
       <use xlink:href="#m089da05a89" x="51.827953" y="370.663848" style="fill: #32383a; stroke: #32383a; stroke-width: 0.8"/>
      </g>
     </g>
     <g id="text_8">
      <!-- 0.0 -->
      <g style="fill: #32383a" transform="translate(29.985219 374.860567) scale(0.105 -0.105)">
       <use xlink:href="#MicrosoftYaHei-30"/>
       <use xlink:href="#MicrosoftYaHei-2e" x="58.642578"/>
       <use xlink:href="#MicrosoftYaHei-30" x="82.714844"/>
      </g>
     </g>
    </g>
    <g id="ytick_2">
     <g id="line2d_15">
      <path d="M 51.827953 305.135569 
L 641.778153 305.135569 
" clip-path="url(#p9936a66a5d)" style="fill: none; stroke: #d8d1c5; stroke-opacity: 0.34; stroke-width: 0.85; stroke-linecap: square"/>
     </g>
     <g id="line2d_16">
      <g>
       <use xlink:href="#m089da05a89" x="51.827953" y="305.135569" style="fill: #32383a; stroke: #32383a; stroke-width: 0.8"/>
      </g>
     </g>
     <g id="text_9">
      <!-- 0.2 -->
      <g style="fill: #32383a" transform="translate(29.985219 309.332288) scale(0.105 -0.105)">
       <use xlink:href="#MicrosoftYaHei-30"/>
       <use xlink:href="#MicrosoftYaHei-2e" x="58.642578"/>
       <use xlink:href="#MicrosoftYaHei-32" x="82.714844"/>
      </g>
     </g>
    </g>
    <g id="ytick_3">
     <g id="line2d_17">
      <path d="M 51.827953 239.60729 
L 641.778153 239.60729 
" clip-path="url(#p9936a66a5d)" style="fill: none; stroke: #d8d1c5; stroke-opacity: 0.34; stroke-width: 0.85; stroke-linecap: square"/>
     </g>
     <g id="line2d_18">
      <g>
       <use xlink:href="#m089da05a89" x="51.827953" y="239.60729" style="fill: #32383a; stroke: #32383a; stroke-width: 0.8"/>
      </g>
     </g>
     <g id="text_10">
      <!-- 0.4 -->
      <g style="fill: #32383a" transform="translate(29.985219 243.804009) scale(0.105 -0.105)">
       <use xlink:href="#MicrosoftYaHei-30"/>
       <use xlink:href="#MicrosoftYaHei-2e" x="58.642578"/>
       <use xlink:href="#MicrosoftYaHei-34" x="82.714844"/>
      </g>
     </g>
    </g>
    <g id="ytick_4">
     <g id="line2d_19">
      <path d="M 51.827953 174.079011 
L 641.778153 174.079011 
" clip-path="url(#p9936a66a5d)" style="fill: none; stroke: #d8d1c5; stroke-opacity: 0.34; stroke-width: 0.85; stroke-linecap: square"/>
     </g>
     <g id="line2d_20">
      <g>
       <use xlink:href="#m089da05a89" x="51.827953" y="174.079011" style="fill: #32383a; stroke: #32383a; stroke-width: 0.8"/>
      </g>
     </g>
     <g id="text_11">
      <!-- 0.6 -->
      <g style="fill: #32383a" transform="translate(29.985219 178.27573) scale(0.105 -0.105)">
       <use xlink:href="#MicrosoftYaHei-30"/>
       <use xlink:href="#MicrosoftYaHei-2e" x="58.642578"/>
       <use xlink:href="#MicrosoftYaHei-36" x="82.714844"/>
      </g>
     </g>
    </g>
    <g id="ytick_5">
     <g id="line2d_21">
      <path d="M 51.827953 108.550732 
L 641.778153 108.550732 
" clip-path="url(#p9936a66a5d)" style="fill: none; stroke: #d8d1c5; stroke-opacity: 0.34; stroke-width: 0.85; stroke-linecap: square"/>
     </g>
     <g id="line2d_22">
      <g>
       <use xlink:href="#m089da05a89" x="51.827953" y="108.550732" style="fill: #32383a; stroke: #32383a; stroke-width: 0.8"/>
      </g>
     </g>
     <g id="text_12">
      <!-- 0.8 -->
      <g style="fill: #32383a" transform="translate(29.985219 112.747451) scale(0.105 -0.105)">
       <use xlink:href="#MicrosoftYaHei-30"/>
       <use xlink:href="#MicrosoftYaHei-2e" x="58.642578"/>
       <use xlink:href="#MicrosoftYaHei-38" x="82.714844"/>
      </g>
     </g>
    </g>
    <g id="ytick_6">
     <g id="line2d_23">
      <path d="M 51.827953 43.022453 
L 641.778153 43.022453 
" clip-path="url(#p9936a66a5d)" style="fill: none; stroke: #d8d1c5; stroke-opacity: 0.34; stroke-width: 0.85; stroke-linecap: square"/>
     </g>
     <g id="line2d_24">
      <g>
       <use xlink:href="#m089da05a89" x="51.827953" y="43.022453" style="fill: #32383a; stroke: #32383a; stroke-width: 0.8"/>
      </g>
     </g>
     <g id="text_13">
      <!-- 1.0 -->
      <g style="fill: #32383a" transform="translate(29.985219 47.219172) scale(0.105 -0.105)">
       <use xlink:href="#MicrosoftYaHei-31"/>
       <use xlink:href="#MicrosoftYaHei-2e" x="58.642578"/>
       <use xlink:href="#MicrosoftYaHei-30" x="82.714844"/>
      </g>
     </g>
    </g>
    <g id="text_14">
     <!-- 平台 A 最终综合份额  $L_A$ -->
     <g transform="translate(16.952375 270.422737) rotate(-90) scale(0.122 -0.122)">
      <defs>
       <path id="MicrosoftYaHei-5e73" d="M 169 1934 
L 2938 1934 
L 2938 4547 
L 450 4547 
L 450 5028 
L 5975 5028 
L 5975 4547 
L 3463 4547 
L 3463 1934 
L 6250 1934 
L 6250 1453 
L 3463 1453 
L 3463 -847 
L 2938 -847 
L 2938 1453 
L 169 1453 
L 169 1934 
z
M 3950 2559 
Q 4638 3284 5188 4159 
L 5656 3859 
Q 4950 2891 4338 2234 
L 3950 2559 
z
M 769 3859 
L 1163 4134 
Q 1863 3316 2369 2553 
L 1925 2222 
Q 1444 3003 769 3859 
z
" transform="scale(0.015625)"/>
       <path id="MicrosoftYaHei-53f0" d="M 5431 2022 
L 5431 -816 
L 4919 -816 
L 4919 -403 
L 1481 -403 
L 1481 -816 
L 969 -816 
L 969 2022 
L 5431 2022 
z
M 4513 4503 
Q 5494 3591 6369 2634 
L 5925 2266 
Q 5675 2559 5419 2844 
Q 2613 2725 1131 2641 
Q 788 2616 469 2541 
L 263 3078 
Q 550 3184 781 3372 
Q 1850 4247 2738 5391 
L 3206 5103 
Q 2269 4003 1250 3147 
Q 3166 3206 5019 3284 
Q 4591 3750 4150 4191 
L 4513 4503 
z
M 4919 1559 
L 1481 1559 
L 1481 47 
L 4919 47 
L 4919 1559 
z
" transform="scale(0.015625)"/>
       <path id="MicrosoftYaHei-41" d="M 4428 0 
L 3738 0 
L 3244 1325 
L 1228 1325 
L 763 0 
L 72 0 
L 1916 4841 
L 2584 4841 
L 4428 0 
z
M 3050 1872 
L 2319 3884 
Q 2284 3981 2244 4222 
L 2228 4222 
Q 2194 4003 2150 3884 
L 1425 1872 
L 3050 1872 
z
" transform="scale(0.015625)"/>
       <path id="MicrosoftYaHei-6700" d="M 169 -28 
Q 475 3 781 38 
L 781 2416 
L 94 2416 
L 94 2791 
L 6288 2791 
L 6288 2416 
L 3025 2416 
L 3025 331 
Q 3325 375 3625 422 
Q 3619 309 3631 22 
Q 3338 -19 3025 -63 
L 3025 -859 
L 2600 -859 
L 2600 -125 
Q 1525 -278 281 -472 
L 169 -28 
z
M 1038 5053 
L 5363 5053 
L 5363 3047 
L 4925 3047 
L 4925 3191 
L 1475 3191 
L 1475 3047 
L 1038 3047 
L 1038 5053 
z
M 3338 1609 
L 3338 1972 
L 5819 1972 
L 5819 1609 
Q 5500 844 4981 278 
Q 5516 -113 6306 -316 
Q 6144 -553 6025 -753 
Q 5219 -488 4666 -34 
Q 4128 -516 3413 -822 
Q 3306 -634 3125 -428 
Q 3834 -156 4347 266 
Q 3825 825 3603 1609 
L 3338 1609 
z
M 1475 3553 
L 4925 3553 
L 4925 3953 
L 1475 3953 
L 1475 3553 
z
M 4925 4691 
L 1475 4691 
L 1475 4291 
L 4925 4291 
L 4925 4691 
z
M 5344 1609 
L 4025 1609 
Q 4222 994 4659 556 
Q 5094 1013 5344 1609 
z
M 2600 269 
L 2600 691 
L 1206 691 
L 1206 88 
Q 1913 172 2600 269 
z
M 1206 1916 
L 2600 1916 
L 2600 2416 
L 1206 2416 
L 1206 1916 
z
M 1206 1053 
L 2600 1053 
L 2600 1553 
L 1206 1553 
L 1206 1053 
z
" transform="scale(0.015625)"/>
       <path id="MicrosoftYaHei-7ec8" d="M 2156 3234 
Q 2944 4253 3356 5366 
L 3825 5209 
Q 3700 4925 3563 4653 
L 5906 4653 
L 5906 4209 
Q 5425 3378 4663 2750 
Q 5381 2259 6350 2097 
Q 6219 1797 6131 1566 
Q 5038 1875 4278 2456 
Q 3447 1878 2331 1503 
Q 2231 1734 2113 1941 
Q 3156 2238 3931 2756 
Q 3434 3228 3119 3847 
Q 2816 3350 2469 2903 
Q 2350 3041 2156 3234 
z
M 888 1528 
Q 1413 1603 2113 1709 
Q 2075 1466 2056 1241 
Q 1344 1141 319 978 
L 219 1434 
Q 594 1828 1163 2794 
Q 506 2753 219 2728 
L 100 3153 
Q 663 3897 1288 5366 
L 1763 5178 
Q 1156 3991 656 3191 
Q 1047 3200 1403 3209 
Q 1638 3625 1900 4122 
L 2369 3916 
Q 1463 2347 888 1528 
z
M 2625 109 
L 2819 547 
Q 3969 234 5675 -297 
L 5444 -791 
Q 3850 -222 2625 109 
z
M 5356 4234 
L 3372 4234 
Q 3750 3513 4303 3028 
Q 4938 3541 5356 4234 
z
M 88 66 
Q 1069 259 2250 547 
Q 2231 203 2231 78 
Q 1375 -109 225 -416 
L 88 66 
z
M 3338 1247 
L 3525 1666 
Q 4469 1384 5413 1047 
L 5206 553 
Q 4275 953 3338 1247 
z
" transform="scale(0.015625)"/>
       <path id="MicrosoftYaHei-7efc" d="M 881 1578 
Q 1550 1684 2100 1778 
Q 2063 1534 2044 1303 
Q 988 1159 306 1022 
L 194 1484 
Q 678 1988 1188 2756 
Q 581 2719 250 2691 
L 131 3116 
Q 813 4022 1394 5347 
L 1869 5159 
Q 1288 4041 694 3153 
Q 1091 3163 1453 3172 
Q 1691 3566 1938 4016 
L 2400 3784 
Q 1588 2484 881 1578 
z
M 2406 2016 
L 6275 2016 
L 6275 1603 
L 4638 1603 
L 4638 3 
Q 4638 -747 3888 -747 
Q 3631 -747 3213 -741 
Q 3181 -553 3119 -259 
Q 3469 -297 3756 -297 
Q 4163 -297 4163 134 
L 4163 1603 
L 2406 1603 
L 2406 2016 
z
M 2513 4528 
L 4166 4528 
Q 3931 4878 3713 5147 
L 4125 5397 
Q 4431 5041 4650 4716 
L 4347 4528 
L 6194 4528 
L 6194 3522 
L 5731 3522 
L 5731 4116 
L 2975 4116 
L 2975 3522 
L 2513 3522 
L 2513 4528 
z
M 2781 3241 
L 5913 3241 
L 5913 2828 
L 2781 2828 
L 2781 3241 
z
M 113 84 
Q 944 197 2175 428 
Q 2138 91 2131 -34 
Q 1425 -147 225 -391 
L 113 84 
z
M 3044 1284 
L 3500 1091 
Q 3081 203 2688 -428 
Q 2469 -309 2238 -197 
Q 2681 466 3044 1284 
z
M 5081 1059 
L 5506 1278 
Q 5931 641 6344 -134 
L 5888 -384 
Q 5469 441 5081 1059 
z
" transform="scale(0.015625)"/>
       <path id="MicrosoftYaHei-5408" d="M 1025 1909 
L 5381 1909 
L 5381 -866 
L 4881 -866 
L 4881 -447 
L 1525 -447 
L 1525 -878 
L 1025 -878 
L 1025 1909 
z
M 3700 5234 
L 3550 5053 
Q 4594 3697 6319 3009 
Q 6125 2734 5988 2509 
Q 5481 2753 5025 3059 
L 5025 2703 
L 1369 2703 
L 1369 3016 
Q 913 2716 394 2428 
Q 269 2641 81 2897 
Q 2013 3866 3000 5234 
L 3700 5234 
z
M 4881 1453 
L 1525 1453 
L 1525 -3 
L 4881 -3 
L 4881 1453 
z
M 3219 4691 
Q 2581 3872 1550 3147 
L 4894 3147 
Q 3944 3797 3219 4691 
z
" transform="scale(0.015625)"/>
       <path id="MicrosoftYaHei-4efd" d="M 2269 2653 
L 5394 2653 
Q 5388 2566 5300 366 
Q 5275 -709 4319 -722 
Q 3806 -722 3425 -703 
Q 3394 -416 3331 -184 
Q 3763 -241 4200 -253 
Q 4806 -297 4813 422 
Q 4863 1259 4888 2216 
L 3481 2216 
Q 3463 1222 3181 572 
Q 2844 -172 2019 -822 
Q 1856 -622 1656 -416 
Q 2450 203 2713 772 
Q 2969 1275 2997 2216 
L 2269 2216 
L 2269 2653 
z
M 75 2353 
Q 969 3534 1525 5284 
L 2013 5116 
Q 1709 4284 1350 3559 
L 1350 -809 
L 875 -809 
L 875 2691 
Q 588 2216 275 1797 
Q 181 2066 75 2353 
z
M 4006 5116 
L 4419 5291 
Q 5038 3703 6325 2972 
Q 6088 2697 5969 2516 
Q 4575 3472 4006 5116 
z
M 1588 2741 
Q 2563 3597 3163 5034 
L 3606 4866 
Q 3025 3409 1963 2397 
Q 1738 2628 1588 2741 
z
" transform="scale(0.015625)"/>
       <path id="MicrosoftYaHei-989d" d="M 863 2484 
L 1094 2834 
Q 1463 2653 1794 2491 
Q 2119 2809 2344 3203 
L 1125 3203 
Q 794 2659 419 2247 
Q 281 2397 125 2547 
Q 719 3172 1100 4072 
L 1513 3934 
Q 1425 3747 1331 3578 
L 2844 3578 
L 2844 3222 
Q 2588 2703 2194 2291 
Q 2738 2016 3194 1778 
L 2938 1372 
Q 2406 1678 1850 1978 
Q 1381 1597 763 1322 
L 2756 1322 
L 2756 -684 
L 2344 -684 
L 2344 -416 
L 1063 -416 
L 1063 -734 
L 650 -734 
L 650 1272 
Q 463 1197 269 1128 
Q 188 1297 63 1509 
Q 869 1766 1444 2191 
Q 1156 2334 863 2484 
z
M 3369 3728 
L 4281 3728 
L 4425 4516 
L 3244 4516 
L 3244 4941 
L 6231 4941 
L 6231 4516 
L 4906 4516 
L 4738 3728 
L 6038 3728 
L 6038 591 
L 5600 591 
L 5600 3303 
L 3806 3303 
L 3806 591 
L 3369 591 
L 3369 3728 
z
M 4481 2916 
L 4931 2916 
Q 4944 1322 4788 709 
Q 5688 78 6356 -453 
L 6044 -853 
Q 5438 -303 4619 291 
Q 4231 -416 3169 -916 
Q 3044 -734 2869 -516 
Q 4019 -3 4294 716 
Q 4519 1216 4481 2916 
z
M 250 4591 
L 1538 4591 
Q 1413 4872 1244 5172 
L 1650 5347 
Q 1881 4916 2031 4591 
L 3138 4591 
L 3138 3709 
L 2713 3709 
L 2713 4216 
L 675 4216 
L 675 3709 
L 250 3709 
L 250 4591 
z
M 2344 934 
L 1063 934 
L 1063 -28 
L 2344 -28 
L 2344 934 
z
" transform="scale(0.015625)"/>
       <path id="DejaVuSans-Oblique-4c" d="M 1075 4666 
L 1709 4666 
L 909 525 
L 3181 525 
L 3078 0 
L 172 0 
L 1075 4666 
z
" transform="scale(0.015625)"/>
       <path id="DejaVuSans-Oblique-41" d="M 2356 4666 
L 3072 4666 
L 3938 0 
L 3278 0 
L 3084 1197 
L 984 1197 
L 325 0 
L -341 0 
L 2356 4666 
z
M 2584 4044 
L 1275 1722 
L 2988 1722 
L 2584 4044 
z
" transform="scale(0.015625)"/>
      </defs>
      <use xlink:href="#MicrosoftYaHei-5e73" transform="translate(0 0.671875)"/>
      <use xlink:href="#MicrosoftYaHei-53f0" transform="translate(100 0.671875)"/>
      <use xlink:href="#MicrosoftYaHei-20" transform="translate(200 0.671875)"/>
      <use xlink:href="#MicrosoftYaHei-41" transform="translate(229.589844 0.671875)"/>
      <use xlink:href="#MicrosoftYaHei-20" transform="translate(299.951172 0.671875)"/>
      <use xlink:href="#MicrosoftYaHei-6700" transform="translate(329.541016 0.671875)"/>
      <use xlink:href="#MicrosoftYaHei-7ec8" transform="translate(429.541016 0.671875)"/>
      <use xlink:href="#MicrosoftYaHei-7efc" transform="translate(529.541016 0.671875)"/>
      <use xlink:href="#MicrosoftYaHei-5408" transform="translate(629.541016 0.671875)"/>
      <use xlink:href="#MicrosoftYaHei-4efd" transform="translate(729.541016 0.671875)"/>
      <use xlink:href="#MicrosoftYaHei-989d" transform="translate(829.541016 0.671875)"/>
      <use xlink:href="#MicrosoftYaHei-20" transform="translate(929.541016 0.671875)"/>
      <use xlink:href="#MicrosoftYaHei-20" transform="translate(959.130859 0.671875)"/>
      <use xlink:href="#DejaVuSans-Oblique-4c" transform="translate(988.720703 0.671875)"/>
      <use xlink:href="#DejaVuSans-Oblique-41" transform="translate(1044.433594 -15.734375) scale(0.7)"/>
     </g>
    </g>
   </g>
   <g id="line2d_25">
    <path d="M 51.827953 174.079011 
L 641.778153 174.079011 
" clip-path="url(#p9936a66a5d)" style="fill: none; stroke-dasharray: 4.6,4.6; stroke-dashoffset: 0; stroke: #687070; stroke-opacity: 0.7; stroke-width: 1.15"/>
   </g>
   <g id="line2d_26">
    <path d="M 51.827953 364.661887 
L 57.727455 364.81539 
L 63.626957 364.963903 
L 69.526459 365.107555 
L 75.425961 365.24647 
L 81.325463 365.380771 
L 87.224965 365.510573 
L 93.124467 365.63599 
L 99.023969 365.757132 
L 104.923471 365.874106 
L 110.822973 365.987012 
L 116.722475 366.095951 
L 122.621977 366.201018 
L 128.521479 366.302305 
L 134.420981 366.3999 
L 140.320483 366.493891 
L 146.219985 366.584358 
L 152.119487 366.671383 
L 158.018989 366.755041 
L 163.918491 366.835406 
L 169.817993 366.912549 
L 175.717495 366.986539 
L 181.616997 367.057439 
L 187.516499 367.125314 
L 193.416001 367.190223 
L 199.315503 367.252222 
L 205.215005 367.311368 
L 211.114507 367.367712 
L 217.014009 367.421304 
L 222.913511 367.472192 
L 228.813013 367.52042 
L 234.712515 367.566032 
L 240.612017 367.609067 
L 246.511519 367.649564 
L 252.411021 367.687559 
L 258.310523 367.723085 
L 264.210025 367.756173 
L 270.109527 367.786854 
L 276.009029 367.815155 
L 281.908531 367.8411 
L 287.808033 367.864712 
L 293.707535 367.886013 
L 299.607037 367.905021 
L 305.506539 367.921754 
L 311.406041 367.936225 
L 317.305543 367.948449 
L 323.205045 367.958435 
L 329.104547 367.966193 
L 335.004049 367.971729 
L 340.903551 367.975049 
L 346.803053 367.976155 
L 352.702555 367.975049 
L 358.602057 367.971729 
L 364.501559 367.966193 
L 370.401061 367.958435 
L 376.300563 367.948449 
L 382.200065 367.936225 
L 388.099567 367.921754 
L 393.999069 367.905021 
L 399.898571 367.886013 
L 405.798073 367.864712 
L 411.697575 367.8411 
L 417.597077 367.815155 
L 423.496579 367.786854 
L 429.396081 367.756173 
L 435.295583 367.723085 
L 441.195085 367.687559 
L 447.094587 367.649564 
L 452.994089 367.609067 
L 458.893591 367.566032 
L 464.793093 367.52042 
L 470.692595 367.472192 
L 476.592097 367.421304 
L 482.491599 367.367712 
L 488.391101 367.311368 
L 494.290603 367.252222 
L 500.190105 367.190223 
L 506.089607 367.125314 
L 511.989109 367.057439 
L 517.888611 366.986539 
L 523.788113 366.912549 
L 529.687615 366.835406 
L 535.587117 366.755041 
L 541.486619 366.671383 
L 547.386121 366.584358 
L 553.285623 366.493891 
L 559.185125 366.3999 
L 565.084627 366.302305 
L 570.984129 366.201018 
L 576.883631 366.095951 
L 582.783133 365.987012 
L 588.682635 365.874106 
L 594.582137 365.757132 
L 600.481639 365.63599 
L 606.381141 365.510573 
L 612.280643 365.380771 
L 618.180145 365.24647 
L 624.079647 365.107555 
L 629.979149 364.963903 
L 635.878651 364.81539 
L 641.778153 364.661887 
" clip-path="url(#p9936a66a5d)" style="fill: none; stroke: #557c83; stroke-width: 2.7; stroke-linecap: round"/>
   </g>
   <g id="line2d_27">
    <path d="M 51.827953 43.159964 
L 57.727455 43.161927 
L 63.626957 43.164019 
L 69.526459 43.166223 
L 75.425961 43.168563 
L 81.325463 43.171034 
L 87.224965 43.173638 
L 93.124467 43.176379 
L 99.023969 43.179258 
L 104.923471 43.182277 
L 110.822973 43.185438 
L 116.722475 43.188751 
L 122.621977 43.192212 
L 128.521479 43.195817 
L 134.420981 43.199583 
L 140.320483 43.203507 
L 146.219985 43.207594 
L 152.119487 43.211845 
L 158.018989 43.21627 
L 163.918491 43.22087 
L 169.817993 43.225642 
L 175.717495 43.230599 
L 181.616997 43.235742 
L 187.516499 43.241074 
L 193.416001 43.246612 
L 199.315503 43.252342 
L 205.215005 43.25828 
L 211.114507 43.264427 
L 217.014009 43.270796 
L 222.913511 43.277389 
L 228.813013 43.284208 
L 234.712515 43.291257 
L 240.612017 43.298557 
L 246.511519 43.306101 
L 252.411021 43.313895 
L 258.310523 43.321953 
L 264.210025 43.330285 
L 270.109527 43.338883 
L 276.009029 43.347779 
L 281.908531 43.35695 
L 287.808033 43.366436 
L 293.707535 43.376233 
L 299.607037 43.386334 
L 305.506539 43.396783 
L 311.406041 43.407527 
L 317.305543 43.418657 
L 323.205045 43.430116 
L 329.104547 360.350558 
L 335.004049 360.638082 
L 340.903551 360.916906 
L 346.803053 361.187277 
L 352.702555 361.449435 
L 358.602057 361.703609 
L 364.501559 361.950025 
L 370.401061 362.1889 
L 376.300563 362.420444 
L 382.200065 362.644861 
L 388.099567 362.862348 
L 393.999069 363.073098 
L 399.898571 363.277295 
L 405.798073 363.47512 
L 411.697575 363.666746 
L 417.597077 363.852343 
L 423.496579 364.032074 
L 429.396081 364.206098 
L 435.295583 364.374567 
L 441.195085 364.537631 
L 447.094587 364.695432 
L 452.994089 364.848111 
L 458.893591 364.995802 
L 464.793093 365.138635 
L 470.692595 365.276737 
L 476.592097 365.41023 
L 482.491599 365.539231 
L 488.391101 365.663854 
L 494.290603 365.78421 
L 500.190105 365.900406 
L 506.089607 366.012543 
L 511.989109 366.120722 
L 517.888611 366.225038 
L 523.788113 366.325583 
L 529.687615 366.422446 
L 535.587117 366.515715 
L 541.486619 366.60547 
L 547.386121 366.691792 
L 553.285623 366.774758 
L 559.185125 366.85444 
L 565.084627 366.93091 
L 570.984129 367.004236 
L 576.883631 367.074482 
L 582.783133 367.141712 
L 588.682635 367.205984 
L 594.582137 367.267357 
L 600.481639 367.325884 
L 606.381141 367.381618 
L 612.280643 367.434609 
L 618.180145 367.484902 
L 624.079647 367.532544 
L 629.979149 367.577577 
L 635.878651 367.62004 
L 641.778153 367.659972 
" clip-path="url(#p9936a66a5d)" style="fill: none; stroke: #2f9c5b; stroke-width: 2.7; stroke-linecap: round"/>
   </g>
   <g id="line2d_28">
    <path d="M 51.827953 367.659972 
L 57.727455 367.62004 
L 63.626957 367.577577 
L 69.526459 367.532544 
L 75.425961 367.484902 
L 81.325463 367.434609 
L 87.224965 367.381618 
L 93.124467 367.325884 
L 99.023969 367.267357 
L 104.923471 367.205984 
L 110.822973 367.141712 
L 116.722475 367.074482 
L 122.621977 367.004236 
L 128.521479 366.93091 
L 134.420981 366.85444 
L 140.320483 366.774758 
L 146.219985 366.691792 
L 152.119487 366.60547 
L 158.018989 366.515715 
L 163.918491 366.422446 
L 169.817993 366.325583 
L 175.717495 366.225038 
L 181.616997 366.120722 
L 187.516499 366.012543 
L 193.416001 365.900406 
L 199.315503 365.78421 
L 205.215005 365.663854 
L 211.114507 365.539231 
L 217.014009 365.41023 
L 222.913511 365.276737 
L 228.813013 365.138635 
L 234.712515 364.995802 
L 240.612017 364.848111 
L 246.511519 364.695432 
L 252.411021 364.537631 
L 258.310523 364.374567 
L 264.210025 364.206098 
L 270.109527 364.032074 
L 276.009029 363.852343 
L 281.908531 363.666746 
L 287.808033 363.47512 
L 293.707535 363.277295 
L 299.607037 363.073098 
L 305.506539 362.862348 
L 311.406041 362.644861 
L 317.305543 362.420444 
L 323.205045 362.1889 
L 329.104547 361.950025 
L 335.004049 361.703609 
L 340.903551 361.449435 
L 346.803053 361.187277 
L 352.702555 360.916906 
L 358.602057 360.638082 
L 364.501559 360.350558 
L 370.401061 43.430116 
L 376.300563 43.418657 
L 382.200065 43.407527 
L 388.099567 43.396783 
L 393.999069 43.386334 
L 399.898571 43.376233 
L 405.798073 43.366436 
L 411.697575 43.35695 
L 417.597077 43.347779 
L 423.496579 43.338883 
L 429.396081 43.330285 
L 435.295583 43.321953 
L 441.195085 43.313895 
L 447.094587 43.306101 
L 452.994089 43.298557 
L 458.893591 43.291257 
L 464.793093 43.284208 
L 470.692595 43.277389 
L 476.592097 43.270796 
L 482.491599 43.264427 
L 488.391101 43.25828 
L 494.290603 43.252342 
L 500.190105 43.246612 
L 506.089607 43.241074 
L 511.989109 43.235742 
L 517.888611 43.230599 
L 523.788113 43.225642 
L 529.687615 43.22087 
L 535.587117 43.21627 
L 541.486619 43.211845 
L 547.386121 43.207594 
L 553.285623 43.203507 
L 559.185125 43.199583 
L 565.084627 43.195817 
L 570.984129 43.192212 
L 576.883631 43.188751 
L 582.783133 43.185438 
L 588.682635 43.182277 
L 594.582137 43.179258 
L 600.481639 43.176379 
L 606.381141 43.173638 
L 612.280643 43.171034 
L 618.180145 43.168563 
L 624.079647 43.166223 
L 629.979149 43.164019 
L 635.878651 43.161927 
L 641.778153 43.159964 
" clip-path="url(#p9936a66a5d)" style="fill: none; stroke: #e58f3a; stroke-width: 2.7; stroke-linecap: round"/>
   </g>
   <g id="patch_3">
    <path d="M 51.827953 370.663848 
L 51.827953 36.469625 
" style="fill: none; stroke: #a9a197; stroke-width: 0.8; stroke-linejoin: miter; stroke-linecap: square"/>
   </g>
   <g id="patch_4">
    <path d="M 51.827953 370.663848 
L 641.778153 370.663848 
" style="fill: none; stroke: #a9a197; stroke-width: 0.8; stroke-linejoin: miter; stroke-linecap: square"/>
   </g>
   <g id="text_15">
    <!-- 对称情形：预算不足时难以突破 -->
    <g style="fill: #557c83" transform="translate(146.219985 328.070467) scale(0.104 -0.104)">
     <defs>
      <path id="MicrosoftYaHei-5bf9" d="M 694 3691 
Q 1234 2909 1741 2166 
Q 2113 3081 2213 4147 
L 250 4147 
L 250 4622 
L 2725 4622 
L 2725 4166 
Q 2553 2809 2059 1700 
Q 2569 953 3044 247 
L 2594 -53 
Q 2203 563 1803 1181 
Q 1247 163 388 -622 
Q 263 -428 81 -166 
Q 975 638 1500 1647 
Q 919 2538 319 3434 
L 694 3691 
z
M 2975 3941 
L 5056 3941 
L 5056 5278 
L 5563 5278 
L 5563 3941 
L 6325 3941 
L 6325 3466 
L 5563 3466 
L 5563 191 
Q 5563 -716 4669 -716 
Q 4388 -716 3744 -709 
Q 3713 -478 3644 -147 
Q 4263 -197 4588 -197 
Q 5056 -197 5056 278 
L 5056 3466 
L 2975 3466 
L 2975 3941 
z
M 3088 2684 
L 3494 2928 
Q 4000 2184 4388 1484 
L 3919 1216 
Q 3550 1922 3088 2684 
z
" transform="scale(0.015625)"/>
      <path id="MicrosoftYaHei-79f0" d="M 81 847 
Q 769 1847 1138 3003 
L 113 3003 
L 113 3428 
L 1150 3428 
L 1150 4372 
Q 725 4322 263 4278 
Q 219 4491 150 4728 
Q 1644 4872 2525 5028 
L 2644 4572 
Q 2156 4497 1594 4428 
L 1594 3428 
L 2406 3428 
L 2406 3278 
Q 2975 4122 3456 5341 
L 3931 5184 
Q 3744 4753 3563 4378 
L 6131 4378 
L 6131 3934 
Q 6000 3603 5644 2884 
Q 5456 2984 5181 3072 
Q 5444 3622 5569 3934 
L 3338 3934 
Q 3006 3291 2694 2841 
Q 2531 3016 2406 3134 
L 2406 3003 
L 1594 3003 
L 1594 2341 
L 1813 2541 
Q 2294 2091 2569 1766 
L 2244 1453 
Q 1906 1859 1594 2178 
L 1594 -853 
L 1150 -853 
L 1150 1897 
Q 794 1003 325 341 
Q 219 603 81 847 
z
M 4006 3628 
L 4481 3628 
L 4481 -34 
Q 4481 -753 3769 -753 
Q 3481 -753 3069 -734 
Q 3038 -503 2994 -228 
Q 3331 -278 3719 -278 
Q 4006 -278 4006 41 
L 4006 3628 
z
M 4806 2434 
L 5238 2628 
Q 5744 1753 6325 416 
L 5838 178 
Q 5325 1416 4806 2434 
z
M 3100 2616 
L 3569 2447 
Q 3150 1172 2656 147 
Q 2456 247 2188 347 
Q 2669 1334 3100 2616 
z
" transform="scale(0.015625)"/>
      <path id="MicrosoftYaHei-60c5" d="M 2806 -797 
L 2331 -797 
L 2331 2372 
L 5844 2372 
L 5844 -41 
Q 5844 -734 5213 -747 
Q 4800 -753 4150 -747 
Q 4119 -547 4056 -266 
Q 4650 -303 5025 -303 
Q 5369 -303 5369 -3 
L 5369 334 
L 2806 334 
L 2806 -797 
z
M 1925 3147 
L 3838 3147 
L 3838 3578 
L 2263 3578 
L 2263 3972 
L 3838 3972 
L 3838 4391 
L 2088 4391 
L 2088 4784 
L 3838 4784 
L 3838 5347 
L 4313 5347 
L 4313 4784 
L 6188 4784 
L 6188 4391 
L 4313 4391 
L 4313 3972 
L 6013 3972 
L 6013 3578 
L 4313 3578 
L 4313 3147 
L 6319 3147 
L 6319 2753 
L 1925 2753 
L 1925 3147 
z
M 931 5291 
L 1375 5291 
L 1375 4019 
L 1613 4191 
Q 1931 3816 2181 3497 
L 1831 3241 
Q 1638 3525 1375 3869 
L 1375 -816 
L 931 -816 
L 931 5291 
z
M 5369 1972 
L 2806 1972 
L 2806 1541 
L 5369 1541 
L 5369 1972 
z
M 2806 722 
L 5369 722 
L 5369 1153 
L 2806 1153 
L 2806 722 
z
M 319 3866 
L 719 3816 
Q 650 3059 494 2209 
Q 350 2247 88 2297 
Q 225 2909 319 3866 
z
" transform="scale(0.015625)"/>
      <path id="MicrosoftYaHei-5f62" d="M 175 2647 
L 1019 2647 
L 1019 4422 
L 350 4422 
L 350 4872 
L 3775 4872 
L 3775 4422 
L 3006 4422 
L 3006 2647 
L 3975 2647 
L 3975 2197 
L 3006 2197 
L 3006 -791 
L 2525 -791 
L 2525 2197 
L 1497 2197 
Q 1500 128 406 -841 
Q 256 -622 75 -428 
Q 1025 366 1016 2197 
L 175 2197 
L 175 2647 
z
M 1500 2647 
L 2525 2647 
L 2525 4422 
L 1500 4422 
L 1500 2647 
z
M 6319 1353 
Q 5331 166 3738 -834 
Q 3631 -666 3388 -422 
Q 4925 397 5956 1672 
L 6319 1353 
z
M 6138 3172 
Q 5250 2159 4019 1347 
Q 3888 1528 3694 1722 
Q 4856 2441 5775 3484 
L 6138 3172 
z
M 6038 4934 
Q 5194 4009 3988 3266 
Q 3875 3428 3675 3666 
Q 4838 4322 5675 5253 
L 6038 4934 
z
" transform="scale(0.015625)"/>
      <path id="MicrosoftYaHei-ff1a" d="M 1606 3531 
Q 1772 3531 1890 3415 
Q 2009 3300 2009 3138 
Q 2009 2975 1893 2858 
Q 1778 2741 1606 2741 
Q 1434 2741 1318 2858 
Q 1203 2975 1203 3138 
Q 1203 3300 1322 3415 
Q 1441 3531 1606 3531 
z
M 1606 716 
Q 1772 716 1890 600 
Q 2009 484 2009 319 
Q 2009 150 1890 36 
Q 1772 -78 1606 -78 
Q 1441 -78 1322 36 
Q 1203 150 1203 319 
Q 1203 484 1322 600 
Q 1441 716 1606 716 
z
" transform="scale(0.015625)"/>
      <path id="MicrosoftYaHei-9884" d="M 531 3872 
L 844 4147 
Q 1069 3947 1275 3747 
L 1938 4553 
L 175 4553 
L 175 4991 
L 2513 4991 
L 2513 4553 
L 1588 3434 
Q 1694 3322 1794 3216 
L 1544 2997 
L 2681 2997 
L 2681 2578 
Q 2581 2097 2369 1466 
Q 2175 1534 1938 1609 
Q 2094 2003 2213 2559 
L 1588 2559 
L 1588 -72 
Q 1588 -784 888 -784 
L 225 -784 
Q 194 -559 138 -278 
Q 450 -316 769 -316 
Q 1119 -316 1119 84 
L 1119 2559 
L 113 2559 
L 113 2997 
L 1344 2997 
Q 938 3484 531 3872 
z
M 2969 3716 
L 4025 3716 
L 4181 4572 
L 2744 4572 
L 2744 5009 
L 6294 5009 
L 6294 4572 
L 4688 4572 
L 4506 3716 
L 6006 3716 
L 6006 641 
L 5550 641 
L 5550 3284 
L 3425 3284 
L 3425 641 
L 2969 641 
L 2969 3716 
z
M 4244 3028 
L 4706 3028 
L 4706 2097 
Q 4706 1366 4519 841 
Q 5500 184 6306 -441 
L 5963 -847 
Q 5200 -197 4325 428 
Q 4263 334 4200 247 
Q 3694 -397 2613 -897 
Q 2413 -641 2263 -484 
Q 3381 -22 3831 572 
Q 4244 1109 4244 2128 
L 4244 3028 
z
" transform="scale(0.015625)"/>
      <path id="MicrosoftYaHei-7b97" d="M 969 3728 
L 2006 3728 
Q 1775 4016 1544 4266 
L 1769 4428 
L 1244 4428 
Q 875 3963 400 3566 
Q 263 3722 88 3884 
Q 856 4484 1300 5347 
L 1831 5347 
Q 1684 5059 1506 4791 
L 3325 4791 
L 3325 4428 
L 1919 4428 
Q 2144 4200 2369 3953 
L 2072 3728 
L 4953 3728 
Q 4716 4003 4425 4266 
L 4641 4428 
L 4019 4428 
Q 3772 4050 3506 3753 
Q 3344 3897 3125 4047 
Q 3656 4603 4000 5347 
L 4538 5347 
Q 4394 5053 4244 4791 
L 6225 4791 
L 6225 4428 
L 4800 4428 
Q 5069 4206 5294 3972 
L 4991 3728 
L 5475 3728 
L 5475 916 
L 5038 916 
L 5038 1122 
L 1406 1122 
L 1406 916 
L 969 916 
L 969 3728 
z
M 150 609 
L 1850 609 
Q 1875 788 1875 1003 
L 2331 1003 
Q 2331 794 2309 609 
L 4356 609 
L 4356 997 
L 4819 997 
L 4819 609 
L 6300 609 
L 6300 222 
L 4819 222 
L 4819 -828 
L 4356 -828 
L 4356 222 
L 2244 222 
Q 2019 -619 763 -884 
Q 644 -691 488 -472 
Q 1525 -297 1756 222 
L 150 222 
L 150 609 
z
M 5038 3378 
L 1406 3378 
L 1406 2959 
L 5038 2959 
L 5038 3378 
z
M 1406 1472 
L 5038 1472 
L 5038 1891 
L 1406 1891 
L 1406 1472 
z
M 1406 2216 
L 5038 2216 
L 5038 2634 
L 1406 2634 
L 1406 2216 
z
" transform="scale(0.015625)"/>
      <path id="MicrosoftYaHei-4e0d" d="M 225 4772 
L 6181 4772 
L 6181 4284 
L 3881 4284 
Q 3581 3766 3081 3053 
L 3444 3053 
L 3444 -866 
L 2906 -866 
L 2906 2859 
Q 1838 1541 388 609 
Q 231 834 38 1059 
Q 2006 2291 3213 4284 
L 225 4284 
L 225 4772 
z
M 4069 2859 
Q 5238 2147 6325 1409 
L 5969 916 
Q 4681 1872 3763 2434 
L 4069 2859 
z
" transform="scale(0.015625)"/>
      <path id="MicrosoftYaHei-8db3" d="M 31 -384 
Q 1081 503 1238 2241 
L 1769 2159 
Q 1694 1559 1531 1041 
Q 2041 63 3050 -100 
L 3050 2822 
L 1400 2822 
L 1400 2553 
L 894 2553 
L 894 5059 
L 5538 5059 
L 5538 2553 
L 5031 2553 
L 5031 2822 
L 3569 2822 
L 3569 1641 
L 5913 1641 
L 5913 1184 
L 3569 1184 
L 3569 -138 
Q 4763 -169 6325 -109 
Q 6225 -359 6144 -628 
Q 4538 -641 3438 -616 
Q 1984 -597 1331 503 
Q 975 -306 363 -872 
Q 219 -628 31 -384 
z
M 5031 4603 
L 1400 4603 
L 1400 3278 
L 5031 3278 
L 5031 4603 
z
" transform="scale(0.015625)"/>
      <path id="MicrosoftYaHei-65f6" d="M 344 4728 
L 2500 4728 
L 2500 -366 
L 2006 -366 
L 2006 153 
L 838 153 
L 838 -441 
L 344 -441 
L 344 4728 
z
M 2706 3941 
L 4925 3941 
L 4925 5322 
L 5425 5322 
L 5425 3941 
L 6313 3941 
L 6313 3478 
L 5425 3478 
L 5425 116 
Q 5425 -722 4625 -722 
Q 4263 -722 3563 -703 
Q 3531 -478 3463 -178 
Q 4119 -228 4488 -228 
Q 4925 -228 4925 216 
L 4925 3478 
L 2706 3478 
L 2706 3941 
z
M 838 616 
L 2006 616 
L 2006 2234 
L 838 2234 
L 838 616 
z
M 2006 4266 
L 838 4266 
L 838 2684 
L 2006 2684 
L 2006 4266 
z
M 3406 2878 
Q 3906 1966 4163 1422 
Q 4000 1347 3663 1172 
Q 3419 1766 2963 2653 
L 3406 2878 
z
" transform="scale(0.015625)"/>
      <path id="MicrosoftYaHei-96be" d="M 2000 2734 
Q 2775 3891 3131 5284 
L 3594 5141 
Q 3441 4694 3281 4297 
L 4609 4297 
Q 4338 4778 4081 5134 
L 4463 5366 
Q 4744 4991 5069 4503 
L 4697 4297 
L 6125 4297 
L 6125 3866 
L 4763 3866 
L 4763 2897 
L 6000 2897 
L 6000 2466 
L 4763 2466 
L 4763 1497 
L 6000 1497 
L 6000 1066 
L 4763 1066 
L 4763 78 
L 6250 78 
L 6250 -353 
L 3188 -353 
L 3188 -809 
L 2725 -809 
L 2725 3072 
Q 2463 2575 2188 2197 
Q 2106 2453 2000 2734 
z
M 638 3716 
Q 997 2991 1331 2306 
Q 1597 3213 1650 4216 
L 269 4216 
L 269 4666 
L 2131 4666 
L 2131 4241 
Q 2009 2875 1616 1719 
Q 2009 903 2363 147 
L 1913 -109 
Q 1644 503 1378 1094 
Q 984 163 394 -622 
Q 275 -428 88 -166 
Q 734 691 1116 1672 
Q 678 2625 244 3516 
L 638 3716 
z
M 3188 78 
L 4300 78 
L 4300 1066 
L 3188 1066 
L 3188 78 
z
M 3188 1497 
L 4300 1497 
L 4300 2466 
L 3188 2466 
L 3188 1497 
z
M 3188 2897 
L 4300 2897 
L 4300 3866 
L 3188 3866 
L 3188 2897 
z
" transform="scale(0.015625)"/>
      <path id="MicrosoftYaHei-4ee5" d="M 4819 5172 
L 5331 5172 
L 5331 4047 
Q 5331 2319 4888 1303 
Q 5663 503 6350 -272 
L 5919 -666 
Q 5278 128 4641 844 
Q 3919 -253 2469 -872 
Q 2325 -678 2131 -441 
Q 3706 284 4250 1241 
Q 4831 2178 4819 4059 
L 4819 5172 
z
M 2881 1709 
Q 2900 1303 2931 1116 
Q 1431 172 1063 -72 
Q 856 -216 669 -384 
L 313 109 
Q 606 372 600 741 
L 600 5084 
L 1113 5084 
L 1113 616 
Q 1800 1028 2881 1709 
z
M 2625 5316 
Q 3044 4653 3556 3728 
L 3069 3453 
Q 2581 4416 2181 5078 
L 2625 5316 
z
" transform="scale(0.015625)"/>
      <path id="MicrosoftYaHei-7a81" d="M 119 -378 
Q 2309 91 2763 1453 
L 275 1453 
L 275 1903 
L 2856 1903 
Q 2888 2272 2894 3022 
L 3406 3022 
Q 3406 2316 3363 1903 
L 6150 1903 
L 6150 1453 
L 3528 1453 
Q 4397 94 6313 -253 
Q 6100 -541 5956 -772 
Q 4059 -309 3181 1147 
Q 2600 -347 444 -853 
Q 325 -659 119 -378 
z
M 369 4472 
L 3147 4472 
Q 2972 4809 2756 5141 
L 3238 5359 
Q 3475 5003 3669 4641 
L 3322 4472 
L 6038 4472 
L 6038 3422 
L 5531 3422 
L 5531 4022 
L 869 4022 
L 869 3397 
L 369 3397 
L 369 4472 
z
M 3944 3778 
Q 5163 3278 6238 2722 
L 5988 2259 
Q 4788 2934 3706 3416 
L 3944 3778 
z
M 2413 3784 
L 2713 3422 
Q 1613 2778 450 2303 
Q 331 2491 156 2709 
Q 1163 3066 2413 3784 
z
M 3725 2678 
L 4025 2978 
Q 4550 2597 4838 2347 
L 4488 2016 
Q 4188 2309 3725 2678 
z
" transform="scale(0.015625)"/>
      <path id="MicrosoftYaHei-7834" d="M 2625 4466 
L 4294 4466 
L 4294 5316 
L 4756 5316 
L 4756 4466 
L 6300 4466 
L 6213 3309 
Q 5950 3334 5756 3334 
L 5825 4028 
L 4756 4028 
L 4756 2847 
L 5981 2847 
L 5981 2403 
Q 5725 1253 4959 419 
Q 5534 -50 6381 -291 
Q 6144 -597 6019 -772 
Q 5178 -453 4600 69 
Q 3953 -494 3031 -884 
Q 2919 -691 2713 -459 
Q 3634 -106 4263 419 
Q 3591 1222 3397 2409 
L 3088 2409 
L 3088 2291 
Q 3088 159 2219 -866 
Q 2069 -678 1863 -478 
Q 2625 422 2625 2284 
L 2625 4466 
z
M 31 1684 
Q 725 2822 1056 4291 
L 231 4291 
L 231 4716 
L 2388 4716 
L 2388 4291 
L 1534 4291 
Q 1359 3563 1122 2922 
L 2200 2922 
L 2200 234 
L 1119 234 
L 1119 -234 
L 694 -234 
L 694 1938 
Q 531 1619 350 1328 
Q 231 1466 31 1684 
z
M 5500 2409 
L 3841 2409 
Q 4028 1413 4616 753 
Q 5269 1453 5500 2409 
z
M 3088 2847 
L 4294 2847 
L 4294 4028 
L 3088 4028 
L 3088 2847 
z
M 1775 647 
L 1775 2509 
L 1119 2509 
L 1119 647 
L 1775 647 
z
" transform="scale(0.015625)"/>
     </defs>
     <use xlink:href="#MicrosoftYaHei-5bf9"/>
     <use xlink:href="#MicrosoftYaHei-79f0" x="100"/>
     <use xlink:href="#MicrosoftYaHei-60c5" x="200"/>
     <use xlink:href="#MicrosoftYaHei-5f62" x="300"/>
     <use xlink:href="#MicrosoftYaHei-ff1a" x="400"/>
     <use xlink:href="#MicrosoftYaHei-9884" x="500"/>
     <use xlink:href="#MicrosoftYaHei-7b97" x="600"/>
     <use xlink:href="#MicrosoftYaHei-4e0d" x="700"/>
     <use xlink:href="#MicrosoftYaHei-8db3" x="800"/>
     <use xlink:href="#MicrosoftYaHei-65f6" x="900"/>
     <use xlink:href="#MicrosoftYaHei-96be" x="1000"/>
     <use xlink:href="#MicrosoftYaHei-4ee5" x="1100"/>
     <use xlink:href="#MicrosoftYaHei-7a81" x="1200"/>
     <use xlink:href="#MicrosoftYaHei-7834" x="1300"/>
    </g>
   </g>
   <g id="text_16">
    <!-- 结构性不对称会改变最优补贴侧重 -->
    <g style="fill: #247b46" transform="translate(158.018989 88.892248) scale(0.107 -0.107)">
     <defs>
      <path id="MicrosoftYaHei-7ed3" d="M 2625 1709 
L 5925 1709 
L 5925 -828 
L 5438 -828 
L 5438 -441 
L 3113 -441 
L 3113 -828 
L 2625 -828 
L 2625 1709 
z
M 2500 2897 
L 4025 2897 
L 4025 3872 
L 2294 3872 
L 2294 4322 
L 4025 4322 
L 4025 5322 
L 4525 5322 
L 4525 4322 
L 6275 4322 
L 6275 3872 
L 4525 3872 
L 4525 2897 
L 6056 2897 
L 6056 2447 
L 2500 2447 
L 2500 2897 
z
M 894 1566 
Q 1725 1684 2269 1778 
Q 2231 1534 2213 1303 
Q 1519 1203 319 1009 
L 219 1472 
Q 619 1888 1172 2791 
Q 647 2756 219 2722 
L 100 3147 
Q 675 3916 1294 5366 
L 1769 5178 
Q 1094 3853 663 3184 
Q 1025 3194 1419 3206 
Q 1631 3569 1863 3997 
L 2325 3766 
Q 1613 2578 894 1566 
z
M 5438 1272 
L 3113 1272 
L 3113 -3 
L 5438 -3 
L 5438 1272 
z
M 75 91 
Q 1231 316 2331 584 
Q 2313 334 2313 109 
Q 1300 -103 213 -391 
L 75 91 
z
" transform="scale(0.015625)"/>
      <path id="MicrosoftYaHei-6784" d="M 2138 3059 
Q 2838 4047 3256 5309 
L 3738 5153 
Q 3556 4722 3388 4347 
L 6081 4347 
Q 5994 1153 5956 397 
Q 5925 -259 5656 -503 
Q 5400 -747 4731 -747 
Q 4238 -747 3700 -716 
Q 3663 -466 3594 -166 
Q 4213 -234 4713 -247 
Q 5144 -253 5294 -97 
Q 5450 34 5469 472 
Q 5513 1316 5575 3891 
L 3169 3891 
Q 2838 3241 2525 2797 
Q 2369 2916 2138 3059 
z
M 81 1359 
Q 731 2372 1000 3578 
L 125 3578 
L 125 3997 
L 1006 3997 
L 1006 5234 
L 1438 5234 
L 1438 3997 
L 2250 3997 
L 2250 3578 
L 1438 3578 
L 1438 2734 
L 1613 2916 
Q 2038 2528 2494 2091 
L 2163 1747 
Q 1775 2191 1438 2516 
L 1438 -834 
L 1006 -834 
L 1006 2384 
Q 700 1409 281 809 
Q 200 1078 81 1359 
z
M 3925 2253 
L 4306 2453 
Q 4763 1666 5250 734 
L 4806 497 
Q 4731 666 4650 834 
Q 3838 784 3050 722 
Q 2856 703 2500 628 
L 2288 1078 
Q 2488 1216 2625 1416 
Q 3138 2222 3638 3397 
L 4106 3203 
Q 3738 2391 2981 1172 
Q 3881 1197 4463 1222 
Q 4213 1741 3925 2253 
z
" transform="scale(0.015625)"/>
      <path id="MicrosoftYaHei-6027" d="M 1963 -153 
L 3988 -153 
L 3988 1522 
L 2375 1522 
L 2375 1959 
L 3988 1959 
L 3988 3472 
L 2975 3472 
Q 2744 2878 2438 2291 
Q 2169 2509 2019 2578 
Q 2644 3709 2894 4891 
L 3388 4759 
Q 3281 4328 3138 3909 
L 3988 3909 
L 3988 5284 
L 4481 5284 
L 4481 3909 
L 6125 3909 
L 6125 3472 
L 4481 3472 
L 4481 1959 
L 6000 1959 
L 6000 1522 
L 4481 1522 
L 4481 -153 
L 6319 -153 
L 6319 -591 
L 1963 -591 
L 1963 -153 
z
M 988 5291 
L 1469 5291 
L 1469 4091 
L 1738 4241 
Q 2063 3734 2294 3291 
L 1906 3041 
Q 1688 3503 1469 3859 
L 1469 -872 
L 988 -872 
L 988 5291 
z
M 406 3878 
L 819 3784 
Q 706 3028 506 2178 
Q 338 2241 75 2297 
Q 263 2978 406 3878 
z
" transform="scale(0.015625)"/>
      <path id="MicrosoftYaHei-4f1a" d="M 4144 972 
Q 5050 166 5706 -541 
L 5300 -903 
Q 5100 -672 4838 -391 
Q 3281 -484 1656 -603 
Q 1394 -628 1125 -741 
L 844 -222 
Q 1150 -109 1363 78 
Q 1906 609 2413 1322 
L 331 1322 
L 331 1784 
L 6069 1784 
L 6069 1322 
L 3044 1322 
Q 2406 516 1800 -109 
Q 3181 -41 4438 22 
Q 4150 316 3806 659 
L 4144 972 
z
M 3200 4747 
Q 1950 3272 394 2372 
Q 244 2597 50 2828 
Q 1844 3747 2956 5253 
L 3625 5253 
L 3506 5097 
Q 4588 3653 6363 2978 
Q 6175 2728 6013 2447 
Q 4200 3328 3200 4747 
z
M 1463 3072 
L 4913 3072 
L 4913 2609 
L 1463 2609 
L 1463 3072 
z
" transform="scale(0.015625)"/>
      <path id="MicrosoftYaHei-6539" d="M 2513 2709 
Q 3106 3791 3575 5341 
L 4069 5197 
Q 3894 4694 3709 4234 
L 6238 4234 
L 6238 3772 
L 5506 3772 
Q 5338 1747 4597 772 
Q 5203 125 6331 -259 
Q 6150 -434 5938 -747 
Q 4863 -234 4272 391 
Q 3634 -259 2363 -847 
Q 2213 -628 1994 -403 
Q 3303 144 3941 791 
Q 3363 1594 3147 2944 
Q 2988 2616 2825 2316 
Q 2669 2541 2513 2709 
z
M 450 2809 
L 2013 2809 
L 2013 4372 
L 331 4372 
L 331 4809 
L 2500 4809 
L 2500 2034 
L 2013 2034 
L 2013 2372 
L 938 2372 
L 938 303 
Q 1700 666 2500 1116 
Q 2544 816 2600 609 
Q 1788 203 931 -278 
Q 700 -441 569 -572 
L 231 -141 
Q 450 59 450 422 
L 450 2809 
z
M 3463 3634 
Q 3681 2050 4269 1184 
Q 4853 2038 5016 3772 
L 3522 3772 
L 3463 3634 
z
" transform="scale(0.015625)"/>
      <path id="MicrosoftYaHei-53d8" d="M 838 1634 
L 838 2066 
L 5088 2066 
L 5088 1634 
Q 4494 853 3659 309 
Q 4675 -178 6313 -297 
Q 6088 -609 5950 -822 
Q 4275 -594 3178 34 
Q 2122 -509 425 -866 
Q 269 -622 106 -403 
Q 1741 -122 2728 328 
Q 2047 838 1553 1634 
L 838 1634 
z
M 231 4534 
L 3081 4534 
Q 2888 4884 2725 5141 
L 3175 5359 
Q 3481 4884 3600 4659 
L 3359 4534 
L 6200 4534 
L 6200 4091 
L 4181 4091 
L 4181 2353 
L 3700 2353 
L 3700 4091 
L 2694 4091 
L 2694 2341 
L 2213 2341 
L 2213 4091 
L 231 4091 
L 231 4534 
z
M 4475 1634 
L 2116 1634 
Q 2575 953 3197 572 
Q 3947 1016 4475 1634 
z
M 4556 3434 
L 4900 3728 
Q 5700 3009 6213 2459 
L 5825 2116 
Q 5219 2797 4556 3434 
z
M 1381 3741 
L 1756 3422 
Q 1119 2691 500 2097 
Q 344 2272 138 2447 
Q 794 3009 1381 3741 
z
" transform="scale(0.015625)"/>
      <path id="MicrosoftYaHei-4f18" d="M 1825 3609 
L 3184 3609 
Q 3216 4322 3213 5272 
L 3713 5272 
Q 3719 4338 3688 3609 
L 6188 3609 
L 6188 3153 
L 4475 3153 
L 4475 228 
Q 4475 -122 4838 -122 
L 5244 -122 
Q 5656 -122 5700 303 
Q 5750 659 5781 1266 
Q 6031 1166 6294 1066 
Q 6244 528 6175 109 
Q 6100 -291 5900 -447 
Q 5713 -603 5275 -597 
L 4763 -597 
Q 4325 -597 4150 -422 
Q 3969 -259 3969 184 
L 3969 3153 
L 3663 3153 
Q 3600 791 1950 -803 
Q 1775 -597 1575 -397 
Q 3100 1028 3159 3153 
L 1825 3153 
L 1825 3609 
z
M 88 2334 
Q 1056 3641 1556 5291 
L 2063 5122 
Q 1753 4253 1388 3522 
L 1388 -809 
L 913 -809 
L 913 2666 
Q 616 2184 288 1778 
Q 194 2047 88 2334 
z
M 4600 5184 
Q 5269 4759 5713 4391 
Q 5538 4197 5388 3991 
Q 4875 4447 4325 4841 
L 4600 5184 
z
" transform="scale(0.015625)"/>
      <path id="MicrosoftYaHei-4fa7" d="M 1763 4922 
L 4094 4922 
L 4094 934 
L 3681 934 
L 3681 4466 
L 2175 4466 
L 2175 947 
L 1763 947 
L 1763 4922 
z
M 75 2347 
Q 844 3678 1200 5278 
L 1625 5172 
Q 1438 4397 1181 3697 
L 1181 -853 
L 769 -853 
L 769 2722 
Q 525 2216 238 1759 
Q 138 2153 75 2347 
z
M 5594 5278 
L 6031 5278 
L 6031 22 
Q 6031 -459 5894 -616 
Q 5763 -784 5356 -797 
Q 5088 -803 4606 -784 
Q 4581 -516 4519 -303 
Q 4938 -353 5194 -353 
Q 5444 -353 5519 -265 
Q 5594 -178 5594 134 
L 5594 5278 
z
M 2719 4022 
L 3131 4022 
L 3131 2566 
Q 3131 1347 2919 678 
L 3219 922 
Q 3838 291 4325 -266 
L 3931 -578 
Q 3456 16 2900 622 
Q 2588 -209 1688 -841 
Q 1581 -684 1369 -484 
Q 2188 22 2450 628 
Q 2719 1197 2719 2509 
L 2719 4022 
z
M 5050 497 
L 4638 497 
L 4638 4678 
L 5050 4678 
L 5050 497 
z
" transform="scale(0.015625)"/>
      <path id="MicrosoftYaHei-91cd" d="M 113 -203 
L 2975 -203 
L 2975 259 
L 600 259 
L 600 628 
L 2975 628 
L 2975 1153 
L 1288 1153 
L 1288 928 
L 850 928 
L 850 3278 
L 2975 3278 
L 2975 3728 
L 163 3728 
L 163 4116 
L 2975 4116 
L 2975 4606 
Q 1841 4572 625 4547 
Q 588 4747 538 4972 
Q 3706 5009 5669 5141 
L 5744 4716 
Q 4631 4663 3425 4619 
L 3425 4116 
L 6263 4116 
L 6263 3728 
L 3425 3728 
L 3425 3278 
L 5569 3278 
L 5569 934 
L 5131 934 
L 5131 1153 
L 3425 1153 
L 3425 628 
L 5806 628 
L 5806 259 
L 3425 259 
L 3425 -203 
L 6263 -203 
L 6263 -591 
L 113 -591 
L 113 -203 
z
M 3425 1516 
L 5131 1516 
L 5131 2053 
L 3425 2053 
L 3425 1516 
z
M 1288 1516 
L 2975 1516 
L 2975 2053 
L 1288 2053 
L 1288 1516 
z
M 5131 2916 
L 3425 2916 
L 3425 2384 
L 5131 2384 
L 5131 2916 
z
M 1288 2384 
L 2975 2384 
L 2975 2916 
L 1288 2916 
L 1288 2384 
z
" transform="scale(0.015625)"/>
     </defs>
     <use xlink:href="#MicrosoftYaHei-7ed3"/>
     <use xlink:href="#MicrosoftYaHei-6784" x="100"/>
     <use xlink:href="#MicrosoftYaHei-6027" x="200"/>
     <use xlink:href="#MicrosoftYaHei-4e0d" x="300"/>
     <use xlink:href="#MicrosoftYaHei-5bf9" x="400"/>
     <use xlink:href="#MicrosoftYaHei-79f0" x="500"/>
     <use xlink:href="#MicrosoftYaHei-4f1a" x="600"/>
     <use xlink:href="#MicrosoftYaHei-6539" x="700"/>
     <use xlink:href="#MicrosoftYaHei-53d8" x="800"/>
     <use xlink:href="#MicrosoftYaHei-6700" x="900"/>
     <use xlink:href="#MicrosoftYaHei-4f18" x="1000"/>
     <use xlink:href="#MicrosoftYaHei-8865" x="1100"/>
     <use xlink:href="#MicrosoftYaHei-8d34" x="1200"/>
     <use xlink:href="#MicrosoftYaHei-4fa7" x="1300"/>
     <use xlink:href="#MicrosoftYaHei-91cd" x="1400"/>
    </g>
   </g>
   <g id="text_17">
    <!-- 实验 8 补充：不同网络效应结构下的补贴比例 -->
    <g transform="translate(179.0406 20.469625) scale(0.166 -0.166)">
     <defs>
      <path id="MicrosoftYaHei-Bold-5b9e" d="M 4219 3716 
Q 4181 2422 4056 1653 
L 6238 1653 
L 6238 878 
L 3863 878 
Q 3850 841 3813 766 
Q 5019 372 6206 -66 
L 5881 -847 
Q 4619 -316 3369 153 
Q 2550 -616 863 -916 
Q 556 -384 331 -78 
Q 2338 209 2894 878 
L 169 878 
L 169 1653 
L 2144 1653 
Q 1481 2053 931 2328 
L 1319 2934 
Q 1894 2659 2638 2247 
L 2244 1653 
L 3175 1653 
Q 3331 2453 3350 3716 
L 4219 3716 
z
M 300 3078 
L 300 4703 
L 2819 4703 
Q 2700 5009 2606 5228 
L 3675 5341 
Q 3769 5084 3888 4703 
L 6094 4703 
L 6094 3078 
L 5225 3078 
L 5225 3953 
L 1169 3953 
L 1169 3078 
L 300 3078 
z
M 1813 3772 
Q 2469 3484 3163 3134 
L 2769 2497 
Q 2031 2909 1450 3184 
L 1813 3772 
z
" transform="scale(0.015625)"/>
      <path id="MicrosoftYaHei-Bold-9a8c" d="M 1138 4053 
L 969 2491 
L 1419 2491 
L 1563 4241 
L 200 4241 
L 200 4991 
L 2369 4991 
L 2163 2491 
L 2525 2491 
Q 2463 691 2413 203 
Q 2369 -553 1838 -672 
Q 1581 -709 644 -709 
Q 588 -253 519 134 
Q 906 91 1350 78 
Q 1669 78 1694 378 
Q 1731 791 1763 1741 
L 181 1741 
L 400 4053 
L 1138 4053 
z
M 5544 2647 
L 3163 2647 
L 3163 2997 
Q 2944 2797 2706 2603 
Q 2525 2991 2300 3391 
Q 3313 4134 3925 5278 
L 4875 5278 
L 4738 5053 
Q 5469 3984 6381 3466 
Q 6163 3116 5950 2691 
Q 5738 2828 5544 2984 
L 5544 2647 
z
M 2556 116 
L 4694 116 
Q 5063 1253 5250 2303 
L 6025 2103 
Q 5775 1141 5438 116 
L 6213 116 
L 6213 -634 
L 2556 -634 
L 2556 116 
z
M 3263 2172 
Q 3569 1397 3856 503 
L 3175 259 
Q 2981 978 2625 1934 
L 3263 2172 
z
M 4425 2428 
Q 4644 1584 4806 753 
L 4113 584 
Q 3988 1366 3763 2278 
L 4425 2428 
z
M 75 1216 
Q 763 1278 1525 1378 
Q 1531 984 1538 628 
Q 838 541 175 428 
L 75 1216 
z
M 4300 4347 
Q 4013 3897 3544 3384 
L 5113 3384 
Q 4663 3859 4300 4347 
z
" transform="scale(0.015625)"/>
      <path id="MicrosoftYaHei-Bold-20" transform="scale(0.015625)"/>
      <path id="MicrosoftYaHei-Bold-38" d="M 269 1303 
Q 269 1725 512 2053 
Q 756 2381 1219 2534 
Q 850 2719 648 3003 
Q 447 3288 447 3634 
Q 447 3997 645 4292 
Q 844 4588 1200 4755 
Q 1556 4922 1997 4922 
Q 2441 4922 2800 4758 
Q 3159 4594 3359 4298 
Q 3559 4003 3559 3647 
Q 3559 3309 3339 3018 
Q 3119 2728 2747 2559 
Q 3200 2403 3453 2076 
Q 3706 1750 3706 1313 
Q 3706 697 3228 309 
Q 2750 -78 1988 -78 
Q 1225 -78 747 309 
Q 269 697 269 1303 
z
M 1278 1394 
Q 1278 1056 1472 853 
Q 1666 650 1991 650 
Q 2303 650 2503 853 
Q 2703 1056 2703 1394 
Q 2703 1709 2500 1920 
Q 2297 2131 1991 2131 
Q 1675 2131 1476 1920 
Q 1278 1709 1278 1394 
z
M 1428 3531 
Q 1428 3266 1592 3077 
Q 1756 2888 2006 2888 
Q 2247 2888 2415 3072 
Q 2584 3256 2584 3531 
Q 2584 3806 2420 3997 
Q 2256 4188 2006 4188 
Q 1750 4188 1589 3997 
Q 1428 3806 1428 3531 
z
" transform="scale(0.015625)"/>
      <path id="MicrosoftYaHei-Bold-8865" d="M 2806 2972 
L 3431 2578 
Q 3084 2116 2728 1688 
L 3338 1284 
L 2819 634 
Q 2350 1006 1925 1325 
L 1925 -866 
L 1056 -866 
L 1056 1528 
Q 713 1181 325 822 
Q 200 1322 44 1766 
Q 944 2491 1569 3309 
L 163 3309 
L 163 4122 
L 1284 4122 
Q 1019 4519 650 4991 
L 1369 5397 
Q 1794 4897 2113 4447 
L 1563 4122 
L 2581 4122 
L 2581 3372 
Q 2297 2941 1925 2488 
L 1925 2194 
Q 2056 2116 2181 2034 
Q 2509 2503 2806 2972 
z
M 4875 3428 
Q 5694 2716 6356 2059 
L 5675 1384 
Q 5150 1975 4569 2566 
L 4569 -866 
L 3663 -866 
L 3663 5297 
L 4569 5297 
L 4569 3156 
L 4875 3428 
z
" transform="scale(0.015625)"/>
      <path id="MicrosoftYaHei-Bold-5145" d="M 4269 3803 
Q 5231 2972 6113 2109 
L 5469 1503 
L 5000 1991 
L 4338 1969 
L 4338 384 
Q 4338 59 4669 59 
L 4913 59 
Q 5188 59 5275 232 
Q 5363 406 5438 1159 
Q 5788 997 6313 816 
Q 6131 -197 5878 -455 
Q 5625 -713 5025 -703 
L 4300 -703 
Q 3463 -703 3463 234 
L 3463 1941 
L 2759 1909 
Q 2603 -241 744 -853 
Q 363 -334 113 -47 
Q 1725 400 1894 1863 
Q 1256 1822 919 1778 
L 594 2522 
Q 1291 2934 2056 3816 
L 213 3816 
L 213 4641 
L 2756 4641 
L 2531 5159 
L 3444 5359 
L 3738 4641 
L 6188 4641 
L 6188 3816 
L 3191 3816 
Q 2634 3206 1956 2609 
Q 2834 2622 4325 2672 
L 3656 3328 
L 4269 3803 
z
" transform="scale(0.015625)"/>
      <path id="MicrosoftYaHei-Bold-ff1a" d="M 1594 3506 
Q 1831 3506 2000 3354 
Q 2169 3203 2169 2981 
Q 2169 2766 2003 2614 
Q 1838 2463 1594 2463 
Q 1353 2463 1189 2616 
Q 1025 2769 1025 2981 
Q 1025 3200 1192 3353 
Q 1359 3506 1594 3506 
z
M 1594 959 
Q 1831 959 2000 806 
Q 2169 653 2169 434 
Q 2169 222 2000 69 
Q 1831 -84 1594 -84 
Q 1356 -84 1190 69 
Q 1025 222 1025 434 
Q 1025 653 1190 806 
Q 1356 959 1594 959 
z
" transform="scale(0.015625)"/>
      <path id="MicrosoftYaHei-Bold-4e0d" d="M 350 4928 
L 6088 4928 
L 6088 4078 
L 3866 4078 
Q 3659 3556 3375 3072 
L 3675 3072 
L 3675 2341 
L 4300 2928 
Q 5144 2178 6338 1078 
L 5606 359 
Q 4809 1284 3675 2316 
L 3675 -853 
L 2731 -853 
L 2731 2141 
Q 1925 1138 725 303 
Q 525 591 88 1128 
Q 2069 2419 2813 4078 
L 350 4078 
L 350 4928 
z
" transform="scale(0.015625)"/>
      <path id="MicrosoftYaHei-Bold-540c" d="M 381 5078 
L 6019 5078 
L 6019 291 
Q 6019 -253 5776 -523 
Q 5534 -794 5107 -801 
Q 4681 -809 4075 -809 
Q 3981 -309 3881 59 
Q 4272 19 4597 19 
Q 4847 19 4950 45 
Q 5053 72 5117 165 
Q 5181 259 5181 416 
L 5181 4297 
L 1219 4297 
L 1219 -797 
L 381 -797 
L 381 5078 
z
M 4875 3078 
L 1525 3078 
L 1525 3791 
L 4875 3791 
L 4875 3078 
z
M 1738 2591 
L 4638 2591 
L 4638 403 
L 2550 403 
L 2550 3 
L 1738 3 
L 1738 2591 
z
M 3825 1103 
L 3825 1891 
L 2550 1891 
L 2550 1103 
L 3825 1103 
z
" transform="scale(0.015625)"/>
      <path id="MicrosoftYaHei-Bold-7f51" d="M 1781 4059 
L 2334 2925 
Q 2581 3484 2800 4091 
L 3222 3897 
L 3556 4047 
L 4063 2950 
Q 4297 3509 4513 4116 
L 5188 3828 
Q 4872 2891 4488 2028 
L 5144 566 
L 4438 216 
L 4059 1128 
Q 3756 528 3425 -34 
Q 3284 75 3147 175 
L 2813 9 
L 2328 1159 
Q 1969 481 1575 -103 
Q 1419 44 1194 228 
L 1194 -809 
L 356 -809 
L 356 5078 
L 6038 5078 
L 6038 278 
Q 6038 -206 5853 -467 
Q 5669 -728 5336 -772 
Q 5003 -816 4094 -816 
Q 4006 -309 3900 59 
Q 4344 16 4800 16 
Q 5200 16 5200 409 
L 5200 4297 
L 1194 4297 
L 1194 3753 
L 1781 4059 
z
M 1194 3628 
L 1194 775 
Q 1584 1381 1928 2066 
Q 1559 2884 1194 3628 
z
M 3216 3088 
Q 2997 2534 2759 2025 
L 3194 1091 
Q 3438 1550 3669 2047 
L 3216 3088 
z
" transform="scale(0.015625)"/>
      <path id="MicrosoftYaHei-Bold-7edc" d="M 1025 3353 
Q 1288 3366 1400 3366 
Q 1644 3791 1900 4334 
L 2638 3997 
Q 2019 2922 1338 1784 
Q 1806 1847 2313 1922 
Q 2269 1503 2263 1147 
Q 975 978 481 859 
L 238 1559 
Q 550 1878 988 2641 
Q 631 2616 325 2578 
L 88 3284 
Q 531 3822 1163 5328 
L 1938 5028 
Q 1488 4172 1025 3353 
z
M 2675 -859 
L 2675 1666 
L 5900 1666 
L 5900 -859 
L 5088 -859 
L 5088 -572 
L 3488 -572 
L 3488 -859 
L 2675 -859 
z
M 238 -497 
L 94 378 
Q 875 459 2463 703 
Q 2425 178 2431 -159 
Q 1038 -353 238 -497 
z
M 5088 884 
L 3488 884 
L 3488 209 
L 5088 209 
L 5088 884 
z
M 2494 3609 
Q 3225 4434 3694 5328 
L 4538 5191 
Q 4394 4934 4244 4703 
L 6038 4703 
L 6038 3953 
Q 5681 3297 5056 2791 
Q 5625 2584 6319 2478 
Q 6188 2009 6131 1666 
Q 5019 1909 4288 2297 
Q 3513 1922 2463 1653 
Q 2288 2134 2150 2397 
Q 2975 2572 3569 2803 
Q 3356 2997 3163 3241 
Q 3006 3084 2894 2972 
Q 2744 3247 2494 3609 
z
M 3781 3972 
Q 3725 3897 3656 3809 
Q 3919 3441 4288 3172 
Q 4800 3509 5063 3972 
L 3781 3972 
z
" transform="scale(0.015625)"/>
      <path id="MicrosoftYaHei-Bold-6548" d="M 1169 2122 
L 1806 1500 
Q 2019 1891 2131 2341 
L 2778 2159 
Q 2425 2663 1944 3203 
L 2550 3634 
Q 2841 3325 3084 3041 
Q 3653 4084 3956 5359 
L 4769 5247 
Q 4666 4809 4506 4366 
L 6294 4366 
L 6294 3534 
L 5931 3534 
Q 5778 1931 5213 928 
Q 5666 353 6319 22 
Q 6100 -278 5788 -809 
Q 5156 -378 4703 216 
Q 4141 -419 3331 -866 
Q 3069 -478 2756 -147 
Q 3644 325 4213 1000 
Q 3863 1697 3688 2556 
Q 3534 2281 3363 2003 
Q 3259 2166 3128 2363 
L 2838 2144 
L 2919 2122 
Q 2725 1472 2394 919 
Q 2791 519 3081 209 
L 2475 -372 
Q 2219 -59 1928 266 
Q 1375 -388 581 -866 
Q 350 -484 56 -91 
Q 856 300 1366 872 
Q 1013 1241 619 1628 
L 1169 2122 
z
M 4713 1772 
Q 5038 2481 5147 3534 
L 4256 3534 
Q 4378 2525 4713 1772 
z
M 200 4553 
L 1388 4553 
Q 1294 4847 1163 5178 
L 2000 5359 
Q 2163 4922 2259 4553 
L 3325 4553 
L 3325 3778 
L 200 3778 
L 200 4553 
z
M 950 3609 
L 1663 3272 
Q 1200 2441 625 1872 
Q 269 2284 75 2466 
Q 588 2984 950 3609 
z
" transform="scale(0.015625)"/>
      <path id="MicrosoftYaHei-Bold-5e94" d="M 1438 2491 
Q 1438 119 794 -866 
Q 506 -597 88 -266 
Q 619 622 613 2603 
L 613 4566 
L 3009 4566 
Q 2894 4853 2781 5116 
L 3788 5353 
Q 3928 5016 4103 4566 
L 6225 4566 
L 6225 3797 
L 1438 3797 
L 1438 2491 
z
M 3013 3309 
L 3794 3541 
Q 4125 2678 4513 1316 
L 3669 1084 
Q 3300 2416 3013 3309 
z
M 1325 316 
L 4300 316 
Q 4681 1541 5200 3453 
L 6069 3228 
Q 5744 2006 5184 316 
L 6250 316 
L 6250 -553 
L 1325 -553 
L 1325 316 
z
M 1475 2984 
L 2225 3303 
Q 2775 2103 3244 828 
L 2406 516 
Q 2006 1684 1475 2984 
z
" transform="scale(0.015625)"/>
      <path id="MicrosoftYaHei-Bold-7ed3" d="M 2538 3128 
L 3850 3128 
L 3850 3809 
L 2472 3809 
L 2681 3709 
Q 1906 2528 1350 1784 
Q 1800 1841 2313 1891 
Q 2275 1466 2263 1116 
Q 894 966 400 834 
L 156 1534 
Q 553 1884 1100 2697 
Q 631 2663 288 2616 
L 56 3328 
Q 550 3934 1138 5366 
L 1963 5059 
Q 1469 4134 988 3397 
L 1563 3425 
L 1938 4066 
L 2350 3869 
L 2350 4553 
L 3850 4553 
L 3850 5341 
L 4725 5341 
L 4725 4553 
L 6288 4553 
L 6288 3809 
L 4725 3809 
L 4725 3128 
L 6100 3128 
L 6100 2384 
L 2538 2384 
L 2538 3128 
z
M 2594 -841 
L 2594 1847 
L 6025 1847 
L 6025 -841 
L 5188 -841 
L 5188 -472 
L 3431 -472 
L 3431 -841 
L 2594 -841 
z
M 5188 1084 
L 3431 1084 
L 3431 291 
L 5188 291 
L 5188 1084 
z
M 231 -516 
L 94 359 
Q 1175 497 2406 684 
Q 2369 159 2375 -184 
Q 1263 -341 231 -516 
z
" transform="scale(0.015625)"/>
      <path id="MicrosoftYaHei-Bold-6784" d="M 75 1709 
Q 550 2447 828 3353 
L 138 3353 
L 138 4091 
L 900 4091 
L 900 5303 
L 1713 5303 
L 1713 4091 
L 2313 4091 
L 2313 3756 
Q 2825 4431 3100 5278 
L 3963 5209 
Q 3850 4903 3719 4616 
L 6056 4616 
Q 6056 3244 6042 2212 
Q 6028 1181 6004 565 
Q 5981 -50 5714 -367 
Q 5447 -684 5051 -725 
Q 4656 -766 3675 -747 
Q 3588 -253 3494 122 
Q 4175 66 4600 66 
Q 4863 66 5023 206 
Q 5184 347 5191 822 
L 4775 609 
L 4644 878 
Q 3147 769 2444 622 
L 2188 1334 
Q 2669 1691 3388 3453 
L 4188 3128 
L 3206 1453 
L 4316 1525 
Q 4106 1928 3875 2347 
L 4519 2684 
Q 4866 2113 5209 1481 
Q 5231 2419 5231 3841 
L 3313 3841 
Q 2991 3297 2594 2822 
Q 2319 3125 2072 3353 
L 1713 3353 
L 1713 2991 
Q 2153 2594 2575 2191 
L 2031 1678 
Q 1872 1906 1713 2116 
L 1713 -822 
L 900 -822 
L 900 1816 
Q 647 1156 288 566 
Q 219 997 75 1709 
z
" transform="scale(0.015625)"/>
      <path id="MicrosoftYaHei-Bold-4e0b" d="M 4038 3372 
Q 5050 2647 6069 1866 
L 5425 1078 
Q 4363 1997 3488 2647 
L 3488 -822 
L 2475 -822 
L 2475 4066 
L 175 4066 
L 175 4947 
L 6213 4947 
L 6213 4066 
L 3488 4066 
L 3488 2822 
L 4038 3372 
z
" transform="scale(0.015625)"/>
      <path id="MicrosoftYaHei-Bold-7684" d="M 1250 5303 
L 2181 5159 
L 1900 4309 
L 2963 4309 
L 2963 3091 
Q 3466 3934 3925 5316 
L 4788 5091 
Q 4650 4675 4494 4278 
L 6106 4278 
L 6034 681 
Q 6019 100 5937 -133 
Q 5856 -366 5684 -512 
Q 5513 -659 5205 -712 
Q 4897 -766 3863 -766 
Q 3769 -216 3625 178 
Q 4088 141 4609 141 
Q 4759 141 4868 175 
Q 4978 209 5048 279 
Q 5119 350 5144 437 
Q 5169 525 5184 1206 
L 5213 2484 
Q 5225 3081 5225 3453 
L 4138 3453 
Q 3931 3016 3700 2603 
Q 3403 2797 2963 2988 
L 2963 -734 
L 2094 -734 
L 2094 -284 
L 1206 -284 
L 1206 -772 
L 338 -772 
L 338 4309 
L 997 4309 
Q 1178 4922 1250 5303 
z
M 2094 3491 
L 1206 3491 
L 1206 2422 
L 2094 2422 
L 2094 3491 
z
M 1206 534 
L 2094 534 
L 2094 1603 
L 1206 1603 
L 1206 534 
z
M 3944 2703 
Q 4394 2166 4913 1397 
L 4125 872 
Q 3650 1653 3219 2203 
L 3944 2703 
z
" transform="scale(0.015625)"/>
      <path id="MicrosoftYaHei-Bold-8d34" d="M 3231 -834 
L 3231 2341 
L 4150 2341 
L 4150 5309 
L 4994 5309 
L 4994 4141 
L 6313 4141 
L 6313 3391 
L 4994 3391 
L 4994 2341 
L 6031 2341 
L 6031 -822 
L 5250 -822 
L 5250 -434 
L 4013 -434 
L 4013 -834 
L 3231 -834 
z
M 5250 1591 
L 4013 1591 
L 4013 316 
L 5250 316 
L 5250 1591 
z
M 350 1147 
L 350 5059 
L 2975 5059 
L 2975 1172 
L 2281 1172 
L 2281 4341 
L 1044 4341 
L 1044 1147 
L 350 1147 
z
M 1338 4078 
L 1988 4078 
L 1988 1841 
Q 1988 1559 1947 1300 
L 3088 -91 
L 2475 -609 
Q 2059 9 1706 503 
Q 1356 -259 563 -822 
Q 381 -547 94 -178 
Q 1338 703 1338 1847 
L 1338 4078 
z
" transform="scale(0.015625)"/>
      <path id="MicrosoftYaHei-Bold-6bd4" d="M 5481 4441 
L 6294 3803 
Q 5234 2791 4119 1894 
L 4119 547 
Q 4119 153 4438 153 
L 4875 153 
Q 5119 153 5197 325 
Q 5275 497 5363 1597 
Q 5856 1409 6294 1278 
Q 6231 688 6131 248 
Q 6031 -191 5900 -358 
Q 5769 -525 5511 -617 
Q 5253 -709 4881 -709 
L 4094 -709 
Q 3194 -709 3194 247 
L 3194 5316 
L 4119 5316 
L 4119 3009 
Q 4797 3656 5481 4441 
z
M 1419 5241 
L 1419 3453 
L 2850 3453 
L 2850 2591 
L 1419 2591 
L 1419 372 
L 2869 866 
Q 2856 372 2888 -78 
Q 1500 -503 725 -922 
L 275 -184 
Q 494 -16 494 366 
L 494 5241 
L 1419 5241 
z
" transform="scale(0.015625)"/>
      <path id="MicrosoftYaHei-Bold-4f8b" d="M 1025 5303 
L 1756 5159 
Q 1619 4544 1431 3950 
L 1431 -803 
L 700 -803 
L 700 2103 
Q 513 1713 300 1334 
Q 250 1722 100 2497 
Q 731 3853 1025 5303 
z
M 5275 5234 
L 6056 5234 
L 6056 184 
Q 6056 -244 5868 -472 
Q 5681 -700 5342 -731 
Q 5003 -763 4381 -747 
Q 4338 -391 4225 116 
Q 4706 84 4963 84 
Q 5275 84 5275 484 
L 5275 5234 
z
M 1788 5022 
L 3975 5022 
L 3975 4259 
L 2922 4259 
Q 2878 3944 2813 3647 
L 3938 3647 
Q 3938 428 2131 -822 
Q 1888 -534 1519 -197 
Q 2294 338 2703 1131 
Q 2425 1422 2106 1688 
Q 1991 1475 1856 1284 
Q 1700 1628 1463 2059 
Q 2006 3003 2156 4259 
L 1788 4259 
L 1788 5022 
z
M 3003 1909 
Q 3125 2366 3156 2891 
L 2622 2891 
Q 2534 2613 2428 2353 
Q 2722 2134 3003 1909 
z
M 4194 4766 
L 4894 4766 
L 4894 572 
L 4194 572 
L 4194 4766 
z
" transform="scale(0.015625)"/>
     </defs>
     <use xlink:href="#MicrosoftYaHei-Bold-5b9e"/>
     <use xlink:href="#MicrosoftYaHei-Bold-9a8c" x="100"/>
     <use xlink:href="#MicrosoftYaHei-Bold-20" x="200"/>
     <use xlink:href="#MicrosoftYaHei-Bold-38" x="229.785156"/>
     <use xlink:href="#MicrosoftYaHei-Bold-20" x="291.455078"/>
     <use xlink:href="#MicrosoftYaHei-Bold-8865" x="321.240234"/>
     <use xlink:href="#MicrosoftYaHei-Bold-5145" x="421.240234"/>
     <use xlink:href="#MicrosoftYaHei-Bold-ff1a" x="521.240234"/>
     <use xlink:href="#MicrosoftYaHei-Bold-4e0d" x="621.240234"/>
     <use xlink:href="#MicrosoftYaHei-Bold-540c" x="721.240234"/>
     <use xlink:href="#MicrosoftYaHei-Bold-7f51" x="821.240234"/>
     <use xlink:href="#MicrosoftYaHei-Bold-7edc" x="921.240234"/>
     <use xlink:href="#MicrosoftYaHei-Bold-6548" x="1021.240234"/>
     <use xlink:href="#MicrosoftYaHei-Bold-5e94" x="1121.240234"/>
     <use xlink:href="#MicrosoftYaHei-Bold-7ed3" x="1221.240234"/>
     <use xlink:href="#MicrosoftYaHei-Bold-6784" x="1321.240234"/>
     <use xlink:href="#MicrosoftYaHei-Bold-4e0b" x="1421.240234"/>
     <use xlink:href="#MicrosoftYaHei-Bold-7684" x="1521.240234"/>
     <use xlink:href="#MicrosoftYaHei-Bold-8865" x="1621.240234"/>
     <use xlink:href="#MicrosoftYaHei-Bold-8d34" x="1721.240234"/>
     <use xlink:href="#MicrosoftYaHei-Bold-6bd4" x="1821.240234"/>
     <use xlink:href="#MicrosoftYaHei-Bold-4f8b" x="1921.240234"/>
    </g>
   </g>
   <g id="PathCollection_1">
    <defs>
     <path id="m9bcf9d022f" d="M 0 3.605551 
C 0.956203 3.605551 1.873372 3.225648 2.54951 2.54951 
C 3.225648 1.873372 3.605551 0.956203 3.605551 0 
C 3.605551 -0.956203 3.225648 -1.873372 2.54951 -2.54951 
C 1.873372 -3.225648 0.956203 -3.605551 0 -3.605551 
C -0.956203 -3.605551 -1.873372 -3.225648 -2.54951 -2.54951 
C -3.225648 -1.873372 -3.605551 -0.956203 -3.605551 0 
C -3.605551 0.956203 -3.225648 1.873372 -2.54951 2.54951 
C -1.873372 3.225648 -0.956203 3.605551 0 3.605551 
z
" style="stroke: #fbfaf6; stroke-width: 1.1"/>
    </defs>
    <g clip-path="url(#p9936a66a5d)">
     <use xlink:href="#m9bcf9d022f" x="51.827953" y="364.661887" style="fill: #557c83; stroke: #fbfaf6; stroke-width: 1.1"/>
    </g>
   </g>
   <g id="PathCollection_2">
    <defs>
     <path id="m88eb6bdc87" d="M 0 3.605551 
C 0.956203 3.605551 1.873372 3.225648 2.54951 2.54951 
C 3.225648 1.873372 3.605551 0.956203 3.605551 0 
C 3.605551 -0.956203 3.225648 -1.873372 2.54951 -2.54951 
C 1.873372 -3.225648 0.956203 -3.605551 0 -3.605551 
C -0.956203 -3.605551 -1.873372 -3.225648 -2.54951 -2.54951 
C -3.225648 -1.873372 -3.605551 -0.956203 -3.605551 0 
C -3.605551 0.956203 -3.225648 1.873372 -2.54951 2.54951 
C -1.873372 3.225648 -0.956203 3.605551 0 3.605551 
z
" style="stroke: #fbfaf6; stroke-width: 1.1"/>
    </defs>
    <g clip-path="url(#p9936a66a5d)">
     <use xlink:href="#m88eb6bdc87" x="51.827953" y="43.159964" style="fill: #2f9c5b; stroke: #fbfaf6; stroke-width: 1.1"/>
    </g>
   </g>
   <g id="PathCollection_3">
    <defs>
     <path id="m19458ace68" d="M 0 3.605551 
C 0.956203 3.605551 1.873372 3.225648 2.54951 2.54951 
C 3.225648 1.873372 3.605551 0.956203 3.605551 0 
C 3.605551 -0.956203 3.225648 -1.873372 2.54951 -2.54951 
C 1.873372 -3.225648 0.956203 -3.605551 0 -3.605551 
C -0.956203 -3.605551 -1.873372 -3.225648 -2.54951 -2.54951 
C -3.225648 -1.873372 -3.605551 -0.956203 -3.605551 0 
C -3.605551 0.956203 -3.225648 1.873372 -2.54951 2.54951 
C -1.873372 3.225648 -0.956203 3.605551 0 3.605551 
z
" style="stroke: #fbfaf6; stroke-width: 1.1"/>
    </defs>
    <g clip-path="url(#p9936a66a5d)">
     <use xlink:href="#m19458ace68" x="641.778153" y="43.159964" style="fill: #e58f3a; stroke: #fbfaf6; stroke-width: 1.1"/>
    </g>
   </g>
   <g id="legend_1">
    <g id="patch_5">
     <path d="M 483.197215 365.963848 
L 635.198153 365.963848 
Q 637.078153 365.963848 637.078153 364.083848 
L 637.078153 321.313848 
Q 637.078153 319.433848 635.198153 319.433848 
L 483.197215 319.433848 
Q 481.317215 319.433848 481.317215 321.313848 
L 481.317215 364.083848 
Q 481.317215 365.963848 483.197215 365.963848 
z
" style="fill: #fbfaf6; opacity: 0.94; stroke: #d7d0c2; stroke-linejoin: miter"/>
    </g>
    <g id="line2d_29">
     <path d="M 485.077215 327.431192 
L 494.477215 327.431192 
L 503.877215 327.431192 
" style="fill: none; stroke: #557c83; stroke-width: 2.7; stroke-linecap: round"/>
    </g>
    <g id="text_18">
     <!-- 对称网络效应  最优ρ=0.00 -->
     <g transform="translate(511.397215 330.721192) scale(0.094 -0.094)">
      <defs>
       <path id="MicrosoftYaHei-7f51" d="M 1075 3641 
L 1444 3834 
Q 1816 3244 2184 2628 
Q 2488 3281 2706 3928 
L 3131 3772 
Q 2822 2931 2450 2175 
Q 2809 1563 3163 922 
L 2738 697 
Q 2478 1191 2203 1691 
Q 1819 969 1375 328 
L 1000 544 
L 1000 -759 
L 531 -759 
L 531 4953 
L 5856 4953 
L 5856 -59 
Q 5856 -728 5138 -728 
Q 4738 -728 4181 -716 
Q 4150 -516 4094 -228 
Q 4619 -272 4988 -272 
Q 5388 -272 5388 72 
L 5388 4503 
L 1000 4503 
L 1000 572 
Q 1538 1363 1947 2150 
Q 1531 2891 1075 3641 
z
M 3156 3341 
L 3519 3553 
Q 3831 3047 4166 2481 
Q 4525 3197 4775 3891 
L 5200 3728 
Q 4847 2838 4428 2028 
Q 4822 1353 5244 597 
L 4825 359 
Q 4513 953 4175 1559 
Q 3788 866 3350 241 
L 2969 484 
Q 3506 1263 3919 2016 
Q 3553 2672 3156 3341 
z
" transform="scale(0.015625)"/>
       <path id="MicrosoftYaHei-7edc" d="M 2244 3241 
Q 3013 4303 3394 5366 
L 3863 5209 
Q 3741 4922 3609 4653 
L 5844 4653 
L 5844 4209 
Q 5391 3431 4694 2831 
Q 5297 2463 6313 2166 
Q 6188 1947 6063 1628 
Q 5028 1988 4294 2528 
Q 3453 1941 2431 1553 
Q 2300 1766 2131 1991 
Q 3091 2316 3906 2853 
Q 3441 3291 3166 3813 
Q 2881 3328 2569 2909 
Q 2450 3047 2244 3241 
z
M 2725 1584 
L 5813 1584 
L 5813 -847 
L 5331 -847 
L 5331 -534 
L 3206 -534 
L 3206 -847 
L 2725 -847 
L 2725 1584 
z
M 900 1616 
Q 1550 1678 2131 1759 
Q 2106 1478 2088 1334 
Q 981 1197 350 1103 
L 250 1559 
Q 609 1822 1256 2941 
Q 659 2900 288 2866 
L 163 3278 
Q 763 4197 1181 5297 
L 1669 5122 
Q 1250 4228 694 3316 
Q 941 3316 1475 3328 
Q 1703 3741 1963 4247 
L 2425 4047 
Q 1675 2716 900 1616 
z
M 5331 1134 
L 3206 1134 
L 3206 -84 
L 5331 -84 
L 5331 1134 
z
M 5275 4228 
L 3419 4228 
Q 3756 3584 4284 3125 
Q 4888 3609 5275 4228 
z
M 163 153 
Q 1200 353 2325 616 
Q 2300 316 2300 141 
Q 1300 -84 300 -341 
L 163 153 
z
" transform="scale(0.015625)"/>
       <path id="MicrosoftYaHei-6548" d="M 4088 5334 
L 4581 5253 
Q 4453 4653 4259 4122 
L 6269 4122 
L 6269 3697 
L 5838 3697 
Q 5672 1869 5050 841 
Q 5572 128 6388 -347 
Q 6188 -622 6050 -841 
Q 5250 -313 4728 391 
Q 4153 -328 3300 -891 
Q 3163 -709 2944 -497 
Q 3872 125 4428 853 
Q 3897 1797 3753 3025 
Q 3603 2766 3431 2528 
Q 3300 2716 3119 2928 
Q 3844 3941 4088 5334 
z
M 694 1909 
L 1031 2203 
Q 1456 1800 1863 1394 
Q 2138 1847 2350 2378 
L 2800 2141 
Q 2538 1550 2209 1047 
Q 2659 591 3088 134 
L 2669 -222 
Q 2275 225 1913 625 
Q 1250 -238 356 -809 
Q 238 -641 31 -397 
Q 947 128 1584 981 
Q 1113 1491 694 1909 
z
M 5344 3697 
L 4125 3697 
Q 4222 2322 4741 1338 
Q 5263 2306 5344 3697 
z
M 175 4297 
L 3325 4297 
L 3325 3872 
L 175 3872 
L 175 4297 
z
M 1063 3628 
L 1475 3372 
Q 963 2641 413 1953 
Q 256 2084 44 2241 
Q 506 2797 1063 3628 
z
M 2344 3609 
Q 2744 3197 3263 2591 
L 2894 2278 
Q 2506 2759 2006 3341 
L 2344 3609 
z
M 1306 5141 
L 1731 5359 
Q 1988 4953 2206 4547 
L 1769 4322 
Q 1544 4772 1306 5141 
z
" transform="scale(0.015625)"/>
       <path id="MicrosoftYaHei-5e94" d="M 2969 5134 
L 3425 5378 
Q 3694 5034 3938 4634 
L 3634 4459 
L 6169 4459 
L 6169 3984 
L 1300 3984 
L 1300 2453 
Q 1300 241 388 -853 
Q 238 -647 25 -422 
Q 775 416 775 2441 
L 775 4459 
L 3419 4459 
Q 3216 4803 2969 5134 
z
M 1263 -9 
L 4153 -9 
Q 4641 1238 5188 3403 
L 5731 3253 
Q 5147 1191 4694 -9 
L 6238 -9 
L 6238 -484 
L 1263 -484 
L 1263 -9 
z
M 1600 3059 
L 2075 3222 
Q 2463 2084 2825 672 
L 2294 509 
Q 2006 1747 1600 3059 
z
M 3106 3372 
L 3588 3509 
Q 3913 2384 4163 991 
L 3613 847 
Q 3431 2084 3106 3372 
z
" transform="scale(0.015625)"/>
       <path id="MicrosoftYaHei-3c1" d="M 1141 322 
L 1141 -1338 
L 531 -1338 
L 531 1769 
Q 531 2613 932 3075 
Q 1334 3538 2084 3538 
Q 2834 3538 3296 3044 
Q 3759 2550 3759 1781 
Q 3759 903 3339 411 
Q 2919 -81 2181 -81 
Q 1538 -81 1153 322 
L 1141 322 
z
M 1141 894 
Q 1272 691 1540 559 
Q 1809 428 2091 428 
Q 3128 428 3128 1753 
Q 3128 2297 2837 2662 
Q 2547 3028 2091 3028 
Q 1141 3028 1141 1775 
L 1141 894 
z
" transform="scale(0.015625)"/>
       <path id="MicrosoftYaHei-3d" d="M 3972 2497 
L 788 2497 
L 788 2969 
L 3972 2969 
L 3972 2497 
z
M 3972 1053 
L 788 1053 
L 788 1525 
L 3972 1525 
L 3972 1053 
z
" transform="scale(0.015625)"/>
      </defs>
      <use xlink:href="#MicrosoftYaHei-5bf9"/>
      <use xlink:href="#MicrosoftYaHei-79f0" x="100"/>
      <use xlink:href="#MicrosoftYaHei-7f51" x="200"/>
      <use xlink:href="#MicrosoftYaHei-7edc" x="300"/>
      <use xlink:href="#MicrosoftYaHei-6548" x="400"/>
      <use xlink:href="#MicrosoftYaHei-5e94" x="500"/>
      <use xlink:href="#MicrosoftYaHei-20" x="600"/>
      <use xlink:href="#MicrosoftYaHei-20" x="629.589844"/>
      <use xlink:href="#MicrosoftYaHei-6700" x="659.179688"/>
      <use xlink:href="#MicrosoftYaHei-4f18" x="759.179688"/>
      <use xlink:href="#MicrosoftYaHei-3c1" x="859.179688"/>
      <use xlink:href="#MicrosoftYaHei-3d" x="922.851562"/>
      <use xlink:href="#MicrosoftYaHei-30" x="997.021484"/>
      <use xlink:href="#MicrosoftYaHei-2e" x="1055.664062"/>
      <use xlink:href="#MicrosoftYaHei-30" x="1079.736328"/>
      <use xlink:href="#MicrosoftYaHei-30" x="1138.378906"/>
     </g>
    </g>
    <g id="line2d_30">
     <path d="M 485.077215 342.004129 
L 494.477215 342.004129 
L 503.877215 342.004129 
" style="fill: none; stroke: #2f9c5b; stroke-width: 2.7; stroke-linecap: round"/>
    </g>
    <g id="text_19">
     <!-- 用户更依赖商户  最优ρ=0.00 -->
     <g transform="translate(511.397215 345.294129) scale(0.094 -0.094)">
      <defs>
       <path id="MicrosoftYaHei-66f4" d="M 106 -422 
Q 1250 -231 1950 166 
Q 1416 534 981 1134 
L 1309 1384 
L 825 1384 
L 825 4003 
L 3019 4003 
Q 3022 4272 3025 4578 
L 331 4578 
L 331 5016 
L 6069 5016 
L 6069 4578 
L 3506 4578 
Q 3506 4269 3503 4003 
L 5575 4003 
L 5575 1078 
L 5100 1078 
L 5100 1384 
L 3350 1384 
Q 3188 644 2834 244 
Q 4088 -216 6325 -209 
Q 6169 -484 6069 -709 
Q 3588 -641 2422 -100 
Q 1703 -575 394 -866 
Q 269 -647 106 -422 
z
M 1300 2903 
L 3006 2903 
Q 3013 3203 3016 3578 
L 1300 3578 
L 1300 2903 
z
M 3000 2484 
L 1300 2484 
L 1300 1809 
L 2947 1809 
Q 2988 2116 3000 2484 
z
M 3422 1809 
L 5100 1809 
L 5100 2484 
L 3481 2484 
Q 3466 2122 3422 1809 
z
M 5100 3578 
L 3500 3578 
Q 3497 3200 3491 2903 
L 5100 2903 
L 5100 3578 
z
M 2369 453 
Q 2706 744 2866 1384 
L 1334 1384 
Q 1766 784 2369 453 
z
" transform="scale(0.015625)"/>
       <path id="MicrosoftYaHei-4f9d" d="M 5681 3141 
L 6038 2753 
Q 5388 2222 4644 1688 
Q 5250 531 6331 -3 
Q 6106 -253 5938 -478 
Q 4159 622 3675 3138 
Q 3413 2719 3100 2322 
L 3100 22 
Q 3631 322 4194 666 
Q 4238 366 4294 159 
Q 3650 -197 3094 -559 
Q 2906 -691 2731 -853 
L 2394 -422 
Q 2613 -216 2613 141 
L 2613 1759 
Q 2153 1266 1600 816 
Q 1494 1034 1344 1297 
Q 2784 2416 3497 3847 
L 1738 3847 
L 1738 4272 
L 6263 4272 
L 6263 3847 
L 4066 3847 
Q 4038 3791 4009 3731 
Q 4153 2831 4441 2125 
Q 5100 2613 5681 3141 
z
M 69 2272 
Q 906 3522 1369 5303 
L 1831 5166 
Q 1578 4341 1275 3625 
L 1275 -841 
L 825 -841 
L 825 2681 
Q 559 2188 263 1759 
Q 175 2022 69 2272 
z
M 3338 5116 
L 3750 5372 
Q 4075 4966 4338 4591 
L 3900 4303 
Q 3638 4741 3338 5116 
z
" transform="scale(0.015625)"/>
       <path id="MicrosoftYaHei-8d56" d="M 1413 -859 
L 1413 1022 
Q 900 97 219 -541 
Q 175 -266 81 -9 
Q 831 678 1331 1641 
L 850 1641 
L 850 1503 
L 425 1503 
L 425 3547 
L 1413 3547 
L 1413 4178 
L 213 4178 
L 213 4591 
L 1413 4591 
L 1413 5316 
L 1850 5316 
L 1850 4591 
L 3063 4591 
L 3063 4178 
L 1850 4178 
L 1850 3547 
L 2838 3547 
L 2838 1503 
L 2413 1503 
L 2413 1641 
L 1850 1641 
L 1850 1047 
L 2044 1297 
Q 2650 847 3031 503 
L 2725 128 
Q 2344 522 1850 928 
L 1850 -859 
L 1413 -859 
z
M 3313 3447 
L 4581 3447 
L 5106 4328 
L 3969 4328 
Q 3625 3778 3225 3366 
Q 3050 3534 2869 3659 
Q 3563 4384 4000 5334 
L 4463 5241 
Q 4344 4991 4219 4759 
L 5656 4759 
L 5656 4353 
L 5088 3447 
L 6013 3447 
L 6013 678 
L 5569 678 
L 5569 3016 
L 3756 3016 
L 3756 678 
L 3313 678 
L 3313 3447 
z
M 4438 2778 
L 4881 2778 
Q 4888 1728 4850 1384 
Q 4825 1028 4719 728 
Q 5531 153 6288 -466 
L 5963 -841 
Q 5238 -184 4531 322 
Q 4088 -441 3031 -859 
Q 2900 -647 2738 -434 
Q 4350 78 4419 1459 
Q 4444 1809 4438 2778 
z
M 850 2041 
L 1413 2041 
L 1413 3147 
L 850 3147 
L 850 2041 
z
M 2413 3147 
L 1850 3147 
L 1850 2041 
L 2413 2041 
L 2413 3147 
z
" transform="scale(0.015625)"/>
       <path id="MicrosoftYaHei-5546" d="M 600 3309 
L 2119 3309 
Q 1903 3625 1650 3934 
L 2031 4191 
Q 2331 3841 2575 3541 
L 2238 3309 
L 3656 3309 
Q 3972 3716 4238 4166 
L 4713 3891 
Q 4416 3538 4213 3309 
L 5769 3309 
L 5769 34 
Q 5769 -753 5050 -759 
Q 4663 -766 4175 -753 
Q 4125 -391 4081 -228 
Q 4575 -278 4894 -278 
Q 5300 -278 5300 172 
L 5300 2878 
L 1069 2878 
L 1069 -834 
L 600 -834 
L 600 3309 
z
M 1950 -216 
L 1950 1797 
L 4456 1797 
L 4456 116 
L 2400 116 
L 2400 -216 
L 1950 -216 
z
M 144 4647 
L 2997 4647 
Q 2878 4869 2706 5141 
L 3188 5359 
Q 3375 5038 3581 4647 
L 6275 4647 
L 6275 4203 
L 144 4203 
L 144 4647 
z
M 4006 516 
L 4006 1397 
L 2400 1397 
L 2400 516 
L 4006 516 
z
M 2431 2809 
L 2769 2484 
Q 2038 1859 1400 1384 
Q 1213 1641 1106 1753 
Q 1794 2209 2431 2809 
z
M 3531 2466 
L 3806 2809 
Q 4731 2228 5206 1878 
L 4894 1484 
Q 4275 1984 3531 2466 
z
" transform="scale(0.015625)"/>
      </defs>
      <use xlink:href="#MicrosoftYaHei-7528"/>
      <use xlink:href="#MicrosoftYaHei-6237" x="100"/>
      <use xlink:href="#MicrosoftYaHei-66f4" x="200"/>
      <use xlink:href="#MicrosoftYaHei-4f9d" x="300"/>
      <use xlink:href="#MicrosoftYaHei-8d56" x="400"/>
      <use xlink:href="#MicrosoftYaHei-5546" x="500"/>
      <use xlink:href="#MicrosoftYaHei-6237" x="600"/>
      <use xlink:href="#MicrosoftYaHei-20" x="700"/>
      <use xlink:href="#MicrosoftYaHei-20" x="729.589844"/>
      <use xlink:href="#MicrosoftYaHei-6700" x="759.179688"/>
      <use xlink:href="#MicrosoftYaHei-4f18" x="859.179688"/>
      <use xlink:href="#MicrosoftYaHei-3c1" x="959.179688"/>
      <use xlink:href="#MicrosoftYaHei-3d" x="1022.851562"/>
      <use xlink:href="#MicrosoftYaHei-30" x="1097.021484"/>
      <use xlink:href="#MicrosoftYaHei-2e" x="1155.664062"/>
      <use xlink:href="#MicrosoftYaHei-30" x="1179.736328"/>
      <use xlink:href="#MicrosoftYaHei-30" x="1238.378906"/>
     </g>
    </g>
    <g id="line2d_31">
     <path d="M 485.077215 356.577067 
L 494.477215 356.577067 
L 503.877215 356.577067 
" style="fill: none; stroke: #e58f3a; stroke-width: 2.7; stroke-linecap: round"/>
    </g>
    <g id="text_20">
     <!-- 商户更依赖用户  最优ρ=1.00 -->
     <g transform="translate(511.397215 359.867067) scale(0.094 -0.094)">
      <use xlink:href="#MicrosoftYaHei-5546"/>
      <use xlink:href="#MicrosoftYaHei-6237" x="100"/>
      <use xlink:href="#MicrosoftYaHei-66f4" x="200"/>
      <use xlink:href="#MicrosoftYaHei-4f9d" x="300"/>
      <use xlink:href="#MicrosoftYaHei-8d56" x="400"/>
      <use xlink:href="#MicrosoftYaHei-7528" x="500"/>
      <use xlink:href="#MicrosoftYaHei-6237" x="600"/>
      <use xlink:href="#MicrosoftYaHei-20" x="700"/>
      <use xlink:href="#MicrosoftYaHei-20" x="729.589844"/>
      <use xlink:href="#MicrosoftYaHei-6700" x="759.179688"/>
      <use xlink:href="#MicrosoftYaHei-4f18" x="859.179688"/>
      <use xlink:href="#MicrosoftYaHei-3c1" x="959.179688"/>
      <use xlink:href="#MicrosoftYaHei-3d" x="1022.851562"/>
      <use xlink:href="#MicrosoftYaHei-31" x="1097.021484"/>
      <use xlink:href="#MicrosoftYaHei-2e" x="1155.664062"/>
      <use xlink:href="#MicrosoftYaHei-30" x="1179.736328"/>
      <use xlink:href="#MicrosoftYaHei-30" x="1238.378906"/>
     </g>
    </g>
   </g>
  </g>
 </g>
 <defs>
  <clipPath id="p9936a66a5d">
   <rect x="51.827953" y="36.469625" width="589.9502" height="334.194223"/>
  </clipPath>
 </defs>
</svg>
