<?xml version="1.0" encoding="utf-8" standalone="no"?>
<!DOCTYPE svg PUBLIC "-//W3C//DTD SVG 1.1//EN"
  "http://www.w3.org/Graphics/SVG/1.1/DTD/svg11.dtd">
<svg xmlns:xlink="http://www.w3.org/1999/xlink" width="699.59952pt" height="425.99952pt" viewBox="0 0 699.59952 425.99952" xmlns="http://www.w3.org/2000/svg" version="1.1">
 <metadata>
  <rdf:RDF xmlns:dc="http://purl.org/dc/elements/1.1/" xmlns:cc="http://creativecommons.org/ns#" xmlns:rdf="http://www.w3.org/1999/02/22-rdf-syntax-ns#">
   <cc:Work>
    <dc:type rdf:resource="http://purl.org/dc/dcmitype/StillImage"/>
    <dc:date>2026-06-05T14:09:21.194553</dc:date>
    <dc:format>image/svg+xml</dc:format>
    <dc:creator>
     <cc:Agent>
      <dc:title>Matplotlib v3.9.2, https://matplotlib.org/</dc:title>
     </cc:Agent>
    </dc:creator>
   </cc:Work>
  </rdf:RDF>
 </metadata>
 <defs>
  <style type="text/css">*{stroke-linejoin: round; stroke-linecap: butt}</style>
 </defs>
 <g id="figure_1">
  <g id="patch_1">
   <path d="M 0 425.99952 
L 699.59952 425.99952 
L 699.59952 -0 
L 0 -0 
z
" style="fill: #f7f5ef"/>
  </g>
  <g id="axes_1">
   <g id="patch_2">
    <path d="M 60.299609 377.696239 
L 692.39952 377.696239 
L 692.39952 39.58875 
L 60.299609 39.58875 
z
" style="fill: #fbfaf6"/>
   </g>
   <g id="patch_3">
    <path d="M 60.299609 101.062839 
L 692.39952 101.062839 
L 692.39952 54.957272 
L 60.299609 54.957272 
z
" clip-path="url(#p8938b5d1b3)" style="fill: #2f9c5b; opacity: 0.055"/>
   </g>
   <g id="line2d_1">
    <path d="M 60.299609 78.559631 
L 692.39952 78.559631 
" clip-path="url(#p8938b5d1b3)" style="fill: none; stroke-dasharray: 2,4; stroke-dashoffset: 0; stroke: #2f9c5b; stroke-opacity: 0.42"/>
   </g>
   <g id="matplotlib.axis_1">
    <g id="xtick_1">
     <g id="line2d_2">
      <path d="M 65.199609 377.696239 
L 65.199609 39.58875 
" clip-path="url(#p8938b5d1b3)" style="fill: none; stroke: #d8d1c5; stroke-opacity: 0.22; stroke-width: 0.75; stroke-linecap: square"/>
     </g>
     <g id="line2d_3">
      <defs>
       <path id="m4301c0d977" d="M 0 0 
L 0 3.5 
" style="stroke: #32383a; stroke-width: 0.8"/>
      </defs>
      <g>
       <use xlink:href="#m4301c0d977" x="65.199609" y="377.696239" style="fill: #32383a; stroke: #32383a; stroke-width: 0.8"/>
      </g>
     </g>
     <g id="text_1">
      <!-- 0 -->
      <g style="fill: #32383a" transform="translate(62.120976 393.089676) scale(0.105 -0.105)">
       <defs>
        <path id="MicrosoftYaHei-30" d="M 284 2325 
Q 284 3606 709 4264 
Q 1134 4922 1941 4922 
Q 3478 4922 3478 2441 
Q 3478 1216 3045 567 
Q 2613 -81 1831 -81 
Q 1094 -81 689 534 
Q 284 1150 284 2325 
z
M 909 2353 
Q 909 425 1888 425 
Q 2850 425 2850 2384 
Q 2850 4413 1906 4413 
Q 909 4413 909 2353 
z
" transform="scale(0.015625)"/>
       </defs>
       <use xlink:href="#MicrosoftYaHei-30"/>
      </g>
     </g>
    </g>
    <g id="xtick_2">
     <g id="line2d_4">
      <path d="M 163.199595 377.696239 
L 163.199595 39.58875 
" clip-path="url(#p8938b5d1b3)" style="fill: none; stroke: #d8d1c5; stroke-opacity: 0.22; stroke-width: 0.75; stroke-linecap: square"/>
     </g>
     <g id="line2d_5">
      <g>
       <use xlink:href="#m4301c0d977" x="163.199595" y="377.696239" style="fill: #32383a; stroke: #32383a; stroke-width: 0.8"/>
      </g>
     </g>
     <g id="text_2">
      <!-- 10 -->
      <g style="fill: #32383a" transform="translate(157.042329 393.089676) scale(0.105 -0.105)">
       <defs>
        <path id="MicrosoftYaHei-31" d="M 1781 0 
L 1781 4141 
Q 1638 3997 1295 3819 
Q 953 3641 663 3569 
L 663 4169 
Q 1047 4275 1484 4508 
Q 1922 4741 2156 4947 
L 2388 4947 
L 2388 0 
L 1781 0 
z
" transform="scale(0.015625)"/>
       </defs>
       <use xlink:href="#MicrosoftYaHei-31"/>
       <use xlink:href="#MicrosoftYaHei-30" x="58.642578"/>
      </g>
     </g>
    </g>
    <g id="xtick_3">
     <g id="line2d_6">
      <path d="M 261.199581 377.696239 
L 261.199581 39.58875 
" clip-path="url(#p8938b5d1b3)" style="fill: none; stroke: #d8d1c5; stroke-opacity: 0.22; stroke-width: 0.75; stroke-linecap: square"/>
     </g>
     <g id="line2d_7">
      <g>
       <use xlink:href="#m4301c0d977" x="261.199581" y="377.696239" style="fill: #32383a; stroke: #32383a; stroke-width: 0.8"/>
      </g>
     </g>
     <g id="text_3">
      <!-- 20 -->
      <g style="fill: #32383a" transform="translate(255.042315 393.089676) scale(0.105 -0.105)">
       <defs>
        <path id="MicrosoftYaHei-32" d="M 2666 3572 
Q 2666 3963 2419 4186 
Q 2172 4409 1747 4409 
Q 1447 4409 1140 4256 
Q 834 4103 569 3819 
L 569 4413 
Q 806 4659 1107 4790 
Q 1409 4922 1816 4922 
Q 2472 4922 2872 4570 
Q 3272 4219 3272 3619 
Q 3272 3084 3026 2693 
Q 2781 2303 2188 1894 
Q 1581 1475 1376 1294 
Q 1172 1113 1090 947 
Q 1009 781 1009 544 
L 3416 544 
L 3416 0 
L 372 0 
L 372 241 
Q 372 659 486 951 
Q 600 1244 862 1520 
Q 1125 1797 1681 2184 
Q 2250 2584 2458 2886 
Q 2666 3188 2666 3572 
z
" transform="scale(0.015625)"/>
       </defs>
       <use xlink:href="#MicrosoftYaHei-32"/>
       <use xlink:href="#MicrosoftYaHei-30" x="58.642578"/>
      </g>
     </g>
    </g>
    <g id="xtick_4">
     <g id="line2d_8">
      <path d="M 359.199567 377.696239 
L 359.199567 39.58875 
" clip-path="url(#p8938b5d1b3)" style="fill: none; stroke: #d8d1c5; stroke-opacity: 0.22; stroke-width: 0.75; stroke-linecap: square"/>
     </g>
     <g id="line2d_9">
      <g>
       <use xlink:href="#m4301c0d977" x="359.199567" y="377.696239" style="fill: #32383a; stroke: #32383a; stroke-width: 0.8"/>
      </g>
     </g>
     <g id="text_4">
      <!-- 30 -->
      <g style="fill: #32383a" transform="translate(353.042301 393.089676) scale(0.105 -0.105)">
       <defs>
        <path id="MicrosoftYaHei-33" d="M 447 809 
Q 944 425 1569 425 
Q 2069 425 2361 670 
Q 2653 916 2653 1328 
Q 2653 2247 1338 2247 
L 934 2247 
L 934 2753 
L 1319 2753 
Q 2484 2753 2484 3616 
Q 2484 4413 1594 4413 
Q 1084 4413 634 4069 
L 634 4647 
Q 1109 4922 1744 4922 
Q 2363 4922 2738 4598 
Q 3113 4275 3113 3759 
Q 3113 2809 2144 2538 
L 2144 2525 
Q 2669 2469 2973 2155 
Q 3278 1841 3278 1372 
Q 3278 719 2808 319 
Q 2338 -81 1556 -81 
Q 869 -81 447 175 
L 447 809 
z
" transform="scale(0.015625)"/>
       </defs>
       <use xlink:href="#MicrosoftYaHei-33"/>
       <use xlink:href="#MicrosoftYaHei-30" x="58.642578"/>
      </g>
     </g>
    </g>
    <g id="xtick_5">
     <g id="line2d_10">
      <path d="M 457.199553 377.696239 
L 457.199553 39.58875 
" clip-path="url(#p8938b5d1b3)" style="fill: none; stroke: #d8d1c5; stroke-opacity: 0.22; stroke-width: 0.75; stroke-linecap: square"/>
     </g>
     <g id="line2d_11">
      <g>
       <use xlink:href="#m4301c0d977" x="457.199553" y="377.696239" style="fill: #32383a; stroke: #32383a; stroke-width: 0.8"/>
      </g>
     </g>
     <g id="text_5">
      <!-- 40 -->
      <g style="fill: #32383a" transform="translate(451.042288 393.089676) scale(0.105 -0.105)">
       <defs>
        <path id="MicrosoftYaHei-34" d="M 2906 4841 
L 2906 1644 
L 3631 1644 
L 3631 1138 
L 2906 1138 
L 2906 0 
L 2313 0 
L 2313 1138 
L 53 1138 
L 53 1616 
Q 656 2294 1265 3178 
Q 1875 4063 2272 4841 
L 2906 4841 
z
M 741 1644 
L 2313 1644 
L 2313 3950 
Q 1988 3366 1616 2817 
Q 1244 2269 741 1644 
z
" transform="scale(0.015625)"/>
       </defs>
       <use xlink:href="#MicrosoftYaHei-34"/>
       <use xlink:href="#MicrosoftYaHei-30" x="58.642578"/>
      </g>
     </g>
    </g>
    <g id="xtick_6">
     <g id="line2d_12">
      <path d="M 555.199539 377.696239 
L 555.199539 39.58875 
" clip-path="url(#p8938b5d1b3)" style="fill: none; stroke: #d8d1c5; stroke-opacity: 0.22; stroke-width: 0.75; stroke-linecap: square"/>
     </g>
     <g id="line2d_13">
      <g>
       <use xlink:href="#m4301c0d977" x="555.199539" y="377.696239" style="fill: #32383a; stroke: #32383a; stroke-width: 0.8"/>
      </g>
     </g>
     <g id="text_6">
      <!-- 50 -->
      <g style="fill: #32383a" transform="translate(549.042274 393.089676) scale(0.105 -0.105)">
       <defs>
        <path id="MicrosoftYaHei-35" d="M 3294 1494 
Q 3294 784 2823 350 
Q 2353 -84 1559 -84 
Q 878 -84 544 119 
L 544 744 
Q 1034 425 1544 425 
Q 2050 425 2361 704 
Q 2672 984 2672 1447 
Q 2672 1909 2348 2167 
Q 2025 2425 1434 2425 
Q 978 2425 613 2384 
L 791 4841 
L 3053 4841 
L 3053 4303 
L 1306 4303 
L 1206 2931 
L 1647 2950 
Q 2416 2950 2855 2567 
Q 3294 2184 3294 1494 
z
" transform="scale(0.015625)"/>
       </defs>
       <use xlink:href="#MicrosoftYaHei-35"/>
       <use xlink:href="#MicrosoftYaHei-30" x="58.642578"/>
      </g>
     </g>
    </g>
    <g id="text_7">
     <!-- 时间 t -->
     <g transform="translate(359.67183 415.692098) scale(0.125 -0.125)">
      <defs>
       <path id="MicrosoftYaHei-65f6" d="M 344 4728 
L 2500 4728 
L 2500 -366 
L 2006 -366 
L 2006 153 
L 838 153 
L 838 -441 
L 344 -441 
L 344 4728 
z
M 2706 3941 
L 4925 3941 
L 4925 5322 
L 5425 5322 
L 5425 3941 
L 6313 3941 
L 6313 3478 
L 5425 3478 
L 5425 116 
Q 5425 -722 4625 -722 
Q 4263 -722 3563 -703 
Q 3531 -478 3463 -178 
Q 4119 -228 4488 -228 
Q 4925 -228 4925 216 
L 4925 3478 
L 2706 3478 
L 2706 3941 
z
M 838 616 
L 2006 616 
L 2006 2234 
L 838 2234 
L 838 616 
z
M 2006 4266 
L 838 4266 
L 838 2684 
L 2006 2684 
L 2006 4266 
z
M 3406 2878 
Q 3906 1966 4163 1422 
Q 4000 1347 3663 1172 
Q 3419 1766 2963 2653 
L 3406 2878 
z
" transform="scale(0.015625)"/>
       <path id="MicrosoftYaHei-95f4" d="M 1863 3647 
L 4513 3647 
L 4513 553 
L 2313 553 
L 2313 166 
L 1863 166 
L 1863 3647 
z
M 2388 4453 
L 2388 4922 
L 6013 4922 
L 6013 -28 
Q 6013 -816 5119 -816 
Q 4756 -816 4169 -803 
Q 4144 -616 4069 -297 
Q 4588 -334 5056 -334 
Q 5525 -334 5525 122 
L 5525 4453 
L 2388 4453 
z
M 419 4084 
L 906 4084 
L 906 -816 
L 419 -816 
L 419 4084 
z
M 2313 997 
L 4063 997 
L 4063 1884 
L 2313 1884 
L 2313 997 
z
M 4063 3203 
L 2313 3203 
L 2313 2328 
L 4063 2328 
L 4063 3203 
z
M 744 5003 
L 1100 5322 
Q 1575 4872 1981 4447 
L 1575 4091 
Q 1194 4541 744 5003 
z
" transform="scale(0.015625)"/>
       <path id="MicrosoftYaHei-20" transform="scale(0.015625)"/>
       <path id="MicrosoftYaHei-74" d="M 2206 34 
Q 2006 -75 1666 -75 
Q 738 -75 738 953 
L 738 2950 
L 144 2950 
L 144 3456 
L 738 3456 
L 738 4288 
L 1347 4481 
L 1347 3456 
L 2206 3456 
L 2206 2950 
L 1347 2950 
L 1347 1063 
Q 1347 722 1462 575 
Q 1578 428 1847 428 
Q 2053 428 2206 544 
L 2206 34 
z
" transform="scale(0.015625)"/>
      </defs>
      <use xlink:href="#MicrosoftYaHei-65f6"/>
      <use xlink:href="#MicrosoftYaHei-95f4" x="100"/>
      <use xlink:href="#MicrosoftYaHei-20" x="200"/>
      <use xlink:href="#MicrosoftYaHei-74" x="229.589844"/>
     </g>
    </g>
   </g>
   <g id="matplotlib.axis_2">
    <g id="ytick_1">
     <g id="line2d_14">
      <path d="M 60.299609 370.011978 
L 692.39952 370.011978 
" clip-path="url(#p8938b5d1b3)" style="fill: none; stroke: #cfc8ba; stroke-opacity: 0.45; stroke-width: 0.85; stroke-linecap: square"/>
     </g>
     <g id="line2d_15">
      <defs>
       <path id="m4ec7c945e7" d="M 0 0 
L -3.5 0 
" style="stroke: #32383a; stroke-width: 0.8"/>
      </defs>
      <g>
       <use xlink:href="#m4ec7c945e7" x="60.299609" y="370.011978" style="fill: #32383a; stroke: #32383a; stroke-width: 0.8"/>
      </g>
     </g>
     <g id="text_8">
      <!-- 0.45 -->
      <g style="fill: #32383a" transform="translate(32.299609 374.208696) scale(0.105 -0.105)">
       <defs>
        <path id="MicrosoftYaHei-2e" d="M 372 322 
Q 372 491 487 606 
Q 603 722 775 722 
Q 950 722 1065 605 
Q 1181 488 1181 322 
Q 1181 159 1065 42 
Q 950 -75 772 -75 
Q 600 -75 486 42 
Q 372 159 372 322 
z
" transform="scale(0.015625)"/>
       </defs>
       <use xlink:href="#MicrosoftYaHei-30"/>
       <use xlink:href="#MicrosoftYaHei-2e" x="58.642578"/>
       <use xlink:href="#MicrosoftYaHei-34" x="82.714844"/>
       <use xlink:href="#MicrosoftYaHei-35" x="141.357422"/>
      </g>
     </g>
    </g>
    <g id="ytick_2">
     <g id="line2d_16">
      <path d="M 60.299609 331.590672 
L 692.39952 331.590672 
" clip-path="url(#p8938b5d1b3)" style="fill: none; stroke: #cfc8ba; stroke-opacity: 0.45; stroke-width: 0.85; stroke-linecap: square"/>
     </g>
     <g id="line2d_17">
      <g>
       <use xlink:href="#m4ec7c945e7" x="60.299609" y="331.590672" style="fill: #32383a; stroke: #32383a; stroke-width: 0.8"/>
      </g>
     </g>
     <g id="text_9">
      <!-- 0.50 -->
      <g style="fill: #32383a" transform="translate(32.299609 335.787391) scale(0.105 -0.105)">
       <use xlink:href="#MicrosoftYaHei-30"/>
       <use xlink:href="#MicrosoftYaHei-2e" x="58.642578"/>
       <use xlink:href="#MicrosoftYaHei-35" x="82.714844"/>
       <use xlink:href="#MicrosoftYaHei-30" x="141.357422"/>
      </g>
     </g>
    </g>
    <g id="ytick_3">
     <g id="line2d_18">
      <path d="M 60.299609 293.169367 
L 692.39952 293.169367 
" clip-path="url(#p8938b5d1b3)" style="fill: none; stroke: #cfc8ba; stroke-opacity: 0.45; stroke-width: 0.85; stroke-linecap: square"/>
     </g>
     <g id="line2d_19">
      <g>
       <use xlink:href="#m4ec7c945e7" x="60.299609" y="293.169367" style="fill: #32383a; stroke: #32383a; stroke-width: 0.8"/>
      </g>
     </g>
     <g id="text_10">
      <!-- 0.55 -->
      <g style="fill: #32383a" transform="translate(32.299609 297.366085) scale(0.105 -0.105)">
       <use xlink:href="#MicrosoftYaHei-30"/>
       <use xlink:href="#MicrosoftYaHei-2e" x="58.642578"/>
       <use xlink:href="#MicrosoftYaHei-35" x="82.714844"/>
       <use xlink:href="#MicrosoftYaHei-35" x="141.357422"/>
      </g>
     </g>
    </g>
    <g id="ytick_4">
     <g id="line2d_20">
      <path d="M 60.299609 254.748061 
L 692.39952 254.748061 
" clip-path="url(#p8938b5d1b3)" style="fill: none; stroke: #cfc8ba; stroke-opacity: 0.45; stroke-width: 0.85; stroke-linecap: square"/>
     </g>
     <g id="line2d_21">
      <g>
       <use xlink:href="#m4ec7c945e7" x="60.299609" y="254.748061" style="fill: #32383a; stroke: #32383a; stroke-width: 0.8"/>
      </g>
     </g>
     <g id="text_11">
      <!-- 0.60 -->
      <g style="fill: #32383a" transform="translate(32.299609 258.94478) scale(0.105 -0.105)">
       <defs>
        <path id="MicrosoftYaHei-36" d="M 3181 4219 
Q 2803 4413 2391 4413 
Q 1763 4413 1381 3866 
Q 1000 3319 994 2372 
L 1009 2372 
Q 1353 3038 2106 3038 
Q 2734 3038 3109 2628 
Q 3484 2219 3484 1541 
Q 3484 831 3051 375 
Q 2619 -81 1947 -81 
Q 1209 -81 789 495 
Q 369 1072 369 2131 
Q 369 3413 920 4167 
Q 1472 4922 2372 4922 
Q 2888 4922 3181 4781 
L 3181 4219 
z
M 1031 1584 
Q 1031 1106 1286 765 
Q 1541 425 1963 425 
Q 2363 425 2613 719 
Q 2863 1013 2863 1475 
Q 2863 1975 2627 2253 
Q 2391 2531 1956 2531 
Q 1544 2531 1287 2250 
Q 1031 1969 1031 1584 
z
" transform="scale(0.015625)"/>
       </defs>
       <use xlink:href="#MicrosoftYaHei-30"/>
       <use xlink:href="#MicrosoftYaHei-2e" x="58.642578"/>
       <use xlink:href="#MicrosoftYaHei-36" x="82.714844"/>
       <use xlink:href="#MicrosoftYaHei-30" x="141.357422"/>
      </g>
     </g>
    </g>
    <g id="ytick_5">
     <g id="line2d_22">
      <path d="M 60.299609 216.326755 
L 692.39952 216.326755 
" clip-path="url(#p8938b5d1b3)" style="fill: none; stroke: #cfc8ba; stroke-opacity: 0.45; stroke-width: 0.85; stroke-linecap: square"/>
     </g>
     <g id="line2d_23">
      <g>
       <use xlink:href="#m4ec7c945e7" x="60.299609" y="216.326755" style="fill: #32383a; stroke: #32383a; stroke-width: 0.8"/>
      </g>
     </g>
     <g id="text_12">
      <!-- 0.65 -->
      <g style="fill: #32383a" transform="translate(32.299609 220.523474) scale(0.105 -0.105)">
       <use xlink:href="#MicrosoftYaHei-30"/>
       <use xlink:href="#MicrosoftYaHei-2e" x="58.642578"/>
       <use xlink:href="#MicrosoftYaHei-36" x="82.714844"/>
       <use xlink:href="#MicrosoftYaHei-35" x="141.357422"/>
      </g>
     </g>
    </g>
    <g id="ytick_6">
     <g id="line2d_24">
      <path d="M 60.299609 177.90545 
L 692.39952 177.90545 
" clip-path="url(#p8938b5d1b3)" style="fill: none; stroke: #cfc8ba; stroke-opacity: 0.45; stroke-width: 0.85; stroke-linecap: square"/>
     </g>
     <g id="line2d_25">
      <g>
       <use xlink:href="#m4ec7c945e7" x="60.299609" y="177.90545" style="fill: #32383a; stroke: #32383a; stroke-width: 0.8"/>
      </g>
     </g>
     <g id="text_13">
      <!-- 0.70 -->
      <g style="fill: #32383a" transform="translate(32.299609 182.102169) scale(0.105 -0.105)">
       <defs>
        <path id="MicrosoftYaHei-37" d="M 3422 4463 
Q 2659 3131 2223 1998 
Q 1788 866 1684 0 
L 1047 0 
Q 1163 853 1594 1947 
Q 2025 3041 2747 4300 
L 347 4300 
L 347 4841 
L 3422 4841 
L 3422 4463 
z
" transform="scale(0.015625)"/>
       </defs>
       <use xlink:href="#MicrosoftYaHei-30"/>
       <use xlink:href="#MicrosoftYaHei-2e" x="58.642578"/>
       <use xlink:href="#MicrosoftYaHei-37" x="82.714844"/>
       <use xlink:href="#MicrosoftYaHei-30" x="141.357422"/>
      </g>
     </g>
    </g>
    <g id="ytick_7">
     <g id="line2d_26">
      <path d="M 60.299609 139.484144 
L 692.39952 139.484144 
" clip-path="url(#p8938b5d1b3)" style="fill: none; stroke: #cfc8ba; stroke-opacity: 0.45; stroke-width: 0.85; stroke-linecap: square"/>
     </g>
     <g id="line2d_27">
      <g>
       <use xlink:href="#m4ec7c945e7" x="60.299609" y="139.484144" style="fill: #32383a; stroke: #32383a; stroke-width: 0.8"/>
      </g>
     </g>
     <g id="text_14">
      <!-- 0.75 -->
      <g style="fill: #32383a" transform="translate(32.299609 143.680863) scale(0.105 -0.105)">
       <use xlink:href="#MicrosoftYaHei-30"/>
       <use xlink:href="#MicrosoftYaHei-2e" x="58.642578"/>
       <use xlink:href="#MicrosoftYaHei-37" x="82.714844"/>
       <use xlink:href="#MicrosoftYaHei-35" x="141.357422"/>
      </g>
     </g>
    </g>
    <g id="ytick_8">
     <g id="line2d_28">
      <path d="M 60.299609 101.062839 
L 692.39952 101.062839 
" clip-path="url(#p8938b5d1b3)" style="fill: none; stroke: #cfc8ba; stroke-opacity: 0.45; stroke-width: 0.85; stroke-linecap: square"/>
     </g>
     <g id="line2d_29">
      <g>
       <use xlink:href="#m4ec7c945e7" x="60.299609" y="101.062839" style="fill: #32383a; stroke: #32383a; stroke-width: 0.8"/>
      </g>
     </g>
     <g id="text_15">
      <!-- 0.80 -->
      <g style="fill: #32383a" transform="translate(32.299609 105.259558) scale(0.105 -0.105)">
       <defs>
        <path id="MicrosoftYaHei-38" d="M 306 1350 
Q 306 1769 556 2122 
Q 806 2475 1200 2625 
Q 884 2803 700 3081 
Q 516 3359 516 3684 
Q 516 4028 692 4312 
Q 869 4597 1183 4759 
Q 1497 4922 1875 4922 
Q 2256 4922 2572 4761 
Q 2888 4600 3063 4315 
Q 3238 4031 3238 3684 
Q 3238 3366 3058 3086 
Q 2878 2806 2559 2625 
Q 2953 2472 3200 2119 
Q 3447 1766 3447 1350 
Q 3447 938 3250 611 
Q 3053 284 2690 103 
Q 2328 -78 1875 -78 
Q 1425 -78 1065 103 
Q 706 284 506 612 
Q 306 941 306 1350 
z
M 906 1378 
Q 906 947 1172 687 
Q 1438 428 1878 428 
Q 2309 428 2582 692 
Q 2856 956 2856 1378 
Q 2856 1778 2579 2051 
Q 2303 2325 1878 2325 
Q 1456 2325 1181 2058 
Q 906 1791 906 1378 
z
M 1081 3634 
Q 1081 3309 1312 3076 
Q 1544 2844 1878 2844 
Q 2206 2844 2445 3078 
Q 2684 3313 2684 3634 
Q 2684 3963 2454 4191 
Q 2225 4419 1878 4419 
Q 1534 4419 1307 4195 
Q 1081 3972 1081 3634 
z
" transform="scale(0.015625)"/>
       </defs>
       <use xlink:href="#MicrosoftYaHei-30"/>
       <use xlink:href="#MicrosoftYaHei-2e" x="58.642578"/>
       <use xlink:href="#MicrosoftYaHei-38" x="82.714844"/>
       <use xlink:href="#MicrosoftYaHei-30" x="141.357422"/>
      </g>
     </g>
    </g>
    <g id="ytick_9">
     <g id="line2d_30">
      <path d="M 60.299609 62.641533 
L 692.39952 62.641533 
" clip-path="url(#p8938b5d1b3)" style="fill: none; stroke: #cfc8ba; stroke-opacity: 0.45; stroke-width: 0.85; stroke-linecap: square"/>
     </g>
     <g id="line2d_31">
      <g>
       <use xlink:href="#m4ec7c945e7" x="60.299609" y="62.641533" style="fill: #32383a; stroke: #32383a; stroke-width: 0.8"/>
      </g>
     </g>
     <g id="text_16">
      <!-- 0.85 -->
      <g style="fill: #32383a" transform="translate(32.299609 66.838252) scale(0.105 -0.105)">
       <use xlink:href="#MicrosoftYaHei-30"/>
       <use xlink:href="#MicrosoftYaHei-2e" x="58.642578"/>
       <use xlink:href="#MicrosoftYaHei-38" x="82.714844"/>
       <use xlink:href="#MicrosoftYaHei-35" x="141.357422"/>
      </g>
     </g>
    </g>
    <g id="text_17">
     <!-- 平台 A 用户份额  u(t) -->
     <g transform="translate(17.192187 268.293862) rotate(-90) scale(0.125 -0.125)">
      <defs>
       <path id="MicrosoftYaHei-5e73" d="M 169 1934 
L 2938 1934 
L 2938 4547 
L 450 4547 
L 450 5028 
L 5975 5028 
L 5975 4547 
L 3463 4547 
L 3463 1934 
L 6250 1934 
L 6250 1453 
L 3463 1453 
L 3463 -847 
L 2938 -847 
L 2938 1453 
L 169 1453 
L 169 1934 
z
M 3950 2559 
Q 4638 3284 5188 4159 
L 5656 3859 
Q 4950 2891 4338 2234 
L 3950 2559 
z
M 769 3859 
L 1163 4134 
Q 1863 3316 2369 2553 
L 1925 2222 
Q 1444 3003 769 3859 
z
" transform="scale(0.015625)"/>
       <path id="MicrosoftYaHei-53f0" d="M 5431 2022 
L 5431 -816 
L 4919 -816 
L 4919 -403 
L 1481 -403 
L 1481 -816 
L 969 -816 
L 969 2022 
L 5431 2022 
z
M 4513 4503 
Q 5494 3591 6369 2634 
L 5925 2266 
Q 5675 2559 5419 2844 
Q 2613 2725 1131 2641 
Q 788 2616 469 2541 
L 263 3078 
Q 550 3184 781 3372 
Q 1850 4247 2738 5391 
L 3206 5103 
Q 2269 4003 1250 3147 
Q 3166 3206 5019 3284 
Q 4591 3750 4150 4191 
L 4513 4503 
z
M 4919 1559 
L 1481 1559 
L 1481 47 
L 4919 47 
L 4919 1559 
z
" transform="scale(0.015625)"/>
       <path id="MicrosoftYaHei-41" d="M 4428 0 
L 3738 0 
L 3244 1325 
L 1228 1325 
L 763 0 
L 72 0 
L 1916 4841 
L 2584 4841 
L 4428 0 
z
M 3050 1872 
L 2319 3884 
Q 2284 3981 2244 4222 
L 2228 4222 
Q 2194 4003 2150 3884 
L 1425 1872 
L 3050 1872 
z
" transform="scale(0.015625)"/>
       <path id="MicrosoftYaHei-7528" d="M 3088 -734 
L 3088 1253 
L 1269 1253 
Q 1163 -47 513 -903 
Q 350 -697 144 -472 
Q 550 103 694 803 
Q 831 1478 831 2716 
L 831 4947 
L 5925 4947 
L 5925 -22 
Q 5925 -766 5219 -766 
Q 4788 -766 4250 -747 
Q 4219 -541 4156 -228 
Q 4700 -266 5038 -266 
Q 5425 -266 5425 103 
L 5425 1253 
L 3588 1253 
L 3588 -734 
L 3088 -734 
z
M 3588 1703 
L 5425 1703 
L 5425 2872 
L 3588 2872 
L 3588 1703 
z
M 5425 4484 
L 3588 4484 
L 3588 3322 
L 5425 3322 
L 5425 4484 
z
M 1303 1703 
L 3088 1703 
L 3088 2872 
L 1331 2872 
Q 1350 2266 1303 1703 
z
M 1331 4484 
L 1331 3322 
L 3088 3322 
L 3088 4484 
L 1331 4484 
z
" transform="scale(0.015625)"/>
       <path id="MicrosoftYaHei-6237" d="M 2725 5116 
L 3175 5384 
Q 3475 5028 3769 4609 
L 3463 4416 
L 5794 4416 
L 5794 1647 
L 5294 1647 
L 5294 1972 
L 1347 1972 
Q 1263 172 419 -903 
Q 250 -697 56 -491 
Q 856 484 856 2434 
L 856 4416 
L 3241 4416 
Q 3013 4766 2725 5116 
z
M 1356 3966 
L 1356 2422 
L 5294 2422 
L 5294 3966 
L 1356 3966 
z
" transform="scale(0.015625)"/>
       <path id="MicrosoftYaHei-4efd" d="M 2269 2653 
L 5394 2653 
Q 5388 2566 5300 366 
Q 5275 -709 4319 -722 
Q 3806 -722 3425 -703 
Q 3394 -416 3331 -184 
Q 3763 -241 4200 -253 
Q 4806 -297 4813 422 
Q 4863 1259 4888 2216 
L 3481 2216 
Q 3463 1222 3181 572 
Q 2844 -172 2019 -822 
Q 1856 -622 1656 -416 
Q 2450 203 2713 772 
Q 2969 1275 2997 2216 
L 2269 2216 
L 2269 2653 
z
M 75 2353 
Q 969 3534 1525 5284 
L 2013 5116 
Q 1709 4284 1350 3559 
L 1350 -809 
L 875 -809 
L 875 2691 
Q 588 2216 275 1797 
Q 181 2066 75 2353 
z
M 4006 5116 
L 4419 5291 
Q 5038 3703 6325 2972 
Q 6088 2697 5969 2516 
Q 4575 3472 4006 5116 
z
M 1588 2741 
Q 2563 3597 3163 5034 
L 3606 4866 
Q 3025 3409 1963 2397 
Q 1738 2628 1588 2741 
z
" transform="scale(0.015625)"/>
       <path id="MicrosoftYaHei-989d" d="M 863 2484 
L 1094 2834 
Q 1463 2653 1794 2491 
Q 2119 2809 2344 3203 
L 1125 3203 
Q 794 2659 419 2247 
Q 281 2397 125 2547 
Q 719 3172 1100 4072 
L 1513 3934 
Q 1425 3747 1331 3578 
L 2844 3578 
L 2844 3222 
Q 2588 2703 2194 2291 
Q 2738 2016 3194 1778 
L 2938 1372 
Q 2406 1678 1850 1978 
Q 1381 1597 763 1322 
L 2756 1322 
L 2756 -684 
L 2344 -684 
L 2344 -416 
L 1063 -416 
L 1063 -734 
L 650 -734 
L 650 1272 
Q 463 1197 269 1128 
Q 188 1297 63 1509 
Q 869 1766 1444 2191 
Q 1156 2334 863 2484 
z
M 3369 3728 
L 4281 3728 
L 4425 4516 
L 3244 4516 
L 3244 4941 
L 6231 4941 
L 6231 4516 
L 4906 4516 
L 4738 3728 
L 6038 3728 
L 6038 591 
L 5600 591 
L 5600 3303 
L 3806 3303 
L 3806 591 
L 3369 591 
L 3369 3728 
z
M 4481 2916 
L 4931 2916 
Q 4944 1322 4788 709 
Q 5688 78 6356 -453 
L 6044 -853 
Q 5438 -303 4619 291 
Q 4231 -416 3169 -916 
Q 3044 -734 2869 -516 
Q 4019 -3 4294 716 
Q 4519 1216 4481 2916 
z
M 250 4591 
L 1538 4591 
Q 1413 4872 1244 5172 
L 1650 5347 
Q 1881 4916 2031 4591 
L 3138 4591 
L 3138 3709 
L 2713 3709 
L 2713 4216 
L 675 4216 
L 675 3709 
L 250 3709 
L 250 4591 
z
M 2344 934 
L 1063 934 
L 1063 -28 
L 2344 -28 
L 2344 934 
z
" transform="scale(0.015625)"/>
       <path id="MicrosoftYaHei-75" d="M 3400 0 
L 2784 0 
L 2784 544 
L 2772 544 
Q 2425 -81 1706 -81 
Q 478 -81 478 1388 
L 478 3456 
L 1084 3456 
L 1084 1478 
Q 1084 425 1891 425 
Q 2291 425 2537 720 
Q 2784 1016 2784 1466 
L 2784 3456 
L 3400 3456 
L 3400 0 
z
" transform="scale(0.015625)"/>
       <path id="MicrosoftYaHei-28" d="M 1531 -1100 
Q 478 100 478 1847 
Q 478 3594 1531 4841 
L 2072 4841 
Q 1016 3544 1016 1853 
Q 1016 166 2066 -1100 
L 1531 -1100 
z
" transform="scale(0.015625)"/>
       <path id="MicrosoftYaHei-29" d="M 78 -1100 
Q 1131 163 1131 1853 
Q 1131 3547 72 4841 
L 616 4841 
Q 1672 3603 1672 1847 
Q 1672 91 616 -1100 
L 78 -1100 
z
" transform="scale(0.015625)"/>
      </defs>
      <use xlink:href="#MicrosoftYaHei-5e73"/>
      <use xlink:href="#MicrosoftYaHei-53f0" x="100"/>
      <use xlink:href="#MicrosoftYaHei-20" x="200"/>
      <use xlink:href="#MicrosoftYaHei-41" x="229.589844"/>
      <use xlink:href="#MicrosoftYaHei-20" x="299.951172"/>
      <use xlink:href="#MicrosoftYaHei-7528" x="329.541016"/>
      <use xlink:href="#MicrosoftYaHei-6237" x="429.541016"/>
      <use xlink:href="#MicrosoftYaHei-4efd" x="529.541016"/>
      <use xlink:href="#MicrosoftYaHei-989d" x="629.541016"/>
      <use xlink:href="#MicrosoftYaHei-20" x="729.541016"/>
      <use xlink:href="#MicrosoftYaHei-20" x="759.130859"/>
      <use xlink:href="#MicrosoftYaHei-75" x="788.720703"/>
      <use xlink:href="#MicrosoftYaHei-28" x="850.341797"/>
      <use xlink:href="#MicrosoftYaHei-74" x="883.740234"/>
      <use xlink:href="#MicrosoftYaHei-29" x="920.996094"/>
     </g>
    </g>
   </g>
   <g id="line2d_32">
    <path d="M 60.299609 331.590672 
L 692.39952 331.590672 
" clip-path="url(#p8938b5d1b3)" style="fill: none; stroke-dasharray: 4.4,4.4; stroke-dashoffset: 0; stroke: #6f7d7d; stroke-opacity: 0.45; stroke-width: 1.1"/>
   </g>
   <g id="patch_4">
    <path d="M 60.299609 377.696239 
L 60.299609 39.58875 
" style="fill: none; stroke: #a9a197; stroke-width: 0.8; stroke-linejoin: miter; stroke-linecap: square"/>
   </g>
   <g id="patch_5">
    <path d="M 60.299609 377.696239 
L 692.39952 377.696239 
" style="fill: none; stroke: #a9a197; stroke-width: 0.8; stroke-linejoin: miter; stroke-linecap: square"/>
   </g>
   <g id="line2d_33">
    <path d="M 65.199609 331.590672 
L 555.199539 331.590672 
L 555.199539 331.590672 
" clip-path="url(#p8938b5d1b3)" style="fill: none; stroke: #557c83; stroke-width: 2.2; stroke-linecap: round"/>
   </g>
   <g id="text_18">
    <!-- 对称初始  0.500 -->
    <g style="fill: #557c83" transform="translate(566.469538 348.014892) scale(0.102 -0.102)">
     <defs>
      <path id="MicrosoftYaHei-5bf9" d="M 694 3691 
Q 1234 2909 1741 2166 
Q 2113 3081 2213 4147 
L 250 4147 
L 250 4622 
L 2725 4622 
L 2725 4166 
Q 2553 2809 2059 1700 
Q 2569 953 3044 247 
L 2594 -53 
Q 2203 563 1803 1181 
Q 1247 163 388 -622 
Q 263 -428 81 -166 
Q 975 638 1500 1647 
Q 919 2538 319 3434 
L 694 3691 
z
M 2975 3941 
L 5056 3941 
L 5056 5278 
L 5563 5278 
L 5563 3941 
L 6325 3941 
L 6325 3466 
L 5563 3466 
L 5563 191 
Q 5563 -716 4669 -716 
Q 4388 -716 3744 -709 
Q 3713 -478 3644 -147 
Q 4263 -197 4588 -197 
Q 5056 -197 5056 278 
L 5056 3466 
L 2975 3466 
L 2975 3941 
z
M 3088 2684 
L 3494 2928 
Q 4000 2184 4388 1484 
L 3919 1216 
Q 3550 1922 3088 2684 
z
" transform="scale(0.015625)"/>
      <path id="MicrosoftYaHei-79f0" d="M 81 847 
Q 769 1847 1138 3003 
L 113 3003 
L 113 3428 
L 1150 3428 
L 1150 4372 
Q 725 4322 263 4278 
Q 219 4491 150 4728 
Q 1644 4872 2525 5028 
L 2644 4572 
Q 2156 4497 1594 4428 
L 1594 3428 
L 2406 3428 
L 2406 3278 
Q 2975 4122 3456 5341 
L 3931 5184 
Q 3744 4753 3563 4378 
L 6131 4378 
L 6131 3934 
Q 6000 3603 5644 2884 
Q 5456 2984 5181 3072 
Q 5444 3622 5569 3934 
L 3338 3934 
Q 3006 3291 2694 2841 
Q 2531 3016 2406 3134 
L 2406 3003 
L 1594 3003 
L 1594 2341 
L 1813 2541 
Q 2294 2091 2569 1766 
L 2244 1453 
Q 1906 1859 1594 2178 
L 1594 -853 
L 1150 -853 
L 1150 1897 
Q 794 1003 325 341 
Q 219 603 81 847 
z
M 4006 3628 
L 4481 3628 
L 4481 -34 
Q 4481 -753 3769 -753 
Q 3481 -753 3069 -734 
Q 3038 -503 2994 -228 
Q 3331 -278 3719 -278 
Q 4006 -278 4006 41 
L 4006 3628 
z
M 4806 2434 
L 5238 2628 
Q 5744 1753 6325 416 
L 5838 178 
Q 5325 1416 4806 2434 
z
M 3100 2616 
L 3569 2447 
Q 3150 1172 2656 147 
Q 2456 247 2188 347 
Q 2669 1334 3100 2616 
z
" transform="scale(0.015625)"/>
      <path id="MicrosoftYaHei-521d" d="M 2513 4778 
L 5988 4778 
Q 5894 1509 5844 509 
Q 5819 -659 4844 -647 
Q 4525 -647 3925 -628 
Q 3881 -334 3825 -66 
Q 4425 -122 4788 -122 
Q 5300 -141 5325 541 
Q 5388 1522 5456 4297 
L 4038 4297 
Q 4000 3084 3944 2334 
Q 3806 403 2250 -828 
Q 2088 -634 1850 -428 
Q 3300 691 3419 2372 
Q 3491 3200 3509 4297 
L 2513 4297 
L 2513 4778 
z
M 150 3691 
L 150 4141 
L 2219 4141 
L 2219 3678 
Q 1872 3081 1481 2569 
L 1481 2375 
Q 1631 2269 1784 2163 
Q 2094 2575 2363 3022 
L 2775 2759 
Q 2506 2372 2141 1906 
Q 2453 1678 2769 1441 
L 2450 1059 
Q 1972 1453 1481 1838 
L 1481 -797 
L 1006 -797 
L 1006 1997 
Q 638 1591 231 1247 
Q 163 1491 63 1784 
Q 963 2491 1663 3691 
L 150 3691 
z
M 744 5134 
L 1181 5353 
Q 1413 4984 1669 4497 
L 1206 4259 
Q 975 4759 744 5134 
z
" transform="scale(0.015625)"/>
      <path id="MicrosoftYaHei-59cb" d="M 2838 1984 
L 5850 1984 
L 5850 -828 
L 5375 -828 
L 5375 -391 
L 3313 -391 
L 3313 -834 
L 2838 -834 
L 2838 1984 
z
M 2638 222 
L 2269 -191 
Q 1928 156 1588 484 
Q 1125 -184 381 -778 
Q 250 -584 94 -372 
Q 809 156 1244 809 
Q 797 1228 350 1616 
Q 572 2456 753 3497 
L 113 3497 
L 113 3966 
L 834 3966 
Q 934 4597 1025 5297 
L 1531 5222 
Q 1428 4544 1325 3966 
L 2488 3966 
L 2488 3503 
Q 2341 1828 1863 931 
Q 2288 559 2638 222 
z
M 5225 4484 
Q 5863 3478 6325 2522 
L 5831 2291 
Q 5700 2591 5559 2884 
Q 4572 2825 3200 2697 
Q 3025 2678 2756 2591 
L 2525 3041 
Q 2744 3172 2900 3391 
Q 3406 4147 3925 5334 
L 4450 5166 
Q 3881 4078 3319 3191 
Q 4569 3269 5350 3306 
Q 5097 3803 4819 4284 
L 5225 4484 
z
M 5375 1547 
L 3313 1547 
L 3313 34 
L 5375 34 
L 5375 1547 
z
M 2006 3497 
L 1241 3497 
Q 1044 2463 850 1778 
Q 1191 1503 1497 1247 
Q 1922 2119 2006 3497 
z
" transform="scale(0.015625)"/>
     </defs>
     <use xlink:href="#MicrosoftYaHei-5bf9"/>
     <use xlink:href="#MicrosoftYaHei-79f0" x="100"/>
     <use xlink:href="#MicrosoftYaHei-521d" x="200"/>
     <use xlink:href="#MicrosoftYaHei-59cb" x="300"/>
     <use xlink:href="#MicrosoftYaHei-20" x="400"/>
     <use xlink:href="#MicrosoftYaHei-20" x="429.589844"/>
     <use xlink:href="#MicrosoftYaHei-30" x="459.179688"/>
     <use xlink:href="#MicrosoftYaHei-2e" x="517.822266"/>
     <use xlink:href="#MicrosoftYaHei-35" x="541.894531"/>
     <use xlink:href="#MicrosoftYaHei-30" x="600.537109"/>
     <use xlink:href="#MicrosoftYaHei-30" x="659.179688"/>
    </g>
    <!-- $u_0=m_0=0.50$ -->
    <g style="fill: #557c83" transform="translate(566.469538 360.742579) scale(0.102 -0.102)">
     <defs>
      <path id="DejaVuSans-Oblique-75" d="M 428 1388 
L 838 3500 
L 1416 3500 
L 1006 1409 
Q 975 1256 961 1147 
Q 947 1038 947 966 
Q 947 700 1109 554 
Q 1272 409 1569 409 
Q 2031 409 2368 721 
Q 2706 1034 2809 1563 
L 3194 3500 
L 3769 3500 
L 3091 0 
L 2516 0 
L 2631 550 
Q 2388 244 2052 76 
Q 1716 -91 1338 -91 
Q 878 -91 622 161 
Q 366 413 366 863 
Q 366 956 381 1097 
Q 397 1238 428 1388 
z
" transform="scale(0.015625)"/>
      <path id="DejaVuSans-30" d="M 2034 4250 
Q 1547 4250 1301 3770 
Q 1056 3291 1056 2328 
Q 1056 1369 1301 889 
Q 1547 409 2034 409 
Q 2525 409 2770 889 
Q 3016 1369 3016 2328 
Q 3016 3291 2770 3770 
Q 2525 4250 2034 4250 
z
M 2034 4750 
Q 2819 4750 3233 4129 
Q 3647 3509 3647 2328 
Q 3647 1150 3233 529 
Q 2819 -91 2034 -91 
Q 1250 -91 836 529 
Q 422 1150 422 2328 
Q 422 3509 836 4129 
Q 1250 4750 2034 4750 
z
" transform="scale(0.015625)"/>
      <path id="DejaVuSans-3d" d="M 678 2906 
L 4684 2906 
L 4684 2381 
L 678 2381 
L 678 2906 
z
M 678 1631 
L 4684 1631 
L 4684 1100 
L 678 1100 
L 678 1631 
z
" transform="scale(0.015625)"/>
      <path id="DejaVuSans-Oblique-6d" d="M 5747 2113 
L 5338 0 
L 4763 0 
L 5166 2094 
Q 5191 2228 5203 2325 
Q 5216 2422 5216 2491 
Q 5216 2772 5059 2928 
Q 4903 3084 4622 3084 
Q 4203 3084 3875 2770 
Q 3547 2456 3450 1953 
L 3066 0 
L 2491 0 
L 2900 2094 
Q 2925 2209 2937 2307 
Q 2950 2406 2950 2484 
Q 2950 2769 2794 2926 
Q 2638 3084 2363 3084 
Q 1938 3084 1609 2770 
Q 1281 2456 1184 1953 
L 800 0 
L 225 0 
L 909 3500 
L 1484 3500 
L 1375 2956 
Q 1609 3263 1923 3423 
Q 2238 3584 2597 3584 
Q 2978 3584 3223 3384 
Q 3469 3184 3519 2828 
Q 3781 3197 4126 3390 
Q 4472 3584 4856 3584 
Q 5306 3584 5551 3325 
Q 5797 3066 5797 2591 
Q 5797 2488 5784 2364 
Q 5772 2241 5747 2113 
z
" transform="scale(0.015625)"/>
      <path id="DejaVuSans-2e" d="M 684 794 
L 1344 794 
L 1344 0 
L 684 0 
L 684 794 
z
" transform="scale(0.015625)"/>
      <path id="DejaVuSans-35" d="M 691 4666 
L 3169 4666 
L 3169 4134 
L 1269 4134 
L 1269 2991 
Q 1406 3038 1543 3061 
Q 1681 3084 1819 3084 
Q 2600 3084 3056 2656 
Q 3513 2228 3513 1497 
Q 3513 744 3044 326 
Q 2575 -91 1722 -91 
Q 1428 -91 1123 -41 
Q 819 9 494 109 
L 494 744 
Q 775 591 1075 516 
Q 1375 441 1709 441 
Q 2250 441 2565 725 
Q 2881 1009 2881 1497 
Q 2881 1984 2565 2268 
Q 2250 2553 1709 2553 
Q 1456 2553 1204 2497 
Q 953 2441 691 2322 
L 691 4666 
z
" transform="scale(0.015625)"/>
     </defs>
     <use xlink:href="#DejaVuSans-Oblique-75" transform="translate(0 0.78125)"/>
     <use xlink:href="#DejaVuSans-30" transform="translate(63.378906 -15.625) scale(0.7)"/>
     <use xlink:href="#DejaVuSans-3d" transform="translate(130.131836 0.78125)"/>
     <use xlink:href="#DejaVuSans-Oblique-6d" transform="translate(233.40332 0.78125)"/>
     <use xlink:href="#DejaVuSans-30" transform="translate(330.81543 -15.625) scale(0.7)"/>
     <use xlink:href="#DejaVuSans-3d" transform="translate(397.568359 0.78125)"/>
     <use xlink:href="#DejaVuSans-30" transform="translate(500.839844 0.78125)"/>
     <use xlink:href="#DejaVuSans-2e" transform="translate(564.462891 0.78125)"/>
     <use xlink:href="#DejaVuSans-35" transform="translate(596.25 0.78125)"/>
     <use xlink:href="#DejaVuSans-30" transform="translate(659.873047 0.78125)"/>
    </g>
   </g>
   <g id="line2d_34">
    <path d="M 65.199609 293.169367 
L 69.127464 290.0659 
L 73.055319 286.73028 
L 76.983174 283.149883 
L 80.911029 279.312615 
L 84.838884 275.207253 
L 88.76674 270.823949 
L 92.694595 266.154653 
L 96.62245 261.193776 
L 100.550305 255.938816 
L 105.460124 248.958869 
L 110.369943 241.534226 
L 115.279762 233.690319 
L 121.171545 223.781703 
L 127.063327 213.426551 
L 134.919038 199.153697 
L 150.630458 170.486189 
L 156.522241 160.235262 
L 161.43206 152.086852 
L 166.341879 144.375497 
L 170.269734 138.559382 
L 174.197589 133.079564 
L 178.125444 127.949029 
L 182.0533 123.173877 
L 185.981155 118.75394 
L 189.90901 114.68366 
L 193.836865 110.952975 
L 197.76472 107.548262 
L 201.692575 104.453228 
L 205.620431 101.649726 
L 209.548286 99.118475 
L 213.476141 96.839679 
L 217.403996 94.793506 
L 221.331851 92.960519 
L 226.24167 90.940548 
L 231.151489 89.18974 
L 236.061308 87.67601 
L 240.971127 86.370067 
L 246.86291 85.040201 
L 252.754692 83.931243 
L 259.628439 82.870312 
L 267.484149 81.90806 
L 276.321823 81.076907 
L 286.141461 80.391064 
L 297.925027 79.808621 
L 311.67252 79.357959 
L 329.347868 79.008194 
L 353.896963 78.760836 
L 393.175514 78.615351 
L 484.498147 78.562427 
L 555.199539 78.559892 
L 555.199539 78.559892 
" clip-path="url(#p8938b5d1b3)" style="fill: none; stroke: #e58f3a; stroke-width: 2.7; stroke-linecap: round"/>
   </g>
   <g id="text_19">
    <!-- 轻微领先  0.829 -->
    <g style="fill: #e58f3a" transform="translate(566.469538 101.13152) scale(0.102 -0.102)">
     <defs>
      <path id="MicrosoftYaHei-8f7b" d="M 694 2441 
L 1350 2441 
L 1350 3616 
L 1788 3616 
L 1788 2441 
L 2413 2441 
L 2413 2028 
L 1788 2028 
L 1788 1134 
Q 2159 1178 2556 1228 
Q 2525 984 2513 791 
Q 2147 750 1788 709 
L 1788 -847 
L 1350 -847 
L 1350 656 
Q 744 581 150 503 
L 100 966 
Q 681 1016 1350 1088 
L 1350 2028 
L 238 2028 
L 238 2441 
Q 494 3181 728 4022 
L 150 4022 
L 150 4434 
L 844 4434 
Q 969 4900 1088 5397 
L 1550 5303 
Q 1425 4856 1303 4434 
L 2494 4434 
L 2494 4022 
L 1184 4022 
Q 934 3175 694 2441 
z
M 2719 4897 
L 5619 4897 
L 5619 4472 
Q 5266 3906 4763 3425 
Q 5591 2975 6344 2516 
L 6050 2103 
Q 5191 2678 4422 3125 
Q 3713 2550 2756 2116 
Q 2606 2341 2438 2534 
Q 4175 3241 5069 4459 
L 2719 4459 
L 2719 4897 
z
M 2331 -128 
L 4069 -128 
L 4069 1441 
L 2788 1441 
L 2788 1878 
L 5788 1878 
L 5788 1441 
L 4531 1441 
L 4531 -128 
L 6256 -128 
L 6256 -566 
L 2331 -566 
L 2331 -128 
z
" transform="scale(0.015625)"/>
      <path id="MicrosoftYaHei-5fae" d="M 4775 5303 
L 5200 5228 
Q 5100 4650 4966 4128 
L 6313 4128 
L 6313 3678 
L 6013 3678 
Q 5881 1888 5409 844 
Q 5769 147 6350 -347 
Q 6213 -591 6088 -828 
Q 5534 -294 5172 384 
Q 4797 -269 4206 -872 
Q 4081 -691 3900 -478 
Q 4581 166 4950 866 
Q 4600 1734 4525 2813 
Q 4425 2572 4313 2347 
Q 4188 2509 4013 2672 
Q 4563 3741 4775 5303 
z
M 1813 3203 
L 1813 4734 
L 2213 4734 
L 2213 3628 
L 2725 3628 
L 2725 5216 
L 3138 5216 
L 3138 3628 
L 3650 3628 
L 3650 4741 
L 4050 4741 
L 4050 3003 
L 3650 3003 
L 3650 3203 
L 1813 3203 
z
M 3256 1209 
L 2431 1209 
L 2431 922 
Q 2431 -203 1800 -678 
Q 1694 -503 1519 -278 
Q 2013 47 2013 972 
L 2013 1634 
L 3675 1634 
L 3675 547 
Q 3963 797 4331 1134 
Q 4388 859 4438 653 
Q 4094 378 3656 -22 
Q 3519 -153 3406 -272 
L 3088 128 
Q 3256 297 3256 578 
L 3256 1209 
z
M 81 1628 
Q 788 2453 1281 3572 
L 1694 3378 
Q 1463 2891 1213 2466 
L 1213 -816 
L 788 -816 
L 788 1809 
Q 525 1438 244 1128 
Q 169 1378 81 1628 
z
M 5588 3678 
L 4838 3678 
L 4819 3619 
Q 4828 2338 5178 1375 
Q 5453 2150 5588 3678 
z
M 113 3641 
Q 900 4441 1294 5272 
L 1681 5053 
Q 1131 3997 263 3153 
Q 194 3397 113 3641 
z
M 1938 2647 
L 3925 2647 
L 3925 2209 
L 1938 2209 
L 1938 2647 
z
" transform="scale(0.015625)"/>
      <path id="MicrosoftYaHei-9886" d="M 3000 3716 
L 4106 3716 
L 4263 4572 
L 2700 4572 
L 2700 5009 
L 6294 5009 
L 6294 4572 
L 4769 4572 
L 4588 3716 
L 6000 3716 
L 6000 728 
L 5550 728 
L 5550 3284 
L 3450 3284 
L 3450 703 
L 3000 703 
L 3000 3716 
z
M 4263 3028 
L 4713 3028 
L 4713 2091 
Q 4713 1397 4563 897 
Q 5469 234 6288 -472 
L 5913 -866 
Q 5200 -178 4381 466 
Q 4350 409 4319 359 
Q 3894 -322 2819 -872 
Q 2613 -609 2469 -459 
Q 3506 -9 3894 584 
Q 4263 1109 4263 2103 
L 4263 3028 
z
M 544 891 
L 913 1166 
Q 1200 822 1475 484 
Q 1800 1066 2131 1872 
L 294 1872 
L 294 2303 
L 2638 2303 
L 2638 1872 
Q 2163 809 1775 109 
Q 2019 -191 2250 -497 
L 1819 -797 
Q 1194 122 544 891 
z
M 1850 5191 
L 1775 5022 
Q 2350 4353 2894 3603 
L 2519 3266 
Q 2031 4003 1569 4591 
Q 1081 3553 375 2553 
Q 250 2766 69 2991 
Q 819 3922 1363 5191 
L 1850 5191 
z
M 1175 3509 
L 1563 3703 
Q 1844 3259 2088 2766 
L 1656 2541 
Q 1494 2941 1175 3509 
z
" transform="scale(0.015625)"/>
      <path id="MicrosoftYaHei-5148" d="M 225 2453 
L 2956 2453 
L 2956 3784 
L 1459 3784 
Q 1153 3166 800 2709 
Q 569 2891 394 2997 
Q 1094 3903 1481 5166 
L 1969 5028 
Q 1828 4613 1672 4247 
L 2956 4247 
L 2956 5309 
L 3469 5309 
L 3469 4247 
L 5788 4247 
L 5788 3784 
L 3469 3784 
L 3469 2453 
L 6219 2453 
L 6219 1991 
L 4206 1991 
L 4206 222 
Q 4169 -259 4638 -216 
L 5275 -216 
Q 5706 -216 5750 109 
Q 5794 428 5819 1022 
Q 6056 922 6344 834 
Q 6313 372 6231 -122 
Q 6169 -434 5956 -559 
Q 5769 -678 5281 -678 
L 4538 -678 
Q 3663 -716 3700 141 
L 3700 1991 
L 2478 1991 
Q 2428 909 2044 328 
Q 1581 -397 369 -847 
Q 244 -647 50 -397 
Q 1163 -16 1581 584 
Q 1925 1047 1978 1991 
L 225 1991 
L 225 2453 
z
" transform="scale(0.015625)"/>
      <path id="MicrosoftYaHei-39" d="M 578 656 
Q 978 425 1441 425 
Q 2091 425 2448 937 
Q 2806 1450 2806 2394 
Q 2800 2388 2794 2394 
Q 2475 1788 1722 1788 
Q 1113 1788 713 2206 
Q 313 2625 313 3294 
Q 313 4006 750 4464 
Q 1188 4922 1884 4922 
Q 2606 4922 3012 4355 
Q 3419 3788 3419 2703 
Q 3419 1363 2894 641 
Q 2369 -81 1441 -81 
Q 931 -81 578 84 
L 578 656 
z
M 931 3372 
Q 931 2884 1181 2598 
Q 1431 2313 1872 2313 
Q 2253 2313 2512 2573 
Q 2772 2834 2772 3206 
Q 2772 3728 2514 4070 
Q 2256 4413 1834 4413 
Q 1444 4413 1187 4116 
Q 931 3819 931 3372 
z
" transform="scale(0.015625)"/>
     </defs>
     <use xlink:href="#MicrosoftYaHei-8f7b"/>
     <use xlink:href="#MicrosoftYaHei-5fae" x="100"/>
     <use xlink:href="#MicrosoftYaHei-9886" x="200"/>
     <use xlink:href="#MicrosoftYaHei-5148" x="300"/>
     <use xlink:href="#MicrosoftYaHei-20" x="400"/>
     <use xlink:href="#MicrosoftYaHei-20" x="429.589844"/>
     <use xlink:href="#MicrosoftYaHei-30" x="459.179688"/>
     <use xlink:href="#MicrosoftYaHei-2e" x="517.822266"/>
     <use xlink:href="#MicrosoftYaHei-38" x="541.894531"/>
     <use xlink:href="#MicrosoftYaHei-32" x="600.537109"/>
     <use xlink:href="#MicrosoftYaHei-39" x="659.179688"/>
    </g>
    <!-- $u_0=m_0=0.55$ -->
    <g style="fill: #e58f3a" transform="translate(566.469538 113.859208) scale(0.102 -0.102)">
     <use xlink:href="#DejaVuSans-Oblique-75" transform="translate(0 0.78125)"/>
     <use xlink:href="#DejaVuSans-30" transform="translate(63.378906 -15.625) scale(0.7)"/>
     <use xlink:href="#DejaVuSans-3d" transform="translate(130.131836 0.78125)"/>
     <use xlink:href="#DejaVuSans-Oblique-6d" transform="translate(233.40332 0.78125)"/>
     <use xlink:href="#DejaVuSans-30" transform="translate(330.81543 -15.625) scale(0.7)"/>
     <use xlink:href="#DejaVuSans-3d" transform="translate(397.568359 0.78125)"/>
     <use xlink:href="#DejaVuSans-30" transform="translate(500.839844 0.78125)"/>
     <use xlink:href="#DejaVuSans-2e" transform="translate(564.462891 0.78125)"/>
     <use xlink:href="#DejaVuSans-35" transform="translate(596.25 0.78125)"/>
     <use xlink:href="#DejaVuSans-35" transform="translate(659.873047 0.78125)"/>
    </g>
   </g>
   <g id="line2d_35">
    <path d="M 65.199609 177.90545 
L 72.073355 165.659548 
L 77.965138 155.63471 
L 82.874957 147.722396 
L 87.784776 140.280683 
L 91.712631 134.697636 
L 95.640486 129.460704 
L 99.568341 124.578 
L 103.496196 120.05118 
L 107.424052 115.876201 
L 111.351907 112.044283 
L 115.279762 108.542762 
L 119.207617 105.356079 
L 123.135472 102.466549 
L 127.063327 99.855179 
L 130.991183 97.502257 
L 134.919038 95.387928 
L 138.846893 93.49259 
L 143.756712 91.402503 
L 148.666531 89.589728 
L 153.57635 88.021525 
L 158.486169 86.667925 
L 164.377951 85.288896 
L 170.269734 84.138451 
L 177.143481 83.037416 
L 184.999191 82.038442 
L 193.836865 81.175301 
L 203.656503 80.462876 
L 215.440068 79.857725 
L 229.187561 79.389411 
L 246.86291 79.025894 
L 271.412004 78.768785 
L 309.708592 78.619443 
L 396.121406 78.563158 
L 555.199539 78.559631 
L 555.199539 78.559631 
" clip-path="url(#p8938b5d1b3)" style="fill: none; stroke: #2f9c5b; stroke-width: 2.7; stroke-linecap: round"/>
   </g>
   <g id="text_20">
    <!-- 明显领先  0.829 -->
    <g style="fill: #2f9c5b" transform="translate(566.469538 48.878284) scale(0.102 -0.102)">
     <defs>
      <path id="MicrosoftYaHei-660e" d="M 2350 -872 
Q 2188 -691 1944 -491 
Q 2706 197 2950 853 
Q 3188 1472 3188 2816 
L 3188 5016 
L 5931 5016 
L 5931 -47 
Q 5931 -791 5213 -791 
Q 4769 -791 4150 -772 
Q 4113 -522 4056 -259 
Q 4675 -297 5056 -297 
Q 5438 -297 5438 72 
L 5438 1284 
L 3575 1284 
Q 3400 116 2350 -872 
z
M 475 4816 
L 2431 4816 
L 2431 566 
L 944 566 
L 944 109 
L 475 109 
L 475 4816 
z
M 3634 1734 
L 5438 1734 
L 5438 2922 
L 3681 2922 
Q 3688 2278 3634 1734 
z
M 5438 4547 
L 3681 4547 
L 3681 3372 
L 5438 3372 
L 5438 4547 
z
M 1963 1022 
L 1963 2491 
L 944 2491 
L 944 1022 
L 1963 1022 
z
M 1963 4359 
L 944 4359 
L 944 2934 
L 1963 2934 
L 1963 4359 
z
" transform="scale(0.015625)"/>
      <path id="MicrosoftYaHei-663e" d="M 875 5041 
L 5525 5041 
L 5525 2209 
L 5044 2209 
L 5044 2434 
L 1356 2434 
L 1356 2209 
L 875 2209 
L 875 5041 
z
M 156 -147 
L 2238 -147 
L 2238 2259 
L 2713 2259 
L 2713 -147 
L 3656 -147 
L 3656 2259 
L 4131 2259 
L 4131 -147 
L 6244 -147 
L 6244 -597 
L 156 -597 
L 156 -147 
z
M 5044 4591 
L 1356 4591 
L 1356 3947 
L 5044 3947 
L 5044 4591 
z
M 1356 2884 
L 5044 2884 
L 5044 3528 
L 1356 3528 
L 1356 2884 
z
M 506 1734 
L 875 2009 
Q 1519 1178 1888 597 
L 1456 284 
Q 1038 984 506 1734 
z
M 5925 1753 
Q 5413 941 4938 309 
L 4531 591 
Q 5006 1216 5481 2009 
L 5925 1753 
z
" transform="scale(0.015625)"/>
     </defs>
     <use xlink:href="#MicrosoftYaHei-660e"/>
     <use xlink:href="#MicrosoftYaHei-663e" x="100"/>
     <use xlink:href="#MicrosoftYaHei-9886" x="200"/>
     <use xlink:href="#MicrosoftYaHei-5148" x="300"/>
     <use xlink:href="#MicrosoftYaHei-20" x="400"/>
     <use xlink:href="#MicrosoftYaHei-20" x="429.589844"/>
     <use xlink:href="#MicrosoftYaHei-30" x="459.179688"/>
     <use xlink:href="#MicrosoftYaHei-2e" x="517.822266"/>
     <use xlink:href="#MicrosoftYaHei-38" x="541.894531"/>
     <use xlink:href="#MicrosoftYaHei-32" x="600.537109"/>
     <use xlink:href="#MicrosoftYaHei-39" x="659.179688"/>
    </g>
    <!-- $u_0=m_0=0.70$ -->
    <g style="fill: #2f9c5b" transform="translate(566.469538 61.605971) scale(0.102 -0.102)">
     <defs>
      <path id="DejaVuSans-37" d="M 525 4666 
L 3525 4666 
L 3525 4397 
L 1831 0 
L 1172 0 
L 2766 4134 
L 525 4134 
L 525 4666 
z
" transform="scale(0.015625)"/>
     </defs>
     <use xlink:href="#DejaVuSans-Oblique-75" transform="translate(0 0.78125)"/>
     <use xlink:href="#DejaVuSans-30" transform="translate(63.378906 -15.625) scale(0.7)"/>
     <use xlink:href="#DejaVuSans-3d" transform="translate(130.131836 0.78125)"/>
     <use xlink:href="#DejaVuSans-Oblique-6d" transform="translate(233.40332 0.78125)"/>
     <use xlink:href="#DejaVuSans-30" transform="translate(330.81543 -15.625) scale(0.7)"/>
     <use xlink:href="#DejaVuSans-3d" transform="translate(397.568359 0.78125)"/>
     <use xlink:href="#DejaVuSans-30" transform="translate(500.839844 0.78125)"/>
     <use xlink:href="#DejaVuSans-2e" transform="translate(564.462891 0.78125)"/>
     <use xlink:href="#DejaVuSans-37" transform="translate(588.5 0.78125)"/>
     <use xlink:href="#DejaVuSans-30" transform="translate(652.123047 0.78125)"/>
    </g>
   </g>
   <g id="text_21">
    <!-- 领先情形稳态 ≈ 0.829 -->
    <g style="fill: #2f6f49" transform="translate(74.999607 64.727961) scale(0.105 -0.105)">
     <defs>
      <path id="MicrosoftYaHei-60c5" d="M 2806 -797 
L 2331 -797 
L 2331 2372 
L 5844 2372 
L 5844 -41 
Q 5844 -734 5213 -747 
Q 4800 -753 4150 -747 
Q 4119 -547 4056 -266 
Q 4650 -303 5025 -303 
Q 5369 -303 5369 -3 
L 5369 334 
L 2806 334 
L 2806 -797 
z
M 1925 3147 
L 3838 3147 
L 3838 3578 
L 2263 3578 
L 2263 3972 
L 3838 3972 
L 3838 4391 
L 2088 4391 
L 2088 4784 
L 3838 4784 
L 3838 5347 
L 4313 5347 
L 4313 4784 
L 6188 4784 
L 6188 4391 
L 4313 4391 
L 4313 3972 
L 6013 3972 
L 6013 3578 
L 4313 3578 
L 4313 3147 
L 6319 3147 
L 6319 2753 
L 1925 2753 
L 1925 3147 
z
M 931 5291 
L 1375 5291 
L 1375 4019 
L 1613 4191 
Q 1931 3816 2181 3497 
L 1831 3241 
Q 1638 3525 1375 3869 
L 1375 -816 
L 931 -816 
L 931 5291 
z
M 5369 1972 
L 2806 1972 
L 2806 1541 
L 5369 1541 
L 5369 1972 
z
M 2806 722 
L 5369 722 
L 5369 1153 
L 2806 1153 
L 2806 722 
z
M 319 3866 
L 719 3816 
Q 650 3059 494 2209 
Q 350 2247 88 2297 
Q 225 2909 319 3866 
z
" transform="scale(0.015625)"/>
      <path id="MicrosoftYaHei-5f62" d="M 175 2647 
L 1019 2647 
L 1019 4422 
L 350 4422 
L 350 4872 
L 3775 4872 
L 3775 4422 
L 3006 4422 
L 3006 2647 
L 3975 2647 
L 3975 2197 
L 3006 2197 
L 3006 -791 
L 2525 -791 
L 2525 2197 
L 1497 2197 
Q 1500 128 406 -841 
Q 256 -622 75 -428 
Q 1025 366 1016 2197 
L 175 2197 
L 175 2647 
z
M 1500 2647 
L 2525 2647 
L 2525 4422 
L 1500 4422 
L 1500 2647 
z
M 6319 1353 
Q 5331 166 3738 -834 
Q 3631 -666 3388 -422 
Q 4925 397 5956 1672 
L 6319 1353 
z
M 6138 3172 
Q 5250 2159 4019 1347 
Q 3888 1528 3694 1722 
Q 4856 2441 5775 3484 
L 6138 3172 
z
M 6038 4934 
Q 5194 4009 3988 3266 
Q 3875 3428 3675 3666 
Q 4838 4322 5675 5253 
L 6038 4934 
z
" transform="scale(0.015625)"/>
      <path id="MicrosoftYaHei-7a33" d="M 2444 1778 
L 5450 1778 
L 5450 2316 
L 2563 2316 
L 2563 2728 
L 5450 2728 
L 5450 3259 
L 2575 3259 
L 2575 3653 
L 2488 3566 
Q 2331 3716 2119 3878 
Q 2831 4522 3275 5366 
L 3763 5272 
Q 3616 5009 3456 4766 
L 5313 4766 
L 5313 4359 
Q 5063 4022 4800 3684 
L 5925 3684 
L 5925 1128 
L 5450 1128 
L 5450 1353 
L 2444 1353 
L 2444 1778 
z
M 31 991 
Q 619 1803 988 3034 
L 144 3034 
L 144 3472 
L 1025 3472 
L 1025 4466 
Q 653 4431 269 4403 
Q 238 4603 181 4853 
Q 1200 4916 2231 5059 
L 2331 4597 
Q 1916 4550 1488 4506 
L 1488 3472 
L 2269 3472 
L 2269 3034 
L 1488 3034 
L 1488 2288 
L 1744 2491 
Q 2100 2128 2413 1741 
L 2044 1434 
Q 1772 1822 1488 2144 
L 1488 -834 
L 1025 -834 
L 1025 1938 
Q 703 1072 244 466 
Q 150 728 31 991 
z
M 2950 991 
L 3425 991 
L 3425 97 
Q 3425 -259 3825 -259 
L 4425 -259 
Q 4819 -259 4888 53 
Q 4944 297 4981 634 
Q 5188 541 5456 447 
Q 5394 128 5319 -147 
Q 5181 -691 4563 -691 
L 3731 -691 
Q 2950 -691 2950 72 
L 2950 991 
z
M 4744 4353 
L 3172 4353 
Q 2903 3991 2603 3684 
L 4259 3684 
Q 4525 4038 4744 4353 
z
M 2275 991 
L 2694 841 
Q 2481 178 2200 -409 
Q 2000 -303 1769 -216 
Q 2069 322 2275 991 
z
M 5419 797 
L 5825 978 
Q 6175 309 6388 -147 
L 5956 -353 
Q 5750 153 5419 797 
z
M 3663 1097 
L 4000 1334 
Q 4369 909 4650 522 
L 4269 253 
Q 3994 691 3663 1097 
z
" transform="scale(0.015625)"/>
      <path id="MicrosoftYaHei-6001" d="M 325 4434 
L 2888 4434 
Q 2972 4822 2969 5328 
L 3438 5328 
Q 3444 4841 3372 4434 
L 6075 4434 
L 6075 3991 
L 3528 3991 
Q 4419 2706 6231 2241 
Q 6050 2034 5881 1759 
Q 4041 2394 3172 3772 
Q 2975 3331 2588 2953 
Q 3078 2616 3538 2259 
L 3225 1891 
Q 2828 2244 2259 2675 
Q 1556 2138 388 1703 
Q 294 1922 113 2178 
Q 2250 2866 2750 3991 
L 325 3991 
L 325 4434 
z
M 1713 1547 
L 2200 1547 
L 2200 203 
Q 2200 -172 2575 -172 
L 3763 -172 
Q 4175 -172 4256 134 
Q 4331 428 4381 1028 
Q 4556 953 4863 847 
Q 4763 128 4706 -47 
Q 4563 -616 3869 -616 
L 2488 -616 
Q 1713 -616 1713 172 
L 1713 1547 
z
M 813 1447 
L 1281 1297 
Q 1038 522 663 -297 
Q 463 -203 194 -116 
Q 569 591 813 1447 
z
M 4894 1272 
L 5263 1553 
Q 5781 972 6306 309 
L 5888 -9 
Q 5425 641 4894 1272 
z
M 2594 1503 
L 2913 1809 
Q 3419 1403 3850 991 
L 3488 641 
Q 3094 1059 2594 1503 
z
" transform="scale(0.015625)"/>
      <path id="MicrosoftYaHei-2248" d="M 4053 3256 
Q 4028 2750 3778 2472 
Q 3528 2194 3094 2194 
Q 2728 2194 2203 2550 
Q 1872 2778 1669 2778 
Q 1203 2778 1184 2191 
L 700 2191 
Q 722 2703 980 2978 
Q 1238 3253 1659 3253 
Q 2019 3253 2456 2959 
Q 2894 2663 3116 2663 
Q 3322 2663 3444 2823 
Q 3566 2984 3572 3256 
L 4053 3256 
z
M 4053 1853 
Q 4028 1347 3778 1067 
Q 3528 788 3094 788 
Q 2725 788 2203 1147 
Q 1878 1369 1669 1369 
Q 1203 1369 1184 784 
L 700 784 
Q 722 1294 980 1572 
Q 1238 1850 1659 1850 
Q 2022 1850 2456 1559 
Q 2906 1256 3116 1256 
Q 3319 1256 3441 1423 
Q 3563 1591 3572 1853 
L 4053 1853 
z
" transform="scale(0.015625)"/>
     </defs>
     <use xlink:href="#MicrosoftYaHei-9886"/>
     <use xlink:href="#MicrosoftYaHei-5148" x="100"/>
     <use xlink:href="#MicrosoftYaHei-60c5" x="200"/>
     <use xlink:href="#MicrosoftYaHei-5f62" x="300"/>
     <use xlink:href="#MicrosoftYaHei-7a33" x="400"/>
     <use xlink:href="#MicrosoftYaHei-6001" x="500"/>
     <use xlink:href="#MicrosoftYaHei-20" x="600"/>
     <use xlink:href="#MicrosoftYaHei-2248" x="629.589844"/>
     <use xlink:href="#MicrosoftYaHei-20" x="703.857422"/>
     <use xlink:href="#MicrosoftYaHei-30" x="733.447266"/>
     <use xlink:href="#MicrosoftYaHei-2e" x="792.089844"/>
     <use xlink:href="#MicrosoftYaHei-38" x="816.162109"/>
     <use xlink:href="#MicrosoftYaHei-32" x="874.804688"/>
     <use xlink:href="#MicrosoftYaHei-39" x="933.447266"/>
    </g>
   </g>
   <g id="text_22">
    <!-- 实验 1：平台 A 用户份额动态演化 -->
    <g transform="translate(238.989877 21.58875) scale(0.18 -0.18)">
     <defs>
      <path id="MicrosoftYaHei-Bold-5b9e" d="M 4219 3716 
Q 4181 2422 4056 1653 
L 6238 1653 
L 6238 878 
L 3863 878 
Q 3850 841 3813 766 
Q 5019 372 6206 -66 
L 5881 -847 
Q 4619 -316 3369 153 
Q 2550 -616 863 -916 
Q 556 -384 331 -78 
Q 2338 209 2894 878 
L 169 878 
L 169 1653 
L 2144 1653 
Q 1481 2053 931 2328 
L 1319 2934 
Q 1894 2659 2638 2247 
L 2244 1653 
L 3175 1653 
Q 3331 2453 3350 3716 
L 4219 3716 
z
M 300 3078 
L 300 4703 
L 2819 4703 
Q 2700 5009 2606 5228 
L 3675 5341 
Q 3769 5084 3888 4703 
L 6094 4703 
L 6094 3078 
L 5225 3078 
L 5225 3953 
L 1169 3953 
L 1169 3078 
L 300 3078 
z
M 1813 3772 
Q 2469 3484 3163 3134 
L 2769 2497 
Q 2031 2909 1450 3184 
L 1813 3772 
z
" transform="scale(0.015625)"/>
      <path id="MicrosoftYaHei-Bold-9a8c" d="M 1138 4053 
L 969 2491 
L 1419 2491 
L 1563 4241 
L 200 4241 
L 200 4991 
L 2369 4991 
L 2163 2491 
L 2525 2491 
Q 2463 691 2413 203 
Q 2369 -553 1838 -672 
Q 1581 -709 644 -709 
Q 588 -253 519 134 
Q 906 91 1350 78 
Q 1669 78 1694 378 
Q 1731 791 1763 1741 
L 181 1741 
L 400 4053 
L 1138 4053 
z
M 5544 2647 
L 3163 2647 
L 3163 2997 
Q 2944 2797 2706 2603 
Q 2525 2991 2300 3391 
Q 3313 4134 3925 5278 
L 4875 5278 
L 4738 5053 
Q 5469 3984 6381 3466 
Q 6163 3116 5950 2691 
Q 5738 2828 5544 2984 
L 5544 2647 
z
M 2556 116 
L 4694 116 
Q 5063 1253 5250 2303 
L 6025 2103 
Q 5775 1141 5438 116 
L 6213 116 
L 6213 -634 
L 2556 -634 
L 2556 116 
z
M 3263 2172 
Q 3569 1397 3856 503 
L 3175 259 
Q 2981 978 2625 1934 
L 3263 2172 
z
M 4425 2428 
Q 4644 1584 4806 753 
L 4113 584 
Q 3988 1366 3763 2278 
L 4425 2428 
z
M 75 1216 
Q 763 1278 1525 1378 
Q 1531 984 1538 628 
Q 838 541 175 428 
L 75 1216 
z
M 4300 4347 
Q 4013 3897 3544 3384 
L 5113 3384 
Q 4663 3859 4300 4347 
z
" transform="scale(0.015625)"/>
      <path id="MicrosoftYaHei-Bold-20" transform="scale(0.015625)"/>
      <path id="MicrosoftYaHei-Bold-31" d="M 2716 4947 
L 2716 0 
L 1700 0 
L 1700 3809 
Q 1513 3647 1188 3517 
Q 863 3388 591 3356 
L 591 4222 
Q 1447 4472 2072 4947 
L 2716 4947 
z
" transform="scale(0.015625)"/>
      <path id="MicrosoftYaHei-Bold-ff1a" d="M 1594 3506 
Q 1831 3506 2000 3354 
Q 2169 3203 2169 2981 
Q 2169 2766 2003 2614 
Q 1838 2463 1594 2463 
Q 1353 2463 1189 2616 
Q 1025 2769 1025 2981 
Q 1025 3200 1192 3353 
Q 1359 3506 1594 3506 
z
M 1594 959 
Q 1831 959 2000 806 
Q 2169 653 2169 434 
Q 2169 222 2000 69 
Q 1831 -84 1594 -84 
Q 1356 -84 1190 69 
Q 1025 222 1025 434 
Q 1025 653 1190 806 
Q 1356 959 1594 959 
z
" transform="scale(0.015625)"/>
      <path id="MicrosoftYaHei-Bold-5e73" d="M 175 1959 
L 2719 1959 
L 2719 4253 
L 450 4253 
L 450 5078 
L 5975 5078 
L 5975 4253 
L 3669 4253 
L 3669 1959 
L 6250 1959 
L 6250 1134 
L 3669 1134 
L 3669 -809 
L 2719 -809 
L 2719 1134 
L 175 1134 
L 175 1959 
z
M 538 3691 
L 1194 4134 
Q 1794 3434 2438 2584 
L 1681 2084 
Q 1050 3041 538 3691 
z
M 5988 3628 
Q 5325 2834 4588 2066 
L 3950 2584 
Q 4675 3334 5250 4128 
L 5988 3628 
z
" transform="scale(0.015625)"/>
      <path id="MicrosoftYaHei-Bold-53f0" d="M 4606 4584 
Q 5569 3647 6388 2741 
L 5694 2153 
L 5206 2728 
Q 2519 2684 538 2503 
L 206 3241 
Q 1438 4003 2644 5403 
L 3463 4959 
Q 2575 4122 1588 3322 
L 4594 3428 
L 3956 4128 
L 4606 4584 
z
M 794 -828 
L 794 2103 
L 5606 2103 
L 5606 -828 
L 4756 -828 
L 4756 -459 
L 1644 -459 
L 1644 -828 
L 794 -828 
z
M 4756 1328 
L 1644 1328 
L 1644 316 
L 4756 316 
L 4756 1328 
z
" transform="scale(0.015625)"/>
      <path id="MicrosoftYaHei-Bold-41" d="M 4759 0 
L 3634 0 
L 3272 1109 
L 1513 1109 
L 1156 0 
L 38 0 
L 1809 4841 
L 3022 4841 
L 4759 0 
z
M 3028 1906 
L 2478 3584 
Q 2425 3744 2403 4006 
L 2375 4006 
Q 2356 3794 2291 3597 
L 1738 1906 
L 3028 1906 
z
" transform="scale(0.015625)"/>
      <path id="MicrosoftYaHei-Bold-7528" d="M 5925 134 
Q 5925 -263 5744 -480 
Q 5563 -697 5189 -736 
Q 4816 -775 4206 -766 
Q 4100 -284 3956 141 
Q 4600 103 4656 103 
Q 5050 103 5050 484 
L 5050 1053 
L 3750 1053 
L 3750 -697 
L 2869 -697 
L 2869 1053 
L 1516 1053 
Q 1419 -325 988 -872 
Q 588 -584 181 -347 
Q 688 341 669 2097 
L 669 5041 
L 5925 5041 
L 5925 134 
z
M 1544 3441 
L 2869 3441 
L 2869 4216 
L 1544 4216 
L 1544 3441 
z
M 5050 4216 
L 3750 4216 
L 3750 3441 
L 5050 3441 
L 5050 4216 
z
M 1544 1859 
L 2869 1859 
L 2869 2634 
L 1544 2634 
L 1544 1859 
z
M 3750 1859 
L 5050 1859 
L 5050 2634 
L 3750 2634 
L 3750 1859 
z
" transform="scale(0.015625)"/>
      <path id="MicrosoftYaHei-Bold-6237" d="M 781 4409 
L 2875 4409 
Q 2706 4797 2581 5034 
L 3500 5341 
Q 3656 5022 3950 4409 
L 5938 4409 
L 5938 1178 
L 5069 1178 
L 5069 1503 
L 1606 1503 
Q 1456 16 788 -853 
Q 425 -397 144 -84 
Q 781 803 781 2253 
L 781 4409 
z
M 5069 2347 
L 5069 3566 
L 1650 3566 
L 1650 2347 
L 5069 2347 
z
" transform="scale(0.015625)"/>
      <path id="MicrosoftYaHei-Bold-4efd" d="M 1294 5291 
L 2175 5047 
Q 1953 4322 1669 3653 
L 1669 -797 
L 819 -797 
L 819 2013 
Q 603 1666 369 1341 
Q 294 1728 100 2472 
Q 863 3709 1294 5291 
z
M 5000 5184 
Q 5413 3928 6306 3147 
L 5938 2197 
Q 5806 2316 5684 2441 
L 5597 275 
Q 5575 -159 5378 -396 
Q 5181 -634 4906 -678 
Q 4631 -722 3800 -722 
Q 3700 -209 3588 178 
Q 4000 147 4234 147 
Q 4488 147 4606 237 
Q 4725 328 4734 759 
L 4769 2097 
L 3809 2097 
Q 3806 66 2394 -834 
Q 2194 -578 1769 -178 
Q 2916 491 2916 2097 
L 2525 2097 
L 2525 2466 
Q 2369 2294 2200 2134 
Q 2050 2516 1813 3028 
Q 2688 3834 3094 5197 
L 3906 4984 
Q 3581 3809 2869 2878 
L 5294 2878 
Q 4525 3822 4213 4984 
L 5000 5184 
z
" transform="scale(0.015625)"/>
      <path id="MicrosoftYaHei-Bold-989d" d="M 213 3753 
L 213 4803 
L 1272 4803 
Q 1206 5000 1125 5216 
L 2000 5347 
L 2175 4803 
L 3106 4803 
L 3106 5109 
L 6244 5109 
L 6244 4359 
L 4959 4359 
Q 4922 4069 4878 3822 
L 6069 3822 
L 6069 616 
L 5331 616 
L 5331 3103 
L 3956 3103 
L 3956 616 
L 3219 616 
L 3219 3822 
L 4069 3822 
Q 4109 4081 4144 4359 
L 3119 4359 
L 3119 3853 
L 2463 3853 
L 2463 4197 
L 869 4197 
L 869 3753 
L 213 3753 
z
M 538 -747 
L 538 1256 
Q 444 1228 350 1203 
Q 225 1547 94 1809 
Q 725 1978 1181 2247 
L 869 2403 
L 1225 2891 
L 1722 2659 
Q 1950 2884 2106 3153 
L 1291 3153 
Q 1044 2769 738 2434 
Q 531 2578 150 2778 
Q 819 3459 1069 4178 
L 1713 3934 
Q 1672 3841 1628 3753 
L 2925 3753 
L 2925 3166 
Q 2703 2706 2375 2341 
Q 2788 2131 3206 1903 
L 2875 1297 
L 2863 1303 
L 2863 -216 
Q 3722 91 4005 525 
Q 4288 959 4288 1966 
L 4288 2891 
L 5025 2891 
L 5025 1878 
Q 5025 1284 4925 838 
Q 5709 322 6306 -122 
L 5863 -872 
Q 5350 -419 4647 125 
Q 4241 -509 3256 -866 
Q 3069 -550 2863 -300 
L 2863 -703 
L 2138 -703 
L 2138 -497 
L 1263 -497 
L 1263 -747 
L 538 -747 
z
M 1000 1416 
L 2675 1416 
Q 2256 1663 1859 1881 
Q 1478 1609 1000 1416 
z
M 2138 734 
L 1263 734 
L 1263 184 
L 2138 184 
L 2138 734 
z
" transform="scale(0.015625)"/>
      <path id="MicrosoftYaHei-Bold-52a8" d="M 2469 2178 
L 3134 603 
Q 3563 1378 3553 3441 
L 2919 3441 
L 2919 4266 
L 3572 4266 
L 3581 5328 
L 4413 5328 
L 4400 4266 
L 6038 4266 
L 5966 734 
Q 5947 22 5905 -156 
Q 5863 -334 5731 -473 
Q 5600 -613 5387 -675 
Q 5175 -738 4269 -747 
Q 4169 -272 4044 191 
Q 4456 166 4728 166 
Q 4909 166 5006 237 
Q 5103 309 5120 445 
Q 5138 581 5161 1404 
Q 5184 2228 5194 3441 
L 4384 3441 
Q 4356 2047 4272 1445 
Q 4188 844 3925 228 
Q 3663 -388 3244 -866 
Q 2888 -584 2481 -341 
Q 2663 -156 2813 50 
L 1078 -97 
Q 688 -144 481 -228 
L 94 528 
Q 422 794 897 2491 
L 119 2491 
L 119 3291 
L 3006 3291 
L 3006 2491 
L 1806 2491 
Q 1516 1594 1188 747 
Q 1756 763 2216 788 
Q 1991 1416 1775 1947 
L 2469 2178 
z
M 2788 4066 
L 388 4066 
L 388 4866 
L 2788 4866 
L 2788 4066 
z
" transform="scale(0.015625)"/>
      <path id="MicrosoftYaHei-Bold-6001" d="M 300 4628 
L 2656 4628 
Q 2719 4953 2700 5334 
L 3625 5334 
Q 3613 4947 3584 4628 
L 6100 4628 
L 6100 3878 
L 3981 3878 
Q 4788 3000 6313 2703 
Q 6063 2228 5869 1784 
Q 4159 2303 3206 3700 
Q 2500 2331 588 1703 
Q 356 2197 88 2616 
Q 1869 3028 2369 3878 
L 300 3878 
L 300 4628 
z
M 2919 3022 
Q 3356 2753 3950 2347 
L 3388 1784 
Q 2863 2222 2406 2528 
L 2919 3022 
z
M 2975 1941 
Q 3619 1559 4163 1166 
L 3644 566 
Q 3119 997 2506 1372 
L 2975 1941 
z
M 5494 1709 
Q 5969 997 6331 278 
L 5588 -128 
Q 5244 603 4775 1353 
L 5494 1709 
z
M 4350 872 
Q 4813 647 5213 497 
Q 5022 -278 4744 -509 
Q 4466 -741 3913 -741 
L 2500 -741 
Q 1563 -741 1563 184 
L 1563 1491 
L 2388 1491 
L 2388 391 
Q 2388 9 2775 9 
L 3713 9 
Q 4019 9 4147 143 
Q 4275 278 4350 872 
z
M 663 1466 
L 1438 1203 
Q 1119 253 863 -353 
L 81 -53 
Q 413 659 663 1466 
z
" transform="scale(0.015625)"/>
      <path id="MicrosoftYaHei-Bold-6f14" d="M 4194 -197 
L 4491 366 
L 3347 366 
L 3725 -191 
Q 2931 -578 1919 -884 
L 1556 -184 
Q 2347 13 3247 366 
L 2025 366 
L 2025 2909 
L 3581 2909 
L 3581 3209 
L 2238 3209 
L 2238 3616 
L 1750 3616 
L 1750 4778 
L 3472 4778 
Q 3394 4947 3294 5147 
L 4150 5372 
Q 4328 5034 4444 4778 
L 6175 4778 
L 6175 3616 
L 5675 3616 
L 5675 3209 
L 4356 3209 
L 4356 2909 
L 5913 2909 
L 5913 366 
L 4681 366 
Q 5716 47 6313 -172 
L 5963 -872 
L 4194 -197 
z
M 5375 4109 
L 2550 4109 
L 2550 3816 
L 5375 3816 
L 5375 4109 
z
M 5150 2303 
L 4356 2303 
L 4356 1922 
L 5150 1922 
L 5150 2303 
z
M 2788 1922 
L 3581 1922 
L 3581 2303 
L 2788 2303 
L 2788 1922 
z
M 2788 972 
L 3581 972 
L 3581 1359 
L 2788 1359 
L 2788 972 
z
M 5150 972 
L 5150 1359 
L 4356 1359 
L 4356 972 
L 5150 972 
z
M 719 5278 
Q 1425 4772 1744 4509 
L 1163 3878 
Q 719 4309 200 4734 
L 719 5278 
z
M 594 3666 
Q 1069 3316 1581 2878 
L 1019 2203 
L 81 3072 
L 594 3666 
z
M 825 1784 
Q 1213 1616 1631 1491 
Q 1356 503 1050 -822 
Q 619 -672 225 -566 
Q 556 541 825 1784 
z
" transform="scale(0.015625)"/>
      <path id="MicrosoftYaHei-Bold-5316" d="M 1625 5297 
L 2494 5009 
Q 2200 4284 1856 3641 
L 1856 -797 
L 956 -797 
L 956 2191 
Q 653 1775 325 1403 
Q 219 1991 88 2497 
Q 1063 3728 1625 5297 
z
M 5456 4447 
L 6238 3847 
Q 5306 2809 4106 1900 
L 4106 622 
Q 4106 153 4513 153 
L 4781 153 
Q 5091 153 5189 359 
Q 5288 566 5350 1597 
Q 5863 1434 6300 1322 
Q 6188 419 6105 37 
Q 6022 -344 5705 -542 
Q 5388 -741 4831 -741 
L 4294 -741 
Q 3169 -741 3169 378 
L 3169 1234 
Q 2806 994 2425 766 
Q 2225 1097 1875 1584 
Q 2553 1947 3169 2378 
L 3169 5272 
L 4106 5272 
L 4106 3100 
Q 4834 3719 5456 4447 
z
" transform="scale(0.015625)"/>
     </defs>
     <use xlink:href="#MicrosoftYaHei-Bold-5b9e"/>
     <use xlink:href="#MicrosoftYaHei-Bold-9a8c" x="100"/>
     <use xlink:href="#MicrosoftYaHei-Bold-20" x="200"/>
     <use xlink:href="#MicrosoftYaHei-Bold-31" x="229.785156"/>
     <use xlink:href="#MicrosoftYaHei-Bold-ff1a" x="291.455078"/>
     <use xlink:href="#MicrosoftYaHei-Bold-5e73" x="391.455078"/>
     <use xlink:href="#MicrosoftYaHei-Bold-53f0" x="491.455078"/>
     <use xlink:href="#MicrosoftYaHei-Bold-20" x="591.455078"/>
     <use xlink:href="#MicrosoftYaHei-Bold-41" x="621.240234"/>
     <use xlink:href="#MicrosoftYaHei-Bold-20" x="696.435547"/>
     <use xlink:href="#MicrosoftYaHei-Bold-7528" x="726.220703"/>
     <use xlink:href="#MicrosoftYaHei-Bold-6237" x="826.220703"/>
     <use xlink:href="#MicrosoftYaHei-Bold-4efd" x="926.220703"/>
     <use xlink:href="#MicrosoftYaHei-Bold-989d" x="1026.220703"/>
     <use xlink:href="#MicrosoftYaHei-Bold-52a8" x="1126.220703"/>
     <use xlink:href="#MicrosoftYaHei-Bold-6001" x="1226.220703"/>
     <use xlink:href="#MicrosoftYaHei-Bold-6f14" x="1326.220703"/>
     <use xlink:href="#MicrosoftYaHei-Bold-5316" x="1426.220703"/>
    </g>
   </g>
   <g id="PathCollection_1">
    <defs>
     <path id="m29f37d9e8b" d="M 0 2.915476 
C 0.773193 2.915476 1.514823 2.608283 2.061553 2.061553 
C 2.608283 1.514823 2.915476 0.773193 2.915476 0 
C 2.915476 -0.773193 2.608283 -1.514823 2.061553 -2.061553 
C 1.514823 -2.608283 0.773193 -2.915476 0 -2.915476 
C -0.773193 -2.915476 -1.514823 -2.608283 -2.061553 -2.061553 
C -2.608283 -1.514823 -2.915476 -0.773193 -2.915476 0 
C -2.915476 0.773193 -2.608283 1.514823 -2.061553 2.061553 
C -1.514823 2.608283 -0.773193 2.915476 0 2.915476 
z
" style="stroke: #fbfaf6; stroke-width: 1.1"/>
    </defs>
    <g clip-path="url(#p8938b5d1b3)">
     <use xlink:href="#m29f37d9e8b" x="555.199539" y="331.590672" style="fill: #557c83; stroke: #fbfaf6; stroke-width: 1.1"/>
    </g>
   </g>
   <g id="PathCollection_2">
    <defs>
     <path id="m5d30626c50" d="M 0 2.915476 
C 0.773193 2.915476 1.514823 2.608283 2.061553 2.061553 
C 2.608283 1.514823 2.915476 0.773193 2.915476 0 
C 2.915476 -0.773193 2.608283 -1.514823 2.061553 -2.061553 
C 1.514823 -2.608283 0.773193 -2.915476 0 -2.915476 
C -0.773193 -2.915476 -1.514823 -2.608283 -2.061553 -2.061553 
C -2.608283 -1.514823 -2.915476 -0.773193 -2.915476 0 
C -2.915476 0.773193 -2.608283 1.514823 -2.061553 2.061553 
C -1.514823 2.608283 -0.773193 2.915476 0 2.915476 
z
" style="stroke: #fbfaf6; stroke-width: 1.1"/>
    </defs>
    <g clip-path="url(#p8938b5d1b3)">
     <use xlink:href="#m5d30626c50" x="555.199539" y="78.559892" style="fill: #e58f3a; stroke: #fbfaf6; stroke-width: 1.1"/>
    </g>
   </g>
   <g id="PathCollection_3">
    <defs>
     <path id="m21d3c427b2" d="M 0 2.915476 
C 0.773193 2.915476 1.514823 2.608283 2.061553 2.061553 
C 2.608283 1.514823 2.915476 0.773193 2.915476 0 
C 2.915476 -0.773193 2.608283 -1.514823 2.061553 -2.061553 
C 1.514823 -2.608283 0.773193 -2.915476 0 -2.915476 
C -0.773193 -2.915476 -1.514823 -2.608283 -2.061553 -2.061553 
C -2.608283 -1.514823 -2.915476 -0.773193 -2.915476 0 
C -2.915476 0.773193 -2.608283 1.514823 -2.061553 2.061553 
C -1.514823 2.608283 -0.773193 2.915476 0 2.915476 
z
" style="stroke: #fbfaf6; stroke-width: 1.1"/>
    </defs>
    <g clip-path="url(#p8938b5d1b3)">
     <use xlink:href="#m21d3c427b2" x="555.199539" y="78.559631" style="fill: #2f9c5b; stroke: #fbfaf6; stroke-width: 1.1"/>
    </g>
   </g>
  </g>
 </g>
 <defs>
  <clipPath id="p8938b5d1b3">
   <rect x="60.299609" y="39.58875" width="632.099911" height="338.107489"/>
  </clipPath>
 </defs>
</svg>
