<?xml version="1.0" encoding="utf-8" standalone="no"?>
<!DOCTYPE svg PUBLIC "-//W3C//DTD SVG 1.1//EN"
  "http://www.w3.org/Graphics/SVG/1.1/DTD/svg11.dtd">
<svg xmlns:xlink="http://www.w3.org/1999/xlink" width="742.79952pt" height="447.59952pt" viewBox="0 0 742.79952 447.59952" xmlns="http://www.w3.org/2000/svg" version="1.1">
 <metadata>
  <rdf:RDF xmlns:dc="http://purl.org/dc/elements/1.1/" xmlns:cc="http://creativecommons.org/ns#" xmlns:rdf="http://www.w3.org/1999/02/22-rdf-syntax-ns#">
   <cc:Work>
    <dc:type rdf:resource="http://purl.org/dc/dcmitype/StillImage"/>
    <dc:date>2026-06-05T14:09:23.538739</dc:date>
    <dc:format>image/svg+xml</dc:format>
    <dc:creator>
     <cc:Agent>
      <dc:title>Matplotlib v3.9.2, https://matplotlib.org/</dc:title>
     </cc:Agent>
    </dc:creator>
   </cc:Work>
  </rdf:RDF>
 </metadata>
 <defs>
  <style type="text/css">*{stroke-linejoin: round; stroke-linecap: butt}</style>
 </defs>
 <g id="figure_1">
  <g id="patch_1">
   <path d="M 0 447.59952 
L 742.79952 447.59952 
L 742.79952 0 
L 0 0 
z
" style="fill: #f7f5ef"/>
  </g>
  <g id="axes_1">
   <g id="patch_2">
    <path d="M 135.883062 385.988989 
L 735.59952 385.988989 
L 735.59952 39.189062 
L 135.883062 39.189062 
z
" style="fill: #fbfaf6"/>
   </g>
   <g id="patch_3">
    <path d="M 168.01073 385.988989 
L 435.741291 385.988989 
L 435.741291 39.189062 
L 168.01073 39.189062 
z
" clip-path="url(#p32daa59be7)" style="fill: #d95f59; opacity: 0.07"/>
   </g>
   <g id="patch_4">
    <path d="M 435.741291 385.988989 
L 703.471853 385.988989 
L 703.471853 39.189062 
L 435.741291 39.189062 
z
" clip-path="url(#p32daa59be7)" style="fill: #2f9c5b; opacity: 0.07"/>
   </g>
   <g id="patch_5">
    <path d="M 435.741291 86.706776 
L 702.564167 86.706776 
L 702.564167 54.952696 
L 435.741291 54.952696 
z
" clip-path="url(#p32daa59be7)" style="fill: #2f9c5b; opacity: 0.92"/>
   </g>
   <g id="patch_6">
    <path d="M 435.741291 143.410492 
L 702.564175 143.410492 
L 702.564175 111.656411 
L 435.741291 111.656411 
z
" clip-path="url(#p32daa59be7)" style="fill: #2f9c5b; opacity: 0.92"/>
   </g>
   <g id="patch_7">
    <path d="M 435.741291 200.114208 
L 168.918403 200.114208 
L 168.918403 168.360127 
L 435.741291 168.360127 
z
" clip-path="url(#p32daa59be7)" style="fill: #d95f59; opacity: 0.92"/>
   </g>
   <g id="patch_8">
    <path d="M 435.741291 256.817924 
L 702.564175 256.817924 
L 702.564175 225.063843 
L 435.741291 225.063843 
z
" clip-path="url(#p32daa59be7)" style="fill: #2f9c5b; opacity: 0.92"/>
   </g>
   <g id="patch_9">
    <path d="M 435.741291 313.52164 
L 168.918403 313.52164 
L 168.918403 281.767559 
L 435.741291 281.767559 
z
" clip-path="url(#p32daa59be7)" style="fill: #d95f59; opacity: 0.92"/>
   </g>
   <g id="patch_10">
    <path d="M 435.741291 370.225356 
L 168.918403 370.225356 
L 168.918403 338.471275 
L 435.741291 338.471275 
z
" clip-path="url(#p32daa59be7)" style="fill: #d95f59; opacity: 0.92"/>
   </g>
   <g id="matplotlib.axis_1">
    <g id="xtick_1">
     <g id="line2d_1">
      <path d="M 168.01073 385.988989 
L 168.01073 39.189062 
" clip-path="url(#p32daa59be7)" style="fill: none; stroke: #d8d1c5; stroke-opacity: 0.45; stroke-width: 0.85; stroke-linecap: square"/>
     </g>
     <g id="line2d_2">
      <defs>
       <path id="m59f681b670" d="M 0 0 
L 0 3.5 
" style="stroke: #32383a; stroke-width: 0.8"/>
      </defs>
      <g>
       <use xlink:href="#m59f681b670" x="168.01073" y="385.988989" style="fill: #32383a; stroke: #32383a; stroke-width: 0.8"/>
      </g>
     </g>
     <g id="text_1">
      <!-- B 完全锁定 -->
      <g style="fill: #32383a" transform="translate(143.393542 400.982739) scale(0.1 -0.1)">
       <defs>
        <path id="MicrosoftYaHei-42" d="M 625 0 
L 625 4841 
L 2047 4841 
Q 2684 4841 3065 4536 
Q 3447 4231 3447 3728 
Q 3447 3328 3220 3022 
Q 2994 2716 2597 2588 
L 2597 2575 
Q 3091 2519 3386 2201 
Q 3681 1884 3681 1397 
Q 3681 772 3232 386 
Q 2784 0 2084 0 
L 625 0 
z
M 1250 4294 
L 1250 2778 
L 1819 2778 
Q 2272 2778 2530 2998 
Q 2788 3219 2788 3609 
Q 2788 4294 1875 4294 
L 1250 4294 
z
M 1250 2234 
L 1250 547 
L 2000 547 
Q 2491 547 2758 773 
Q 3025 1000 3025 1403 
Q 3025 2234 1897 2234 
L 1250 2234 
z
" transform="scale(0.015625)"/>
        <path id="MicrosoftYaHei-20" transform="scale(0.015625)"/>
        <path id="MicrosoftYaHei-5b8c" d="M 275 1959 
L 6150 1959 
L 6150 1516 
L 4131 1516 
L 4131 191 
Q 4131 -222 4538 -222 
L 5200 -222 
Q 5625 -222 5675 65 
Q 5725 353 5744 884 
Q 5969 797 6294 697 
Q 6250 184 6181 -141 
Q 6094 -678 5425 -678 
L 4406 -678 
Q 3625 -678 3625 122 
L 3625 1516 
L 2503 1516 
Q 2488 -247 438 -834 
Q 313 -628 125 -372 
Q 1975 78 2006 1516 
L 275 1516 
L 275 1959 
z
M 325 4534 
L 3000 4534 
Q 2878 4788 2688 5128 
L 3175 5353 
Q 3422 4878 3575 4534 
L 6075 4534 
L 6075 3384 
L 5563 3384 
L 5563 4091 
L 838 4091 
L 838 3384 
L 325 3384 
L 325 4534 
z
M 1050 3253 
L 5450 3253 
L 5450 2816 
L 1050 2816 
L 1050 3253 
z
" transform="scale(0.015625)"/>
        <path id="MicrosoftYaHei-5168" d="M 369 -103 
L 2950 -103 
L 2950 984 
L 925 984 
L 925 1441 
L 2950 1441 
L 2950 2403 
L 1156 2403 
L 1156 2859 
L 5269 2859 
L 5269 2403 
L 3469 2403 
L 3469 1441 
L 5500 1441 
L 5500 984 
L 3469 984 
L 3469 -103 
L 6044 -103 
L 6044 -566 
L 369 -566 
L 369 -103 
z
M 3656 5234 
L 3531 5078 
Q 4581 3703 6319 3009 
Q 6125 2734 5988 2509 
Q 4338 3322 3219 4691 
Q 2263 3453 394 2428 
Q 269 2641 81 2897 
Q 2013 3866 3000 5234 
L 3656 5234 
z
" transform="scale(0.015625)"/>
        <path id="MicrosoftYaHei-9501" d="M 2513 3491 
L 4013 3491 
L 4013 5266 
L 4488 5266 
L 4488 3491 
L 6000 3491 
L 6000 553 
L 5525 553 
L 5525 3053 
L 2988 3053 
L 2988 553 
L 2513 553 
L 2513 3491 
z
M 2263 541 
Q 2269 241 2294 22 
Q 1863 -191 1375 -484 
Q 1263 -547 1113 -697 
L 781 -266 
Q 981 -78 981 203 
L 981 1559 
L 144 1559 
L 144 1991 
L 981 1991 
L 981 2834 
L 563 2834 
L 563 3266 
L 2169 3266 
L 2169 2834 
L 1438 2834 
L 1438 1991 
L 2263 1991 
L 2263 1559 
L 1438 1559 
L 1438 78 
Q 1831 291 2263 541 
z
M 4019 2716 
L 4500 2716 
Q 4506 1191 4369 816 
Q 5381 197 6288 -441 
L 5950 -859 
Q 5081 -178 4188 391 
Q 3638 -516 2238 -928 
Q 2094 -716 1919 -484 
Q 3931 3 3994 1522 
Q 4019 1928 4019 2716 
z
M 69 3384 
Q 663 4228 1038 5316 
L 1506 5159 
Q 1338 4741 1144 4353 
L 2275 4353 
L 2275 3922 
L 919 3922 
Q 644 3416 331 2959 
Q 213 3184 69 3384 
z
M 5000 3884 
Q 5444 4441 5775 4978 
L 6219 4722 
Q 5850 4184 5388 3609 
L 5000 3884 
z
M 2294 4722 
L 2675 4959 
Q 3063 4478 3463 3903 
L 3031 3628 
Q 2675 4222 2294 4722 
z
" transform="scale(0.015625)"/>
        <path id="MicrosoftYaHei-5b9a" d="M 81 -384 
Q 1119 509 1281 2241 
L 1806 2159 
Q 1731 1581 1578 1081 
Q 2063 50 3081 -103 
L 3081 2647 
L 225 2647 
L 225 3116 
L 6163 3116 
L 6163 2647 
L 3600 2647 
L 3600 1634 
L 5775 1634 
L 5775 1172 
L 3600 1172 
L 3600 -138 
Q 4844 -169 6306 -116 
Q 6200 -359 6125 -634 
Q 4594 -653 3450 -616 
Q 2041 -616 1378 528 
Q 1022 -300 413 -872 
Q 269 -628 81 -384 
z
M 450 4566 
L 3116 4566 
Q 2931 4834 2725 5091 
L 3200 5347 
Q 3444 5066 3731 4716 
L 3450 4566 
L 5981 4566 
L 5981 3378 
L 5488 3378 
L 5488 4097 
L 944 4097 
L 944 3384 
L 450 3384 
L 450 4566 
z
" transform="scale(0.015625)"/>
       </defs>
       <use xlink:href="#MicrosoftYaHei-42"/>
       <use xlink:href="#MicrosoftYaHei-20" x="62.744141"/>
       <use xlink:href="#MicrosoftYaHei-5b8c" x="92.333984"/>
       <use xlink:href="#MicrosoftYaHei-5168" x="192.333984"/>
       <use xlink:href="#MicrosoftYaHei-9501" x="292.333984"/>
       <use xlink:href="#MicrosoftYaHei-5b9a" x="392.333984"/>
      </g>
     </g>
    </g>
    <g id="xtick_2">
     <g id="line2d_3">
      <path d="M 301.876011 385.988989 
L 301.876011 39.189062 
" clip-path="url(#p32daa59be7)" style="fill: none; stroke: #d8d1c5; stroke-opacity: 0.45; stroke-width: 0.85; stroke-linecap: square"/>
     </g>
     <g id="line2d_4">
      <g>
       <use xlink:href="#m59f681b670" x="301.876011" y="385.988989" style="fill: #32383a; stroke: #32383a; stroke-width: 0.8"/>
      </g>
     </g>
     <g id="text_2">
      <!-- B 优势 -->
      <g style="fill: #32383a" transform="translate(287.258823 400.982739) scale(0.1 -0.1)">
       <defs>
        <path id="MicrosoftYaHei-4f18" d="M 1825 3609 
L 3184 3609 
Q 3216 4322 3213 5272 
L 3713 5272 
Q 3719 4338 3688 3609 
L 6188 3609 
L 6188 3153 
L 4475 3153 
L 4475 228 
Q 4475 -122 4838 -122 
L 5244 -122 
Q 5656 -122 5700 303 
Q 5750 659 5781 1266 
Q 6031 1166 6294 1066 
Q 6244 528 6175 109 
Q 6100 -291 5900 -447 
Q 5713 -603 5275 -597 
L 4763 -597 
Q 4325 -597 4150 -422 
Q 3969 -259 3969 184 
L 3969 3153 
L 3663 3153 
Q 3600 791 1950 -803 
Q 1775 -597 1575 -397 
Q 3100 1028 3159 3153 
L 1825 3153 
L 1825 3609 
z
M 88 2334 
Q 1056 3641 1556 5291 
L 2063 5122 
Q 1753 4253 1388 3522 
L 1388 -809 
L 913 -809 
L 913 2666 
Q 616 2184 288 1778 
Q 194 2047 88 2334 
z
M 4600 5184 
Q 5269 4759 5713 4391 
Q 5538 4197 5388 3991 
Q 4875 4447 4325 4841 
L 4600 5184 
z
" transform="scale(0.015625)"/>
        <path id="MicrosoftYaHei-52bf" d="M 531 1472 
L 2522 1472 
Q 2544 1653 2544 1859 
L 3031 1859 
Q 3025 1656 3006 1472 
L 5550 1472 
Q 5506 709 5450 128 
Q 5375 -666 4475 -672 
Q 4019 -678 3269 -659 
Q 3231 -397 3163 -116 
Q 3906 -178 4463 -178 
Q 4925 -178 4969 222 
Q 5006 516 5038 1047 
L 2934 1047 
Q 2784 388 2400 28 
Q 1806 -541 469 -853 
Q 344 -647 169 -391 
Q 1519 -116 2031 372 
Q 2313 622 2438 1047 
L 531 1047 
L 531 1472 
z
M 2663 3347 
L 2881 3697 
Q 3144 3566 3388 3441 
Q 3472 3706 3500 4097 
L 2819 4097 
L 2819 4522 
L 3513 4522 
L 3513 5347 
L 3963 5347 
L 3963 4522 
L 5288 4522 
Q 5288 3303 5350 2853 
Q 5419 2347 5625 2347 
Q 5744 2347 5800 2641 
Q 5850 2928 5869 3322 
Q 6088 3228 6306 3153 
Q 6275 2772 6225 2509 
Q 6100 1816 5613 1816 
Q 5056 1816 4919 2584 
Q 4838 3066 4838 4097 
L 3950 4097 
Q 3922 3575 3806 3216 
Q 4247 2969 4606 2741 
L 4338 2322 
Q 4000 2559 3613 2797 
Q 3291 2284 2344 1772 
Q 2206 1978 2019 2172 
Q 2891 2600 3194 3047 
Q 2938 3197 2663 3347 
z
M 250 3184 
Q 616 3244 1313 3378 
L 1313 4041 
L 313 4041 
L 313 4466 
L 1313 4466 
L 1313 5353 
L 1763 5353 
L 1763 4466 
L 2513 4466 
L 2513 4041 
L 1763 4041 
L 1763 3469 
Q 2109 3538 2525 3622 
Q 2538 3284 2544 3178 
Q 2147 3100 1763 3022 
L 1763 2384 
Q 1763 1766 1163 1759 
Q 894 1753 500 1766 
Q 475 2016 425 2222 
Q 831 2191 1075 2191 
Q 1313 2191 1313 2441 
L 1313 2925 
Q 828 2819 363 2709 
L 250 3184 
z
" transform="scale(0.015625)"/>
       </defs>
       <use xlink:href="#MicrosoftYaHei-42"/>
       <use xlink:href="#MicrosoftYaHei-20" x="62.744141"/>
       <use xlink:href="#MicrosoftYaHei-4f18" x="92.333984"/>
       <use xlink:href="#MicrosoftYaHei-52bf" x="192.333984"/>
      </g>
     </g>
    </g>
    <g id="xtick_3">
     <g id="line2d_5">
      <path d="M 435.741291 385.988989 
L 435.741291 39.189062 
" clip-path="url(#p32daa59be7)" style="fill: none; stroke: #d8d1c5; stroke-opacity: 0.45; stroke-width: 0.85; stroke-linecap: square"/>
     </g>
     <g id="line2d_6">
      <g>
       <use xlink:href="#m59f681b670" x="435.741291" y="385.988989" style="fill: #32383a; stroke: #32383a; stroke-width: 0.8"/>
      </g>
     </g>
     <g id="text_3">
      <!-- 均势线 -->
      <g style="fill: #32383a" transform="translate(420.741291 400.982739) scale(0.1 -0.1)">
       <defs>
        <path id="MicrosoftYaHei-5747" d="M 2244 2803 
Q 2931 3953 3338 5322 
L 3838 5172 
Q 3691 4744 3531 4347 
L 6013 4347 
Q 5925 1053 5875 297 
Q 5831 -697 4806 -697 
Q 4188 -697 3706 -672 
Q 3669 -422 3606 -141 
L 3625 -141 
Q 4250 -209 4775 -209 
Q 5350 -209 5394 378 
Q 5456 1447 5513 3891 
L 3341 3891 
Q 3028 3172 2675 2572 
Q 2481 2691 2244 2803 
z
M 81 428 
Q 559 600 1006 769 
L 1006 3253 
L 169 3253 
L 169 3697 
L 1006 3697 
L 1006 5259 
L 1469 5259 
L 1469 3697 
L 2281 3697 
L 2281 3253 
L 1469 3253 
L 1469 947 
Q 1922 1125 2338 1303 
Q 2350 991 2369 784 
Q 1363 403 250 -53 
L 81 428 
z
M 2513 853 
Q 3769 1353 5119 1934 
Q 5150 1641 5188 1434 
Q 4031 947 2706 359 
L 2513 853 
z
M 3138 2909 
L 3481 3216 
Q 4025 2716 4531 2216 
L 4125 1859 
Q 3644 2409 3138 2909 
z
" transform="scale(0.015625)"/>
        <path id="MicrosoftYaHei-7ebf" d="M 1969 -347 
Q 3144 75 4003 631 
Q 3781 1197 3653 1972 
L 2319 1784 
L 2244 2234 
L 3591 2422 
Q 3538 2859 3513 3356 
L 2381 3228 
L 2306 3678 
L 3488 3809 
Q 3453 4459 3425 5303 
L 3938 5303 
Q 3953 4497 3978 3866 
L 6069 4103 
L 6125 3659 
L 3997 3413 
Q 4019 2919 4069 2488 
L 6225 2791 
L 6281 2347 
L 4128 2041 
Q 4234 1394 4416 916 
Q 5078 1416 5519 2009 
L 5925 1703 
Q 5363 1025 4619 475 
Q 4859 44 5194 -184 
Q 5606 -428 5725 66 
Q 5806 466 5856 953 
Q 6144 828 6338 772 
Q 6231 97 6125 -247 
Q 5944 -778 5506 -778 
Q 5050 -778 4663 -403 
Q 4409 -163 4209 194 
Q 3350 -363 2281 -772 
Q 2169 -597 1969 -347 
z
M 900 1541 
Q 1456 1622 2213 1753 
Q 2175 1522 2156 1272 
Q 1113 1109 325 978 
L 225 1447 
Q 659 1913 1178 2775 
Q 672 2747 225 2703 
L 106 3128 
Q 688 3922 1300 5353 
L 1775 5166 
Q 1131 3897 669 3166 
Q 1041 3178 1422 3194 
Q 1638 3578 1869 4028 
L 2331 3797 
Q 1569 2478 900 1541 
z
M 106 97 
Q 1206 334 2331 616 
Q 2313 366 2313 141 
Q 1269 -103 244 -378 
L 106 97 
z
M 4463 4972 
L 4731 5284 
Q 5175 5003 5681 4609 
L 5381 4247 
Q 4863 4691 4463 4972 
z
" transform="scale(0.015625)"/>
       </defs>
       <use xlink:href="#MicrosoftYaHei-5747"/>
       <use xlink:href="#MicrosoftYaHei-52bf" x="100"/>
       <use xlink:href="#MicrosoftYaHei-7ebf" x="200"/>
      </g>
      <!-- L_A=0.5 -->
      <g style="fill: #32383a" transform="translate(416.639729 413.061176) scale(0.1 -0.1)">
       <defs>
        <path id="MicrosoftYaHei-4c" d="M 3178 0 
L 625 0 
L 625 4841 
L 1250 4841 
L 1250 553 
L 3178 553 
L 3178 0 
z
" transform="scale(0.015625)"/>
        <path id="MicrosoftYaHei-5f" d="M 2869 -1634 
L 0 -1634 
L 0 -1231 
L 2869 -1231 
L 2869 -1634 
z
" transform="scale(0.015625)"/>
        <path id="MicrosoftYaHei-41" d="M 4428 0 
L 3738 0 
L 3244 1325 
L 1228 1325 
L 763 0 
L 72 0 
L 1916 4841 
L 2584 4841 
L 4428 0 
z
M 3050 1872 
L 2319 3884 
Q 2284 3981 2244 4222 
L 2228 4222 
Q 2194 4003 2150 3884 
L 1425 1872 
L 3050 1872 
z
" transform="scale(0.015625)"/>
        <path id="MicrosoftYaHei-3d" d="M 3972 2497 
L 788 2497 
L 788 2969 
L 3972 2969 
L 3972 2497 
z
M 3972 1053 
L 788 1053 
L 788 1525 
L 3972 1525 
L 3972 1053 
z
" transform="scale(0.015625)"/>
        <path id="MicrosoftYaHei-30" d="M 284 2325 
Q 284 3606 709 4264 
Q 1134 4922 1941 4922 
Q 3478 4922 3478 2441 
Q 3478 1216 3045 567 
Q 2613 -81 1831 -81 
Q 1094 -81 689 534 
Q 284 1150 284 2325 
z
M 909 2353 
Q 909 425 1888 425 
Q 2850 425 2850 2384 
Q 2850 4413 1906 4413 
Q 909 4413 909 2353 
z
" transform="scale(0.015625)"/>
        <path id="MicrosoftYaHei-2e" d="M 372 322 
Q 372 491 487 606 
Q 603 722 775 722 
Q 950 722 1065 605 
Q 1181 488 1181 322 
Q 1181 159 1065 42 
Q 950 -75 772 -75 
Q 600 -75 486 42 
Q 372 159 372 322 
z
" transform="scale(0.015625)"/>
        <path id="MicrosoftYaHei-35" d="M 3294 1494 
Q 3294 784 2823 350 
Q 2353 -84 1559 -84 
Q 878 -84 544 119 
L 544 744 
Q 1034 425 1544 425 
Q 2050 425 2361 704 
Q 2672 984 2672 1447 
Q 2672 1909 2348 2167 
Q 2025 2425 1434 2425 
Q 978 2425 613 2384 
L 791 4841 
L 3053 4841 
L 3053 4303 
L 1306 4303 
L 1206 2931 
L 1647 2950 
Q 2416 2950 2855 2567 
Q 3294 2184 3294 1494 
z
" transform="scale(0.015625)"/>
       </defs>
       <use xlink:href="#MicrosoftYaHei-4c"/>
       <use xlink:href="#MicrosoftYaHei-5f" x="51.318359"/>
       <use xlink:href="#MicrosoftYaHei-41" x="96.142578"/>
       <use xlink:href="#MicrosoftYaHei-3d" x="166.503906"/>
       <use xlink:href="#MicrosoftYaHei-30" x="240.673828"/>
       <use xlink:href="#MicrosoftYaHei-2e" x="299.316406"/>
       <use xlink:href="#MicrosoftYaHei-35" x="323.388672"/>
      </g>
     </g>
    </g>
    <g id="xtick_4">
     <g id="line2d_7">
      <path d="M 569.606572 385.988989 
L 569.606572 39.189062 
" clip-path="url(#p32daa59be7)" style="fill: none; stroke: #d8d1c5; stroke-opacity: 0.45; stroke-width: 0.85; stroke-linecap: square"/>
     </g>
     <g id="line2d_8">
      <g>
       <use xlink:href="#m59f681b670" x="569.606572" y="385.988989" style="fill: #32383a; stroke: #32383a; stroke-width: 0.8"/>
      </g>
     </g>
     <g id="text_4">
      <!-- A 优势 -->
      <g style="fill: #32383a" transform="translate(554.608916 400.982739) scale(0.1 -0.1)">
       <use xlink:href="#MicrosoftYaHei-41"/>
       <use xlink:href="#MicrosoftYaHei-20" x="70.361328"/>
       <use xlink:href="#MicrosoftYaHei-4f18" x="99.951172"/>
       <use xlink:href="#MicrosoftYaHei-52bf" x="199.951172"/>
      </g>
     </g>
    </g>
    <g id="xtick_5">
     <g id="line2d_9">
      <path d="M 703.471853 385.988989 
L 703.471853 39.189062 
" clip-path="url(#p32daa59be7)" style="fill: none; stroke: #d8d1c5; stroke-opacity: 0.45; stroke-width: 0.85; stroke-linecap: square"/>
     </g>
     <g id="line2d_10">
      <g>
       <use xlink:href="#m59f681b670" x="703.471853" y="385.988989" style="fill: #32383a; stroke: #32383a; stroke-width: 0.8"/>
      </g>
     </g>
     <g id="text_5">
      <!-- A 完全锁定 -->
      <g style="fill: #32383a" transform="translate(678.474196 400.982739) scale(0.1 -0.1)">
       <use xlink:href="#MicrosoftYaHei-41"/>
       <use xlink:href="#MicrosoftYaHei-20" x="70.361328"/>
       <use xlink:href="#MicrosoftYaHei-5b8c" x="99.951172"/>
       <use xlink:href="#MicrosoftYaHei-5168" x="199.951172"/>
       <use xlink:href="#MicrosoftYaHei-9501" x="299.951172"/>
       <use xlink:href="#MicrosoftYaHei-5b9a" x="399.951172"/>
      </g>
     </g>
    </g>
    <g id="text_6">
     <!-- 最终综合份额相对均势线的偏离  $L_A - 0.5$ -->
     <g transform="translate(323.013291 437.366676) scale(0.122 -0.122)">
      <defs>
       <path id="MicrosoftYaHei-6700" d="M 169 -28 
Q 475 3 781 38 
L 781 2416 
L 94 2416 
L 94 2791 
L 6288 2791 
L 6288 2416 
L 3025 2416 
L 3025 331 
Q 3325 375 3625 422 
Q 3619 309 3631 22 
Q 3338 -19 3025 -63 
L 3025 -859 
L 2600 -859 
L 2600 -125 
Q 1525 -278 281 -472 
L 169 -28 
z
M 1038 5053 
L 5363 5053 
L 5363 3047 
L 4925 3047 
L 4925 3191 
L 1475 3191 
L 1475 3047 
L 1038 3047 
L 1038 5053 
z
M 3338 1609 
L 3338 1972 
L 5819 1972 
L 5819 1609 
Q 5500 844 4981 278 
Q 5516 -113 6306 -316 
Q 6144 -553 6025 -753 
Q 5219 -488 4666 -34 
Q 4128 -516 3413 -822 
Q 3306 -634 3125 -428 
Q 3834 -156 4347 266 
Q 3825 825 3603 1609 
L 3338 1609 
z
M 1475 3553 
L 4925 3553 
L 4925 3953 
L 1475 3953 
L 1475 3553 
z
M 4925 4691 
L 1475 4691 
L 1475 4291 
L 4925 4291 
L 4925 4691 
z
M 5344 1609 
L 4025 1609 
Q 4222 994 4659 556 
Q 5094 1013 5344 1609 
z
M 2600 269 
L 2600 691 
L 1206 691 
L 1206 88 
Q 1913 172 2600 269 
z
M 1206 1916 
L 2600 1916 
L 2600 2416 
L 1206 2416 
L 1206 1916 
z
M 1206 1053 
L 2600 1053 
L 2600 1553 
L 1206 1553 
L 1206 1053 
z
" transform="scale(0.015625)"/>
       <path id="MicrosoftYaHei-7ec8" d="M 2156 3234 
Q 2944 4253 3356 5366 
L 3825 5209 
Q 3700 4925 3563 4653 
L 5906 4653 
L 5906 4209 
Q 5425 3378 4663 2750 
Q 5381 2259 6350 2097 
Q 6219 1797 6131 1566 
Q 5038 1875 4278 2456 
Q 3447 1878 2331 1503 
Q 2231 1734 2113 1941 
Q 3156 2238 3931 2756 
Q 3434 3228 3119 3847 
Q 2816 3350 2469 2903 
Q 2350 3041 2156 3234 
z
M 888 1528 
Q 1413 1603 2113 1709 
Q 2075 1466 2056 1241 
Q 1344 1141 319 978 
L 219 1434 
Q 594 1828 1163 2794 
Q 506 2753 219 2728 
L 100 3153 
Q 663 3897 1288 5366 
L 1763 5178 
Q 1156 3991 656 3191 
Q 1047 3200 1403 3209 
Q 1638 3625 1900 4122 
L 2369 3916 
Q 1463 2347 888 1528 
z
M 2625 109 
L 2819 547 
Q 3969 234 5675 -297 
L 5444 -791 
Q 3850 -222 2625 109 
z
M 5356 4234 
L 3372 4234 
Q 3750 3513 4303 3028 
Q 4938 3541 5356 4234 
z
M 88 66 
Q 1069 259 2250 547 
Q 2231 203 2231 78 
Q 1375 -109 225 -416 
L 88 66 
z
M 3338 1247 
L 3525 1666 
Q 4469 1384 5413 1047 
L 5206 553 
Q 4275 953 3338 1247 
z
" transform="scale(0.015625)"/>
       <path id="MicrosoftYaHei-7efc" d="M 881 1578 
Q 1550 1684 2100 1778 
Q 2063 1534 2044 1303 
Q 988 1159 306 1022 
L 194 1484 
Q 678 1988 1188 2756 
Q 581 2719 250 2691 
L 131 3116 
Q 813 4022 1394 5347 
L 1869 5159 
Q 1288 4041 694 3153 
Q 1091 3163 1453 3172 
Q 1691 3566 1938 4016 
L 2400 3784 
Q 1588 2484 881 1578 
z
M 2406 2016 
L 6275 2016 
L 6275 1603 
L 4638 1603 
L 4638 3 
Q 4638 -747 3888 -747 
Q 3631 -747 3213 -741 
Q 3181 -553 3119 -259 
Q 3469 -297 3756 -297 
Q 4163 -297 4163 134 
L 4163 1603 
L 2406 1603 
L 2406 2016 
z
M 2513 4528 
L 4166 4528 
Q 3931 4878 3713 5147 
L 4125 5397 
Q 4431 5041 4650 4716 
L 4347 4528 
L 6194 4528 
L 6194 3522 
L 5731 3522 
L 5731 4116 
L 2975 4116 
L 2975 3522 
L 2513 3522 
L 2513 4528 
z
M 2781 3241 
L 5913 3241 
L 5913 2828 
L 2781 2828 
L 2781 3241 
z
M 113 84 
Q 944 197 2175 428 
Q 2138 91 2131 -34 
Q 1425 -147 225 -391 
L 113 84 
z
M 3044 1284 
L 3500 1091 
Q 3081 203 2688 -428 
Q 2469 -309 2238 -197 
Q 2681 466 3044 1284 
z
M 5081 1059 
L 5506 1278 
Q 5931 641 6344 -134 
L 5888 -384 
Q 5469 441 5081 1059 
z
" transform="scale(0.015625)"/>
       <path id="MicrosoftYaHei-5408" d="M 1025 1909 
L 5381 1909 
L 5381 -866 
L 4881 -866 
L 4881 -447 
L 1525 -447 
L 1525 -878 
L 1025 -878 
L 1025 1909 
z
M 3700 5234 
L 3550 5053 
Q 4594 3697 6319 3009 
Q 6125 2734 5988 2509 
Q 5481 2753 5025 3059 
L 5025 2703 
L 1369 2703 
L 1369 3016 
Q 913 2716 394 2428 
Q 269 2641 81 2897 
Q 2013 3866 3000 5234 
L 3700 5234 
z
M 4881 1453 
L 1525 1453 
L 1525 -3 
L 4881 -3 
L 4881 1453 
z
M 3219 4691 
Q 2581 3872 1550 3147 
L 4894 3147 
Q 3944 3797 3219 4691 
z
" transform="scale(0.015625)"/>
       <path id="MicrosoftYaHei-4efd" d="M 2269 2653 
L 5394 2653 
Q 5388 2566 5300 366 
Q 5275 -709 4319 -722 
Q 3806 -722 3425 -703 
Q 3394 -416 3331 -184 
Q 3763 -241 4200 -253 
Q 4806 -297 4813 422 
Q 4863 1259 4888 2216 
L 3481 2216 
Q 3463 1222 3181 572 
Q 2844 -172 2019 -822 
Q 1856 -622 1656 -416 
Q 2450 203 2713 772 
Q 2969 1275 2997 2216 
L 2269 2216 
L 2269 2653 
z
M 75 2353 
Q 969 3534 1525 5284 
L 2013 5116 
Q 1709 4284 1350 3559 
L 1350 -809 
L 875 -809 
L 875 2691 
Q 588 2216 275 1797 
Q 181 2066 75 2353 
z
M 4006 5116 
L 4419 5291 
Q 5038 3703 6325 2972 
Q 6088 2697 5969 2516 
Q 4575 3472 4006 5116 
z
M 1588 2741 
Q 2563 3597 3163 5034 
L 3606 4866 
Q 3025 3409 1963 2397 
Q 1738 2628 1588 2741 
z
" transform="scale(0.015625)"/>
       <path id="MicrosoftYaHei-989d" d="M 863 2484 
L 1094 2834 
Q 1463 2653 1794 2491 
Q 2119 2809 2344 3203 
L 1125 3203 
Q 794 2659 419 2247 
Q 281 2397 125 2547 
Q 719 3172 1100 4072 
L 1513 3934 
Q 1425 3747 1331 3578 
L 2844 3578 
L 2844 3222 
Q 2588 2703 2194 2291 
Q 2738 2016 3194 1778 
L 2938 1372 
Q 2406 1678 1850 1978 
Q 1381 1597 763 1322 
L 2756 1322 
L 2756 -684 
L 2344 -684 
L 2344 -416 
L 1063 -416 
L 1063 -734 
L 650 -734 
L 650 1272 
Q 463 1197 269 1128 
Q 188 1297 63 1509 
Q 869 1766 1444 2191 
Q 1156 2334 863 2484 
z
M 3369 3728 
L 4281 3728 
L 4425 4516 
L 3244 4516 
L 3244 4941 
L 6231 4941 
L 6231 4516 
L 4906 4516 
L 4738 3728 
L 6038 3728 
L 6038 591 
L 5600 591 
L 5600 3303 
L 3806 3303 
L 3806 591 
L 3369 591 
L 3369 3728 
z
M 4481 2916 
L 4931 2916 
Q 4944 1322 4788 709 
Q 5688 78 6356 -453 
L 6044 -853 
Q 5438 -303 4619 291 
Q 4231 -416 3169 -916 
Q 3044 -734 2869 -516 
Q 4019 -3 4294 716 
Q 4519 1216 4481 2916 
z
M 250 4591 
L 1538 4591 
Q 1413 4872 1244 5172 
L 1650 5347 
Q 1881 4916 2031 4591 
L 3138 4591 
L 3138 3709 
L 2713 3709 
L 2713 4216 
L 675 4216 
L 675 3709 
L 250 3709 
L 250 4591 
z
M 2344 934 
L 1063 934 
L 1063 -28 
L 2344 -28 
L 2344 934 
z
" transform="scale(0.015625)"/>
       <path id="MicrosoftYaHei-76f8" d="M 2738 4891 
L 6025 4891 
L 6025 -822 
L 5550 -822 
L 5550 -397 
L 3213 -397 
L 3213 -822 
L 2738 -822 
L 2738 4891 
z
M 94 1409 
Q 784 2372 1128 3622 
L 169 3622 
L 169 4041 
L 1138 4041 
L 1138 5284 
L 1594 5284 
L 1594 4041 
L 2506 4041 
L 2506 3622 
L 1594 3622 
L 1594 2534 
L 1844 2791 
Q 2275 2372 2638 1984 
L 2300 1653 
Q 1956 2059 1594 2444 
L 1594 -809 
L 1138 -809 
L 1138 2444 
Q 800 1516 319 866 
Q 225 1134 94 1409 
z
M 3213 28 
L 5550 28 
L 5550 1241 
L 3213 1241 
L 3213 28 
z
M 5550 4466 
L 3213 4466 
L 3213 3266 
L 5550 3266 
L 5550 4466 
z
M 3213 1653 
L 5550 1653 
L 5550 2853 
L 3213 2853 
L 3213 1653 
z
" transform="scale(0.015625)"/>
       <path id="MicrosoftYaHei-5bf9" d="M 694 3691 
Q 1234 2909 1741 2166 
Q 2113 3081 2213 4147 
L 250 4147 
L 250 4622 
L 2725 4622 
L 2725 4166 
Q 2553 2809 2059 1700 
Q 2569 953 3044 247 
L 2594 -53 
Q 2203 563 1803 1181 
Q 1247 163 388 -622 
Q 263 -428 81 -166 
Q 975 638 1500 1647 
Q 919 2538 319 3434 
L 694 3691 
z
M 2975 3941 
L 5056 3941 
L 5056 5278 
L 5563 5278 
L 5563 3941 
L 6325 3941 
L 6325 3466 
L 5563 3466 
L 5563 191 
Q 5563 -716 4669 -716 
Q 4388 -716 3744 -709 
Q 3713 -478 3644 -147 
Q 4263 -197 4588 -197 
Q 5056 -197 5056 278 
L 5056 3466 
L 2975 3466 
L 2975 3941 
z
M 3088 2684 
L 3494 2928 
Q 4000 2184 4388 1484 
L 3919 1216 
Q 3550 1922 3088 2684 
z
" transform="scale(0.015625)"/>
       <path id="MicrosoftYaHei-7684" d="M 356 4284 
L 988 4284 
Q 1219 4853 1369 5322 
L 1894 5172 
Q 1697 4694 1513 4284 
L 2763 4284 
L 2763 -691 
L 2263 -691 
L 2263 -203 
L 856 -203 
L 856 -734 
L 356 -734 
L 356 4284 
z
M 2856 3003 
Q 3444 3934 3850 5322 
L 4375 5191 
Q 4216 4719 4050 4303 
L 6063 4303 
Q 5988 1091 5938 259 
Q 5894 -722 4906 -722 
Q 4338 -722 3750 -684 
Q 3713 -372 3650 -128 
L 3669 -128 
Q 4294 -216 4813 -216 
Q 5381 -216 5425 384 
Q 5494 1316 5525 3834 
L 3850 3834 
Q 3578 3231 3288 2772 
Q 3119 2891 2856 3003 
z
M 856 266 
L 2263 266 
L 2263 1847 
L 856 1847 
L 856 266 
z
M 2263 3816 
L 856 3816 
L 856 2297 
L 2263 2297 
L 2263 3816 
z
M 3406 2578 
L 3788 2859 
Q 4481 2041 4894 1441 
L 4431 1116 
Q 3988 1841 3406 2578 
z
" transform="scale(0.015625)"/>
       <path id="MicrosoftYaHei-504f" d="M 3088 -803 
L 2675 -803 
L 2675 2522 
L 6050 2522 
L 6050 -128 
Q 6050 -497 5919 -628 
Q 5794 -766 5444 -784 
Q 5213 -791 5019 -791 
Q 4994 -616 4953 -466 
L 4644 -466 
L 4644 797 
L 4063 797 
L 4063 -491 
L 3669 -491 
L 3669 797 
L 3088 797 
L 3088 -803 
z
M 2013 4678 
L 3884 4678 
Q 3738 4941 3606 5141 
L 4081 5359 
Q 4259 5075 4481 4678 
L 5956 4678 
L 5956 2966 
L 5525 2966 
L 5525 3166 
L 2450 3166 
L 2450 2816 
Q 2450 1316 2294 616 
Q 2138 -153 1706 -841 
Q 1575 -647 1363 -428 
Q 1744 159 1875 834 
Q 2013 1491 2013 2784 
L 2013 4678 
z
M 81 2291 
Q 913 3553 1381 5322 
L 1850 5203 
Q 1594 4353 1275 3609 
L 1275 -828 
L 838 -828 
L 838 2703 
Q 572 2209 275 1778 
Q 188 2041 81 2291 
z
M 5525 4278 
L 2450 4278 
L 2450 3566 
L 5525 3566 
L 5525 4278 
z
M 5381 -391 
Q 5631 -391 5631 -103 
L 5631 797 
L 5038 797 
L 5038 -375 
Q 5238 -391 5381 -391 
z
M 5631 2122 
L 5038 2122 
L 5038 1178 
L 5631 1178 
L 5631 2122 
z
M 4063 1178 
L 4644 1178 
L 4644 2122 
L 4063 2122 
L 4063 1178 
z
M 3088 1178 
L 3669 1178 
L 3669 2122 
L 3088 2122 
L 3088 1178 
z
" transform="scale(0.015625)"/>
       <path id="MicrosoftYaHei-79bb" d="M 2381 459 
Q 3106 484 3878 519 
Q 3716 700 3550 878 
L 3863 1122 
Q 4350 634 4781 147 
L 4450 -141 
Q 4331 0 4213 141 
Q 3416 103 2450 41 
Q 2175 22 1863 -28 
L 1688 416 
Q 1950 578 2131 822 
Q 2278 1025 2425 1278 
L 1056 1278 
L 1056 -822 
L 588 -822 
L 588 1691 
L 2650 1691 
Q 2784 1950 2916 2253 
L 825 2253 
L 825 4066 
L 1281 4066 
L 1281 2653 
L 5113 2653 
L 5113 4072 
L 5569 4072 
L 5569 2028 
L 5113 2028 
L 5113 2253 
L 3472 2253 
Q 3322 1963 3169 1691 
L 5800 1691 
L 5800 -122 
Q 5800 -791 5175 -791 
Q 4875 -791 4519 -778 
Q 4494 -559 4431 -297 
Q 4800 -334 5063 -334 
Q 5331 -334 5331 -53 
L 5331 1278 
L 2928 1278 
Q 2659 838 2381 459 
z
M 200 4734 
L 2919 4734 
Q 2788 4969 2669 5153 
L 3150 5372 
Q 3309 5141 3541 4734 
L 6200 4734 
L 6200 4309 
L 200 4309 
L 200 4734 
z
M 1613 3884 
L 1781 4216 
Q 2500 3984 3294 3700 
Q 3934 3956 4500 4247 
L 4688 3928 
Q 4269 3709 3816 3513 
Q 4281 3341 4775 3153 
L 4606 2797 
Q 3938 3072 3325 3303 
Q 2569 3000 1731 2747 
Q 1619 2947 1506 3103 
Q 2169 3288 2772 3503 
Q 2159 3719 1613 3884 
z
" transform="scale(0.015625)"/>
       <path id="DejaVuSans-Oblique-4c" d="M 1075 4666 
L 1709 4666 
L 909 525 
L 3181 525 
L 3078 0 
L 172 0 
L 1075 4666 
z
" transform="scale(0.015625)"/>
       <path id="DejaVuSans-Oblique-41" d="M 2356 4666 
L 3072 4666 
L 3938 0 
L 3278 0 
L 3084 1197 
L 984 1197 
L 325 0 
L -341 0 
L 2356 4666 
z
M 2584 4044 
L 1275 1722 
L 2988 1722 
L 2584 4044 
z
" transform="scale(0.015625)"/>
       <path id="DejaVuSans-2212" d="M 678 2272 
L 4684 2272 
L 4684 1741 
L 678 1741 
L 678 2272 
z
" transform="scale(0.015625)"/>
       <path id="DejaVuSans-30" d="M 2034 4250 
Q 1547 4250 1301 3770 
Q 1056 3291 1056 2328 
Q 1056 1369 1301 889 
Q 1547 409 2034 409 
Q 2525 409 2770 889 
Q 3016 1369 3016 2328 
Q 3016 3291 2770 3770 
Q 2525 4250 2034 4250 
z
M 2034 4750 
Q 2819 4750 3233 4129 
Q 3647 3509 3647 2328 
Q 3647 1150 3233 529 
Q 2819 -91 2034 -91 
Q 1250 -91 836 529 
Q 422 1150 422 2328 
Q 422 3509 836 4129 
Q 1250 4750 2034 4750 
z
" transform="scale(0.015625)"/>
       <path id="DejaVuSans-2e" d="M 684 794 
L 1344 794 
L 1344 0 
L 684 0 
L 684 794 
z
" transform="scale(0.015625)"/>
       <path id="DejaVuSans-35" d="M 691 4666 
L 3169 4666 
L 3169 4134 
L 1269 4134 
L 1269 2991 
Q 1406 3038 1543 3061 
Q 1681 3084 1819 3084 
Q 2600 3084 3056 2656 
Q 3513 2228 3513 1497 
Q 3513 744 3044 326 
Q 2575 -91 1722 -91 
Q 1428 -91 1123 -41 
Q 819 9 494 109 
L 494 744 
Q 775 591 1075 516 
Q 1375 441 1709 441 
Q 2250 441 2565 725 
Q 2881 1009 2881 1497 
Q 2881 1984 2565 2268 
Q 2250 2553 1709 2553 
Q 1456 2553 1204 2497 
Q 953 2441 691 2322 
L 691 4666 
z
" transform="scale(0.015625)"/>
      </defs>
      <use xlink:href="#MicrosoftYaHei-6700" transform="translate(0 0.671875)"/>
      <use xlink:href="#MicrosoftYaHei-7ec8" transform="translate(100 0.671875)"/>
      <use xlink:href="#MicrosoftYaHei-7efc" transform="translate(200 0.671875)"/>
      <use xlink:href="#MicrosoftYaHei-5408" transform="translate(300 0.671875)"/>
      <use xlink:href="#MicrosoftYaHei-4efd" transform="translate(400 0.671875)"/>
      <use xlink:href="#MicrosoftYaHei-989d" transform="translate(500 0.671875)"/>
      <use xlink:href="#MicrosoftYaHei-76f8" transform="translate(600 0.671875)"/>
      <use xlink:href="#MicrosoftYaHei-5bf9" transform="translate(700 0.671875)"/>
      <use xlink:href="#MicrosoftYaHei-5747" transform="translate(800 0.671875)"/>
      <use xlink:href="#MicrosoftYaHei-52bf" transform="translate(900 0.671875)"/>
      <use xlink:href="#MicrosoftYaHei-7ebf" transform="translate(1000 0.671875)"/>
      <use xlink:href="#MicrosoftYaHei-7684" transform="translate(1100 0.671875)"/>
      <use xlink:href="#MicrosoftYaHei-504f" transform="translate(1200 0.671875)"/>
      <use xlink:href="#MicrosoftYaHei-79bb" transform="translate(1300 0.671875)"/>
      <use xlink:href="#MicrosoftYaHei-20" transform="translate(1400 0.671875)"/>
      <use xlink:href="#MicrosoftYaHei-20" transform="translate(1429.589844 0.671875)"/>
      <use xlink:href="#DejaVuSans-Oblique-4c" transform="translate(1459.179688 0.671875)"/>
      <use xlink:href="#DejaVuSans-Oblique-41" transform="translate(1514.892578 -15.734375) scale(0.7)"/>
      <use xlink:href="#DejaVuSans-2212" transform="translate(1584.995117 0.671875)"/>
      <use xlink:href="#DejaVuSans-30" transform="translate(1688.266602 0.671875)"/>
      <use xlink:href="#DejaVuSans-2e" transform="translate(1751.889648 0.671875)"/>
      <use xlink:href="#DejaVuSans-35" transform="translate(1783.676758 0.671875)"/>
     </g>
    </g>
   </g>
   <g id="matplotlib.axis_2">
    <g id="ytick_1">
     <g id="line2d_11"/>
     <g id="text_7">
      <!-- 双边同步领先 -->
      <g style="fill: #32383a" transform="translate(61.683062 69.499759) scale(0.107 -0.107)">
       <defs>
        <path id="MicrosoftYaHei-53cc" d="M 2950 4384 
L 2950 4859 
L 5894 4859 
L 5894 4403 
Q 5628 2144 4750 953 
Q 5413 184 6325 -241 
Q 6106 -503 5919 -716 
Q 5072 -181 4434 566 
Q 3728 -222 2525 -866 
Q 2413 -703 2194 -428 
Q 3406 159 4119 963 
Q 3269 2159 3119 4384 
L 2950 4384 
z
M 250 3634 
L 644 3878 
Q 1213 3041 1778 2156 
Q 2159 3163 2275 4372 
L 175 4372 
L 175 4847 
L 2775 4847 
L 2775 4372 
Q 2559 2756 2091 1659 
Q 2509 1000 2925 309 
L 2513 -9 
Q 2163 584 1831 1131 
Q 1297 153 456 -653 
Q 263 -447 69 -303 
Q 1047 616 1541 1606 
Q 850 2734 250 3634 
z
M 5369 4384 
L 3578 4384 
Q 3738 2388 4428 1366 
Q 5172 2488 5369 4384 
z
" transform="scale(0.015625)"/>
        <path id="MicrosoftYaHei-8fb9" d="M 2050 4172 
L 3291 4172 
Q 3306 4772 3306 5291 
L 3831 5291 
Q 3825 4788 3806 4172 
L 5925 4172 
Q 5850 2334 5781 1441 
Q 5694 372 4819 372 
Q 4363 372 3831 397 
Q 3794 653 3738 959 
Q 4344 897 4681 897 
Q 5219 897 5275 1503 
Q 5350 2372 5394 3697 
L 3791 3697 
Q 3744 1225 2044 259 
Q 1894 447 1681 672 
Q 3219 1528 3278 3697 
L 2050 3697 
L 2050 4172 
z
M 2909 -153 
L 4425 -172 
L 6313 -109 
Q 6206 -366 6113 -609 
L 4356 -634 
L 2897 -619 
Q 1644 -597 1156 122 
Q 775 -209 369 -697 
L 100 -166 
Q 609 275 931 550 
L 931 2678 
L 131 2678 
L 131 3134 
L 1431 3134 
L 1431 456 
Q 1894 -125 2909 -153 
z
M 794 5266 
Q 1175 4803 1656 4147 
Q 1431 4016 1206 3853 
Q 819 4453 406 4997 
L 794 5266 
z
" transform="scale(0.015625)"/>
        <path id="MicrosoftYaHei-540c" d="M 1013 -772 
L 531 -772 
L 531 4959 
L 5856 4959 
L 5856 -47 
Q 5856 -741 5125 -741 
Q 4669 -741 4088 -716 
Q 4056 -497 4000 -216 
Q 4619 -272 5025 -272 
Q 5375 -272 5375 78 
L 5375 4497 
L 1013 4497 
L 1013 -772 
z
M 1875 2566 
L 4506 2566 
L 4506 597 
L 2338 597 
L 2338 272 
L 1875 272 
L 1875 2566 
z
M 4044 2116 
L 2338 2116 
L 2338 1047 
L 4044 1047 
L 4044 2116 
z
M 1363 3734 
L 5025 3734 
L 5025 3284 
L 1363 3284 
L 1363 3734 
z
" transform="scale(0.015625)"/>
        <path id="MicrosoftYaHei-6b65" d="M 188 2997 
L 1250 2997 
L 1250 4759 
L 1750 4759 
L 1750 2997 
L 3088 2997 
L 3088 5328 
L 3588 5328 
L 3588 4416 
L 5744 4416 
L 5744 3966 
L 3588 3966 
L 3588 2997 
L 6225 2997 
L 6225 2534 
L 188 2534 
L 188 2997 
z
M 188 -441 
Q 3744 -9 5400 1872 
L 5794 1484 
Q 4013 -453 375 -891 
Q 306 -691 188 -441 
z
M 1794 2147 
L 2194 1803 
Q 1369 947 613 322 
Q 469 497 275 691 
Q 1044 1291 1794 2147 
z
M 3038 2378 
L 3538 2378 
L 3538 528 
L 3038 528 
L 3038 2378 
z
" transform="scale(0.015625)"/>
        <path id="MicrosoftYaHei-9886" d="M 3000 3716 
L 4106 3716 
L 4263 4572 
L 2700 4572 
L 2700 5009 
L 6294 5009 
L 6294 4572 
L 4769 4572 
L 4588 3716 
L 6000 3716 
L 6000 728 
L 5550 728 
L 5550 3284 
L 3450 3284 
L 3450 703 
L 3000 703 
L 3000 3716 
z
M 4263 3028 
L 4713 3028 
L 4713 2091 
Q 4713 1397 4563 897 
Q 5469 234 6288 -472 
L 5913 -866 
Q 5200 -178 4381 466 
Q 4350 409 4319 359 
Q 3894 -322 2819 -872 
Q 2613 -609 2469 -459 
Q 3506 -9 3894 584 
Q 4263 1109 4263 2103 
L 4263 3028 
z
M 544 891 
L 913 1166 
Q 1200 822 1475 484 
Q 1800 1066 2131 1872 
L 294 1872 
L 294 2303 
L 2638 2303 
L 2638 1872 
Q 2163 809 1775 109 
Q 2019 -191 2250 -497 
L 1819 -797 
Q 1194 122 544 891 
z
M 1850 5191 
L 1775 5022 
Q 2350 4353 2894 3603 
L 2519 3266 
Q 2031 4003 1569 4591 
Q 1081 3553 375 2553 
Q 250 2766 69 2991 
Q 819 3922 1363 5191 
L 1850 5191 
z
M 1175 3509 
L 1563 3703 
Q 1844 3259 2088 2766 
L 1656 2541 
Q 1494 2941 1175 3509 
z
" transform="scale(0.015625)"/>
        <path id="MicrosoftYaHei-5148" d="M 225 2453 
L 2956 2453 
L 2956 3784 
L 1459 3784 
Q 1153 3166 800 2709 
Q 569 2891 394 2997 
Q 1094 3903 1481 5166 
L 1969 5028 
Q 1828 4613 1672 4247 
L 2956 4247 
L 2956 5309 
L 3469 5309 
L 3469 4247 
L 5788 4247 
L 5788 3784 
L 3469 3784 
L 3469 2453 
L 6219 2453 
L 6219 1991 
L 4206 1991 
L 4206 222 
Q 4169 -259 4638 -216 
L 5275 -216 
Q 5706 -216 5750 109 
Q 5794 428 5819 1022 
Q 6056 922 6344 834 
Q 6313 372 6231 -122 
Q 6169 -434 5956 -559 
Q 5769 -678 5281 -678 
L 4538 -678 
Q 3663 -716 3700 141 
L 3700 1991 
L 2478 1991 
Q 2428 909 2044 328 
Q 1581 -397 369 -847 
Q 244 -647 50 -397 
Q 1163 -16 1581 584 
Q 1925 1047 1978 1991 
L 225 1991 
L 225 2453 
z
" transform="scale(0.015625)"/>
       </defs>
       <use xlink:href="#MicrosoftYaHei-53cc"/>
       <use xlink:href="#MicrosoftYaHei-8fb9" x="100"/>
       <use xlink:href="#MicrosoftYaHei-540c" x="200"/>
       <use xlink:href="#MicrosoftYaHei-6b65" x="300"/>
       <use xlink:href="#MicrosoftYaHei-9886" x="400"/>
       <use xlink:href="#MicrosoftYaHei-5148" x="500"/>
      </g>
      <!-- u0=0.6, m0=0.6 -->
      <g style="fill: #32383a" transform="translate(44.847281 82.851353) scale(0.107 -0.107)">
       <defs>
        <path id="MicrosoftYaHei-75" d="M 3400 0 
L 2784 0 
L 2784 544 
L 2772 544 
Q 2425 -81 1706 -81 
Q 478 -81 478 1388 
L 478 3456 
L 1084 3456 
L 1084 1478 
Q 1084 425 1891 425 
Q 2291 425 2537 720 
Q 2784 1016 2784 1466 
L 2784 3456 
L 3400 3456 
L 3400 0 
z
" transform="scale(0.015625)"/>
        <path id="MicrosoftYaHei-36" d="M 3181 4219 
Q 2803 4413 2391 4413 
Q 1763 4413 1381 3866 
Q 1000 3319 994 2372 
L 1009 2372 
Q 1353 3038 2106 3038 
Q 2734 3038 3109 2628 
Q 3484 2219 3484 1541 
Q 3484 831 3051 375 
Q 2619 -81 1947 -81 
Q 1209 -81 789 495 
Q 369 1072 369 2131 
Q 369 3413 920 4167 
Q 1472 4922 2372 4922 
Q 2888 4922 3181 4781 
L 3181 4219 
z
M 1031 1584 
Q 1031 1106 1286 765 
Q 1541 425 1963 425 
Q 2363 425 2613 719 
Q 2863 1013 2863 1475 
Q 2863 1975 2627 2253 
Q 2391 2531 1956 2531 
Q 1544 2531 1287 2250 
Q 1031 1969 1031 1584 
z
" transform="scale(0.015625)"/>
        <path id="MicrosoftYaHei-2c" d="M 1109 778 
L 575 -888 
L 131 -888 
L 519 778 
L 1109 778 
z
" transform="scale(0.015625)"/>
        <path id="MicrosoftYaHei-6d" d="M 5522 0 
L 4909 0 
L 4909 1984 
Q 4909 2547 4734 2789 
Q 4559 3031 4159 3031 
Q 3822 3031 3581 2715 
Q 3341 2400 3341 1969 
L 3341 0 
L 2728 0 
L 2728 2047 
Q 2728 3031 1969 3031 
Q 1619 3031 1389 2731 
Q 1159 2431 1159 1966 
L 1159 0 
L 547 0 
L 547 3456 
L 1159 3456 
L 1159 2909 
L 1172 2909 
Q 1541 3538 2250 3538 
Q 2597 3538 2862 3347 
Q 3128 3156 3231 2831 
Q 3616 3538 4381 3538 
Q 5522 3538 5522 2131 
L 5522 0 
z
" transform="scale(0.015625)"/>
       </defs>
       <use xlink:href="#MicrosoftYaHei-75"/>
       <use xlink:href="#MicrosoftYaHei-30" x="61.621094"/>
       <use xlink:href="#MicrosoftYaHei-3d" x="120.263672"/>
       <use xlink:href="#MicrosoftYaHei-30" x="194.433594"/>
       <use xlink:href="#MicrosoftYaHei-2e" x="253.076172"/>
       <use xlink:href="#MicrosoftYaHei-36" x="277.148438"/>
       <use xlink:href="#MicrosoftYaHei-2c" x="335.791016"/>
       <use xlink:href="#MicrosoftYaHei-20" x="359.863281"/>
       <use xlink:href="#MicrosoftYaHei-6d" x="389.453125"/>
       <use xlink:href="#MicrosoftYaHei-30" x="483.154297"/>
       <use xlink:href="#MicrosoftYaHei-3d" x="541.796875"/>
       <use xlink:href="#MicrosoftYaHei-30" x="615.966797"/>
       <use xlink:href="#MicrosoftYaHei-2e" x="674.609375"/>
       <use xlink:href="#MicrosoftYaHei-36" x="698.681641"/>
      </g>
     </g>
    </g>
    <g id="ytick_2">
     <g id="line2d_12"/>
     <g id="text_8">
      <!-- 用户先行 / A 略占优 -->
      <g style="fill: #32383a" transform="translate(29.384109 126.203475) scale(0.107 -0.107)">
       <defs>
        <path id="MicrosoftYaHei-7528" d="M 3088 -734 
L 3088 1253 
L 1269 1253 
Q 1163 -47 513 -903 
Q 350 -697 144 -472 
Q 550 103 694 803 
Q 831 1478 831 2716 
L 831 4947 
L 5925 4947 
L 5925 -22 
Q 5925 -766 5219 -766 
Q 4788 -766 4250 -747 
Q 4219 -541 4156 -228 
Q 4700 -266 5038 -266 
Q 5425 -266 5425 103 
L 5425 1253 
L 3588 1253 
L 3588 -734 
L 3088 -734 
z
M 3588 1703 
L 5425 1703 
L 5425 2872 
L 3588 2872 
L 3588 1703 
z
M 5425 4484 
L 3588 4484 
L 3588 3322 
L 5425 3322 
L 5425 4484 
z
M 1303 1703 
L 3088 1703 
L 3088 2872 
L 1331 2872 
Q 1350 2266 1303 1703 
z
M 1331 4484 
L 1331 3322 
L 3088 3322 
L 3088 4484 
L 1331 4484 
z
" transform="scale(0.015625)"/>
        <path id="MicrosoftYaHei-6237" d="M 2725 5116 
L 3175 5384 
Q 3475 5028 3769 4609 
L 3463 4416 
L 5794 4416 
L 5794 1647 
L 5294 1647 
L 5294 1972 
L 1347 1972 
Q 1263 172 419 -903 
Q 250 -697 56 -491 
Q 856 484 856 2434 
L 856 4416 
L 3241 4416 
Q 3013 4766 2725 5116 
z
M 1356 3966 
L 1356 2422 
L 5294 2422 
L 5294 3966 
L 1356 3966 
z
" transform="scale(0.015625)"/>
        <path id="MicrosoftYaHei-884c" d="M 2363 2978 
L 6319 2978 
L 6319 2509 
L 5106 2509 
L 5106 66 
Q 5106 -709 4325 -709 
Q 3800 -709 3256 -703 
Q 3219 -453 3163 -141 
Q 3650 -191 4144 -191 
Q 4575 -191 4575 234 
L 4575 2509 
L 2363 2509 
L 2363 2978 
z
M 100 1578 
Q 1069 2372 1863 3809 
L 2300 3541 
Q 1978 2984 1619 2500 
L 1619 -809 
L 1100 -809 
L 1100 1856 
Q 725 1431 319 1072 
Q 219 1334 100 1578 
z
M 2725 4866 
L 5969 4866 
L 5969 4397 
L 2725 4397 
L 2725 4866 
z
M 131 3559 
Q 1125 4328 1731 5347 
L 2181 5072 
Q 1456 3959 381 3078 
Q 269 3316 131 3559 
z
" transform="scale(0.015625)"/>
        <path id="MicrosoftYaHei-2f" d="M 2791 4841 
L 469 -803 
L -103 -803 
L 2219 4841 
L 2791 4841 
z
" transform="scale(0.015625)"/>
        <path id="MicrosoftYaHei-7565" d="M 413 4716 
L 2600 4716 
L 2600 -222 
L 2188 -222 
L 2188 97 
L 825 97 
L 825 -347 
L 413 -347 
L 413 4716 
z
M 2638 3378 
Q 3269 4222 3719 5341 
L 4169 5197 
Q 4044 4913 3919 4653 
L 5888 4653 
L 5888 4234 
Q 5453 3375 4819 2756 
Q 5434 2328 6331 2109 
Q 6194 1853 6094 1591 
Q 5122 1919 4466 2450 
Q 3797 1925 2906 1516 
Q 2756 1772 2619 1947 
Q 3463 2269 4125 2763 
Q 3747 3159 3428 3734 
Q 3200 3353 2969 3047 
Q 2781 3266 2638 3378 
z
M 3200 1584 
L 5756 1584 
L 5756 -847 
L 5294 -847 
L 5294 -547 
L 3663 -547 
L 3663 -847 
L 3200 -847 
L 3200 1584 
z
M 5294 1147 
L 3663 1147 
L 3663 -109 
L 5294 -109 
L 5294 1147 
z
M 5363 4228 
L 3703 4228 
L 3666 4159 
Q 4013 3475 4466 3041 
Q 4963 3500 5363 4228 
z
M 825 516 
L 1300 516 
L 1300 2209 
L 825 2209 
L 825 516 
z
M 1713 516 
L 2188 516 
L 2188 2209 
L 1713 2209 
L 1713 516 
z
M 2188 4297 
L 1713 4297 
L 1713 2628 
L 2188 2628 
L 2188 4297 
z
M 825 2628 
L 1300 2628 
L 1300 4297 
L 825 4297 
L 825 2628 
z
" transform="scale(0.015625)"/>
        <path id="MicrosoftYaHei-5360" d="M 863 2434 
L 2775 2434 
L 2775 5259 
L 3288 5259 
L 3288 4209 
L 6150 4209 
L 6150 3747 
L 3288 3747 
L 3288 2434 
L 5525 2434 
L 5525 -841 
L 5025 -841 
L 5025 -453 
L 1363 -453 
L 1363 -853 
L 863 -853 
L 863 2434 
z
M 5025 1984 
L 1363 1984 
L 1363 -9 
L 5025 -9 
L 5025 1984 
z
" transform="scale(0.015625)"/>
       </defs>
       <use xlink:href="#MicrosoftYaHei-7528"/>
       <use xlink:href="#MicrosoftYaHei-6237" x="100"/>
       <use xlink:href="#MicrosoftYaHei-5148" x="200"/>
       <use xlink:href="#MicrosoftYaHei-884c" x="300"/>
       <use xlink:href="#MicrosoftYaHei-20" x="400"/>
       <use xlink:href="#MicrosoftYaHei-2f" x="429.589844"/>
       <use xlink:href="#MicrosoftYaHei-20" x="472.314453"/>
       <use xlink:href="#MicrosoftYaHei-41" x="501.904297"/>
       <use xlink:href="#MicrosoftYaHei-20" x="572.265625"/>
       <use xlink:href="#MicrosoftYaHei-7565" x="601.855469"/>
       <use xlink:href="#MicrosoftYaHei-5360" x="701.855469"/>
       <use xlink:href="#MicrosoftYaHei-4f18" x="801.855469"/>
      </g>
      <!-- u0=0.7001, m0=0.3001 -->
      <g style="fill: #32383a" transform="translate(7.2 139.555069) scale(0.107 -0.107)">
       <defs>
        <path id="MicrosoftYaHei-37" d="M 3422 4463 
Q 2659 3131 2223 1998 
Q 1788 866 1684 0 
L 1047 0 
Q 1163 853 1594 1947 
Q 2025 3041 2747 4300 
L 347 4300 
L 347 4841 
L 3422 4841 
L 3422 4463 
z
" transform="scale(0.015625)"/>
        <path id="MicrosoftYaHei-31" d="M 1781 0 
L 1781 4141 
Q 1638 3997 1295 3819 
Q 953 3641 663 3569 
L 663 4169 
Q 1047 4275 1484 4508 
Q 1922 4741 2156 4947 
L 2388 4947 
L 2388 0 
L 1781 0 
z
" transform="scale(0.015625)"/>
        <path id="MicrosoftYaHei-33" d="M 447 809 
Q 944 425 1569 425 
Q 2069 425 2361 670 
Q 2653 916 2653 1328 
Q 2653 2247 1338 2247 
L 934 2247 
L 934 2753 
L 1319 2753 
Q 2484 2753 2484 3616 
Q 2484 4413 1594 4413 
Q 1084 4413 634 4069 
L 634 4647 
Q 1109 4922 1744 4922 
Q 2363 4922 2738 4598 
Q 3113 4275 3113 3759 
Q 3113 2809 2144 2538 
L 2144 2525 
Q 2669 2469 2973 2155 
Q 3278 1841 3278 1372 
Q 3278 719 2808 319 
Q 2338 -81 1556 -81 
Q 869 -81 447 175 
L 447 809 
z
" transform="scale(0.015625)"/>
       </defs>
       <use xlink:href="#MicrosoftYaHei-75"/>
       <use xlink:href="#MicrosoftYaHei-30" x="61.621094"/>
       <use xlink:href="#MicrosoftYaHei-3d" x="120.263672"/>
       <use xlink:href="#MicrosoftYaHei-30" x="194.433594"/>
       <use xlink:href="#MicrosoftYaHei-2e" x="253.076172"/>
       <use xlink:href="#MicrosoftYaHei-37" x="277.148438"/>
       <use xlink:href="#MicrosoftYaHei-30" x="335.791016"/>
       <use xlink:href="#MicrosoftYaHei-30" x="394.433594"/>
       <use xlink:href="#MicrosoftYaHei-31" x="453.076172"/>
       <use xlink:href="#MicrosoftYaHei-2c" x="511.71875"/>
       <use xlink:href="#MicrosoftYaHei-20" x="535.791016"/>
       <use xlink:href="#MicrosoftYaHei-6d" x="565.380859"/>
       <use xlink:href="#MicrosoftYaHei-30" x="659.082031"/>
       <use xlink:href="#MicrosoftYaHei-3d" x="717.724609"/>
       <use xlink:href="#MicrosoftYaHei-30" x="791.894531"/>
       <use xlink:href="#MicrosoftYaHei-2e" x="850.537109"/>
       <use xlink:href="#MicrosoftYaHei-33" x="874.609375"/>
       <use xlink:href="#MicrosoftYaHei-30" x="933.251953"/>
       <use xlink:href="#MicrosoftYaHei-30" x="991.894531"/>
       <use xlink:href="#MicrosoftYaHei-31" x="1050.537109"/>
      </g>
     </g>
    </g>
    <g id="ytick_3">
     <g id="line2d_13"/>
     <g id="text_9">
      <!-- 用户先行 / B 略占优 -->
      <g style="fill: #32383a" transform="translate(30.198313 182.907191) scale(0.107 -0.107)">
       <use xlink:href="#MicrosoftYaHei-7528"/>
       <use xlink:href="#MicrosoftYaHei-6237" x="100"/>
       <use xlink:href="#MicrosoftYaHei-5148" x="200"/>
       <use xlink:href="#MicrosoftYaHei-884c" x="300"/>
       <use xlink:href="#MicrosoftYaHei-20" x="400"/>
       <use xlink:href="#MicrosoftYaHei-2f" x="429.589844"/>
       <use xlink:href="#MicrosoftYaHei-20" x="472.314453"/>
       <use xlink:href="#MicrosoftYaHei-42" x="501.904297"/>
       <use xlink:href="#MicrosoftYaHei-20" x="564.648438"/>
       <use xlink:href="#MicrosoftYaHei-7565" x="594.238281"/>
       <use xlink:href="#MicrosoftYaHei-5360" x="694.238281"/>
       <use xlink:href="#MicrosoftYaHei-4f18" x="794.238281"/>
      </g>
      <!-- u0=0.6999, m0=0.2999 -->
      <g style="fill: #32383a" transform="translate(7.2 196.258785) scale(0.107 -0.107)">
       <defs>
        <path id="MicrosoftYaHei-39" d="M 578 656 
Q 978 425 1441 425 
Q 2091 425 2448 937 
Q 2806 1450 2806 2394 
Q 2800 2388 2794 2394 
Q 2475 1788 1722 1788 
Q 1113 1788 713 2206 
Q 313 2625 313 3294 
Q 313 4006 750 4464 
Q 1188 4922 1884 4922 
Q 2606 4922 3012 4355 
Q 3419 3788 3419 2703 
Q 3419 1363 2894 641 
Q 2369 -81 1441 -81 
Q 931 -81 578 84 
L 578 656 
z
M 931 3372 
Q 931 2884 1181 2598 
Q 1431 2313 1872 2313 
Q 2253 2313 2512 2573 
Q 2772 2834 2772 3206 
Q 2772 3728 2514 4070 
Q 2256 4413 1834 4413 
Q 1444 4413 1187 4116 
Q 931 3819 931 3372 
z
" transform="scale(0.015625)"/>
        <path id="MicrosoftYaHei-32" d="M 2666 3572 
Q 2666 3963 2419 4186 
Q 2172 4409 1747 4409 
Q 1447 4409 1140 4256 
Q 834 4103 569 3819 
L 569 4413 
Q 806 4659 1107 4790 
Q 1409 4922 1816 4922 
Q 2472 4922 2872 4570 
Q 3272 4219 3272 3619 
Q 3272 3084 3026 2693 
Q 2781 2303 2188 1894 
Q 1581 1475 1376 1294 
Q 1172 1113 1090 947 
Q 1009 781 1009 544 
L 3416 544 
L 3416 0 
L 372 0 
L 372 241 
Q 372 659 486 951 
Q 600 1244 862 1520 
Q 1125 1797 1681 2184 
Q 2250 2584 2458 2886 
Q 2666 3188 2666 3572 
z
" transform="scale(0.015625)"/>
       </defs>
       <use xlink:href="#MicrosoftYaHei-75"/>
       <use xlink:href="#MicrosoftYaHei-30" x="61.621094"/>
       <use xlink:href="#MicrosoftYaHei-3d" x="120.263672"/>
       <use xlink:href="#MicrosoftYaHei-30" x="194.433594"/>
       <use xlink:href="#MicrosoftYaHei-2e" x="253.076172"/>
       <use xlink:href="#MicrosoftYaHei-36" x="277.148438"/>
       <use xlink:href="#MicrosoftYaHei-39" x="335.791016"/>
       <use xlink:href="#MicrosoftYaHei-39" x="394.433594"/>
       <use xlink:href="#MicrosoftYaHei-39" x="453.076172"/>
       <use xlink:href="#MicrosoftYaHei-2c" x="511.71875"/>
       <use xlink:href="#MicrosoftYaHei-20" x="535.791016"/>
       <use xlink:href="#MicrosoftYaHei-6d" x="565.380859"/>
       <use xlink:href="#MicrosoftYaHei-30" x="659.082031"/>
       <use xlink:href="#MicrosoftYaHei-3d" x="717.724609"/>
       <use xlink:href="#MicrosoftYaHei-30" x="791.894531"/>
       <use xlink:href="#MicrosoftYaHei-2e" x="850.537109"/>
       <use xlink:href="#MicrosoftYaHei-32" x="874.609375"/>
       <use xlink:href="#MicrosoftYaHei-39" x="933.251953"/>
       <use xlink:href="#MicrosoftYaHei-39" x="991.894531"/>
       <use xlink:href="#MicrosoftYaHei-39" x="1050.537109"/>
      </g>
     </g>
    </g>
    <g id="ytick_4">
     <g id="line2d_14"/>
     <g id="text_10">
      <!-- 商户先行 / A 略占优 -->
      <g style="fill: #32383a" transform="translate(29.384109 239.610907) scale(0.107 -0.107)">
       <defs>
        <path id="MicrosoftYaHei-5546" d="M 600 3309 
L 2119 3309 
Q 1903 3625 1650 3934 
L 2031 4191 
Q 2331 3841 2575 3541 
L 2238 3309 
L 3656 3309 
Q 3972 3716 4238 4166 
L 4713 3891 
Q 4416 3538 4213 3309 
L 5769 3309 
L 5769 34 
Q 5769 -753 5050 -759 
Q 4663 -766 4175 -753 
Q 4125 -391 4081 -228 
Q 4575 -278 4894 -278 
Q 5300 -278 5300 172 
L 5300 2878 
L 1069 2878 
L 1069 -834 
L 600 -834 
L 600 3309 
z
M 1950 -216 
L 1950 1797 
L 4456 1797 
L 4456 116 
L 2400 116 
L 2400 -216 
L 1950 -216 
z
M 144 4647 
L 2997 4647 
Q 2878 4869 2706 5141 
L 3188 5359 
Q 3375 5038 3581 4647 
L 6275 4647 
L 6275 4203 
L 144 4203 
L 144 4647 
z
M 4006 516 
L 4006 1397 
L 2400 1397 
L 2400 516 
L 4006 516 
z
M 2431 2809 
L 2769 2484 
Q 2038 1859 1400 1384 
Q 1213 1641 1106 1753 
Q 1794 2209 2431 2809 
z
M 3531 2466 
L 3806 2809 
Q 4731 2228 5206 1878 
L 4894 1484 
Q 4275 1984 3531 2466 
z
" transform="scale(0.015625)"/>
       </defs>
       <use xlink:href="#MicrosoftYaHei-5546"/>
       <use xlink:href="#MicrosoftYaHei-6237" x="100"/>
       <use xlink:href="#MicrosoftYaHei-5148" x="200"/>
       <use xlink:href="#MicrosoftYaHei-884c" x="300"/>
       <use xlink:href="#MicrosoftYaHei-20" x="400"/>
       <use xlink:href="#MicrosoftYaHei-2f" x="429.589844"/>
       <use xlink:href="#MicrosoftYaHei-20" x="472.314453"/>
       <use xlink:href="#MicrosoftYaHei-41" x="501.904297"/>
       <use xlink:href="#MicrosoftYaHei-20" x="572.265625"/>
       <use xlink:href="#MicrosoftYaHei-7565" x="601.855469"/>
       <use xlink:href="#MicrosoftYaHei-5360" x="701.855469"/>
       <use xlink:href="#MicrosoftYaHei-4f18" x="801.855469"/>
      </g>
      <!-- u0=0.3001, m0=0.7001 -->
      <g style="fill: #32383a" transform="translate(7.2 252.962501) scale(0.107 -0.107)">
       <use xlink:href="#MicrosoftYaHei-75"/>
       <use xlink:href="#MicrosoftYaHei-30" x="61.621094"/>
       <use xlink:href="#MicrosoftYaHei-3d" x="120.263672"/>
       <use xlink:href="#MicrosoftYaHei-30" x="194.433594"/>
       <use xlink:href="#MicrosoftYaHei-2e" x="253.076172"/>
       <use xlink:href="#MicrosoftYaHei-33" x="277.148438"/>
       <use xlink:href="#MicrosoftYaHei-30" x="335.791016"/>
       <use xlink:href="#MicrosoftYaHei-30" x="394.433594"/>
       <use xlink:href="#MicrosoftYaHei-31" x="453.076172"/>
       <use xlink:href="#MicrosoftYaHei-2c" x="511.71875"/>
       <use xlink:href="#MicrosoftYaHei-20" x="535.791016"/>
       <use xlink:href="#MicrosoftYaHei-6d" x="565.380859"/>
       <use xlink:href="#MicrosoftYaHei-30" x="659.082031"/>
       <use xlink:href="#MicrosoftYaHei-3d" x="717.724609"/>
       <use xlink:href="#MicrosoftYaHei-30" x="791.894531"/>
       <use xlink:href="#MicrosoftYaHei-2e" x="850.537109"/>
       <use xlink:href="#MicrosoftYaHei-37" x="874.609375"/>
       <use xlink:href="#MicrosoftYaHei-30" x="933.251953"/>
       <use xlink:href="#MicrosoftYaHei-30" x="991.894531"/>
       <use xlink:href="#MicrosoftYaHei-31" x="1050.537109"/>
      </g>
     </g>
    </g>
    <g id="ytick_5">
     <g id="line2d_15"/>
     <g id="text_11">
      <!-- 商户先行 / B 略占优 -->
      <g style="fill: #32383a" transform="translate(30.198313 296.314623) scale(0.107 -0.107)">
       <use xlink:href="#MicrosoftYaHei-5546"/>
       <use xlink:href="#MicrosoftYaHei-6237" x="100"/>
       <use xlink:href="#MicrosoftYaHei-5148" x="200"/>
       <use xlink:href="#MicrosoftYaHei-884c" x="300"/>
       <use xlink:href="#MicrosoftYaHei-20" x="400"/>
       <use xlink:href="#MicrosoftYaHei-2f" x="429.589844"/>
       <use xlink:href="#MicrosoftYaHei-20" x="472.314453"/>
       <use xlink:href="#MicrosoftYaHei-42" x="501.904297"/>
       <use xlink:href="#MicrosoftYaHei-20" x="564.648438"/>
       <use xlink:href="#MicrosoftYaHei-7565" x="594.238281"/>
       <use xlink:href="#MicrosoftYaHei-5360" x="694.238281"/>
       <use xlink:href="#MicrosoftYaHei-4f18" x="794.238281"/>
      </g>
      <!-- u0=0.2999, m0=0.6999 -->
      <g style="fill: #32383a" transform="translate(7.2 309.666217) scale(0.107 -0.107)">
       <use xlink:href="#MicrosoftYaHei-75"/>
       <use xlink:href="#MicrosoftYaHei-30" x="61.621094"/>
       <use xlink:href="#MicrosoftYaHei-3d" x="120.263672"/>
       <use xlink:href="#MicrosoftYaHei-30" x="194.433594"/>
       <use xlink:href="#MicrosoftYaHei-2e" x="253.076172"/>
       <use xlink:href="#MicrosoftYaHei-32" x="277.148438"/>
       <use xlink:href="#MicrosoftYaHei-39" x="335.791016"/>
       <use xlink:href="#MicrosoftYaHei-39" x="394.433594"/>
       <use xlink:href="#MicrosoftYaHei-39" x="453.076172"/>
       <use xlink:href="#MicrosoftYaHei-2c" x="511.71875"/>
       <use xlink:href="#MicrosoftYaHei-20" x="535.791016"/>
       <use xlink:href="#MicrosoftYaHei-6d" x="565.380859"/>
       <use xlink:href="#MicrosoftYaHei-30" x="659.082031"/>
       <use xlink:href="#MicrosoftYaHei-3d" x="717.724609"/>
       <use xlink:href="#MicrosoftYaHei-30" x="791.894531"/>
       <use xlink:href="#MicrosoftYaHei-2e" x="850.537109"/>
       <use xlink:href="#MicrosoftYaHei-36" x="874.609375"/>
       <use xlink:href="#MicrosoftYaHei-39" x="933.251953"/>
       <use xlink:href="#MicrosoftYaHei-39" x="991.894531"/>
       <use xlink:href="#MicrosoftYaHei-39" x="1050.537109"/>
      </g>
     </g>
    </g>
    <g id="ytick_6">
     <g id="line2d_16"/>
     <g id="text_12">
      <!-- 双边同步落后 -->
      <g style="fill: #32383a" transform="translate(61.683062 353.018339) scale(0.107 -0.107)">
       <defs>
        <path id="MicrosoftYaHei-843d" d="M 1663 2447 
Q 2500 3172 2919 4053 
L 3388 3953 
Q 3278 3744 3156 3547 
L 5594 3547 
L 5594 3147 
Q 5178 2559 4447 2122 
Q 5256 1813 6344 1753 
Q 6219 1491 6138 1272 
Q 4850 1447 3969 1866 
Q 3063 1438 1781 1191 
Q 1694 1384 1569 1616 
Q 2675 1772 3513 2116 
Q 3009 2434 2681 2856 
Q 2369 2456 2000 2109 
Q 1856 2272 1663 2447 
z
M 2288 1203 
L 5519 1203 
L 5519 -822 
L 5056 -822 
L 5056 -491 
L 2750 -491 
L 2750 -822 
L 2288 -822 
L 2288 1203 
z
M 138 4691 
L 1863 4691 
L 1863 5328 
L 2338 5328 
L 2338 4691 
L 4075 4691 
L 4075 5328 
L 4550 5328 
L 4550 4691 
L 6263 4691 
L 6263 4266 
L 4550 4266 
L 4550 3809 
L 4075 3809 
L 4075 4266 
L 2338 4266 
L 2338 3784 
L 1863 3784 
L 1863 4266 
L 138 4266 
L 138 4691 
z
M 5056 791 
L 2750 791 
L 2750 -78 
L 5056 -78 
L 5056 791 
z
M 181 -622 
Q 619 278 1031 1478 
Q 1244 1359 1500 1247 
Q 1119 322 700 -834 
L 181 -622 
z
M 5069 3147 
L 2972 3147 
Q 3381 2656 3981 2334 
Q 4622 2675 5069 3147 
z
M 44 2459 
L 325 2828 
Q 850 2522 1356 2172 
Q 1181 1953 1038 1759 
Q 575 2122 44 2459 
z
M 475 3641 
L 756 3991 
Q 1350 3616 1738 3316 
Q 1569 3109 1438 2928 
Q 956 3316 475 3641 
z
" transform="scale(0.015625)"/>
        <path id="MicrosoftYaHei-540e" d="M 1888 1984 
L 5688 1984 
L 5688 -828 
L 5188 -828 
L 5188 -403 
L 2388 -403 
L 2388 -828 
L 1888 -828 
L 1888 1984 
z
M 1313 2991 
Q 1313 1272 1138 672 
Q 963 -16 394 -847 
Q 250 -634 50 -409 
Q 494 222 650 859 
Q 806 1472 806 2659 
L 806 4766 
Q 3544 4853 5631 5141 
L 5931 4622 
Q 3344 4359 1313 4284 
L 1313 3459 
L 6263 3459 
L 6263 2991 
L 1313 2991 
z
M 5188 1528 
L 2388 1528 
L 2388 41 
L 5188 41 
L 5188 1528 
z
" transform="scale(0.015625)"/>
       </defs>
       <use xlink:href="#MicrosoftYaHei-53cc"/>
       <use xlink:href="#MicrosoftYaHei-8fb9" x="100"/>
       <use xlink:href="#MicrosoftYaHei-540c" x="200"/>
       <use xlink:href="#MicrosoftYaHei-6b65" x="300"/>
       <use xlink:href="#MicrosoftYaHei-843d" x="400"/>
       <use xlink:href="#MicrosoftYaHei-540e" x="500"/>
      </g>
      <!-- u0=0.4, m0=0.4 -->
      <g style="fill: #32383a" transform="translate(44.847281 366.369932) scale(0.107 -0.107)">
       <defs>
        <path id="MicrosoftYaHei-34" d="M 2906 4841 
L 2906 1644 
L 3631 1644 
L 3631 1138 
L 2906 1138 
L 2906 0 
L 2313 0 
L 2313 1138 
L 53 1138 
L 53 1616 
Q 656 2294 1265 3178 
Q 1875 4063 2272 4841 
L 2906 4841 
z
M 741 1644 
L 2313 1644 
L 2313 3950 
Q 1988 3366 1616 2817 
Q 1244 2269 741 1644 
z
" transform="scale(0.015625)"/>
       </defs>
       <use xlink:href="#MicrosoftYaHei-75"/>
       <use xlink:href="#MicrosoftYaHei-30" x="61.621094"/>
       <use xlink:href="#MicrosoftYaHei-3d" x="120.263672"/>
       <use xlink:href="#MicrosoftYaHei-30" x="194.433594"/>
       <use xlink:href="#MicrosoftYaHei-2e" x="253.076172"/>
       <use xlink:href="#MicrosoftYaHei-34" x="277.148438"/>
       <use xlink:href="#MicrosoftYaHei-2c" x="335.791016"/>
       <use xlink:href="#MicrosoftYaHei-20" x="359.863281"/>
       <use xlink:href="#MicrosoftYaHei-6d" x="389.453125"/>
       <use xlink:href="#MicrosoftYaHei-30" x="483.154297"/>
       <use xlink:href="#MicrosoftYaHei-3d" x="541.796875"/>
       <use xlink:href="#MicrosoftYaHei-30" x="615.966797"/>
       <use xlink:href="#MicrosoftYaHei-2e" x="674.609375"/>
       <use xlink:href="#MicrosoftYaHei-34" x="698.681641"/>
      </g>
     </g>
    </g>
   </g>
   <g id="line2d_17">
    <path d="M 435.741291 385.988989 
L 435.741291 39.189062 
" clip-path="url(#p32daa59be7)" style="fill: none; stroke-dasharray: 5,5; stroke-dashoffset: 0; stroke: #687070; stroke-opacity: 0.7; stroke-width: 1.25"/>
   </g>
   <g id="patch_11">
    <path d="M 135.883062 385.988989 
L 735.59952 385.988989 
" style="fill: none; stroke: #a9a197; stroke-width: 0.8; stroke-linejoin: miter; stroke-linecap: square"/>
   </g>
   <g id="PathCollection_1">
    <defs>
     <path id="C0_0_f7fb5ee3d9" d="M 0 3.937004 
C 1.044106 3.937004 2.045588 3.522176 2.783882 2.783882 
C 3.522176 2.045588 3.937004 1.044106 3.937004 -0 
C 3.937004 -1.044106 3.522176 -2.045588 2.783882 -2.783882 
C 2.045588 -3.522176 1.044106 -3.937004 0 -3.937004 
C -1.044106 -3.937004 -2.045588 -3.522176 -2.783882 -2.783882 
C -3.522176 -2.045588 -3.937004 -1.044106 -3.937004 0 
C -3.937004 1.044106 -3.522176 2.045588 -2.783882 2.783882 
C -2.045588 3.522176 -1.044106 3.937004 0 3.937004 
z
"/>
    </defs>
    <g clip-path="url(#p32daa59be7)">
     <use xlink:href="#C0_0_f7fb5ee3d9" x="702.564167" y="70.829736" style="fill: #2f9c5b; stroke: #fbfaf6; stroke-width: 1.3"/>
    </g>
    <g clip-path="url(#p32daa59be7)">
     <use xlink:href="#C0_0_f7fb5ee3d9" x="702.564175" y="127.533452" style="fill: #2f9c5b; stroke: #fbfaf6; stroke-width: 1.3"/>
    </g>
    <g clip-path="url(#p32daa59be7)">
     <use xlink:href="#C0_0_f7fb5ee3d9" x="168.918403" y="184.237168" style="fill: #d95f59; stroke: #fbfaf6; stroke-width: 1.3"/>
    </g>
    <g clip-path="url(#p32daa59be7)">
     <use xlink:href="#C0_0_f7fb5ee3d9" x="702.564175" y="240.940884" style="fill: #2f9c5b; stroke: #fbfaf6; stroke-width: 1.3"/>
    </g>
    <g clip-path="url(#p32daa59be7)">
     <use xlink:href="#C0_0_f7fb5ee3d9" x="168.918403" y="297.644599" style="fill: #d95f59; stroke: #fbfaf6; stroke-width: 1.3"/>
    </g>
    <g clip-path="url(#p32daa59be7)">
     <use xlink:href="#C0_0_f7fb5ee3d9" x="168.918403" y="354.348315" style="fill: #d95f59; stroke: #fbfaf6; stroke-width: 1.3"/>
    </g>
   </g>
   <g id="text_13">
    <!-- A 锁定 -->
    <g style="fill: #ffffff" transform="translate(550.46011 67.281598) scale(0.108 -0.108)">
     <defs>
      <path id="MicrosoftYaHei-Bold-41" d="M 4759 0 
L 3634 0 
L 3272 1109 
L 1513 1109 
L 1156 0 
L 38 0 
L 1809 4841 
L 3022 4841 
L 4759 0 
z
M 3028 1906 
L 2478 3584 
Q 2425 3744 2403 4006 
L 2375 4006 
Q 2356 3794 2291 3597 
L 1738 1906 
L 3028 1906 
z
" transform="scale(0.015625)"/>
      <path id="MicrosoftYaHei-Bold-20" transform="scale(0.015625)"/>
      <path id="MicrosoftYaHei-Bold-9501" d="M 2313 3866 
L 1234 3866 
Q 1131 3634 1019 3416 
L 2188 3416 
L 2188 2709 
L 1650 2709 
L 1650 2078 
L 2375 2078 
L 2375 1372 
L 1650 1372 
L 1650 434 
Q 1944 672 2275 953 
Q 2294 516 2350 116 
Q 1419 -566 1119 -847 
L 638 -228 
Q 863 9 863 347 
L 863 1372 
L 100 1372 
L 100 2078 
L 863 2078 
L 863 2709 
L 609 2709 
Q 475 2503 331 2316 
Q 194 2909 81 3316 
Q 606 4191 881 5341 
L 1713 5178 
Q 1619 4863 1513 4566 
L 2313 4566 
L 2313 3866 
z
M 3850 5316 
L 4713 5316 
L 4713 3678 
L 6006 3678 
L 6006 691 
L 5206 691 
L 5206 2897 
L 3363 2897 
L 3363 691 
L 2563 691 
L 2563 3678 
L 3850 3678 
L 3850 5316 
z
M 5550 5134 
L 6263 4659 
L 5519 3759 
L 4888 4209 
Q 5256 4666 5550 5134 
z
M 2925 5109 
Q 3256 4753 3656 4228 
L 2981 3772 
Q 2619 4297 2288 4697 
L 2925 5109 
z
M 3863 2578 
L 4719 2578 
Q 4719 1734 4578 1128 
Q 5384 575 6319 -159 
L 5706 -803 
Q 5078 -213 4306 391 
Q 3869 -388 2656 -878 
Q 2456 -566 2156 -178 
Q 2713 22 3131 337 
Q 3550 653 3706 1142 
Q 3863 1631 3863 2578 
z
" transform="scale(0.015625)"/>
      <path id="MicrosoftYaHei-Bold-5b9a" d="M 2581 5128 
L 3538 5353 
Q 3666 5028 3806 4634 
L 6063 4634 
L 6063 3403 
L 5200 3403 
L 5200 3872 
L 1225 3872 
L 1225 3403 
L 363 3403 
L 363 4634 
L 2772 4634 
L 2581 5128 
z
M 5831 1741 
L 5831 972 
L 3744 972 
L 3744 125 
Q 4766 103 6313 147 
Q 6138 -372 6044 -697 
Q 3819 -697 2809 -630 
Q 1800 -563 1388 219 
Q 1069 -425 613 -859 
Q 331 -441 94 -134 
Q 875 659 1094 2122 
L 1931 2022 
Q 1850 1541 1728 1122 
Q 2047 300 2850 175 
L 2850 2416 
L 263 2416 
L 263 3184 
L 6156 3184 
L 6156 2416 
L 3744 2416 
L 3744 1741 
L 5831 1741 
z
" transform="scale(0.015625)"/>
     </defs>
     <use xlink:href="#MicrosoftYaHei-Bold-41"/>
     <use xlink:href="#MicrosoftYaHei-Bold-20" x="75.195312"/>
     <use xlink:href="#MicrosoftYaHei-Bold-9501" x="104.980469"/>
     <use xlink:href="#MicrosoftYaHei-Bold-5b9a" x="204.980469"/>
    </g>
    <!-- $L_A$=0.998 -->
    <g style="fill: #ffffff" transform="translate(542.197266 80.326311) scale(0.108 -0.108)">
     <defs>
      <path id="MicrosoftYaHei-Bold-3d" d="M 4072 2378 
L 797 2378 
L 797 3041 
L 4072 3041 
L 4072 2378 
z
M 4072 916 
L 797 916 
L 797 1578 
L 4072 1578 
L 4072 916 
z
" transform="scale(0.015625)"/>
      <path id="MicrosoftYaHei-Bold-30" d="M 244 2341 
Q 244 3597 706 4259 
Q 1169 4922 2044 4922 
Q 3713 4922 3713 2453 
Q 3713 1238 3259 577 
Q 2806 -84 1950 -84 
Q 244 -84 244 2341 
z
M 1266 2366 
Q 1266 691 1981 691 
Q 2684 691 2684 2416 
Q 2684 4147 2000 4147 
Q 1266 4147 1266 2366 
z
" transform="scale(0.015625)"/>
      <path id="MicrosoftYaHei-Bold-2e" d="M 313 453 
Q 313 688 491 838 
Q 669 988 916 988 
Q 1166 988 1337 834 
Q 1509 681 1509 453 
Q 1509 213 1337 64 
Q 1166 -84 903 -84 
Q 659 -84 486 69 
Q 313 222 313 453 
z
" transform="scale(0.015625)"/>
      <path id="MicrosoftYaHei-Bold-39" d="M 544 941 
Q 931 691 1456 691 
Q 2628 691 2653 2216 
L 2634 2222 
Q 2316 1731 1650 1731 
Q 1047 1731 658 2154 
Q 269 2578 269 3222 
Q 269 3978 737 4450 
Q 1206 4922 1959 4922 
Q 2744 4922 3191 4325 
Q 3638 3728 3638 2659 
Q 3638 1391 3098 653 
Q 2559 -84 1547 -84 
Q 975 -84 544 100 
L 544 941 
z
M 1259 3313 
Q 1259 2928 1445 2709 
Q 1631 2491 1953 2491 
Q 2241 2491 2427 2700 
Q 2613 2909 2613 3219 
Q 2613 3591 2427 3869 
Q 2241 4147 1928 4147 
Q 1625 4147 1442 3906 
Q 1259 3666 1259 3313 
z
" transform="scale(0.015625)"/>
      <path id="MicrosoftYaHei-Bold-38" d="M 269 1303 
Q 269 1725 512 2053 
Q 756 2381 1219 2534 
Q 850 2719 648 3003 
Q 447 3288 447 3634 
Q 447 3997 645 4292 
Q 844 4588 1200 4755 
Q 1556 4922 1997 4922 
Q 2441 4922 2800 4758 
Q 3159 4594 3359 4298 
Q 3559 4003 3559 3647 
Q 3559 3309 3339 3018 
Q 3119 2728 2747 2559 
Q 3200 2403 3453 2076 
Q 3706 1750 3706 1313 
Q 3706 697 3228 309 
Q 2750 -78 1988 -78 
Q 1225 -78 747 309 
Q 269 697 269 1303 
z
M 1278 1394 
Q 1278 1056 1472 853 
Q 1666 650 1991 650 
Q 2303 650 2503 853 
Q 2703 1056 2703 1394 
Q 2703 1709 2500 1920 
Q 2297 2131 1991 2131 
Q 1675 2131 1476 1920 
Q 1278 1709 1278 1394 
z
M 1428 3531 
Q 1428 3266 1592 3077 
Q 1756 2888 2006 2888 
Q 2247 2888 2415 3072 
Q 2584 3256 2584 3531 
Q 2584 3806 2420 3997 
Q 2256 4188 2006 4188 
Q 1750 4188 1589 3997 
Q 1428 3806 1428 3531 
z
" transform="scale(0.015625)"/>
     </defs>
     <use xlink:href="#DejaVuSans-Oblique-4c" transform="translate(0 0.09375)"/>
     <use xlink:href="#DejaVuSans-Oblique-41" transform="translate(55.712891 -16.3125) scale(0.7)"/>
     <use xlink:href="#MicrosoftYaHei-Bold-3d" transform="translate(106.333008 0.09375)"/>
     <use xlink:href="#MicrosoftYaHei-Bold-30" transform="translate(182.456055 0.09375)"/>
     <use xlink:href="#MicrosoftYaHei-Bold-2e" transform="translate(244.125977 0.09375)"/>
     <use xlink:href="#MicrosoftYaHei-Bold-39" transform="translate(272.69043 0.09375)"/>
     <use xlink:href="#MicrosoftYaHei-Bold-39" transform="translate(334.360352 0.09375)"/>
     <use xlink:href="#MicrosoftYaHei-Bold-38" transform="translate(396.030273 0.09375)"/>
    </g>
   </g>
   <g id="text_14">
    <!-- A 锁定 -->
    <g style="fill: #ffffff" transform="translate(550.46011 123.985314) scale(0.108 -0.108)">
     <use xlink:href="#MicrosoftYaHei-Bold-41"/>
     <use xlink:href="#MicrosoftYaHei-Bold-20" x="75.195312"/>
     <use xlink:href="#MicrosoftYaHei-Bold-9501" x="104.980469"/>
     <use xlink:href="#MicrosoftYaHei-Bold-5b9a" x="204.980469"/>
    </g>
    <!-- $L_A$=0.998 -->
    <g style="fill: #ffffff" transform="translate(542.197266 137.030027) scale(0.108 -0.108)">
     <use xlink:href="#DejaVuSans-Oblique-4c" transform="translate(0 0.09375)"/>
     <use xlink:href="#DejaVuSans-Oblique-41" transform="translate(55.712891 -16.3125) scale(0.7)"/>
     <use xlink:href="#MicrosoftYaHei-Bold-3d" transform="translate(106.333008 0.09375)"/>
     <use xlink:href="#MicrosoftYaHei-Bold-30" transform="translate(182.456055 0.09375)"/>
     <use xlink:href="#MicrosoftYaHei-Bold-2e" transform="translate(244.125977 0.09375)"/>
     <use xlink:href="#MicrosoftYaHei-Bold-39" transform="translate(272.69043 0.09375)"/>
     <use xlink:href="#MicrosoftYaHei-Bold-39" transform="translate(334.360352 0.09375)"/>
     <use xlink:href="#MicrosoftYaHei-Bold-38" transform="translate(396.030273 0.09375)"/>
    </g>
   </g>
   <g id="text_15">
    <!-- B 锁定 -->
    <g style="fill: #ffffff" transform="translate(288.453722 180.68903) scale(0.108 -0.108)">
     <defs>
      <path id="MicrosoftYaHei-Bold-42" d="M 559 0 
L 559 4841 
L 2278 4841 
Q 3069 4841 3497 4541 
Q 3925 4241 3925 3709 
Q 3925 3316 3659 3019 
Q 3394 2722 2991 2609 
L 2991 2597 
Q 3497 2534 3808 2221 
Q 4119 1909 4119 1438 
Q 4119 778 3650 389 
Q 3181 0 2369 0 
L 559 0 
z
M 1591 4072 
L 1591 2875 
L 2081 2875 
Q 2434 2875 2637 3044 
Q 2841 3213 2841 3516 
Q 2841 4072 2028 4072 
L 1591 4072 
z
M 1591 2097 
L 1591 769 
L 2203 769 
Q 2594 769 2814 950 
Q 3034 1131 3034 1453 
Q 3034 1759 2815 1928 
Q 2597 2097 2194 2097 
L 1591 2097 
z
" transform="scale(0.015625)"/>
     </defs>
     <use xlink:href="#MicrosoftYaHei-Bold-42"/>
     <use xlink:href="#MicrosoftYaHei-Bold-20" x="68.359375"/>
     <use xlink:href="#MicrosoftYaHei-Bold-9501" x="98.144531"/>
     <use xlink:href="#MicrosoftYaHei-Bold-5b9a" x="198.144531"/>
    </g>
    <!-- $L_A$=0.002 -->
    <g style="fill: #ffffff" transform="translate(279.983316 193.733743) scale(0.108 -0.108)">
     <defs>
      <path id="MicrosoftYaHei-Bold-32" d="M 1500 841 
L 3553 841 
L 3553 0 
L 334 0 
L 334 359 
Q 334 738 473 1050 
Q 613 1363 856 1633 
Q 1100 1903 1613 2266 
Q 2081 2616 2268 2886 
Q 2456 3156 2456 3459 
Q 2456 4113 1744 4113 
Q 1119 4113 550 3613 
L 550 4513 
Q 1184 4922 1975 4922 
Q 2700 4922 3122 4551 
Q 3544 4181 3544 3531 
Q 3544 3169 3422 2876 
Q 3300 2584 3069 2328 
Q 2838 2072 2328 1713 
Q 1838 1363 1669 1172 
Q 1500 981 1500 841 
z
" transform="scale(0.015625)"/>
     </defs>
     <use xlink:href="#DejaVuSans-Oblique-4c" transform="translate(0 0.09375)"/>
     <use xlink:href="#DejaVuSans-Oblique-41" transform="translate(55.712891 -16.3125) scale(0.7)"/>
     <use xlink:href="#MicrosoftYaHei-Bold-3d" transform="translate(106.333008 0.09375)"/>
     <use xlink:href="#MicrosoftYaHei-Bold-30" transform="translate(182.456055 0.09375)"/>
     <use xlink:href="#MicrosoftYaHei-Bold-2e" transform="translate(244.125977 0.09375)"/>
     <use xlink:href="#MicrosoftYaHei-Bold-30" transform="translate(272.69043 0.09375)"/>
     <use xlink:href="#MicrosoftYaHei-Bold-30" transform="translate(331.610352 0.09375)"/>
     <use xlink:href="#MicrosoftYaHei-Bold-32" transform="translate(393.280273 0.09375)"/>
    </g>
   </g>
   <g id="text_16">
    <!-- A 锁定 -->
    <g style="fill: #ffffff" transform="translate(550.46011 237.392746) scale(0.108 -0.108)">
     <use xlink:href="#MicrosoftYaHei-Bold-41"/>
     <use xlink:href="#MicrosoftYaHei-Bold-20" x="75.195312"/>
     <use xlink:href="#MicrosoftYaHei-Bold-9501" x="104.980469"/>
     <use xlink:href="#MicrosoftYaHei-Bold-5b9a" x="204.980469"/>
    </g>
    <!-- $L_A$=0.998 -->
    <g style="fill: #ffffff" transform="translate(542.197266 250.437459) scale(0.108 -0.108)">
     <use xlink:href="#DejaVuSans-Oblique-4c" transform="translate(0 0.09375)"/>
     <use xlink:href="#DejaVuSans-Oblique-41" transform="translate(55.712891 -16.3125) scale(0.7)"/>
     <use xlink:href="#MicrosoftYaHei-Bold-3d" transform="translate(106.333008 0.09375)"/>
     <use xlink:href="#MicrosoftYaHei-Bold-30" transform="translate(182.456055 0.09375)"/>
     <use xlink:href="#MicrosoftYaHei-Bold-2e" transform="translate(244.125977 0.09375)"/>
     <use xlink:href="#MicrosoftYaHei-Bold-39" transform="translate(272.69043 0.09375)"/>
     <use xlink:href="#MicrosoftYaHei-Bold-39" transform="translate(334.360352 0.09375)"/>
     <use xlink:href="#MicrosoftYaHei-Bold-38" transform="translate(396.030273 0.09375)"/>
    </g>
   </g>
   <g id="text_17">
    <!-- B 锁定 -->
    <g style="fill: #ffffff" transform="translate(288.453722 294.096462) scale(0.108 -0.108)">
     <use xlink:href="#MicrosoftYaHei-Bold-42"/>
     <use xlink:href="#MicrosoftYaHei-Bold-20" x="68.359375"/>
     <use xlink:href="#MicrosoftYaHei-Bold-9501" x="98.144531"/>
     <use xlink:href="#MicrosoftYaHei-Bold-5b9a" x="198.144531"/>
    </g>
    <!-- $L_A$=0.002 -->
    <g style="fill: #ffffff" transform="translate(279.983316 307.141174) scale(0.108 -0.108)">
     <use xlink:href="#DejaVuSans-Oblique-4c" transform="translate(0 0.09375)"/>
     <use xlink:href="#DejaVuSans-Oblique-41" transform="translate(55.712891 -16.3125) scale(0.7)"/>
     <use xlink:href="#MicrosoftYaHei-Bold-3d" transform="translate(106.333008 0.09375)"/>
     <use xlink:href="#MicrosoftYaHei-Bold-30" transform="translate(182.456055 0.09375)"/>
     <use xlink:href="#MicrosoftYaHei-Bold-2e" transform="translate(244.125977 0.09375)"/>
     <use xlink:href="#MicrosoftYaHei-Bold-30" transform="translate(272.69043 0.09375)"/>
     <use xlink:href="#MicrosoftYaHei-Bold-30" transform="translate(331.610352 0.09375)"/>
     <use xlink:href="#MicrosoftYaHei-Bold-32" transform="translate(393.280273 0.09375)"/>
    </g>
   </g>
   <g id="text_18">
    <!-- B 锁定 -->
    <g style="fill: #ffffff" transform="translate(288.453722 350.800178) scale(0.108 -0.108)">
     <use xlink:href="#MicrosoftYaHei-Bold-42"/>
     <use xlink:href="#MicrosoftYaHei-Bold-20" x="68.359375"/>
     <use xlink:href="#MicrosoftYaHei-Bold-9501" x="98.144531"/>
     <use xlink:href="#MicrosoftYaHei-Bold-5b9a" x="198.144531"/>
    </g>
    <!-- $L_A$=0.002 -->
    <g style="fill: #ffffff" transform="translate(279.983316 363.84489) scale(0.108 -0.108)">
     <use xlink:href="#DejaVuSans-Oblique-4c" transform="translate(0 0.09375)"/>
     <use xlink:href="#DejaVuSans-Oblique-41" transform="translate(55.712891 -16.3125) scale(0.7)"/>
     <use xlink:href="#MicrosoftYaHei-Bold-3d" transform="translate(106.333008 0.09375)"/>
     <use xlink:href="#MicrosoftYaHei-Bold-30" transform="translate(182.456055 0.09375)"/>
     <use xlink:href="#MicrosoftYaHei-Bold-2e" transform="translate(244.125977 0.09375)"/>
     <use xlink:href="#MicrosoftYaHei-Bold-30" transform="translate(272.69043 0.09375)"/>
     <use xlink:href="#MicrosoftYaHei-Bold-30" transform="translate(331.610352 0.09375)"/>
     <use xlink:href="#MicrosoftYaHei-Bold-32" transform="translate(393.280273 0.09375)"/>
    </g>
   </g>
   <g id="text_19">
    <!-- 平台 B 获胜区域 -->
    <g style="fill: #a94844" transform="translate(168.01073 42.932795) scale(0.105 -0.105)">
     <defs>
      <path id="MicrosoftYaHei-5e73" d="M 169 1934 
L 2938 1934 
L 2938 4547 
L 450 4547 
L 450 5028 
L 5975 5028 
L 5975 4547 
L 3463 4547 
L 3463 1934 
L 6250 1934 
L 6250 1453 
L 3463 1453 
L 3463 -847 
L 2938 -847 
L 2938 1453 
L 169 1453 
L 169 1934 
z
M 3950 2559 
Q 4638 3284 5188 4159 
L 5656 3859 
Q 4950 2891 4338 2234 
L 3950 2559 
z
M 769 3859 
L 1163 4134 
Q 1863 3316 2369 2553 
L 1925 2222 
Q 1444 3003 769 3859 
z
" transform="scale(0.015625)"/>
      <path id="MicrosoftYaHei-53f0" d="M 5431 2022 
L 5431 -816 
L 4919 -816 
L 4919 -403 
L 1481 -403 
L 1481 -816 
L 969 -816 
L 969 2022 
L 5431 2022 
z
M 4513 4503 
Q 5494 3591 6369 2634 
L 5925 2266 
Q 5675 2559 5419 2844 
Q 2613 2725 1131 2641 
Q 788 2616 469 2541 
L 263 3078 
Q 550 3184 781 3372 
Q 1850 4247 2738 5391 
L 3206 5103 
Q 2269 4003 1250 3147 
Q 3166 3206 5019 3284 
Q 4591 3750 4150 4191 
L 4513 4503 
z
M 4919 1559 
L 1481 1559 
L 1481 47 
L 4919 47 
L 4919 1559 
z
" transform="scale(0.015625)"/>
      <path id="MicrosoftYaHei-83b7" d="M 2419 2453 
L 3934 2453 
Q 3950 2919 3944 3597 
L 4431 3597 
Q 4431 3056 4416 2453 
L 6194 2453 
L 6194 2009 
L 4453 2009 
Q 4850 225 6281 -403 
Q 6081 -622 5888 -834 
Q 4656 -156 4216 1300 
Q 3859 -50 2456 -878 
Q 2313 -672 2138 -466 
Q 3722 384 3906 2009 
L 2419 2009 
L 2419 2453 
z
M 56 503 
Q 931 1006 1522 1897 
Q 1434 2116 1322 2328 
Q 847 1956 319 1647 
Q 206 1803 31 2028 
Q 606 2319 1094 2703 
Q 819 3106 431 3484 
L 744 3772 
Q 1147 3400 1441 2997 
Q 1794 3319 2094 3697 
L 2481 3434 
Q 2106 3003 1681 2628 
Q 2278 1619 2231 428 
Q 2206 -722 1206 -722 
Q 944 -722 575 -709 
Q 544 -491 488 -203 
Q 869 -253 1175 -253 
Q 1738 -253 1763 434 
Q 1781 919 1678 1378 
Q 1128 644 350 134 
Q 231 291 56 503 
z
M 150 4641 
L 1869 4641 
L 1869 5328 
L 2356 5328 
L 2356 4641 
L 4069 4641 
L 4069 5328 
L 4556 5328 
L 4556 4641 
L 6269 4641 
L 6269 4197 
L 4556 4197 
L 4556 3778 
L 4069 3778 
L 4069 4197 
L 2356 4197 
L 2356 3784 
L 1869 3784 
L 1869 4197 
L 150 4197 
L 150 4641 
z
M 4781 3316 
L 5031 3634 
Q 5538 3322 5950 3022 
L 5669 2659 
Q 5319 2941 4781 3316 
z
" transform="scale(0.015625)"/>
      <path id="MicrosoftYaHei-80dc" d="M 569 4941 
L 2244 4941 
L 2244 -153 
Q 2244 -766 1656 -766 
Q 1363 -766 1075 -747 
Q 1056 -566 1000 -303 
Q 1319 -347 1550 -347 
Q 1806 -347 1806 -78 
L 1806 1378 
L 1006 1378 
Q 1006 -134 456 -822 
Q 319 -647 100 -472 
Q 569 159 569 1284 
L 569 4941 
z
M 2538 -53 
L 4206 -53 
L 4206 1559 
L 2913 1559 
L 2913 2022 
L 4206 2022 
L 4206 3434 
L 3213 3434 
Q 3034 2778 2838 2291 
Q 2625 2397 2363 2478 
Q 2838 3603 3044 4941 
L 3538 4859 
Q 3438 4347 3331 3903 
L 4206 3903 
L 4206 5241 
L 4694 5241 
L 4694 3903 
L 6200 3903 
L 6200 3434 
L 4694 3434 
L 4694 2022 
L 5988 2022 
L 5988 1559 
L 4694 1559 
L 4694 -53 
L 6294 -53 
L 6294 -522 
L 2538 -522 
L 2538 -53 
z
M 1006 1766 
L 1806 1766 
L 1806 2959 
L 1006 2959 
L 1006 1766 
z
M 1806 4534 
L 1006 4534 
L 1006 3347 
L 1806 3347 
L 1806 4534 
z
" transform="scale(0.015625)"/>
      <path id="MicrosoftYaHei-533a" d="M 600 4872 
L 5975 4872 
L 5975 4384 
L 1131 4384 
L 1131 22 
L 6075 22 
L 6075 -453 
L 600 -453 
L 600 4872 
z
M 1613 3697 
L 1963 4028 
Q 2744 3384 3597 2616 
Q 4250 3322 4850 4153 
L 5306 3847 
Q 4650 2997 3975 2272 
Q 4753 1563 5588 753 
L 5156 316 
Q 4400 1106 3600 1878 
Q 2697 963 1763 266 
Q 1613 459 1363 672 
Q 2344 1341 3228 2231 
Q 2444 2972 1613 3697 
z
" transform="scale(0.015625)"/>
      <path id="MicrosoftYaHei-57df" d="M 3231 -522 
Q 3941 63 4484 841 
Q 4269 1816 4219 3803 
L 2025 3803 
L 2025 4241 
L 4206 4241 
Q 4197 4747 4194 5328 
L 4675 5328 
Q 4669 4759 4675 4241 
L 6219 4241 
L 6219 3803 
L 4684 3803 
Q 4716 2384 4853 1419 
Q 5300 2191 5606 3122 
L 6050 2934 
Q 5572 1691 4981 763 
Q 5113 269 5313 -41 
Q 5481 -309 5600 -309 
Q 5713 -309 5756 -41 
Q 5813 284 5844 934 
Q 6113 828 6313 772 
Q 6225 34 6163 -272 
Q 6056 -822 5656 -828 
Q 5350 -822 5088 -522 
Q 4828 -234 4647 275 
Q 4169 -372 3625 -834 
Q 3450 -684 3231 -522 
z
M 69 441 
Q 478 566 875 697 
L 875 3141 
L 138 3141 
L 138 3578 
L 875 3578 
L 875 5316 
L 1338 5316 
L 1338 3578 
L 2031 3578 
L 2031 3141 
L 1338 3141 
L 1338 853 
Q 1666 966 1988 1084 
Q 1988 1016 2031 622 
Q 1156 303 188 -66 
L 69 441 
z
M 2175 3103 
L 3769 3103 
L 3769 1159 
L 3338 1159 
L 3338 1303 
L 2606 1303 
L 2606 1084 
L 2175 1084 
L 2175 3103 
z
M 1694 353 
Q 2825 528 3981 766 
Q 3975 666 4006 341 
Q 3081 172 1856 -84 
L 1694 353 
z
M 3338 2703 
L 2606 2703 
L 2606 1703 
L 3338 1703 
L 3338 2703 
z
M 5188 5241 
Q 5650 4916 5931 4666 
L 5644 4334 
Q 5363 4603 4919 4953 
L 5188 5241 
z
" transform="scale(0.015625)"/>
     </defs>
     <use xlink:href="#MicrosoftYaHei-5e73"/>
     <use xlink:href="#MicrosoftYaHei-53f0" x="100"/>
     <use xlink:href="#MicrosoftYaHei-20" x="200"/>
     <use xlink:href="#MicrosoftYaHei-42" x="229.589844"/>
     <use xlink:href="#MicrosoftYaHei-20" x="292.333984"/>
     <use xlink:href="#MicrosoftYaHei-83b7" x="321.923828"/>
     <use xlink:href="#MicrosoftYaHei-80dc" x="421.923828"/>
     <use xlink:href="#MicrosoftYaHei-533a" x="521.923828"/>
     <use xlink:href="#MicrosoftYaHei-57df" x="621.923828"/>
    </g>
   </g>
   <g id="text_20">
    <!-- 平台 A 获胜区域 -->
    <g style="fill: #247b46" transform="translate(626.869431 42.932795) scale(0.105 -0.105)">
     <use xlink:href="#MicrosoftYaHei-5e73"/>
     <use xlink:href="#MicrosoftYaHei-53f0" x="100"/>
     <use xlink:href="#MicrosoftYaHei-20" x="200"/>
     <use xlink:href="#MicrosoftYaHei-41" x="229.589844"/>
     <use xlink:href="#MicrosoftYaHei-20" x="299.951172"/>
     <use xlink:href="#MicrosoftYaHei-83b7" x="329.541016"/>
     <use xlink:href="#MicrosoftYaHei-80dc" x="429.541016"/>
     <use xlink:href="#MicrosoftYaHei-533a" x="529.541016"/>
     <use xlink:href="#MicrosoftYaHei-57df" x="629.541016"/>
    </g>
   </g>
   <g id="text_21">
    <!-- 实验 3 补充：非同步初始优势的锁定方向 -->
    <g transform="translate(276.383283 21.189062) scale(0.175 -0.175)">
     <defs>
      <path id="MicrosoftYaHei-Bold-5b9e" d="M 4219 3716 
Q 4181 2422 4056 1653 
L 6238 1653 
L 6238 878 
L 3863 878 
Q 3850 841 3813 766 
Q 5019 372 6206 -66 
L 5881 -847 
Q 4619 -316 3369 153 
Q 2550 -616 863 -916 
Q 556 -384 331 -78 
Q 2338 209 2894 878 
L 169 878 
L 169 1653 
L 2144 1653 
Q 1481 2053 931 2328 
L 1319 2934 
Q 1894 2659 2638 2247 
L 2244 1653 
L 3175 1653 
Q 3331 2453 3350 3716 
L 4219 3716 
z
M 300 3078 
L 300 4703 
L 2819 4703 
Q 2700 5009 2606 5228 
L 3675 5341 
Q 3769 5084 3888 4703 
L 6094 4703 
L 6094 3078 
L 5225 3078 
L 5225 3953 
L 1169 3953 
L 1169 3078 
L 300 3078 
z
M 1813 3772 
Q 2469 3484 3163 3134 
L 2769 2497 
Q 2031 2909 1450 3184 
L 1813 3772 
z
" transform="scale(0.015625)"/>
      <path id="MicrosoftYaHei-Bold-9a8c" d="M 1138 4053 
L 969 2491 
L 1419 2491 
L 1563 4241 
L 200 4241 
L 200 4991 
L 2369 4991 
L 2163 2491 
L 2525 2491 
Q 2463 691 2413 203 
Q 2369 -553 1838 -672 
Q 1581 -709 644 -709 
Q 588 -253 519 134 
Q 906 91 1350 78 
Q 1669 78 1694 378 
Q 1731 791 1763 1741 
L 181 1741 
L 400 4053 
L 1138 4053 
z
M 5544 2647 
L 3163 2647 
L 3163 2997 
Q 2944 2797 2706 2603 
Q 2525 2991 2300 3391 
Q 3313 4134 3925 5278 
L 4875 5278 
L 4738 5053 
Q 5469 3984 6381 3466 
Q 6163 3116 5950 2691 
Q 5738 2828 5544 2984 
L 5544 2647 
z
M 2556 116 
L 4694 116 
Q 5063 1253 5250 2303 
L 6025 2103 
Q 5775 1141 5438 116 
L 6213 116 
L 6213 -634 
L 2556 -634 
L 2556 116 
z
M 3263 2172 
Q 3569 1397 3856 503 
L 3175 259 
Q 2981 978 2625 1934 
L 3263 2172 
z
M 4425 2428 
Q 4644 1584 4806 753 
L 4113 584 
Q 3988 1366 3763 2278 
L 4425 2428 
z
M 75 1216 
Q 763 1278 1525 1378 
Q 1531 984 1538 628 
Q 838 541 175 428 
L 75 1216 
z
M 4300 4347 
Q 4013 3897 3544 3384 
L 5113 3384 
Q 4663 3859 4300 4347 
z
" transform="scale(0.015625)"/>
      <path id="MicrosoftYaHei-Bold-33" d="M 494 1053 
Q 978 691 1625 691 
Q 2034 691 2275 872 
Q 2516 1053 2516 1388 
Q 2516 1731 2230 1912 
Q 1944 2094 1428 2094 
L 997 2094 
L 997 2872 
L 1394 2872 
Q 2369 2872 2369 3528 
Q 2369 4147 1622 4147 
Q 1134 4147 675 3828 
L 675 4663 
Q 1175 4922 1853 4922 
Q 2541 4922 2969 4605 
Q 3397 4288 3397 3725 
Q 3397 2775 2434 2531 
L 2434 2516 
Q 2941 2459 3244 2145 
Q 3547 1831 3547 1381 
Q 3547 691 3042 303 
Q 2538 -84 1697 -84 
Q 950 -84 494 163 
L 494 1053 
z
" transform="scale(0.015625)"/>
      <path id="MicrosoftYaHei-Bold-8865" d="M 2806 2972 
L 3431 2578 
Q 3084 2116 2728 1688 
L 3338 1284 
L 2819 634 
Q 2350 1006 1925 1325 
L 1925 -866 
L 1056 -866 
L 1056 1528 
Q 713 1181 325 822 
Q 200 1322 44 1766 
Q 944 2491 1569 3309 
L 163 3309 
L 163 4122 
L 1284 4122 
Q 1019 4519 650 4991 
L 1369 5397 
Q 1794 4897 2113 4447 
L 1563 4122 
L 2581 4122 
L 2581 3372 
Q 2297 2941 1925 2488 
L 1925 2194 
Q 2056 2116 2181 2034 
Q 2509 2503 2806 2972 
z
M 4875 3428 
Q 5694 2716 6356 2059 
L 5675 1384 
Q 5150 1975 4569 2566 
L 4569 -866 
L 3663 -866 
L 3663 5297 
L 4569 5297 
L 4569 3156 
L 4875 3428 
z
" transform="scale(0.015625)"/>
      <path id="MicrosoftYaHei-Bold-5145" d="M 4269 3803 
Q 5231 2972 6113 2109 
L 5469 1503 
L 5000 1991 
L 4338 1969 
L 4338 384 
Q 4338 59 4669 59 
L 4913 59 
Q 5188 59 5275 232 
Q 5363 406 5438 1159 
Q 5788 997 6313 816 
Q 6131 -197 5878 -455 
Q 5625 -713 5025 -703 
L 4300 -703 
Q 3463 -703 3463 234 
L 3463 1941 
L 2759 1909 
Q 2603 -241 744 -853 
Q 363 -334 113 -47 
Q 1725 400 1894 1863 
Q 1256 1822 919 1778 
L 594 2522 
Q 1291 2934 2056 3816 
L 213 3816 
L 213 4641 
L 2756 4641 
L 2531 5159 
L 3444 5359 
L 3738 4641 
L 6188 4641 
L 6188 3816 
L 3191 3816 
Q 2634 3206 1956 2609 
Q 2834 2622 4325 2672 
L 3656 3328 
L 4269 3803 
z
" transform="scale(0.015625)"/>
      <path id="MicrosoftYaHei-Bold-ff1a" d="M 1594 3506 
Q 1831 3506 2000 3354 
Q 2169 3203 2169 2981 
Q 2169 2766 2003 2614 
Q 1838 2463 1594 2463 
Q 1353 2463 1189 2616 
Q 1025 2769 1025 2981 
Q 1025 3200 1192 3353 
Q 1359 3506 1594 3506 
z
M 1594 959 
Q 1831 959 2000 806 
Q 2169 653 2169 434 
Q 2169 222 2000 69 
Q 1831 -84 1594 -84 
Q 1356 -84 1190 69 
Q 1025 222 1025 434 
Q 1025 653 1190 806 
Q 1356 959 1594 959 
z
" transform="scale(0.015625)"/>
      <path id="MicrosoftYaHei-Bold-975e" d="M 75 1191 
L 1863 1191 
L 1863 2066 
L 275 2066 
L 275 2853 
L 1863 2853 
L 1863 3716 
L 175 3716 
L 175 4516 
L 1863 4516 
L 1863 5284 
L 2775 5284 
L 2775 -797 
L 1863 -797 
L 1863 391 
L 75 391 
L 75 1191 
z
M 3650 5284 
L 4563 5284 
L 4563 4516 
L 6225 4516 
L 6225 3716 
L 4563 3716 
L 4563 2853 
L 6125 2853 
L 6125 2066 
L 4563 2066 
L 4563 1191 
L 6325 1191 
L 6325 391 
L 4563 391 
L 4563 -797 
L 3650 -797 
L 3650 5284 
z
" transform="scale(0.015625)"/>
      <path id="MicrosoftYaHei-Bold-540c" d="M 381 5078 
L 6019 5078 
L 6019 291 
Q 6019 -253 5776 -523 
Q 5534 -794 5107 -801 
Q 4681 -809 4075 -809 
Q 3981 -309 3881 59 
Q 4272 19 4597 19 
Q 4847 19 4950 45 
Q 5053 72 5117 165 
Q 5181 259 5181 416 
L 5181 4297 
L 1219 4297 
L 1219 -797 
L 381 -797 
L 381 5078 
z
M 4875 3078 
L 1525 3078 
L 1525 3791 
L 4875 3791 
L 4875 3078 
z
M 1738 2591 
L 4638 2591 
L 4638 403 
L 2550 403 
L 2550 3 
L 1738 3 
L 1738 2591 
z
M 3825 1103 
L 3825 1891 
L 2550 1891 
L 2550 1103 
L 3825 1103 
z
" transform="scale(0.015625)"/>
      <path id="MicrosoftYaHei-Bold-6b65" d="M 156 3266 
L 1050 3266 
L 1050 4866 
L 1925 4866 
L 1925 3266 
L 2956 3266 
L 2956 5328 
L 3844 5328 
L 3844 4678 
L 5763 4678 
L 5763 3922 
L 3844 3922 
L 3844 3266 
L 6269 3266 
L 6269 2497 
L 156 2497 
L 156 3266 
z
M 5300 1966 
L 5938 1341 
Q 4031 -441 575 -859 
Q 363 -397 131 16 
Q 1700 141 2906 550 
L 2906 2353 
L 3781 2353 
L 3781 906 
Q 4666 1338 5300 1966 
z
M 1725 2266 
L 2338 1728 
Q 1575 1003 719 409 
Q 519 691 194 1066 
Q 1031 1591 1725 2266 
z
" transform="scale(0.015625)"/>
      <path id="MicrosoftYaHei-Bold-521d" d="M 1288 5359 
Q 1619 4997 2031 4453 
L 1516 4109 
L 2294 4109 
L 2294 3378 
Q 2019 2847 1700 2369 
L 1700 2256 
Q 1809 2175 1909 2097 
Q 2209 2516 2419 2878 
L 2994 2516 
Q 2716 2138 2381 1734 
Q 2619 1544 2813 1378 
L 2363 834 
Q 2016 1166 1700 1441 
L 1700 -866 
L 913 -866 
L 913 1338 
Q 641 1025 344 741 
Q 231 1228 94 1678 
Q 831 2278 1363 3303 
L 156 3303 
L 156 4109 
L 1231 4109 
Q 981 4472 613 4928 
L 1288 5359 
z
M 3919 -697 
Q 3838 -266 3700 253 
Q 4153 209 4563 209 
Q 5006 209 5040 675 
Q 5075 1141 5113 4159 
L 4097 4159 
Q 4050 2622 3984 1959 
Q 3919 1297 3595 525 
Q 3272 -247 2644 -859 
Q 2369 -578 1925 -216 
Q 2450 234 2734 806 
Q 3019 1378 3105 1972 
Q 3191 2566 3219 4159 
L 2488 4159 
L 2488 4947 
L 6013 4947 
L 5938 1331 
L 5906 491 
Q 5906 -44 5686 -328 
Q 5466 -613 5067 -647 
Q 4669 -681 3919 -697 
z
" transform="scale(0.015625)"/>
      <path id="MicrosoftYaHei-Bold-59cb" d="M 2863 -853 
L 2863 356 
L 2256 -291 
Q 2000 -25 1744 225 
Q 1309 -381 638 -847 
Q 350 -466 69 -153 
Q 706 259 1119 816 
Q 669 1228 225 1597 
Q 441 2363 616 3359 
L 119 3359 
L 119 4134 
L 741 4134 
Q 825 4706 900 5347 
L 1731 5259 
L 1550 4134 
L 2669 4134 
Q 2663 3728 2638 3363 
Q 3213 3972 3875 5359 
L 4800 5097 
Q 4225 4159 3594 3378 
Q 4328 3422 5075 3484 
Q 4847 3944 4619 4359 
L 5294 4634 
Q 5831 3747 6369 2659 
L 5613 2341 
L 5391 2828 
Q 3522 2697 2863 2578 
L 2625 3169 
Q 2519 1791 2156 953 
L 2863 394 
L 2863 2116 
L 5981 2116 
L 5981 -828 
L 5144 -828 
L 5144 -472 
L 3700 -472 
L 3700 -853 
L 2863 -853 
z
M 1088 1797 
L 1503 1469 
Q 1809 2241 1863 3359 
L 1413 3359 
Q 1259 2541 1088 1797 
z
M 5144 1328 
L 3700 1328 
L 3700 316 
L 5144 316 
L 5144 1328 
z
" transform="scale(0.015625)"/>
      <path id="MicrosoftYaHei-Bold-4f18" d="M 1406 5334 
L 2269 5084 
Q 1981 4238 1600 3491 
L 1600 0 
Q 2728 944 2850 2897 
L 1825 2897 
L 1825 3716 
L 2866 3716 
Q 2881 4513 2881 5303 
L 3719 5303 
Q 3719 5091 3700 3716 
L 6188 3716 
L 6188 2897 
L 4806 2897 
L 4806 472 
Q 4806 178 5031 178 
L 5150 178 
Q 5328 178 5372 301 
Q 5416 425 5506 1378 
Q 5881 1203 6288 1053 
Q 6191 291 6119 -23 
Q 6047 -338 5830 -470 
Q 5613 -603 5288 -603 
L 4756 -603 
Q 3969 -603 3969 266 
L 3969 2897 
L 3706 2897 
Q 3634 475 2194 -791 
Q 1875 -359 1600 -50 
L 1600 -797 
L 763 -797 
L 763 2131 
Q 547 1838 313 1566 
Q 219 2103 81 2697 
Q 844 3634 1406 5334 
z
M 4713 5278 
Q 5319 4922 5831 4503 
L 5300 3878 
Q 5019 4116 4231 4722 
L 4713 5278 
z
" transform="scale(0.015625)"/>
      <path id="MicrosoftYaHei-Bold-52bf" d="M 3400 -766 
Q 3325 -309 3244 34 
Q 4075 -9 4269 -9 
Q 4475 -9 4628 87 
Q 4781 184 4815 401 
Q 4850 619 4875 909 
L 3038 909 
Q 2613 -469 538 -909 
Q 275 -372 88 -72 
Q 1763 169 2134 909 
L 538 909 
L 538 1628 
L 2353 1628 
Q 2372 1741 2388 1866 
L 2675 1866 
Q 2475 2138 2231 2397 
Q 2709 2638 2988 2997 
Q 2753 3131 2519 3259 
L 2850 3797 
L 3288 3584 
Q 3347 3791 3363 4022 
L 2713 4022 
L 2713 4722 
L 3391 4722 
Q 3400 5069 3400 5328 
L 4163 5328 
Q 4163 5063 4153 4722 
L 5500 4722 
L 5488 3453 
Q 5488 2653 5644 2653 
Q 5731 2653 5800 3478 
Q 6063 3384 6350 3309 
Q 6213 1828 5550 1828 
Q 5166 1828 4970 2093 
Q 4775 2359 4761 2871 
Q 4747 3384 4744 4022 
L 4122 4022 
Q 4084 3609 3959 3247 
L 4669 2878 
L 4231 2234 
L 3641 2606 
Q 3359 2188 2919 1866 
L 3231 1866 
Q 3219 1747 3200 1628 
L 5781 1628 
L 5684 263 
Q 5656 -88 5492 -336 
Q 5328 -584 5012 -684 
Q 4697 -784 3400 -766 
z
M 200 3491 
L 1088 3566 
L 1088 3947 
L 313 3947 
L 313 4647 
L 1088 4647 
L 1088 5316 
L 1850 5316 
L 1850 4647 
L 2475 4647 
L 2475 3947 
L 1850 3947 
L 1850 3647 
L 2494 3722 
Q 2500 3372 2500 3009 
L 1850 2938 
L 1850 2753 
Q 1850 2391 1719 2162 
Q 1588 1934 1355 1854 
Q 1122 1775 419 1766 
Q 363 2128 281 2447 
Q 419 2428 763 2428 
Q 1088 2428 1088 2766 
L 1088 2853 
L 313 2766 
L 200 3491 
z
" transform="scale(0.015625)"/>
      <path id="MicrosoftYaHei-Bold-7684" d="M 1250 5303 
L 2181 5159 
L 1900 4309 
L 2963 4309 
L 2963 3091 
Q 3466 3934 3925 5316 
L 4788 5091 
Q 4650 4675 4494 4278 
L 6106 4278 
L 6034 681 
Q 6019 100 5937 -133 
Q 5856 -366 5684 -512 
Q 5513 -659 5205 -712 
Q 4897 -766 3863 -766 
Q 3769 -216 3625 178 
Q 4088 141 4609 141 
Q 4759 141 4868 175 
Q 4978 209 5048 279 
Q 5119 350 5144 437 
Q 5169 525 5184 1206 
L 5213 2484 
Q 5225 3081 5225 3453 
L 4138 3453 
Q 3931 3016 3700 2603 
Q 3403 2797 2963 2988 
L 2963 -734 
L 2094 -734 
L 2094 -284 
L 1206 -284 
L 1206 -772 
L 338 -772 
L 338 4309 
L 997 4309 
Q 1178 4922 1250 5303 
z
M 2094 3491 
L 1206 3491 
L 1206 2422 
L 2094 2422 
L 2094 3491 
z
M 1206 534 
L 2094 534 
L 2094 1603 
L 1206 1603 
L 1206 534 
z
M 3944 2703 
Q 4394 2166 4913 1397 
L 4125 872 
Q 3650 1653 3219 2203 
L 3944 2703 
z
" transform="scale(0.015625)"/>
      <path id="MicrosoftYaHei-Bold-65b9" d="M 2975 -747 
Q 2863 -184 2750 209 
Q 3528 178 3822 178 
Q 4031 178 4142 214 
Q 4253 250 4325 329 
Q 4397 409 4422 509 
Q 4447 609 4476 1196 
Q 4506 1784 4506 2003 
L 2531 2003 
Q 2341 213 769 -878 
Q 613 -653 94 -53 
Q 784 397 1142 962 
Q 1500 1528 1562 2073 
Q 1625 2619 1641 3628 
L 231 3628 
L 231 4453 
L 2828 4453 
L 2581 5084 
L 3575 5316 
Q 3781 4800 3888 4453 
L 6175 4453 
L 6175 3628 
L 2594 3628 
Q 2588 3241 2572 2828 
L 5494 2828 
Q 5466 2006 5419 1132 
Q 5372 259 5330 46 
Q 5288 -166 5152 -352 
Q 5016 -538 4825 -617 
Q 4634 -697 4232 -722 
Q 3831 -747 2975 -747 
z
" transform="scale(0.015625)"/>
      <path id="MicrosoftYaHei-Bold-5411" d="M 400 4466 
L 2253 4466 
Q 2388 4928 2475 5347 
L 3438 5203 
L 3197 4466 
L 6006 4466 
L 6006 409 
Q 6006 -166 5743 -464 
Q 5481 -763 4928 -780 
Q 4375 -797 3625 -797 
Q 3538 -366 3394 116 
Q 3856 84 4209 84 
Q 4622 84 4781 131 
Q 4941 178 5033 315 
Q 5125 453 5125 672 
L 5125 3603 
L 1288 3603 
L 1288 -766 
L 400 -766 
L 400 4466 
z
M 4613 3091 
L 4613 666 
L 2650 666 
L 2650 291 
L 1800 291 
L 1800 3091 
L 4613 3091 
z
M 2650 2291 
L 2650 1466 
L 3763 1466 
L 3763 2291 
L 2650 2291 
z
" transform="scale(0.015625)"/>
     </defs>
     <use xlink:href="#MicrosoftYaHei-Bold-5b9e"/>
     <use xlink:href="#MicrosoftYaHei-Bold-9a8c" x="100"/>
     <use xlink:href="#MicrosoftYaHei-Bold-20" x="200"/>
     <use xlink:href="#MicrosoftYaHei-Bold-33" x="229.785156"/>
     <use xlink:href="#MicrosoftYaHei-Bold-20" x="291.455078"/>
     <use xlink:href="#MicrosoftYaHei-Bold-8865" x="321.240234"/>
     <use xlink:href="#MicrosoftYaHei-Bold-5145" x="421.240234"/>
     <use xlink:href="#MicrosoftYaHei-Bold-ff1a" x="521.240234"/>
     <use xlink:href="#MicrosoftYaHei-Bold-975e" x="621.240234"/>
     <use xlink:href="#MicrosoftYaHei-Bold-540c" x="721.240234"/>
     <use xlink:href="#MicrosoftYaHei-Bold-6b65" x="821.240234"/>
     <use xlink:href="#MicrosoftYaHei-Bold-521d" x="921.240234"/>
     <use xlink:href="#MicrosoftYaHei-Bold-59cb" x="1021.240234"/>
     <use xlink:href="#MicrosoftYaHei-Bold-4f18" x="1121.240234"/>
     <use xlink:href="#MicrosoftYaHei-Bold-52bf" x="1221.240234"/>
     <use xlink:href="#MicrosoftYaHei-Bold-7684" x="1321.240234"/>
     <use xlink:href="#MicrosoftYaHei-Bold-9501" x="1421.240234"/>
     <use xlink:href="#MicrosoftYaHei-Bold-5b9a" x="1521.240234"/>
     <use xlink:href="#MicrosoftYaHei-Bold-65b9" x="1621.240234"/>
     <use xlink:href="#MicrosoftYaHei-Bold-5411" x="1721.240234"/>
    </g>
   </g>
  </g>
 </g>
 <defs>
  <clipPath id="p32daa59be7">
   <rect x="135.883062" y="39.189062" width="599.716457" height="346.799926"/>
  </clipPath>
 </defs>
</svg>
