<?xml version="1.0" encoding="utf-8" standalone="no"?>
<!DOCTYPE svg PUBLIC "-//W3C//DTD SVG 1.1//EN"
  "http://www.w3.org/Graphics/SVG/1.1/DTD/svg11.dtd">
<svg xmlns:xlink="http://www.w3.org/1999/xlink" width="670.79952pt" height="425.99952pt" viewBox="0 0 670.79952 425.99952" xmlns="http://www.w3.org/2000/svg" version="1.1">
 <metadata>
  <rdf:RDF xmlns:dc="http://purl.org/dc/elements/1.1/" xmlns:cc="http://creativecommons.org/ns#" xmlns:rdf="http://www.w3.org/1999/02/22-rdf-syntax-ns#">
   <cc:Work>
    <dc:type rdf:resource="http://purl.org/dc/dcmitype/StillImage"/>
    <dc:date>2026-06-05T14:09:23.034924</dc:date>
    <dc:format>image/svg+xml</dc:format>
    <dc:creator>
     <cc:Agent>
      <dc:title>Matplotlib v3.9.2, https://matplotlib.org/</dc:title>
     </cc:Agent>
    </dc:creator>
   </cc:Work>
  </rdf:RDF>
 </metadata>
 <defs>
  <style type="text/css">*{stroke-linejoin: round; stroke-linecap: butt}</style>
 </defs>
 <g id="figure_1">
  <g id="patch_1">
   <path d="M 0 425.99952 
L 670.79952 425.99952 
L 670.79952 0 
L 0 0 
z
" style="fill: #f7f5ef"/>
  </g>
  <g id="axes_1">
   <g id="patch_2">
    <path d="M 51.827953 378.010629 
L 656.178153 378.010629 
L 656.178153 36.94925 
L 51.827953 36.94925 
z
" style="fill: #fbfaf6"/>
   </g>
   <g id="patch_3">
    <path d="M 51.827953 207.47994 
L 656.178153 207.47994 
L 656.178153 43.508123 
L 51.827953 43.508123 
z
" clip-path="url(#p6ffcfa7c0c)" style="fill: #2f9c5b; opacity: 0.055"/>
   </g>
   <g id="patch_4">
    <path d="M 51.827953 371.451757 
L 656.178153 371.451757 
L 656.178153 207.47994 
L 51.827953 207.47994 
z
" clip-path="url(#p6ffcfa7c0c)" style="fill: #d95f59; opacity: 0.045"/>
   </g>
   <g id="matplotlib.axis_1">
    <g id="xtick_1">
     <g id="line2d_1">
      <path d="M 51.827953 378.010629 
L 51.827953 36.94925 
" clip-path="url(#p6ffcfa7c0c)" style="fill: none; stroke: #d8d1c5; stroke-opacity: 0.34; stroke-width: 0.85; stroke-linecap: square"/>
     </g>
     <g id="line2d_2">
      <defs>
       <path id="mc2e1552dd0" d="M 0 0 
L 0 3.5 
" style="stroke: #32383a; stroke-width: 0.8"/>
      </defs>
      <g>
       <use xlink:href="#mc2e1552dd0" x="51.827953" y="378.010629" style="fill: #32383a; stroke: #32383a; stroke-width: 0.8"/>
      </g>
     </g>
     <g id="text_1">
      <!-- 0.1 -->
      <g style="fill: #32383a" transform="translate(44.406586 393.404067) scale(0.105 -0.105)">
       <defs>
        <path id="MicrosoftYaHei-30" d="M 284 2325 
Q 284 3606 709 4264 
Q 1134 4922 1941 4922 
Q 3478 4922 3478 2441 
Q 3478 1216 3045 567 
Q 2613 -81 1831 -81 
Q 1094 -81 689 534 
Q 284 1150 284 2325 
z
M 909 2353 
Q 909 425 1888 425 
Q 2850 425 2850 2384 
Q 2850 4413 1906 4413 
Q 909 4413 909 2353 
z
" transform="scale(0.015625)"/>
        <path id="MicrosoftYaHei-2e" d="M 372 322 
Q 372 491 487 606 
Q 603 722 775 722 
Q 950 722 1065 605 
Q 1181 488 1181 322 
Q 1181 159 1065 42 
Q 950 -75 772 -75 
Q 600 -75 486 42 
Q 372 159 372 322 
z
" transform="scale(0.015625)"/>
        <path id="MicrosoftYaHei-31" d="M 1781 0 
L 1781 4141 
Q 1638 3997 1295 3819 
Q 953 3641 663 3569 
L 663 4169 
Q 1047 4275 1484 4508 
Q 1922 4741 2156 4947 
L 2388 4947 
L 2388 0 
L 1781 0 
z
" transform="scale(0.015625)"/>
       </defs>
       <use xlink:href="#MicrosoftYaHei-30"/>
       <use xlink:href="#MicrosoftYaHei-2e" x="58.642578"/>
       <use xlink:href="#MicrosoftYaHei-31" x="82.714844"/>
      </g>
     </g>
    </g>
    <g id="xtick_2">
     <g id="line2d_3">
      <path d="M 127.371728 378.010629 
L 127.371728 36.94925 
" clip-path="url(#p6ffcfa7c0c)" style="fill: none; stroke: #d8d1c5; stroke-opacity: 0.34; stroke-width: 0.85; stroke-linecap: square"/>
     </g>
     <g id="line2d_4">
      <g>
       <use xlink:href="#mc2e1552dd0" x="127.371728" y="378.010629" style="fill: #32383a; stroke: #32383a; stroke-width: 0.8"/>
      </g>
     </g>
     <g id="text_2">
      <!-- 0.2 -->
      <g style="fill: #32383a" transform="translate(119.950361 393.404067) scale(0.105 -0.105)">
       <defs>
        <path id="MicrosoftYaHei-32" d="M 2666 3572 
Q 2666 3963 2419 4186 
Q 2172 4409 1747 4409 
Q 1447 4409 1140 4256 
Q 834 4103 569 3819 
L 569 4413 
Q 806 4659 1107 4790 
Q 1409 4922 1816 4922 
Q 2472 4922 2872 4570 
Q 3272 4219 3272 3619 
Q 3272 3084 3026 2693 
Q 2781 2303 2188 1894 
Q 1581 1475 1376 1294 
Q 1172 1113 1090 947 
Q 1009 781 1009 544 
L 3416 544 
L 3416 0 
L 372 0 
L 372 241 
Q 372 659 486 951 
Q 600 1244 862 1520 
Q 1125 1797 1681 2184 
Q 2250 2584 2458 2886 
Q 2666 3188 2666 3572 
z
" transform="scale(0.015625)"/>
       </defs>
       <use xlink:href="#MicrosoftYaHei-30"/>
       <use xlink:href="#MicrosoftYaHei-2e" x="58.642578"/>
       <use xlink:href="#MicrosoftYaHei-32" x="82.714844"/>
      </g>
     </g>
    </g>
    <g id="xtick_3">
     <g id="line2d_5">
      <path d="M 202.915503 378.010629 
L 202.915503 36.94925 
" clip-path="url(#p6ffcfa7c0c)" style="fill: none; stroke: #d8d1c5; stroke-opacity: 0.34; stroke-width: 0.85; stroke-linecap: square"/>
     </g>
     <g id="line2d_6">
      <g>
       <use xlink:href="#mc2e1552dd0" x="202.915503" y="378.010629" style="fill: #32383a; stroke: #32383a; stroke-width: 0.8"/>
      </g>
     </g>
     <g id="text_3">
      <!-- 0.3 -->
      <g style="fill: #32383a" transform="translate(195.494136 393.404067) scale(0.105 -0.105)">
       <defs>
        <path id="MicrosoftYaHei-33" d="M 447 809 
Q 944 425 1569 425 
Q 2069 425 2361 670 
Q 2653 916 2653 1328 
Q 2653 2247 1338 2247 
L 934 2247 
L 934 2753 
L 1319 2753 
Q 2484 2753 2484 3616 
Q 2484 4413 1594 4413 
Q 1084 4413 634 4069 
L 634 4647 
Q 1109 4922 1744 4922 
Q 2363 4922 2738 4598 
Q 3113 4275 3113 3759 
Q 3113 2809 2144 2538 
L 2144 2525 
Q 2669 2469 2973 2155 
Q 3278 1841 3278 1372 
Q 3278 719 2808 319 
Q 2338 -81 1556 -81 
Q 869 -81 447 175 
L 447 809 
z
" transform="scale(0.015625)"/>
       </defs>
       <use xlink:href="#MicrosoftYaHei-30"/>
       <use xlink:href="#MicrosoftYaHei-2e" x="58.642578"/>
       <use xlink:href="#MicrosoftYaHei-33" x="82.714844"/>
      </g>
     </g>
    </g>
    <g id="xtick_4">
     <g id="line2d_7">
      <path d="M 278.459278 378.010629 
L 278.459278 36.94925 
" clip-path="url(#p6ffcfa7c0c)" style="fill: none; stroke: #d8d1c5; stroke-opacity: 0.34; stroke-width: 0.85; stroke-linecap: square"/>
     </g>
     <g id="line2d_8">
      <g>
       <use xlink:href="#mc2e1552dd0" x="278.459278" y="378.010629" style="fill: #32383a; stroke: #32383a; stroke-width: 0.8"/>
      </g>
     </g>
     <g id="text_4">
      <!-- 0.4 -->
      <g style="fill: #32383a" transform="translate(271.037911 393.404067) scale(0.105 -0.105)">
       <defs>
        <path id="MicrosoftYaHei-34" d="M 2906 4841 
L 2906 1644 
L 3631 1644 
L 3631 1138 
L 2906 1138 
L 2906 0 
L 2313 0 
L 2313 1138 
L 53 1138 
L 53 1616 
Q 656 2294 1265 3178 
Q 1875 4063 2272 4841 
L 2906 4841 
z
M 741 1644 
L 2313 1644 
L 2313 3950 
Q 1988 3366 1616 2817 
Q 1244 2269 741 1644 
z
" transform="scale(0.015625)"/>
       </defs>
       <use xlink:href="#MicrosoftYaHei-30"/>
       <use xlink:href="#MicrosoftYaHei-2e" x="58.642578"/>
       <use xlink:href="#MicrosoftYaHei-34" x="82.714844"/>
      </g>
     </g>
    </g>
    <g id="xtick_5">
     <g id="line2d_9">
      <path d="M 354.003053 378.010629 
L 354.003053 36.94925 
" clip-path="url(#p6ffcfa7c0c)" style="fill: none; stroke: #d8d1c5; stroke-opacity: 0.34; stroke-width: 0.85; stroke-linecap: square"/>
     </g>
     <g id="line2d_10">
      <g>
       <use xlink:href="#mc2e1552dd0" x="354.003053" y="378.010629" style="fill: #32383a; stroke: #32383a; stroke-width: 0.8"/>
      </g>
     </g>
     <g id="text_5">
      <!-- 0.5 -->
      <g style="fill: #32383a" transform="translate(346.581686 393.404067) scale(0.105 -0.105)">
       <defs>
        <path id="MicrosoftYaHei-35" d="M 3294 1494 
Q 3294 784 2823 350 
Q 2353 -84 1559 -84 
Q 878 -84 544 119 
L 544 744 
Q 1034 425 1544 425 
Q 2050 425 2361 704 
Q 2672 984 2672 1447 
Q 2672 1909 2348 2167 
Q 2025 2425 1434 2425 
Q 978 2425 613 2384 
L 791 4841 
L 3053 4841 
L 3053 4303 
L 1306 4303 
L 1206 2931 
L 1647 2950 
Q 2416 2950 2855 2567 
Q 3294 2184 3294 1494 
z
" transform="scale(0.015625)"/>
       </defs>
       <use xlink:href="#MicrosoftYaHei-30"/>
       <use xlink:href="#MicrosoftYaHei-2e" x="58.642578"/>
       <use xlink:href="#MicrosoftYaHei-35" x="82.714844"/>
      </g>
     </g>
    </g>
    <g id="xtick_6">
     <g id="line2d_11">
      <path d="M 429.546828 378.010629 
L 429.546828 36.94925 
" clip-path="url(#p6ffcfa7c0c)" style="fill: none; stroke: #d8d1c5; stroke-opacity: 0.34; stroke-width: 0.85; stroke-linecap: square"/>
     </g>
     <g id="line2d_12">
      <g>
       <use xlink:href="#mc2e1552dd0" x="429.546828" y="378.010629" style="fill: #32383a; stroke: #32383a; stroke-width: 0.8"/>
      </g>
     </g>
     <g id="text_6">
      <!-- 0.6 -->
      <g style="fill: #32383a" transform="translate(422.125461 393.404067) scale(0.105 -0.105)">
       <defs>
        <path id="MicrosoftYaHei-36" d="M 3181 4219 
Q 2803 4413 2391 4413 
Q 1763 4413 1381 3866 
Q 1000 3319 994 2372 
L 1009 2372 
Q 1353 3038 2106 3038 
Q 2734 3038 3109 2628 
Q 3484 2219 3484 1541 
Q 3484 831 3051 375 
Q 2619 -81 1947 -81 
Q 1209 -81 789 495 
Q 369 1072 369 2131 
Q 369 3413 920 4167 
Q 1472 4922 2372 4922 
Q 2888 4922 3181 4781 
L 3181 4219 
z
M 1031 1584 
Q 1031 1106 1286 765 
Q 1541 425 1963 425 
Q 2363 425 2613 719 
Q 2863 1013 2863 1475 
Q 2863 1975 2627 2253 
Q 2391 2531 1956 2531 
Q 1544 2531 1287 2250 
Q 1031 1969 1031 1584 
z
" transform="scale(0.015625)"/>
       </defs>
       <use xlink:href="#MicrosoftYaHei-30"/>
       <use xlink:href="#MicrosoftYaHei-2e" x="58.642578"/>
       <use xlink:href="#MicrosoftYaHei-36" x="82.714844"/>
      </g>
     </g>
    </g>
    <g id="xtick_7">
     <g id="line2d_13">
      <path d="M 505.090603 378.010629 
L 505.090603 36.94925 
" clip-path="url(#p6ffcfa7c0c)" style="fill: none; stroke: #d8d1c5; stroke-opacity: 0.34; stroke-width: 0.85; stroke-linecap: square"/>
     </g>
     <g id="line2d_14">
      <g>
       <use xlink:href="#mc2e1552dd0" x="505.090603" y="378.010629" style="fill: #32383a; stroke: #32383a; stroke-width: 0.8"/>
      </g>
     </g>
     <g id="text_7">
      <!-- 0.7 -->
      <g style="fill: #32383a" transform="translate(497.669236 393.404067) scale(0.105 -0.105)">
       <defs>
        <path id="MicrosoftYaHei-37" d="M 3422 4463 
Q 2659 3131 2223 1998 
Q 1788 866 1684 0 
L 1047 0 
Q 1163 853 1594 1947 
Q 2025 3041 2747 4300 
L 347 4300 
L 347 4841 
L 3422 4841 
L 3422 4463 
z
" transform="scale(0.015625)"/>
       </defs>
       <use xlink:href="#MicrosoftYaHei-30"/>
       <use xlink:href="#MicrosoftYaHei-2e" x="58.642578"/>
       <use xlink:href="#MicrosoftYaHei-37" x="82.714844"/>
      </g>
     </g>
    </g>
    <g id="xtick_8">
     <g id="line2d_15">
      <path d="M 580.634378 378.010629 
L 580.634378 36.94925 
" clip-path="url(#p6ffcfa7c0c)" style="fill: none; stroke: #d8d1c5; stroke-opacity: 0.34; stroke-width: 0.85; stroke-linecap: square"/>
     </g>
     <g id="line2d_16">
      <g>
       <use xlink:href="#mc2e1552dd0" x="580.634378" y="378.010629" style="fill: #32383a; stroke: #32383a; stroke-width: 0.8"/>
      </g>
     </g>
     <g id="text_8">
      <!-- 0.8 -->
      <g style="fill: #32383a" transform="translate(573.213011 393.404067) scale(0.105 -0.105)">
       <defs>
        <path id="MicrosoftYaHei-38" d="M 306 1350 
Q 306 1769 556 2122 
Q 806 2475 1200 2625 
Q 884 2803 700 3081 
Q 516 3359 516 3684 
Q 516 4028 692 4312 
Q 869 4597 1183 4759 
Q 1497 4922 1875 4922 
Q 2256 4922 2572 4761 
Q 2888 4600 3063 4315 
Q 3238 4031 3238 3684 
Q 3238 3366 3058 3086 
Q 2878 2806 2559 2625 
Q 2953 2472 3200 2119 
Q 3447 1766 3447 1350 
Q 3447 938 3250 611 
Q 3053 284 2690 103 
Q 2328 -78 1875 -78 
Q 1425 -78 1065 103 
Q 706 284 506 612 
Q 306 941 306 1350 
z
M 906 1378 
Q 906 947 1172 687 
Q 1438 428 1878 428 
Q 2309 428 2582 692 
Q 2856 956 2856 1378 
Q 2856 1778 2579 2051 
Q 2303 2325 1878 2325 
Q 1456 2325 1181 2058 
Q 906 1791 906 1378 
z
M 1081 3634 
Q 1081 3309 1312 3076 
Q 1544 2844 1878 2844 
Q 2206 2844 2445 3078 
Q 2684 3313 2684 3634 
Q 2684 3963 2454 4191 
Q 2225 4419 1878 4419 
Q 1534 4419 1307 4195 
Q 1081 3972 1081 3634 
z
" transform="scale(0.015625)"/>
       </defs>
       <use xlink:href="#MicrosoftYaHei-30"/>
       <use xlink:href="#MicrosoftYaHei-2e" x="58.642578"/>
       <use xlink:href="#MicrosoftYaHei-38" x="82.714844"/>
      </g>
     </g>
    </g>
    <g id="xtick_9">
     <g id="line2d_17">
      <path d="M 656.178153 378.010629 
L 656.178153 36.94925 
" clip-path="url(#p6ffcfa7c0c)" style="fill: none; stroke: #d8d1c5; stroke-opacity: 0.34; stroke-width: 0.85; stroke-linecap: square"/>
     </g>
     <g id="line2d_18">
      <g>
       <use xlink:href="#mc2e1552dd0" x="656.178153" y="378.010629" style="fill: #32383a; stroke: #32383a; stroke-width: 0.8"/>
      </g>
     </g>
     <g id="text_9">
      <!-- 0.9 -->
      <g style="fill: #32383a" transform="translate(648.756786 393.404067) scale(0.105 -0.105)">
       <defs>
        <path id="MicrosoftYaHei-39" d="M 578 656 
Q 978 425 1441 425 
Q 2091 425 2448 937 
Q 2806 1450 2806 2394 
Q 2800 2388 2794 2394 
Q 2475 1788 1722 1788 
Q 1113 1788 713 2206 
Q 313 2625 313 3294 
Q 313 4006 750 4464 
Q 1188 4922 1884 4922 
Q 2606 4922 3012 4355 
Q 3419 3788 3419 2703 
Q 3419 1363 2894 641 
Q 2369 -81 1441 -81 
Q 931 -81 578 84 
L 578 656 
z
M 931 3372 
Q 931 2884 1181 2598 
Q 1431 2313 1872 2313 
Q 2253 2313 2512 2573 
Q 2772 2834 2772 3206 
Q 2772 3728 2514 4070 
Q 2256 4413 1834 4413 
Q 1444 4413 1187 4116 
Q 931 3819 931 3372 
z
" transform="scale(0.015625)"/>
       </defs>
       <use xlink:href="#MicrosoftYaHei-30"/>
       <use xlink:href="#MicrosoftYaHei-2e" x="58.642578"/>
       <use xlink:href="#MicrosoftYaHei-39" x="82.714844"/>
      </g>
     </g>
    </g>
    <g id="text_10">
     <!-- 初始份额  $x = u_A(0) = m_A(0)$ -->
     <g transform="translate(274.093053 415.766676) scale(0.122 -0.122)">
      <defs>
       <path id="MicrosoftYaHei-521d" d="M 2513 4778 
L 5988 4778 
Q 5894 1509 5844 509 
Q 5819 -659 4844 -647 
Q 4525 -647 3925 -628 
Q 3881 -334 3825 -66 
Q 4425 -122 4788 -122 
Q 5300 -141 5325 541 
Q 5388 1522 5456 4297 
L 4038 4297 
Q 4000 3084 3944 2334 
Q 3806 403 2250 -828 
Q 2088 -634 1850 -428 
Q 3300 691 3419 2372 
Q 3491 3200 3509 4297 
L 2513 4297 
L 2513 4778 
z
M 150 3691 
L 150 4141 
L 2219 4141 
L 2219 3678 
Q 1872 3081 1481 2569 
L 1481 2375 
Q 1631 2269 1784 2163 
Q 2094 2575 2363 3022 
L 2775 2759 
Q 2506 2372 2141 1906 
Q 2453 1678 2769 1441 
L 2450 1059 
Q 1972 1453 1481 1838 
L 1481 -797 
L 1006 -797 
L 1006 1997 
Q 638 1591 231 1247 
Q 163 1491 63 1784 
Q 963 2491 1663 3691 
L 150 3691 
z
M 744 5134 
L 1181 5353 
Q 1413 4984 1669 4497 
L 1206 4259 
Q 975 4759 744 5134 
z
" transform="scale(0.015625)"/>
       <path id="MicrosoftYaHei-59cb" d="M 2838 1984 
L 5850 1984 
L 5850 -828 
L 5375 -828 
L 5375 -391 
L 3313 -391 
L 3313 -834 
L 2838 -834 
L 2838 1984 
z
M 2638 222 
L 2269 -191 
Q 1928 156 1588 484 
Q 1125 -184 381 -778 
Q 250 -584 94 -372 
Q 809 156 1244 809 
Q 797 1228 350 1616 
Q 572 2456 753 3497 
L 113 3497 
L 113 3966 
L 834 3966 
Q 934 4597 1025 5297 
L 1531 5222 
Q 1428 4544 1325 3966 
L 2488 3966 
L 2488 3503 
Q 2341 1828 1863 931 
Q 2288 559 2638 222 
z
M 5225 4484 
Q 5863 3478 6325 2522 
L 5831 2291 
Q 5700 2591 5559 2884 
Q 4572 2825 3200 2697 
Q 3025 2678 2756 2591 
L 2525 3041 
Q 2744 3172 2900 3391 
Q 3406 4147 3925 5334 
L 4450 5166 
Q 3881 4078 3319 3191 
Q 4569 3269 5350 3306 
Q 5097 3803 4819 4284 
L 5225 4484 
z
M 5375 1547 
L 3313 1547 
L 3313 34 
L 5375 34 
L 5375 1547 
z
M 2006 3497 
L 1241 3497 
Q 1044 2463 850 1778 
Q 1191 1503 1497 1247 
Q 1922 2119 2006 3497 
z
" transform="scale(0.015625)"/>
       <path id="MicrosoftYaHei-4efd" d="M 2269 2653 
L 5394 2653 
Q 5388 2566 5300 366 
Q 5275 -709 4319 -722 
Q 3806 -722 3425 -703 
Q 3394 -416 3331 -184 
Q 3763 -241 4200 -253 
Q 4806 -297 4813 422 
Q 4863 1259 4888 2216 
L 3481 2216 
Q 3463 1222 3181 572 
Q 2844 -172 2019 -822 
Q 1856 -622 1656 -416 
Q 2450 203 2713 772 
Q 2969 1275 2997 2216 
L 2269 2216 
L 2269 2653 
z
M 75 2353 
Q 969 3534 1525 5284 
L 2013 5116 
Q 1709 4284 1350 3559 
L 1350 -809 
L 875 -809 
L 875 2691 
Q 588 2216 275 1797 
Q 181 2066 75 2353 
z
M 4006 5116 
L 4419 5291 
Q 5038 3703 6325 2972 
Q 6088 2697 5969 2516 
Q 4575 3472 4006 5116 
z
M 1588 2741 
Q 2563 3597 3163 5034 
L 3606 4866 
Q 3025 3409 1963 2397 
Q 1738 2628 1588 2741 
z
" transform="scale(0.015625)"/>
       <path id="MicrosoftYaHei-989d" d="M 863 2484 
L 1094 2834 
Q 1463 2653 1794 2491 
Q 2119 2809 2344 3203 
L 1125 3203 
Q 794 2659 419 2247 
Q 281 2397 125 2547 
Q 719 3172 1100 4072 
L 1513 3934 
Q 1425 3747 1331 3578 
L 2844 3578 
L 2844 3222 
Q 2588 2703 2194 2291 
Q 2738 2016 3194 1778 
L 2938 1372 
Q 2406 1678 1850 1978 
Q 1381 1597 763 1322 
L 2756 1322 
L 2756 -684 
L 2344 -684 
L 2344 -416 
L 1063 -416 
L 1063 -734 
L 650 -734 
L 650 1272 
Q 463 1197 269 1128 
Q 188 1297 63 1509 
Q 869 1766 1444 2191 
Q 1156 2334 863 2484 
z
M 3369 3728 
L 4281 3728 
L 4425 4516 
L 3244 4516 
L 3244 4941 
L 6231 4941 
L 6231 4516 
L 4906 4516 
L 4738 3728 
L 6038 3728 
L 6038 591 
L 5600 591 
L 5600 3303 
L 3806 3303 
L 3806 591 
L 3369 591 
L 3369 3728 
z
M 4481 2916 
L 4931 2916 
Q 4944 1322 4788 709 
Q 5688 78 6356 -453 
L 6044 -853 
Q 5438 -303 4619 291 
Q 4231 -416 3169 -916 
Q 3044 -734 2869 -516 
Q 4019 -3 4294 716 
Q 4519 1216 4481 2916 
z
M 250 4591 
L 1538 4591 
Q 1413 4872 1244 5172 
L 1650 5347 
Q 1881 4916 2031 4591 
L 3138 4591 
L 3138 3709 
L 2713 3709 
L 2713 4216 
L 675 4216 
L 675 3709 
L 250 3709 
L 250 4591 
z
M 2344 934 
L 1063 934 
L 1063 -28 
L 2344 -28 
L 2344 934 
z
" transform="scale(0.015625)"/>
       <path id="MicrosoftYaHei-20" transform="scale(0.015625)"/>
       <path id="DejaVuSans-Oblique-78" d="M 3841 3500 
L 2234 1784 
L 3219 0 
L 2559 0 
L 1819 1388 
L 531 0 
L -166 0 
L 1556 1844 
L 641 3500 
L 1300 3500 
L 1972 2234 
L 3144 3500 
L 3841 3500 
z
" transform="scale(0.015625)"/>
       <path id="DejaVuSans-3d" d="M 678 2906 
L 4684 2906 
L 4684 2381 
L 678 2381 
L 678 2906 
z
M 678 1631 
L 4684 1631 
L 4684 1100 
L 678 1100 
L 678 1631 
z
" transform="scale(0.015625)"/>
       <path id="DejaVuSans-Oblique-75" d="M 428 1388 
L 838 3500 
L 1416 3500 
L 1006 1409 
Q 975 1256 961 1147 
Q 947 1038 947 966 
Q 947 700 1109 554 
Q 1272 409 1569 409 
Q 2031 409 2368 721 
Q 2706 1034 2809 1563 
L 3194 3500 
L 3769 3500 
L 3091 0 
L 2516 0 
L 2631 550 
Q 2388 244 2052 76 
Q 1716 -91 1338 -91 
Q 878 -91 622 161 
Q 366 413 366 863 
Q 366 956 381 1097 
Q 397 1238 428 1388 
z
" transform="scale(0.015625)"/>
       <path id="DejaVuSans-Oblique-41" d="M 2356 4666 
L 3072 4666 
L 3938 0 
L 3278 0 
L 3084 1197 
L 984 1197 
L 325 0 
L -341 0 
L 2356 4666 
z
M 2584 4044 
L 1275 1722 
L 2988 1722 
L 2584 4044 
z
" transform="scale(0.015625)"/>
       <path id="DejaVuSans-28" d="M 1984 4856 
Q 1566 4138 1362 3434 
Q 1159 2731 1159 2009 
Q 1159 1288 1364 580 
Q 1569 -128 1984 -844 
L 1484 -844 
Q 1016 -109 783 600 
Q 550 1309 550 2009 
Q 550 2706 781 3412 
Q 1013 4119 1484 4856 
L 1984 4856 
z
" transform="scale(0.015625)"/>
       <path id="DejaVuSans-30" d="M 2034 4250 
Q 1547 4250 1301 3770 
Q 1056 3291 1056 2328 
Q 1056 1369 1301 889 
Q 1547 409 2034 409 
Q 2525 409 2770 889 
Q 3016 1369 3016 2328 
Q 3016 3291 2770 3770 
Q 2525 4250 2034 4250 
z
M 2034 4750 
Q 2819 4750 3233 4129 
Q 3647 3509 3647 2328 
Q 3647 1150 3233 529 
Q 2819 -91 2034 -91 
Q 1250 -91 836 529 
Q 422 1150 422 2328 
Q 422 3509 836 4129 
Q 1250 4750 2034 4750 
z
" transform="scale(0.015625)"/>
       <path id="DejaVuSans-29" d="M 513 4856 
L 1013 4856 
Q 1481 4119 1714 3412 
Q 1947 2706 1947 2009 
Q 1947 1309 1714 600 
Q 1481 -109 1013 -844 
L 513 -844 
Q 928 -128 1133 580 
Q 1338 1288 1338 2009 
Q 1338 2731 1133 3434 
Q 928 4138 513 4856 
z
" transform="scale(0.015625)"/>
       <path id="DejaVuSans-Oblique-6d" d="M 5747 2113 
L 5338 0 
L 4763 0 
L 5166 2094 
Q 5191 2228 5203 2325 
Q 5216 2422 5216 2491 
Q 5216 2772 5059 2928 
Q 4903 3084 4622 3084 
Q 4203 3084 3875 2770 
Q 3547 2456 3450 1953 
L 3066 0 
L 2491 0 
L 2900 2094 
Q 2925 2209 2937 2307 
Q 2950 2406 2950 2484 
Q 2950 2769 2794 2926 
Q 2638 3084 2363 3084 
Q 1938 3084 1609 2770 
Q 1281 2456 1184 1953 
L 800 0 
L 225 0 
L 909 3500 
L 1484 3500 
L 1375 2956 
Q 1609 3263 1923 3423 
Q 2238 3584 2597 3584 
Q 2978 3584 3223 3384 
Q 3469 3184 3519 2828 
Q 3781 3197 4126 3390 
Q 4472 3584 4856 3584 
Q 5306 3584 5551 3325 
Q 5797 3066 5797 2591 
Q 5797 2488 5784 2364 
Q 5772 2241 5747 2113 
z
" transform="scale(0.015625)"/>
      </defs>
      <use xlink:href="#MicrosoftYaHei-521d" transform="translate(0 0.359375)"/>
      <use xlink:href="#MicrosoftYaHei-59cb" transform="translate(100 0.359375)"/>
      <use xlink:href="#MicrosoftYaHei-4efd" transform="translate(200 0.359375)"/>
      <use xlink:href="#MicrosoftYaHei-989d" transform="translate(300 0.359375)"/>
      <use xlink:href="#MicrosoftYaHei-20" transform="translate(400 0.359375)"/>
      <use xlink:href="#MicrosoftYaHei-20" transform="translate(429.589844 0.359375)"/>
      <use xlink:href="#DejaVuSans-Oblique-78" transform="translate(459.179688 0.359375)"/>
      <use xlink:href="#DejaVuSans-3d" transform="translate(537.841797 0.359375)"/>
      <use xlink:href="#DejaVuSans-Oblique-75" transform="translate(641.113281 0.359375)"/>
      <use xlink:href="#DejaVuSans-Oblique-41" transform="translate(704.492188 -16.046875) scale(0.7)"/>
      <use xlink:href="#DejaVuSans-28" transform="translate(755.112305 0.359375)"/>
      <use xlink:href="#DejaVuSans-30" transform="translate(794.125977 0.359375)"/>
      <use xlink:href="#DejaVuSans-29" transform="translate(857.749023 0.359375)"/>
      <use xlink:href="#DejaVuSans-3d" transform="translate(916.245117 0.359375)"/>
      <use xlink:href="#DejaVuSans-Oblique-6d" transform="translate(1019.516602 0.359375)"/>
      <use xlink:href="#DejaVuSans-Oblique-41" transform="translate(1116.928711 -16.046875) scale(0.7)"/>
      <use xlink:href="#DejaVuSans-28" transform="translate(1167.548828 0.359375)"/>
      <use xlink:href="#DejaVuSans-30" transform="translate(1206.5625 0.359375)"/>
      <use xlink:href="#DejaVuSans-29" transform="translate(1270.185547 0.359375)"/>
     </g>
    </g>
   </g>
   <g id="matplotlib.axis_2">
    <g id="ytick_1">
     <g id="line2d_19">
      <path d="M 51.827953 371.451757 
L 656.178153 371.451757 
" clip-path="url(#p6ffcfa7c0c)" style="fill: none; stroke: #d8d1c5; stroke-opacity: 0.34; stroke-width: 0.85; stroke-linecap: square"/>
     </g>
     <g id="line2d_20">
      <defs>
       <path id="m039222277d" d="M 0 0 
L -3.5 0 
" style="stroke: #32383a; stroke-width: 0.8"/>
      </defs>
      <g>
       <use xlink:href="#m039222277d" x="51.827953" y="371.451757" style="fill: #32383a; stroke: #32383a; stroke-width: 0.8"/>
      </g>
     </g>
     <g id="text_11">
      <!-- 0.0 -->
      <g style="fill: #32383a" transform="translate(29.985219 375.648475) scale(0.105 -0.105)">
       <use xlink:href="#MicrosoftYaHei-30"/>
       <use xlink:href="#MicrosoftYaHei-2e" x="58.642578"/>
       <use xlink:href="#MicrosoftYaHei-30" x="82.714844"/>
      </g>
     </g>
    </g>
    <g id="ytick_2">
     <g id="line2d_21">
      <path d="M 51.827953 305.86303 
L 656.178153 305.86303 
" clip-path="url(#p6ffcfa7c0c)" style="fill: none; stroke: #d8d1c5; stroke-opacity: 0.34; stroke-width: 0.85; stroke-linecap: square"/>
     </g>
     <g id="line2d_22">
      <g>
       <use xlink:href="#m039222277d" x="51.827953" y="305.86303" style="fill: #32383a; stroke: #32383a; stroke-width: 0.8"/>
      </g>
     </g>
     <g id="text_12">
      <!-- 0.2 -->
      <g style="fill: #32383a" transform="translate(29.985219 310.059749) scale(0.105 -0.105)">
       <use xlink:href="#MicrosoftYaHei-30"/>
       <use xlink:href="#MicrosoftYaHei-2e" x="58.642578"/>
       <use xlink:href="#MicrosoftYaHei-32" x="82.714844"/>
      </g>
     </g>
    </g>
    <g id="ytick_3">
     <g id="line2d_23">
      <path d="M 51.827953 240.274303 
L 656.178153 240.274303 
" clip-path="url(#p6ffcfa7c0c)" style="fill: none; stroke: #d8d1c5; stroke-opacity: 0.34; stroke-width: 0.85; stroke-linecap: square"/>
     </g>
     <g id="line2d_24">
      <g>
       <use xlink:href="#m039222277d" x="51.827953" y="240.274303" style="fill: #32383a; stroke: #32383a; stroke-width: 0.8"/>
      </g>
     </g>
     <g id="text_13">
      <!-- 0.4 -->
      <g style="fill: #32383a" transform="translate(29.985219 244.471022) scale(0.105 -0.105)">
       <use xlink:href="#MicrosoftYaHei-30"/>
       <use xlink:href="#MicrosoftYaHei-2e" x="58.642578"/>
       <use xlink:href="#MicrosoftYaHei-34" x="82.714844"/>
      </g>
     </g>
    </g>
    <g id="ytick_4">
     <g id="line2d_25">
      <path d="M 51.827953 174.685576 
L 656.178153 174.685576 
" clip-path="url(#p6ffcfa7c0c)" style="fill: none; stroke: #d8d1c5; stroke-opacity: 0.34; stroke-width: 0.85; stroke-linecap: square"/>
     </g>
     <g id="line2d_26">
      <g>
       <use xlink:href="#m039222277d" x="51.827953" y="174.685576" style="fill: #32383a; stroke: #32383a; stroke-width: 0.8"/>
      </g>
     </g>
     <g id="text_14">
      <!-- 0.6 -->
      <g style="fill: #32383a" transform="translate(29.985219 178.882295) scale(0.105 -0.105)">
       <use xlink:href="#MicrosoftYaHei-30"/>
       <use xlink:href="#MicrosoftYaHei-2e" x="58.642578"/>
       <use xlink:href="#MicrosoftYaHei-36" x="82.714844"/>
      </g>
     </g>
    </g>
    <g id="ytick_5">
     <g id="line2d_27">
      <path d="M 51.827953 109.096849 
L 656.178153 109.096849 
" clip-path="url(#p6ffcfa7c0c)" style="fill: none; stroke: #d8d1c5; stroke-opacity: 0.34; stroke-width: 0.85; stroke-linecap: square"/>
     </g>
     <g id="line2d_28">
      <g>
       <use xlink:href="#m039222277d" x="51.827953" y="109.096849" style="fill: #32383a; stroke: #32383a; stroke-width: 0.8"/>
      </g>
     </g>
     <g id="text_15">
      <!-- 0.8 -->
      <g style="fill: #32383a" transform="translate(29.985219 113.293568) scale(0.105 -0.105)">
       <use xlink:href="#MicrosoftYaHei-30"/>
       <use xlink:href="#MicrosoftYaHei-2e" x="58.642578"/>
       <use xlink:href="#MicrosoftYaHei-38" x="82.714844"/>
      </g>
     </g>
    </g>
    <g id="ytick_6">
     <g id="line2d_29">
      <path d="M 51.827953 43.508123 
L 656.178153 43.508123 
" clip-path="url(#p6ffcfa7c0c)" style="fill: none; stroke: #d8d1c5; stroke-opacity: 0.34; stroke-width: 0.85; stroke-linecap: square"/>
     </g>
     <g id="line2d_30">
      <g>
       <use xlink:href="#m039222277d" x="51.827953" y="43.508123" style="fill: #32383a; stroke: #32383a; stroke-width: 0.8"/>
      </g>
     </g>
     <g id="text_16">
      <!-- 1.0 -->
      <g style="fill: #32383a" transform="translate(29.985219 47.704841) scale(0.105 -0.105)">
       <use xlink:href="#MicrosoftYaHei-31"/>
       <use xlink:href="#MicrosoftYaHei-2e" x="58.642578"/>
       <use xlink:href="#MicrosoftYaHei-30" x="82.714844"/>
      </g>
     </g>
    </g>
    <g id="text_17">
     <!-- 最终综合份额  $L_A$ -->
     <g transform="translate(16.952375 254.20594) rotate(-90) scale(0.122 -0.122)">
      <defs>
       <path id="MicrosoftYaHei-6700" d="M 169 -28 
Q 475 3 781 38 
L 781 2416 
L 94 2416 
L 94 2791 
L 6288 2791 
L 6288 2416 
L 3025 2416 
L 3025 331 
Q 3325 375 3625 422 
Q 3619 309 3631 22 
Q 3338 -19 3025 -63 
L 3025 -859 
L 2600 -859 
L 2600 -125 
Q 1525 -278 281 -472 
L 169 -28 
z
M 1038 5053 
L 5363 5053 
L 5363 3047 
L 4925 3047 
L 4925 3191 
L 1475 3191 
L 1475 3047 
L 1038 3047 
L 1038 5053 
z
M 3338 1609 
L 3338 1972 
L 5819 1972 
L 5819 1609 
Q 5500 844 4981 278 
Q 5516 -113 6306 -316 
Q 6144 -553 6025 -753 
Q 5219 -488 4666 -34 
Q 4128 -516 3413 -822 
Q 3306 -634 3125 -428 
Q 3834 -156 4347 266 
Q 3825 825 3603 1609 
L 3338 1609 
z
M 1475 3553 
L 4925 3553 
L 4925 3953 
L 1475 3953 
L 1475 3553 
z
M 4925 4691 
L 1475 4691 
L 1475 4291 
L 4925 4291 
L 4925 4691 
z
M 5344 1609 
L 4025 1609 
Q 4222 994 4659 556 
Q 5094 1013 5344 1609 
z
M 2600 269 
L 2600 691 
L 1206 691 
L 1206 88 
Q 1913 172 2600 269 
z
M 1206 1916 
L 2600 1916 
L 2600 2416 
L 1206 2416 
L 1206 1916 
z
M 1206 1053 
L 2600 1053 
L 2600 1553 
L 1206 1553 
L 1206 1053 
z
" transform="scale(0.015625)"/>
       <path id="MicrosoftYaHei-7ec8" d="M 2156 3234 
Q 2944 4253 3356 5366 
L 3825 5209 
Q 3700 4925 3563 4653 
L 5906 4653 
L 5906 4209 
Q 5425 3378 4663 2750 
Q 5381 2259 6350 2097 
Q 6219 1797 6131 1566 
Q 5038 1875 4278 2456 
Q 3447 1878 2331 1503 
Q 2231 1734 2113 1941 
Q 3156 2238 3931 2756 
Q 3434 3228 3119 3847 
Q 2816 3350 2469 2903 
Q 2350 3041 2156 3234 
z
M 888 1528 
Q 1413 1603 2113 1709 
Q 2075 1466 2056 1241 
Q 1344 1141 319 978 
L 219 1434 
Q 594 1828 1163 2794 
Q 506 2753 219 2728 
L 100 3153 
Q 663 3897 1288 5366 
L 1763 5178 
Q 1156 3991 656 3191 
Q 1047 3200 1403 3209 
Q 1638 3625 1900 4122 
L 2369 3916 
Q 1463 2347 888 1528 
z
M 2625 109 
L 2819 547 
Q 3969 234 5675 -297 
L 5444 -791 
Q 3850 -222 2625 109 
z
M 5356 4234 
L 3372 4234 
Q 3750 3513 4303 3028 
Q 4938 3541 5356 4234 
z
M 88 66 
Q 1069 259 2250 547 
Q 2231 203 2231 78 
Q 1375 -109 225 -416 
L 88 66 
z
M 3338 1247 
L 3525 1666 
Q 4469 1384 5413 1047 
L 5206 553 
Q 4275 953 3338 1247 
z
" transform="scale(0.015625)"/>
       <path id="MicrosoftYaHei-7efc" d="M 881 1578 
Q 1550 1684 2100 1778 
Q 2063 1534 2044 1303 
Q 988 1159 306 1022 
L 194 1484 
Q 678 1988 1188 2756 
Q 581 2719 250 2691 
L 131 3116 
Q 813 4022 1394 5347 
L 1869 5159 
Q 1288 4041 694 3153 
Q 1091 3163 1453 3172 
Q 1691 3566 1938 4016 
L 2400 3784 
Q 1588 2484 881 1578 
z
M 2406 2016 
L 6275 2016 
L 6275 1603 
L 4638 1603 
L 4638 3 
Q 4638 -747 3888 -747 
Q 3631 -747 3213 -741 
Q 3181 -553 3119 -259 
Q 3469 -297 3756 -297 
Q 4163 -297 4163 134 
L 4163 1603 
L 2406 1603 
L 2406 2016 
z
M 2513 4528 
L 4166 4528 
Q 3931 4878 3713 5147 
L 4125 5397 
Q 4431 5041 4650 4716 
L 4347 4528 
L 6194 4528 
L 6194 3522 
L 5731 3522 
L 5731 4116 
L 2975 4116 
L 2975 3522 
L 2513 3522 
L 2513 4528 
z
M 2781 3241 
L 5913 3241 
L 5913 2828 
L 2781 2828 
L 2781 3241 
z
M 113 84 
Q 944 197 2175 428 
Q 2138 91 2131 -34 
Q 1425 -147 225 -391 
L 113 84 
z
M 3044 1284 
L 3500 1091 
Q 3081 203 2688 -428 
Q 2469 -309 2238 -197 
Q 2681 466 3044 1284 
z
M 5081 1059 
L 5506 1278 
Q 5931 641 6344 -134 
L 5888 -384 
Q 5469 441 5081 1059 
z
" transform="scale(0.015625)"/>
       <path id="MicrosoftYaHei-5408" d="M 1025 1909 
L 5381 1909 
L 5381 -866 
L 4881 -866 
L 4881 -447 
L 1525 -447 
L 1525 -878 
L 1025 -878 
L 1025 1909 
z
M 3700 5234 
L 3550 5053 
Q 4594 3697 6319 3009 
Q 6125 2734 5988 2509 
Q 5481 2753 5025 3059 
L 5025 2703 
L 1369 2703 
L 1369 3016 
Q 913 2716 394 2428 
Q 269 2641 81 2897 
Q 2013 3866 3000 5234 
L 3700 5234 
z
M 4881 1453 
L 1525 1453 
L 1525 -3 
L 4881 -3 
L 4881 1453 
z
M 3219 4691 
Q 2581 3872 1550 3147 
L 4894 3147 
Q 3944 3797 3219 4691 
z
" transform="scale(0.015625)"/>
       <path id="DejaVuSans-Oblique-4c" d="M 1075 4666 
L 1709 4666 
L 909 525 
L 3181 525 
L 3078 0 
L 172 0 
L 1075 4666 
z
" transform="scale(0.015625)"/>
      </defs>
      <use xlink:href="#MicrosoftYaHei-6700" transform="translate(0 0.671875)"/>
      <use xlink:href="#MicrosoftYaHei-7ec8" transform="translate(100 0.671875)"/>
      <use xlink:href="#MicrosoftYaHei-7efc" transform="translate(200 0.671875)"/>
      <use xlink:href="#MicrosoftYaHei-5408" transform="translate(300 0.671875)"/>
      <use xlink:href="#MicrosoftYaHei-4efd" transform="translate(400 0.671875)"/>
      <use xlink:href="#MicrosoftYaHei-989d" transform="translate(500 0.671875)"/>
      <use xlink:href="#MicrosoftYaHei-20" transform="translate(600 0.671875)"/>
      <use xlink:href="#MicrosoftYaHei-20" transform="translate(629.589844 0.671875)"/>
      <use xlink:href="#DejaVuSans-Oblique-4c" transform="translate(659.179688 0.671875)"/>
      <use xlink:href="#DejaVuSans-Oblique-41" transform="translate(714.892578 -15.734375) scale(0.7)"/>
     </g>
    </g>
   </g>
   <g id="line2d_31">
    <path d="M 354.003053 378.010629 
L 354.003053 36.94925 
" clip-path="url(#p6ffcfa7c0c)" style="fill: none; stroke-dasharray: 4.4,4.4; stroke-dashoffset: 0; stroke: #6f7d7d; stroke-opacity: 0.6; stroke-width: 1.1"/>
   </g>
   <g id="line2d_32">
    <path d="M 51.827953 207.47994 
L 656.178153 207.47994 
" clip-path="url(#p6ffcfa7c0c)" style="fill: none; stroke-dasharray: 4.4,4.4; stroke-dashoffset: 0; stroke: #6f7d7d; stroke-opacity: 0.6; stroke-width: 1.1"/>
   </g>
   <g id="line2d_33">
    <path d="M 51.827953 207.479978 
L 59.382331 207.479976 
L 66.936708 207.479975 
L 74.491086 207.479975 
L 82.045463 207.479974 
L 89.599841 207.479973 
L 97.154218 207.479972 
L 104.708596 207.479972 
L 112.262973 207.479971 
L 119.817351 207.47997 
L 127.371728 207.479969 
L 134.926106 207.479969 
L 142.480483 207.479967 
L 150.034861 207.479966 
L 157.589238 207.479966 
L 165.143616 207.479965 
L 172.697993 207.479964 
L 180.252371 207.479963 
L 187.806748 207.479963 
L 195.361126 207.479961 
L 202.915503 207.47996 
L 210.469881 207.47996 
L 218.024258 207.479958 
L 225.578636 207.479958 
L 233.133013 207.479957 
L 240.687391 207.479955 
L 248.241768 207.479955 
L 255.796146 207.479953 
L 263.350523 207.479953 
L 270.904901 207.479951 
L 278.459278 207.479951 
L 286.013656 207.479949 
L 293.568033 207.479949 
L 301.12241 207.479947 
L 308.676788 207.479947 
L 316.231165 207.479946 
L 323.785543 207.479945 
L 331.33992 207.479945 
L 338.894298 207.479942 
L 346.448675 207.479942 
L 354.003053 207.47994 
L 361.55743 207.479938 
L 369.111808 207.479937 
L 376.666185 207.479936 
L 384.220563 207.479934 
L 391.77494 207.479934 
L 399.329318 207.479933 
L 406.883695 207.479932 
L 414.438073 207.47993 
L 421.99245 207.47993 
L 429.546828 207.479928 
L 437.101205 207.479928 
L 444.655583 207.479927 
L 452.20996 207.479925 
L 459.764338 207.479925 
L 467.318715 207.479924 
L 474.873093 207.479922 
L 482.42747 207.479922 
L 489.981848 207.479921 
L 497.536225 207.479919 
L 505.090603 207.479919 
L 512.64498 207.479918 
L 520.199358 207.479917 
L 527.753735 207.479916 
L 535.308113 207.479915 
L 542.86249 207.479915 
L 550.416868 207.479914 
L 557.971245 207.479912 
L 565.525623 207.479912 
L 573.08 207.479911 
L 580.634378 207.479911 
L 588.188755 207.479909 
L 595.743133 207.479908 
L 603.29751 207.479908 
L 610.851888 207.479907 
L 618.406265 207.479906 
L 625.960643 207.479905 
L 633.51502 207.479904 
L 641.069398 207.479904 
L 648.623775 207.479903 
L 656.178153 207.479903 
" clip-path="url(#p6ffcfa7c0c)" style="fill: none; stroke: #557c83; stroke-width: 2.8; stroke-linecap: round"/>
   </g>
   <g id="line2d_34">
    <path d="M 51.827953 370.895851 
L 59.382331 370.895851 
L 66.936708 370.895851 
L 74.491086 370.895851 
L 82.045463 370.895851 
L 89.599841 370.895851 
L 97.154218 370.895851 
L 104.708596 370.895851 
L 112.262973 370.895851 
L 119.817351 370.895851 
L 127.371728 370.895851 
L 134.926106 370.895851 
L 142.480483 370.895851 
L 150.034861 370.895851 
L 157.589238 370.895851 
L 165.143616 370.895851 
L 172.697993 370.895851 
L 180.252371 370.895851 
L 187.806748 370.895851 
L 195.361126 370.895851 
L 202.915503 370.895851 
L 210.469881 370.895851 
L 218.024258 370.895851 
L 225.578636 370.895851 
L 233.133013 370.895851 
L 240.687391 370.895851 
L 248.241768 370.895851 
L 255.796146 370.895851 
L 263.350523 370.895851 
L 270.904901 370.895851 
L 278.459278 370.895851 
L 286.013656 370.895851 
L 293.568033 370.895851 
L 301.12241 370.895851 
L 308.676788 370.895851 
L 316.231165 370.895851 
L 323.785543 370.895851 
L 331.33992 370.895851 
L 338.894298 370.895851 
L 346.448675 370.895851 
L 354.003053 207.47994 
L 361.55743 44.064032 
L 369.111808 44.064034 
L 376.666185 44.064032 
L 384.220563 44.064032 
L 391.77494 44.064037 
L 399.329318 44.064036 
L 406.883695 44.064033 
L 414.438073 44.064037 
L 421.99245 44.064032 
L 429.546828 44.064036 
L 437.101205 44.064032 
L 444.655583 44.064032 
L 452.20996 44.06404 
L 459.764338 44.064032 
L 467.318715 44.064031 
L 474.873093 44.064032 
L 482.42747 44.064043 
L 489.981848 44.064037 
L 497.536225 44.064032 
L 505.090603 44.064031 
L 512.64498 44.064032 
L 520.199358 44.064043 
L 527.753735 44.064034 
L 535.308113 44.064032 
L 542.86249 44.064031 
L 550.416868 44.064031 
L 557.971245 44.064038 
L 565.525623 44.064043 
L 573.08 44.064033 
L 580.634378 44.06403 
L 588.188755 44.064035 
L 595.743133 44.064039 
L 603.29751 44.064036 
L 610.851888 44.06403 
L 618.406265 44.064037 
L 625.960643 44.064044 
L 633.51502 44.064031 
L 641.069398 44.064034 
L 648.623775 44.064038 
L 656.178153 44.064033 
" clip-path="url(#p6ffcfa7c0c)" style="fill: none; stroke: #2f9c5b; stroke-width: 2.8; stroke-linecap: round"/>
   </g>
   <g id="patch_5">
    <path d="M 51.827953 378.010629 
L 51.827953 36.94925 
" style="fill: none; stroke: #a9a197; stroke-width: 0.8; stroke-linejoin: miter; stroke-linecap: square"/>
   </g>
   <g id="patch_6">
    <path d="M 51.827953 378.010629 
L 656.178153 378.010629 
" style="fill: none; stroke: #a9a197; stroke-width: 0.8; stroke-linejoin: miter; stroke-linecap: square"/>
   </g>
   <g id="text_18">
    <!-- 弱网络效应：回归共存 -->
    <g style="fill: #557c83" transform="translate(119.817351 194.362194) scale(0.105 -0.105)">
     <defs>
      <path id="MicrosoftYaHei-5f31" d="M 3963 3353 
L 3813 2559 
L 6044 2559 
Q 5994 1072 5938 241 
Q 5894 -753 4938 -753 
Q 4456 -753 4075 -734 
Q 4044 -497 3981 -216 
Q 4481 -278 4894 -278 
Q 5431 -278 5463 259 
Q 5519 1034 5550 2128 
L 3281 2128 
L 3594 3784 
L 5388 3784 
L 5388 4559 
L 3400 4559 
L 3400 4991 
L 5856 4991 
L 5856 3147 
L 5388 3147 
L 5388 3353 
L 3963 3353 
z
M 1025 3353 
L 881 2559 
L 2881 2559 
Q 2831 1059 2781 216 
Q 2738 -759 1763 -759 
Q 1381 -759 913 -741 
Q 881 -453 819 -222 
Q 1344 -284 1725 -284 
Q 2281 -284 2306 284 
Q 2369 1066 2394 2128 
L 356 2128 
L 656 3784 
L 2388 3784 
L 2388 4559 
L 375 4559 
L 375 4991 
L 2856 4991 
L 2856 3147 
L 2388 3147 
L 2388 3353 
L 1025 3353 
z
M 3206 528 
Q 4269 778 5231 1066 
Q 5219 747 5213 566 
Q 4419 359 3281 22 
L 3206 528 
z
M 156 503 
Q 1006 659 2144 947 
Q 2125 641 2113 466 
Q 1194 259 213 3 
L 156 503 
z
M 3563 1984 
Q 4094 1784 4756 1491 
Q 4625 1272 4519 1072 
Q 3994 1334 3344 1616 
L 3563 1984 
z
M 731 1984 
Q 1250 1772 1863 1472 
Q 1713 1228 1606 1047 
Q 1038 1372 494 1616 
L 731 1984 
z
" transform="scale(0.015625)"/>
      <path id="MicrosoftYaHei-7f51" d="M 1075 3641 
L 1444 3834 
Q 1816 3244 2184 2628 
Q 2488 3281 2706 3928 
L 3131 3772 
Q 2822 2931 2450 2175 
Q 2809 1563 3163 922 
L 2738 697 
Q 2478 1191 2203 1691 
Q 1819 969 1375 328 
L 1000 544 
L 1000 -759 
L 531 -759 
L 531 4953 
L 5856 4953 
L 5856 -59 
Q 5856 -728 5138 -728 
Q 4738 -728 4181 -716 
Q 4150 -516 4094 -228 
Q 4619 -272 4988 -272 
Q 5388 -272 5388 72 
L 5388 4503 
L 1000 4503 
L 1000 572 
Q 1538 1363 1947 2150 
Q 1531 2891 1075 3641 
z
M 3156 3341 
L 3519 3553 
Q 3831 3047 4166 2481 
Q 4525 3197 4775 3891 
L 5200 3728 
Q 4847 2838 4428 2028 
Q 4822 1353 5244 597 
L 4825 359 
Q 4513 953 4175 1559 
Q 3788 866 3350 241 
L 2969 484 
Q 3506 1263 3919 2016 
Q 3553 2672 3156 3341 
z
" transform="scale(0.015625)"/>
      <path id="MicrosoftYaHei-7edc" d="M 2244 3241 
Q 3013 4303 3394 5366 
L 3863 5209 
Q 3741 4922 3609 4653 
L 5844 4653 
L 5844 4209 
Q 5391 3431 4694 2831 
Q 5297 2463 6313 2166 
Q 6188 1947 6063 1628 
Q 5028 1988 4294 2528 
Q 3453 1941 2431 1553 
Q 2300 1766 2131 1991 
Q 3091 2316 3906 2853 
Q 3441 3291 3166 3813 
Q 2881 3328 2569 2909 
Q 2450 3047 2244 3241 
z
M 2725 1584 
L 5813 1584 
L 5813 -847 
L 5331 -847 
L 5331 -534 
L 3206 -534 
L 3206 -847 
L 2725 -847 
L 2725 1584 
z
M 900 1616 
Q 1550 1678 2131 1759 
Q 2106 1478 2088 1334 
Q 981 1197 350 1103 
L 250 1559 
Q 609 1822 1256 2941 
Q 659 2900 288 2866 
L 163 3278 
Q 763 4197 1181 5297 
L 1669 5122 
Q 1250 4228 694 3316 
Q 941 3316 1475 3328 
Q 1703 3741 1963 4247 
L 2425 4047 
Q 1675 2716 900 1616 
z
M 5331 1134 
L 3206 1134 
L 3206 -84 
L 5331 -84 
L 5331 1134 
z
M 5275 4228 
L 3419 4228 
Q 3756 3584 4284 3125 
Q 4888 3609 5275 4228 
z
M 163 153 
Q 1200 353 2325 616 
Q 2300 316 2300 141 
Q 1300 -84 300 -341 
L 163 153 
z
" transform="scale(0.015625)"/>
      <path id="MicrosoftYaHei-6548" d="M 4088 5334 
L 4581 5253 
Q 4453 4653 4259 4122 
L 6269 4122 
L 6269 3697 
L 5838 3697 
Q 5672 1869 5050 841 
Q 5572 128 6388 -347 
Q 6188 -622 6050 -841 
Q 5250 -313 4728 391 
Q 4153 -328 3300 -891 
Q 3163 -709 2944 -497 
Q 3872 125 4428 853 
Q 3897 1797 3753 3025 
Q 3603 2766 3431 2528 
Q 3300 2716 3119 2928 
Q 3844 3941 4088 5334 
z
M 694 1909 
L 1031 2203 
Q 1456 1800 1863 1394 
Q 2138 1847 2350 2378 
L 2800 2141 
Q 2538 1550 2209 1047 
Q 2659 591 3088 134 
L 2669 -222 
Q 2275 225 1913 625 
Q 1250 -238 356 -809 
Q 238 -641 31 -397 
Q 947 128 1584 981 
Q 1113 1491 694 1909 
z
M 5344 3697 
L 4125 3697 
Q 4222 2322 4741 1338 
Q 5263 2306 5344 3697 
z
M 175 4297 
L 3325 4297 
L 3325 3872 
L 175 3872 
L 175 4297 
z
M 1063 3628 
L 1475 3372 
Q 963 2641 413 1953 
Q 256 2084 44 2241 
Q 506 2797 1063 3628 
z
M 2344 3609 
Q 2744 3197 3263 2591 
L 2894 2278 
Q 2506 2759 2006 3341 
L 2344 3609 
z
M 1306 5141 
L 1731 5359 
Q 1988 4953 2206 4547 
L 1769 4322 
Q 1544 4772 1306 5141 
z
" transform="scale(0.015625)"/>
      <path id="MicrosoftYaHei-5e94" d="M 2969 5134 
L 3425 5378 
Q 3694 5034 3938 4634 
L 3634 4459 
L 6169 4459 
L 6169 3984 
L 1300 3984 
L 1300 2453 
Q 1300 241 388 -853 
Q 238 -647 25 -422 
Q 775 416 775 2441 
L 775 4459 
L 3419 4459 
Q 3216 4803 2969 5134 
z
M 1263 -9 
L 4153 -9 
Q 4641 1238 5188 3403 
L 5731 3253 
Q 5147 1191 4694 -9 
L 6238 -9 
L 6238 -484 
L 1263 -484 
L 1263 -9 
z
M 1600 3059 
L 2075 3222 
Q 2463 2084 2825 672 
L 2294 509 
Q 2006 1747 1600 3059 
z
M 3106 3372 
L 3588 3509 
Q 3913 2384 4163 991 
L 3613 847 
Q 3431 2084 3106 3372 
z
" transform="scale(0.015625)"/>
      <path id="MicrosoftYaHei-ff1a" d="M 1606 3531 
Q 1772 3531 1890 3415 
Q 2009 3300 2009 3138 
Q 2009 2975 1893 2858 
Q 1778 2741 1606 2741 
Q 1434 2741 1318 2858 
Q 1203 2975 1203 3138 
Q 1203 3300 1322 3415 
Q 1441 3531 1606 3531 
z
M 1606 716 
Q 1772 716 1890 600 
Q 2009 484 2009 319 
Q 2009 150 1890 36 
Q 1772 -78 1606 -78 
Q 1441 -78 1322 36 
Q 1203 150 1203 319 
Q 1203 484 1322 600 
Q 1441 716 1606 716 
z
" transform="scale(0.015625)"/>
      <path id="MicrosoftYaHei-56de" d="M 475 4947 
L 5938 4947 
L 5938 -778 
L 5413 -778 
L 5413 -378 
L 1000 -378 
L 1000 -778 
L 475 -778 
L 475 4947 
z
M 5413 4484 
L 1000 4484 
L 1000 72 
L 5413 72 
L 5413 4484 
z
M 1875 3528 
L 4531 3528 
L 4531 797 
L 4044 797 
L 4044 1147 
L 2363 1147 
L 2363 797 
L 1875 797 
L 1875 3528 
z
M 4044 3091 
L 2363 3091 
L 2363 1584 
L 4044 1584 
L 4044 3091 
z
" transform="scale(0.015625)"/>
      <path id="MicrosoftYaHei-5f52" d="M 2450 272 
L 5419 272 
L 5419 2222 
L 2800 2222 
L 2800 2659 
L 5419 2659 
L 5419 4347 
L 2650 4347 
L 2650 4797 
L 5906 4797 
L 5906 -591 
L 5419 -591 
L 5419 -166 
L 2450 -166 
L 2450 272 
z
M 1800 5284 
L 2294 5284 
L 2294 2741 
Q 2300 103 1219 -866 
Q 1069 -672 844 -447 
Q 1800 453 1800 2541 
L 1800 5284 
z
M 513 4672 
L 1000 4672 
L 1000 641 
L 513 641 
L 513 4672 
z
" transform="scale(0.015625)"/>
      <path id="MicrosoftYaHei-5171" d="M 125 1847 
L 1738 1847 
L 1738 3572 
L 375 3572 
L 375 4047 
L 1738 4047 
L 1738 5247 
L 2250 5247 
L 2250 4047 
L 4144 4047 
L 4144 5253 
L 4656 5253 
L 4656 4047 
L 6025 4047 
L 6025 3572 
L 4656 3572 
L 4656 1847 
L 6275 1847 
L 6275 1372 
L 125 1372 
L 125 1847 
z
M 2250 1847 
L 4144 1847 
L 4144 3572 
L 2250 3572 
L 2250 1847 
z
M 2219 1053 
L 2606 653 
Q 1569 -103 444 -747 
Q 306 -547 113 -316 
Q 1206 266 2219 1053 
z
M 3744 622 
L 4063 1016 
Q 5138 378 6131 -303 
L 5769 -759 
Q 4781 -16 3744 622 
z
" transform="scale(0.015625)"/>
      <path id="MicrosoftYaHei-5b58" d="M 169 4641 
L 1925 4641 
Q 2053 4991 2163 5359 
L 2675 5228 
Q 2578 4928 2472 4641 
L 6275 4641 
L 6275 4178 
L 2291 4178 
Q 1963 3384 1563 2709 
L 1563 -797 
L 1081 -797 
L 1081 1984 
Q 747 1528 369 1141 
Q 244 1359 69 1591 
Q 1113 2688 1744 4178 
L 169 4178 
L 169 4641 
z
M 1838 1791 
L 3994 1791 
L 3994 2203 
Q 4656 2628 5156 3047 
L 2256 3047 
L 2256 3503 
L 5869 3503 
L 5869 2997 
Q 5231 2491 4475 1978 
L 4475 1791 
L 6319 1791 
L 6319 1334 
L 4475 1334 
L 4475 -72 
Q 4475 -784 3763 -784 
Q 3425 -784 2856 -766 
Q 2825 -528 2775 -259 
Q 3375 -322 3663 -322 
Q 3994 -322 3994 9 
L 3994 1334 
L 1838 1334 
L 1838 1791 
z
" transform="scale(0.015625)"/>
     </defs>
     <use xlink:href="#MicrosoftYaHei-5f31"/>
     <use xlink:href="#MicrosoftYaHei-7f51" x="100"/>
     <use xlink:href="#MicrosoftYaHei-7edc" x="200"/>
     <use xlink:href="#MicrosoftYaHei-6548" x="300"/>
     <use xlink:href="#MicrosoftYaHei-5e94" x="400"/>
     <use xlink:href="#MicrosoftYaHei-ff1a" x="500"/>
     <use xlink:href="#MicrosoftYaHei-56de" x="600"/>
     <use xlink:href="#MicrosoftYaHei-5f52" x="700"/>
     <use xlink:href="#MicrosoftYaHei-5171" x="800"/>
     <use xlink:href="#MicrosoftYaHei-5b58" x="900"/>
    </g>
   </g>
   <g id="text_19">
    <!-- 强网络效应：初始优势被放大 -->
    <g style="fill: #247b46" transform="translate(459.764338 82.861359) scale(0.105 -0.105)">
     <defs>
      <path id="MicrosoftYaHei-5f3a" d="M 5250 466 
L 5669 666 
Q 6031 28 6363 -641 
L 5894 -878 
Q 5794 -641 5688 -416 
Q 3750 -547 2219 -653 
L 2150 -134 
Q 3088 -97 3969 -59 
L 3969 866 
L 2894 866 
L 2894 622 
L 2431 622 
L 2431 2616 
L 3969 2616 
L 3969 3297 
L 3144 3297 
L 3144 3047 
L 2681 3047 
L 2681 4972 
L 5731 4972 
L 5731 3047 
L 5269 3047 
L 5269 3297 
L 4444 3297 
L 4444 2616 
L 5988 2616 
L 5988 866 
L 4444 866 
L 4444 -41 
Q 4975 -22 5488 3 
Q 5369 241 5250 466 
z
M 425 3466 
L 1650 3466 
L 1650 4516 
L 238 4516 
L 238 4941 
L 2113 4941 
L 2113 2772 
L 1650 2772 
L 1650 3041 
L 831 3041 
L 719 2072 
L 2056 2072 
Q 1994 741 1944 128 
Q 1888 -722 1100 -722 
Q 819 -722 425 -716 
Q 388 -484 325 -216 
Q 731 -247 1019 -247 
Q 1444 -247 1475 191 
Q 1525 828 1563 1647 
L 225 1647 
L 425 3466 
z
M 5269 4547 
L 3144 4547 
L 3144 3722 
L 5269 3722 
L 5269 4547 
z
M 5525 1291 
L 5525 2191 
L 4444 2191 
L 4444 1291 
L 5525 1291 
z
M 2894 1291 
L 3969 1291 
L 3969 2191 
L 2894 2191 
L 2894 1291 
z
" transform="scale(0.015625)"/>
      <path id="MicrosoftYaHei-4f18" d="M 1825 3609 
L 3184 3609 
Q 3216 4322 3213 5272 
L 3713 5272 
Q 3719 4338 3688 3609 
L 6188 3609 
L 6188 3153 
L 4475 3153 
L 4475 228 
Q 4475 -122 4838 -122 
L 5244 -122 
Q 5656 -122 5700 303 
Q 5750 659 5781 1266 
Q 6031 1166 6294 1066 
Q 6244 528 6175 109 
Q 6100 -291 5900 -447 
Q 5713 -603 5275 -597 
L 4763 -597 
Q 4325 -597 4150 -422 
Q 3969 -259 3969 184 
L 3969 3153 
L 3663 3153 
Q 3600 791 1950 -803 
Q 1775 -597 1575 -397 
Q 3100 1028 3159 3153 
L 1825 3153 
L 1825 3609 
z
M 88 2334 
Q 1056 3641 1556 5291 
L 2063 5122 
Q 1753 4253 1388 3522 
L 1388 -809 
L 913 -809 
L 913 2666 
Q 616 2184 288 1778 
Q 194 2047 88 2334 
z
M 4600 5184 
Q 5269 4759 5713 4391 
Q 5538 4197 5388 3991 
Q 4875 4447 4325 4841 
L 4600 5184 
z
" transform="scale(0.015625)"/>
      <path id="MicrosoftYaHei-52bf" d="M 531 1472 
L 2522 1472 
Q 2544 1653 2544 1859 
L 3031 1859 
Q 3025 1656 3006 1472 
L 5550 1472 
Q 5506 709 5450 128 
Q 5375 -666 4475 -672 
Q 4019 -678 3269 -659 
Q 3231 -397 3163 -116 
Q 3906 -178 4463 -178 
Q 4925 -178 4969 222 
Q 5006 516 5038 1047 
L 2934 1047 
Q 2784 388 2400 28 
Q 1806 -541 469 -853 
Q 344 -647 169 -391 
Q 1519 -116 2031 372 
Q 2313 622 2438 1047 
L 531 1047 
L 531 1472 
z
M 2663 3347 
L 2881 3697 
Q 3144 3566 3388 3441 
Q 3472 3706 3500 4097 
L 2819 4097 
L 2819 4522 
L 3513 4522 
L 3513 5347 
L 3963 5347 
L 3963 4522 
L 5288 4522 
Q 5288 3303 5350 2853 
Q 5419 2347 5625 2347 
Q 5744 2347 5800 2641 
Q 5850 2928 5869 3322 
Q 6088 3228 6306 3153 
Q 6275 2772 6225 2509 
Q 6100 1816 5613 1816 
Q 5056 1816 4919 2584 
Q 4838 3066 4838 4097 
L 3950 4097 
Q 3922 3575 3806 3216 
Q 4247 2969 4606 2741 
L 4338 2322 
Q 4000 2559 3613 2797 
Q 3291 2284 2344 1772 
Q 2206 1978 2019 2172 
Q 2891 2600 3194 3047 
Q 2938 3197 2663 3347 
z
M 250 3184 
Q 616 3244 1313 3378 
L 1313 4041 
L 313 4041 
L 313 4466 
L 1313 4466 
L 1313 5353 
L 1763 5353 
L 1763 4466 
L 2513 4466 
L 2513 4041 
L 1763 4041 
L 1763 3469 
Q 2109 3538 2525 3622 
Q 2538 3284 2544 3178 
Q 2147 3100 1763 3022 
L 1763 2384 
Q 1763 1766 1163 1759 
Q 894 1753 500 1766 
Q 475 2016 425 2222 
Q 831 2191 1075 2191 
Q 1313 2191 1313 2441 
L 1313 2925 
Q 828 2819 363 2709 
L 250 3184 
z
" transform="scale(0.015625)"/>
      <path id="MicrosoftYaHei-88ab" d="M 2606 4391 
L 4225 4391 
L 4225 5303 
L 4675 5303 
L 4675 4391 
L 6163 4391 
L 6163 3997 
Q 6038 3566 5844 3159 
Q 5656 3247 5419 3322 
Q 5581 3647 5681 3978 
L 4675 3978 
L 4675 2753 
L 5794 2753 
L 5794 2378 
Q 5491 1194 4844 434 
Q 5363 -25 6313 -347 
Q 6125 -572 5956 -816 
Q 5056 -419 4509 103 
Q 3884 -459 3000 -834 
Q 2863 -622 2688 -422 
Q 3634 -59 4203 431 
Q 3575 1141 3356 2341 
L 3044 2341 
L 3044 2009 
Q 3044 197 2081 -834 
Q 1925 -616 1763 -447 
Q 2606 516 2606 2009 
L 2606 4391 
z
M 125 3641 
L 125 4097 
L 2175 4097 
L 2175 3628 
Q 1841 3038 1413 2484 
L 1413 2338 
Q 1538 2213 1650 2097 
Q 1947 2431 2138 2684 
L 2469 2409 
Q 2250 2147 1919 1816 
Q 2163 1556 2344 1347 
L 2031 1022 
Q 1772 1366 1413 1769 
L 1413 -797 
L 975 -797 
L 975 1963 
Q 641 1594 263 1241 
Q 194 1484 88 1784 
Q 1106 2634 1625 3641 
L 125 3641 
z
M 3044 2753 
L 4225 2753 
L 4225 3978 
L 3044 3978 
L 3044 2753 
z
M 5306 2341 
L 3788 2341 
Q 3988 1406 4528 766 
Q 5034 1391 5306 2341 
z
M 738 5141 
L 1163 5353 
Q 1444 4922 1656 4484 
L 1206 4259 
Q 1025 4653 738 5141 
z
" transform="scale(0.015625)"/>
      <path id="MicrosoftYaHei-653e" d="M 3956 5359 
L 4456 5272 
Q 4322 4681 4106 4128 
L 6281 4128 
L 6281 3666 
L 5759 3666 
Q 5638 1816 4884 725 
Q 5447 25 6338 -353 
Q 6131 -628 5994 -847 
Q 5153 -394 4559 322 
Q 3947 -356 3094 -903 
Q 2950 -722 2738 -509 
Q 3669 56 4259 731 
Q 3713 1625 3563 2988 
Q 3378 2669 3163 2366 
Q 3031 2553 2850 2766 
Q 3663 3884 3956 5359 
z
M 156 4184 
L 3169 4184 
L 3169 3722 
L 1400 3722 
Q 1394 3166 1378 2703 
L 2813 2703 
Q 2750 1166 2694 241 
Q 2638 -584 1981 -616 
Q 1600 -622 1263 -609 
Q 1225 -378 1156 -84 
Q 1569 -128 1794 -128 
Q 2175 -128 2206 347 
Q 2269 1078 2306 2241 
L 1359 2241 
Q 1338 216 369 -853 
Q 225 -641 38 -416 
Q 625 247 750 1003 
Q 909 1713 906 3722 
L 156 3722 
L 156 4184 
z
M 5263 3666 
L 3934 3666 
Q 4034 2134 4584 1166 
Q 5188 2131 5263 3666 
z
M 1206 5141 
L 1631 5366 
Q 1900 4966 2144 4503 
L 1706 4272 
Q 1456 4753 1206 5141 
z
" transform="scale(0.015625)"/>
      <path id="MicrosoftYaHei-5927" d="M 88 -341 
Q 2666 806 2869 3103 
L 200 3103 
L 200 3591 
L 2891 3591 
Q 2906 4431 2906 5284 
L 3450 5284 
Q 3450 4444 3434 3591 
L 6206 3591 
L 6206 3103 
L 3425 3103 
Q 3869 606 6338 -191 
Q 6019 -497 5863 -697 
Q 3828 122 3203 2219 
Q 2716 322 475 -822 
Q 350 -653 88 -341 
z
" transform="scale(0.015625)"/>
     </defs>
     <use xlink:href="#MicrosoftYaHei-5f3a"/>
     <use xlink:href="#MicrosoftYaHei-7f51" x="100"/>
     <use xlink:href="#MicrosoftYaHei-7edc" x="200"/>
     <use xlink:href="#MicrosoftYaHei-6548" x="300"/>
     <use xlink:href="#MicrosoftYaHei-5e94" x="400"/>
     <use xlink:href="#MicrosoftYaHei-ff1a" x="500"/>
     <use xlink:href="#MicrosoftYaHei-521d" x="600"/>
     <use xlink:href="#MicrosoftYaHei-59cb" x="700"/>
     <use xlink:href="#MicrosoftYaHei-4f18" x="800"/>
     <use xlink:href="#MicrosoftYaHei-52bf" x="900"/>
     <use xlink:href="#MicrosoftYaHei-88ab" x="1000"/>
     <use xlink:href="#MicrosoftYaHei-653e" x="1100"/>
     <use xlink:href="#MicrosoftYaHei-5927" x="1200"/>
    </g>
   </g>
   <g id="text_20">
    <!-- B 初始优势区 -->
    <g style="fill: #a94844" transform="translate(369.111808 345.216266) scale(0.102 -0.102)">
     <defs>
      <path id="MicrosoftYaHei-42" d="M 625 0 
L 625 4841 
L 2047 4841 
Q 2684 4841 3065 4536 
Q 3447 4231 3447 3728 
Q 3447 3328 3220 3022 
Q 2994 2716 2597 2588 
L 2597 2575 
Q 3091 2519 3386 2201 
Q 3681 1884 3681 1397 
Q 3681 772 3232 386 
Q 2784 0 2084 0 
L 625 0 
z
M 1250 4294 
L 1250 2778 
L 1819 2778 
Q 2272 2778 2530 2998 
Q 2788 3219 2788 3609 
Q 2788 4294 1875 4294 
L 1250 4294 
z
M 1250 2234 
L 1250 547 
L 2000 547 
Q 2491 547 2758 773 
Q 3025 1000 3025 1403 
Q 3025 2234 1897 2234 
L 1250 2234 
z
" transform="scale(0.015625)"/>
      <path id="MicrosoftYaHei-533a" d="M 600 4872 
L 5975 4872 
L 5975 4384 
L 1131 4384 
L 1131 22 
L 6075 22 
L 6075 -453 
L 600 -453 
L 600 4872 
z
M 1613 3697 
L 1963 4028 
Q 2744 3384 3597 2616 
Q 4250 3322 4850 4153 
L 5306 3847 
Q 4650 2997 3975 2272 
Q 4753 1563 5588 753 
L 5156 316 
Q 4400 1106 3600 1878 
Q 2697 963 1763 266 
Q 1613 459 1363 672 
Q 2344 1341 3228 2231 
Q 2444 2972 1613 3697 
z
" transform="scale(0.015625)"/>
     </defs>
     <use xlink:href="#MicrosoftYaHei-42"/>
     <use xlink:href="#MicrosoftYaHei-20" x="62.744141"/>
     <use xlink:href="#MicrosoftYaHei-521d" x="92.333984"/>
     <use xlink:href="#MicrosoftYaHei-59cb" x="192.333984"/>
     <use xlink:href="#MicrosoftYaHei-4f18" x="292.333984"/>
     <use xlink:href="#MicrosoftYaHei-52bf" x="392.333984"/>
     <use xlink:href="#MicrosoftYaHei-533a" x="492.333984"/>
    </g>
   </g>
   <g id="text_21">
    <!-- A 初始优势区 -->
    <g style="fill: #247b46" transform="translate(369.111808 64.779493) scale(0.102 -0.102)">
     <defs>
      <path id="MicrosoftYaHei-41" d="M 4428 0 
L 3738 0 
L 3244 1325 
L 1228 1325 
L 763 0 
L 72 0 
L 1916 4841 
L 2584 4841 
L 4428 0 
z
M 3050 1872 
L 2319 3884 
Q 2284 3981 2244 4222 
L 2228 4222 
Q 2194 4003 2150 3884 
L 1425 1872 
L 3050 1872 
z
" transform="scale(0.015625)"/>
     </defs>
     <use xlink:href="#MicrosoftYaHei-41"/>
     <use xlink:href="#MicrosoftYaHei-20" x="70.361328"/>
     <use xlink:href="#MicrosoftYaHei-521d" x="99.951172"/>
     <use xlink:href="#MicrosoftYaHei-59cb" x="199.951172"/>
     <use xlink:href="#MicrosoftYaHei-4f18" x="299.951172"/>
     <use xlink:href="#MicrosoftYaHei-52bf" x="399.951172"/>
     <use xlink:href="#MicrosoftYaHei-533a" x="499.951172"/>
    </g>
   </g>
   <g id="text_22">
    <!-- 实验 3：初始规模差异与最终市场份额 -->
    <g transform="translate(208.538084 20.94925) scale(0.172 -0.172)">
     <defs>
      <path id="MicrosoftYaHei-Bold-5b9e" d="M 4219 3716 
Q 4181 2422 4056 1653 
L 6238 1653 
L 6238 878 
L 3863 878 
Q 3850 841 3813 766 
Q 5019 372 6206 -66 
L 5881 -847 
Q 4619 -316 3369 153 
Q 2550 -616 863 -916 
Q 556 -384 331 -78 
Q 2338 209 2894 878 
L 169 878 
L 169 1653 
L 2144 1653 
Q 1481 2053 931 2328 
L 1319 2934 
Q 1894 2659 2638 2247 
L 2244 1653 
L 3175 1653 
Q 3331 2453 3350 3716 
L 4219 3716 
z
M 300 3078 
L 300 4703 
L 2819 4703 
Q 2700 5009 2606 5228 
L 3675 5341 
Q 3769 5084 3888 4703 
L 6094 4703 
L 6094 3078 
L 5225 3078 
L 5225 3953 
L 1169 3953 
L 1169 3078 
L 300 3078 
z
M 1813 3772 
Q 2469 3484 3163 3134 
L 2769 2497 
Q 2031 2909 1450 3184 
L 1813 3772 
z
" transform="scale(0.015625)"/>
      <path id="MicrosoftYaHei-Bold-9a8c" d="M 1138 4053 
L 969 2491 
L 1419 2491 
L 1563 4241 
L 200 4241 
L 200 4991 
L 2369 4991 
L 2163 2491 
L 2525 2491 
Q 2463 691 2413 203 
Q 2369 -553 1838 -672 
Q 1581 -709 644 -709 
Q 588 -253 519 134 
Q 906 91 1350 78 
Q 1669 78 1694 378 
Q 1731 791 1763 1741 
L 181 1741 
L 400 4053 
L 1138 4053 
z
M 5544 2647 
L 3163 2647 
L 3163 2997 
Q 2944 2797 2706 2603 
Q 2525 2991 2300 3391 
Q 3313 4134 3925 5278 
L 4875 5278 
L 4738 5053 
Q 5469 3984 6381 3466 
Q 6163 3116 5950 2691 
Q 5738 2828 5544 2984 
L 5544 2647 
z
M 2556 116 
L 4694 116 
Q 5063 1253 5250 2303 
L 6025 2103 
Q 5775 1141 5438 116 
L 6213 116 
L 6213 -634 
L 2556 -634 
L 2556 116 
z
M 3263 2172 
Q 3569 1397 3856 503 
L 3175 259 
Q 2981 978 2625 1934 
L 3263 2172 
z
M 4425 2428 
Q 4644 1584 4806 753 
L 4113 584 
Q 3988 1366 3763 2278 
L 4425 2428 
z
M 75 1216 
Q 763 1278 1525 1378 
Q 1531 984 1538 628 
Q 838 541 175 428 
L 75 1216 
z
M 4300 4347 
Q 4013 3897 3544 3384 
L 5113 3384 
Q 4663 3859 4300 4347 
z
" transform="scale(0.015625)"/>
      <path id="MicrosoftYaHei-Bold-20" transform="scale(0.015625)"/>
      <path id="MicrosoftYaHei-Bold-33" d="M 494 1053 
Q 978 691 1625 691 
Q 2034 691 2275 872 
Q 2516 1053 2516 1388 
Q 2516 1731 2230 1912 
Q 1944 2094 1428 2094 
L 997 2094 
L 997 2872 
L 1394 2872 
Q 2369 2872 2369 3528 
Q 2369 4147 1622 4147 
Q 1134 4147 675 3828 
L 675 4663 
Q 1175 4922 1853 4922 
Q 2541 4922 2969 4605 
Q 3397 4288 3397 3725 
Q 3397 2775 2434 2531 
L 2434 2516 
Q 2941 2459 3244 2145 
Q 3547 1831 3547 1381 
Q 3547 691 3042 303 
Q 2538 -84 1697 -84 
Q 950 -84 494 163 
L 494 1053 
z
" transform="scale(0.015625)"/>
      <path id="MicrosoftYaHei-Bold-ff1a" d="M 1594 3506 
Q 1831 3506 2000 3354 
Q 2169 3203 2169 2981 
Q 2169 2766 2003 2614 
Q 1838 2463 1594 2463 
Q 1353 2463 1189 2616 
Q 1025 2769 1025 2981 
Q 1025 3200 1192 3353 
Q 1359 3506 1594 3506 
z
M 1594 959 
Q 1831 959 2000 806 
Q 2169 653 2169 434 
Q 2169 222 2000 69 
Q 1831 -84 1594 -84 
Q 1356 -84 1190 69 
Q 1025 222 1025 434 
Q 1025 653 1190 806 
Q 1356 959 1594 959 
z
" transform="scale(0.015625)"/>
      <path id="MicrosoftYaHei-Bold-521d" d="M 1288 5359 
Q 1619 4997 2031 4453 
L 1516 4109 
L 2294 4109 
L 2294 3378 
Q 2019 2847 1700 2369 
L 1700 2256 
Q 1809 2175 1909 2097 
Q 2209 2516 2419 2878 
L 2994 2516 
Q 2716 2138 2381 1734 
Q 2619 1544 2813 1378 
L 2363 834 
Q 2016 1166 1700 1441 
L 1700 -866 
L 913 -866 
L 913 1338 
Q 641 1025 344 741 
Q 231 1228 94 1678 
Q 831 2278 1363 3303 
L 156 3303 
L 156 4109 
L 1231 4109 
Q 981 4472 613 4928 
L 1288 5359 
z
M 3919 -697 
Q 3838 -266 3700 253 
Q 4153 209 4563 209 
Q 5006 209 5040 675 
Q 5075 1141 5113 4159 
L 4097 4159 
Q 4050 2622 3984 1959 
Q 3919 1297 3595 525 
Q 3272 -247 2644 -859 
Q 2369 -578 1925 -216 
Q 2450 234 2734 806 
Q 3019 1378 3105 1972 
Q 3191 2566 3219 4159 
L 2488 4159 
L 2488 4947 
L 6013 4947 
L 5938 1331 
L 5906 491 
Q 5906 -44 5686 -328 
Q 5466 -613 5067 -647 
Q 4669 -681 3919 -697 
z
" transform="scale(0.015625)"/>
      <path id="MicrosoftYaHei-Bold-59cb" d="M 2863 -853 
L 2863 356 
L 2256 -291 
Q 2000 -25 1744 225 
Q 1309 -381 638 -847 
Q 350 -466 69 -153 
Q 706 259 1119 816 
Q 669 1228 225 1597 
Q 441 2363 616 3359 
L 119 3359 
L 119 4134 
L 741 4134 
Q 825 4706 900 5347 
L 1731 5259 
L 1550 4134 
L 2669 4134 
Q 2663 3728 2638 3363 
Q 3213 3972 3875 5359 
L 4800 5097 
Q 4225 4159 3594 3378 
Q 4328 3422 5075 3484 
Q 4847 3944 4619 4359 
L 5294 4634 
Q 5831 3747 6369 2659 
L 5613 2341 
L 5391 2828 
Q 3522 2697 2863 2578 
L 2625 3169 
Q 2519 1791 2156 953 
L 2863 394 
L 2863 2116 
L 5981 2116 
L 5981 -828 
L 5144 -828 
L 5144 -472 
L 3700 -472 
L 3700 -853 
L 2863 -853 
z
M 1088 1797 
L 1503 1469 
Q 1809 2241 1863 3359 
L 1413 3359 
Q 1259 2541 1088 1797 
z
M 5144 1328 
L 3700 1328 
L 3700 316 
L 5144 316 
L 5144 1328 
z
" transform="scale(0.015625)"/>
      <path id="MicrosoftYaHei-Bold-89c4" d="M 88 2766 
L 894 2766 
L 894 3516 
L 188 3516 
L 188 4291 
L 894 4291 
L 894 5284 
L 1694 5284 
L 1694 4291 
L 2400 4291 
L 2400 3516 
L 1694 3516 
L 1694 2766 
L 2488 2766 
L 2488 1984 
L 1675 1984 
Q 1666 1816 1647 1656 
Q 2091 1247 2650 666 
Q 2306 341 2088 91 
Q 1869 369 1506 788 
Q 1278 -194 769 -878 
Q 369 -447 75 -178 
Q 747 550 866 1984 
L 88 1984 
L 88 2766 
z
M 2650 1128 
L 2650 5066 
L 5913 5066 
L 5913 1197 
L 5100 1197 
L 5100 4259 
L 3463 4259 
L 3463 1128 
L 2650 1128 
z
M 5525 978 
Q 6000 747 6306 628 
Q 6184 -291 6031 -522 
Q 5878 -753 5469 -753 
L 4906 -753 
Q 4188 -753 4188 -78 
L 4188 644 
Q 3728 -297 2613 -884 
Q 2394 -572 2044 -172 
Q 3225 394 3540 1169 
Q 3856 1944 3856 3872 
L 4688 3872 
Q 4675 2513 4506 1641 
L 4931 1641 
L 4931 222 
Q 4931 -28 5150 -28 
L 5219 -28 
Q 5369 -28 5417 112 
Q 5466 253 5525 978 
z
" transform="scale(0.015625)"/>
      <path id="MicrosoftYaHei-Bold-6a21" d="M 6250 534 
L 4825 534 
Q 5419 84 6325 -53 
Q 6131 -403 5913 -859 
Q 4769 -522 4169 334 
Q 3694 -503 2406 -897 
Q 2206 -509 1925 -159 
Q 3013 66 3419 534 
L 2088 534 
L 2088 1141 
L 3719 1141 
Q 3756 1284 3769 1459 
L 2425 1459 
L 2425 2134 
L 1944 1659 
Q 1800 1878 1638 2109 
L 1638 -841 
L 863 -841 
L 863 1803 
Q 619 1141 275 547 
Q 213 978 75 1691 
Q 525 2453 788 3328 
L 138 3328 
L 138 4066 
L 863 4066 
L 863 5291 
L 1638 5291 
L 1638 4066 
L 2219 4066 
L 2219 3328 
L 1638 3328 
L 1638 2972 
Q 2081 2559 2425 2209 
L 2425 3703 
L 6025 3703 
L 6025 1459 
L 4556 1459 
Q 4544 1291 4519 1141 
L 6250 1141 
L 6250 534 
z
M 5250 2009 
L 5250 2353 
L 3200 2353 
L 3200 2009 
L 5250 2009 
z
M 5250 3147 
L 3200 3147 
L 3200 2816 
L 5250 2816 
L 5250 3147 
z
M 5413 3853 
L 4675 3853 
L 4675 4203 
L 3719 4203 
L 3719 3853 
L 2981 3853 
L 2981 4203 
L 2175 4203 
L 2175 4822 
L 2981 4822 
L 2981 5291 
L 3719 5291 
L 3719 4822 
L 4675 4822 
L 4675 5291 
L 5413 5291 
L 5413 4822 
L 6275 4822 
L 6275 4203 
L 5413 4203 
L 5413 3853 
z
" transform="scale(0.015625)"/>
      <path id="MicrosoftYaHei-Bold-5dee" d="M 1013 72 
L 3206 72 
L 3206 722 
L 1788 722 
L 1788 866 
Q 1213 269 444 -241 
Q 263 322 88 678 
Q 941 1150 1506 1803 
L 256 1803 
L 256 2478 
L 1988 2478 
Q 2094 2659 2181 2853 
L 656 2853 
L 656 3528 
L 2425 3528 
Q 2478 3713 2516 3903 
L 381 3903 
L 381 4578 
L 1675 4578 
Q 1513 4888 1363 5134 
L 2225 5347 
L 2672 4578 
L 3759 4578 
Q 4016 5016 4188 5341 
L 5113 5116 
L 4719 4578 
L 6038 4578 
L 6038 3903 
L 3366 3903 
Q 3331 3713 3284 3528 
L 5763 3528 
L 5763 2853 
L 3072 2853 
Q 3000 2663 2913 2478 
L 6163 2478 
L 6163 1803 
L 2534 1803 
Q 2406 1603 2256 1409 
L 5700 1409 
L 5700 722 
L 4094 722 
L 4094 72 
L 6231 72 
L 6231 -628 
L 1013 -628 
L 1013 72 
z
" transform="scale(0.015625)"/>
      <path id="MicrosoftYaHei-Bold-5f02" d="M 2019 2703 
L 4850 2703 
Q 5100 2703 5245 2789 
Q 5391 2875 5433 3031 
Q 5475 3188 5531 3678 
Q 5881 3553 6294 3434 
Q 6166 2763 6094 2545 
Q 6022 2328 5884 2203 
Q 5747 2078 5534 2015 
Q 5322 1953 5031 1953 
L 1819 1953 
Q 675 1953 675 3047 
L 675 5091 
L 5419 5091 
L 5419 3191 
L 1550 3191 
L 1550 3153 
Q 1550 2703 2019 2703 
z
M 4544 3878 
L 4544 4347 
L 1550 4347 
L 1550 3878 
L 4544 3878 
z
M 150 1341 
L 1688 1341 
Q 1700 1575 1694 1859 
L 2569 1859 
Q 2569 1581 2556 1341 
L 4056 1341 
L 4056 1859 
L 4906 1859 
L 4906 1341 
L 6250 1341 
L 6250 603 
L 4906 603 
L 4906 -728 
L 4056 -728 
L 4056 603 
L 2475 603 
Q 2344 -322 1219 -872 
Q 869 -553 494 -278 
Q 1406 109 1556 603 
L 150 603 
L 150 1341 
z
" transform="scale(0.015625)"/>
      <path id="MicrosoftYaHei-Bold-4e0e" d="M 6138 3747 
L 2000 3747 
L 1956 3041 
L 5838 3041 
L 5738 541 
Q 5709 -169 5351 -453 
Q 4994 -738 4381 -741 
L 3031 -741 
Q 2956 -359 2813 166 
Q 3463 134 4081 134 
Q 4731 134 4784 526 
Q 4838 919 4863 2234 
L 969 2234 
L 1144 5272 
L 2094 5272 
L 2050 4566 
L 6138 4566 
L 6138 3747 
z
M 4456 766 
L 181 766 
L 181 1584 
L 4456 1584 
L 4456 766 
z
" transform="scale(0.015625)"/>
      <path id="MicrosoftYaHei-Bold-6700" d="M 838 5109 
L 5563 5109 
L 5563 3134 
L 838 3134 
L 838 5109 
z
M 4700 4609 
L 1700 4609 
L 1700 4341 
L 4700 4341 
L 4700 4609 
z
M 4700 3634 
L 4700 3903 
L 1700 3903 
L 1700 3634 
L 4700 3634 
z
M 6038 1909 
L 6038 1328 
Q 5772 741 5366 294 
Q 5794 100 6313 -3 
Q 6156 -266 5938 -766 
Q 5284 -584 4747 -244 
Q 4256 -588 3631 -797 
Q 3534 -644 3363 -341 
Q 3259 -353 3163 -359 
L 3163 -866 
L 2400 -866 
L 2400 -428 
L 250 -641 
L 144 59 
L 613 84 
L 613 2241 
L 94 2241 
L 94 2853 
L 6306 2853 
L 6306 2241 
L 3163 2241 
L 3163 291 
L 3513 328 
Q 3488 169 3472 6 
Q 3819 109 4106 256 
Q 3741 609 3450 1066 
L 3813 1309 
L 3338 1309 
L 3338 1909 
L 6038 1909 
z
M 1375 1891 
L 2400 1891 
L 2400 2241 
L 1375 2241 
L 1375 1891 
z
M 1375 1066 
L 2400 1066 
L 2400 1416 
L 1375 1416 
L 1375 1066 
z
M 4722 672 
Q 5031 950 5238 1309 
L 4088 1309 
Q 4359 944 4722 672 
z
M 2400 219 
L 2400 591 
L 1375 591 
L 1375 138 
L 2400 219 
z
" transform="scale(0.015625)"/>
      <path id="MicrosoftYaHei-Bold-7ec8" d="M 5956 4759 
L 5956 4091 
Q 5569 3341 4919 2741 
Q 5544 2453 6369 2297 
Q 6213 1928 6050 1497 
Q 4963 1797 4250 2241 
Q 3506 1778 2519 1478 
Q 2350 1866 2138 2222 
Q 2981 2434 3613 2747 
Q 3338 3022 3106 3347 
Q 2888 3053 2656 2784 
Q 2406 3053 2119 3316 
Q 2963 4266 3381 5353 
L 4175 5209 
Q 4069 4978 3963 4759 
L 5956 4759 
z
M 913 3403 
Q 1075 3409 1344 3422 
Q 1525 3784 1731 4222 
L 2438 3928 
Q 1869 2859 1238 1772 
Q 1681 1828 2181 1897 
Q 2125 1572 2106 1147 
Q 1131 1084 425 922 
L 213 1628 
Q 525 1934 969 2716 
Q 625 2691 300 2659 
L 88 3347 
Q 413 3728 1019 5341 
L 1788 5109 
Q 1319 4128 913 3403 
z
M 2669 578 
Q 4344 291 5781 3 
L 5588 -809 
Q 4000 -472 2463 -184 
L 2669 578 
z
M 100 347 
Q 1319 528 2275 691 
Q 2244 166 2250 -172 
Q 1063 -366 225 -528 
L 100 347 
z
M 3288 1703 
Q 4719 1453 5481 1303 
L 5300 578 
Q 4231 809 3094 1022 
L 3288 1703 
z
M 3525 3966 
Q 3800 3484 4250 3134 
Q 4788 3541 5075 4047 
L 3569 4047 
Q 3550 4003 3525 3966 
z
" transform="scale(0.015625)"/>
      <path id="MicrosoftYaHei-Bold-5e02" d="M 1513 -191 
L 663 -191 
L 663 3003 
L 2750 3003 
L 2750 3728 
L 231 3728 
L 231 4541 
L 2678 4541 
Q 2556 4856 2444 5128 
L 3438 5359 
Q 3588 4969 3728 4541 
L 6200 4541 
L 6200 3728 
L 3650 3728 
L 3650 3003 
L 5888 3003 
L 5888 784 
Q 5888 509 5802 309 
Q 5716 109 5547 -9 
Q 5378 -128 5156 -161 
Q 4934 -194 4125 -203 
Q 4025 209 3894 609 
Q 4238 584 4600 584 
Q 5038 584 5038 1003 
L 5038 2216 
L 3650 2216 
L 3650 -853 
L 2750 -853 
L 2750 2216 
L 1513 2216 
L 1513 -191 
z
" transform="scale(0.015625)"/>
      <path id="MicrosoftYaHei-Bold-573a" d="M 3869 3053 
L 6113 3053 
Q 6113 1753 6038 378 
Q 5994 -659 5094 -722 
Q 4756 -747 4294 -759 
Q 4250 -391 4138 109 
Q 3781 -403 3300 -816 
Q 2944 -541 2544 -278 
Q 3906 759 4225 2303 
L 3719 2303 
Q 3375 1041 2550 284 
Q 2400 416 2256 534 
Q 2250 322 2256 72 
Q 1150 -153 244 -366 
L 81 528 
Q 444 591 813 659 
L 813 2866 
L 144 2866 
L 144 3722 
L 813 3722 
L 813 5303 
L 1644 5303 
L 1644 3722 
L 2238 3722 
L 2238 2866 
L 1644 2866 
L 1644 822 
Q 1794 853 1938 884 
Q 2631 1434 2925 2303 
L 2369 2303 
L 2369 3047 
L 4231 4253 
L 2363 4253 
L 2363 5003 
L 5700 5003 
L 5700 4284 
L 3869 3053 
z
M 4694 116 
Q 5213 116 5244 559 
Q 5300 1203 5325 2303 
L 5000 2303 
Q 4769 1047 4156 134 
Q 4450 116 4694 116 
z
" transform="scale(0.015625)"/>
      <path id="MicrosoftYaHei-Bold-4efd" d="M 1294 5291 
L 2175 5047 
Q 1953 4322 1669 3653 
L 1669 -797 
L 819 -797 
L 819 2013 
Q 603 1666 369 1341 
Q 294 1728 100 2472 
Q 863 3709 1294 5291 
z
M 5000 5184 
Q 5413 3928 6306 3147 
L 5938 2197 
Q 5806 2316 5684 2441 
L 5597 275 
Q 5575 -159 5378 -396 
Q 5181 -634 4906 -678 
Q 4631 -722 3800 -722 
Q 3700 -209 3588 178 
Q 4000 147 4234 147 
Q 4488 147 4606 237 
Q 4725 328 4734 759 
L 4769 2097 
L 3809 2097 
Q 3806 66 2394 -834 
Q 2194 -578 1769 -178 
Q 2916 491 2916 2097 
L 2525 2097 
L 2525 2466 
Q 2369 2294 2200 2134 
Q 2050 2516 1813 3028 
Q 2688 3834 3094 5197 
L 3906 4984 
Q 3581 3809 2869 2878 
L 5294 2878 
Q 4525 3822 4213 4984 
L 5000 5184 
z
" transform="scale(0.015625)"/>
      <path id="MicrosoftYaHei-Bold-989d" d="M 213 3753 
L 213 4803 
L 1272 4803 
Q 1206 5000 1125 5216 
L 2000 5347 
L 2175 4803 
L 3106 4803 
L 3106 5109 
L 6244 5109 
L 6244 4359 
L 4959 4359 
Q 4922 4069 4878 3822 
L 6069 3822 
L 6069 616 
L 5331 616 
L 5331 3103 
L 3956 3103 
L 3956 616 
L 3219 616 
L 3219 3822 
L 4069 3822 
Q 4109 4081 4144 4359 
L 3119 4359 
L 3119 3853 
L 2463 3853 
L 2463 4197 
L 869 4197 
L 869 3753 
L 213 3753 
z
M 538 -747 
L 538 1256 
Q 444 1228 350 1203 
Q 225 1547 94 1809 
Q 725 1978 1181 2247 
L 869 2403 
L 1225 2891 
L 1722 2659 
Q 1950 2884 2106 3153 
L 1291 3153 
Q 1044 2769 738 2434 
Q 531 2578 150 2778 
Q 819 3459 1069 4178 
L 1713 3934 
Q 1672 3841 1628 3753 
L 2925 3753 
L 2925 3166 
Q 2703 2706 2375 2341 
Q 2788 2131 3206 1903 
L 2875 1297 
L 2863 1303 
L 2863 -216 
Q 3722 91 4005 525 
Q 4288 959 4288 1966 
L 4288 2891 
L 5025 2891 
L 5025 1878 
Q 5025 1284 4925 838 
Q 5709 322 6306 -122 
L 5863 -872 
Q 5350 -419 4647 125 
Q 4241 -509 3256 -866 
Q 3069 -550 2863 -300 
L 2863 -703 
L 2138 -703 
L 2138 -497 
L 1263 -497 
L 1263 -747 
L 538 -747 
z
M 1000 1416 
L 2675 1416 
Q 2256 1663 1859 1881 
Q 1478 1609 1000 1416 
z
M 2138 734 
L 1263 734 
L 1263 184 
L 2138 184 
L 2138 734 
z
" transform="scale(0.015625)"/>
     </defs>
     <use xlink:href="#MicrosoftYaHei-Bold-5b9e"/>
     <use xlink:href="#MicrosoftYaHei-Bold-9a8c" x="100"/>
     <use xlink:href="#MicrosoftYaHei-Bold-20" x="200"/>
     <use xlink:href="#MicrosoftYaHei-Bold-33" x="229.785156"/>
     <use xlink:href="#MicrosoftYaHei-Bold-ff1a" x="291.455078"/>
     <use xlink:href="#MicrosoftYaHei-Bold-521d" x="391.455078"/>
     <use xlink:href="#MicrosoftYaHei-Bold-59cb" x="491.455078"/>
     <use xlink:href="#MicrosoftYaHei-Bold-89c4" x="591.455078"/>
     <use xlink:href="#MicrosoftYaHei-Bold-6a21" x="691.455078"/>
     <use xlink:href="#MicrosoftYaHei-Bold-5dee" x="791.455078"/>
     <use xlink:href="#MicrosoftYaHei-Bold-5f02" x="891.455078"/>
     <use xlink:href="#MicrosoftYaHei-Bold-4e0e" x="991.455078"/>
     <use xlink:href="#MicrosoftYaHei-Bold-6700" x="1091.455078"/>
     <use xlink:href="#MicrosoftYaHei-Bold-7ec8" x="1191.455078"/>
     <use xlink:href="#MicrosoftYaHei-Bold-5e02" x="1291.455078"/>
     <use xlink:href="#MicrosoftYaHei-Bold-573a" x="1391.455078"/>
     <use xlink:href="#MicrosoftYaHei-Bold-4efd" x="1491.455078"/>
     <use xlink:href="#MicrosoftYaHei-Bold-989d" x="1591.455078"/>
    </g>
   </g>
   <g id="legend_1">
    <g id="patch_7">
     <path d="M 516.885997 372.910629 
L 649.038153 372.910629 
Q 651.078153 372.910629 651.078153 370.870629 
L 651.078153 339.387692 
Q 651.078153 337.347692 649.038153 337.347692 
L 516.885997 337.347692 
Q 514.845997 337.347692 514.845997 339.387692 
L 514.845997 370.870629 
Q 514.845997 372.910629 516.885997 372.910629 
z
" style="fill: #fbfaf6; opacity: 0.94; stroke: #d7d0c2; stroke-linejoin: miter"/>
    </g>
    <g id="line2d_35">
     <path d="M 518.925997 346.428879 
L 529.125997 346.428879 
L 539.325997 346.428879 
" style="fill: none; stroke: #557c83; stroke-width: 2.8; stroke-linecap: round"/>
    </g>
    <g id="text_23">
     <!-- 弱网络效应  α=β=0.5 -->
     <g transform="translate(547.485997 349.998879) scale(0.102 -0.102)">
      <defs>
       <path id="MicrosoftYaHei-3b1" d="M 3425 1756 
Q 3550 1034 3676 781 
Q 3803 528 4000 528 
Q 4094 528 4150 550 
L 4150 19 
Q 3947 -31 3806 -31 
Q 3269 -31 3078 934 
L 3066 934 
Q 2575 -81 1684 -81 
Q 1053 -81 675 401 
Q 297 884 297 1628 
Q 297 2469 733 3003 
Q 1169 3538 1909 3538 
Q 2341 3538 2669 3289 
Q 2997 3041 3159 2600 
L 3175 2600 
L 3453 3456 
L 4088 3456 
L 3425 1756 
z
M 2919 1759 
Q 2647 3038 1931 3038 
Q 1466 3038 1194 2638 
Q 922 2238 922 1663 
Q 922 1150 1151 797 
Q 1381 444 1778 444 
Q 2491 444 2869 1609 
L 2919 1759 
z
" transform="scale(0.015625)"/>
       <path id="MicrosoftYaHei-3d" d="M 3972 2497 
L 788 2497 
L 788 2969 
L 3972 2969 
L 3972 2497 
z
M 3972 1053 
L 788 1053 
L 788 1525 
L 3972 1525 
L 3972 1053 
z
" transform="scale(0.015625)"/>
       <path id="MicrosoftYaHei-3b2" d="M 1156 147 
L 1156 -1619 
L 550 -1619 
L 550 3738 
Q 550 4388 929 4780 
Q 1309 5172 1953 5172 
Q 2556 5172 2904 4859 
Q 3253 4547 3253 4003 
Q 3253 3600 2998 3251 
Q 2744 2903 2331 2772 
L 2331 2759 
Q 2925 2659 3256 2300 
Q 3588 1941 3588 1381 
Q 3588 728 3169 322 
Q 2750 -84 2084 -84 
Q 1581 -84 1156 147 
z
M 1703 2472 
L 1703 2950 
Q 2119 3009 2376 3290 
Q 2634 3572 2634 3931 
Q 2634 4659 1944 4659 
Q 1556 4659 1356 4403 
Q 1156 4147 1156 3691 
L 1156 713 
Q 1622 428 2059 428 
Q 2481 428 2722 665 
Q 2963 903 2963 1353 
Q 2963 2350 1703 2472 
z
" transform="scale(0.015625)"/>
      </defs>
      <use xlink:href="#MicrosoftYaHei-5f31"/>
      <use xlink:href="#MicrosoftYaHei-7f51" x="100"/>
      <use xlink:href="#MicrosoftYaHei-7edc" x="200"/>
      <use xlink:href="#MicrosoftYaHei-6548" x="300"/>
      <use xlink:href="#MicrosoftYaHei-5e94" x="400"/>
      <use xlink:href="#MicrosoftYaHei-20" x="500"/>
      <use xlink:href="#MicrosoftYaHei-20" x="529.589844"/>
      <use xlink:href="#MicrosoftYaHei-3b1" x="559.179688"/>
      <use xlink:href="#MicrosoftYaHei-3d" x="625.78125"/>
      <use xlink:href="#MicrosoftYaHei-3b2" x="699.951172"/>
      <use xlink:href="#MicrosoftYaHei-3d" x="760.058594"/>
      <use xlink:href="#MicrosoftYaHei-30" x="834.228516"/>
      <use xlink:href="#MicrosoftYaHei-2e" x="892.871094"/>
      <use xlink:href="#MicrosoftYaHei-35" x="916.943359"/>
     </g>
    </g>
    <g id="line2d_36">
     <path d="M 518.925997 362.680348 
L 529.125997 362.680348 
L 539.325997 362.680348 
" style="fill: none; stroke: #2f9c5b; stroke-width: 2.8; stroke-linecap: round"/>
    </g>
    <g id="text_24">
     <!-- 强网络效应  α=β=3.0 -->
     <g transform="translate(547.485997 366.250348) scale(0.102 -0.102)">
      <use xlink:href="#MicrosoftYaHei-5f3a"/>
      <use xlink:href="#MicrosoftYaHei-7f51" x="100"/>
      <use xlink:href="#MicrosoftYaHei-7edc" x="200"/>
      <use xlink:href="#MicrosoftYaHei-6548" x="300"/>
      <use xlink:href="#MicrosoftYaHei-5e94" x="400"/>
      <use xlink:href="#MicrosoftYaHei-20" x="500"/>
      <use xlink:href="#MicrosoftYaHei-20" x="529.589844"/>
      <use xlink:href="#MicrosoftYaHei-3b1" x="559.179688"/>
      <use xlink:href="#MicrosoftYaHei-3d" x="625.78125"/>
      <use xlink:href="#MicrosoftYaHei-3b2" x="699.951172"/>
      <use xlink:href="#MicrosoftYaHei-3d" x="760.058594"/>
      <use xlink:href="#MicrosoftYaHei-33" x="834.228516"/>
      <use xlink:href="#MicrosoftYaHei-2e" x="892.871094"/>
      <use xlink:href="#MicrosoftYaHei-30" x="916.943359"/>
     </g>
    </g>
   </g>
  </g>
 </g>
 <defs>
  <clipPath id="p6ffcfa7c0c">
   <rect x="51.827953" y="36.94925" width="604.3502" height="341.061379"/>
  </clipPath>
 </defs>
</svg>
