<?xml version="1.0" encoding="utf-8" standalone="no"?>
<!DOCTYPE svg PUBLIC "-//W3C//DTD SVG 1.1//EN"
  "http://www.w3.org/Graphics/SVG/1.1/DTD/svg11.dtd">
<svg xmlns:xlink="http://www.w3.org/1999/xlink" width="641.99952pt" height="411.59952pt" viewBox="0 0 641.99952 411.59952" xmlns="http://www.w3.org/2000/svg" version="1.1">
 <metadata>
  <rdf:RDF xmlns:dc="http://purl.org/dc/elements/1.1/" xmlns:cc="http://creativecommons.org/ns#" xmlns:rdf="http://www.w3.org/1999/02/22-rdf-syntax-ns#">
   <cc:Work>
    <dc:type rdf:resource="http://purl.org/dc/dcmitype/StillImage"/>
    <dc:date>2026-06-05T14:09:23.953125</dc:date>
    <dc:format>image/svg+xml</dc:format>
    <dc:creator>
     <cc:Agent>
      <dc:title>Matplotlib v3.9.2, https://matplotlib.org/</dc:title>
     </cc:Agent>
    </dc:creator>
   </cc:Work>
  </rdf:RDF>
 </metadata>
 <defs>
  <style type="text/css">*{stroke-linejoin: round; stroke-linecap: butt}</style>
 </defs>
 <g id="figure_1">
  <g id="patch_1">
   <path d="M 0 411.59952 
L 641.99952 411.59952 
L 641.99952 0 
L 0 0 
z
" style="fill: #f7f5ef"/>
  </g>
  <g id="axes_1">
   <g id="patch_2">
    <path d="M 51.827953 363.086411 
L 631.720887 363.086411 
L 631.720887 36.94925 
L 51.827953 36.94925 
z
" style="fill: #fbfaf6"/>
   </g>
   <g id="patch_3">
    <path d="M 51.827953 171.241022 
L 631.720887 171.241022 
L 631.720887 43.344096 
L 51.827953 43.344096 
z
" clip-path="url(#p9276ded0d6)" style="fill: #2f9c5b; opacity: 0.06"/>
   </g>
   <g id="PolyCollection_1">
    <defs>
     <path id="m820437d23c" d="M 51.827953 -48.513109 
L 51.827953 -49.055113 
L 57.626882 -49.113405 
L 63.425812 -49.178125 
L 69.224741 -49.250018 
L 75.02367 -49.329924 
L 80.8226 -49.418794 
L 86.621529 -49.517705 
L 92.420459 -49.627881 
L 98.219388 -49.750719 
L 104.018317 -49.887815 
L 109.817247 -50.041004 
L 115.616176 -50.212404 
L 121.415105 -50.404473 
L 127.214035 -50.620079 
L 133.012964 -50.862592 
L 138.811893 -51.136005 
L 144.610823 -51.445086 
L 150.409752 -51.795598 
L 156.208681 -368.167312 
L 162.007611 -368.175718 
L 167.80654 -368.183328 
L 173.605469 -368.190205 
L 179.404399 -368.196424 
L 185.203328 -368.202051 
L 191.002257 -368.207131 
L 196.801187 -368.21174 
L 202.600116 -368.215902 
L 208.399045 -368.219669 
L 214.197975 -368.223076 
L 219.996904 -368.226157 
L 225.795833 -368.228931 
L 231.594763 -368.23146 
L 237.393692 -368.233747 
L 243.192621 -368.235811 
L 248.991551 -368.237678 
L 254.79048 -368.239358 
L 260.589409 -368.240895 
L 266.388339 -368.242279 
L 272.187268 -368.243531 
L 277.986197 -368.244651 
L 283.785127 -368.245676 
L 289.584056 -368.246607 
L 295.382985 -368.247452 
L 301.181915 -368.24821 
L 306.980844 -368.248897 
L 312.779773 -368.249518 
L 318.578703 -368.250079 
L 324.377632 -368.250587 
L 330.176561 -368.251041 
L 335.975491 -368.251458 
L 341.77442 -368.251835 
L 347.573349 -368.252175 
L 353.372279 -368.252478 
L 359.171208 -368.252758 
L 364.970138 -368.253014 
L 370.769067 -368.253243 
L 376.567996 -368.253452 
L 382.366926 -368.253642 
L 388.165855 -368.253806 
L 393.964784 -368.253955 
L 399.763714 -368.25409 
L 405.562643 -368.254218 
L 411.361572 -368.254329 
L 417.160502 -368.254435 
L 422.959431 -368.25453 
L 428.75836 -368.254615 
L 434.55729 -368.254677 
L 440.356219 -368.254775 
L 446.155148 -368.254829 
L 451.954078 -368.254893 
L 457.753007 -368.254946 
L 463.551936 -368.254992 
L 469.350866 -368.25503 
L 475.149795 -368.255071 
L 480.948724 -368.255107 
L 486.747654 -368.255033 
L 492.546583 -368.255071 
L 498.345512 -368.255158 
L 504.144442 -368.255046 
L 509.943371 -368.255159 
L 515.7423 -368.255164 
L 521.54123 -368.255163 
L 527.340159 -368.255137 
L 533.139088 -368.255234 
L 538.938018 -368.255142 
L 544.736947 -368.255249 
L 550.535876 -368.255201 
L 556.334806 -368.255242 
L 562.133735 -368.25526 
L 567.932664 -368.25526 
L 573.731594 -368.255269 
L 579.530523 -368.255301 
L 585.329452 -368.255293 
L 591.128382 -368.255351 
L 596.927311 -368.255314 
L 602.72624 -368.255332 
L 608.52517 -368.255367 
L 614.324099 -368.255339 
L 620.123029 -368.255349 
L 625.921958 -368.255395 
L 631.720887 -368.255389 
L 631.720887 -48.513109 
L 631.720887 -48.513109 
L 625.921958 -48.513109 
L 620.123029 -48.513109 
L 614.324099 -48.513109 
L 608.52517 -48.513109 
L 602.72624 -48.513109 
L 596.927311 -48.513109 
L 591.128382 -48.513109 
L 585.329452 -48.513109 
L 579.530523 -48.513109 
L 573.731594 -48.513109 
L 567.932664 -48.513109 
L 562.133735 -48.513109 
L 556.334806 -48.513109 
L 550.535876 -48.513109 
L 544.736947 -48.513109 
L 538.938018 -48.513109 
L 533.139088 -48.513109 
L 527.340159 -48.513109 
L 521.54123 -48.513109 
L 515.7423 -48.513109 
L 509.943371 -48.513109 
L 504.144442 -48.513109 
L 498.345512 -48.513109 
L 492.546583 -48.513109 
L 486.747654 -48.513109 
L 480.948724 -48.513109 
L 475.149795 -48.513109 
L 469.350866 -48.513109 
L 463.551936 -48.513109 
L 457.753007 -48.513109 
L 451.954078 -48.513109 
L 446.155148 -48.513109 
L 440.356219 -48.513109 
L 434.55729 -48.513109 
L 428.75836 -48.513109 
L 422.959431 -48.513109 
L 417.160502 -48.513109 
L 411.361572 -48.513109 
L 405.562643 -48.513109 
L 399.763714 -48.513109 
L 393.964784 -48.513109 
L 388.165855 -48.513109 
L 382.366926 -48.513109 
L 376.567996 -48.513109 
L 370.769067 -48.513109 
L 364.970138 -48.513109 
L 359.171208 -48.513109 
L 353.372279 -48.513109 
L 347.573349 -48.513109 
L 341.77442 -48.513109 
L 335.975491 -48.513109 
L 330.176561 -48.513109 
L 324.377632 -48.513109 
L 318.578703 -48.513109 
L 312.779773 -48.513109 
L 306.980844 -48.513109 
L 301.181915 -48.513109 
L 295.382985 -48.513109 
L 289.584056 -48.513109 
L 283.785127 -48.513109 
L 277.986197 -48.513109 
L 272.187268 -48.513109 
L 266.388339 -48.513109 
L 260.589409 -48.513109 
L 254.79048 -48.513109 
L 248.991551 -48.513109 
L 243.192621 -48.513109 
L 237.393692 -48.513109 
L 231.594763 -48.513109 
L 225.795833 -48.513109 
L 219.996904 -48.513109 
L 214.197975 -48.513109 
L 208.399045 -48.513109 
L 202.600116 -48.513109 
L 196.801187 -48.513109 
L 191.002257 -48.513109 
L 185.203328 -48.513109 
L 179.404399 -48.513109 
L 173.605469 -48.513109 
L 167.80654 -48.513109 
L 162.007611 -48.513109 
L 156.208681 -48.513109 
L 150.409752 -48.513109 
L 144.610823 -48.513109 
L 138.811893 -48.513109 
L 133.012964 -48.513109 
L 127.214035 -48.513109 
L 121.415105 -48.513109 
L 115.616176 -48.513109 
L 109.817247 -48.513109 
L 104.018317 -48.513109 
L 98.219388 -48.513109 
L 92.420459 -48.513109 
L 86.621529 -48.513109 
L 80.8226 -48.513109 
L 75.02367 -48.513109 
L 69.224741 -48.513109 
L 63.425812 -48.513109 
L 57.626882 -48.513109 
L 51.827953 -48.513109 
z
" style="stroke: #2f9c5b; stroke-opacity: 0.08"/>
    </defs>
    <g clip-path="url(#p9276ded0d6)">
     <use xlink:href="#m820437d23c" x="0" y="411.59952" style="fill: #2f9c5b; fill-opacity: 0.08; stroke: #2f9c5b; stroke-opacity: 0.08"/>
    </g>
   </g>
   <g id="matplotlib.axis_1">
    <g id="xtick_1">
     <g id="line2d_1">
      <path d="M 51.827953 363.086411 
L 51.827953 36.94925 
" clip-path="url(#p9276ded0d6)" style="fill: none; stroke: #d8d1c5; stroke-opacity: 0.34; stroke-width: 0.85; stroke-linecap: square"/>
     </g>
     <g id="line2d_2">
      <defs>
       <path id="m66d89f6843" d="M 0 0 
L 0 3.5 
" style="stroke: #32383a; stroke-width: 0.8"/>
      </defs>
      <g>
       <use xlink:href="#m66d89f6843" x="51.827953" y="363.086411" style="fill: #32383a; stroke: #32383a; stroke-width: 0.8"/>
      </g>
     </g>
     <g id="text_1">
      <!-- 0 -->
      <g style="fill: #32383a" transform="translate(48.74932 378.479848) scale(0.105 -0.105)">
       <defs>
        <path id="MicrosoftYaHei-30" d="M 284 2325 
Q 284 3606 709 4264 
Q 1134 4922 1941 4922 
Q 3478 4922 3478 2441 
Q 3478 1216 3045 567 
Q 2613 -81 1831 -81 
Q 1094 -81 689 534 
Q 284 1150 284 2325 
z
M 909 2353 
Q 909 425 1888 425 
Q 2850 425 2850 2384 
Q 2850 4413 1906 4413 
Q 909 4413 909 2353 
z
" transform="scale(0.015625)"/>
       </defs>
       <use xlink:href="#MicrosoftYaHei-30"/>
      </g>
     </g>
    </g>
    <g id="xtick_2">
     <g id="line2d_3">
      <path d="M 167.80654 363.086411 
L 167.80654 36.94925 
" clip-path="url(#p9276ded0d6)" style="fill: none; stroke: #d8d1c5; stroke-opacity: 0.34; stroke-width: 0.85; stroke-linecap: square"/>
     </g>
     <g id="line2d_4">
      <g>
       <use xlink:href="#m66d89f6843" x="167.80654" y="363.086411" style="fill: #32383a; stroke: #32383a; stroke-width: 0.8"/>
      </g>
     </g>
     <g id="text_2">
      <!-- 1 -->
      <g style="fill: #32383a" transform="translate(164.727907 378.479848) scale(0.105 -0.105)">
       <defs>
        <path id="MicrosoftYaHei-31" d="M 1781 0 
L 1781 4141 
Q 1638 3997 1295 3819 
Q 953 3641 663 3569 
L 663 4169 
Q 1047 4275 1484 4508 
Q 1922 4741 2156 4947 
L 2388 4947 
L 2388 0 
L 1781 0 
z
" transform="scale(0.015625)"/>
       </defs>
       <use xlink:href="#MicrosoftYaHei-31"/>
      </g>
     </g>
    </g>
    <g id="xtick_3">
     <g id="line2d_5">
      <path d="M 283.785127 363.086411 
L 283.785127 36.94925 
" clip-path="url(#p9276ded0d6)" style="fill: none; stroke: #d8d1c5; stroke-opacity: 0.34; stroke-width: 0.85; stroke-linecap: square"/>
     </g>
     <g id="line2d_6">
      <g>
       <use xlink:href="#m66d89f6843" x="283.785127" y="363.086411" style="fill: #32383a; stroke: #32383a; stroke-width: 0.8"/>
      </g>
     </g>
     <g id="text_3">
      <!-- 2 -->
      <g style="fill: #32383a" transform="translate(280.706494 378.479848) scale(0.105 -0.105)">
       <defs>
        <path id="MicrosoftYaHei-32" d="M 2666 3572 
Q 2666 3963 2419 4186 
Q 2172 4409 1747 4409 
Q 1447 4409 1140 4256 
Q 834 4103 569 3819 
L 569 4413 
Q 806 4659 1107 4790 
Q 1409 4922 1816 4922 
Q 2472 4922 2872 4570 
Q 3272 4219 3272 3619 
Q 3272 3084 3026 2693 
Q 2781 2303 2188 1894 
Q 1581 1475 1376 1294 
Q 1172 1113 1090 947 
Q 1009 781 1009 544 
L 3416 544 
L 3416 0 
L 372 0 
L 372 241 
Q 372 659 486 951 
Q 600 1244 862 1520 
Q 1125 1797 1681 2184 
Q 2250 2584 2458 2886 
Q 2666 3188 2666 3572 
z
" transform="scale(0.015625)"/>
       </defs>
       <use xlink:href="#MicrosoftYaHei-32"/>
      </g>
     </g>
    </g>
    <g id="xtick_4">
     <g id="line2d_7">
      <path d="M 399.763714 363.086411 
L 399.763714 36.94925 
" clip-path="url(#p9276ded0d6)" style="fill: none; stroke: #d8d1c5; stroke-opacity: 0.34; stroke-width: 0.85; stroke-linecap: square"/>
     </g>
     <g id="line2d_8">
      <g>
       <use xlink:href="#m66d89f6843" x="399.763714" y="363.086411" style="fill: #32383a; stroke: #32383a; stroke-width: 0.8"/>
      </g>
     </g>
     <g id="text_4">
      <!-- 3 -->
      <g style="fill: #32383a" transform="translate(396.685081 378.479848) scale(0.105 -0.105)">
       <defs>
        <path id="MicrosoftYaHei-33" d="M 447 809 
Q 944 425 1569 425 
Q 2069 425 2361 670 
Q 2653 916 2653 1328 
Q 2653 2247 1338 2247 
L 934 2247 
L 934 2753 
L 1319 2753 
Q 2484 2753 2484 3616 
Q 2484 4413 1594 4413 
Q 1084 4413 634 4069 
L 634 4647 
Q 1109 4922 1744 4922 
Q 2363 4922 2738 4598 
Q 3113 4275 3113 3759 
Q 3113 2809 2144 2538 
L 2144 2525 
Q 2669 2469 2973 2155 
Q 3278 1841 3278 1372 
Q 3278 719 2808 319 
Q 2338 -81 1556 -81 
Q 869 -81 447 175 
L 447 809 
z
" transform="scale(0.015625)"/>
       </defs>
       <use xlink:href="#MicrosoftYaHei-33"/>
      </g>
     </g>
    </g>
    <g id="xtick_5">
     <g id="line2d_9">
      <path d="M 515.7423 363.086411 
L 515.7423 36.94925 
" clip-path="url(#p9276ded0d6)" style="fill: none; stroke: #d8d1c5; stroke-opacity: 0.34; stroke-width: 0.85; stroke-linecap: square"/>
     </g>
     <g id="line2d_10">
      <g>
       <use xlink:href="#m66d89f6843" x="515.7423" y="363.086411" style="fill: #32383a; stroke: #32383a; stroke-width: 0.8"/>
      </g>
     </g>
     <g id="text_5">
      <!-- 4 -->
      <g style="fill: #32383a" transform="translate(512.663668 378.479848) scale(0.105 -0.105)">
       <defs>
        <path id="MicrosoftYaHei-34" d="M 2906 4841 
L 2906 1644 
L 3631 1644 
L 3631 1138 
L 2906 1138 
L 2906 0 
L 2313 0 
L 2313 1138 
L 53 1138 
L 53 1616 
Q 656 2294 1265 3178 
Q 1875 4063 2272 4841 
L 2906 4841 
z
M 741 1644 
L 2313 1644 
L 2313 3950 
Q 1988 3366 1616 2817 
Q 1244 2269 741 1644 
z
" transform="scale(0.015625)"/>
       </defs>
       <use xlink:href="#MicrosoftYaHei-34"/>
      </g>
     </g>
    </g>
    <g id="xtick_6">
     <g id="line2d_11">
      <path d="M 631.720887 363.086411 
L 631.720887 36.94925 
" clip-path="url(#p9276ded0d6)" style="fill: none; stroke: #d8d1c5; stroke-opacity: 0.34; stroke-width: 0.85; stroke-linecap: square"/>
     </g>
     <g id="line2d_12">
      <g>
       <use xlink:href="#m66d89f6843" x="631.720887" y="363.086411" style="fill: #32383a; stroke: #32383a; stroke-width: 0.8"/>
      </g>
     </g>
     <g id="text_6">
      <!-- 5 -->
      <g style="fill: #32383a" transform="translate(628.642254 378.479848) scale(0.105 -0.105)">
       <defs>
        <path id="MicrosoftYaHei-35" d="M 3294 1494 
Q 3294 784 2823 350 
Q 2353 -84 1559 -84 
Q 878 -84 544 119 
L 544 744 
Q 1034 425 1544 425 
Q 2050 425 2361 704 
Q 2672 984 2672 1447 
Q 2672 1909 2348 2167 
Q 2025 2425 1434 2425 
Q 978 2425 613 2384 
L 791 4841 
L 3053 4841 
L 3053 4303 
L 1306 4303 
L 1206 2931 
L 1647 2950 
Q 2416 2950 2855 2567 
Q 3294 2184 3294 1494 
z
" transform="scale(0.015625)"/>
       </defs>
       <use xlink:href="#MicrosoftYaHei-35"/>
      </g>
     </g>
    </g>
    <g id="text_7">
     <!-- 服务质量优势  Δq -->
     <g transform="translate(293.369967 401.366676) scale(0.122 -0.122)">
      <defs>
       <path id="MicrosoftYaHei-670d" d="M 2819 4941 
L 5906 4941 
Q 5875 4434 5856 4141 
Q 5806 3172 4869 3191 
Q 4613 3197 4063 3216 
Q 4025 3459 3981 3709 
Q 4444 3653 4813 3641 
Q 5350 3622 5394 4153 
Q 5413 4316 5425 4509 
L 3294 4509 
L 3294 2709 
L 5931 2709 
L 5931 2341 
Q 5681 1244 5016 431 
Q 5556 -81 6356 -366 
Q 6144 -616 5994 -816 
Q 5225 -456 4691 78 
Q 4213 -394 3569 -753 
Q 3450 -547 3313 -341 
Q 3938 -22 4391 422 
Q 3781 1203 3588 2303 
L 3294 2303 
L 3294 -803 
L 2819 -803 
L 2819 4941 
z
M 538 4966 
L 2300 4966 
L 2300 -103 
Q 2300 -728 1719 -728 
Q 1400 -728 1125 -709 
Q 1100 -522 1050 -266 
Q 1369 -316 1600 -316 
Q 1856 -316 1856 -59 
L 1856 1378 
L 981 1378 
Q 1000 -59 463 -816 
Q 325 -634 119 -466 
Q 538 178 538 1359 
L 538 4966 
z
M 5438 2303 
L 4016 2303 
Q 4209 1403 4706 772 
Q 5222 1425 5438 2303 
z
M 981 1766 
L 1856 1766 
L 1856 2972 
L 981 2972 
L 981 1766 
z
M 1856 4559 
L 981 4559 
L 981 3359 
L 1856 3359 
L 1856 4559 
z
" transform="scale(0.015625)"/>
       <path id="MicrosoftYaHei-52a1" d="M 1900 5391 
L 2369 5191 
Q 2228 4959 2075 4741 
L 5456 4741 
L 5456 4322 
Q 4875 3616 3866 3088 
Q 4916 2706 6369 2616 
Q 6169 2334 6019 2091 
Q 4391 2306 3288 2819 
Q 2047 2291 288 1984 
Q 181 2178 31 2422 
Q 1597 2663 2750 3103 
Q 2038 3538 1609 4131 
Q 1125 3556 538 3066 
Q 350 3266 194 3403 
Q 1344 4316 1900 5391 
z
M 588 1728 
L 2406 1728 
Q 2450 2031 2481 2403 
L 2988 2403 
Q 2947 2031 2903 1728 
L 5425 1728 
Q 5363 609 5306 159 
Q 5206 -722 4256 -728 
Q 3888 -734 3150 -703 
Q 3113 -472 3056 -184 
Q 3775 -247 4244 -253 
Q 4775 -241 4831 284 
Q 4888 753 4913 1284 
L 2828 1284 
Q 2497 -219 500 -897 
Q 356 -691 194 -478 
Q 1988 103 2319 1284 
L 588 1284 
L 588 1728 
z
M 4788 4328 
L 1997 4328 
Q 2500 3725 3291 3334 
Q 4194 3756 4788 4328 
z
" transform="scale(0.015625)"/>
       <path id="MicrosoftYaHei-8d28" d="M 1838 2628 
L 3500 2628 
L 3500 3353 
L 1450 3353 
L 1450 3791 
L 3500 3791 
L 3500 4472 
L 4000 4472 
L 4000 3791 
L 6125 3791 
L 6125 3353 
L 4000 3353 
L 4000 2628 
L 5681 2628 
L 5681 428 
L 5194 428 
L 5194 2191 
L 2325 2191 
L 2325 428 
L 1838 428 
L 1838 2628 
z
M 713 4934 
Q 3744 4947 5988 5197 
L 6163 4709 
Q 3813 4541 1213 4497 
L 1213 2578 
Q 1213 178 406 -872 
Q 219 -653 31 -466 
Q 713 372 713 2534 
L 713 4934 
z
M 4000 1866 
Q 4013 1053 3919 691 
Q 5063 191 6263 -403 
L 5994 -866 
Q 4794 -203 3763 272 
Q 3275 -559 1344 -884 
Q 1238 -684 1075 -428 
Q 3019 -128 3350 534 
Q 3525 822 3513 1866 
L 4000 1866 
z
" transform="scale(0.015625)"/>
       <path id="MicrosoftYaHei-91cf" d="M 113 -278 
L 2981 -278 
L 2981 78 
L 475 78 
L 475 403 
L 2981 403 
L 2981 759 
L 1494 759 
L 1494 597 
L 1069 597 
L 1069 2516 
L 5350 2516 
L 5350 597 
L 4925 597 
L 4925 759 
L 3419 759 
L 3419 403 
L 5931 403 
L 5931 78 
L 3419 78 
L 3419 -278 
L 6288 -278 
L 6288 -616 
L 113 -616 
L 113 -278 
z
M 1119 5072 
L 5306 5072 
L 5306 3284 
L 4881 3284 
L 4881 3453 
L 1544 3453 
L 1544 3284 
L 1119 3284 
L 1119 5072 
z
M 163 3153 
L 6263 3153 
L 6263 2816 
L 163 2816 
L 163 3153 
z
M 1544 3778 
L 4881 3778 
L 4881 4116 
L 1544 4116 
L 1544 3778 
z
M 4881 4747 
L 1544 4747 
L 1544 4416 
L 4881 4416 
L 4881 4747 
z
M 3419 1084 
L 4925 1084 
L 4925 1491 
L 3419 1491 
L 3419 1084 
z
M 1494 1084 
L 2981 1084 
L 2981 1491 
L 1494 1491 
L 1494 1084 
z
M 4925 2191 
L 3419 2191 
L 3419 1791 
L 4925 1791 
L 4925 2191 
z
M 1494 1791 
L 2981 1791 
L 2981 2191 
L 1494 2191 
L 1494 1791 
z
" transform="scale(0.015625)"/>
       <path id="MicrosoftYaHei-4f18" d="M 1825 3609 
L 3184 3609 
Q 3216 4322 3213 5272 
L 3713 5272 
Q 3719 4338 3688 3609 
L 6188 3609 
L 6188 3153 
L 4475 3153 
L 4475 228 
Q 4475 -122 4838 -122 
L 5244 -122 
Q 5656 -122 5700 303 
Q 5750 659 5781 1266 
Q 6031 1166 6294 1066 
Q 6244 528 6175 109 
Q 6100 -291 5900 -447 
Q 5713 -603 5275 -597 
L 4763 -597 
Q 4325 -597 4150 -422 
Q 3969 -259 3969 184 
L 3969 3153 
L 3663 3153 
Q 3600 791 1950 -803 
Q 1775 -597 1575 -397 
Q 3100 1028 3159 3153 
L 1825 3153 
L 1825 3609 
z
M 88 2334 
Q 1056 3641 1556 5291 
L 2063 5122 
Q 1753 4253 1388 3522 
L 1388 -809 
L 913 -809 
L 913 2666 
Q 616 2184 288 1778 
Q 194 2047 88 2334 
z
M 4600 5184 
Q 5269 4759 5713 4391 
Q 5538 4197 5388 3991 
Q 4875 4447 4325 4841 
L 4600 5184 
z
" transform="scale(0.015625)"/>
       <path id="MicrosoftYaHei-52bf" d="M 531 1472 
L 2522 1472 
Q 2544 1653 2544 1859 
L 3031 1859 
Q 3025 1656 3006 1472 
L 5550 1472 
Q 5506 709 5450 128 
Q 5375 -666 4475 -672 
Q 4019 -678 3269 -659 
Q 3231 -397 3163 -116 
Q 3906 -178 4463 -178 
Q 4925 -178 4969 222 
Q 5006 516 5038 1047 
L 2934 1047 
Q 2784 388 2400 28 
Q 1806 -541 469 -853 
Q 344 -647 169 -391 
Q 1519 -116 2031 372 
Q 2313 622 2438 1047 
L 531 1047 
L 531 1472 
z
M 2663 3347 
L 2881 3697 
Q 3144 3566 3388 3441 
Q 3472 3706 3500 4097 
L 2819 4097 
L 2819 4522 
L 3513 4522 
L 3513 5347 
L 3963 5347 
L 3963 4522 
L 5288 4522 
Q 5288 3303 5350 2853 
Q 5419 2347 5625 2347 
Q 5744 2347 5800 2641 
Q 5850 2928 5869 3322 
Q 6088 3228 6306 3153 
Q 6275 2772 6225 2509 
Q 6100 1816 5613 1816 
Q 5056 1816 4919 2584 
Q 4838 3066 4838 4097 
L 3950 4097 
Q 3922 3575 3806 3216 
Q 4247 2969 4606 2741 
L 4338 2322 
Q 4000 2559 3613 2797 
Q 3291 2284 2344 1772 
Q 2206 1978 2019 2172 
Q 2891 2600 3194 3047 
Q 2938 3197 2663 3347 
z
M 250 3184 
Q 616 3244 1313 3378 
L 1313 4041 
L 313 4041 
L 313 4466 
L 1313 4466 
L 1313 5353 
L 1763 5353 
L 1763 4466 
L 2513 4466 
L 2513 4041 
L 1763 4041 
L 1763 3469 
Q 2109 3538 2525 3622 
Q 2538 3284 2544 3178 
Q 2147 3100 1763 3022 
L 1763 2384 
Q 1763 1766 1163 1759 
Q 894 1753 500 1766 
Q 475 2016 425 2222 
Q 831 2191 1075 2191 
Q 1313 2191 1313 2441 
L 1313 2925 
Q 828 2819 363 2709 
L 250 3184 
z
" transform="scale(0.015625)"/>
       <path id="MicrosoftYaHei-20" transform="scale(0.015625)"/>
       <path id="MicrosoftYaHei-394" d="M 166 0 
L 166 275 
L 1913 4841 
L 2578 4841 
L 4334 275 
L 4334 0 
L 166 0 
z
M 2366 3744 
Q 2313 3894 2280 4012 
Q 2247 4131 2241 4225 
L 2225 4225 
Q 2213 4138 2181 4019 
Q 2150 3900 2091 3747 
Q 1856 3097 1570 2301 
Q 1284 1506 941 553 
L 3544 553 
L 2366 3744 
z
" transform="scale(0.015625)"/>
       <path id="MicrosoftYaHei-71" d="M 3547 -1591 
L 2934 -1591 
L 2934 581 
L 2922 581 
Q 2559 -81 1753 -81 
Q 1100 -81 708 380 
Q 316 841 316 1647 
Q 316 2506 747 3022 
Q 1178 3538 1903 3538 
Q 2603 3538 2922 2988 
L 2934 2988 
L 2934 3456 
L 3547 3456 
L 3547 -1591 
z
M 2934 2044 
Q 2938 2453 2673 2742 
Q 2409 3031 1984 3031 
Q 1497 3031 1219 2668 
Q 941 2306 941 1663 
Q 941 1081 1208 753 
Q 1475 425 1909 425 
Q 2384 425 2661 751 
Q 2938 1078 2934 1566 
L 2934 2044 
z
" transform="scale(0.015625)"/>
      </defs>
      <use xlink:href="#MicrosoftYaHei-670d"/>
      <use xlink:href="#MicrosoftYaHei-52a1" x="100"/>
      <use xlink:href="#MicrosoftYaHei-8d28" x="200"/>
      <use xlink:href="#MicrosoftYaHei-91cf" x="300"/>
      <use xlink:href="#MicrosoftYaHei-4f18" x="400"/>
      <use xlink:href="#MicrosoftYaHei-52bf" x="500"/>
      <use xlink:href="#MicrosoftYaHei-20" x="600"/>
      <use xlink:href="#MicrosoftYaHei-20" x="629.589844"/>
      <use xlink:href="#MicrosoftYaHei-394" x="659.179688"/>
      <use xlink:href="#MicrosoftYaHei-71" x="729.541016"/>
     </g>
    </g>
   </g>
   <g id="matplotlib.axis_2">
    <g id="ytick_1">
     <g id="line2d_13">
      <path d="M 51.827953 363.086411 
L 631.720887 363.086411 
" clip-path="url(#p9276ded0d6)" style="fill: none; stroke: #d8d1c5; stroke-opacity: 0.34; stroke-width: 0.85; stroke-linecap: square"/>
     </g>
     <g id="line2d_14">
      <defs>
       <path id="m5c1ed70f7e" d="M 0 0 
L -3.5 0 
" style="stroke: #32383a; stroke-width: 0.8"/>
      </defs>
      <g>
       <use xlink:href="#m5c1ed70f7e" x="51.827953" y="363.086411" style="fill: #32383a; stroke: #32383a; stroke-width: 0.8"/>
      </g>
     </g>
     <g id="text_8">
      <!-- 0.0 -->
      <g style="fill: #32383a" transform="translate(29.985219 367.283129) scale(0.105 -0.105)">
       <defs>
        <path id="MicrosoftYaHei-2e" d="M 372 322 
Q 372 491 487 606 
Q 603 722 775 722 
Q 950 722 1065 605 
Q 1181 488 1181 322 
Q 1181 159 1065 42 
Q 950 -75 772 -75 
Q 600 -75 486 42 
Q 372 159 372 322 
z
" transform="scale(0.015625)"/>
       </defs>
       <use xlink:href="#MicrosoftYaHei-30"/>
       <use xlink:href="#MicrosoftYaHei-2e" x="58.642578"/>
       <use xlink:href="#MicrosoftYaHei-30" x="82.714844"/>
      </g>
     </g>
    </g>
    <g id="ytick_2">
     <g id="line2d_15">
      <path d="M 51.827953 299.137948 
L 631.720887 299.137948 
" clip-path="url(#p9276ded0d6)" style="fill: none; stroke: #d8d1c5; stroke-opacity: 0.34; stroke-width: 0.85; stroke-linecap: square"/>
     </g>
     <g id="line2d_16">
      <g>
       <use xlink:href="#m5c1ed70f7e" x="51.827953" y="299.137948" style="fill: #32383a; stroke: #32383a; stroke-width: 0.8"/>
      </g>
     </g>
     <g id="text_9">
      <!-- 0.2 -->
      <g style="fill: #32383a" transform="translate(29.985219 303.334667) scale(0.105 -0.105)">
       <use xlink:href="#MicrosoftYaHei-30"/>
       <use xlink:href="#MicrosoftYaHei-2e" x="58.642578"/>
       <use xlink:href="#MicrosoftYaHei-32" x="82.714844"/>
      </g>
     </g>
    </g>
    <g id="ytick_3">
     <g id="line2d_17">
      <path d="M 51.827953 235.189485 
L 631.720887 235.189485 
" clip-path="url(#p9276ded0d6)" style="fill: none; stroke: #d8d1c5; stroke-opacity: 0.34; stroke-width: 0.85; stroke-linecap: square"/>
     </g>
     <g id="line2d_18">
      <g>
       <use xlink:href="#m5c1ed70f7e" x="51.827953" y="235.189485" style="fill: #32383a; stroke: #32383a; stroke-width: 0.8"/>
      </g>
     </g>
     <g id="text_10">
      <!-- 0.4 -->
      <g style="fill: #32383a" transform="translate(29.985219 239.386204) scale(0.105 -0.105)">
       <use xlink:href="#MicrosoftYaHei-30"/>
       <use xlink:href="#MicrosoftYaHei-2e" x="58.642578"/>
       <use xlink:href="#MicrosoftYaHei-34" x="82.714844"/>
      </g>
     </g>
    </g>
    <g id="ytick_4">
     <g id="line2d_19">
      <path d="M 51.827953 171.241022 
L 631.720887 171.241022 
" clip-path="url(#p9276ded0d6)" style="fill: none; stroke: #d8d1c5; stroke-opacity: 0.34; stroke-width: 0.85; stroke-linecap: square"/>
     </g>
     <g id="line2d_20">
      <g>
       <use xlink:href="#m5c1ed70f7e" x="51.827953" y="171.241022" style="fill: #32383a; stroke: #32383a; stroke-width: 0.8"/>
      </g>
     </g>
     <g id="text_11">
      <!-- 0.6 -->
      <g style="fill: #32383a" transform="translate(29.985219 175.437741) scale(0.105 -0.105)">
       <defs>
        <path id="MicrosoftYaHei-36" d="M 3181 4219 
Q 2803 4413 2391 4413 
Q 1763 4413 1381 3866 
Q 1000 3319 994 2372 
L 1009 2372 
Q 1353 3038 2106 3038 
Q 2734 3038 3109 2628 
Q 3484 2219 3484 1541 
Q 3484 831 3051 375 
Q 2619 -81 1947 -81 
Q 1209 -81 789 495 
Q 369 1072 369 2131 
Q 369 3413 920 4167 
Q 1472 4922 2372 4922 
Q 2888 4922 3181 4781 
L 3181 4219 
z
M 1031 1584 
Q 1031 1106 1286 765 
Q 1541 425 1963 425 
Q 2363 425 2613 719 
Q 2863 1013 2863 1475 
Q 2863 1975 2627 2253 
Q 2391 2531 1956 2531 
Q 1544 2531 1287 2250 
Q 1031 1969 1031 1584 
z
" transform="scale(0.015625)"/>
       </defs>
       <use xlink:href="#MicrosoftYaHei-30"/>
       <use xlink:href="#MicrosoftYaHei-2e" x="58.642578"/>
       <use xlink:href="#MicrosoftYaHei-36" x="82.714844"/>
      </g>
     </g>
    </g>
    <g id="ytick_5">
     <g id="line2d_21">
      <path d="M 51.827953 107.292559 
L 631.720887 107.292559 
" clip-path="url(#p9276ded0d6)" style="fill: none; stroke: #d8d1c5; stroke-opacity: 0.34; stroke-width: 0.85; stroke-linecap: square"/>
     </g>
     <g id="line2d_22">
      <g>
       <use xlink:href="#m5c1ed70f7e" x="51.827953" y="107.292559" style="fill: #32383a; stroke: #32383a; stroke-width: 0.8"/>
      </g>
     </g>
     <g id="text_12">
      <!-- 0.8 -->
      <g style="fill: #32383a" transform="translate(29.985219 111.489278) scale(0.105 -0.105)">
       <defs>
        <path id="MicrosoftYaHei-38" d="M 306 1350 
Q 306 1769 556 2122 
Q 806 2475 1200 2625 
Q 884 2803 700 3081 
Q 516 3359 516 3684 
Q 516 4028 692 4312 
Q 869 4597 1183 4759 
Q 1497 4922 1875 4922 
Q 2256 4922 2572 4761 
Q 2888 4600 3063 4315 
Q 3238 4031 3238 3684 
Q 3238 3366 3058 3086 
Q 2878 2806 2559 2625 
Q 2953 2472 3200 2119 
Q 3447 1766 3447 1350 
Q 3447 938 3250 611 
Q 3053 284 2690 103 
Q 2328 -78 1875 -78 
Q 1425 -78 1065 103 
Q 706 284 506 612 
Q 306 941 306 1350 
z
M 906 1378 
Q 906 947 1172 687 
Q 1438 428 1878 428 
Q 2309 428 2582 692 
Q 2856 956 2856 1378 
Q 2856 1778 2579 2051 
Q 2303 2325 1878 2325 
Q 1456 2325 1181 2058 
Q 906 1791 906 1378 
z
M 1081 3634 
Q 1081 3309 1312 3076 
Q 1544 2844 1878 2844 
Q 2206 2844 2445 3078 
Q 2684 3313 2684 3634 
Q 2684 3963 2454 4191 
Q 2225 4419 1878 4419 
Q 1534 4419 1307 4195 
Q 1081 3972 1081 3634 
z
" transform="scale(0.015625)"/>
       </defs>
       <use xlink:href="#MicrosoftYaHei-30"/>
       <use xlink:href="#MicrosoftYaHei-2e" x="58.642578"/>
       <use xlink:href="#MicrosoftYaHei-38" x="82.714844"/>
      </g>
     </g>
    </g>
    <g id="ytick_6">
     <g id="line2d_23">
      <path d="M 51.827953 43.344096 
L 631.720887 43.344096 
" clip-path="url(#p9276ded0d6)" style="fill: none; stroke: #d8d1c5; stroke-opacity: 0.34; stroke-width: 0.85; stroke-linecap: square"/>
     </g>
     <g id="line2d_24">
      <g>
       <use xlink:href="#m5c1ed70f7e" x="51.827953" y="43.344096" style="fill: #32383a; stroke: #32383a; stroke-width: 0.8"/>
      </g>
     </g>
     <g id="text_13">
      <!-- 1.0 -->
      <g style="fill: #32383a" transform="translate(29.985219 47.540815) scale(0.105 -0.105)">
       <use xlink:href="#MicrosoftYaHei-31"/>
       <use xlink:href="#MicrosoftYaHei-2e" x="58.642578"/>
       <use xlink:href="#MicrosoftYaHei-30" x="82.714844"/>
      </g>
     </g>
    </g>
    <g id="text_14">
     <!-- 平台 A 最终综合份额  $L_A$ -->
     <g transform="translate(16.952375 266.87383) rotate(-90) scale(0.122 -0.122)">
      <defs>
       <path id="MicrosoftYaHei-5e73" d="M 169 1934 
L 2938 1934 
L 2938 4547 
L 450 4547 
L 450 5028 
L 5975 5028 
L 5975 4547 
L 3463 4547 
L 3463 1934 
L 6250 1934 
L 6250 1453 
L 3463 1453 
L 3463 -847 
L 2938 -847 
L 2938 1453 
L 169 1453 
L 169 1934 
z
M 3950 2559 
Q 4638 3284 5188 4159 
L 5656 3859 
Q 4950 2891 4338 2234 
L 3950 2559 
z
M 769 3859 
L 1163 4134 
Q 1863 3316 2369 2553 
L 1925 2222 
Q 1444 3003 769 3859 
z
" transform="scale(0.015625)"/>
       <path id="MicrosoftYaHei-53f0" d="M 5431 2022 
L 5431 -816 
L 4919 -816 
L 4919 -403 
L 1481 -403 
L 1481 -816 
L 969 -816 
L 969 2022 
L 5431 2022 
z
M 4513 4503 
Q 5494 3591 6369 2634 
L 5925 2266 
Q 5675 2559 5419 2844 
Q 2613 2725 1131 2641 
Q 788 2616 469 2541 
L 263 3078 
Q 550 3184 781 3372 
Q 1850 4247 2738 5391 
L 3206 5103 
Q 2269 4003 1250 3147 
Q 3166 3206 5019 3284 
Q 4591 3750 4150 4191 
L 4513 4503 
z
M 4919 1559 
L 1481 1559 
L 1481 47 
L 4919 47 
L 4919 1559 
z
" transform="scale(0.015625)"/>
       <path id="MicrosoftYaHei-41" d="M 4428 0 
L 3738 0 
L 3244 1325 
L 1228 1325 
L 763 0 
L 72 0 
L 1916 4841 
L 2584 4841 
L 4428 0 
z
M 3050 1872 
L 2319 3884 
Q 2284 3981 2244 4222 
L 2228 4222 
Q 2194 4003 2150 3884 
L 1425 1872 
L 3050 1872 
z
" transform="scale(0.015625)"/>
       <path id="MicrosoftYaHei-6700" d="M 169 -28 
Q 475 3 781 38 
L 781 2416 
L 94 2416 
L 94 2791 
L 6288 2791 
L 6288 2416 
L 3025 2416 
L 3025 331 
Q 3325 375 3625 422 
Q 3619 309 3631 22 
Q 3338 -19 3025 -63 
L 3025 -859 
L 2600 -859 
L 2600 -125 
Q 1525 -278 281 -472 
L 169 -28 
z
M 1038 5053 
L 5363 5053 
L 5363 3047 
L 4925 3047 
L 4925 3191 
L 1475 3191 
L 1475 3047 
L 1038 3047 
L 1038 5053 
z
M 3338 1609 
L 3338 1972 
L 5819 1972 
L 5819 1609 
Q 5500 844 4981 278 
Q 5516 -113 6306 -316 
Q 6144 -553 6025 -753 
Q 5219 -488 4666 -34 
Q 4128 -516 3413 -822 
Q 3306 -634 3125 -428 
Q 3834 -156 4347 266 
Q 3825 825 3603 1609 
L 3338 1609 
z
M 1475 3553 
L 4925 3553 
L 4925 3953 
L 1475 3953 
L 1475 3553 
z
M 4925 4691 
L 1475 4691 
L 1475 4291 
L 4925 4291 
L 4925 4691 
z
M 5344 1609 
L 4025 1609 
Q 4222 994 4659 556 
Q 5094 1013 5344 1609 
z
M 2600 269 
L 2600 691 
L 1206 691 
L 1206 88 
Q 1913 172 2600 269 
z
M 1206 1916 
L 2600 1916 
L 2600 2416 
L 1206 2416 
L 1206 1916 
z
M 1206 1053 
L 2600 1053 
L 2600 1553 
L 1206 1553 
L 1206 1053 
z
" transform="scale(0.015625)"/>
       <path id="MicrosoftYaHei-7ec8" d="M 2156 3234 
Q 2944 4253 3356 5366 
L 3825 5209 
Q 3700 4925 3563 4653 
L 5906 4653 
L 5906 4209 
Q 5425 3378 4663 2750 
Q 5381 2259 6350 2097 
Q 6219 1797 6131 1566 
Q 5038 1875 4278 2456 
Q 3447 1878 2331 1503 
Q 2231 1734 2113 1941 
Q 3156 2238 3931 2756 
Q 3434 3228 3119 3847 
Q 2816 3350 2469 2903 
Q 2350 3041 2156 3234 
z
M 888 1528 
Q 1413 1603 2113 1709 
Q 2075 1466 2056 1241 
Q 1344 1141 319 978 
L 219 1434 
Q 594 1828 1163 2794 
Q 506 2753 219 2728 
L 100 3153 
Q 663 3897 1288 5366 
L 1763 5178 
Q 1156 3991 656 3191 
Q 1047 3200 1403 3209 
Q 1638 3625 1900 4122 
L 2369 3916 
Q 1463 2347 888 1528 
z
M 2625 109 
L 2819 547 
Q 3969 234 5675 -297 
L 5444 -791 
Q 3850 -222 2625 109 
z
M 5356 4234 
L 3372 4234 
Q 3750 3513 4303 3028 
Q 4938 3541 5356 4234 
z
M 88 66 
Q 1069 259 2250 547 
Q 2231 203 2231 78 
Q 1375 -109 225 -416 
L 88 66 
z
M 3338 1247 
L 3525 1666 
Q 4469 1384 5413 1047 
L 5206 553 
Q 4275 953 3338 1247 
z
" transform="scale(0.015625)"/>
       <path id="MicrosoftYaHei-7efc" d="M 881 1578 
Q 1550 1684 2100 1778 
Q 2063 1534 2044 1303 
Q 988 1159 306 1022 
L 194 1484 
Q 678 1988 1188 2756 
Q 581 2719 250 2691 
L 131 3116 
Q 813 4022 1394 5347 
L 1869 5159 
Q 1288 4041 694 3153 
Q 1091 3163 1453 3172 
Q 1691 3566 1938 4016 
L 2400 3784 
Q 1588 2484 881 1578 
z
M 2406 2016 
L 6275 2016 
L 6275 1603 
L 4638 1603 
L 4638 3 
Q 4638 -747 3888 -747 
Q 3631 -747 3213 -741 
Q 3181 -553 3119 -259 
Q 3469 -297 3756 -297 
Q 4163 -297 4163 134 
L 4163 1603 
L 2406 1603 
L 2406 2016 
z
M 2513 4528 
L 4166 4528 
Q 3931 4878 3713 5147 
L 4125 5397 
Q 4431 5041 4650 4716 
L 4347 4528 
L 6194 4528 
L 6194 3522 
L 5731 3522 
L 5731 4116 
L 2975 4116 
L 2975 3522 
L 2513 3522 
L 2513 4528 
z
M 2781 3241 
L 5913 3241 
L 5913 2828 
L 2781 2828 
L 2781 3241 
z
M 113 84 
Q 944 197 2175 428 
Q 2138 91 2131 -34 
Q 1425 -147 225 -391 
L 113 84 
z
M 3044 1284 
L 3500 1091 
Q 3081 203 2688 -428 
Q 2469 -309 2238 -197 
Q 2681 466 3044 1284 
z
M 5081 1059 
L 5506 1278 
Q 5931 641 6344 -134 
L 5888 -384 
Q 5469 441 5081 1059 
z
" transform="scale(0.015625)"/>
       <path id="MicrosoftYaHei-5408" d="M 1025 1909 
L 5381 1909 
L 5381 -866 
L 4881 -866 
L 4881 -447 
L 1525 -447 
L 1525 -878 
L 1025 -878 
L 1025 1909 
z
M 3700 5234 
L 3550 5053 
Q 4594 3697 6319 3009 
Q 6125 2734 5988 2509 
Q 5481 2753 5025 3059 
L 5025 2703 
L 1369 2703 
L 1369 3016 
Q 913 2716 394 2428 
Q 269 2641 81 2897 
Q 2013 3866 3000 5234 
L 3700 5234 
z
M 4881 1453 
L 1525 1453 
L 1525 -3 
L 4881 -3 
L 4881 1453 
z
M 3219 4691 
Q 2581 3872 1550 3147 
L 4894 3147 
Q 3944 3797 3219 4691 
z
" transform="scale(0.015625)"/>
       <path id="MicrosoftYaHei-4efd" d="M 2269 2653 
L 5394 2653 
Q 5388 2566 5300 366 
Q 5275 -709 4319 -722 
Q 3806 -722 3425 -703 
Q 3394 -416 3331 -184 
Q 3763 -241 4200 -253 
Q 4806 -297 4813 422 
Q 4863 1259 4888 2216 
L 3481 2216 
Q 3463 1222 3181 572 
Q 2844 -172 2019 -822 
Q 1856 -622 1656 -416 
Q 2450 203 2713 772 
Q 2969 1275 2997 2216 
L 2269 2216 
L 2269 2653 
z
M 75 2353 
Q 969 3534 1525 5284 
L 2013 5116 
Q 1709 4284 1350 3559 
L 1350 -809 
L 875 -809 
L 875 2691 
Q 588 2216 275 1797 
Q 181 2066 75 2353 
z
M 4006 5116 
L 4419 5291 
Q 5038 3703 6325 2972 
Q 6088 2697 5969 2516 
Q 4575 3472 4006 5116 
z
M 1588 2741 
Q 2563 3597 3163 5034 
L 3606 4866 
Q 3025 3409 1963 2397 
Q 1738 2628 1588 2741 
z
" transform="scale(0.015625)"/>
       <path id="MicrosoftYaHei-989d" d="M 863 2484 
L 1094 2834 
Q 1463 2653 1794 2491 
Q 2119 2809 2344 3203 
L 1125 3203 
Q 794 2659 419 2247 
Q 281 2397 125 2547 
Q 719 3172 1100 4072 
L 1513 3934 
Q 1425 3747 1331 3578 
L 2844 3578 
L 2844 3222 
Q 2588 2703 2194 2291 
Q 2738 2016 3194 1778 
L 2938 1372 
Q 2406 1678 1850 1978 
Q 1381 1597 763 1322 
L 2756 1322 
L 2756 -684 
L 2344 -684 
L 2344 -416 
L 1063 -416 
L 1063 -734 
L 650 -734 
L 650 1272 
Q 463 1197 269 1128 
Q 188 1297 63 1509 
Q 869 1766 1444 2191 
Q 1156 2334 863 2484 
z
M 3369 3728 
L 4281 3728 
L 4425 4516 
L 3244 4516 
L 3244 4941 
L 6231 4941 
L 6231 4516 
L 4906 4516 
L 4738 3728 
L 6038 3728 
L 6038 591 
L 5600 591 
L 5600 3303 
L 3806 3303 
L 3806 591 
L 3369 591 
L 3369 3728 
z
M 4481 2916 
L 4931 2916 
Q 4944 1322 4788 709 
Q 5688 78 6356 -453 
L 6044 -853 
Q 5438 -303 4619 291 
Q 4231 -416 3169 -916 
Q 3044 -734 2869 -516 
Q 4019 -3 4294 716 
Q 4519 1216 4481 2916 
z
M 250 4591 
L 1538 4591 
Q 1413 4872 1244 5172 
L 1650 5347 
Q 1881 4916 2031 4591 
L 3138 4591 
L 3138 3709 
L 2713 3709 
L 2713 4216 
L 675 4216 
L 675 3709 
L 250 3709 
L 250 4591 
z
M 2344 934 
L 1063 934 
L 1063 -28 
L 2344 -28 
L 2344 934 
z
" transform="scale(0.015625)"/>
       <path id="DejaVuSans-Oblique-4c" d="M 1075 4666 
L 1709 4666 
L 909 525 
L 3181 525 
L 3078 0 
L 172 0 
L 1075 4666 
z
" transform="scale(0.015625)"/>
       <path id="DejaVuSans-Oblique-41" d="M 2356 4666 
L 3072 4666 
L 3938 0 
L 3278 0 
L 3084 1197 
L 984 1197 
L 325 0 
L -341 0 
L 2356 4666 
z
M 2584 4044 
L 1275 1722 
L 2988 1722 
L 2584 4044 
z
" transform="scale(0.015625)"/>
      </defs>
      <use xlink:href="#MicrosoftYaHei-5e73" transform="translate(0 0.671875)"/>
      <use xlink:href="#MicrosoftYaHei-53f0" transform="translate(100 0.671875)"/>
      <use xlink:href="#MicrosoftYaHei-20" transform="translate(200 0.671875)"/>
      <use xlink:href="#MicrosoftYaHei-41" transform="translate(229.589844 0.671875)"/>
      <use xlink:href="#MicrosoftYaHei-20" transform="translate(299.951172 0.671875)"/>
      <use xlink:href="#MicrosoftYaHei-6700" transform="translate(329.541016 0.671875)"/>
      <use xlink:href="#MicrosoftYaHei-7ec8" transform="translate(429.541016 0.671875)"/>
      <use xlink:href="#MicrosoftYaHei-7efc" transform="translate(529.541016 0.671875)"/>
      <use xlink:href="#MicrosoftYaHei-5408" transform="translate(629.541016 0.671875)"/>
      <use xlink:href="#MicrosoftYaHei-4efd" transform="translate(729.541016 0.671875)"/>
      <use xlink:href="#MicrosoftYaHei-989d" transform="translate(829.541016 0.671875)"/>
      <use xlink:href="#MicrosoftYaHei-20" transform="translate(929.541016 0.671875)"/>
      <use xlink:href="#MicrosoftYaHei-20" transform="translate(959.130859 0.671875)"/>
      <use xlink:href="#DejaVuSans-Oblique-4c" transform="translate(988.720703 0.671875)"/>
      <use xlink:href="#DejaVuSans-Oblique-41" transform="translate(1044.433594 -15.734375) scale(0.7)"/>
     </g>
    </g>
   </g>
   <g id="line2d_25">
    <path d="M 51.827953 171.241022 
L 631.720887 171.241022 
" clip-path="url(#p9276ded0d6)" style="fill: none; stroke-dasharray: 4.6,4.6; stroke-dashoffset: 0; stroke: #687070; stroke-opacity: 0.7; stroke-width: 1.15"/>
   </g>
   <g id="line2d_26">
    <path d="M 51.827953 362.544407 
L 57.626882 362.486115 
L 63.425812 362.421395 
L 69.224741 362.349502 
L 75.02367 362.269596 
L 80.8226 362.180726 
L 86.621529 362.081815 
L 92.420459 361.971639 
L 98.219388 361.848801 
L 104.018317 361.711705 
L 109.817247 361.558516 
L 115.616176 361.387116 
L 121.415105 361.195047 
L 127.214035 360.979441 
L 133.012964 360.736928 
L 138.811893 360.463515 
L 144.610823 360.154434 
L 150.409752 359.803922 
L 156.208681 43.432208 
L 162.007611 43.423802 
L 167.80654 43.416192 
L 173.605469 43.409315 
L 179.404399 43.403096 
L 185.203328 43.397469 
L 191.002257 43.392389 
L 196.801187 43.38778 
L 202.600116 43.383618 
L 208.399045 43.379851 
L 214.197975 43.376444 
L 219.996904 43.373363 
L 225.795833 43.370589 
L 231.594763 43.36806 
L 237.393692 43.365773 
L 243.192621 43.363709 
L 248.991551 43.361842 
L 254.79048 43.360162 
L 260.589409 43.358625 
L 266.388339 43.357241 
L 272.187268 43.355989 
L 277.986197 43.354869 
L 283.785127 43.353844 
L 289.584056 43.352913 
L 295.382985 43.352068 
L 301.181915 43.35131 
L 306.980844 43.350623 
L 312.779773 43.350002 
L 318.578703 43.349441 
L 324.377632 43.348933 
L 330.176561 43.348479 
L 335.975491 43.348062 
L 341.77442 43.347685 
L 347.573349 43.347345 
L 353.372279 43.347042 
L 359.171208 43.346762 
L 364.970138 43.346506 
L 370.769067 43.346277 
L 376.567996 43.346068 
L 382.366926 43.345878 
L 388.165855 43.345714 
L 393.964784 43.345565 
L 399.763714 43.34543 
L 405.562643 43.345302 
L 411.361572 43.345191 
L 417.160502 43.345085 
L 422.959431 43.34499 
L 428.75836 43.344905 
L 434.55729 43.344843 
L 440.356219 43.344745 
L 446.155148 43.344691 
L 451.954078 43.344627 
L 457.753007 43.344574 
L 463.551936 43.344528 
L 469.350866 43.34449 
L 475.149795 43.344449 
L 480.948724 43.344413 
L 486.747654 43.344487 
L 492.546583 43.344449 
L 498.345512 43.344362 
L 504.144442 43.344474 
L 509.943371 43.344361 
L 515.7423 43.344356 
L 521.54123 43.344357 
L 527.340159 43.344383 
L 533.139088 43.344286 
L 538.938018 43.344378 
L 544.736947 43.344271 
L 550.535876 43.344319 
L 556.334806 43.344278 
L 562.133735 43.34426 
L 567.932664 43.34426 
L 573.731594 43.344251 
L 579.530523 43.344219 
L 585.329452 43.344227 
L 591.128382 43.344169 
L 596.927311 43.344206 
L 602.72624 43.344188 
L 608.52517 43.344153 
L 614.324099 43.344181 
L 620.123029 43.344171 
L 625.921958 43.344125 
L 631.720887 43.344131 
" clip-path="url(#p9276ded0d6)" style="fill: none; stroke: #2f9c5b; stroke-width: 2.8; stroke-linecap: round"/>
   </g>
   <g id="line2d_27">
    <path d="M 156.208681 363.086411 
L 156.208681 36.94925 
" clip-path="url(#p9276ded0d6)" style="fill: none; stroke-dasharray: 5.6,5.6; stroke-dashoffset: 0; stroke: #e58f3a; stroke-width: 1.4"/>
   </g>
   <g id="patch_4">
    <path d="M 51.827953 363.086411 
L 51.827953 36.94925 
" style="fill: none; stroke: #a9a197; stroke-width: 0.8; stroke-linejoin: miter; stroke-linecap: square"/>
   </g>
   <g id="patch_5">
    <path d="M 51.827953 363.086411 
L 631.720887 363.086411 
" style="fill: none; stroke: #a9a197; stroke-width: 0.8; stroke-linejoin: miter; stroke-linecap: square"/>
   </g>
   <g id="text_15">
    <!-- 逆袭阈值 -->
    <g style="fill: #b4671f" transform="translate(165.486968 142.867448) scale(0.107 -0.107)">
     <defs>
      <path id="MicrosoftYaHei-9006" d="M 5244 1209 
L 5244 1553 
L 4150 1553 
Q 3950 541 2606 -159 
Q 2431 72 2269 234 
Q 3438 841 3631 1553 
L 2313 1553 
L 2313 3366 
L 2781 3366 
L 2781 2003 
L 3725 2003 
Q 3775 2553 3769 3778 
L 1988 3778 
L 1988 4228 
L 3156 4228 
Q 2900 4578 2494 5034 
L 2863 5316 
Q 3225 4947 3581 4522 
L 3181 4228 
L 4319 4228 
Q 4750 4759 5069 5303 
L 5538 5028 
Q 5194 4591 4875 4228 
L 6100 4228 
L 6100 3778 
L 4256 3778 
Q 4275 2766 4225 2003 
L 5244 2003 
L 5244 3366 
L 5713 3366 
L 5713 1209 
L 5244 1209 
z
M 2700 -247 
Q 4475 -272 6319 -216 
Q 6306 -253 6113 -697 
Q 4475 -728 2669 -691 
Q 1569 -678 1088 22 
Q 800 -222 356 -778 
L 88 -247 
Q 481 109 863 434 
L 863 2616 
L 150 2616 
L 150 3072 
L 1350 3072 
L 1350 334 
Q 1800 -216 2700 -247 
z
M 725 5234 
Q 1200 4684 1650 4072 
L 1225 3747 
Q 788 4409 344 4953 
L 725 5234 
z
" transform="scale(0.015625)"/>
      <path id="MicrosoftYaHei-88ad" d="M 525 4622 
L 2406 4622 
Q 2494 4956 2525 5353 
L 3000 5291 
Q 2959 4931 2888 4622 
L 4525 4622 
Q 4266 4825 3931 5041 
L 4175 5341 
Q 4588 5109 4919 4859 
L 4728 4622 
L 6000 4622 
L 6000 4222 
L 3969 4222 
L 3969 3538 
Q 4641 3784 5175 4091 
L 5425 3722 
Q 4734 3369 3975 3091 
Q 4019 2784 4406 2784 
L 5194 2784 
Q 5619 2784 5675 3159 
Q 5719 3428 5750 3853 
Q 5950 3753 6188 3672 
Q 6131 3266 6081 3003 
Q 5969 2384 5300 2384 
L 4306 2384 
Q 3638 2384 3534 2938 
Q 2934 2741 2294 2591 
Q 2213 2809 2088 3022 
Q 2859 3178 3519 3384 
L 3519 4222 
L 2772 4222 
Q 2431 2991 506 2166 
Q 294 2478 213 2566 
Q 1950 3266 2272 4222 
L 525 4222 
L 525 4622 
z
M 3656 228 
Q 3638 -28 3638 -259 
Q 2850 -484 2338 -666 
Q 2113 -747 1888 -872 
L 1625 -491 
Q 1775 -359 1775 -28 
L 1775 434 
Q 1153 81 369 -216 
Q 256 -16 100 209 
Q 1556 666 2534 1497 
L 325 1497 
L 325 1897 
L 6088 1897 
L 6088 1497 
L 3503 1497 
Q 3756 1056 4138 728 
Q 4634 956 5475 1422 
L 5750 984 
Q 4975 672 4500 463 
Q 5225 6 6306 -141 
Q 6119 -391 5963 -609 
Q 3931 -209 3059 1397 
Q 2703 1034 2225 713 
L 2225 -209 
Q 2988 9 3656 228 
z
M 2719 2478 
L 3088 2684 
Q 3300 2397 3469 2122 
L 3081 1903 
Q 2931 2172 2719 2478 
z
" transform="scale(0.015625)"/>
      <path id="MicrosoftYaHei-9608" d="M 3163 703 
Q 3475 947 3731 1234 
Q 3500 1984 3419 3141 
L 1225 3141 
L 1225 3541 
L 3394 3541 
Q 3381 3891 3381 4284 
L 3813 4284 
Q 3819 3891 3838 3541 
L 5313 3541 
L 5313 3141 
L 3856 3141 
Q 3925 2266 4075 1659 
Q 4425 2153 4650 2753 
L 5075 2572 
Q 4725 1791 4231 1166 
Q 4344 872 4488 678 
Q 4706 434 4763 691 
Q 4819 984 4844 1266 
Q 5088 1159 5269 1122 
Q 5194 584 5131 316 
Q 5038 -59 4819 -59 
Q 4469 -59 4106 434 
Q 3994 584 3906 784 
Q 3656 516 3381 284 
Q 3281 528 3163 703 
z
M 2425 4491 
L 2425 4916 
L 5988 4916 
L 5988 -3 
Q 5988 -766 5181 -766 
Q 4819 -766 4356 -753 
Q 4300 -403 4256 -284 
Q 4769 -322 5088 -322 
Q 5544 -322 5544 97 
L 5544 4491 
L 2425 4491 
z
M 1425 2609 
L 3106 2609 
L 3106 909 
L 2700 909 
L 2700 1134 
L 1831 1134 
L 1831 847 
L 1425 847 
L 1425 2609 
z
M 431 4084 
L 875 4084 
L 875 -816 
L 431 -816 
L 431 4084 
z
M 1119 378 
Q 2169 466 3200 578 
Q 3206 347 3213 153 
Q 2256 59 1181 -47 
L 1119 378 
z
M 2700 2234 
L 1831 2234 
L 1831 1509 
L 2700 1509 
L 2700 2234 
z
M 800 4984 
L 1119 5278 
Q 1563 4872 1975 4422 
L 1613 4091 
Q 1213 4566 800 4984 
z
M 4038 4141 
L 4269 4428 
Q 4619 4184 4931 3934 
L 4663 3616 
Q 4444 3809 4038 4141 
z
" transform="scale(0.015625)"/>
      <path id="MicrosoftYaHei-503c" d="M 1619 -216 
L 2250 -216 
L 2250 3653 
L 3725 3653 
L 3725 4222 
L 1913 4222 
L 1913 4647 
L 3725 4647 
L 3725 5309 
L 4200 5309 
L 4200 4647 
L 6169 4647 
L 6169 4222 
L 4200 4222 
L 4200 3653 
L 5713 3653 
L 5713 -216 
L 6306 -216 
L 6306 -641 
L 1619 -641 
L 1619 -216 
z
M 69 2247 
Q 906 3497 1369 5278 
L 1831 5141 
Q 1581 4334 1288 3628 
L 1288 -816 
L 831 -816 
L 831 2666 
Q 563 2166 263 1734 
Q 175 1997 69 2247 
z
M 2713 -216 
L 5250 -216 
L 5250 353 
L 2713 353 
L 2713 -216 
z
M 5250 3241 
L 2713 3241 
L 2713 2678 
L 5250 2678 
L 5250 3241 
z
M 2713 1716 
L 5250 1716 
L 5250 2278 
L 2713 2278 
L 2713 1716 
z
M 2713 753 
L 5250 753 
L 5250 1316 
L 2713 1316 
L 2713 753 
z
" transform="scale(0.015625)"/>
     </defs>
     <use xlink:href="#MicrosoftYaHei-9006"/>
     <use xlink:href="#MicrosoftYaHei-88ad" x="100"/>
     <use xlink:href="#MicrosoftYaHei-9608" x="200"/>
     <use xlink:href="#MicrosoftYaHei-503c" x="300"/>
    </g>
    <!-- Δq*≈0.90 -->
    <g style="fill: #b4671f" transform="translate(165.486968 155.791376) scale(0.107 -0.107)">
     <defs>
      <path id="MicrosoftYaHei-2a" d="M 2663 3706 
L 1738 3525 
L 2384 2716 
L 1984 2441 
L 1466 3334 
L 941 2441 
L 541 2716 
L 1184 3525 
L 253 3706 
L 416 4156 
L 1297 3819 
L 1213 4841 
L 1716 4841 
L 1628 3819 
L 2509 4156 
L 2663 3706 
z
" transform="scale(0.015625)"/>
      <path id="MicrosoftYaHei-2248" d="M 4053 3256 
Q 4028 2750 3778 2472 
Q 3528 2194 3094 2194 
Q 2728 2194 2203 2550 
Q 1872 2778 1669 2778 
Q 1203 2778 1184 2191 
L 700 2191 
Q 722 2703 980 2978 
Q 1238 3253 1659 3253 
Q 2019 3253 2456 2959 
Q 2894 2663 3116 2663 
Q 3322 2663 3444 2823 
Q 3566 2984 3572 3256 
L 4053 3256 
z
M 4053 1853 
Q 4028 1347 3778 1067 
Q 3528 788 3094 788 
Q 2725 788 2203 1147 
Q 1878 1369 1669 1369 
Q 1203 1369 1184 784 
L 700 784 
Q 722 1294 980 1572 
Q 1238 1850 1659 1850 
Q 2022 1850 2456 1559 
Q 2906 1256 3116 1256 
Q 3319 1256 3441 1423 
Q 3563 1591 3572 1853 
L 4053 1853 
z
" transform="scale(0.015625)"/>
      <path id="MicrosoftYaHei-39" d="M 578 656 
Q 978 425 1441 425 
Q 2091 425 2448 937 
Q 2806 1450 2806 2394 
Q 2800 2388 2794 2394 
Q 2475 1788 1722 1788 
Q 1113 1788 713 2206 
Q 313 2625 313 3294 
Q 313 4006 750 4464 
Q 1188 4922 1884 4922 
Q 2606 4922 3012 4355 
Q 3419 3788 3419 2703 
Q 3419 1363 2894 641 
Q 2369 -81 1441 -81 
Q 931 -81 578 84 
L 578 656 
z
M 931 3372 
Q 931 2884 1181 2598 
Q 1431 2313 1872 2313 
Q 2253 2313 2512 2573 
Q 2772 2834 2772 3206 
Q 2772 3728 2514 4070 
Q 2256 4413 1834 4413 
Q 1444 4413 1187 4116 
Q 931 3819 931 3372 
z
" transform="scale(0.015625)"/>
     </defs>
     <use xlink:href="#MicrosoftYaHei-394"/>
     <use xlink:href="#MicrosoftYaHei-71" x="70.361328"/>
     <use xlink:href="#MicrosoftYaHei-2a" x="134.326172"/>
     <use xlink:href="#MicrosoftYaHei-2248" x="179.833984"/>
     <use xlink:href="#MicrosoftYaHei-30" x="254.101562"/>
     <use xlink:href="#MicrosoftYaHei-2e" x="312.744141"/>
     <use xlink:href="#MicrosoftYaHei-39" x="336.816406"/>
     <use xlink:href="#MicrosoftYaHei-30" x="395.458984"/>
    </g>
   </g>
   <g id="text_16">
    <!-- 弱势平台锁定失败 -->
    <g style="fill: #a94844" transform="translate(69.224741 337.507025) scale(0.105 -0.105)">
     <defs>
      <path id="MicrosoftYaHei-5f31" d="M 3963 3353 
L 3813 2559 
L 6044 2559 
Q 5994 1072 5938 241 
Q 5894 -753 4938 -753 
Q 4456 -753 4075 -734 
Q 4044 -497 3981 -216 
Q 4481 -278 4894 -278 
Q 5431 -278 5463 259 
Q 5519 1034 5550 2128 
L 3281 2128 
L 3594 3784 
L 5388 3784 
L 5388 4559 
L 3400 4559 
L 3400 4991 
L 5856 4991 
L 5856 3147 
L 5388 3147 
L 5388 3353 
L 3963 3353 
z
M 1025 3353 
L 881 2559 
L 2881 2559 
Q 2831 1059 2781 216 
Q 2738 -759 1763 -759 
Q 1381 -759 913 -741 
Q 881 -453 819 -222 
Q 1344 -284 1725 -284 
Q 2281 -284 2306 284 
Q 2369 1066 2394 2128 
L 356 2128 
L 656 3784 
L 2388 3784 
L 2388 4559 
L 375 4559 
L 375 4991 
L 2856 4991 
L 2856 3147 
L 2388 3147 
L 2388 3353 
L 1025 3353 
z
M 3206 528 
Q 4269 778 5231 1066 
Q 5219 747 5213 566 
Q 4419 359 3281 22 
L 3206 528 
z
M 156 503 
Q 1006 659 2144 947 
Q 2125 641 2113 466 
Q 1194 259 213 3 
L 156 503 
z
M 3563 1984 
Q 4094 1784 4756 1491 
Q 4625 1272 4519 1072 
Q 3994 1334 3344 1616 
L 3563 1984 
z
M 731 1984 
Q 1250 1772 1863 1472 
Q 1713 1228 1606 1047 
Q 1038 1372 494 1616 
L 731 1984 
z
" transform="scale(0.015625)"/>
      <path id="MicrosoftYaHei-9501" d="M 2513 3491 
L 4013 3491 
L 4013 5266 
L 4488 5266 
L 4488 3491 
L 6000 3491 
L 6000 553 
L 5525 553 
L 5525 3053 
L 2988 3053 
L 2988 553 
L 2513 553 
L 2513 3491 
z
M 2263 541 
Q 2269 241 2294 22 
Q 1863 -191 1375 -484 
Q 1263 -547 1113 -697 
L 781 -266 
Q 981 -78 981 203 
L 981 1559 
L 144 1559 
L 144 1991 
L 981 1991 
L 981 2834 
L 563 2834 
L 563 3266 
L 2169 3266 
L 2169 2834 
L 1438 2834 
L 1438 1991 
L 2263 1991 
L 2263 1559 
L 1438 1559 
L 1438 78 
Q 1831 291 2263 541 
z
M 4019 2716 
L 4500 2716 
Q 4506 1191 4369 816 
Q 5381 197 6288 -441 
L 5950 -859 
Q 5081 -178 4188 391 
Q 3638 -516 2238 -928 
Q 2094 -716 1919 -484 
Q 3931 3 3994 1522 
Q 4019 1928 4019 2716 
z
M 69 3384 
Q 663 4228 1038 5316 
L 1506 5159 
Q 1338 4741 1144 4353 
L 2275 4353 
L 2275 3922 
L 919 3922 
Q 644 3416 331 2959 
Q 213 3184 69 3384 
z
M 5000 3884 
Q 5444 4441 5775 4978 
L 6219 4722 
Q 5850 4184 5388 3609 
L 5000 3884 
z
M 2294 4722 
L 2675 4959 
Q 3063 4478 3463 3903 
L 3031 3628 
Q 2675 4222 2294 4722 
z
" transform="scale(0.015625)"/>
      <path id="MicrosoftYaHei-5b9a" d="M 81 -384 
Q 1119 509 1281 2241 
L 1806 2159 
Q 1731 1581 1578 1081 
Q 2063 50 3081 -103 
L 3081 2647 
L 225 2647 
L 225 3116 
L 6163 3116 
L 6163 2647 
L 3600 2647 
L 3600 1634 
L 5775 1634 
L 5775 1172 
L 3600 1172 
L 3600 -138 
Q 4844 -169 6306 -116 
Q 6200 -359 6125 -634 
Q 4594 -653 3450 -616 
Q 2041 -616 1378 528 
Q 1022 -300 413 -872 
Q 269 -628 81 -384 
z
M 450 4566 
L 3116 4566 
Q 2931 4834 2725 5091 
L 3200 5347 
Q 3444 5066 3731 4716 
L 3450 4566 
L 5981 4566 
L 5981 3378 
L 5488 3378 
L 5488 4097 
L 944 4097 
L 944 3384 
L 450 3384 
L 450 4566 
z
" transform="scale(0.015625)"/>
      <path id="MicrosoftYaHei-5931" d="M 100 -391 
Q 2419 394 2872 1872 
L 188 1872 
L 188 2347 
L 2966 2347 
Q 3003 2778 3022 3609 
L 1375 3609 
Q 1094 3094 738 2634 
Q 594 2766 344 2934 
Q 1088 3853 1444 5059 
L 1931 4909 
Q 1791 4481 1613 4084 
L 3034 4084 
Q 3041 4628 3044 5309 
L 3575 5309 
Q 3563 4638 3550 4084 
L 5888 4084 
L 5888 3609 
L 3538 3609 
Q 3519 2850 3497 2347 
L 6231 2347 
L 6231 1872 
L 3544 1872 
Q 4138 300 6319 -272 
Q 6119 -534 5944 -778 
Q 3844 -28 3250 1503 
Q 2756 72 488 -866 
Q 356 -697 100 -391 
z
" transform="scale(0.015625)"/>
      <path id="MicrosoftYaHei-8d25" d="M 2831 2909 
Q 3456 4091 3769 5322 
L 4238 5178 
Q 4075 4672 3900 4209 
L 6213 4209 
L 6213 3759 
L 5606 3759 
Q 5506 1659 4769 666 
Q 5288 28 6338 -309 
Q 6188 -497 5981 -816 
Q 5000 -366 4463 278 
Q 3913 -303 2856 -878 
Q 2719 -659 2531 -459 
Q 3594 66 4169 691 
Q 3619 1591 3481 3184 
Q 3306 2803 3125 2459 
Q 2963 2741 2831 2909 
z
M 400 4997 
L 2800 4997 
L 2800 1078 
L 2350 1078 
L 2350 4547 
L 850 4547 
L 850 1041 
L 400 1041 
L 400 4997 
z
M 1375 4022 
L 1825 4022 
L 1825 2691 
Q 1825 1666 1700 1028 
L 1900 1191 
Q 2500 578 2906 84 
L 2506 -216 
Q 2069 359 1650 809 
Q 1419 -91 444 -809 
Q 294 -609 94 -397 
Q 863 97 1119 697 
Q 1375 1266 1375 2509 
L 1375 4022 
z
M 4475 1091 
Q 5044 1991 5119 3759 
L 3838 3759 
Q 3963 1984 4475 1091 
z
" transform="scale(0.015625)"/>
     </defs>
     <use xlink:href="#MicrosoftYaHei-5f31"/>
     <use xlink:href="#MicrosoftYaHei-52bf" x="100"/>
     <use xlink:href="#MicrosoftYaHei-5e73" x="200"/>
     <use xlink:href="#MicrosoftYaHei-53f0" x="300"/>
     <use xlink:href="#MicrosoftYaHei-9501" x="400"/>
     <use xlink:href="#MicrosoftYaHei-5b9a" x="500"/>
     <use xlink:href="#MicrosoftYaHei-5931" x="600"/>
     <use xlink:href="#MicrosoftYaHei-8d25" x="700"/>
    </g>
   </g>
   <g id="text_17">
    <!-- 达到反转标准 -->
    <g style="fill: #247b46" transform="translate(425.353007 75.063308) scale(0.108 -0.108)">
     <defs>
      <path id="MicrosoftYaHei-8fbe" d="M 2719 -241 
Q 4450 -259 6319 -216 
Q 6213 -466 6113 -697 
Q 4400 -722 2638 -691 
Q 1594 -678 1088 22 
Q 906 -122 356 -778 
L 88 -247 
Q 475 103 863 434 
L 863 2616 
L 150 2616 
L 150 3072 
L 1350 3072 
L 1350 341 
Q 1806 -216 2719 -241 
z
M 1875 3791 
L 3600 3791 
L 3600 5266 
L 4100 5266 
L 4100 3791 
L 6050 3791 
L 6050 3334 
L 4088 3334 
Q 4063 2878 3963 2472 
Q 5044 1603 6006 616 
L 5631 197 
Q 4788 1153 3825 2022 
Q 3363 778 2081 72 
Q 1913 303 1731 484 
Q 3450 1403 3588 3334 
L 1875 3334 
L 1875 3791 
z
M 731 5241 
Q 1281 4584 1681 4034 
L 1244 3722 
Q 831 4347 344 4959 
L 731 5241 
z
" transform="scale(0.015625)"/>
      <path id="MicrosoftYaHei-5230" d="M 2856 4122 
Q 3356 3384 3794 2584 
Q 3556 2472 3313 2334 
Q 3203 2566 3088 2791 
Q 1741 2659 531 2534 
L 306 3053 
Q 669 3247 931 3672 
Q 1172 4034 1403 4484 
L 238 4484 
L 238 4947 
L 3825 4947 
L 3825 4484 
L 1994 4484 
Q 1528 3694 1050 3047 
Q 1941 3113 2863 3209 
Q 2656 3569 2431 3909 
L 2856 4122 
z
M 281 1734 
L 1750 1734 
L 1750 2509 
L 2250 2509 
L 2250 1734 
L 3681 1734 
L 3681 1272 
L 2250 1272 
L 2250 172 
Q 2988 266 3769 372 
Q 3769 153 3794 -116 
Q 2025 -334 238 -597 
L 94 -72 
Q 891 9 1750 113 
L 1750 1272 
L 281 1272 
L 281 1734 
z
M 5519 5322 
L 6038 5322 
L 6038 34 
Q 6038 -747 5281 -747 
Q 5025 -747 4369 -741 
Q 4331 -484 4275 -178 
Q 4825 -228 5125 -228 
Q 5519 -234 5519 178 
L 5519 5322 
z
M 4163 4647 
L 4669 4647 
L 4669 666 
L 4163 666 
L 4163 4647 
z
" transform="scale(0.015625)"/>
      <path id="MicrosoftYaHei-53cd" d="M 881 4884 
Q 3369 4903 5738 5191 
L 5919 4691 
Q 3750 4503 1369 4434 
L 1369 3372 
L 5638 3372 
L 5638 2909 
Q 5125 1525 4100 591 
Q 5019 -25 6331 -247 
Q 6106 -534 5938 -803 
Q 4616 -422 3697 253 
Q 2738 -475 1406 -878 
Q 1263 -659 1063 -397 
Q 2366 -44 3278 597 
Q 2256 1525 1859 2909 
L 1369 2909 
L 1369 2553 
Q 1369 334 413 -853 
Q 250 -653 63 -453 
Q 881 559 881 2553 
L 881 4884 
z
M 5050 2909 
L 2366 2909 
Q 2794 1678 3681 909 
Q 4622 1722 5050 2909 
z
" transform="scale(0.015625)"/>
      <path id="MicrosoftYaHei-8f6c" d="M 3125 584 
L 3406 959 
Q 3925 634 4431 303 
L 5400 1428 
L 3244 1428 
L 3244 1859 
Q 3363 2238 3481 2666 
L 2769 2666 
L 2769 3091 
L 3600 3091 
Q 3703 3484 3809 3916 
L 3063 3916 
L 3063 4341 
L 3913 4341 
Q 4022 4800 4131 5297 
L 4613 5297 
Q 4506 4806 4394 4341 
L 6075 4341 
L 6075 3916 
L 4294 3916 
Q 4188 3491 4084 3091 
L 6300 3091 
L 6300 2666 
L 3969 2666 
Q 3853 2247 3738 1853 
L 6006 1853 
L 6006 1409 
L 4819 50 
Q 5191 -197 5556 -447 
L 5231 -859 
Q 4219 -103 3125 584 
z
M 744 2303 
L 1506 2303 
L 1506 3534 
L 1969 3534 
L 1969 2303 
L 2813 2303 
L 2813 1878 
L 1969 1878 
L 1969 1034 
Q 2441 1100 2944 1172 
Q 2919 953 2900 722 
Q 2431 653 1969 584 
L 1969 -841 
L 1506 -841 
L 1506 516 
Q 825 413 150 309 
L 81 791 
Q 756 872 1506 972 
L 1506 1878 
L 225 1878 
L 225 2297 
Q 553 2994 844 3922 
L 156 3922 
L 156 4347 
L 972 4347 
Q 1109 4819 1238 5347 
L 1750 5247 
Q 1609 4788 1466 4347 
L 2813 4347 
L 2813 3922 
L 1325 3922 
Q 1044 3084 744 2303 
z
" transform="scale(0.015625)"/>
      <path id="MicrosoftYaHei-6807" d="M 75 1409 
Q 769 2478 1025 3647 
L 119 3647 
L 119 4072 
L 1069 4072 
L 1069 5297 
L 1506 5297 
L 1506 4072 
L 2356 4072 
L 2356 3647 
L 1506 3647 
L 1506 2541 
L 1775 2822 
Q 2175 2478 2481 2159 
L 2150 1816 
Q 1850 2156 1506 2503 
L 1506 -797 
L 1069 -797 
L 1069 2588 
Q 738 1513 281 859 
Q 194 1128 75 1409 
z
M 2350 3097 
L 6250 3097 
L 6250 2659 
L 4525 2659 
L 4525 47 
Q 4525 -734 3806 -734 
Q 3469 -741 2975 -728 
Q 2944 -503 2888 -209 
Q 3319 -259 3675 -259 
Q 4050 -259 4050 203 
L 4050 2659 
L 2350 2659 
L 2350 3097 
z
M 2638 4928 
L 5963 4928 
L 5963 4491 
L 2638 4491 
L 2638 4928 
z
M 4938 1853 
L 5381 2066 
Q 5975 928 6369 72 
L 5869 -147 
Q 5463 822 4938 1853 
z
M 2931 2066 
L 3400 1878 
Q 2888 734 2381 -153 
Q 2188 -41 1925 66 
Q 2425 872 2931 2066 
z
" transform="scale(0.015625)"/>
      <path id="MicrosoftYaHei-51c6" d="M 1413 2766 
Q 2313 3866 2869 5334 
L 3331 5172 
Q 3128 4694 2906 4253 
L 6194 4253 
L 6194 3822 
L 4675 3822 
L 4675 2891 
L 6025 2891 
L 6025 2459 
L 4675 2459 
L 4675 1528 
L 6038 1528 
L 6038 1097 
L 4675 1097 
L 4675 78 
L 6275 78 
L 6275 -341 
L 2769 -341 
L 2769 -841 
L 2281 -841 
L 2281 3131 
Q 2034 2738 1769 2384 
Q 1631 2578 1413 2766 
z
M 2769 78 
L 4188 78 
L 4188 1097 
L 2769 1097 
L 2769 78 
z
M 1081 2422 
Q 1325 2291 1556 2209 
Q 1113 916 681 -372 
L 169 -141 
Q 650 1003 1081 2422 
z
M 2769 1528 
L 4188 1528 
L 4188 2459 
L 2769 2459 
L 2769 1528 
z
M 2769 2891 
L 4188 2891 
L 4188 3822 
L 2769 3822 
L 2769 2891 
z
M 531 4991 
Q 1050 4384 1581 3709 
Q 1538 3678 1150 3341 
Q 681 3997 138 4672 
L 531 4991 
z
M 3919 5116 
L 4325 5372 
Q 4569 5072 4881 4622 
L 4450 4334 
Q 4156 4784 3919 5116 
z
" transform="scale(0.015625)"/>
     </defs>
     <use xlink:href="#MicrosoftYaHei-8fbe"/>
     <use xlink:href="#MicrosoftYaHei-5230" x="100"/>
     <use xlink:href="#MicrosoftYaHei-53cd" x="200"/>
     <use xlink:href="#MicrosoftYaHei-8f6c" x="300"/>
     <use xlink:href="#MicrosoftYaHei-6807" x="400"/>
     <use xlink:href="#MicrosoftYaHei-51c6" x="500"/>
    </g>
    <!-- $L_A&gt;0.6$ -->
    <g style="fill: #247b46" transform="translate(436.747007 88.10802) scale(0.108 -0.108)">
     <defs>
      <path id="DejaVuSans-3e" d="M 678 3150 
L 678 3719 
L 4684 2266 
L 4684 1747 
L 678 294 
L 678 863 
L 3897 2003 
L 678 3150 
z
" transform="scale(0.015625)"/>
      <path id="DejaVuSans-30" d="M 2034 4250 
Q 1547 4250 1301 3770 
Q 1056 3291 1056 2328 
Q 1056 1369 1301 889 
Q 1547 409 2034 409 
Q 2525 409 2770 889 
Q 3016 1369 3016 2328 
Q 3016 3291 2770 3770 
Q 2525 4250 2034 4250 
z
M 2034 4750 
Q 2819 4750 3233 4129 
Q 3647 3509 3647 2328 
Q 3647 1150 3233 529 
Q 2819 -91 2034 -91 
Q 1250 -91 836 529 
Q 422 1150 422 2328 
Q 422 3509 836 4129 
Q 1250 4750 2034 4750 
z
" transform="scale(0.015625)"/>
      <path id="DejaVuSans-2e" d="M 684 794 
L 1344 794 
L 1344 0 
L 684 0 
L 684 794 
z
" transform="scale(0.015625)"/>
      <path id="DejaVuSans-36" d="M 2113 2584 
Q 1688 2584 1439 2293 
Q 1191 2003 1191 1497 
Q 1191 994 1439 701 
Q 1688 409 2113 409 
Q 2538 409 2786 701 
Q 3034 994 3034 1497 
Q 3034 2003 2786 2293 
Q 2538 2584 2113 2584 
z
M 3366 4563 
L 3366 3988 
Q 3128 4100 2886 4159 
Q 2644 4219 2406 4219 
Q 1781 4219 1451 3797 
Q 1122 3375 1075 2522 
Q 1259 2794 1537 2939 
Q 1816 3084 2150 3084 
Q 2853 3084 3261 2657 
Q 3669 2231 3669 1497 
Q 3669 778 3244 343 
Q 2819 -91 2113 -91 
Q 1303 -91 875 529 
Q 447 1150 447 2328 
Q 447 3434 972 4092 
Q 1497 4750 2381 4750 
Q 2619 4750 2861 4703 
Q 3103 4656 3366 4563 
z
" transform="scale(0.015625)"/>
     </defs>
     <use xlink:href="#DejaVuSans-Oblique-4c" transform="translate(0 0.78125)"/>
     <use xlink:href="#DejaVuSans-Oblique-41" transform="translate(55.712891 -15.625) scale(0.7)"/>
     <use xlink:href="#DejaVuSans-3e" transform="translate(125.81543 0.78125)"/>
     <use xlink:href="#DejaVuSans-30" transform="translate(229.086914 0.78125)"/>
     <use xlink:href="#DejaVuSans-2e" transform="translate(292.709961 0.78125)"/>
     <use xlink:href="#DejaVuSans-36" transform="translate(324.49707 0.78125)"/>
    </g>
   </g>
   <g id="text_18">
    <!-- 实验 4：服务质量优势与弱势平台逆袭阈值 -->
    <g transform="translate(179.109451 20.94925) scale(0.172 -0.172)">
     <defs>
      <path id="MicrosoftYaHei-Bold-5b9e" d="M 4219 3716 
Q 4181 2422 4056 1653 
L 6238 1653 
L 6238 878 
L 3863 878 
Q 3850 841 3813 766 
Q 5019 372 6206 -66 
L 5881 -847 
Q 4619 -316 3369 153 
Q 2550 -616 863 -916 
Q 556 -384 331 -78 
Q 2338 209 2894 878 
L 169 878 
L 169 1653 
L 2144 1653 
Q 1481 2053 931 2328 
L 1319 2934 
Q 1894 2659 2638 2247 
L 2244 1653 
L 3175 1653 
Q 3331 2453 3350 3716 
L 4219 3716 
z
M 300 3078 
L 300 4703 
L 2819 4703 
Q 2700 5009 2606 5228 
L 3675 5341 
Q 3769 5084 3888 4703 
L 6094 4703 
L 6094 3078 
L 5225 3078 
L 5225 3953 
L 1169 3953 
L 1169 3078 
L 300 3078 
z
M 1813 3772 
Q 2469 3484 3163 3134 
L 2769 2497 
Q 2031 2909 1450 3184 
L 1813 3772 
z
" transform="scale(0.015625)"/>
      <path id="MicrosoftYaHei-Bold-9a8c" d="M 1138 4053 
L 969 2491 
L 1419 2491 
L 1563 4241 
L 200 4241 
L 200 4991 
L 2369 4991 
L 2163 2491 
L 2525 2491 
Q 2463 691 2413 203 
Q 2369 -553 1838 -672 
Q 1581 -709 644 -709 
Q 588 -253 519 134 
Q 906 91 1350 78 
Q 1669 78 1694 378 
Q 1731 791 1763 1741 
L 181 1741 
L 400 4053 
L 1138 4053 
z
M 5544 2647 
L 3163 2647 
L 3163 2997 
Q 2944 2797 2706 2603 
Q 2525 2991 2300 3391 
Q 3313 4134 3925 5278 
L 4875 5278 
L 4738 5053 
Q 5469 3984 6381 3466 
Q 6163 3116 5950 2691 
Q 5738 2828 5544 2984 
L 5544 2647 
z
M 2556 116 
L 4694 116 
Q 5063 1253 5250 2303 
L 6025 2103 
Q 5775 1141 5438 116 
L 6213 116 
L 6213 -634 
L 2556 -634 
L 2556 116 
z
M 3263 2172 
Q 3569 1397 3856 503 
L 3175 259 
Q 2981 978 2625 1934 
L 3263 2172 
z
M 4425 2428 
Q 4644 1584 4806 753 
L 4113 584 
Q 3988 1366 3763 2278 
L 4425 2428 
z
M 75 1216 
Q 763 1278 1525 1378 
Q 1531 984 1538 628 
Q 838 541 175 428 
L 75 1216 
z
M 4300 4347 
Q 4013 3897 3544 3384 
L 5113 3384 
Q 4663 3859 4300 4347 
z
" transform="scale(0.015625)"/>
      <path id="MicrosoftYaHei-Bold-20" transform="scale(0.015625)"/>
      <path id="MicrosoftYaHei-Bold-34" d="M 3184 4841 
L 3184 1766 
L 3869 1766 
L 3869 1031 
L 3184 1031 
L 3184 0 
L 2266 0 
L 2266 1031 
L 103 1031 
L 103 1772 
Q 775 2522 1362 3359 
Q 1950 4197 2250 4841 
L 3184 4841 
z
M 997 1766 
L 2266 1766 
L 2266 3541 
Q 2116 3259 1836 2859 
Q 1556 2459 997 1766 
z
" transform="scale(0.015625)"/>
      <path id="MicrosoftYaHei-Bold-ff1a" d="M 1594 3506 
Q 1831 3506 2000 3354 
Q 2169 3203 2169 2981 
Q 2169 2766 2003 2614 
Q 1838 2463 1594 2463 
Q 1353 2463 1189 2616 
Q 1025 2769 1025 2981 
Q 1025 3200 1192 3353 
Q 1359 3506 1594 3506 
z
M 1594 959 
Q 1831 959 2000 806 
Q 2169 653 2169 434 
Q 2169 222 2000 69 
Q 1831 -84 1594 -84 
Q 1356 -84 1190 69 
Q 1025 222 1025 434 
Q 1025 653 1190 806 
Q 1356 959 1594 959 
z
" transform="scale(0.015625)"/>
      <path id="MicrosoftYaHei-Bold-670d" d="M 6144 2841 
L 6144 2122 
Q 5900 1228 5441 534 
Q 5825 231 6319 34 
Q 6069 -322 5794 -803 
Q 5303 -522 4903 -134 
Q 4509 -541 4013 -853 
Q 3847 -522 3638 -200 
L 3638 -809 
L 2838 -809 
L 2838 5078 
L 6063 5078 
Q 6063 4119 6002 3826 
Q 5941 3534 5781 3367 
Q 5622 3200 5400 3154 
Q 5178 3109 4150 3122 
Q 4094 3491 3988 3884 
Q 4528 3847 4788 3847 
Q 4966 3847 5073 3923 
Q 5181 4000 5181 4341 
L 3638 4341 
L 3638 2841 
L 6144 2841 
z
M 4381 2059 
Q 4566 1541 4863 1138 
Q 5147 1566 5313 2109 
L 3638 2109 
L 3638 44 
Q 4028 250 4338 528 
Q 3950 1078 3688 1772 
L 4381 2059 
z
M 663 -872 
Q 400 -472 88 -159 
Q 322 334 395 946 
Q 469 1559 469 2941 
L 469 5072 
L 2494 5072 
L 2494 22 
Q 2494 -328 2309 -543 
Q 2125 -759 1294 -772 
Q 1213 -316 1075 78 
Q 1281 47 1456 47 
Q 1756 47 1756 409 
L 1756 1184 
L 1188 1184 
Q 1144 -181 663 -872 
z
M 1756 4272 
L 1219 4272 
L 1219 3472 
L 1756 3472 
L 1756 4272 
z
M 1213 1928 
L 1756 1928 
L 1756 2728 
L 1219 2728 
Q 1219 2294 1213 1928 
z
" transform="scale(0.015625)"/>
      <path id="MicrosoftYaHei-Bold-52a1" d="M 5775 4797 
L 5775 4122 
Q 5175 3553 4331 3116 
Q 5219 2919 6300 2897 
Q 6106 2434 5963 2066 
Q 4363 2216 3216 2641 
Q 2006 2213 438 1984 
Q 306 2316 100 2766 
Q 1266 2875 2213 3113 
Q 1772 3378 1434 3700 
Q 1069 3403 656 3147 
Q 444 3434 150 3778 
Q 1363 4472 1956 5328 
L 2900 5328 
Q 2722 5053 2519 4797 
L 5775 4797 
z
M 3259 3444 
Q 3981 3722 4525 4103 
L 2091 4103 
Q 2603 3709 3259 3444 
z
M 2363 2303 
L 3256 2303 
Q 3225 2003 3172 1716 
L 5813 1716 
L 5706 291 
Q 5675 -66 5497 -297 
Q 5319 -528 5009 -639 
Q 4700 -750 3797 -750 
Q 3484 -750 3138 -734 
Q 3081 -366 2938 109 
Q 3628 53 4144 53 
Q 4413 53 4563 134 
Q 4713 216 4748 362 
Q 4784 509 4806 959 
L 2981 959 
Q 2503 -359 681 -859 
Q 438 -528 94 -141 
Q 1531 203 2000 959 
L 313 959 
L 313 1716 
L 2266 1716 
Q 2325 1991 2363 2303 
z
" transform="scale(0.015625)"/>
      <path id="MicrosoftYaHei-Bold-8d28" d="M 1706 3847 
L 3400 3847 
L 3400 4313 
Q 2384 4256 1475 4228 
L 1475 2309 
Q 1475 191 781 -853 
Q 519 -578 81 -209 
Q 625 684 625 2347 
L 625 5016 
Q 3150 4997 5763 5266 
L 6150 4497 
L 4256 4363 
L 4256 3847 
L 6038 3847 
L 6038 3141 
L 4256 3141 
L 4256 2716 
L 5825 2716 
L 5825 541 
L 5013 541 
L 5013 2009 
L 2700 2009 
L 2700 541 
L 1888 541 
L 1888 2716 
L 3400 2716 
L 3400 3141 
L 1706 3141 
L 1706 3847 
z
M 3488 1778 
L 4363 1778 
Q 4347 1203 4197 772 
Q 5091 431 6275 -84 
L 5769 -834 
Q 4819 -297 3869 166 
Q 3269 -522 1756 -859 
Q 1538 -428 1331 -128 
Q 2506 119 2979 478 
Q 3453 838 3488 1778 
z
" transform="scale(0.015625)"/>
      <path id="MicrosoftYaHei-Bold-91cf" d="M 725 5103 
L 5675 5103 
L 5675 3416 
L 725 3416 
L 725 5103 
z
M 4825 4666 
L 1575 4666 
L 1575 4447 
L 4825 4447 
L 4825 4666 
z
M 4825 3853 
L 4825 4072 
L 1575 4072 
L 1575 3853 
L 4825 3853 
z
M 138 3209 
L 6288 3209 
L 6288 2747 
L 138 2747 
L 138 3209 
z
M 113 -184 
L 2781 -184 
L 2781 53 
L 506 53 
L 506 491 
L 2781 491 
L 2781 716 
L 713 716 
L 713 2534 
L 5681 2534 
L 5681 716 
L 3606 716 
L 3606 491 
L 5925 491 
L 5925 53 
L 3606 53 
L 3606 -184 
L 6300 -184 
L 6300 -647 
L 113 -647 
L 113 -184 
z
M 4881 2097 
L 3606 2097 
L 3606 1816 
L 4881 1816 
L 4881 2097 
z
M 1513 1816 
L 2781 1816 
L 2781 2097 
L 1513 2097 
L 1513 1816 
z
M 4881 1153 
L 4881 1434 
L 3606 1434 
L 3606 1153 
L 4881 1153 
z
M 1513 1153 
L 2781 1153 
L 2781 1434 
L 1513 1434 
L 1513 1153 
z
" transform="scale(0.015625)"/>
      <path id="MicrosoftYaHei-Bold-4f18" d="M 1406 5334 
L 2269 5084 
Q 1981 4238 1600 3491 
L 1600 0 
Q 2728 944 2850 2897 
L 1825 2897 
L 1825 3716 
L 2866 3716 
Q 2881 4513 2881 5303 
L 3719 5303 
Q 3719 5091 3700 3716 
L 6188 3716 
L 6188 2897 
L 4806 2897 
L 4806 472 
Q 4806 178 5031 178 
L 5150 178 
Q 5328 178 5372 301 
Q 5416 425 5506 1378 
Q 5881 1203 6288 1053 
Q 6191 291 6119 -23 
Q 6047 -338 5830 -470 
Q 5613 -603 5288 -603 
L 4756 -603 
Q 3969 -603 3969 266 
L 3969 2897 
L 3706 2897 
Q 3634 475 2194 -791 
Q 1875 -359 1600 -50 
L 1600 -797 
L 763 -797 
L 763 2131 
Q 547 1838 313 1566 
Q 219 2103 81 2697 
Q 844 3634 1406 5334 
z
M 4713 5278 
Q 5319 4922 5831 4503 
L 5300 3878 
Q 5019 4116 4231 4722 
L 4713 5278 
z
" transform="scale(0.015625)"/>
      <path id="MicrosoftYaHei-Bold-52bf" d="M 3400 -766 
Q 3325 -309 3244 34 
Q 4075 -9 4269 -9 
Q 4475 -9 4628 87 
Q 4781 184 4815 401 
Q 4850 619 4875 909 
L 3038 909 
Q 2613 -469 538 -909 
Q 275 -372 88 -72 
Q 1763 169 2134 909 
L 538 909 
L 538 1628 
L 2353 1628 
Q 2372 1741 2388 1866 
L 2675 1866 
Q 2475 2138 2231 2397 
Q 2709 2638 2988 2997 
Q 2753 3131 2519 3259 
L 2850 3797 
L 3288 3584 
Q 3347 3791 3363 4022 
L 2713 4022 
L 2713 4722 
L 3391 4722 
Q 3400 5069 3400 5328 
L 4163 5328 
Q 4163 5063 4153 4722 
L 5500 4722 
L 5488 3453 
Q 5488 2653 5644 2653 
Q 5731 2653 5800 3478 
Q 6063 3384 6350 3309 
Q 6213 1828 5550 1828 
Q 5166 1828 4970 2093 
Q 4775 2359 4761 2871 
Q 4747 3384 4744 4022 
L 4122 4022 
Q 4084 3609 3959 3247 
L 4669 2878 
L 4231 2234 
L 3641 2606 
Q 3359 2188 2919 1866 
L 3231 1866 
Q 3219 1747 3200 1628 
L 5781 1628 
L 5684 263 
Q 5656 -88 5492 -336 
Q 5328 -584 5012 -684 
Q 4697 -784 3400 -766 
z
M 200 3491 
L 1088 3566 
L 1088 3947 
L 313 3947 
L 313 4647 
L 1088 4647 
L 1088 5316 
L 1850 5316 
L 1850 4647 
L 2475 4647 
L 2475 3947 
L 1850 3947 
L 1850 3647 
L 2494 3722 
Q 2500 3372 2500 3009 
L 1850 2938 
L 1850 2753 
Q 1850 2391 1719 2162 
Q 1588 1934 1355 1854 
Q 1122 1775 419 1766 
Q 363 2128 281 2447 
Q 419 2428 763 2428 
Q 1088 2428 1088 2766 
L 1088 2853 
L 313 2766 
L 200 3491 
z
" transform="scale(0.015625)"/>
      <path id="MicrosoftYaHei-Bold-4e0e" d="M 6138 3747 
L 2000 3747 
L 1956 3041 
L 5838 3041 
L 5738 541 
Q 5709 -169 5351 -453 
Q 4994 -738 4381 -741 
L 3031 -741 
Q 2956 -359 2813 166 
Q 3463 134 4081 134 
Q 4731 134 4784 526 
Q 4838 919 4863 2234 
L 969 2234 
L 1144 5272 
L 2094 5272 
L 2050 4566 
L 6138 4566 
L 6138 3747 
z
M 4456 766 
L 181 766 
L 181 1584 
L 4456 1584 
L 4456 766 
z
" transform="scale(0.015625)"/>
      <path id="MicrosoftYaHei-Bold-5f31" d="M 4150 2703 
L 6056 2703 
Q 6047 1681 6011 882 
Q 5975 84 5898 -136 
Q 5822 -356 5647 -504 
Q 5472 -653 5251 -697 
Q 5031 -741 3969 -741 
Q 3900 -359 3763 72 
Q 4150 34 4606 34 
Q 5113 34 5128 522 
Q 4128 306 3231 134 
L 3100 934 
Q 3606 997 4141 1075 
Q 3803 1306 3419 1541 
L 3769 1953 
L 3250 1953 
L 3475 3878 
L 5125 3878 
L 5125 4291 
L 3288 4291 
L 3288 5041 
L 6000 5041 
L 6000 3128 
L 4200 3128 
L 4150 2703 
z
M 5175 1953 
L 4016 1953 
Q 4347 1759 4713 1522 
L 4350 1106 
L 5156 1231 
L 5175 1953 
z
M 1225 2703 
L 3025 2703 
Q 3013 1659 2981 876 
Q 2950 94 2873 -131 
Q 2797 -356 2620 -507 
Q 2444 -659 2222 -703 
Q 2000 -747 938 -747 
Q 875 -359 731 78 
Q 1150 28 1650 28 
Q 2059 28 2097 503 
Q 1122 288 238 116 
L 131 916 
Q 631 975 1163 1053 
Q 784 1313 431 1534 
L 788 1953 
L 319 1953 
L 544 3878 
L 2063 3878 
L 2063 4291 
L 363 4291 
L 363 5041 
L 2938 5041 
L 2938 3128 
L 1275 3128 
L 1225 2703 
z
M 2144 1953 
L 1013 1953 
Q 1391 1731 1700 1522 
L 1313 1075 
L 2125 1206 
L 2144 1953 
z
" transform="scale(0.015625)"/>
      <path id="MicrosoftYaHei-Bold-5e73" d="M 175 1959 
L 2719 1959 
L 2719 4253 
L 450 4253 
L 450 5078 
L 5975 5078 
L 5975 4253 
L 3669 4253 
L 3669 1959 
L 6250 1959 
L 6250 1134 
L 3669 1134 
L 3669 -809 
L 2719 -809 
L 2719 1134 
L 175 1134 
L 175 1959 
z
M 538 3691 
L 1194 4134 
Q 1794 3434 2438 2584 
L 1681 2084 
Q 1050 3041 538 3691 
z
M 5988 3628 
Q 5325 2834 4588 2066 
L 3950 2584 
Q 4675 3334 5250 4128 
L 5988 3628 
z
" transform="scale(0.015625)"/>
      <path id="MicrosoftYaHei-Bold-53f0" d="M 4606 4584 
Q 5569 3647 6388 2741 
L 5694 2153 
L 5206 2728 
Q 2519 2684 538 2503 
L 206 3241 
Q 1438 4003 2644 5403 
L 3463 4959 
Q 2575 4122 1588 3322 
L 4594 3428 
L 3956 4128 
L 4606 4584 
z
M 794 -828 
L 794 2103 
L 5606 2103 
L 5606 -828 
L 4756 -828 
L 4756 -459 
L 1644 -459 
L 1644 -828 
L 794 -828 
z
M 4756 1328 
L 1644 1328 
L 1644 316 
L 4756 316 
L 4756 1328 
z
" transform="scale(0.015625)"/>
      <path id="MicrosoftYaHei-Bold-9006" d="M 2988 2241 
L 3581 2241 
Q 3644 2634 3644 3628 
L 1963 3628 
L 1963 4297 
L 2981 4297 
Q 2709 4609 2400 4916 
L 2975 5366 
Q 3325 5072 3806 4572 
L 3459 4297 
L 4197 4297 
Q 4597 4838 4913 5366 
L 5675 4966 
Q 5425 4647 5125 4297 
L 6150 4297 
L 6150 3628 
L 4488 3628 
Q 4475 2734 4431 2241 
L 5113 2241 
L 5113 3359 
L 5925 3359 
L 5925 1222 
L 5113 1222 
L 5113 1578 
L 4281 1578 
Q 3963 684 3069 141 
Q 2769 466 2425 772 
Q 3038 1097 3334 1578 
L 2175 1578 
L 2175 3328 
L 2988 3328 
L 2988 2241 
z
M 950 5234 
Q 1425 4622 1794 4084 
L 1063 3591 
Q 688 4241 281 4822 
L 950 5234 
z
M 6300 128 
Q 6131 -366 6031 -709 
Q 3944 -716 2873 -686 
Q 1803 -656 1238 -97 
L 513 -841 
L 156 109 
Q 500 391 781 641 
L 781 2222 
L 200 2222 
L 200 3016 
L 1600 3016 
L 1600 634 
Q 2088 91 3150 91 
Q 6213 91 6300 128 
z
" transform="scale(0.015625)"/>
      <path id="MicrosoftYaHei-Bold-88ad" d="M 269 4734 
L 2053 4734 
Q 2122 5019 2163 5359 
L 2956 5291 
Q 2913 4994 2856 4734 
L 4131 4734 
Q 4031 4916 3913 5116 
L 4731 5334 
Q 4866 5056 4997 4734 
L 6175 4734 
L 6175 4084 
L 5166 4084 
L 5494 3622 
Q 4809 3259 4103 2988 
Q 4163 2972 4244 2972 
L 5138 2972 
Q 5294 2972 5391 3031 
Q 5488 3091 5519 3195 
Q 5550 3300 5600 3797 
Q 5825 3709 6288 3559 
Q 6250 3294 6179 2975 
Q 6109 2656 5909 2520 
Q 5709 2384 5369 2384 
L 4094 2384 
Q 3488 2384 3275 2706 
Q 2706 2534 2125 2422 
Q 2028 2678 1888 2944 
Q 1388 2513 581 2166 
Q 331 2553 81 2872 
Q 1438 3309 1822 4084 
L 269 4084 
L 269 4734 
z
M 2666 4084 
Q 2419 3441 2063 3106 
Q 2619 3197 3156 3347 
L 3156 4084 
L 2666 4084 
z
M 4991 4084 
L 3931 4084 
L 3931 3603 
Q 4472 3809 4991 4084 
z
M 6025 784 
Q 5641 609 4988 366 
Q 5572 97 6338 -28 
Q 5975 -503 5769 -834 
Q 4513 -484 3788 222 
Q 3734 -172 3731 -447 
Q 2163 -709 1794 -922 
L 1400 -266 
Q 1644 -78 1656 122 
L 1656 228 
Q 1128 -56 481 -322 
Q 313 66 88 441 
Q 1366 819 2219 1372 
L 206 1372 
L 206 2022 
L 2756 2022 
Q 2697 2203 2638 2359 
L 3550 2453 
Q 3603 2297 3688 2022 
L 6244 2022 
L 6244 1372 
L 5628 1372 
L 6025 784 
z
M 4328 784 
Q 4988 1059 5509 1372 
L 3784 1372 
Q 4038 1031 4328 784 
z
M 3053 1188 
Q 2788 944 2450 709 
L 2450 47 
Q 2803 106 3700 316 
Q 3347 684 3053 1188 
z
" transform="scale(0.015625)"/>
      <path id="MicrosoftYaHei-Bold-9608" d="M 1325 3622 
L 3294 3622 
Q 3281 3959 3275 4184 
L 3969 4184 
Q 3969 3878 3975 3622 
L 4294 3622 
Q 4238 3772 4169 3934 
L 4750 4072 
Q 4831 3847 4919 3622 
L 5144 3622 
L 5144 2984 
L 4006 2984 
Q 4038 2441 4106 2022 
Q 4325 2416 4475 2809 
L 5019 2547 
Q 4713 1822 4300 1197 
Q 4375 991 4469 853 
Q 4513 784 4556 784 
Q 4600 784 4619 916 
Q 4644 1216 4656 1503 
Q 4763 1466 5163 1366 
Q 5138 853 5063 459 
Q 4956 -34 4550 -34 
Q 4131 -34 3819 553 
Q 3525 197 3194 -122 
Q 3100 3 2969 147 
Q 2225 41 1375 -84 
L 1294 634 
Q 2144 716 3069 828 
Q 3069 722 3069 622 
Q 3338 922 3569 1216 
Q 3388 1903 3325 2984 
L 1325 2984 
L 1325 3622 
z
M 6069 391 
Q 6069 -616 5419 -747 
Q 5169 -822 4294 -828 
Q 4219 -509 4094 -209 
Q 4488 -222 4750 -222 
Q 5275 -222 5275 247 
L 5275 4291 
L 2719 4291 
L 2719 5034 
L 6069 5034 
L 6069 391 
z
M 344 4509 
L 1138 4509 
L 1138 -816 
L 344 -816 
L 344 4509 
z
M 1444 2684 
L 3044 2684 
L 3044 1066 
L 1444 1066 
L 1444 2684 
z
M 1119 5059 
L 1869 5334 
Q 2138 4909 2469 4322 
L 1669 4003 
Q 1375 4622 1119 5059 
z
M 2463 1628 
L 2463 2122 
L 2025 2122 
L 2025 1628 
L 2463 1628 
z
" transform="scale(0.015625)"/>
      <path id="MicrosoftYaHei-Bold-503c" d="M 1638 3 
L 2100 3 
L 2100 3728 
L 3556 3728 
L 3556 4097 
L 1950 4097 
L 1950 4797 
L 3556 4797 
L 3556 5266 
L 4381 5266 
L 4381 4797 
L 6175 4797 
L 6175 4097 
L 4381 4097 
L 4381 3728 
L 5888 3728 
L 5888 3 
L 6325 3 
L 6325 -697 
L 1638 -697 
L 1638 3 
z
M 1125 5347 
L 1950 5128 
Q 1713 4378 1419 3666 
L 1419 -853 
L 625 -853 
L 625 2022 
Q 456 1716 275 1422 
Q 200 1916 69 2591 
Q 675 3803 1125 5347 
z
M 2888 1853 
L 5100 1853 
L 5100 2178 
L 2888 2178 
L 2888 1853 
z
M 2888 928 
L 5100 928 
L 5100 1253 
L 2888 1253 
L 2888 928 
z
M 5100 3103 
L 2888 3103 
L 2888 2778 
L 5100 2778 
L 5100 3103 
z
M 2888 3 
L 5100 3 
L 5100 328 
L 2888 328 
L 2888 3 
z
" transform="scale(0.015625)"/>
     </defs>
     <use xlink:href="#MicrosoftYaHei-Bold-5b9e"/>
     <use xlink:href="#MicrosoftYaHei-Bold-9a8c" x="100"/>
     <use xlink:href="#MicrosoftYaHei-Bold-20" x="200"/>
     <use xlink:href="#MicrosoftYaHei-Bold-34" x="229.785156"/>
     <use xlink:href="#MicrosoftYaHei-Bold-ff1a" x="291.455078"/>
     <use xlink:href="#MicrosoftYaHei-Bold-670d" x="391.455078"/>
     <use xlink:href="#MicrosoftYaHei-Bold-52a1" x="491.455078"/>
     <use xlink:href="#MicrosoftYaHei-Bold-8d28" x="591.455078"/>
     <use xlink:href="#MicrosoftYaHei-Bold-91cf" x="691.455078"/>
     <use xlink:href="#MicrosoftYaHei-Bold-4f18" x="791.455078"/>
     <use xlink:href="#MicrosoftYaHei-Bold-52bf" x="891.455078"/>
     <use xlink:href="#MicrosoftYaHei-Bold-4e0e" x="991.455078"/>
     <use xlink:href="#MicrosoftYaHei-Bold-5f31" x="1091.455078"/>
     <use xlink:href="#MicrosoftYaHei-Bold-52bf" x="1191.455078"/>
     <use xlink:href="#MicrosoftYaHei-Bold-5e73" x="1291.455078"/>
     <use xlink:href="#MicrosoftYaHei-Bold-53f0" x="1391.455078"/>
     <use xlink:href="#MicrosoftYaHei-Bold-9006" x="1491.455078"/>
     <use xlink:href="#MicrosoftYaHei-Bold-88ad" x="1591.455078"/>
     <use xlink:href="#MicrosoftYaHei-Bold-9608" x="1691.455078"/>
     <use xlink:href="#MicrosoftYaHei-Bold-503c" x="1791.455078"/>
    </g>
   </g>
   <g id="PathCollection_1">
    <defs>
     <path id="m858f9dba15" d="M 0 4.242641 
C 1.125161 4.242641 2.204391 3.795609 3 3 
C 3.795609 2.204391 4.242641 1.125161 4.242641 0 
C 4.242641 -1.125161 3.795609 -2.204391 3 -3 
C 2.204391 -3.795609 1.125161 -4.242641 0 -4.242641 
C -1.125161 -4.242641 -2.204391 -3.795609 -3 -3 
C -3.795609 -2.204391 -4.242641 -1.125161 -4.242641 0 
C -4.242641 1.125161 -3.795609 2.204391 -3 3 
C -2.204391 3.795609 -1.125161 4.242641 0 4.242641 
z
" style="stroke: #fbfaf6; stroke-width: 1.2"/>
    </defs>
    <g clip-path="url(#p9276ded0d6)">
     <use xlink:href="#m858f9dba15" x="156.208681" y="171.241022" style="fill: #e58f3a; stroke: #fbfaf6; stroke-width: 1.2"/>
    </g>
   </g>
  </g>
 </g>
 <defs>
  <clipPath id="p9276ded0d6">
   <rect x="51.827953" y="36.94925" width="579.892934" height="326.137161"/>
  </clipPath>
 </defs>
</svg>
