<?xml version="1.0" encoding="utf-8" standalone="no"?>
<!DOCTYPE svg PUBLIC "-//W3C//DTD SVG 1.1//EN"
  "http://www.w3.org/Graphics/SVG/1.1/DTD/svg11.dtd">
<svg xmlns:xlink="http://www.w3.org/1999/xlink" width="649.19952pt" height="411.59952pt" viewBox="0 0 649.19952 411.59952" xmlns="http://www.w3.org/2000/svg" version="1.1">
 <metadata>
  <rdf:RDF xmlns:dc="http://purl.org/dc/elements/1.1/" xmlns:cc="http://creativecommons.org/ns#" xmlns:rdf="http://www.w3.org/1999/02/22-rdf-syntax-ns#">
   <cc:Work>
    <dc:type rdf:resource="http://purl.org/dc/dcmitype/StillImage"/>
    <dc:date>2026-06-05T14:09:24.574528</dc:date>
    <dc:format>image/svg+xml</dc:format>
    <dc:creator>
     <cc:Agent>
      <dc:title>Matplotlib v3.9.2, https://matplotlib.org/</dc:title>
     </cc:Agent>
    </dc:creator>
   </cc:Work>
  </rdf:RDF>
 </metadata>
 <defs>
  <style type="text/css">*{stroke-linejoin: round; stroke-linecap: butt}</style>
 </defs>
 <g id="figure_1">
  <g id="patch_1">
   <path d="M 0 411.59952 
L 649.19952 411.59952 
L 649.19952 0 
L 0 0 
z
" style="fill: #f7f5ef"/>
  </g>
  <g id="axes_1">
   <g id="patch_2">
    <path d="M 51.827953 363.086411 
L 638.920887 363.086411 
L 638.920887 36.389687 
L 51.827953 36.389687 
z
" style="fill: #fbfaf6"/>
   </g>
   <g id="patch_3">
    <path d="M 51.827953 170.911868 
L 638.920887 170.911868 
L 638.920887 42.795506 
L 51.827953 42.795506 
z
" clip-path="url(#p18e8594b9f)" style="fill: #2f9c5b; opacity: 0.055"/>
   </g>
   <g id="matplotlib.axis_1">
    <g id="xtick_1">
     <g id="line2d_1">
      <path d="M 51.827953 363.086411 
L 51.827953 36.389687 
" clip-path="url(#p18e8594b9f)" style="fill: none; stroke: #d8d1c5; stroke-opacity: 0.34; stroke-width: 0.85; stroke-linecap: square"/>
     </g>
     <g id="line2d_2">
      <defs>
       <path id="m77e210e7e7" d="M 0 0 
L 0 3.5 
" style="stroke: #32383a; stroke-width: 0.8"/>
      </defs>
      <g>
       <use xlink:href="#m77e210e7e7" x="51.827953" y="363.086411" style="fill: #32383a; stroke: #32383a; stroke-width: 0.8"/>
      </g>
     </g>
     <g id="text_1">
      <!-- 0 -->
      <g style="fill: #32383a" transform="translate(48.74932 378.479848) scale(0.105 -0.105)">
       <defs>
        <path id="MicrosoftYaHei-30" d="M 284 2325 
Q 284 3606 709 4264 
Q 1134 4922 1941 4922 
Q 3478 4922 3478 2441 
Q 3478 1216 3045 567 
Q 2613 -81 1831 -81 
Q 1094 -81 689 534 
Q 284 1150 284 2325 
z
M 909 2353 
Q 909 425 1888 425 
Q 2850 425 2850 2384 
Q 2850 4413 1906 4413 
Q 909 4413 909 2353 
z
" transform="scale(0.015625)"/>
       </defs>
       <use xlink:href="#MicrosoftYaHei-30"/>
      </g>
     </g>
    </g>
    <g id="xtick_2">
     <g id="line2d_3">
      <path d="M 169.24654 363.086411 
L 169.24654 36.389687 
" clip-path="url(#p18e8594b9f)" style="fill: none; stroke: #d8d1c5; stroke-opacity: 0.34; stroke-width: 0.85; stroke-linecap: square"/>
     </g>
     <g id="line2d_4">
      <g>
       <use xlink:href="#m77e210e7e7" x="169.24654" y="363.086411" style="fill: #32383a; stroke: #32383a; stroke-width: 0.8"/>
      </g>
     </g>
     <g id="text_2">
      <!-- 1 -->
      <g style="fill: #32383a" transform="translate(166.167907 378.479848) scale(0.105 -0.105)">
       <defs>
        <path id="MicrosoftYaHei-31" d="M 1781 0 
L 1781 4141 
Q 1638 3997 1295 3819 
Q 953 3641 663 3569 
L 663 4169 
Q 1047 4275 1484 4508 
Q 1922 4741 2156 4947 
L 2388 4947 
L 2388 0 
L 1781 0 
z
" transform="scale(0.015625)"/>
       </defs>
       <use xlink:href="#MicrosoftYaHei-31"/>
      </g>
     </g>
    </g>
    <g id="xtick_3">
     <g id="line2d_5">
      <path d="M 286.665127 363.086411 
L 286.665127 36.389687 
" clip-path="url(#p18e8594b9f)" style="fill: none; stroke: #d8d1c5; stroke-opacity: 0.34; stroke-width: 0.85; stroke-linecap: square"/>
     </g>
     <g id="line2d_6">
      <g>
       <use xlink:href="#m77e210e7e7" x="286.665127" y="363.086411" style="fill: #32383a; stroke: #32383a; stroke-width: 0.8"/>
      </g>
     </g>
     <g id="text_3">
      <!-- 2 -->
      <g style="fill: #32383a" transform="translate(283.586494 378.479848) scale(0.105 -0.105)">
       <defs>
        <path id="MicrosoftYaHei-32" d="M 2666 3572 
Q 2666 3963 2419 4186 
Q 2172 4409 1747 4409 
Q 1447 4409 1140 4256 
Q 834 4103 569 3819 
L 569 4413 
Q 806 4659 1107 4790 
Q 1409 4922 1816 4922 
Q 2472 4922 2872 4570 
Q 3272 4219 3272 3619 
Q 3272 3084 3026 2693 
Q 2781 2303 2188 1894 
Q 1581 1475 1376 1294 
Q 1172 1113 1090 947 
Q 1009 781 1009 544 
L 3416 544 
L 3416 0 
L 372 0 
L 372 241 
Q 372 659 486 951 
Q 600 1244 862 1520 
Q 1125 1797 1681 2184 
Q 2250 2584 2458 2886 
Q 2666 3188 2666 3572 
z
" transform="scale(0.015625)"/>
       </defs>
       <use xlink:href="#MicrosoftYaHei-32"/>
      </g>
     </g>
    </g>
    <g id="xtick_4">
     <g id="line2d_7">
      <path d="M 404.083714 363.086411 
L 404.083714 36.389687 
" clip-path="url(#p18e8594b9f)" style="fill: none; stroke: #d8d1c5; stroke-opacity: 0.34; stroke-width: 0.85; stroke-linecap: square"/>
     </g>
     <g id="line2d_8">
      <g>
       <use xlink:href="#m77e210e7e7" x="404.083714" y="363.086411" style="fill: #32383a; stroke: #32383a; stroke-width: 0.8"/>
      </g>
     </g>
     <g id="text_4">
      <!-- 3 -->
      <g style="fill: #32383a" transform="translate(401.005081 378.479848) scale(0.105 -0.105)">
       <defs>
        <path id="MicrosoftYaHei-33" d="M 447 809 
Q 944 425 1569 425 
Q 2069 425 2361 670 
Q 2653 916 2653 1328 
Q 2653 2247 1338 2247 
L 934 2247 
L 934 2753 
L 1319 2753 
Q 2484 2753 2484 3616 
Q 2484 4413 1594 4413 
Q 1084 4413 634 4069 
L 634 4647 
Q 1109 4922 1744 4922 
Q 2363 4922 2738 4598 
Q 3113 4275 3113 3759 
Q 3113 2809 2144 2538 
L 2144 2525 
Q 2669 2469 2973 2155 
Q 3278 1841 3278 1372 
Q 3278 719 2808 319 
Q 2338 -81 1556 -81 
Q 869 -81 447 175 
L 447 809 
z
" transform="scale(0.015625)"/>
       </defs>
       <use xlink:href="#MicrosoftYaHei-33"/>
      </g>
     </g>
    </g>
    <g id="xtick_5">
     <g id="line2d_9">
      <path d="M 521.5023 363.086411 
L 521.5023 36.389687 
" clip-path="url(#p18e8594b9f)" style="fill: none; stroke: #d8d1c5; stroke-opacity: 0.34; stroke-width: 0.85; stroke-linecap: square"/>
     </g>
     <g id="line2d_10">
      <g>
       <use xlink:href="#m77e210e7e7" x="521.5023" y="363.086411" style="fill: #32383a; stroke: #32383a; stroke-width: 0.8"/>
      </g>
     </g>
     <g id="text_5">
      <!-- 4 -->
      <g style="fill: #32383a" transform="translate(518.423668 378.479848) scale(0.105 -0.105)">
       <defs>
        <path id="MicrosoftYaHei-34" d="M 2906 4841 
L 2906 1644 
L 3631 1644 
L 3631 1138 
L 2906 1138 
L 2906 0 
L 2313 0 
L 2313 1138 
L 53 1138 
L 53 1616 
Q 656 2294 1265 3178 
Q 1875 4063 2272 4841 
L 2906 4841 
z
M 741 1644 
L 2313 1644 
L 2313 3950 
Q 1988 3366 1616 2817 
Q 1244 2269 741 1644 
z
" transform="scale(0.015625)"/>
       </defs>
       <use xlink:href="#MicrosoftYaHei-34"/>
      </g>
     </g>
    </g>
    <g id="xtick_6">
     <g id="line2d_11">
      <path d="M 638.920887 363.086411 
L 638.920887 36.389687 
" clip-path="url(#p18e8594b9f)" style="fill: none; stroke: #d8d1c5; stroke-opacity: 0.34; stroke-width: 0.85; stroke-linecap: square"/>
     </g>
     <g id="line2d_12">
      <g>
       <use xlink:href="#m77e210e7e7" x="638.920887" y="363.086411" style="fill: #32383a; stroke: #32383a; stroke-width: 0.8"/>
      </g>
     </g>
     <g id="text_6">
      <!-- 5 -->
      <g style="fill: #32383a" transform="translate(635.842254 378.479848) scale(0.105 -0.105)">
       <defs>
        <path id="MicrosoftYaHei-35" d="M 3294 1494 
Q 3294 784 2823 350 
Q 2353 -84 1559 -84 
Q 878 -84 544 119 
L 544 744 
Q 1034 425 1544 425 
Q 2050 425 2361 704 
Q 2672 984 2672 1447 
Q 2672 1909 2348 2167 
Q 2025 2425 1434 2425 
Q 978 2425 613 2384 
L 791 4841 
L 3053 4841 
L 3053 4303 
L 1306 4303 
L 1206 2931 
L 1647 2950 
Q 2416 2950 2855 2567 
Q 3294 2184 3294 1494 
z
" transform="scale(0.015625)"/>
       </defs>
       <use xlink:href="#MicrosoftYaHei-35"/>
      </g>
     </g>
    </g>
    <g id="text_7">
     <!-- 服务质量优势  Δq -->
     <g transform="translate(296.969967 401.366676) scale(0.122 -0.122)">
      <defs>
       <path id="MicrosoftYaHei-670d" d="M 2819 4941 
L 5906 4941 
Q 5875 4434 5856 4141 
Q 5806 3172 4869 3191 
Q 4613 3197 4063 3216 
Q 4025 3459 3981 3709 
Q 4444 3653 4813 3641 
Q 5350 3622 5394 4153 
Q 5413 4316 5425 4509 
L 3294 4509 
L 3294 2709 
L 5931 2709 
L 5931 2341 
Q 5681 1244 5016 431 
Q 5556 -81 6356 -366 
Q 6144 -616 5994 -816 
Q 5225 -456 4691 78 
Q 4213 -394 3569 -753 
Q 3450 -547 3313 -341 
Q 3938 -22 4391 422 
Q 3781 1203 3588 2303 
L 3294 2303 
L 3294 -803 
L 2819 -803 
L 2819 4941 
z
M 538 4966 
L 2300 4966 
L 2300 -103 
Q 2300 -728 1719 -728 
Q 1400 -728 1125 -709 
Q 1100 -522 1050 -266 
Q 1369 -316 1600 -316 
Q 1856 -316 1856 -59 
L 1856 1378 
L 981 1378 
Q 1000 -59 463 -816 
Q 325 -634 119 -466 
Q 538 178 538 1359 
L 538 4966 
z
M 5438 2303 
L 4016 2303 
Q 4209 1403 4706 772 
Q 5222 1425 5438 2303 
z
M 981 1766 
L 1856 1766 
L 1856 2972 
L 981 2972 
L 981 1766 
z
M 1856 4559 
L 981 4559 
L 981 3359 
L 1856 3359 
L 1856 4559 
z
" transform="scale(0.015625)"/>
       <path id="MicrosoftYaHei-52a1" d="M 1900 5391 
L 2369 5191 
Q 2228 4959 2075 4741 
L 5456 4741 
L 5456 4322 
Q 4875 3616 3866 3088 
Q 4916 2706 6369 2616 
Q 6169 2334 6019 2091 
Q 4391 2306 3288 2819 
Q 2047 2291 288 1984 
Q 181 2178 31 2422 
Q 1597 2663 2750 3103 
Q 2038 3538 1609 4131 
Q 1125 3556 538 3066 
Q 350 3266 194 3403 
Q 1344 4316 1900 5391 
z
M 588 1728 
L 2406 1728 
Q 2450 2031 2481 2403 
L 2988 2403 
Q 2947 2031 2903 1728 
L 5425 1728 
Q 5363 609 5306 159 
Q 5206 -722 4256 -728 
Q 3888 -734 3150 -703 
Q 3113 -472 3056 -184 
Q 3775 -247 4244 -253 
Q 4775 -241 4831 284 
Q 4888 753 4913 1284 
L 2828 1284 
Q 2497 -219 500 -897 
Q 356 -691 194 -478 
Q 1988 103 2319 1284 
L 588 1284 
L 588 1728 
z
M 4788 4328 
L 1997 4328 
Q 2500 3725 3291 3334 
Q 4194 3756 4788 4328 
z
" transform="scale(0.015625)"/>
       <path id="MicrosoftYaHei-8d28" d="M 1838 2628 
L 3500 2628 
L 3500 3353 
L 1450 3353 
L 1450 3791 
L 3500 3791 
L 3500 4472 
L 4000 4472 
L 4000 3791 
L 6125 3791 
L 6125 3353 
L 4000 3353 
L 4000 2628 
L 5681 2628 
L 5681 428 
L 5194 428 
L 5194 2191 
L 2325 2191 
L 2325 428 
L 1838 428 
L 1838 2628 
z
M 713 4934 
Q 3744 4947 5988 5197 
L 6163 4709 
Q 3813 4541 1213 4497 
L 1213 2578 
Q 1213 178 406 -872 
Q 219 -653 31 -466 
Q 713 372 713 2534 
L 713 4934 
z
M 4000 1866 
Q 4013 1053 3919 691 
Q 5063 191 6263 -403 
L 5994 -866 
Q 4794 -203 3763 272 
Q 3275 -559 1344 -884 
Q 1238 -684 1075 -428 
Q 3019 -128 3350 534 
Q 3525 822 3513 1866 
L 4000 1866 
z
" transform="scale(0.015625)"/>
       <path id="MicrosoftYaHei-91cf" d="M 113 -278 
L 2981 -278 
L 2981 78 
L 475 78 
L 475 403 
L 2981 403 
L 2981 759 
L 1494 759 
L 1494 597 
L 1069 597 
L 1069 2516 
L 5350 2516 
L 5350 597 
L 4925 597 
L 4925 759 
L 3419 759 
L 3419 403 
L 5931 403 
L 5931 78 
L 3419 78 
L 3419 -278 
L 6288 -278 
L 6288 -616 
L 113 -616 
L 113 -278 
z
M 1119 5072 
L 5306 5072 
L 5306 3284 
L 4881 3284 
L 4881 3453 
L 1544 3453 
L 1544 3284 
L 1119 3284 
L 1119 5072 
z
M 163 3153 
L 6263 3153 
L 6263 2816 
L 163 2816 
L 163 3153 
z
M 1544 3778 
L 4881 3778 
L 4881 4116 
L 1544 4116 
L 1544 3778 
z
M 4881 4747 
L 1544 4747 
L 1544 4416 
L 4881 4416 
L 4881 4747 
z
M 3419 1084 
L 4925 1084 
L 4925 1491 
L 3419 1491 
L 3419 1084 
z
M 1494 1084 
L 2981 1084 
L 2981 1491 
L 1494 1491 
L 1494 1084 
z
M 4925 2191 
L 3419 2191 
L 3419 1791 
L 4925 1791 
L 4925 2191 
z
M 1494 1791 
L 2981 1791 
L 2981 2191 
L 1494 2191 
L 1494 1791 
z
" transform="scale(0.015625)"/>
       <path id="MicrosoftYaHei-4f18" d="M 1825 3609 
L 3184 3609 
Q 3216 4322 3213 5272 
L 3713 5272 
Q 3719 4338 3688 3609 
L 6188 3609 
L 6188 3153 
L 4475 3153 
L 4475 228 
Q 4475 -122 4838 -122 
L 5244 -122 
Q 5656 -122 5700 303 
Q 5750 659 5781 1266 
Q 6031 1166 6294 1066 
Q 6244 528 6175 109 
Q 6100 -291 5900 -447 
Q 5713 -603 5275 -597 
L 4763 -597 
Q 4325 -597 4150 -422 
Q 3969 -259 3969 184 
L 3969 3153 
L 3663 3153 
Q 3600 791 1950 -803 
Q 1775 -597 1575 -397 
Q 3100 1028 3159 3153 
L 1825 3153 
L 1825 3609 
z
M 88 2334 
Q 1056 3641 1556 5291 
L 2063 5122 
Q 1753 4253 1388 3522 
L 1388 -809 
L 913 -809 
L 913 2666 
Q 616 2184 288 1778 
Q 194 2047 88 2334 
z
M 4600 5184 
Q 5269 4759 5713 4391 
Q 5538 4197 5388 3991 
Q 4875 4447 4325 4841 
L 4600 5184 
z
" transform="scale(0.015625)"/>
       <path id="MicrosoftYaHei-52bf" d="M 531 1472 
L 2522 1472 
Q 2544 1653 2544 1859 
L 3031 1859 
Q 3025 1656 3006 1472 
L 5550 1472 
Q 5506 709 5450 128 
Q 5375 -666 4475 -672 
Q 4019 -678 3269 -659 
Q 3231 -397 3163 -116 
Q 3906 -178 4463 -178 
Q 4925 -178 4969 222 
Q 5006 516 5038 1047 
L 2934 1047 
Q 2784 388 2400 28 
Q 1806 -541 469 -853 
Q 344 -647 169 -391 
Q 1519 -116 2031 372 
Q 2313 622 2438 1047 
L 531 1047 
L 531 1472 
z
M 2663 3347 
L 2881 3697 
Q 3144 3566 3388 3441 
Q 3472 3706 3500 4097 
L 2819 4097 
L 2819 4522 
L 3513 4522 
L 3513 5347 
L 3963 5347 
L 3963 4522 
L 5288 4522 
Q 5288 3303 5350 2853 
Q 5419 2347 5625 2347 
Q 5744 2347 5800 2641 
Q 5850 2928 5869 3322 
Q 6088 3228 6306 3153 
Q 6275 2772 6225 2509 
Q 6100 1816 5613 1816 
Q 5056 1816 4919 2584 
Q 4838 3066 4838 4097 
L 3950 4097 
Q 3922 3575 3806 3216 
Q 4247 2969 4606 2741 
L 4338 2322 
Q 4000 2559 3613 2797 
Q 3291 2284 2344 1772 
Q 2206 1978 2019 2172 
Q 2891 2600 3194 3047 
Q 2938 3197 2663 3347 
z
M 250 3184 
Q 616 3244 1313 3378 
L 1313 4041 
L 313 4041 
L 313 4466 
L 1313 4466 
L 1313 5353 
L 1763 5353 
L 1763 4466 
L 2513 4466 
L 2513 4041 
L 1763 4041 
L 1763 3469 
Q 2109 3538 2525 3622 
Q 2538 3284 2544 3178 
Q 2147 3100 1763 3022 
L 1763 2384 
Q 1763 1766 1163 1759 
Q 894 1753 500 1766 
Q 475 2016 425 2222 
Q 831 2191 1075 2191 
Q 1313 2191 1313 2441 
L 1313 2925 
Q 828 2819 363 2709 
L 250 3184 
z
" transform="scale(0.015625)"/>
       <path id="MicrosoftYaHei-20" transform="scale(0.015625)"/>
       <path id="MicrosoftYaHei-394" d="M 166 0 
L 166 275 
L 1913 4841 
L 2578 4841 
L 4334 275 
L 4334 0 
L 166 0 
z
M 2366 3744 
Q 2313 3894 2280 4012 
Q 2247 4131 2241 4225 
L 2225 4225 
Q 2213 4138 2181 4019 
Q 2150 3900 2091 3747 
Q 1856 3097 1570 2301 
Q 1284 1506 941 553 
L 3544 553 
L 2366 3744 
z
" transform="scale(0.015625)"/>
       <path id="MicrosoftYaHei-71" d="M 3547 -1591 
L 2934 -1591 
L 2934 581 
L 2922 581 
Q 2559 -81 1753 -81 
Q 1100 -81 708 380 
Q 316 841 316 1647 
Q 316 2506 747 3022 
Q 1178 3538 1903 3538 
Q 2603 3538 2922 2988 
L 2934 2988 
L 2934 3456 
L 3547 3456 
L 3547 -1591 
z
M 2934 2044 
Q 2938 2453 2673 2742 
Q 2409 3031 1984 3031 
Q 1497 3031 1219 2668 
Q 941 2306 941 1663 
Q 941 1081 1208 753 
Q 1475 425 1909 425 
Q 2384 425 2661 751 
Q 2938 1078 2934 1566 
L 2934 2044 
z
" transform="scale(0.015625)"/>
      </defs>
      <use xlink:href="#MicrosoftYaHei-670d"/>
      <use xlink:href="#MicrosoftYaHei-52a1" x="100"/>
      <use xlink:href="#MicrosoftYaHei-8d28" x="200"/>
      <use xlink:href="#MicrosoftYaHei-91cf" x="300"/>
      <use xlink:href="#MicrosoftYaHei-4f18" x="400"/>
      <use xlink:href="#MicrosoftYaHei-52bf" x="500"/>
      <use xlink:href="#MicrosoftYaHei-20" x="600"/>
      <use xlink:href="#MicrosoftYaHei-20" x="629.589844"/>
      <use xlink:href="#MicrosoftYaHei-394" x="659.179688"/>
      <use xlink:href="#MicrosoftYaHei-71" x="729.541016"/>
     </g>
    </g>
   </g>
   <g id="matplotlib.axis_2">
    <g id="ytick_1">
     <g id="line2d_13">
      <path d="M 51.827953 363.086411 
L 638.920887 363.086411 
" clip-path="url(#p18e8594b9f)" style="fill: none; stroke: #d8d1c5; stroke-opacity: 0.34; stroke-width: 0.85; stroke-linecap: square"/>
     </g>
     <g id="line2d_14">
      <defs>
       <path id="m7dd1007c2e" d="M 0 0 
L -3.5 0 
" style="stroke: #32383a; stroke-width: 0.8"/>
      </defs>
      <g>
       <use xlink:href="#m7dd1007c2e" x="51.827953" y="363.086411" style="fill: #32383a; stroke: #32383a; stroke-width: 0.8"/>
      </g>
     </g>
     <g id="text_8">
      <!-- 0.0 -->
      <g style="fill: #32383a" transform="translate(29.985219 367.283129) scale(0.105 -0.105)">
       <defs>
        <path id="MicrosoftYaHei-2e" d="M 372 322 
Q 372 491 487 606 
Q 603 722 775 722 
Q 950 722 1065 605 
Q 1181 488 1181 322 
Q 1181 159 1065 42 
Q 950 -75 772 -75 
Q 600 -75 486 42 
Q 372 159 372 322 
z
" transform="scale(0.015625)"/>
       </defs>
       <use xlink:href="#MicrosoftYaHei-30"/>
       <use xlink:href="#MicrosoftYaHei-2e" x="58.642578"/>
       <use xlink:href="#MicrosoftYaHei-30" x="82.714844"/>
      </g>
     </g>
    </g>
    <g id="ytick_2">
     <g id="line2d_15">
      <path d="M 51.827953 299.02823 
L 638.920887 299.02823 
" clip-path="url(#p18e8594b9f)" style="fill: none; stroke: #d8d1c5; stroke-opacity: 0.34; stroke-width: 0.85; stroke-linecap: square"/>
     </g>
     <g id="line2d_16">
      <g>
       <use xlink:href="#m7dd1007c2e" x="51.827953" y="299.02823" style="fill: #32383a; stroke: #32383a; stroke-width: 0.8"/>
      </g>
     </g>
     <g id="text_9">
      <!-- 0.2 -->
      <g style="fill: #32383a" transform="translate(29.985219 303.224948) scale(0.105 -0.105)">
       <use xlink:href="#MicrosoftYaHei-30"/>
       <use xlink:href="#MicrosoftYaHei-2e" x="58.642578"/>
       <use xlink:href="#MicrosoftYaHei-32" x="82.714844"/>
      </g>
     </g>
    </g>
    <g id="ytick_3">
     <g id="line2d_17">
      <path d="M 51.827953 234.970049 
L 638.920887 234.970049 
" clip-path="url(#p18e8594b9f)" style="fill: none; stroke: #d8d1c5; stroke-opacity: 0.34; stroke-width: 0.85; stroke-linecap: square"/>
     </g>
     <g id="line2d_18">
      <g>
       <use xlink:href="#m7dd1007c2e" x="51.827953" y="234.970049" style="fill: #32383a; stroke: #32383a; stroke-width: 0.8"/>
      </g>
     </g>
     <g id="text_10">
      <!-- 0.4 -->
      <g style="fill: #32383a" transform="translate(29.985219 239.166767) scale(0.105 -0.105)">
       <use xlink:href="#MicrosoftYaHei-30"/>
       <use xlink:href="#MicrosoftYaHei-2e" x="58.642578"/>
       <use xlink:href="#MicrosoftYaHei-34" x="82.714844"/>
      </g>
     </g>
    </g>
    <g id="ytick_4">
     <g id="line2d_19">
      <path d="M 51.827953 170.911868 
L 638.920887 170.911868 
" clip-path="url(#p18e8594b9f)" style="fill: none; stroke: #d8d1c5; stroke-opacity: 0.34; stroke-width: 0.85; stroke-linecap: square"/>
     </g>
     <g id="line2d_20">
      <g>
       <use xlink:href="#m7dd1007c2e" x="51.827953" y="170.911868" style="fill: #32383a; stroke: #32383a; stroke-width: 0.8"/>
      </g>
     </g>
     <g id="text_11">
      <!-- 0.6 -->
      <g style="fill: #32383a" transform="translate(29.985219 175.108586) scale(0.105 -0.105)">
       <defs>
        <path id="MicrosoftYaHei-36" d="M 3181 4219 
Q 2803 4413 2391 4413 
Q 1763 4413 1381 3866 
Q 1000 3319 994 2372 
L 1009 2372 
Q 1353 3038 2106 3038 
Q 2734 3038 3109 2628 
Q 3484 2219 3484 1541 
Q 3484 831 3051 375 
Q 2619 -81 1947 -81 
Q 1209 -81 789 495 
Q 369 1072 369 2131 
Q 369 3413 920 4167 
Q 1472 4922 2372 4922 
Q 2888 4922 3181 4781 
L 3181 4219 
z
M 1031 1584 
Q 1031 1106 1286 765 
Q 1541 425 1963 425 
Q 2363 425 2613 719 
Q 2863 1013 2863 1475 
Q 2863 1975 2627 2253 
Q 2391 2531 1956 2531 
Q 1544 2531 1287 2250 
Q 1031 1969 1031 1584 
z
" transform="scale(0.015625)"/>
       </defs>
       <use xlink:href="#MicrosoftYaHei-30"/>
       <use xlink:href="#MicrosoftYaHei-2e" x="58.642578"/>
       <use xlink:href="#MicrosoftYaHei-36" x="82.714844"/>
      </g>
     </g>
    </g>
    <g id="ytick_5">
     <g id="line2d_21">
      <path d="M 51.827953 106.853687 
L 638.920887 106.853687 
" clip-path="url(#p18e8594b9f)" style="fill: none; stroke: #d8d1c5; stroke-opacity: 0.34; stroke-width: 0.85; stroke-linecap: square"/>
     </g>
     <g id="line2d_22">
      <g>
       <use xlink:href="#m7dd1007c2e" x="51.827953" y="106.853687" style="fill: #32383a; stroke: #32383a; stroke-width: 0.8"/>
      </g>
     </g>
     <g id="text_12">
      <!-- 0.8 -->
      <g style="fill: #32383a" transform="translate(29.985219 111.050405) scale(0.105 -0.105)">
       <defs>
        <path id="MicrosoftYaHei-38" d="M 306 1350 
Q 306 1769 556 2122 
Q 806 2475 1200 2625 
Q 884 2803 700 3081 
Q 516 3359 516 3684 
Q 516 4028 692 4312 
Q 869 4597 1183 4759 
Q 1497 4922 1875 4922 
Q 2256 4922 2572 4761 
Q 2888 4600 3063 4315 
Q 3238 4031 3238 3684 
Q 3238 3366 3058 3086 
Q 2878 2806 2559 2625 
Q 2953 2472 3200 2119 
Q 3447 1766 3447 1350 
Q 3447 938 3250 611 
Q 3053 284 2690 103 
Q 2328 -78 1875 -78 
Q 1425 -78 1065 103 
Q 706 284 506 612 
Q 306 941 306 1350 
z
M 906 1378 
Q 906 947 1172 687 
Q 1438 428 1878 428 
Q 2309 428 2582 692 
Q 2856 956 2856 1378 
Q 2856 1778 2579 2051 
Q 2303 2325 1878 2325 
Q 1456 2325 1181 2058 
Q 906 1791 906 1378 
z
M 1081 3634 
Q 1081 3309 1312 3076 
Q 1544 2844 1878 2844 
Q 2206 2844 2445 3078 
Q 2684 3313 2684 3634 
Q 2684 3963 2454 4191 
Q 2225 4419 1878 4419 
Q 1534 4419 1307 4195 
Q 1081 3972 1081 3634 
z
" transform="scale(0.015625)"/>
       </defs>
       <use xlink:href="#MicrosoftYaHei-30"/>
       <use xlink:href="#MicrosoftYaHei-2e" x="58.642578"/>
       <use xlink:href="#MicrosoftYaHei-38" x="82.714844"/>
      </g>
     </g>
    </g>
    <g id="ytick_6">
     <g id="line2d_23">
      <path d="M 51.827953 42.795506 
L 638.920887 42.795506 
" clip-path="url(#p18e8594b9f)" style="fill: none; stroke: #d8d1c5; stroke-opacity: 0.34; stroke-width: 0.85; stroke-linecap: square"/>
     </g>
     <g id="line2d_24">
      <g>
       <use xlink:href="#m7dd1007c2e" x="51.827953" y="42.795506" style="fill: #32383a; stroke: #32383a; stroke-width: 0.8"/>
      </g>
     </g>
     <g id="text_13">
      <!-- 1.0 -->
      <g style="fill: #32383a" transform="translate(29.985219 46.992224) scale(0.105 -0.105)">
       <use xlink:href="#MicrosoftYaHei-31"/>
       <use xlink:href="#MicrosoftYaHei-2e" x="58.642578"/>
       <use xlink:href="#MicrosoftYaHei-30" x="82.714844"/>
      </g>
     </g>
    </g>
    <g id="text_14">
     <!-- 平台 A 最终综合份额  $L_A$ -->
     <g transform="translate(16.952375 266.594049) rotate(-90) scale(0.122 -0.122)">
      <defs>
       <path id="MicrosoftYaHei-5e73" d="M 169 1934 
L 2938 1934 
L 2938 4547 
L 450 4547 
L 450 5028 
L 5975 5028 
L 5975 4547 
L 3463 4547 
L 3463 1934 
L 6250 1934 
L 6250 1453 
L 3463 1453 
L 3463 -847 
L 2938 -847 
L 2938 1453 
L 169 1453 
L 169 1934 
z
M 3950 2559 
Q 4638 3284 5188 4159 
L 5656 3859 
Q 4950 2891 4338 2234 
L 3950 2559 
z
M 769 3859 
L 1163 4134 
Q 1863 3316 2369 2553 
L 1925 2222 
Q 1444 3003 769 3859 
z
" transform="scale(0.015625)"/>
       <path id="MicrosoftYaHei-53f0" d="M 5431 2022 
L 5431 -816 
L 4919 -816 
L 4919 -403 
L 1481 -403 
L 1481 -816 
L 969 -816 
L 969 2022 
L 5431 2022 
z
M 4513 4503 
Q 5494 3591 6369 2634 
L 5925 2266 
Q 5675 2559 5419 2844 
Q 2613 2725 1131 2641 
Q 788 2616 469 2541 
L 263 3078 
Q 550 3184 781 3372 
Q 1850 4247 2738 5391 
L 3206 5103 
Q 2269 4003 1250 3147 
Q 3166 3206 5019 3284 
Q 4591 3750 4150 4191 
L 4513 4503 
z
M 4919 1559 
L 1481 1559 
L 1481 47 
L 4919 47 
L 4919 1559 
z
" transform="scale(0.015625)"/>
       <path id="MicrosoftYaHei-41" d="M 4428 0 
L 3738 0 
L 3244 1325 
L 1228 1325 
L 763 0 
L 72 0 
L 1916 4841 
L 2584 4841 
L 4428 0 
z
M 3050 1872 
L 2319 3884 
Q 2284 3981 2244 4222 
L 2228 4222 
Q 2194 4003 2150 3884 
L 1425 1872 
L 3050 1872 
z
" transform="scale(0.015625)"/>
       <path id="MicrosoftYaHei-6700" d="M 169 -28 
Q 475 3 781 38 
L 781 2416 
L 94 2416 
L 94 2791 
L 6288 2791 
L 6288 2416 
L 3025 2416 
L 3025 331 
Q 3325 375 3625 422 
Q 3619 309 3631 22 
Q 3338 -19 3025 -63 
L 3025 -859 
L 2600 -859 
L 2600 -125 
Q 1525 -278 281 -472 
L 169 -28 
z
M 1038 5053 
L 5363 5053 
L 5363 3047 
L 4925 3047 
L 4925 3191 
L 1475 3191 
L 1475 3047 
L 1038 3047 
L 1038 5053 
z
M 3338 1609 
L 3338 1972 
L 5819 1972 
L 5819 1609 
Q 5500 844 4981 278 
Q 5516 -113 6306 -316 
Q 6144 -553 6025 -753 
Q 5219 -488 4666 -34 
Q 4128 -516 3413 -822 
Q 3306 -634 3125 -428 
Q 3834 -156 4347 266 
Q 3825 825 3603 1609 
L 3338 1609 
z
M 1475 3553 
L 4925 3553 
L 4925 3953 
L 1475 3953 
L 1475 3553 
z
M 4925 4691 
L 1475 4691 
L 1475 4291 
L 4925 4291 
L 4925 4691 
z
M 5344 1609 
L 4025 1609 
Q 4222 994 4659 556 
Q 5094 1013 5344 1609 
z
M 2600 269 
L 2600 691 
L 1206 691 
L 1206 88 
Q 1913 172 2600 269 
z
M 1206 1916 
L 2600 1916 
L 2600 2416 
L 1206 2416 
L 1206 1916 
z
M 1206 1053 
L 2600 1053 
L 2600 1553 
L 1206 1553 
L 1206 1053 
z
" transform="scale(0.015625)"/>
       <path id="MicrosoftYaHei-7ec8" d="M 2156 3234 
Q 2944 4253 3356 5366 
L 3825 5209 
Q 3700 4925 3563 4653 
L 5906 4653 
L 5906 4209 
Q 5425 3378 4663 2750 
Q 5381 2259 6350 2097 
Q 6219 1797 6131 1566 
Q 5038 1875 4278 2456 
Q 3447 1878 2331 1503 
Q 2231 1734 2113 1941 
Q 3156 2238 3931 2756 
Q 3434 3228 3119 3847 
Q 2816 3350 2469 2903 
Q 2350 3041 2156 3234 
z
M 888 1528 
Q 1413 1603 2113 1709 
Q 2075 1466 2056 1241 
Q 1344 1141 319 978 
L 219 1434 
Q 594 1828 1163 2794 
Q 506 2753 219 2728 
L 100 3153 
Q 663 3897 1288 5366 
L 1763 5178 
Q 1156 3991 656 3191 
Q 1047 3200 1403 3209 
Q 1638 3625 1900 4122 
L 2369 3916 
Q 1463 2347 888 1528 
z
M 2625 109 
L 2819 547 
Q 3969 234 5675 -297 
L 5444 -791 
Q 3850 -222 2625 109 
z
M 5356 4234 
L 3372 4234 
Q 3750 3513 4303 3028 
Q 4938 3541 5356 4234 
z
M 88 66 
Q 1069 259 2250 547 
Q 2231 203 2231 78 
Q 1375 -109 225 -416 
L 88 66 
z
M 3338 1247 
L 3525 1666 
Q 4469 1384 5413 1047 
L 5206 553 
Q 4275 953 3338 1247 
z
" transform="scale(0.015625)"/>
       <path id="MicrosoftYaHei-7efc" d="M 881 1578 
Q 1550 1684 2100 1778 
Q 2063 1534 2044 1303 
Q 988 1159 306 1022 
L 194 1484 
Q 678 1988 1188 2756 
Q 581 2719 250 2691 
L 131 3116 
Q 813 4022 1394 5347 
L 1869 5159 
Q 1288 4041 694 3153 
Q 1091 3163 1453 3172 
Q 1691 3566 1938 4016 
L 2400 3784 
Q 1588 2484 881 1578 
z
M 2406 2016 
L 6275 2016 
L 6275 1603 
L 4638 1603 
L 4638 3 
Q 4638 -747 3888 -747 
Q 3631 -747 3213 -741 
Q 3181 -553 3119 -259 
Q 3469 -297 3756 -297 
Q 4163 -297 4163 134 
L 4163 1603 
L 2406 1603 
L 2406 2016 
z
M 2513 4528 
L 4166 4528 
Q 3931 4878 3713 5147 
L 4125 5397 
Q 4431 5041 4650 4716 
L 4347 4528 
L 6194 4528 
L 6194 3522 
L 5731 3522 
L 5731 4116 
L 2975 4116 
L 2975 3522 
L 2513 3522 
L 2513 4528 
z
M 2781 3241 
L 5913 3241 
L 5913 2828 
L 2781 2828 
L 2781 3241 
z
M 113 84 
Q 944 197 2175 428 
Q 2138 91 2131 -34 
Q 1425 -147 225 -391 
L 113 84 
z
M 3044 1284 
L 3500 1091 
Q 3081 203 2688 -428 
Q 2469 -309 2238 -197 
Q 2681 466 3044 1284 
z
M 5081 1059 
L 5506 1278 
Q 5931 641 6344 -134 
L 5888 -384 
Q 5469 441 5081 1059 
z
" transform="scale(0.015625)"/>
       <path id="MicrosoftYaHei-5408" d="M 1025 1909 
L 5381 1909 
L 5381 -866 
L 4881 -866 
L 4881 -447 
L 1525 -447 
L 1525 -878 
L 1025 -878 
L 1025 1909 
z
M 3700 5234 
L 3550 5053 
Q 4594 3697 6319 3009 
Q 6125 2734 5988 2509 
Q 5481 2753 5025 3059 
L 5025 2703 
L 1369 2703 
L 1369 3016 
Q 913 2716 394 2428 
Q 269 2641 81 2897 
Q 2013 3866 3000 5234 
L 3700 5234 
z
M 4881 1453 
L 1525 1453 
L 1525 -3 
L 4881 -3 
L 4881 1453 
z
M 3219 4691 
Q 2581 3872 1550 3147 
L 4894 3147 
Q 3944 3797 3219 4691 
z
" transform="scale(0.015625)"/>
       <path id="MicrosoftYaHei-4efd" d="M 2269 2653 
L 5394 2653 
Q 5388 2566 5300 366 
Q 5275 -709 4319 -722 
Q 3806 -722 3425 -703 
Q 3394 -416 3331 -184 
Q 3763 -241 4200 -253 
Q 4806 -297 4813 422 
Q 4863 1259 4888 2216 
L 3481 2216 
Q 3463 1222 3181 572 
Q 2844 -172 2019 -822 
Q 1856 -622 1656 -416 
Q 2450 203 2713 772 
Q 2969 1275 2997 2216 
L 2269 2216 
L 2269 2653 
z
M 75 2353 
Q 969 3534 1525 5284 
L 2013 5116 
Q 1709 4284 1350 3559 
L 1350 -809 
L 875 -809 
L 875 2691 
Q 588 2216 275 1797 
Q 181 2066 75 2353 
z
M 4006 5116 
L 4419 5291 
Q 5038 3703 6325 2972 
Q 6088 2697 5969 2516 
Q 4575 3472 4006 5116 
z
M 1588 2741 
Q 2563 3597 3163 5034 
L 3606 4866 
Q 3025 3409 1963 2397 
Q 1738 2628 1588 2741 
z
" transform="scale(0.015625)"/>
       <path id="MicrosoftYaHei-989d" d="M 863 2484 
L 1094 2834 
Q 1463 2653 1794 2491 
Q 2119 2809 2344 3203 
L 1125 3203 
Q 794 2659 419 2247 
Q 281 2397 125 2547 
Q 719 3172 1100 4072 
L 1513 3934 
Q 1425 3747 1331 3578 
L 2844 3578 
L 2844 3222 
Q 2588 2703 2194 2291 
Q 2738 2016 3194 1778 
L 2938 1372 
Q 2406 1678 1850 1978 
Q 1381 1597 763 1322 
L 2756 1322 
L 2756 -684 
L 2344 -684 
L 2344 -416 
L 1063 -416 
L 1063 -734 
L 650 -734 
L 650 1272 
Q 463 1197 269 1128 
Q 188 1297 63 1509 
Q 869 1766 1444 2191 
Q 1156 2334 863 2484 
z
M 3369 3728 
L 4281 3728 
L 4425 4516 
L 3244 4516 
L 3244 4941 
L 6231 4941 
L 6231 4516 
L 4906 4516 
L 4738 3728 
L 6038 3728 
L 6038 591 
L 5600 591 
L 5600 3303 
L 3806 3303 
L 3806 591 
L 3369 591 
L 3369 3728 
z
M 4481 2916 
L 4931 2916 
Q 4944 1322 4788 709 
Q 5688 78 6356 -453 
L 6044 -853 
Q 5438 -303 4619 291 
Q 4231 -416 3169 -916 
Q 3044 -734 2869 -516 
Q 4019 -3 4294 716 
Q 4519 1216 4481 2916 
z
M 250 4591 
L 1538 4591 
Q 1413 4872 1244 5172 
L 1650 5347 
Q 1881 4916 2031 4591 
L 3138 4591 
L 3138 3709 
L 2713 3709 
L 2713 4216 
L 675 4216 
L 675 3709 
L 250 3709 
L 250 4591 
z
M 2344 934 
L 1063 934 
L 1063 -28 
L 2344 -28 
L 2344 934 
z
" transform="scale(0.015625)"/>
       <path id="DejaVuSans-Oblique-4c" d="M 1075 4666 
L 1709 4666 
L 909 525 
L 3181 525 
L 3078 0 
L 172 0 
L 1075 4666 
z
" transform="scale(0.015625)"/>
       <path id="DejaVuSans-Oblique-41" d="M 2356 4666 
L 3072 4666 
L 3938 0 
L 3278 0 
L 3084 1197 
L 984 1197 
L 325 0 
L -341 0 
L 2356 4666 
z
M 2584 4044 
L 1275 1722 
L 2988 1722 
L 2584 4044 
z
" transform="scale(0.015625)"/>
      </defs>
      <use xlink:href="#MicrosoftYaHei-5e73" transform="translate(0 0.671875)"/>
      <use xlink:href="#MicrosoftYaHei-53f0" transform="translate(100 0.671875)"/>
      <use xlink:href="#MicrosoftYaHei-20" transform="translate(200 0.671875)"/>
      <use xlink:href="#MicrosoftYaHei-41" transform="translate(229.589844 0.671875)"/>
      <use xlink:href="#MicrosoftYaHei-20" transform="translate(299.951172 0.671875)"/>
      <use xlink:href="#MicrosoftYaHei-6700" transform="translate(329.541016 0.671875)"/>
      <use xlink:href="#MicrosoftYaHei-7ec8" transform="translate(429.541016 0.671875)"/>
      <use xlink:href="#MicrosoftYaHei-7efc" transform="translate(529.541016 0.671875)"/>
      <use xlink:href="#MicrosoftYaHei-5408" transform="translate(629.541016 0.671875)"/>
      <use xlink:href="#MicrosoftYaHei-4efd" transform="translate(729.541016 0.671875)"/>
      <use xlink:href="#MicrosoftYaHei-989d" transform="translate(829.541016 0.671875)"/>
      <use xlink:href="#MicrosoftYaHei-20" transform="translate(929.541016 0.671875)"/>
      <use xlink:href="#MicrosoftYaHei-20" transform="translate(959.130859 0.671875)"/>
      <use xlink:href="#DejaVuSans-Oblique-4c" transform="translate(988.720703 0.671875)"/>
      <use xlink:href="#DejaVuSans-Oblique-41" transform="translate(1044.433594 -15.734375) scale(0.7)"/>
     </g>
    </g>
   </g>
   <g id="line2d_25">
    <path d="M 51.827953 170.911868 
L 638.920887 170.911868 
" clip-path="url(#p18e8594b9f)" style="fill: none; stroke-dasharray: 4.6,4.6; stroke-dashoffset: 0; stroke: #687070; stroke-opacity: 0.7; stroke-width: 1.15"/>
   </g>
   <g id="line2d_26">
    <path d="M 51.827953 308.407886 
L 57.698882 283.64344 
L 63.569812 79.165878 
L 69.440741 73.70038 
L 75.31167 69.405291 
L 81.1826 65.918496 
L 87.053529 63.025352 
L 92.924459 60.586762 
L 98.795388 58.506965 
L 104.666317 56.716872 
L 110.537247 55.164792 
L 116.408176 53.811155 
L 122.279105 52.624789 
L 128.150035 51.580805 
L 134.020964 50.658895 
L 139.891893 49.842426 
L 145.762823 49.11754 
L 151.633752 48.47252 
L 157.504681 47.897509 
L 163.375611 47.384066 
L 169.24654 46.924939 
L 175.117469 46.513863 
L 180.988399 46.145398 
L 186.859328 45.814756 
L 192.730257 45.517852 
L 198.601187 45.251016 
L 204.472116 45.011038 
L 210.343045 44.795082 
L 216.213975 44.600637 
L 222.084904 44.425471 
L 227.955833 44.267608 
L 233.826763 44.125272 
L 239.697692 43.996899 
L 245.568621 43.881078 
L 251.439551 43.776556 
L 257.31048 43.682204 
L 263.181409 43.597014 
L 269.052339 43.520079 
L 274.923268 43.450588 
L 280.794197 43.387808 
L 286.665127 43.331084 
L 292.536056 43.279823 
L 298.406985 43.233494 
L 304.277915 43.191619 
L 310.148844 43.153766 
L 316.019773 43.119543 
L 321.890703 43.088602 
L 327.761632 43.060625 
L 333.632561 43.035327 
L 339.503491 43.012448 
L 345.37442 42.991756 
L 351.245349 42.973041 
L 357.116279 42.956114 
L 362.987208 42.940804 
L 368.858138 42.926956 
L 374.729067 42.91443 
L 380.599996 42.903099 
L 386.470926 42.892849 
L 392.341855 42.883576 
L 398.212784 42.875188 
L 404.083714 42.867604 
L 409.954643 42.860739 
L 415.825572 42.854528 
L 421.696502 42.848909 
L 427.567431 42.843825 
L 433.43836 42.839226 
L 439.30929 42.835064 
L 445.180219 42.831299 
L 451.051148 42.827893 
L 456.922078 42.824811 
L 462.793007 42.822022 
L 468.663936 42.819499 
L 474.534866 42.817217 
L 480.405795 42.815151 
L 486.276724 42.813282 
L 492.147654 42.811591 
L 498.018583 42.810062 
L 503.889512 42.808677 
L 509.760442 42.807425 
L 515.631371 42.806291 
L 521.5023 42.805266 
L 527.37323 42.804338 
L 533.244159 42.803499 
L 539.115088 42.802739 
L 544.986018 42.802052 
L 550.856947 42.80143 
L 556.727876 42.800867 
L 562.598806 42.800358 
L 568.469735 42.799897 
L 574.340664 42.799481 
L 580.211594 42.799103 
L 586.082523 42.798762 
L 591.953452 42.798453 
L 597.824382 42.798174 
L 603.695311 42.797921 
L 609.56624 42.797692 
L 615.43717 42.797485 
L 621.308099 42.797298 
L 627.179029 42.797129 
L 633.049958 42.796973 
L 638.920887 42.796832 
" clip-path="url(#p18e8594b9f)" style="fill: none; stroke: #557c83; stroke-width: 2.7; stroke-linecap: round"/>
   </g>
   <g id="line2d_27">
    <path d="M 51.827953 362.543478 
L 57.698882 362.485085 
L 63.569812 362.420254 
L 69.440741 362.348238 
L 75.31167 362.268195 
L 81.1826 362.179172 
L 87.053529 362.080092 
L 92.924459 361.969726 
L 98.795388 361.846678 
L 104.666317 361.709347 
L 110.537247 361.555895 
L 116.408176 361.3842 
L 122.279105 361.191802 
L 128.150035 360.975826 
L 134.020964 360.732897 
L 139.891893 360.459015 
L 145.762823 360.149403 
L 151.633752 359.79829 
L 157.504681 42.883769 
L 163.375611 42.875348 
L 169.24654 42.867725 
L 175.117469 42.860836 
L 180.988399 42.854607 
L 186.859328 42.84897 
L 192.730257 42.843882 
L 198.601187 42.839264 
L 204.472116 42.835095 
L 210.343045 42.831322 
L 216.213975 42.827909 
L 222.084904 42.824823 
L 227.955833 42.822044 
L 233.826763 42.819511 
L 239.697692 42.817219 
L 245.568621 42.815152 
L 251.439551 42.813282 
L 257.31048 42.811599 
L 263.181409 42.81006 
L 269.052339 42.808673 
L 274.923268 42.807419 
L 280.794197 42.806296 
L 286.665127 42.80527 
L 292.536056 42.804337 
L 298.406985 42.803491 
L 304.277915 42.802731 
L 310.148844 42.802044 
L 316.019773 42.801422 
L 321.890703 42.800859 
L 327.761632 42.80035 
L 333.632561 42.799896 
L 339.503491 42.799478 
L 345.37442 42.799101 
L 351.245349 42.79876 
L 357.116279 42.798456 
L 362.987208 42.798176 
L 368.858138 42.79792 
L 374.729067 42.79769 
L 380.599996 42.797481 
L 386.470926 42.797291 
L 392.341855 42.797126 
L 398.212784 42.796977 
L 404.083714 42.796841 
L 409.954643 42.796713 
L 415.825572 42.796603 
L 421.696502 42.796496 
L 427.567431 42.7964 
L 433.43836 42.796316 
L 439.30929 42.796253 
L 445.180219 42.796156 
L 451.051148 42.796101 
L 456.922078 42.796037 
L 462.793007 42.795985 
L 468.663936 42.795938 
L 474.534866 42.7959 
L 480.405795 42.795858 
L 486.276724 42.795823 
L 492.147654 42.795897 
L 498.018583 42.795859 
L 503.889512 42.795771 
L 509.760442 42.795884 
L 515.631371 42.795771 
L 521.5023 42.795766 
L 527.37323 42.795767 
L 533.244159 42.795793 
L 539.115088 42.795695 
L 544.986018 42.795788 
L 550.856947 42.79568 
L 556.727876 42.795728 
L 562.598806 42.795688 
L 568.469735 42.79567 
L 574.340664 42.79567 
L 580.211594 42.79566 
L 586.082523 42.795629 
L 591.953452 42.795636 
L 597.824382 42.795578 
L 603.695311 42.795615 
L 609.56624 42.795597 
L 615.43717 42.795563 
L 621.308099 42.79559 
L 627.179029 42.79558 
L 633.049958 42.795535 
L 638.920887 42.79554 
" clip-path="url(#p18e8594b9f)" style="fill: none; stroke: #2f9c5b; stroke-width: 2.7; stroke-linecap: round"/>
   </g>
   <g id="patch_4">
    <path d="M 51.827953 363.086411 
L 51.827953 36.389687 
" style="fill: none; stroke: #a9a197; stroke-width: 0.8; stroke-linejoin: miter; stroke-linecap: square"/>
   </g>
   <g id="patch_5">
    <path d="M 51.827953 363.086411 
L 638.920887 363.086411 
" style="fill: none; stroke: #a9a197; stroke-width: 0.8; stroke-linejoin: miter; stroke-linecap: square"/>
   </g>
   <g id="text_15">
    <!-- 网络效应越弱 -->
    <g style="fill: #557c83" transform="translate(68.266555 116.591691) scale(0.105 -0.105)">
     <defs>
      <path id="MicrosoftYaHei-7f51" d="M 1075 3641 
L 1444 3834 
Q 1816 3244 2184 2628 
Q 2488 3281 2706 3928 
L 3131 3772 
Q 2822 2931 2450 2175 
Q 2809 1563 3163 922 
L 2738 697 
Q 2478 1191 2203 1691 
Q 1819 969 1375 328 
L 1000 544 
L 1000 -759 
L 531 -759 
L 531 4953 
L 5856 4953 
L 5856 -59 
Q 5856 -728 5138 -728 
Q 4738 -728 4181 -716 
Q 4150 -516 4094 -228 
Q 4619 -272 4988 -272 
Q 5388 -272 5388 72 
L 5388 4503 
L 1000 4503 
L 1000 572 
Q 1538 1363 1947 2150 
Q 1531 2891 1075 3641 
z
M 3156 3341 
L 3519 3553 
Q 3831 3047 4166 2481 
Q 4525 3197 4775 3891 
L 5200 3728 
Q 4847 2838 4428 2028 
Q 4822 1353 5244 597 
L 4825 359 
Q 4513 953 4175 1559 
Q 3788 866 3350 241 
L 2969 484 
Q 3506 1263 3919 2016 
Q 3553 2672 3156 3341 
z
" transform="scale(0.015625)"/>
      <path id="MicrosoftYaHei-7edc" d="M 2244 3241 
Q 3013 4303 3394 5366 
L 3863 5209 
Q 3741 4922 3609 4653 
L 5844 4653 
L 5844 4209 
Q 5391 3431 4694 2831 
Q 5297 2463 6313 2166 
Q 6188 1947 6063 1628 
Q 5028 1988 4294 2528 
Q 3453 1941 2431 1553 
Q 2300 1766 2131 1991 
Q 3091 2316 3906 2853 
Q 3441 3291 3166 3813 
Q 2881 3328 2569 2909 
Q 2450 3047 2244 3241 
z
M 2725 1584 
L 5813 1584 
L 5813 -847 
L 5331 -847 
L 5331 -534 
L 3206 -534 
L 3206 -847 
L 2725 -847 
L 2725 1584 
z
M 900 1616 
Q 1550 1678 2131 1759 
Q 2106 1478 2088 1334 
Q 981 1197 350 1103 
L 250 1559 
Q 609 1822 1256 2941 
Q 659 2900 288 2866 
L 163 3278 
Q 763 4197 1181 5297 
L 1669 5122 
Q 1250 4228 694 3316 
Q 941 3316 1475 3328 
Q 1703 3741 1963 4247 
L 2425 4047 
Q 1675 2716 900 1616 
z
M 5331 1134 
L 3206 1134 
L 3206 -84 
L 5331 -84 
L 5331 1134 
z
M 5275 4228 
L 3419 4228 
Q 3756 3584 4284 3125 
Q 4888 3609 5275 4228 
z
M 163 153 
Q 1200 353 2325 616 
Q 2300 316 2300 141 
Q 1300 -84 300 -341 
L 163 153 
z
" transform="scale(0.015625)"/>
      <path id="MicrosoftYaHei-6548" d="M 4088 5334 
L 4581 5253 
Q 4453 4653 4259 4122 
L 6269 4122 
L 6269 3697 
L 5838 3697 
Q 5672 1869 5050 841 
Q 5572 128 6388 -347 
Q 6188 -622 6050 -841 
Q 5250 -313 4728 391 
Q 4153 -328 3300 -891 
Q 3163 -709 2944 -497 
Q 3872 125 4428 853 
Q 3897 1797 3753 3025 
Q 3603 2766 3431 2528 
Q 3300 2716 3119 2928 
Q 3844 3941 4088 5334 
z
M 694 1909 
L 1031 2203 
Q 1456 1800 1863 1394 
Q 2138 1847 2350 2378 
L 2800 2141 
Q 2538 1550 2209 1047 
Q 2659 591 3088 134 
L 2669 -222 
Q 2275 225 1913 625 
Q 1250 -238 356 -809 
Q 238 -641 31 -397 
Q 947 128 1584 981 
Q 1113 1491 694 1909 
z
M 5344 3697 
L 4125 3697 
Q 4222 2322 4741 1338 
Q 5263 2306 5344 3697 
z
M 175 4297 
L 3325 4297 
L 3325 3872 
L 175 3872 
L 175 4297 
z
M 1063 3628 
L 1475 3372 
Q 963 2641 413 1953 
Q 256 2084 44 2241 
Q 506 2797 1063 3628 
z
M 2344 3609 
Q 2744 3197 3263 2591 
L 2894 2278 
Q 2506 2759 2006 3341 
L 2344 3609 
z
M 1306 5141 
L 1731 5359 
Q 1988 4953 2206 4547 
L 1769 4322 
Q 1544 4772 1306 5141 
z
" transform="scale(0.015625)"/>
      <path id="MicrosoftYaHei-5e94" d="M 2969 5134 
L 3425 5378 
Q 3694 5034 3938 4634 
L 3634 4459 
L 6169 4459 
L 6169 3984 
L 1300 3984 
L 1300 2453 
Q 1300 241 388 -853 
Q 238 -647 25 -422 
Q 775 416 775 2441 
L 775 4459 
L 3419 4459 
Q 3216 4803 2969 5134 
z
M 1263 -9 
L 4153 -9 
Q 4641 1238 5188 3403 
L 5731 3253 
Q 5147 1191 4694 -9 
L 6238 -9 
L 6238 -484 
L 1263 -484 
L 1263 -9 
z
M 1600 3059 
L 2075 3222 
Q 2463 2084 2825 672 
L 2294 509 
Q 2006 1747 1600 3059 
z
M 3106 3372 
L 3588 3509 
Q 3913 2384 4163 991 
L 3613 847 
Q 3431 2084 3106 3372 
z
" transform="scale(0.015625)"/>
      <path id="MicrosoftYaHei-8d8a" d="M 119 -334 
Q 600 534 619 2241 
L 1050 2216 
Q 1044 1597 981 1072 
Q 1206 606 1563 316 
L 1563 2616 
L 138 2616 
L 138 3047 
L 1375 3047 
L 1375 3966 
L 356 3966 
L 356 4397 
L 1375 4397 
L 1375 5303 
L 1813 5303 
L 1813 4397 
L 2775 4397 
L 2775 3966 
L 1813 3966 
L 1813 3047 
L 2875 3047 
L 2875 2616 
L 2000 2616 
L 2000 1628 
L 2800 1628 
L 2800 1197 
L 2000 1197 
L 2000 47 
Q 2459 -159 3069 -166 
Q 4519 -184 6313 -141 
Q 6200 -422 6138 -634 
Q 4363 -634 2938 -616 
Q 1456 -594 881 463 
Q 716 -338 381 -853 
Q 256 -559 119 -334 
z
M 3550 409 
Q 4125 956 4553 1563 
Q 4303 2409 4228 3716 
L 3494 3716 
L 3494 1591 
Q 3775 1834 4131 2159 
Q 4169 1916 4225 1697 
Q 3856 1384 3481 1028 
Q 3344 897 3188 697 
L 2875 1016 
Q 3069 1266 3069 1622 
L 3069 4128 
L 4206 4128 
Q 4188 4709 4188 5322 
L 4613 5322 
Q 4606 4753 4631 4128 
L 6175 4128 
L 6175 3716 
L 4653 3716 
Q 4700 2753 4872 2050 
Q 5219 2641 5438 3284 
L 5856 3109 
Q 5516 2241 5038 1506 
Q 5159 1181 5319 934 
Q 5431 747 5538 747 
Q 5631 747 5669 978 
Q 5725 1378 5775 1941 
Q 6063 1834 6206 1784 
Q 6138 1103 6075 766 
Q 5981 228 5600 228 
Q 5263 228 5013 578 
Q 4856 788 4731 1069 
Q 4347 553 3888 116 
Q 3769 259 3550 409 
z
M 4950 5066 
L 5275 5303 
Q 5544 5009 5894 4572 
L 5525 4316 
Q 5206 4766 4950 5066 
z
" transform="scale(0.015625)"/>
      <path id="MicrosoftYaHei-5f31" d="M 3963 3353 
L 3813 2559 
L 6044 2559 
Q 5994 1072 5938 241 
Q 5894 -753 4938 -753 
Q 4456 -753 4075 -734 
Q 4044 -497 3981 -216 
Q 4481 -278 4894 -278 
Q 5431 -278 5463 259 
Q 5519 1034 5550 2128 
L 3281 2128 
L 3594 3784 
L 5388 3784 
L 5388 4559 
L 3400 4559 
L 3400 4991 
L 5856 4991 
L 5856 3147 
L 5388 3147 
L 5388 3353 
L 3963 3353 
z
M 1025 3353 
L 881 2559 
L 2881 2559 
Q 2831 1059 2781 216 
Q 2738 -759 1763 -759 
Q 1381 -759 913 -741 
Q 881 -453 819 -222 
Q 1344 -284 1725 -284 
Q 2281 -284 2306 284 
Q 2369 1066 2394 2128 
L 356 2128 
L 656 3784 
L 2388 3784 
L 2388 4559 
L 375 4559 
L 375 4991 
L 2856 4991 
L 2856 3147 
L 2388 3147 
L 2388 3353 
L 1025 3353 
z
M 3206 528 
Q 4269 778 5231 1066 
Q 5219 747 5213 566 
Q 4419 359 3281 22 
L 3206 528 
z
M 156 503 
Q 1006 659 2144 947 
Q 2125 641 2113 466 
Q 1194 259 213 3 
L 156 503 
z
M 3563 1984 
Q 4094 1784 4756 1491 
Q 4625 1272 4519 1072 
Q 3994 1334 3344 1616 
L 3563 1984 
z
M 731 1984 
Q 1250 1772 1863 1472 
Q 1713 1228 1606 1047 
Q 1038 1372 494 1616 
L 731 1984 
z
" transform="scale(0.015625)"/>
     </defs>
     <use xlink:href="#MicrosoftYaHei-7f51"/>
     <use xlink:href="#MicrosoftYaHei-7edc" x="100"/>
     <use xlink:href="#MicrosoftYaHei-6548" x="200"/>
     <use xlink:href="#MicrosoftYaHei-5e94" x="300"/>
     <use xlink:href="#MicrosoftYaHei-8d8a" x="400"/>
     <use xlink:href="#MicrosoftYaHei-5f31" x="500"/>
    </g>
    <!-- 质量优势越容易突破 -->
    <g style="fill: #557c83" transform="translate(68.266555 129.27405) scale(0.105 -0.105)">
     <defs>
      <path id="MicrosoftYaHei-5bb9" d="M 3550 3147 
Q 3500 3091 3444 3022 
Q 4644 1872 6313 1447 
Q 6106 1134 6006 916 
Q 5594 1066 5225 1247 
L 5225 -859 
L 4725 -859 
L 4725 -578 
L 1669 -578 
L 1669 -859 
L 1169 -859 
L 1169 1191 
Q 763 972 338 797 
Q 225 1028 63 1241 
Q 2000 2059 3025 3228 
L 3550 3147 
z
M 363 4572 
L 3038 4572 
Q 2900 4822 2725 5109 
L 3206 5328 
Q 3438 4972 3644 4572 
L 6031 4572 
L 6031 3522 
L 5525 3522 
L 5525 4122 
L 863 4122 
L 863 3497 
L 363 3497 
L 363 4572 
z
M 4725 934 
L 1669 934 
L 1669 -128 
L 4725 -128 
L 4725 934 
z
M 3163 2684 
Q 2394 1928 1494 1384 
L 4950 1384 
Q 3869 1953 3163 2684 
z
M 2338 3847 
L 2638 3441 
Q 1488 2734 706 2359 
Q 594 2566 419 2791 
Q 1494 3259 2338 3847 
z
M 4006 3841 
Q 4944 3409 5938 2859 
L 5650 2416 
Q 4875 2891 3744 3453 
L 4006 3841 
z
" transform="scale(0.015625)"/>
      <path id="MicrosoftYaHei-6613" d="M 919 5022 
L 5519 5022 
L 5519 2422 
L 5031 2422 
L 5031 2672 
L 919 2672 
L 919 5022 
z
M 113 1091 
Q 1113 1634 1806 2566 
L 2250 2397 
Q 2125 2228 2000 2072 
L 5881 2072 
Q 5825 891 5763 247 
Q 5681 -759 4750 -766 
Q 4231 -772 3669 -766 
Q 3631 -497 3575 -234 
Q 4119 -284 4625 -284 
Q 5213 -284 5275 303 
Q 5344 866 5369 1634 
L 4406 1634 
Q 4025 -9 2188 -891 
Q 2025 -684 1838 -466 
Q 3588 253 3919 1634 
L 2969 1634 
Q 2513 303 556 -453 
Q 394 -247 206 -34 
Q 2050 653 2450 1634 
L 1606 1634 
Q 1075 1097 425 691 
Q 294 878 113 1091 
z
M 1406 3109 
L 5031 3109 
L 5031 3634 
L 1406 3634 
L 1406 3109 
z
M 5031 4584 
L 1406 4584 
L 1406 4072 
L 5031 4072 
L 5031 4584 
z
" transform="scale(0.015625)"/>
      <path id="MicrosoftYaHei-7a81" d="M 119 -378 
Q 2309 91 2763 1453 
L 275 1453 
L 275 1903 
L 2856 1903 
Q 2888 2272 2894 3022 
L 3406 3022 
Q 3406 2316 3363 1903 
L 6150 1903 
L 6150 1453 
L 3528 1453 
Q 4397 94 6313 -253 
Q 6100 -541 5956 -772 
Q 4059 -309 3181 1147 
Q 2600 -347 444 -853 
Q 325 -659 119 -378 
z
M 369 4472 
L 3147 4472 
Q 2972 4809 2756 5141 
L 3238 5359 
Q 3475 5003 3669 4641 
L 3322 4472 
L 6038 4472 
L 6038 3422 
L 5531 3422 
L 5531 4022 
L 869 4022 
L 869 3397 
L 369 3397 
L 369 4472 
z
M 3944 3778 
Q 5163 3278 6238 2722 
L 5988 2259 
Q 4788 2934 3706 3416 
L 3944 3778 
z
M 2413 3784 
L 2713 3422 
Q 1613 2778 450 2303 
Q 331 2491 156 2709 
Q 1163 3066 2413 3784 
z
M 3725 2678 
L 4025 2978 
Q 4550 2597 4838 2347 
L 4488 2016 
Q 4188 2309 3725 2678 
z
" transform="scale(0.015625)"/>
      <path id="MicrosoftYaHei-7834" d="M 2625 4466 
L 4294 4466 
L 4294 5316 
L 4756 5316 
L 4756 4466 
L 6300 4466 
L 6213 3309 
Q 5950 3334 5756 3334 
L 5825 4028 
L 4756 4028 
L 4756 2847 
L 5981 2847 
L 5981 2403 
Q 5725 1253 4959 419 
Q 5534 -50 6381 -291 
Q 6144 -597 6019 -772 
Q 5178 -453 4600 69 
Q 3953 -494 3031 -884 
Q 2919 -691 2713 -459 
Q 3634 -106 4263 419 
Q 3591 1222 3397 2409 
L 3088 2409 
L 3088 2291 
Q 3088 159 2219 -866 
Q 2069 -678 1863 -478 
Q 2625 422 2625 2284 
L 2625 4466 
z
M 31 1684 
Q 725 2822 1056 4291 
L 231 4291 
L 231 4716 
L 2388 4716 
L 2388 4291 
L 1534 4291 
Q 1359 3563 1122 2922 
L 2200 2922 
L 2200 234 
L 1119 234 
L 1119 -234 
L 694 -234 
L 694 1938 
Q 531 1619 350 1328 
Q 231 1466 31 1684 
z
M 5500 2409 
L 3841 2409 
Q 4028 1413 4616 753 
Q 5269 1453 5500 2409 
z
M 3088 2847 
L 4294 2847 
L 4294 4028 
L 3088 4028 
L 3088 2847 
z
M 1775 647 
L 1775 2509 
L 1119 2509 
L 1119 647 
L 1775 647 
z
" transform="scale(0.015625)"/>
     </defs>
     <use xlink:href="#MicrosoftYaHei-8d28"/>
     <use xlink:href="#MicrosoftYaHei-91cf" x="100"/>
     <use xlink:href="#MicrosoftYaHei-4f18" x="200"/>
     <use xlink:href="#MicrosoftYaHei-52bf" x="300"/>
     <use xlink:href="#MicrosoftYaHei-8d8a" x="400"/>
     <use xlink:href="#MicrosoftYaHei-5bb9" x="500"/>
     <use xlink:href="#MicrosoftYaHei-6613" x="600"/>
     <use xlink:href="#MicrosoftYaHei-7a81" x="700"/>
     <use xlink:href="#MicrosoftYaHei-7834" x="800"/>
    </g>
   </g>
   <g id="text_16">
    <!-- 强网络效应下 -->
    <g style="fill: #247b46" transform="translate(333.632561 228.693507) scale(0.105 -0.105)">
     <defs>
      <path id="MicrosoftYaHei-5f3a" d="M 5250 466 
L 5669 666 
Q 6031 28 6363 -641 
L 5894 -878 
Q 5794 -641 5688 -416 
Q 3750 -547 2219 -653 
L 2150 -134 
Q 3088 -97 3969 -59 
L 3969 866 
L 2894 866 
L 2894 622 
L 2431 622 
L 2431 2616 
L 3969 2616 
L 3969 3297 
L 3144 3297 
L 3144 3047 
L 2681 3047 
L 2681 4972 
L 5731 4972 
L 5731 3047 
L 5269 3047 
L 5269 3297 
L 4444 3297 
L 4444 2616 
L 5988 2616 
L 5988 866 
L 4444 866 
L 4444 -41 
Q 4975 -22 5488 3 
Q 5369 241 5250 466 
z
M 425 3466 
L 1650 3466 
L 1650 4516 
L 238 4516 
L 238 4941 
L 2113 4941 
L 2113 2772 
L 1650 2772 
L 1650 3041 
L 831 3041 
L 719 2072 
L 2056 2072 
Q 1994 741 1944 128 
Q 1888 -722 1100 -722 
Q 819 -722 425 -716 
Q 388 -484 325 -216 
Q 731 -247 1019 -247 
Q 1444 -247 1475 191 
Q 1525 828 1563 1647 
L 225 1647 
L 425 3466 
z
M 5269 4547 
L 3144 4547 
L 3144 3722 
L 5269 3722 
L 5269 4547 
z
M 5525 1291 
L 5525 2191 
L 4444 2191 
L 4444 1291 
L 5525 1291 
z
M 2894 1291 
L 3969 1291 
L 3969 2191 
L 2894 2191 
L 2894 1291 
z
" transform="scale(0.015625)"/>
      <path id="MicrosoftYaHei-4e0b" d="M 163 4803 
L 6238 4803 
L 6238 4291 
L 3200 4291 
L 3200 2928 
L 3488 3328 
Q 4919 2484 5888 1809 
L 5519 1303 
Q 4550 2047 3200 2872 
L 3200 -797 
L 2631 -797 
L 2631 4291 
L 163 4291 
L 163 4803 
z
" transform="scale(0.015625)"/>
     </defs>
     <use xlink:href="#MicrosoftYaHei-5f3a"/>
     <use xlink:href="#MicrosoftYaHei-7f51" x="100"/>
     <use xlink:href="#MicrosoftYaHei-7edc" x="200"/>
     <use xlink:href="#MicrosoftYaHei-6548" x="300"/>
     <use xlink:href="#MicrosoftYaHei-5e94" x="400"/>
     <use xlink:href="#MicrosoftYaHei-4e0b" x="500"/>
    </g>
    <!-- 锁定更难逆转 -->
    <g style="fill: #247b46" transform="translate(333.632561 241.375867) scale(0.105 -0.105)">
     <defs>
      <path id="MicrosoftYaHei-9501" d="M 2513 3491 
L 4013 3491 
L 4013 5266 
L 4488 5266 
L 4488 3491 
L 6000 3491 
L 6000 553 
L 5525 553 
L 5525 3053 
L 2988 3053 
L 2988 553 
L 2513 553 
L 2513 3491 
z
M 2263 541 
Q 2269 241 2294 22 
Q 1863 -191 1375 -484 
Q 1263 -547 1113 -697 
L 781 -266 
Q 981 -78 981 203 
L 981 1559 
L 144 1559 
L 144 1991 
L 981 1991 
L 981 2834 
L 563 2834 
L 563 3266 
L 2169 3266 
L 2169 2834 
L 1438 2834 
L 1438 1991 
L 2263 1991 
L 2263 1559 
L 1438 1559 
L 1438 78 
Q 1831 291 2263 541 
z
M 4019 2716 
L 4500 2716 
Q 4506 1191 4369 816 
Q 5381 197 6288 -441 
L 5950 -859 
Q 5081 -178 4188 391 
Q 3638 -516 2238 -928 
Q 2094 -716 1919 -484 
Q 3931 3 3994 1522 
Q 4019 1928 4019 2716 
z
M 69 3384 
Q 663 4228 1038 5316 
L 1506 5159 
Q 1338 4741 1144 4353 
L 2275 4353 
L 2275 3922 
L 919 3922 
Q 644 3416 331 2959 
Q 213 3184 69 3384 
z
M 5000 3884 
Q 5444 4441 5775 4978 
L 6219 4722 
Q 5850 4184 5388 3609 
L 5000 3884 
z
M 2294 4722 
L 2675 4959 
Q 3063 4478 3463 3903 
L 3031 3628 
Q 2675 4222 2294 4722 
z
" transform="scale(0.015625)"/>
      <path id="MicrosoftYaHei-5b9a" d="M 81 -384 
Q 1119 509 1281 2241 
L 1806 2159 
Q 1731 1581 1578 1081 
Q 2063 50 3081 -103 
L 3081 2647 
L 225 2647 
L 225 3116 
L 6163 3116 
L 6163 2647 
L 3600 2647 
L 3600 1634 
L 5775 1634 
L 5775 1172 
L 3600 1172 
L 3600 -138 
Q 4844 -169 6306 -116 
Q 6200 -359 6125 -634 
Q 4594 -653 3450 -616 
Q 2041 -616 1378 528 
Q 1022 -300 413 -872 
Q 269 -628 81 -384 
z
M 450 4566 
L 3116 4566 
Q 2931 4834 2725 5091 
L 3200 5347 
Q 3444 5066 3731 4716 
L 3450 4566 
L 5981 4566 
L 5981 3378 
L 5488 3378 
L 5488 4097 
L 944 4097 
L 944 3384 
L 450 3384 
L 450 4566 
z
" transform="scale(0.015625)"/>
      <path id="MicrosoftYaHei-66f4" d="M 106 -422 
Q 1250 -231 1950 166 
Q 1416 534 981 1134 
L 1309 1384 
L 825 1384 
L 825 4003 
L 3019 4003 
Q 3022 4272 3025 4578 
L 331 4578 
L 331 5016 
L 6069 5016 
L 6069 4578 
L 3506 4578 
Q 3506 4269 3503 4003 
L 5575 4003 
L 5575 1078 
L 5100 1078 
L 5100 1384 
L 3350 1384 
Q 3188 644 2834 244 
Q 4088 -216 6325 -209 
Q 6169 -484 6069 -709 
Q 3588 -641 2422 -100 
Q 1703 -575 394 -866 
Q 269 -647 106 -422 
z
M 1300 2903 
L 3006 2903 
Q 3013 3203 3016 3578 
L 1300 3578 
L 1300 2903 
z
M 3000 2484 
L 1300 2484 
L 1300 1809 
L 2947 1809 
Q 2988 2116 3000 2484 
z
M 3422 1809 
L 5100 1809 
L 5100 2484 
L 3481 2484 
Q 3466 2122 3422 1809 
z
M 5100 3578 
L 3500 3578 
Q 3497 3200 3491 2903 
L 5100 2903 
L 5100 3578 
z
M 2369 453 
Q 2706 744 2866 1384 
L 1334 1384 
Q 1766 784 2369 453 
z
" transform="scale(0.015625)"/>
      <path id="MicrosoftYaHei-96be" d="M 2000 2734 
Q 2775 3891 3131 5284 
L 3594 5141 
Q 3441 4694 3281 4297 
L 4609 4297 
Q 4338 4778 4081 5134 
L 4463 5366 
Q 4744 4991 5069 4503 
L 4697 4297 
L 6125 4297 
L 6125 3866 
L 4763 3866 
L 4763 2897 
L 6000 2897 
L 6000 2466 
L 4763 2466 
L 4763 1497 
L 6000 1497 
L 6000 1066 
L 4763 1066 
L 4763 78 
L 6250 78 
L 6250 -353 
L 3188 -353 
L 3188 -809 
L 2725 -809 
L 2725 3072 
Q 2463 2575 2188 2197 
Q 2106 2453 2000 2734 
z
M 638 3716 
Q 997 2991 1331 2306 
Q 1597 3213 1650 4216 
L 269 4216 
L 269 4666 
L 2131 4666 
L 2131 4241 
Q 2009 2875 1616 1719 
Q 2009 903 2363 147 
L 1913 -109 
Q 1644 503 1378 1094 
Q 984 163 394 -622 
Q 275 -428 88 -166 
Q 734 691 1116 1672 
Q 678 2625 244 3516 
L 638 3716 
z
M 3188 78 
L 4300 78 
L 4300 1066 
L 3188 1066 
L 3188 78 
z
M 3188 1497 
L 4300 1497 
L 4300 2466 
L 3188 2466 
L 3188 1497 
z
M 3188 2897 
L 4300 2897 
L 4300 3866 
L 3188 3866 
L 3188 2897 
z
" transform="scale(0.015625)"/>
      <path id="MicrosoftYaHei-9006" d="M 5244 1209 
L 5244 1553 
L 4150 1553 
Q 3950 541 2606 -159 
Q 2431 72 2269 234 
Q 3438 841 3631 1553 
L 2313 1553 
L 2313 3366 
L 2781 3366 
L 2781 2003 
L 3725 2003 
Q 3775 2553 3769 3778 
L 1988 3778 
L 1988 4228 
L 3156 4228 
Q 2900 4578 2494 5034 
L 2863 5316 
Q 3225 4947 3581 4522 
L 3181 4228 
L 4319 4228 
Q 4750 4759 5069 5303 
L 5538 5028 
Q 5194 4591 4875 4228 
L 6100 4228 
L 6100 3778 
L 4256 3778 
Q 4275 2766 4225 2003 
L 5244 2003 
L 5244 3366 
L 5713 3366 
L 5713 1209 
L 5244 1209 
z
M 2700 -247 
Q 4475 -272 6319 -216 
Q 6306 -253 6113 -697 
Q 4475 -728 2669 -691 
Q 1569 -678 1088 22 
Q 800 -222 356 -778 
L 88 -247 
Q 481 109 863 434 
L 863 2616 
L 150 2616 
L 150 3072 
L 1350 3072 
L 1350 334 
Q 1800 -216 2700 -247 
z
M 725 5234 
Q 1200 4684 1650 4072 
L 1225 3747 
Q 788 4409 344 4953 
L 725 5234 
z
" transform="scale(0.015625)"/>
      <path id="MicrosoftYaHei-8f6c" d="M 3125 584 
L 3406 959 
Q 3925 634 4431 303 
L 5400 1428 
L 3244 1428 
L 3244 1859 
Q 3363 2238 3481 2666 
L 2769 2666 
L 2769 3091 
L 3600 3091 
Q 3703 3484 3809 3916 
L 3063 3916 
L 3063 4341 
L 3913 4341 
Q 4022 4800 4131 5297 
L 4613 5297 
Q 4506 4806 4394 4341 
L 6075 4341 
L 6075 3916 
L 4294 3916 
Q 4188 3491 4084 3091 
L 6300 3091 
L 6300 2666 
L 3969 2666 
Q 3853 2247 3738 1853 
L 6006 1853 
L 6006 1409 
L 4819 50 
Q 5191 -197 5556 -447 
L 5231 -859 
Q 4219 -103 3125 584 
z
M 744 2303 
L 1506 2303 
L 1506 3534 
L 1969 3534 
L 1969 2303 
L 2813 2303 
L 2813 1878 
L 1969 1878 
L 1969 1034 
Q 2441 1100 2944 1172 
Q 2919 953 2900 722 
Q 2431 653 1969 584 
L 1969 -841 
L 1506 -841 
L 1506 516 
Q 825 413 150 309 
L 81 791 
Q 756 872 1506 972 
L 1506 1878 
L 225 1878 
L 225 2297 
Q 553 2994 844 3922 
L 156 3922 
L 156 4347 
L 972 4347 
Q 1109 4819 1238 5347 
L 1750 5247 
Q 1609 4788 1466 4347 
L 2813 4347 
L 2813 3922 
L 1325 3922 
Q 1044 3084 744 2303 
z
" transform="scale(0.015625)"/>
     </defs>
     <use xlink:href="#MicrosoftYaHei-9501"/>
     <use xlink:href="#MicrosoftYaHei-5b9a" x="100"/>
     <use xlink:href="#MicrosoftYaHei-66f4" x="200"/>
     <use xlink:href="#MicrosoftYaHei-96be" x="300"/>
     <use xlink:href="#MicrosoftYaHei-9006" x="400"/>
     <use xlink:href="#MicrosoftYaHei-8f6c" x="500"/>
    </g>
   </g>
   <g id="text_17">
    <!-- 实验 4 补充：不同网络效应下的服务质量逆袭对比 -->
    <g transform="translate(162.122584 20.389687) scale(0.165 -0.165)">
     <defs>
      <path id="MicrosoftYaHei-Bold-5b9e" d="M 4219 3716 
Q 4181 2422 4056 1653 
L 6238 1653 
L 6238 878 
L 3863 878 
Q 3850 841 3813 766 
Q 5019 372 6206 -66 
L 5881 -847 
Q 4619 -316 3369 153 
Q 2550 -616 863 -916 
Q 556 -384 331 -78 
Q 2338 209 2894 878 
L 169 878 
L 169 1653 
L 2144 1653 
Q 1481 2053 931 2328 
L 1319 2934 
Q 1894 2659 2638 2247 
L 2244 1653 
L 3175 1653 
Q 3331 2453 3350 3716 
L 4219 3716 
z
M 300 3078 
L 300 4703 
L 2819 4703 
Q 2700 5009 2606 5228 
L 3675 5341 
Q 3769 5084 3888 4703 
L 6094 4703 
L 6094 3078 
L 5225 3078 
L 5225 3953 
L 1169 3953 
L 1169 3078 
L 300 3078 
z
M 1813 3772 
Q 2469 3484 3163 3134 
L 2769 2497 
Q 2031 2909 1450 3184 
L 1813 3772 
z
" transform="scale(0.015625)"/>
      <path id="MicrosoftYaHei-Bold-9a8c" d="M 1138 4053 
L 969 2491 
L 1419 2491 
L 1563 4241 
L 200 4241 
L 200 4991 
L 2369 4991 
L 2163 2491 
L 2525 2491 
Q 2463 691 2413 203 
Q 2369 -553 1838 -672 
Q 1581 -709 644 -709 
Q 588 -253 519 134 
Q 906 91 1350 78 
Q 1669 78 1694 378 
Q 1731 791 1763 1741 
L 181 1741 
L 400 4053 
L 1138 4053 
z
M 5544 2647 
L 3163 2647 
L 3163 2997 
Q 2944 2797 2706 2603 
Q 2525 2991 2300 3391 
Q 3313 4134 3925 5278 
L 4875 5278 
L 4738 5053 
Q 5469 3984 6381 3466 
Q 6163 3116 5950 2691 
Q 5738 2828 5544 2984 
L 5544 2647 
z
M 2556 116 
L 4694 116 
Q 5063 1253 5250 2303 
L 6025 2103 
Q 5775 1141 5438 116 
L 6213 116 
L 6213 -634 
L 2556 -634 
L 2556 116 
z
M 3263 2172 
Q 3569 1397 3856 503 
L 3175 259 
Q 2981 978 2625 1934 
L 3263 2172 
z
M 4425 2428 
Q 4644 1584 4806 753 
L 4113 584 
Q 3988 1366 3763 2278 
L 4425 2428 
z
M 75 1216 
Q 763 1278 1525 1378 
Q 1531 984 1538 628 
Q 838 541 175 428 
L 75 1216 
z
M 4300 4347 
Q 4013 3897 3544 3384 
L 5113 3384 
Q 4663 3859 4300 4347 
z
" transform="scale(0.015625)"/>
      <path id="MicrosoftYaHei-Bold-20" transform="scale(0.015625)"/>
      <path id="MicrosoftYaHei-Bold-34" d="M 3184 4841 
L 3184 1766 
L 3869 1766 
L 3869 1031 
L 3184 1031 
L 3184 0 
L 2266 0 
L 2266 1031 
L 103 1031 
L 103 1772 
Q 775 2522 1362 3359 
Q 1950 4197 2250 4841 
L 3184 4841 
z
M 997 1766 
L 2266 1766 
L 2266 3541 
Q 2116 3259 1836 2859 
Q 1556 2459 997 1766 
z
" transform="scale(0.015625)"/>
      <path id="MicrosoftYaHei-Bold-8865" d="M 2806 2972 
L 3431 2578 
Q 3084 2116 2728 1688 
L 3338 1284 
L 2819 634 
Q 2350 1006 1925 1325 
L 1925 -866 
L 1056 -866 
L 1056 1528 
Q 713 1181 325 822 
Q 200 1322 44 1766 
Q 944 2491 1569 3309 
L 163 3309 
L 163 4122 
L 1284 4122 
Q 1019 4519 650 4991 
L 1369 5397 
Q 1794 4897 2113 4447 
L 1563 4122 
L 2581 4122 
L 2581 3372 
Q 2297 2941 1925 2488 
L 1925 2194 
Q 2056 2116 2181 2034 
Q 2509 2503 2806 2972 
z
M 4875 3428 
Q 5694 2716 6356 2059 
L 5675 1384 
Q 5150 1975 4569 2566 
L 4569 -866 
L 3663 -866 
L 3663 5297 
L 4569 5297 
L 4569 3156 
L 4875 3428 
z
" transform="scale(0.015625)"/>
      <path id="MicrosoftYaHei-Bold-5145" d="M 4269 3803 
Q 5231 2972 6113 2109 
L 5469 1503 
L 5000 1991 
L 4338 1969 
L 4338 384 
Q 4338 59 4669 59 
L 4913 59 
Q 5188 59 5275 232 
Q 5363 406 5438 1159 
Q 5788 997 6313 816 
Q 6131 -197 5878 -455 
Q 5625 -713 5025 -703 
L 4300 -703 
Q 3463 -703 3463 234 
L 3463 1941 
L 2759 1909 
Q 2603 -241 744 -853 
Q 363 -334 113 -47 
Q 1725 400 1894 1863 
Q 1256 1822 919 1778 
L 594 2522 
Q 1291 2934 2056 3816 
L 213 3816 
L 213 4641 
L 2756 4641 
L 2531 5159 
L 3444 5359 
L 3738 4641 
L 6188 4641 
L 6188 3816 
L 3191 3816 
Q 2634 3206 1956 2609 
Q 2834 2622 4325 2672 
L 3656 3328 
L 4269 3803 
z
" transform="scale(0.015625)"/>
      <path id="MicrosoftYaHei-Bold-ff1a" d="M 1594 3506 
Q 1831 3506 2000 3354 
Q 2169 3203 2169 2981 
Q 2169 2766 2003 2614 
Q 1838 2463 1594 2463 
Q 1353 2463 1189 2616 
Q 1025 2769 1025 2981 
Q 1025 3200 1192 3353 
Q 1359 3506 1594 3506 
z
M 1594 959 
Q 1831 959 2000 806 
Q 2169 653 2169 434 
Q 2169 222 2000 69 
Q 1831 -84 1594 -84 
Q 1356 -84 1190 69 
Q 1025 222 1025 434 
Q 1025 653 1190 806 
Q 1356 959 1594 959 
z
" transform="scale(0.015625)"/>
      <path id="MicrosoftYaHei-Bold-4e0d" d="M 350 4928 
L 6088 4928 
L 6088 4078 
L 3866 4078 
Q 3659 3556 3375 3072 
L 3675 3072 
L 3675 2341 
L 4300 2928 
Q 5144 2178 6338 1078 
L 5606 359 
Q 4809 1284 3675 2316 
L 3675 -853 
L 2731 -853 
L 2731 2141 
Q 1925 1138 725 303 
Q 525 591 88 1128 
Q 2069 2419 2813 4078 
L 350 4078 
L 350 4928 
z
" transform="scale(0.015625)"/>
      <path id="MicrosoftYaHei-Bold-540c" d="M 381 5078 
L 6019 5078 
L 6019 291 
Q 6019 -253 5776 -523 
Q 5534 -794 5107 -801 
Q 4681 -809 4075 -809 
Q 3981 -309 3881 59 
Q 4272 19 4597 19 
Q 4847 19 4950 45 
Q 5053 72 5117 165 
Q 5181 259 5181 416 
L 5181 4297 
L 1219 4297 
L 1219 -797 
L 381 -797 
L 381 5078 
z
M 4875 3078 
L 1525 3078 
L 1525 3791 
L 4875 3791 
L 4875 3078 
z
M 1738 2591 
L 4638 2591 
L 4638 403 
L 2550 403 
L 2550 3 
L 1738 3 
L 1738 2591 
z
M 3825 1103 
L 3825 1891 
L 2550 1891 
L 2550 1103 
L 3825 1103 
z
" transform="scale(0.015625)"/>
      <path id="MicrosoftYaHei-Bold-7f51" d="M 1781 4059 
L 2334 2925 
Q 2581 3484 2800 4091 
L 3222 3897 
L 3556 4047 
L 4063 2950 
Q 4297 3509 4513 4116 
L 5188 3828 
Q 4872 2891 4488 2028 
L 5144 566 
L 4438 216 
L 4059 1128 
Q 3756 528 3425 -34 
Q 3284 75 3147 175 
L 2813 9 
L 2328 1159 
Q 1969 481 1575 -103 
Q 1419 44 1194 228 
L 1194 -809 
L 356 -809 
L 356 5078 
L 6038 5078 
L 6038 278 
Q 6038 -206 5853 -467 
Q 5669 -728 5336 -772 
Q 5003 -816 4094 -816 
Q 4006 -309 3900 59 
Q 4344 16 4800 16 
Q 5200 16 5200 409 
L 5200 4297 
L 1194 4297 
L 1194 3753 
L 1781 4059 
z
M 1194 3628 
L 1194 775 
Q 1584 1381 1928 2066 
Q 1559 2884 1194 3628 
z
M 3216 3088 
Q 2997 2534 2759 2025 
L 3194 1091 
Q 3438 1550 3669 2047 
L 3216 3088 
z
" transform="scale(0.015625)"/>
      <path id="MicrosoftYaHei-Bold-7edc" d="M 1025 3353 
Q 1288 3366 1400 3366 
Q 1644 3791 1900 4334 
L 2638 3997 
Q 2019 2922 1338 1784 
Q 1806 1847 2313 1922 
Q 2269 1503 2263 1147 
Q 975 978 481 859 
L 238 1559 
Q 550 1878 988 2641 
Q 631 2616 325 2578 
L 88 3284 
Q 531 3822 1163 5328 
L 1938 5028 
Q 1488 4172 1025 3353 
z
M 2675 -859 
L 2675 1666 
L 5900 1666 
L 5900 -859 
L 5088 -859 
L 5088 -572 
L 3488 -572 
L 3488 -859 
L 2675 -859 
z
M 238 -497 
L 94 378 
Q 875 459 2463 703 
Q 2425 178 2431 -159 
Q 1038 -353 238 -497 
z
M 5088 884 
L 3488 884 
L 3488 209 
L 5088 209 
L 5088 884 
z
M 2494 3609 
Q 3225 4434 3694 5328 
L 4538 5191 
Q 4394 4934 4244 4703 
L 6038 4703 
L 6038 3953 
Q 5681 3297 5056 2791 
Q 5625 2584 6319 2478 
Q 6188 2009 6131 1666 
Q 5019 1909 4288 2297 
Q 3513 1922 2463 1653 
Q 2288 2134 2150 2397 
Q 2975 2572 3569 2803 
Q 3356 2997 3163 3241 
Q 3006 3084 2894 2972 
Q 2744 3247 2494 3609 
z
M 3781 3972 
Q 3725 3897 3656 3809 
Q 3919 3441 4288 3172 
Q 4800 3509 5063 3972 
L 3781 3972 
z
" transform="scale(0.015625)"/>
      <path id="MicrosoftYaHei-Bold-6548" d="M 1169 2122 
L 1806 1500 
Q 2019 1891 2131 2341 
L 2778 2159 
Q 2425 2663 1944 3203 
L 2550 3634 
Q 2841 3325 3084 3041 
Q 3653 4084 3956 5359 
L 4769 5247 
Q 4666 4809 4506 4366 
L 6294 4366 
L 6294 3534 
L 5931 3534 
Q 5778 1931 5213 928 
Q 5666 353 6319 22 
Q 6100 -278 5788 -809 
Q 5156 -378 4703 216 
Q 4141 -419 3331 -866 
Q 3069 -478 2756 -147 
Q 3644 325 4213 1000 
Q 3863 1697 3688 2556 
Q 3534 2281 3363 2003 
Q 3259 2166 3128 2363 
L 2838 2144 
L 2919 2122 
Q 2725 1472 2394 919 
Q 2791 519 3081 209 
L 2475 -372 
Q 2219 -59 1928 266 
Q 1375 -388 581 -866 
Q 350 -484 56 -91 
Q 856 300 1366 872 
Q 1013 1241 619 1628 
L 1169 2122 
z
M 4713 1772 
Q 5038 2481 5147 3534 
L 4256 3534 
Q 4378 2525 4713 1772 
z
M 200 4553 
L 1388 4553 
Q 1294 4847 1163 5178 
L 2000 5359 
Q 2163 4922 2259 4553 
L 3325 4553 
L 3325 3778 
L 200 3778 
L 200 4553 
z
M 950 3609 
L 1663 3272 
Q 1200 2441 625 1872 
Q 269 2284 75 2466 
Q 588 2984 950 3609 
z
" transform="scale(0.015625)"/>
      <path id="MicrosoftYaHei-Bold-5e94" d="M 1438 2491 
Q 1438 119 794 -866 
Q 506 -597 88 -266 
Q 619 622 613 2603 
L 613 4566 
L 3009 4566 
Q 2894 4853 2781 5116 
L 3788 5353 
Q 3928 5016 4103 4566 
L 6225 4566 
L 6225 3797 
L 1438 3797 
L 1438 2491 
z
M 3013 3309 
L 3794 3541 
Q 4125 2678 4513 1316 
L 3669 1084 
Q 3300 2416 3013 3309 
z
M 1325 316 
L 4300 316 
Q 4681 1541 5200 3453 
L 6069 3228 
Q 5744 2006 5184 316 
L 6250 316 
L 6250 -553 
L 1325 -553 
L 1325 316 
z
M 1475 2984 
L 2225 3303 
Q 2775 2103 3244 828 
L 2406 516 
Q 2006 1684 1475 2984 
z
" transform="scale(0.015625)"/>
      <path id="MicrosoftYaHei-Bold-4e0b" d="M 4038 3372 
Q 5050 2647 6069 1866 
L 5425 1078 
Q 4363 1997 3488 2647 
L 3488 -822 
L 2475 -822 
L 2475 4066 
L 175 4066 
L 175 4947 
L 6213 4947 
L 6213 4066 
L 3488 4066 
L 3488 2822 
L 4038 3372 
z
" transform="scale(0.015625)"/>
      <path id="MicrosoftYaHei-Bold-7684" d="M 1250 5303 
L 2181 5159 
L 1900 4309 
L 2963 4309 
L 2963 3091 
Q 3466 3934 3925 5316 
L 4788 5091 
Q 4650 4675 4494 4278 
L 6106 4278 
L 6034 681 
Q 6019 100 5937 -133 
Q 5856 -366 5684 -512 
Q 5513 -659 5205 -712 
Q 4897 -766 3863 -766 
Q 3769 -216 3625 178 
Q 4088 141 4609 141 
Q 4759 141 4868 175 
Q 4978 209 5048 279 
Q 5119 350 5144 437 
Q 5169 525 5184 1206 
L 5213 2484 
Q 5225 3081 5225 3453 
L 4138 3453 
Q 3931 3016 3700 2603 
Q 3403 2797 2963 2988 
L 2963 -734 
L 2094 -734 
L 2094 -284 
L 1206 -284 
L 1206 -772 
L 338 -772 
L 338 4309 
L 997 4309 
Q 1178 4922 1250 5303 
z
M 2094 3491 
L 1206 3491 
L 1206 2422 
L 2094 2422 
L 2094 3491 
z
M 1206 534 
L 2094 534 
L 2094 1603 
L 1206 1603 
L 1206 534 
z
M 3944 2703 
Q 4394 2166 4913 1397 
L 4125 872 
Q 3650 1653 3219 2203 
L 3944 2703 
z
" transform="scale(0.015625)"/>
      <path id="MicrosoftYaHei-Bold-670d" d="M 6144 2841 
L 6144 2122 
Q 5900 1228 5441 534 
Q 5825 231 6319 34 
Q 6069 -322 5794 -803 
Q 5303 -522 4903 -134 
Q 4509 -541 4013 -853 
Q 3847 -522 3638 -200 
L 3638 -809 
L 2838 -809 
L 2838 5078 
L 6063 5078 
Q 6063 4119 6002 3826 
Q 5941 3534 5781 3367 
Q 5622 3200 5400 3154 
Q 5178 3109 4150 3122 
Q 4094 3491 3988 3884 
Q 4528 3847 4788 3847 
Q 4966 3847 5073 3923 
Q 5181 4000 5181 4341 
L 3638 4341 
L 3638 2841 
L 6144 2841 
z
M 4381 2059 
Q 4566 1541 4863 1138 
Q 5147 1566 5313 2109 
L 3638 2109 
L 3638 44 
Q 4028 250 4338 528 
Q 3950 1078 3688 1772 
L 4381 2059 
z
M 663 -872 
Q 400 -472 88 -159 
Q 322 334 395 946 
Q 469 1559 469 2941 
L 469 5072 
L 2494 5072 
L 2494 22 
Q 2494 -328 2309 -543 
Q 2125 -759 1294 -772 
Q 1213 -316 1075 78 
Q 1281 47 1456 47 
Q 1756 47 1756 409 
L 1756 1184 
L 1188 1184 
Q 1144 -181 663 -872 
z
M 1756 4272 
L 1219 4272 
L 1219 3472 
L 1756 3472 
L 1756 4272 
z
M 1213 1928 
L 1756 1928 
L 1756 2728 
L 1219 2728 
Q 1219 2294 1213 1928 
z
" transform="scale(0.015625)"/>
      <path id="MicrosoftYaHei-Bold-52a1" d="M 5775 4797 
L 5775 4122 
Q 5175 3553 4331 3116 
Q 5219 2919 6300 2897 
Q 6106 2434 5963 2066 
Q 4363 2216 3216 2641 
Q 2006 2213 438 1984 
Q 306 2316 100 2766 
Q 1266 2875 2213 3113 
Q 1772 3378 1434 3700 
Q 1069 3403 656 3147 
Q 444 3434 150 3778 
Q 1363 4472 1956 5328 
L 2900 5328 
Q 2722 5053 2519 4797 
L 5775 4797 
z
M 3259 3444 
Q 3981 3722 4525 4103 
L 2091 4103 
Q 2603 3709 3259 3444 
z
M 2363 2303 
L 3256 2303 
Q 3225 2003 3172 1716 
L 5813 1716 
L 5706 291 
Q 5675 -66 5497 -297 
Q 5319 -528 5009 -639 
Q 4700 -750 3797 -750 
Q 3484 -750 3138 -734 
Q 3081 -366 2938 109 
Q 3628 53 4144 53 
Q 4413 53 4563 134 
Q 4713 216 4748 362 
Q 4784 509 4806 959 
L 2981 959 
Q 2503 -359 681 -859 
Q 438 -528 94 -141 
Q 1531 203 2000 959 
L 313 959 
L 313 1716 
L 2266 1716 
Q 2325 1991 2363 2303 
z
" transform="scale(0.015625)"/>
      <path id="MicrosoftYaHei-Bold-8d28" d="M 1706 3847 
L 3400 3847 
L 3400 4313 
Q 2384 4256 1475 4228 
L 1475 2309 
Q 1475 191 781 -853 
Q 519 -578 81 -209 
Q 625 684 625 2347 
L 625 5016 
Q 3150 4997 5763 5266 
L 6150 4497 
L 4256 4363 
L 4256 3847 
L 6038 3847 
L 6038 3141 
L 4256 3141 
L 4256 2716 
L 5825 2716 
L 5825 541 
L 5013 541 
L 5013 2009 
L 2700 2009 
L 2700 541 
L 1888 541 
L 1888 2716 
L 3400 2716 
L 3400 3141 
L 1706 3141 
L 1706 3847 
z
M 3488 1778 
L 4363 1778 
Q 4347 1203 4197 772 
Q 5091 431 6275 -84 
L 5769 -834 
Q 4819 -297 3869 166 
Q 3269 -522 1756 -859 
Q 1538 -428 1331 -128 
Q 2506 119 2979 478 
Q 3453 838 3488 1778 
z
" transform="scale(0.015625)"/>
      <path id="MicrosoftYaHei-Bold-91cf" d="M 725 5103 
L 5675 5103 
L 5675 3416 
L 725 3416 
L 725 5103 
z
M 4825 4666 
L 1575 4666 
L 1575 4447 
L 4825 4447 
L 4825 4666 
z
M 4825 3853 
L 4825 4072 
L 1575 4072 
L 1575 3853 
L 4825 3853 
z
M 138 3209 
L 6288 3209 
L 6288 2747 
L 138 2747 
L 138 3209 
z
M 113 -184 
L 2781 -184 
L 2781 53 
L 506 53 
L 506 491 
L 2781 491 
L 2781 716 
L 713 716 
L 713 2534 
L 5681 2534 
L 5681 716 
L 3606 716 
L 3606 491 
L 5925 491 
L 5925 53 
L 3606 53 
L 3606 -184 
L 6300 -184 
L 6300 -647 
L 113 -647 
L 113 -184 
z
M 4881 2097 
L 3606 2097 
L 3606 1816 
L 4881 1816 
L 4881 2097 
z
M 1513 1816 
L 2781 1816 
L 2781 2097 
L 1513 2097 
L 1513 1816 
z
M 4881 1153 
L 4881 1434 
L 3606 1434 
L 3606 1153 
L 4881 1153 
z
M 1513 1153 
L 2781 1153 
L 2781 1434 
L 1513 1434 
L 1513 1153 
z
" transform="scale(0.015625)"/>
      <path id="MicrosoftYaHei-Bold-9006" d="M 2988 2241 
L 3581 2241 
Q 3644 2634 3644 3628 
L 1963 3628 
L 1963 4297 
L 2981 4297 
Q 2709 4609 2400 4916 
L 2975 5366 
Q 3325 5072 3806 4572 
L 3459 4297 
L 4197 4297 
Q 4597 4838 4913 5366 
L 5675 4966 
Q 5425 4647 5125 4297 
L 6150 4297 
L 6150 3628 
L 4488 3628 
Q 4475 2734 4431 2241 
L 5113 2241 
L 5113 3359 
L 5925 3359 
L 5925 1222 
L 5113 1222 
L 5113 1578 
L 4281 1578 
Q 3963 684 3069 141 
Q 2769 466 2425 772 
Q 3038 1097 3334 1578 
L 2175 1578 
L 2175 3328 
L 2988 3328 
L 2988 2241 
z
M 950 5234 
Q 1425 4622 1794 4084 
L 1063 3591 
Q 688 4241 281 4822 
L 950 5234 
z
M 6300 128 
Q 6131 -366 6031 -709 
Q 3944 -716 2873 -686 
Q 1803 -656 1238 -97 
L 513 -841 
L 156 109 
Q 500 391 781 641 
L 781 2222 
L 200 2222 
L 200 3016 
L 1600 3016 
L 1600 634 
Q 2088 91 3150 91 
Q 6213 91 6300 128 
z
" transform="scale(0.015625)"/>
      <path id="MicrosoftYaHei-Bold-88ad" d="M 269 4734 
L 2053 4734 
Q 2122 5019 2163 5359 
L 2956 5291 
Q 2913 4994 2856 4734 
L 4131 4734 
Q 4031 4916 3913 5116 
L 4731 5334 
Q 4866 5056 4997 4734 
L 6175 4734 
L 6175 4084 
L 5166 4084 
L 5494 3622 
Q 4809 3259 4103 2988 
Q 4163 2972 4244 2972 
L 5138 2972 
Q 5294 2972 5391 3031 
Q 5488 3091 5519 3195 
Q 5550 3300 5600 3797 
Q 5825 3709 6288 3559 
Q 6250 3294 6179 2975 
Q 6109 2656 5909 2520 
Q 5709 2384 5369 2384 
L 4094 2384 
Q 3488 2384 3275 2706 
Q 2706 2534 2125 2422 
Q 2028 2678 1888 2944 
Q 1388 2513 581 2166 
Q 331 2553 81 2872 
Q 1438 3309 1822 4084 
L 269 4084 
L 269 4734 
z
M 2666 4084 
Q 2419 3441 2063 3106 
Q 2619 3197 3156 3347 
L 3156 4084 
L 2666 4084 
z
M 4991 4084 
L 3931 4084 
L 3931 3603 
Q 4472 3809 4991 4084 
z
M 6025 784 
Q 5641 609 4988 366 
Q 5572 97 6338 -28 
Q 5975 -503 5769 -834 
Q 4513 -484 3788 222 
Q 3734 -172 3731 -447 
Q 2163 -709 1794 -922 
L 1400 -266 
Q 1644 -78 1656 122 
L 1656 228 
Q 1128 -56 481 -322 
Q 313 66 88 441 
Q 1366 819 2219 1372 
L 206 1372 
L 206 2022 
L 2756 2022 
Q 2697 2203 2638 2359 
L 3550 2453 
Q 3603 2297 3688 2022 
L 6244 2022 
L 6244 1372 
L 5628 1372 
L 6025 784 
z
M 4328 784 
Q 4988 1059 5509 1372 
L 3784 1372 
Q 4038 1031 4328 784 
z
M 3053 1188 
Q 2788 944 2450 709 
L 2450 47 
Q 2803 106 3700 316 
Q 3347 684 3053 1188 
z
" transform="scale(0.015625)"/>
      <path id="MicrosoftYaHei-Bold-5bf9" d="M 3050 4234 
L 4850 4234 
L 4850 5309 
L 5744 5309 
L 5744 4234 
L 6319 4234 
L 6319 3409 
L 5744 3409 
L 5744 216 
Q 5744 -250 5539 -490 
Q 5334 -731 4987 -754 
Q 4641 -778 3656 -778 
Q 3594 -359 3450 147 
Q 3931 109 4409 109 
Q 4850 109 4850 516 
L 4850 3409 
L 3050 3409 
L 3050 4234 
z
M 863 3772 
L 1691 2509 
Q 1934 3206 2025 4016 
L 188 4016 
L 188 4834 
L 2900 4834 
L 2900 4028 
Q 2709 2722 2247 1669 
L 3169 278 
L 2394 -228 
L 1781 778 
Q 1269 -47 550 -684 
Q 369 -316 88 153 
Q 816 772 1278 1594 
L 181 3341 
L 863 3772 
z
M 3463 3047 
Q 4069 2278 4588 1528 
L 3844 1041 
Q 3375 1841 2813 2609 
L 3463 3047 
z
" transform="scale(0.015625)"/>
      <path id="MicrosoftYaHei-Bold-6bd4" d="M 5481 4441 
L 6294 3803 
Q 5234 2791 4119 1894 
L 4119 547 
Q 4119 153 4438 153 
L 4875 153 
Q 5119 153 5197 325 
Q 5275 497 5363 1597 
Q 5856 1409 6294 1278 
Q 6231 688 6131 248 
Q 6031 -191 5900 -358 
Q 5769 -525 5511 -617 
Q 5253 -709 4881 -709 
L 4094 -709 
Q 3194 -709 3194 247 
L 3194 5316 
L 4119 5316 
L 4119 3009 
Q 4797 3656 5481 4441 
z
M 1419 5241 
L 1419 3453 
L 2850 3453 
L 2850 2591 
L 1419 2591 
L 1419 372 
L 2869 866 
Q 2856 372 2888 -78 
Q 1500 -503 725 -922 
L 275 -184 
Q 494 -16 494 366 
L 494 5241 
L 1419 5241 
z
" transform="scale(0.015625)"/>
     </defs>
     <use xlink:href="#MicrosoftYaHei-Bold-5b9e"/>
     <use xlink:href="#MicrosoftYaHei-Bold-9a8c" x="100"/>
     <use xlink:href="#MicrosoftYaHei-Bold-20" x="200"/>
     <use xlink:href="#MicrosoftYaHei-Bold-34" x="229.785156"/>
     <use xlink:href="#MicrosoftYaHei-Bold-20" x="291.455078"/>
     <use xlink:href="#MicrosoftYaHei-Bold-8865" x="321.240234"/>
     <use xlink:href="#MicrosoftYaHei-Bold-5145" x="421.240234"/>
     <use xlink:href="#MicrosoftYaHei-Bold-ff1a" x="521.240234"/>
     <use xlink:href="#MicrosoftYaHei-Bold-4e0d" x="621.240234"/>
     <use xlink:href="#MicrosoftYaHei-Bold-540c" x="721.240234"/>
     <use xlink:href="#MicrosoftYaHei-Bold-7f51" x="821.240234"/>
     <use xlink:href="#MicrosoftYaHei-Bold-7edc" x="921.240234"/>
     <use xlink:href="#MicrosoftYaHei-Bold-6548" x="1021.240234"/>
     <use xlink:href="#MicrosoftYaHei-Bold-5e94" x="1121.240234"/>
     <use xlink:href="#MicrosoftYaHei-Bold-4e0b" x="1221.240234"/>
     <use xlink:href="#MicrosoftYaHei-Bold-7684" x="1321.240234"/>
     <use xlink:href="#MicrosoftYaHei-Bold-670d" x="1421.240234"/>
     <use xlink:href="#MicrosoftYaHei-Bold-52a1" x="1521.240234"/>
     <use xlink:href="#MicrosoftYaHei-Bold-8d28" x="1621.240234"/>
     <use xlink:href="#MicrosoftYaHei-Bold-91cf" x="1721.240234"/>
     <use xlink:href="#MicrosoftYaHei-Bold-9006" x="1821.240234"/>
     <use xlink:href="#MicrosoftYaHei-Bold-88ad" x="1921.240234"/>
     <use xlink:href="#MicrosoftYaHei-Bold-5bf9" x="2021.240234"/>
     <use xlink:href="#MicrosoftYaHei-Bold-6bd4" x="2121.240234"/>
    </g>
   </g>
   <g id="PathCollection_1">
    <defs>
     <path id="m6b8f1780ff" d="M 0 3.708099 
C 0.983399 3.708099 1.926654 3.317391 2.622022 2.622022 
C 3.317391 1.926654 3.708099 0.983399 3.708099 0 
C 3.708099 -0.983399 3.317391 -1.926654 2.622022 -2.622022 
C 1.926654 -3.317391 0.983399 -3.708099 0 -3.708099 
C -0.983399 -3.708099 -1.926654 -3.317391 -2.622022 -2.622022 
C -3.317391 -1.926654 -3.708099 -0.983399 -3.708099 0 
C -3.708099 0.983399 -3.317391 1.926654 -2.622022 2.622022 
C -1.926654 3.317391 -0.983399 3.708099 0 3.708099 
z
" style="stroke: #fbfaf6; stroke-width: 1.1"/>
    </defs>
    <g clip-path="url(#p18e8594b9f)">
     <use xlink:href="#m6b8f1780ff" x="63.569812" y="170.911868" style="fill: #557c83; stroke: #fbfaf6; stroke-width: 1.1"/>
    </g>
   </g>
   <g id="PathCollection_2">
    <defs>
     <path id="m0032692b12" d="M 0 3.708099 
C 0.983399 3.708099 1.926654 3.317391 2.622022 2.622022 
C 3.317391 1.926654 3.708099 0.983399 3.708099 0 
C 3.708099 -0.983399 3.317391 -1.926654 2.622022 -2.622022 
C 1.926654 -3.317391 0.983399 -3.708099 0 -3.708099 
C -0.983399 -3.708099 -1.926654 -3.317391 -2.622022 -2.622022 
C -3.317391 -1.926654 -3.708099 -0.983399 -3.708099 0 
C -3.708099 0.983399 -3.317391 1.926654 -2.622022 2.622022 
C -1.926654 3.317391 -0.983399 3.708099 0 3.708099 
z
" style="stroke: #fbfaf6; stroke-width: 1.1"/>
    </defs>
    <g clip-path="url(#p18e8594b9f)">
     <use xlink:href="#m0032692b12" x="157.504681" y="170.911868" style="fill: #2f9c5b; stroke: #fbfaf6; stroke-width: 1.1"/>
    </g>
   </g>
   <g id="legend_1">
    <g id="patch_6">
     <path d="M 504.933387 358.086411 
L 631.920887 358.086411 
Q 633.920887 358.086411 633.920887 356.086411 
L 633.920887 325.436411 
Q 633.920887 323.436411 631.920887 323.436411 
L 504.933387 323.436411 
Q 502.933387 323.436411 502.933387 325.436411 
L 502.933387 356.086411 
Q 502.933387 358.086411 504.933387 358.086411 
z
" style="fill: #fbfaf6; opacity: 0.94; stroke: #d7d0c2; stroke-linejoin: miter"/>
    </g>
    <g id="line2d_28">
     <path d="M 506.933387 332.231723 
L 516.933387 332.231723 
L 526.933387 332.231723 
" style="fill: none; stroke: #557c83; stroke-width: 2.7; stroke-linecap: round"/>
    </g>
    <g id="text_18">
     <!-- α=β=1.0  阈值≈0.10 -->
     <g transform="translate(534.933387 335.731723) scale(0.1 -0.1)">
      <defs>
       <path id="MicrosoftYaHei-3b1" d="M 3425 1756 
Q 3550 1034 3676 781 
Q 3803 528 4000 528 
Q 4094 528 4150 550 
L 4150 19 
Q 3947 -31 3806 -31 
Q 3269 -31 3078 934 
L 3066 934 
Q 2575 -81 1684 -81 
Q 1053 -81 675 401 
Q 297 884 297 1628 
Q 297 2469 733 3003 
Q 1169 3538 1909 3538 
Q 2341 3538 2669 3289 
Q 2997 3041 3159 2600 
L 3175 2600 
L 3453 3456 
L 4088 3456 
L 3425 1756 
z
M 2919 1759 
Q 2647 3038 1931 3038 
Q 1466 3038 1194 2638 
Q 922 2238 922 1663 
Q 922 1150 1151 797 
Q 1381 444 1778 444 
Q 2491 444 2869 1609 
L 2919 1759 
z
" transform="scale(0.015625)"/>
       <path id="MicrosoftYaHei-3d" d="M 3972 2497 
L 788 2497 
L 788 2969 
L 3972 2969 
L 3972 2497 
z
M 3972 1053 
L 788 1053 
L 788 1525 
L 3972 1525 
L 3972 1053 
z
" transform="scale(0.015625)"/>
       <path id="MicrosoftYaHei-3b2" d="M 1156 147 
L 1156 -1619 
L 550 -1619 
L 550 3738 
Q 550 4388 929 4780 
Q 1309 5172 1953 5172 
Q 2556 5172 2904 4859 
Q 3253 4547 3253 4003 
Q 3253 3600 2998 3251 
Q 2744 2903 2331 2772 
L 2331 2759 
Q 2925 2659 3256 2300 
Q 3588 1941 3588 1381 
Q 3588 728 3169 322 
Q 2750 -84 2084 -84 
Q 1581 -84 1156 147 
z
M 1703 2472 
L 1703 2950 
Q 2119 3009 2376 3290 
Q 2634 3572 2634 3931 
Q 2634 4659 1944 4659 
Q 1556 4659 1356 4403 
Q 1156 4147 1156 3691 
L 1156 713 
Q 1622 428 2059 428 
Q 2481 428 2722 665 
Q 2963 903 2963 1353 
Q 2963 2350 1703 2472 
z
" transform="scale(0.015625)"/>
       <path id="MicrosoftYaHei-9608" d="M 3163 703 
Q 3475 947 3731 1234 
Q 3500 1984 3419 3141 
L 1225 3141 
L 1225 3541 
L 3394 3541 
Q 3381 3891 3381 4284 
L 3813 4284 
Q 3819 3891 3838 3541 
L 5313 3541 
L 5313 3141 
L 3856 3141 
Q 3925 2266 4075 1659 
Q 4425 2153 4650 2753 
L 5075 2572 
Q 4725 1791 4231 1166 
Q 4344 872 4488 678 
Q 4706 434 4763 691 
Q 4819 984 4844 1266 
Q 5088 1159 5269 1122 
Q 5194 584 5131 316 
Q 5038 -59 4819 -59 
Q 4469 -59 4106 434 
Q 3994 584 3906 784 
Q 3656 516 3381 284 
Q 3281 528 3163 703 
z
M 2425 4491 
L 2425 4916 
L 5988 4916 
L 5988 -3 
Q 5988 -766 5181 -766 
Q 4819 -766 4356 -753 
Q 4300 -403 4256 -284 
Q 4769 -322 5088 -322 
Q 5544 -322 5544 97 
L 5544 4491 
L 2425 4491 
z
M 1425 2609 
L 3106 2609 
L 3106 909 
L 2700 909 
L 2700 1134 
L 1831 1134 
L 1831 847 
L 1425 847 
L 1425 2609 
z
M 431 4084 
L 875 4084 
L 875 -816 
L 431 -816 
L 431 4084 
z
M 1119 378 
Q 2169 466 3200 578 
Q 3206 347 3213 153 
Q 2256 59 1181 -47 
L 1119 378 
z
M 2700 2234 
L 1831 2234 
L 1831 1509 
L 2700 1509 
L 2700 2234 
z
M 800 4984 
L 1119 5278 
Q 1563 4872 1975 4422 
L 1613 4091 
Q 1213 4566 800 4984 
z
M 4038 4141 
L 4269 4428 
Q 4619 4184 4931 3934 
L 4663 3616 
Q 4444 3809 4038 4141 
z
" transform="scale(0.015625)"/>
       <path id="MicrosoftYaHei-503c" d="M 1619 -216 
L 2250 -216 
L 2250 3653 
L 3725 3653 
L 3725 4222 
L 1913 4222 
L 1913 4647 
L 3725 4647 
L 3725 5309 
L 4200 5309 
L 4200 4647 
L 6169 4647 
L 6169 4222 
L 4200 4222 
L 4200 3653 
L 5713 3653 
L 5713 -216 
L 6306 -216 
L 6306 -641 
L 1619 -641 
L 1619 -216 
z
M 69 2247 
Q 906 3497 1369 5278 
L 1831 5141 
Q 1581 4334 1288 3628 
L 1288 -816 
L 831 -816 
L 831 2666 
Q 563 2166 263 1734 
Q 175 1997 69 2247 
z
M 2713 -216 
L 5250 -216 
L 5250 353 
L 2713 353 
L 2713 -216 
z
M 5250 3241 
L 2713 3241 
L 2713 2678 
L 5250 2678 
L 5250 3241 
z
M 2713 1716 
L 5250 1716 
L 5250 2278 
L 2713 2278 
L 2713 1716 
z
M 2713 753 
L 5250 753 
L 5250 1316 
L 2713 1316 
L 2713 753 
z
" transform="scale(0.015625)"/>
       <path id="MicrosoftYaHei-2248" d="M 4053 3256 
Q 4028 2750 3778 2472 
Q 3528 2194 3094 2194 
Q 2728 2194 2203 2550 
Q 1872 2778 1669 2778 
Q 1203 2778 1184 2191 
L 700 2191 
Q 722 2703 980 2978 
Q 1238 3253 1659 3253 
Q 2019 3253 2456 2959 
Q 2894 2663 3116 2663 
Q 3322 2663 3444 2823 
Q 3566 2984 3572 3256 
L 4053 3256 
z
M 4053 1853 
Q 4028 1347 3778 1067 
Q 3528 788 3094 788 
Q 2725 788 2203 1147 
Q 1878 1369 1669 1369 
Q 1203 1369 1184 784 
L 700 784 
Q 722 1294 980 1572 
Q 1238 1850 1659 1850 
Q 2022 1850 2456 1559 
Q 2906 1256 3116 1256 
Q 3319 1256 3441 1423 
Q 3563 1591 3572 1853 
L 4053 1853 
z
" transform="scale(0.015625)"/>
      </defs>
      <use xlink:href="#MicrosoftYaHei-3b1"/>
      <use xlink:href="#MicrosoftYaHei-3d" x="66.601562"/>
      <use xlink:href="#MicrosoftYaHei-3b2" x="140.771484"/>
      <use xlink:href="#MicrosoftYaHei-3d" x="200.878906"/>
      <use xlink:href="#MicrosoftYaHei-31" x="275.048828"/>
      <use xlink:href="#MicrosoftYaHei-2e" x="333.691406"/>
      <use xlink:href="#MicrosoftYaHei-30" x="357.763672"/>
      <use xlink:href="#MicrosoftYaHei-20" x="416.40625"/>
      <use xlink:href="#MicrosoftYaHei-20" x="445.996094"/>
      <use xlink:href="#MicrosoftYaHei-9608" x="475.585938"/>
      <use xlink:href="#MicrosoftYaHei-503c" x="575.585938"/>
      <use xlink:href="#MicrosoftYaHei-2248" x="675.585938"/>
      <use xlink:href="#MicrosoftYaHei-30" x="749.853516"/>
      <use xlink:href="#MicrosoftYaHei-2e" x="808.496094"/>
      <use xlink:href="#MicrosoftYaHei-31" x="832.568359"/>
      <use xlink:href="#MicrosoftYaHei-30" x="891.210938"/>
     </g>
    </g>
    <g id="line2d_29">
     <path d="M 506.933387 348.056723 
L 516.933387 348.056723 
L 526.933387 348.056723 
" style="fill: none; stroke: #2f9c5b; stroke-width: 2.7; stroke-linecap: round"/>
    </g>
    <g id="text_19">
     <!-- α=β=3.0  阈值≈0.90 -->
     <g transform="translate(534.933387 351.556723) scale(0.1 -0.1)">
      <defs>
       <path id="MicrosoftYaHei-39" d="M 578 656 
Q 978 425 1441 425 
Q 2091 425 2448 937 
Q 2806 1450 2806 2394 
Q 2800 2388 2794 2394 
Q 2475 1788 1722 1788 
Q 1113 1788 713 2206 
Q 313 2625 313 3294 
Q 313 4006 750 4464 
Q 1188 4922 1884 4922 
Q 2606 4922 3012 4355 
Q 3419 3788 3419 2703 
Q 3419 1363 2894 641 
Q 2369 -81 1441 -81 
Q 931 -81 578 84 
L 578 656 
z
M 931 3372 
Q 931 2884 1181 2598 
Q 1431 2313 1872 2313 
Q 2253 2313 2512 2573 
Q 2772 2834 2772 3206 
Q 2772 3728 2514 4070 
Q 2256 4413 1834 4413 
Q 1444 4413 1187 4116 
Q 931 3819 931 3372 
z
" transform="scale(0.015625)"/>
      </defs>
      <use xlink:href="#MicrosoftYaHei-3b1"/>
      <use xlink:href="#MicrosoftYaHei-3d" x="66.601562"/>
      <use xlink:href="#MicrosoftYaHei-3b2" x="140.771484"/>
      <use xlink:href="#MicrosoftYaHei-3d" x="200.878906"/>
      <use xlink:href="#MicrosoftYaHei-33" x="275.048828"/>
      <use xlink:href="#MicrosoftYaHei-2e" x="333.691406"/>
      <use xlink:href="#MicrosoftYaHei-30" x="357.763672"/>
      <use xlink:href="#MicrosoftYaHei-20" x="416.40625"/>
      <use xlink:href="#MicrosoftYaHei-20" x="445.996094"/>
      <use xlink:href="#MicrosoftYaHei-9608" x="475.585938"/>
      <use xlink:href="#MicrosoftYaHei-503c" x="575.585938"/>
      <use xlink:href="#MicrosoftYaHei-2248" x="675.585938"/>
      <use xlink:href="#MicrosoftYaHei-30" x="749.853516"/>
      <use xlink:href="#MicrosoftYaHei-2e" x="808.496094"/>
      <use xlink:href="#MicrosoftYaHei-39" x="832.568359"/>
      <use xlink:href="#MicrosoftYaHei-30" x="891.210938"/>
     </g>
    </g>
   </g>
  </g>
 </g>
 <defs>
  <clipPath id="p18e8594b9f">
   <rect x="51.827953" y="36.389687" width="587.092934" height="326.696723"/>
  </clipPath>
 </defs>
</svg>
