<?xml version="1.0" encoding="utf-8" standalone="no"?>
<!DOCTYPE svg PUBLIC "-//W3C//DTD SVG 1.1//EN"
  "http://www.w3.org/Graphics/SVG/1.1/DTD/svg11.dtd">
<svg xmlns:xlink="http://www.w3.org/1999/xlink" width="656.39952pt" height="418.79952pt" viewBox="0 0 656.39952 418.79952" xmlns="http://www.w3.org/2000/svg" version="1.1">
 <metadata>
  <rdf:RDF xmlns:dc="http://purl.org/dc/elements/1.1/" xmlns:cc="http://creativecommons.org/ns#" xmlns:rdf="http://www.w3.org/1999/02/22-rdf-syntax-ns#">
   <cc:Work>
    <dc:type rdf:resource="http://purl.org/dc/dcmitype/StillImage"/>
    <dc:date>2026-06-05T14:09:26.319231</dc:date>
    <dc:format>image/svg+xml</dc:format>
    <dc:creator>
     <cc:Agent>
      <dc:title>Matplotlib v3.9.2, https://matplotlib.org/</dc:title>
     </cc:Agent>
    </dc:creator>
   </cc:Work>
  </rdf:RDF>
 </metadata>
 <defs>
  <style type="text/css">*{stroke-linejoin: round; stroke-linecap: butt}</style>
 </defs>
 <g id="figure_1">
  <g id="patch_1">
   <path d="M 0 418.79952 
L 656.39952 418.79952 
L 656.39952 0 
L 0 0 
z
" style="fill: #f7f5ef"/>
  </g>
  <g id="axes_1">
   <g id="patch_2">
    <path d="M 51.827953 370.810629 
L 646.120887 370.810629 
L 646.120887 36.549562 
L 51.827953 36.549562 
z
" style="fill: #fbfaf6"/>
   </g>
   <g id="patch_3">
    <path d="M 51.827953 174.186472 
L 646.120887 174.186472 
L 646.120887 43.103701 
L 51.827953 43.103701 
z
" clip-path="url(#pe02fc5b0ef)" style="fill: #2f9c5b; opacity: 0.055"/>
   </g>
   <g id="matplotlib.axis_1">
    <g id="xtick_1">
     <g id="line2d_1">
      <path d="M 51.827953 370.810629 
L 51.827953 36.549562 
" clip-path="url(#pe02fc5b0ef)" style="fill: none; stroke: #d8d1c5; stroke-opacity: 0.34; stroke-width: 0.85; stroke-linecap: square"/>
     </g>
     <g id="line2d_2">
      <defs>
       <path id="m5d5d32e373" d="M 0 0 
L 0 3.5 
" style="stroke: #32383a; stroke-width: 0.8"/>
      </defs>
      <g>
       <use xlink:href="#m5d5d32e373" x="51.827953" y="370.810629" style="fill: #32383a; stroke: #32383a; stroke-width: 0.8"/>
      </g>
     </g>
     <g id="text_1">
      <!-- 0 -->
      <g style="fill: #32383a" transform="translate(48.74932 386.204067) scale(0.105 -0.105)">
       <defs>
        <path id="MicrosoftYaHei-30" d="M 284 2325 
Q 284 3606 709 4264 
Q 1134 4922 1941 4922 
Q 3478 4922 3478 2441 
Q 3478 1216 3045 567 
Q 2613 -81 1831 -81 
Q 1094 -81 689 534 
Q 284 1150 284 2325 
z
M 909 2353 
Q 909 425 1888 425 
Q 2850 425 2850 2384 
Q 2850 4413 1906 4413 
Q 909 4413 909 2353 
z
" transform="scale(0.015625)"/>
       </defs>
       <use xlink:href="#MicrosoftYaHei-30"/>
      </g>
     </g>
    </g>
    <g id="xtick_2">
     <g id="line2d_3">
      <path d="M 170.68654 370.810629 
L 170.68654 36.549562 
" clip-path="url(#pe02fc5b0ef)" style="fill: none; stroke: #d8d1c5; stroke-opacity: 0.34; stroke-width: 0.85; stroke-linecap: square"/>
     </g>
     <g id="line2d_4">
      <g>
       <use xlink:href="#m5d5d32e373" x="170.68654" y="370.810629" style="fill: #32383a; stroke: #32383a; stroke-width: 0.8"/>
      </g>
     </g>
     <g id="text_2">
      <!-- 1 -->
      <g style="fill: #32383a" transform="translate(167.607907 386.204067) scale(0.105 -0.105)">
       <defs>
        <path id="MicrosoftYaHei-31" d="M 1781 0 
L 1781 4141 
Q 1638 3997 1295 3819 
Q 953 3641 663 3569 
L 663 4169 
Q 1047 4275 1484 4508 
Q 1922 4741 2156 4947 
L 2388 4947 
L 2388 0 
L 1781 0 
z
" transform="scale(0.015625)"/>
       </defs>
       <use xlink:href="#MicrosoftYaHei-31"/>
      </g>
     </g>
    </g>
    <g id="xtick_3">
     <g id="line2d_5">
      <path d="M 289.545127 370.810629 
L 289.545127 36.549562 
" clip-path="url(#pe02fc5b0ef)" style="fill: none; stroke: #d8d1c5; stroke-opacity: 0.34; stroke-width: 0.85; stroke-linecap: square"/>
     </g>
     <g id="line2d_6">
      <g>
       <use xlink:href="#m5d5d32e373" x="289.545127" y="370.810629" style="fill: #32383a; stroke: #32383a; stroke-width: 0.8"/>
      </g>
     </g>
     <g id="text_3">
      <!-- 2 -->
      <g style="fill: #32383a" transform="translate(286.466494 386.204067) scale(0.105 -0.105)">
       <defs>
        <path id="MicrosoftYaHei-32" d="M 2666 3572 
Q 2666 3963 2419 4186 
Q 2172 4409 1747 4409 
Q 1447 4409 1140 4256 
Q 834 4103 569 3819 
L 569 4413 
Q 806 4659 1107 4790 
Q 1409 4922 1816 4922 
Q 2472 4922 2872 4570 
Q 3272 4219 3272 3619 
Q 3272 3084 3026 2693 
Q 2781 2303 2188 1894 
Q 1581 1475 1376 1294 
Q 1172 1113 1090 947 
Q 1009 781 1009 544 
L 3416 544 
L 3416 0 
L 372 0 
L 372 241 
Q 372 659 486 951 
Q 600 1244 862 1520 
Q 1125 1797 1681 2184 
Q 2250 2584 2458 2886 
Q 2666 3188 2666 3572 
z
" transform="scale(0.015625)"/>
       </defs>
       <use xlink:href="#MicrosoftYaHei-32"/>
      </g>
     </g>
    </g>
    <g id="xtick_4">
     <g id="line2d_7">
      <path d="M 408.403714 370.810629 
L 408.403714 36.549562 
" clip-path="url(#pe02fc5b0ef)" style="fill: none; stroke: #d8d1c5; stroke-opacity: 0.34; stroke-width: 0.85; stroke-linecap: square"/>
     </g>
     <g id="line2d_8">
      <g>
       <use xlink:href="#m5d5d32e373" x="408.403714" y="370.810629" style="fill: #32383a; stroke: #32383a; stroke-width: 0.8"/>
      </g>
     </g>
     <g id="text_4">
      <!-- 3 -->
      <g style="fill: #32383a" transform="translate(405.325081 386.204067) scale(0.105 -0.105)">
       <defs>
        <path id="MicrosoftYaHei-33" d="M 447 809 
Q 944 425 1569 425 
Q 2069 425 2361 670 
Q 2653 916 2653 1328 
Q 2653 2247 1338 2247 
L 934 2247 
L 934 2753 
L 1319 2753 
Q 2484 2753 2484 3616 
Q 2484 4413 1594 4413 
Q 1084 4413 634 4069 
L 634 4647 
Q 1109 4922 1744 4922 
Q 2363 4922 2738 4598 
Q 3113 4275 3113 3759 
Q 3113 2809 2144 2538 
L 2144 2525 
Q 2669 2469 2973 2155 
Q 3278 1841 3278 1372 
Q 3278 719 2808 319 
Q 2338 -81 1556 -81 
Q 869 -81 447 175 
L 447 809 
z
" transform="scale(0.015625)"/>
       </defs>
       <use xlink:href="#MicrosoftYaHei-33"/>
      </g>
     </g>
    </g>
    <g id="xtick_5">
     <g id="line2d_9">
      <path d="M 527.2623 370.810629 
L 527.2623 36.549562 
" clip-path="url(#pe02fc5b0ef)" style="fill: none; stroke: #d8d1c5; stroke-opacity: 0.34; stroke-width: 0.85; stroke-linecap: square"/>
     </g>
     <g id="line2d_10">
      <g>
       <use xlink:href="#m5d5d32e373" x="527.2623" y="370.810629" style="fill: #32383a; stroke: #32383a; stroke-width: 0.8"/>
      </g>
     </g>
     <g id="text_5">
      <!-- 4 -->
      <g style="fill: #32383a" transform="translate(524.183668 386.204067) scale(0.105 -0.105)">
       <defs>
        <path id="MicrosoftYaHei-34" d="M 2906 4841 
L 2906 1644 
L 3631 1644 
L 3631 1138 
L 2906 1138 
L 2906 0 
L 2313 0 
L 2313 1138 
L 53 1138 
L 53 1616 
Q 656 2294 1265 3178 
Q 1875 4063 2272 4841 
L 2906 4841 
z
M 741 1644 
L 2313 1644 
L 2313 3950 
Q 1988 3366 1616 2817 
Q 1244 2269 741 1644 
z
" transform="scale(0.015625)"/>
       </defs>
       <use xlink:href="#MicrosoftYaHei-34"/>
      </g>
     </g>
    </g>
    <g id="xtick_6">
     <g id="line2d_11">
      <path d="M 646.120887 370.810629 
L 646.120887 36.549562 
" clip-path="url(#pe02fc5b0ef)" style="fill: none; stroke: #d8d1c5; stroke-opacity: 0.34; stroke-width: 0.85; stroke-linecap: square"/>
     </g>
     <g id="line2d_12">
      <g>
       <use xlink:href="#m5d5d32e373" x="646.120887" y="370.810629" style="fill: #32383a; stroke: #32383a; stroke-width: 0.8"/>
      </g>
     </g>
     <g id="text_6">
      <!-- 5 -->
      <g style="fill: #32383a" transform="translate(643.042254 386.204067) scale(0.105 -0.105)">
       <defs>
        <path id="MicrosoftYaHei-35" d="M 3294 1494 
Q 3294 784 2823 350 
Q 2353 -84 1559 -84 
Q 878 -84 544 119 
L 544 744 
Q 1034 425 1544 425 
Q 2050 425 2361 704 
Q 2672 984 2672 1447 
Q 2672 1909 2348 2167 
Q 2025 2425 1434 2425 
Q 978 2425 613 2384 
L 791 4841 
L 3053 4841 
L 3053 4303 
L 1306 4303 
L 1206 2931 
L 1647 2950 
Q 2416 2950 2855 2567 
Q 3294 2184 3294 1494 
z
" transform="scale(0.015625)"/>
       </defs>
       <use xlink:href="#MicrosoftYaHei-35"/>
      </g>
     </g>
    </g>
    <g id="text_7">
     <!-- 补贴强度  b -->
     <g transform="translate(317.067608 408.566676) scale(0.122 -0.122)">
      <defs>
       <path id="MicrosoftYaHei-8865" d="M 163 3616 
L 163 4078 
L 2450 4078 
L 2450 3603 
Q 2106 3072 1700 2591 
L 1700 2228 
Q 1813 2147 1931 2066 
Q 2388 2516 2781 3009 
L 3169 2666 
Q 2681 2222 2256 1841 
Q 2650 1566 3031 1291 
L 2725 872 
Q 2156 1347 1700 1697 
L 1700 -841 
L 1194 -841 
L 1194 2047 
Q 750 1609 244 1228 
Q 163 1509 75 1766 
Q 1181 2597 1875 3616 
L 163 3616 
z
M 3775 5266 
L 4294 5266 
L 4294 3184 
L 4613 3434 
Q 5569 2584 6331 1784 
L 5888 1372 
Q 5194 2203 4294 3053 
L 4294 -841 
L 3775 -841 
L 3775 5266 
z
M 1038 5059 
L 1475 5278 
Q 1706 4909 1963 4422 
L 1500 4184 
Q 1256 4691 1038 5059 
z
" transform="scale(0.015625)"/>
       <path id="MicrosoftYaHei-8d34" d="M 3238 2116 
L 4213 2116 
L 4213 5322 
L 4719 5322 
L 4719 3997 
L 6313 3997 
L 6313 3522 
L 4719 3522 
L 4719 2116 
L 5975 2116 
L 5975 -866 
L 5500 -866 
L 5500 -503 
L 3713 -503 
L 3713 -866 
L 3238 -866 
L 3238 2116 
z
M 431 4997 
L 2831 4997 
L 2831 1078 
L 2381 1078 
L 2381 4541 
L 881 4541 
L 881 1041 
L 431 1041 
L 431 4997 
z
M 5500 1691 
L 3713 1691 
L 3713 -78 
L 5500 -78 
L 5500 1691 
z
M 1406 4022 
L 1856 4022 
L 1856 2691 
Q 1856 1466 1700 809 
L 1931 1016 
Q 2531 366 3050 -216 
L 2631 -553 
Q 2169 53 1650 634 
Q 1438 -78 475 -809 
Q 325 -609 125 -397 
Q 919 122 1169 709 
Q 1406 1203 1406 2509 
L 1406 4022 
z
" transform="scale(0.015625)"/>
       <path id="MicrosoftYaHei-5f3a" d="M 5250 466 
L 5669 666 
Q 6031 28 6363 -641 
L 5894 -878 
Q 5794 -641 5688 -416 
Q 3750 -547 2219 -653 
L 2150 -134 
Q 3088 -97 3969 -59 
L 3969 866 
L 2894 866 
L 2894 622 
L 2431 622 
L 2431 2616 
L 3969 2616 
L 3969 3297 
L 3144 3297 
L 3144 3047 
L 2681 3047 
L 2681 4972 
L 5731 4972 
L 5731 3047 
L 5269 3047 
L 5269 3297 
L 4444 3297 
L 4444 2616 
L 5988 2616 
L 5988 866 
L 4444 866 
L 4444 -41 
Q 4975 -22 5488 3 
Q 5369 241 5250 466 
z
M 425 3466 
L 1650 3466 
L 1650 4516 
L 238 4516 
L 238 4941 
L 2113 4941 
L 2113 2772 
L 1650 2772 
L 1650 3041 
L 831 3041 
L 719 2072 
L 2056 2072 
Q 1994 741 1944 128 
Q 1888 -722 1100 -722 
Q 819 -722 425 -716 
Q 388 -484 325 -216 
Q 731 -247 1019 -247 
Q 1444 -247 1475 191 
Q 1525 828 1563 1647 
L 225 1647 
L 425 3466 
z
M 5269 4547 
L 3144 4547 
L 3144 3722 
L 5269 3722 
L 5269 4547 
z
M 5525 1291 
L 5525 2191 
L 4444 2191 
L 4444 1291 
L 5525 1291 
z
M 2894 1291 
L 3969 1291 
L 3969 2191 
L 2894 2191 
L 2894 1291 
z
" transform="scale(0.015625)"/>
       <path id="MicrosoftYaHei-5ea6" d="M 1550 1216 
L 1550 1628 
L 5469 1628 
L 5469 1222 
Q 4903 613 4147 163 
Q 5050 -200 6263 -309 
L 6019 -797 
Q 4625 -603 3644 -109 
Q 2600 -619 1250 -866 
Q 1150 -666 994 -416 
Q 2231 -222 3166 166 
Q 2497 600 2066 1216 
L 1550 1216 
z
M 1363 3541 
L 2294 3541 
L 2294 4066 
L 2769 4066 
L 2769 3541 
L 4538 3541 
L 4538 4072 
L 5013 4072 
L 5013 3541 
L 6150 3541 
L 6150 3128 
L 5013 3128 
L 5013 1928 
L 4538 1928 
L 4538 2147 
L 2769 2147 
L 2769 1922 
L 2294 1922 
L 2294 3128 
L 1363 3128 
L 1363 3541 
z
M 3025 5172 
L 3481 5391 
Q 3694 5056 3909 4634 
L 6213 4634 
L 6213 4197 
L 1225 4197 
L 1225 2316 
Q 1225 178 394 -872 
Q 238 -666 38 -447 
Q 725 397 738 2347 
L 738 4634 
L 3331 4634 
Q 3188 4909 3025 5172 
z
M 2769 2547 
L 4538 2547 
L 4538 3128 
L 2769 3128 
L 2769 2547 
z
M 4819 1216 
L 2588 1216 
Q 3031 728 3656 391 
Q 4334 741 4819 1216 
z
" transform="scale(0.015625)"/>
       <path id="MicrosoftYaHei-20" transform="scale(0.015625)"/>
       <path id="MicrosoftYaHei-62" d="M 1159 488 
L 1159 0 
L 547 0 
L 547 5116 
L 1159 5116 
L 1159 2859 
L 1172 2859 
Q 1578 3538 2359 3538 
Q 3009 3538 3392 3080 
Q 3775 2622 3775 1828 
Q 3775 953 3345 436 
Q 2916 -81 2200 -81 
Q 1525 -81 1172 488 
L 1159 488 
z
M 1156 1422 
Q 1156 1003 1428 714 
Q 1700 425 2109 425 
Q 2597 425 2872 800 
Q 3147 1175 3147 1838 
Q 3147 2384 2890 2707 
Q 2634 3031 2191 3031 
Q 1741 3031 1448 2709 
Q 1156 2388 1156 1891 
L 1156 1422 
z
" transform="scale(0.015625)"/>
      </defs>
      <use xlink:href="#MicrosoftYaHei-8865"/>
      <use xlink:href="#MicrosoftYaHei-8d34" x="100"/>
      <use xlink:href="#MicrosoftYaHei-5f3a" x="200"/>
      <use xlink:href="#MicrosoftYaHei-5ea6" x="300"/>
      <use xlink:href="#MicrosoftYaHei-20" x="400"/>
      <use xlink:href="#MicrosoftYaHei-20" x="429.589844"/>
      <use xlink:href="#MicrosoftYaHei-62" x="459.179688"/>
     </g>
    </g>
   </g>
   <g id="matplotlib.axis_2">
    <g id="ytick_1">
     <g id="line2d_13">
      <path d="M 51.827953 370.810629 
L 646.120887 370.810629 
" clip-path="url(#pe02fc5b0ef)" style="fill: none; stroke: #d8d1c5; stroke-opacity: 0.34; stroke-width: 0.85; stroke-linecap: square"/>
     </g>
     <g id="line2d_14">
      <defs>
       <path id="m2fb3fa7c25" d="M 0 0 
L -3.5 0 
" style="stroke: #32383a; stroke-width: 0.8"/>
      </defs>
      <g>
       <use xlink:href="#m2fb3fa7c25" x="51.827953" y="370.810629" style="fill: #32383a; stroke: #32383a; stroke-width: 0.8"/>
      </g>
     </g>
     <g id="text_8">
      <!-- 0.0 -->
      <g style="fill: #32383a" transform="translate(29.985219 375.007348) scale(0.105 -0.105)">
       <defs>
        <path id="MicrosoftYaHei-2e" d="M 372 322 
Q 372 491 487 606 
Q 603 722 775 722 
Q 950 722 1065 605 
Q 1181 488 1181 322 
Q 1181 159 1065 42 
Q 950 -75 772 -75 
Q 600 -75 486 42 
Q 372 159 372 322 
z
" transform="scale(0.015625)"/>
       </defs>
       <use xlink:href="#MicrosoftYaHei-30"/>
       <use xlink:href="#MicrosoftYaHei-2e" x="58.642578"/>
       <use xlink:href="#MicrosoftYaHei-30" x="82.714844"/>
      </g>
     </g>
    </g>
    <g id="ytick_2">
     <g id="line2d_15">
      <path d="M 51.827953 305.269244 
L 646.120887 305.269244 
" clip-path="url(#pe02fc5b0ef)" style="fill: none; stroke: #d8d1c5; stroke-opacity: 0.34; stroke-width: 0.85; stroke-linecap: square"/>
     </g>
     <g id="line2d_16">
      <g>
       <use xlink:href="#m2fb3fa7c25" x="51.827953" y="305.269244" style="fill: #32383a; stroke: #32383a; stroke-width: 0.8"/>
      </g>
     </g>
     <g id="text_9">
      <!-- 0.2 -->
      <g style="fill: #32383a" transform="translate(29.985219 309.465962) scale(0.105 -0.105)">
       <use xlink:href="#MicrosoftYaHei-30"/>
       <use xlink:href="#MicrosoftYaHei-2e" x="58.642578"/>
       <use xlink:href="#MicrosoftYaHei-32" x="82.714844"/>
      </g>
     </g>
    </g>
    <g id="ytick_3">
     <g id="line2d_17">
      <path d="M 51.827953 239.727858 
L 646.120887 239.727858 
" clip-path="url(#pe02fc5b0ef)" style="fill: none; stroke: #d8d1c5; stroke-opacity: 0.34; stroke-width: 0.85; stroke-linecap: square"/>
     </g>
     <g id="line2d_18">
      <g>
       <use xlink:href="#m2fb3fa7c25" x="51.827953" y="239.727858" style="fill: #32383a; stroke: #32383a; stroke-width: 0.8"/>
      </g>
     </g>
     <g id="text_10">
      <!-- 0.4 -->
      <g style="fill: #32383a" transform="translate(29.985219 243.924577) scale(0.105 -0.105)">
       <use xlink:href="#MicrosoftYaHei-30"/>
       <use xlink:href="#MicrosoftYaHei-2e" x="58.642578"/>
       <use xlink:href="#MicrosoftYaHei-34" x="82.714844"/>
      </g>
     </g>
    </g>
    <g id="ytick_4">
     <g id="line2d_19">
      <path d="M 51.827953 174.186472 
L 646.120887 174.186472 
" clip-path="url(#pe02fc5b0ef)" style="fill: none; stroke: #d8d1c5; stroke-opacity: 0.34; stroke-width: 0.85; stroke-linecap: square"/>
     </g>
     <g id="line2d_20">
      <g>
       <use xlink:href="#m2fb3fa7c25" x="51.827953" y="174.186472" style="fill: #32383a; stroke: #32383a; stroke-width: 0.8"/>
      </g>
     </g>
     <g id="text_11">
      <!-- 0.6 -->
      <g style="fill: #32383a" transform="translate(29.985219 178.383191) scale(0.105 -0.105)">
       <defs>
        <path id="MicrosoftYaHei-36" d="M 3181 4219 
Q 2803 4413 2391 4413 
Q 1763 4413 1381 3866 
Q 1000 3319 994 2372 
L 1009 2372 
Q 1353 3038 2106 3038 
Q 2734 3038 3109 2628 
Q 3484 2219 3484 1541 
Q 3484 831 3051 375 
Q 2619 -81 1947 -81 
Q 1209 -81 789 495 
Q 369 1072 369 2131 
Q 369 3413 920 4167 
Q 1472 4922 2372 4922 
Q 2888 4922 3181 4781 
L 3181 4219 
z
M 1031 1584 
Q 1031 1106 1286 765 
Q 1541 425 1963 425 
Q 2363 425 2613 719 
Q 2863 1013 2863 1475 
Q 2863 1975 2627 2253 
Q 2391 2531 1956 2531 
Q 1544 2531 1287 2250 
Q 1031 1969 1031 1584 
z
" transform="scale(0.015625)"/>
       </defs>
       <use xlink:href="#MicrosoftYaHei-30"/>
       <use xlink:href="#MicrosoftYaHei-2e" x="58.642578"/>
       <use xlink:href="#MicrosoftYaHei-36" x="82.714844"/>
      </g>
     </g>
    </g>
    <g id="ytick_5">
     <g id="line2d_21">
      <path d="M 51.827953 108.645087 
L 646.120887 108.645087 
" clip-path="url(#pe02fc5b0ef)" style="fill: none; stroke: #d8d1c5; stroke-opacity: 0.34; stroke-width: 0.85; stroke-linecap: square"/>
     </g>
     <g id="line2d_22">
      <g>
       <use xlink:href="#m2fb3fa7c25" x="51.827953" y="108.645087" style="fill: #32383a; stroke: #32383a; stroke-width: 0.8"/>
      </g>
     </g>
     <g id="text_12">
      <!-- 0.8 -->
      <g style="fill: #32383a" transform="translate(29.985219 112.841805) scale(0.105 -0.105)">
       <defs>
        <path id="MicrosoftYaHei-38" d="M 306 1350 
Q 306 1769 556 2122 
Q 806 2475 1200 2625 
Q 884 2803 700 3081 
Q 516 3359 516 3684 
Q 516 4028 692 4312 
Q 869 4597 1183 4759 
Q 1497 4922 1875 4922 
Q 2256 4922 2572 4761 
Q 2888 4600 3063 4315 
Q 3238 4031 3238 3684 
Q 3238 3366 3058 3086 
Q 2878 2806 2559 2625 
Q 2953 2472 3200 2119 
Q 3447 1766 3447 1350 
Q 3447 938 3250 611 
Q 3053 284 2690 103 
Q 2328 -78 1875 -78 
Q 1425 -78 1065 103 
Q 706 284 506 612 
Q 306 941 306 1350 
z
M 906 1378 
Q 906 947 1172 687 
Q 1438 428 1878 428 
Q 2309 428 2582 692 
Q 2856 956 2856 1378 
Q 2856 1778 2579 2051 
Q 2303 2325 1878 2325 
Q 1456 2325 1181 2058 
Q 906 1791 906 1378 
z
M 1081 3634 
Q 1081 3309 1312 3076 
Q 1544 2844 1878 2844 
Q 2206 2844 2445 3078 
Q 2684 3313 2684 3634 
Q 2684 3963 2454 4191 
Q 2225 4419 1878 4419 
Q 1534 4419 1307 4195 
Q 1081 3972 1081 3634 
z
" transform="scale(0.015625)"/>
       </defs>
       <use xlink:href="#MicrosoftYaHei-30"/>
       <use xlink:href="#MicrosoftYaHei-2e" x="58.642578"/>
       <use xlink:href="#MicrosoftYaHei-38" x="82.714844"/>
      </g>
     </g>
    </g>
    <g id="ytick_6">
     <g id="line2d_23">
      <path d="M 51.827953 43.103701 
L 646.120887 43.103701 
" clip-path="url(#pe02fc5b0ef)" style="fill: none; stroke: #d8d1c5; stroke-opacity: 0.34; stroke-width: 0.85; stroke-linecap: square"/>
     </g>
     <g id="line2d_24">
      <g>
       <use xlink:href="#m2fb3fa7c25" x="51.827953" y="43.103701" style="fill: #32383a; stroke: #32383a; stroke-width: 0.8"/>
      </g>
     </g>
     <g id="text_13">
      <!-- 1.0 -->
      <g style="fill: #32383a" transform="translate(29.985219 47.30042) scale(0.105 -0.105)">
       <use xlink:href="#MicrosoftYaHei-31"/>
       <use xlink:href="#MicrosoftYaHei-2e" x="58.642578"/>
       <use xlink:href="#MicrosoftYaHei-30" x="82.714844"/>
      </g>
     </g>
    </g>
    <g id="text_14">
     <!-- 平台 A 最终综合份额  $L_A$ -->
     <g transform="translate(16.952375 270.536096) rotate(-90) scale(0.122 -0.122)">
      <defs>
       <path id="MicrosoftYaHei-5e73" d="M 169 1934 
L 2938 1934 
L 2938 4547 
L 450 4547 
L 450 5028 
L 5975 5028 
L 5975 4547 
L 3463 4547 
L 3463 1934 
L 6250 1934 
L 6250 1453 
L 3463 1453 
L 3463 -847 
L 2938 -847 
L 2938 1453 
L 169 1453 
L 169 1934 
z
M 3950 2559 
Q 4638 3284 5188 4159 
L 5656 3859 
Q 4950 2891 4338 2234 
L 3950 2559 
z
M 769 3859 
L 1163 4134 
Q 1863 3316 2369 2553 
L 1925 2222 
Q 1444 3003 769 3859 
z
" transform="scale(0.015625)"/>
       <path id="MicrosoftYaHei-53f0" d="M 5431 2022 
L 5431 -816 
L 4919 -816 
L 4919 -403 
L 1481 -403 
L 1481 -816 
L 969 -816 
L 969 2022 
L 5431 2022 
z
M 4513 4503 
Q 5494 3591 6369 2634 
L 5925 2266 
Q 5675 2559 5419 2844 
Q 2613 2725 1131 2641 
Q 788 2616 469 2541 
L 263 3078 
Q 550 3184 781 3372 
Q 1850 4247 2738 5391 
L 3206 5103 
Q 2269 4003 1250 3147 
Q 3166 3206 5019 3284 
Q 4591 3750 4150 4191 
L 4513 4503 
z
M 4919 1559 
L 1481 1559 
L 1481 47 
L 4919 47 
L 4919 1559 
z
" transform="scale(0.015625)"/>
       <path id="MicrosoftYaHei-41" d="M 4428 0 
L 3738 0 
L 3244 1325 
L 1228 1325 
L 763 0 
L 72 0 
L 1916 4841 
L 2584 4841 
L 4428 0 
z
M 3050 1872 
L 2319 3884 
Q 2284 3981 2244 4222 
L 2228 4222 
Q 2194 4003 2150 3884 
L 1425 1872 
L 3050 1872 
z
" transform="scale(0.015625)"/>
       <path id="MicrosoftYaHei-6700" d="M 169 -28 
Q 475 3 781 38 
L 781 2416 
L 94 2416 
L 94 2791 
L 6288 2791 
L 6288 2416 
L 3025 2416 
L 3025 331 
Q 3325 375 3625 422 
Q 3619 309 3631 22 
Q 3338 -19 3025 -63 
L 3025 -859 
L 2600 -859 
L 2600 -125 
Q 1525 -278 281 -472 
L 169 -28 
z
M 1038 5053 
L 5363 5053 
L 5363 3047 
L 4925 3047 
L 4925 3191 
L 1475 3191 
L 1475 3047 
L 1038 3047 
L 1038 5053 
z
M 3338 1609 
L 3338 1972 
L 5819 1972 
L 5819 1609 
Q 5500 844 4981 278 
Q 5516 -113 6306 -316 
Q 6144 -553 6025 -753 
Q 5219 -488 4666 -34 
Q 4128 -516 3413 -822 
Q 3306 -634 3125 -428 
Q 3834 -156 4347 266 
Q 3825 825 3603 1609 
L 3338 1609 
z
M 1475 3553 
L 4925 3553 
L 4925 3953 
L 1475 3953 
L 1475 3553 
z
M 4925 4691 
L 1475 4691 
L 1475 4291 
L 4925 4291 
L 4925 4691 
z
M 5344 1609 
L 4025 1609 
Q 4222 994 4659 556 
Q 5094 1013 5344 1609 
z
M 2600 269 
L 2600 691 
L 1206 691 
L 1206 88 
Q 1913 172 2600 269 
z
M 1206 1916 
L 2600 1916 
L 2600 2416 
L 1206 2416 
L 1206 1916 
z
M 1206 1053 
L 2600 1053 
L 2600 1553 
L 1206 1553 
L 1206 1053 
z
" transform="scale(0.015625)"/>
       <path id="MicrosoftYaHei-7ec8" d="M 2156 3234 
Q 2944 4253 3356 5366 
L 3825 5209 
Q 3700 4925 3563 4653 
L 5906 4653 
L 5906 4209 
Q 5425 3378 4663 2750 
Q 5381 2259 6350 2097 
Q 6219 1797 6131 1566 
Q 5038 1875 4278 2456 
Q 3447 1878 2331 1503 
Q 2231 1734 2113 1941 
Q 3156 2238 3931 2756 
Q 3434 3228 3119 3847 
Q 2816 3350 2469 2903 
Q 2350 3041 2156 3234 
z
M 888 1528 
Q 1413 1603 2113 1709 
Q 2075 1466 2056 1241 
Q 1344 1141 319 978 
L 219 1434 
Q 594 1828 1163 2794 
Q 506 2753 219 2728 
L 100 3153 
Q 663 3897 1288 5366 
L 1763 5178 
Q 1156 3991 656 3191 
Q 1047 3200 1403 3209 
Q 1638 3625 1900 4122 
L 2369 3916 
Q 1463 2347 888 1528 
z
M 2625 109 
L 2819 547 
Q 3969 234 5675 -297 
L 5444 -791 
Q 3850 -222 2625 109 
z
M 5356 4234 
L 3372 4234 
Q 3750 3513 4303 3028 
Q 4938 3541 5356 4234 
z
M 88 66 
Q 1069 259 2250 547 
Q 2231 203 2231 78 
Q 1375 -109 225 -416 
L 88 66 
z
M 3338 1247 
L 3525 1666 
Q 4469 1384 5413 1047 
L 5206 553 
Q 4275 953 3338 1247 
z
" transform="scale(0.015625)"/>
       <path id="MicrosoftYaHei-7efc" d="M 881 1578 
Q 1550 1684 2100 1778 
Q 2063 1534 2044 1303 
Q 988 1159 306 1022 
L 194 1484 
Q 678 1988 1188 2756 
Q 581 2719 250 2691 
L 131 3116 
Q 813 4022 1394 5347 
L 1869 5159 
Q 1288 4041 694 3153 
Q 1091 3163 1453 3172 
Q 1691 3566 1938 4016 
L 2400 3784 
Q 1588 2484 881 1578 
z
M 2406 2016 
L 6275 2016 
L 6275 1603 
L 4638 1603 
L 4638 3 
Q 4638 -747 3888 -747 
Q 3631 -747 3213 -741 
Q 3181 -553 3119 -259 
Q 3469 -297 3756 -297 
Q 4163 -297 4163 134 
L 4163 1603 
L 2406 1603 
L 2406 2016 
z
M 2513 4528 
L 4166 4528 
Q 3931 4878 3713 5147 
L 4125 5397 
Q 4431 5041 4650 4716 
L 4347 4528 
L 6194 4528 
L 6194 3522 
L 5731 3522 
L 5731 4116 
L 2975 4116 
L 2975 3522 
L 2513 3522 
L 2513 4528 
z
M 2781 3241 
L 5913 3241 
L 5913 2828 
L 2781 2828 
L 2781 3241 
z
M 113 84 
Q 944 197 2175 428 
Q 2138 91 2131 -34 
Q 1425 -147 225 -391 
L 113 84 
z
M 3044 1284 
L 3500 1091 
Q 3081 203 2688 -428 
Q 2469 -309 2238 -197 
Q 2681 466 3044 1284 
z
M 5081 1059 
L 5506 1278 
Q 5931 641 6344 -134 
L 5888 -384 
Q 5469 441 5081 1059 
z
" transform="scale(0.015625)"/>
       <path id="MicrosoftYaHei-5408" d="M 1025 1909 
L 5381 1909 
L 5381 -866 
L 4881 -866 
L 4881 -447 
L 1525 -447 
L 1525 -878 
L 1025 -878 
L 1025 1909 
z
M 3700 5234 
L 3550 5053 
Q 4594 3697 6319 3009 
Q 6125 2734 5988 2509 
Q 5481 2753 5025 3059 
L 5025 2703 
L 1369 2703 
L 1369 3016 
Q 913 2716 394 2428 
Q 269 2641 81 2897 
Q 2013 3866 3000 5234 
L 3700 5234 
z
M 4881 1453 
L 1525 1453 
L 1525 -3 
L 4881 -3 
L 4881 1453 
z
M 3219 4691 
Q 2581 3872 1550 3147 
L 4894 3147 
Q 3944 3797 3219 4691 
z
" transform="scale(0.015625)"/>
       <path id="MicrosoftYaHei-4efd" d="M 2269 2653 
L 5394 2653 
Q 5388 2566 5300 366 
Q 5275 -709 4319 -722 
Q 3806 -722 3425 -703 
Q 3394 -416 3331 -184 
Q 3763 -241 4200 -253 
Q 4806 -297 4813 422 
Q 4863 1259 4888 2216 
L 3481 2216 
Q 3463 1222 3181 572 
Q 2844 -172 2019 -822 
Q 1856 -622 1656 -416 
Q 2450 203 2713 772 
Q 2969 1275 2997 2216 
L 2269 2216 
L 2269 2653 
z
M 75 2353 
Q 969 3534 1525 5284 
L 2013 5116 
Q 1709 4284 1350 3559 
L 1350 -809 
L 875 -809 
L 875 2691 
Q 588 2216 275 1797 
Q 181 2066 75 2353 
z
M 4006 5116 
L 4419 5291 
Q 5038 3703 6325 2972 
Q 6088 2697 5969 2516 
Q 4575 3472 4006 5116 
z
M 1588 2741 
Q 2563 3597 3163 5034 
L 3606 4866 
Q 3025 3409 1963 2397 
Q 1738 2628 1588 2741 
z
" transform="scale(0.015625)"/>
       <path id="MicrosoftYaHei-989d" d="M 863 2484 
L 1094 2834 
Q 1463 2653 1794 2491 
Q 2119 2809 2344 3203 
L 1125 3203 
Q 794 2659 419 2247 
Q 281 2397 125 2547 
Q 719 3172 1100 4072 
L 1513 3934 
Q 1425 3747 1331 3578 
L 2844 3578 
L 2844 3222 
Q 2588 2703 2194 2291 
Q 2738 2016 3194 1778 
L 2938 1372 
Q 2406 1678 1850 1978 
Q 1381 1597 763 1322 
L 2756 1322 
L 2756 -684 
L 2344 -684 
L 2344 -416 
L 1063 -416 
L 1063 -734 
L 650 -734 
L 650 1272 
Q 463 1197 269 1128 
Q 188 1297 63 1509 
Q 869 1766 1444 2191 
Q 1156 2334 863 2484 
z
M 3369 3728 
L 4281 3728 
L 4425 4516 
L 3244 4516 
L 3244 4941 
L 6231 4941 
L 6231 4516 
L 4906 4516 
L 4738 3728 
L 6038 3728 
L 6038 591 
L 5600 591 
L 5600 3303 
L 3806 3303 
L 3806 591 
L 3369 591 
L 3369 3728 
z
M 4481 2916 
L 4931 2916 
Q 4944 1322 4788 709 
Q 5688 78 6356 -453 
L 6044 -853 
Q 5438 -303 4619 291 
Q 4231 -416 3169 -916 
Q 3044 -734 2869 -516 
Q 4019 -3 4294 716 
Q 4519 1216 4481 2916 
z
M 250 4591 
L 1538 4591 
Q 1413 4872 1244 5172 
L 1650 5347 
Q 1881 4916 2031 4591 
L 3138 4591 
L 3138 3709 
L 2713 3709 
L 2713 4216 
L 675 4216 
L 675 3709 
L 250 3709 
L 250 4591 
z
M 2344 934 
L 1063 934 
L 1063 -28 
L 2344 -28 
L 2344 934 
z
" transform="scale(0.015625)"/>
       <path id="DejaVuSans-Oblique-4c" d="M 1075 4666 
L 1709 4666 
L 909 525 
L 3181 525 
L 3078 0 
L 172 0 
L 1075 4666 
z
" transform="scale(0.015625)"/>
       <path id="DejaVuSans-Oblique-41" d="M 2356 4666 
L 3072 4666 
L 3938 0 
L 3278 0 
L 3084 1197 
L 984 1197 
L 325 0 
L -341 0 
L 2356 4666 
z
M 2584 4044 
L 1275 1722 
L 2988 1722 
L 2584 4044 
z
" transform="scale(0.015625)"/>
      </defs>
      <use xlink:href="#MicrosoftYaHei-5e73" transform="translate(0 0.671875)"/>
      <use xlink:href="#MicrosoftYaHei-53f0" transform="translate(100 0.671875)"/>
      <use xlink:href="#MicrosoftYaHei-20" transform="translate(200 0.671875)"/>
      <use xlink:href="#MicrosoftYaHei-41" transform="translate(229.589844 0.671875)"/>
      <use xlink:href="#MicrosoftYaHei-20" transform="translate(299.951172 0.671875)"/>
      <use xlink:href="#MicrosoftYaHei-6700" transform="translate(329.541016 0.671875)"/>
      <use xlink:href="#MicrosoftYaHei-7ec8" transform="translate(429.541016 0.671875)"/>
      <use xlink:href="#MicrosoftYaHei-7efc" transform="translate(529.541016 0.671875)"/>
      <use xlink:href="#MicrosoftYaHei-5408" transform="translate(629.541016 0.671875)"/>
      <use xlink:href="#MicrosoftYaHei-4efd" transform="translate(729.541016 0.671875)"/>
      <use xlink:href="#MicrosoftYaHei-989d" transform="translate(829.541016 0.671875)"/>
      <use xlink:href="#MicrosoftYaHei-20" transform="translate(929.541016 0.671875)"/>
      <use xlink:href="#MicrosoftYaHei-20" transform="translate(959.130859 0.671875)"/>
      <use xlink:href="#DejaVuSans-Oblique-4c" transform="translate(988.720703 0.671875)"/>
      <use xlink:href="#DejaVuSans-Oblique-41" transform="translate(1044.433594 -15.734375) scale(0.7)"/>
     </g>
    </g>
   </g>
   <g id="line2d_25">
    <path d="M 51.827953 174.186472 
L 646.120887 174.186472 
" clip-path="url(#pe02fc5b0ef)" style="fill: none; stroke-dasharray: 4.6,4.6; stroke-dashoffset: 0; stroke: #687070; stroke-opacity: 0.7; stroke-width: 1.15"/>
   </g>
   <g id="line2d_26">
    <path d="M 51.827953 370.255125 
L 57.770882 370.225317 
L 63.713812 370.192371 
L 69.656741 370.155958 
L 75.59967 370.115713 
L 81.5426 370.071231 
L 87.485529 370.022066 
L 93.428459 369.967725 
L 99.371388 369.907662 
L 105.314317 369.841273 
L 111.257247 369.767891 
L 117.200176 369.686779 
L 123.143105 369.597119 
L 129.086035 369.49801 
L 135.028964 369.388452 
L 140.971893 369.26734 
L 146.914823 369.133452 
L 152.857752 368.985435 
L 158.800681 368.82179 
L 164.743611 368.640858 
L 170.68654 368.440803 
L 176.629469 368.219588 
L 182.572399 367.974956 
L 188.515328 367.704404 
L 194.458257 367.405155 
L 200.401187 367.074122 
L 206.344116 366.707876 
L 212.287045 366.302598 
L 218.229975 365.854034 
L 224.172904 365.35743 
L 230.115833 364.807468 
L 236.058763 364.198177 
L 242.001692 43.387416 
L 247.944621 43.386322 
L 253.887551 43.385322 
L 259.83048 43.38442 
L 265.773409 43.38361 
L 271.716339 43.382872 
L 277.659268 43.382205 
L 283.602197 43.381602 
L 289.545127 43.381057 
L 295.488056 43.380562 
L 301.430985 43.380119 
L 307.373915 43.37971 
L 313.316844 43.379345 
L 319.259773 43.379015 
L 325.202703 43.378719 
L 331.145632 43.378442 
L 337.088561 43.378198 
L 343.031491 43.377977 
L 348.97442 43.377779 
L 354.917349 43.3776 
L 360.860279 43.37743 
L 366.803208 43.377279 
L 372.746138 43.377146 
L 378.689067 43.377025 
L 384.631996 43.376915 
L 390.574926 43.376818 
L 396.517855 43.376735 
L 402.460784 43.376647 
L 408.403714 43.37657 
L 414.346643 43.376501 
L 420.289572 43.376442 
L 426.232502 43.376387 
L 432.175431 43.376337 
L 438.11836 43.376293 
L 444.06129 43.376252 
L 450.004219 43.376218 
L 455.947148 43.376186 
L 461.890078 43.376158 
L 467.833007 43.376122 
L 473.775936 43.376101 
L 479.718866 43.376078 
L 485.661795 43.376062 
L 491.604724 43.376042 
L 497.547654 43.376025 
L 503.490583 43.376009 
L 509.433512 43.375993 
L 515.376442 43.375983 
L 521.319371 43.376009 
L 527.2623 43.375992 
L 533.20523 43.376043 
L 539.148159 43.375968 
L 545.091088 43.375972 
L 551.034018 43.375988 
L 556.976947 43.375995 
L 562.919876 43.375982 
L 568.862806 43.375946 
L 574.805735 43.37592 
L 580.748664 43.375914 
L 586.691594 43.375913 
L 592.634523 43.375913 
L 598.577452 43.375912 
L 604.520382 43.375912 
L 610.463311 43.375911 
L 616.40624 43.375908 
L 622.34917 43.375904 
L 628.292099 43.375901 
L 634.235029 43.375894 
L 640.177958 43.37588 
L 646.120887 43.375874 
" clip-path="url(#pe02fc5b0ef)" style="fill: none; stroke: #557c83; stroke-width: 2.7; stroke-linecap: round"/>
   </g>
   <g id="line2d_27">
    <path d="M 51.827953 370.255125 
L 57.770882 370.225317 
L 63.713812 370.192371 
L 69.656741 370.155958 
L 75.59967 370.115713 
L 81.5426 370.071231 
L 87.485529 370.022066 
L 93.428459 369.967725 
L 99.371388 369.907662 
L 105.314317 369.841273 
L 111.257247 369.767891 
L 117.200176 369.686779 
L 123.143105 369.597119 
L 129.086035 369.49801 
L 135.028964 369.388452 
L 140.971893 369.26734 
L 146.914823 369.133452 
L 152.857752 368.985435 
L 158.800681 368.82179 
L 164.743611 368.640858 
L 170.68654 368.440803 
L 176.629469 368.219588 
L 182.572399 367.974956 
L 188.515328 367.704404 
L 194.458257 367.405155 
L 200.401187 367.074122 
L 206.344116 366.707876 
L 212.287045 366.302598 
L 218.229975 365.854034 
L 224.172904 365.35743 
L 230.115833 364.807468 
L 236.058763 364.198177 
L 242.001692 43.387416 
L 247.944621 43.386322 
L 253.887551 43.385322 
L 259.83048 43.38442 
L 265.773409 43.38361 
L 271.716339 43.382872 
L 277.659268 43.382205 
L 283.602197 43.381602 
L 289.545127 43.381057 
L 295.488056 43.380562 
L 301.430985 43.380119 
L 307.373915 43.37971 
L 313.316844 43.379345 
L 319.259773 43.379015 
L 325.202703 43.378719 
L 331.145632 43.378442 
L 337.088561 43.378198 
L 343.031491 43.377977 
L 348.97442 43.377779 
L 354.917349 43.3776 
L 360.860279 43.37743 
L 366.803208 43.377279 
L 372.746138 43.377146 
L 378.689067 43.377025 
L 384.631996 43.376915 
L 390.574926 43.376818 
L 396.517855 43.376735 
L 402.460784 43.376647 
L 408.403714 43.37657 
L 414.346643 43.376501 
L 420.289572 43.376442 
L 426.232502 43.376387 
L 432.175431 43.376337 
L 438.11836 43.376293 
L 444.06129 43.376252 
L 450.004219 43.376218 
L 455.947148 43.376186 
L 461.890078 43.376158 
L 467.833007 43.376122 
L 473.775936 43.376101 
L 479.718866 43.376078 
L 485.661795 43.376062 
L 491.604724 43.376042 
L 497.547654 43.376025 
L 503.490583 43.376009 
L 509.433512 43.375993 
L 515.376442 43.375983 
L 521.319371 43.376009 
L 527.2623 43.375992 
L 533.20523 43.376043 
L 539.148159 43.375968 
L 545.091088 43.375972 
L 551.034018 43.375988 
L 556.976947 43.375995 
L 562.919876 43.375982 
L 568.862806 43.375946 
L 574.805735 43.37592 
L 580.748664 43.375914 
L 586.691594 43.375913 
L 592.634523 43.375913 
L 598.577452 43.375912 
L 604.520382 43.375912 
L 610.463311 43.375911 
L 616.40624 43.375908 
L 622.34917 43.375904 
L 628.292099 43.375901 
L 634.235029 43.375894 
L 640.177958 43.37588 
L 646.120887 43.375874 
" clip-path="url(#pe02fc5b0ef)" style="fill: none; stroke: #e58f3a; stroke-width: 2.7; stroke-linecap: round"/>
   </g>
   <g id="line2d_28">
    <path d="M 51.827953 370.255125 
L 57.770882 370.19538 
L 63.713812 370.129048 
L 69.656741 370.055365 
L 75.59967 369.973469 
L 81.5426 369.882385 
L 87.485529 369.78101 
L 93.428459 369.668089 
L 99.371388 369.542192 
L 105.314317 369.401681 
L 111.257247 369.244676 
L 117.200176 369.069006 
L 123.143105 368.872153 
L 129.086035 368.651176 
L 135.028964 368.402622 
L 140.971893 368.122399 
L 146.914823 367.805618 
L 152.857752 367.446376 
L 158.800681 43.194008 
L 164.743611 43.185392 
L 170.68654 43.177592 
L 176.629469 43.170544 
L 182.572399 43.164171 
L 188.515328 43.158403 
L 194.458257 43.153197 
L 200.401187 43.148473 
L 206.344116 43.144207 
L 212.287045 43.140347 
L 218.229975 43.136855 
L 224.172904 43.133697 
L 230.115833 43.130854 
L 236.058763 43.128262 
L 242.001692 43.125918 
L 247.944621 43.123802 
L 253.887551 43.121889 
L 259.83048 43.120167 
L 265.773409 43.118592 
L 271.716339 43.117173 
L 277.659268 43.11589 
L 283.602197 43.114742 
L 289.545127 43.113692 
L 295.488056 43.112737 
L 301.430985 43.111872 
L 307.373915 43.111094 
L 313.316844 43.110391 
L 319.259773 43.109754 
L 325.202703 43.109178 
L 331.145632 43.108658 
L 337.088561 43.108193 
L 343.031491 43.107766 
L 348.97442 43.10738 
L 354.917349 43.107031 
L 360.860279 43.10672 
L 366.803208 43.106433 
L 372.746138 43.106171 
L 378.689067 43.105936 
L 384.631996 43.105722 
L 390.574926 43.105527 
L 396.517855 43.105359 
L 402.460784 43.105206 
L 408.403714 43.105068 
L 414.346643 43.104936 
L 420.289572 43.104823 
L 426.232502 43.104714 
L 432.175431 43.104617 
L 438.11836 43.10453 
L 444.06129 43.104466 
L 450.004219 43.104366 
L 455.947148 43.10431 
L 461.890078 43.104245 
L 467.833007 43.104191 
L 473.775936 43.104144 
L 479.718866 43.104105 
L 485.661795 43.104062 
L 491.604724 43.104025 
L 497.547654 43.104102 
L 503.490583 43.104062 
L 509.433512 43.103973 
L 515.376442 43.104088 
L 521.319371 43.103972 
L 527.2623 43.103968 
L 533.20523 43.103968 
L 539.148159 43.103995 
L 545.091088 43.103895 
L 551.034018 43.10399 
L 556.976947 43.10388 
L 562.919876 43.103929 
L 568.862806 43.103888 
L 574.805735 43.103869 
L 580.748664 43.103869 
L 586.691594 43.103859 
L 592.634523 43.103827 
L 598.577452 43.103835 
L 604.520382 43.103775 
L 610.463311 43.103813 
L 616.40624 43.103795 
L 622.34917 43.103759 
L 628.292099 43.103788 
L 634.235029 43.103777 
L 640.177958 43.103731 
L 646.120887 43.103737 
" clip-path="url(#pe02fc5b0ef)" style="fill: none; stroke: #2f9c5b; stroke-width: 2.7; stroke-linecap: round"/>
   </g>
   <g id="patch_4">
    <path d="M 51.827953 370.810629 
L 51.827953 36.549562 
" style="fill: none; stroke: #a9a197; stroke-width: 0.8; stroke-linejoin: miter; stroke-linecap: square"/>
   </g>
   <g id="patch_5">
    <path d="M 51.827953 370.810629 
L 646.120887 370.810629 
" style="fill: none; stroke: #a9a197; stroke-width: 0.8; stroke-linejoin: miter; stroke-linecap: square"/>
   </g>
   <g id="text_15">
    <!-- 单边补贴：突破较慢 -->
    <g style="fill: #557c83" transform="translate(77.976842 252.836135) scale(0.105 -0.105)">
     <defs>
      <path id="MicrosoftYaHei-5355" d="M 125 909 
L 2956 909 
L 2956 1616 
L 1225 1616 
L 1225 1322 
L 750 1322 
L 750 4353 
L 2047 4353 
Q 1747 4703 1400 5072 
L 1756 5366 
Q 2219 4922 2569 4547 
L 2338 4353 
L 3803 4353 
Q 4147 4809 4500 5347 
L 5000 5078 
Q 4678 4688 4378 4353 
L 5656 4353 
L 5656 1322 
L 5181 1322 
L 5181 1616 
L 3444 1616 
L 3444 909 
L 6275 909 
L 6275 459 
L 3444 459 
L 3444 -859 
L 2956 -859 
L 2956 459 
L 125 459 
L 125 909 
z
M 3444 2053 
L 5181 2053 
L 5181 2778 
L 3444 2778 
L 3444 2053 
z
M 1225 2053 
L 2956 2053 
L 2956 2778 
L 1225 2778 
L 1225 2053 
z
M 5181 3916 
L 3444 3916 
L 3444 3203 
L 5181 3203 
L 5181 3916 
z
M 1225 3203 
L 2956 3203 
L 2956 3916 
L 1225 3916 
L 1225 3203 
z
" transform="scale(0.015625)"/>
      <path id="MicrosoftYaHei-8fb9" d="M 2050 4172 
L 3291 4172 
Q 3306 4772 3306 5291 
L 3831 5291 
Q 3825 4788 3806 4172 
L 5925 4172 
Q 5850 2334 5781 1441 
Q 5694 372 4819 372 
Q 4363 372 3831 397 
Q 3794 653 3738 959 
Q 4344 897 4681 897 
Q 5219 897 5275 1503 
Q 5350 2372 5394 3697 
L 3791 3697 
Q 3744 1225 2044 259 
Q 1894 447 1681 672 
Q 3219 1528 3278 3697 
L 2050 3697 
L 2050 4172 
z
M 2909 -153 
L 4425 -172 
L 6313 -109 
Q 6206 -366 6113 -609 
L 4356 -634 
L 2897 -619 
Q 1644 -597 1156 122 
Q 775 -209 369 -697 
L 100 -166 
Q 609 275 931 550 
L 931 2678 
L 131 2678 
L 131 3134 
L 1431 3134 
L 1431 456 
Q 1894 -125 2909 -153 
z
M 794 5266 
Q 1175 4803 1656 4147 
Q 1431 4016 1206 3853 
Q 819 4453 406 4997 
L 794 5266 
z
" transform="scale(0.015625)"/>
      <path id="MicrosoftYaHei-ff1a" d="M 1606 3531 
Q 1772 3531 1890 3415 
Q 2009 3300 2009 3138 
Q 2009 2975 1893 2858 
Q 1778 2741 1606 2741 
Q 1434 2741 1318 2858 
Q 1203 2975 1203 3138 
Q 1203 3300 1322 3415 
Q 1441 3531 1606 3531 
z
M 1606 716 
Q 1772 716 1890 600 
Q 2009 484 2009 319 
Q 2009 150 1890 36 
Q 1772 -78 1606 -78 
Q 1441 -78 1322 36 
Q 1203 150 1203 319 
Q 1203 484 1322 600 
Q 1441 716 1606 716 
z
" transform="scale(0.015625)"/>
      <path id="MicrosoftYaHei-7a81" d="M 119 -378 
Q 2309 91 2763 1453 
L 275 1453 
L 275 1903 
L 2856 1903 
Q 2888 2272 2894 3022 
L 3406 3022 
Q 3406 2316 3363 1903 
L 6150 1903 
L 6150 1453 
L 3528 1453 
Q 4397 94 6313 -253 
Q 6100 -541 5956 -772 
Q 4059 -309 3181 1147 
Q 2600 -347 444 -853 
Q 325 -659 119 -378 
z
M 369 4472 
L 3147 4472 
Q 2972 4809 2756 5141 
L 3238 5359 
Q 3475 5003 3669 4641 
L 3322 4472 
L 6038 4472 
L 6038 3422 
L 5531 3422 
L 5531 4022 
L 869 4022 
L 869 3397 
L 369 3397 
L 369 4472 
z
M 3944 3778 
Q 5163 3278 6238 2722 
L 5988 2259 
Q 4788 2934 3706 3416 
L 3944 3778 
z
M 2413 3784 
L 2713 3422 
Q 1613 2778 450 2303 
Q 331 2491 156 2709 
Q 1163 3066 2413 3784 
z
M 3725 2678 
L 4025 2978 
Q 4550 2597 4838 2347 
L 4488 2016 
Q 4188 2309 3725 2678 
z
" transform="scale(0.015625)"/>
      <path id="MicrosoftYaHei-7834" d="M 2625 4466 
L 4294 4466 
L 4294 5316 
L 4756 5316 
L 4756 4466 
L 6300 4466 
L 6213 3309 
Q 5950 3334 5756 3334 
L 5825 4028 
L 4756 4028 
L 4756 2847 
L 5981 2847 
L 5981 2403 
Q 5725 1253 4959 419 
Q 5534 -50 6381 -291 
Q 6144 -597 6019 -772 
Q 5178 -453 4600 69 
Q 3953 -494 3031 -884 
Q 2919 -691 2713 -459 
Q 3634 -106 4263 419 
Q 3591 1222 3397 2409 
L 3088 2409 
L 3088 2291 
Q 3088 159 2219 -866 
Q 2069 -678 1863 -478 
Q 2625 422 2625 2284 
L 2625 4466 
z
M 31 1684 
Q 725 2822 1056 4291 
L 231 4291 
L 231 4716 
L 2388 4716 
L 2388 4291 
L 1534 4291 
Q 1359 3563 1122 2922 
L 2200 2922 
L 2200 234 
L 1119 234 
L 1119 -234 
L 694 -234 
L 694 1938 
Q 531 1619 350 1328 
Q 231 1466 31 1684 
z
M 5500 2409 
L 3841 2409 
Q 4028 1413 4616 753 
Q 5269 1453 5500 2409 
z
M 3088 2847 
L 4294 2847 
L 4294 4028 
L 3088 4028 
L 3088 2847 
z
M 1775 647 
L 1775 2509 
L 1119 2509 
L 1119 647 
L 1775 647 
z
" transform="scale(0.015625)"/>
      <path id="MicrosoftYaHei-8f83" d="M 694 2234 
L 1438 2234 
L 1438 3603 
L 1875 3603 
L 1875 2234 
L 2513 2234 
L 2513 1828 
L 1875 1828 
L 1875 981 
Q 2288 1031 2688 1084 
Q 2656 847 2644 653 
Q 2294 613 1875 559 
L 1875 -841 
L 1438 -841 
L 1438 506 
Q 844 428 131 334 
L 81 791 
Q 778 856 1438 928 
L 1438 1828 
L 238 1828 
L 238 2222 
Q 575 3156 816 3928 
L 156 3928 
L 156 4347 
L 941 4347 
Q 1103 4891 1206 5347 
L 1688 5247 
Q 1559 4831 1403 4347 
L 2494 4347 
L 2494 3928 
L 1269 3928 
Q 1016 3156 694 2234 
z
M 5525 2341 
Q 5200 1303 4694 644 
Q 5306 69 6331 -247 
Q 6094 -522 5944 -728 
Q 4972 -334 4353 256 
Q 3641 -450 2563 -828 
Q 2481 -666 2263 -384 
Q 3341 -22 4025 619 
Q 3531 1247 3219 2203 
L 3644 2397 
Q 3909 1572 4363 1003 
Q 4813 1622 5063 2497 
L 5525 2341 
z
M 2719 4366 
L 4316 4366 
Q 4109 4728 3806 5116 
L 4188 5359 
Q 4538 4966 4788 4578 
L 4459 4366 
L 6225 4366 
L 6225 3928 
L 2719 3928 
L 2719 4366 
z
M 4663 3422 
L 5006 3722 
Q 5669 3103 6256 2434 
L 5881 2097 
Q 5344 2747 4663 3422 
z
M 3600 3741 
L 4013 3484 
Q 3456 2628 2925 1997 
Q 2706 2191 2544 2297 
Q 3106 2922 3600 3741 
z
" transform="scale(0.015625)"/>
      <path id="MicrosoftYaHei-6162" d="M 2363 5047 
L 5731 5047 
L 5731 3166 
L 5288 3166 
L 5288 3278 
L 2806 3278 
L 2806 3166 
L 2363 3166 
L 2363 5047 
z
M 2025 2884 
L 6069 2884 
L 6069 1466 
L 5644 1466 
L 5644 1597 
L 2450 1597 
L 2450 1466 
L 2025 1466 
L 2025 2884 
z
M 2225 859 
L 2225 1203 
L 5644 1203 
L 5644 834 
Q 5188 316 4575 -22 
Q 4588 -22 4600 -28 
Q 5000 -191 6263 -341 
Q 6206 -441 6013 -797 
Q 4819 -597 4050 -272 
Q 3200 -628 1981 -859 
Q 1944 -766 1756 -428 
Q 2813 -272 3563 -22 
Q 3019 309 2631 859 
L 2225 859 
z
M 950 5234 
L 1400 5234 
L 1400 3847 
L 1694 4028 
Q 1988 3622 2244 3209 
L 1881 2953 
Q 1675 3359 1400 3759 
L 1400 -841 
L 950 -841 
L 950 5234 
z
M 5288 4703 
L 2806 4703 
L 2806 4328 
L 5288 4328 
L 5288 4703 
z
M 2806 3622 
L 5288 3622 
L 5288 3997 
L 2806 3997 
L 2806 3622 
z
M 5081 859 
L 3138 859 
Q 3519 422 4081 172 
Q 4688 453 5081 859 
z
M 356 3828 
L 775 3766 
Q 681 3009 500 2166 
Q 325 2209 81 2266 
Q 231 2909 356 3828 
z
M 3638 1941 
L 4456 1941 
L 4456 2541 
L 3638 2541 
L 3638 1941 
z
M 2450 1941 
L 3250 1941 
L 3250 2541 
L 2450 2541 
L 2450 1941 
z
M 5644 2541 
L 4844 2541 
L 4844 1941 
L 5644 1941 
L 5644 2541 
z
" transform="scale(0.015625)"/>
     </defs>
     <use xlink:href="#MicrosoftYaHei-5355"/>
     <use xlink:href="#MicrosoftYaHei-8fb9" x="100"/>
     <use xlink:href="#MicrosoftYaHei-8865" x="200"/>
     <use xlink:href="#MicrosoftYaHei-8d34" x="300"/>
     <use xlink:href="#MicrosoftYaHei-ff1a" x="400"/>
     <use xlink:href="#MicrosoftYaHei-7a81" x="500"/>
     <use xlink:href="#MicrosoftYaHei-7834" x="600"/>
     <use xlink:href="#MicrosoftYaHei-8f83" x="700"/>
     <use xlink:href="#MicrosoftYaHei-6162" x="800"/>
    </g>
   </g>
   <g id="text_16">
    <!-- 双边统一补贴：协同效应更强 -->
    <g style="fill: #247b46" transform="translate(289.545127 88.982671) scale(0.108 -0.108)">
     <defs>
      <path id="MicrosoftYaHei-53cc" d="M 2950 4384 
L 2950 4859 
L 5894 4859 
L 5894 4403 
Q 5628 2144 4750 953 
Q 5413 184 6325 -241 
Q 6106 -503 5919 -716 
Q 5072 -181 4434 566 
Q 3728 -222 2525 -866 
Q 2413 -703 2194 -428 
Q 3406 159 4119 963 
Q 3269 2159 3119 4384 
L 2950 4384 
z
M 250 3634 
L 644 3878 
Q 1213 3041 1778 2156 
Q 2159 3163 2275 4372 
L 175 4372 
L 175 4847 
L 2775 4847 
L 2775 4372 
Q 2559 2756 2091 1659 
Q 2509 1000 2925 309 
L 2513 -9 
Q 2163 584 1831 1131 
Q 1297 153 456 -653 
Q 263 -447 69 -303 
Q 1047 616 1541 1606 
Q 850 2734 250 3634 
z
M 5369 4384 
L 3578 4384 
Q 3738 2388 4428 1366 
Q 5172 2488 5369 4384 
z
" transform="scale(0.015625)"/>
      <path id="MicrosoftYaHei-7edf" d="M 5100 3641 
Q 5625 2934 6175 2047 
Q 5956 1922 5713 1766 
Q 5556 2031 5413 2275 
Q 5122 2256 4813 2241 
L 4813 122 
Q 4813 -259 5094 -259 
L 5400 -259 
Q 5706 -259 5750 53 
Q 5800 428 5813 866 
Q 6019 778 6313 684 
Q 6263 141 6206 -159 
Q 6119 -703 5550 -703 
L 5013 -703 
Q 4331 -703 4331 78 
L 4331 2213 
Q 3981 2194 3606 2169 
Q 3556 809 3256 272 
Q 2900 -416 1925 -866 
Q 1788 -672 1606 -447 
Q 2513 -78 2819 522 
Q 3100 1000 3122 2138 
Q 2994 2128 2863 2122 
Q 2594 2097 2363 2041 
L 2150 2528 
Q 2419 2641 2581 2828 
Q 3050 3388 3463 4047 
L 2100 4047 
L 2100 4491 
L 4094 4491 
Q 3859 4850 3650 5128 
L 4063 5384 
Q 4300 5091 4594 4684 
L 4297 4491 
L 6200 4491 
L 6200 4047 
L 3663 4047 
L 4006 3897 
Q 3488 3197 2988 2609 
Q 4166 2650 5153 2694 
Q 4916 3075 4700 3391 
L 5100 3641 
z
M 894 1534 
Q 1394 1603 2175 1722 
Q 2138 1472 2113 1259 
Q 1331 1153 325 991 
L 225 1441 
Q 616 1841 1153 2744 
Q 503 2700 219 2678 
L 100 3103 
Q 650 3828 1288 5316 
L 1763 5128 
Q 1156 3941 656 3141 
Q 1066 3147 1394 3159 
Q 1581 3494 1788 3884 
L 2256 3678 
Q 1544 2434 894 1534 
z
M 81 222 
Q 1119 422 2225 672 
Q 2200 347 2200 222 
Q 1069 -28 225 -253 
L 81 222 
z
" transform="scale(0.015625)"/>
      <path id="MicrosoftYaHei-4e00" d="M 100 2703 
L 6313 2703 
L 6313 2153 
L 100 2153 
L 100 2703 
z
" transform="scale(0.015625)"/>
      <path id="MicrosoftYaHei-534f" d="M 2206 4022 
L 3291 4022 
Q 3313 4659 3313 5278 
L 3800 5278 
Q 3794 4697 3772 4022 
L 5294 4022 
Q 5231 1716 5150 172 
Q 5113 -691 4281 -691 
Q 4075 -691 3594 -678 
Q 3550 -391 3488 -134 
Q 3894 -191 4200 -191 
Q 4650 -197 4675 291 
Q 4750 1784 4794 3534 
L 3756 3534 
Q 3722 2138 3538 1322 
Q 3219 84 2225 -778 
Q 2069 -603 1863 -409 
Q 2756 378 3056 1453 
Q 3250 2184 3278 3534 
L 2206 3534 
L 2206 4022 
z
M 94 3484 
L 775 3484 
L 775 5272 
L 1256 5272 
L 1256 3484 
L 1863 3484 
L 1863 3028 
L 1256 3028 
L 1256 -803 
L 775 -803 
L 775 3028 
L 94 3028 
L 94 3484 
z
M 2394 2916 
L 2813 2759 
Q 2500 1934 2088 997 
Q 1894 1103 1669 1191 
Q 2075 1978 2394 2916 
z
M 5331 2791 
L 5750 2922 
Q 6063 2047 6319 1278 
L 5863 1122 
Q 5600 2053 5331 2791 
z
" transform="scale(0.015625)"/>
      <path id="MicrosoftYaHei-540c" d="M 1013 -772 
L 531 -772 
L 531 4959 
L 5856 4959 
L 5856 -47 
Q 5856 -741 5125 -741 
Q 4669 -741 4088 -716 
Q 4056 -497 4000 -216 
Q 4619 -272 5025 -272 
Q 5375 -272 5375 78 
L 5375 4497 
L 1013 4497 
L 1013 -772 
z
M 1875 2566 
L 4506 2566 
L 4506 597 
L 2338 597 
L 2338 272 
L 1875 272 
L 1875 2566 
z
M 4044 2116 
L 2338 2116 
L 2338 1047 
L 4044 1047 
L 4044 2116 
z
M 1363 3734 
L 5025 3734 
L 5025 3284 
L 1363 3284 
L 1363 3734 
z
" transform="scale(0.015625)"/>
      <path id="MicrosoftYaHei-6548" d="M 4088 5334 
L 4581 5253 
Q 4453 4653 4259 4122 
L 6269 4122 
L 6269 3697 
L 5838 3697 
Q 5672 1869 5050 841 
Q 5572 128 6388 -347 
Q 6188 -622 6050 -841 
Q 5250 -313 4728 391 
Q 4153 -328 3300 -891 
Q 3163 -709 2944 -497 
Q 3872 125 4428 853 
Q 3897 1797 3753 3025 
Q 3603 2766 3431 2528 
Q 3300 2716 3119 2928 
Q 3844 3941 4088 5334 
z
M 694 1909 
L 1031 2203 
Q 1456 1800 1863 1394 
Q 2138 1847 2350 2378 
L 2800 2141 
Q 2538 1550 2209 1047 
Q 2659 591 3088 134 
L 2669 -222 
Q 2275 225 1913 625 
Q 1250 -238 356 -809 
Q 238 -641 31 -397 
Q 947 128 1584 981 
Q 1113 1491 694 1909 
z
M 5344 3697 
L 4125 3697 
Q 4222 2322 4741 1338 
Q 5263 2306 5344 3697 
z
M 175 4297 
L 3325 4297 
L 3325 3872 
L 175 3872 
L 175 4297 
z
M 1063 3628 
L 1475 3372 
Q 963 2641 413 1953 
Q 256 2084 44 2241 
Q 506 2797 1063 3628 
z
M 2344 3609 
Q 2744 3197 3263 2591 
L 2894 2278 
Q 2506 2759 2006 3341 
L 2344 3609 
z
M 1306 5141 
L 1731 5359 
Q 1988 4953 2206 4547 
L 1769 4322 
Q 1544 4772 1306 5141 
z
" transform="scale(0.015625)"/>
      <path id="MicrosoftYaHei-5e94" d="M 2969 5134 
L 3425 5378 
Q 3694 5034 3938 4634 
L 3634 4459 
L 6169 4459 
L 6169 3984 
L 1300 3984 
L 1300 2453 
Q 1300 241 388 -853 
Q 238 -647 25 -422 
Q 775 416 775 2441 
L 775 4459 
L 3419 4459 
Q 3216 4803 2969 5134 
z
M 1263 -9 
L 4153 -9 
Q 4641 1238 5188 3403 
L 5731 3253 
Q 5147 1191 4694 -9 
L 6238 -9 
L 6238 -484 
L 1263 -484 
L 1263 -9 
z
M 1600 3059 
L 2075 3222 
Q 2463 2084 2825 672 
L 2294 509 
Q 2006 1747 1600 3059 
z
M 3106 3372 
L 3588 3509 
Q 3913 2384 4163 991 
L 3613 847 
Q 3431 2084 3106 3372 
z
" transform="scale(0.015625)"/>
      <path id="MicrosoftYaHei-66f4" d="M 106 -422 
Q 1250 -231 1950 166 
Q 1416 534 981 1134 
L 1309 1384 
L 825 1384 
L 825 4003 
L 3019 4003 
Q 3022 4272 3025 4578 
L 331 4578 
L 331 5016 
L 6069 5016 
L 6069 4578 
L 3506 4578 
Q 3506 4269 3503 4003 
L 5575 4003 
L 5575 1078 
L 5100 1078 
L 5100 1384 
L 3350 1384 
Q 3188 644 2834 244 
Q 4088 -216 6325 -209 
Q 6169 -484 6069 -709 
Q 3588 -641 2422 -100 
Q 1703 -575 394 -866 
Q 269 -647 106 -422 
z
M 1300 2903 
L 3006 2903 
Q 3013 3203 3016 3578 
L 1300 3578 
L 1300 2903 
z
M 3000 2484 
L 1300 2484 
L 1300 1809 
L 2947 1809 
Q 2988 2116 3000 2484 
z
M 3422 1809 
L 5100 1809 
L 5100 2484 
L 3481 2484 
Q 3466 2122 3422 1809 
z
M 5100 3578 
L 3500 3578 
Q 3497 3200 3491 2903 
L 5100 2903 
L 5100 3578 
z
M 2369 453 
Q 2706 744 2866 1384 
L 1334 1384 
Q 1766 784 2369 453 
z
" transform="scale(0.015625)"/>
     </defs>
     <use xlink:href="#MicrosoftYaHei-53cc"/>
     <use xlink:href="#MicrosoftYaHei-8fb9" x="100"/>
     <use xlink:href="#MicrosoftYaHei-7edf" x="200"/>
     <use xlink:href="#MicrosoftYaHei-4e00" x="300"/>
     <use xlink:href="#MicrosoftYaHei-8865" x="400"/>
     <use xlink:href="#MicrosoftYaHei-8d34" x="500"/>
     <use xlink:href="#MicrosoftYaHei-ff1a" x="600"/>
     <use xlink:href="#MicrosoftYaHei-534f" x="700"/>
     <use xlink:href="#MicrosoftYaHei-540c" x="800"/>
     <use xlink:href="#MicrosoftYaHei-6548" x="900"/>
     <use xlink:href="#MicrosoftYaHei-5e94" x="1000"/>
     <use xlink:href="#MicrosoftYaHei-66f4" x="1100"/>
     <use xlink:href="#MicrosoftYaHei-5f3a" x="1200"/>
    </g>
   </g>
   <g id="text_17">
    <!-- 实验 5 补充：不同基础补贴对象的效果对比 -->
    <g transform="translate(188.55135 20.549562) scale(0.167 -0.167)">
     <defs>
      <path id="MicrosoftYaHei-Bold-5b9e" d="M 4219 3716 
Q 4181 2422 4056 1653 
L 6238 1653 
L 6238 878 
L 3863 878 
Q 3850 841 3813 766 
Q 5019 372 6206 -66 
L 5881 -847 
Q 4619 -316 3369 153 
Q 2550 -616 863 -916 
Q 556 -384 331 -78 
Q 2338 209 2894 878 
L 169 878 
L 169 1653 
L 2144 1653 
Q 1481 2053 931 2328 
L 1319 2934 
Q 1894 2659 2638 2247 
L 2244 1653 
L 3175 1653 
Q 3331 2453 3350 3716 
L 4219 3716 
z
M 300 3078 
L 300 4703 
L 2819 4703 
Q 2700 5009 2606 5228 
L 3675 5341 
Q 3769 5084 3888 4703 
L 6094 4703 
L 6094 3078 
L 5225 3078 
L 5225 3953 
L 1169 3953 
L 1169 3078 
L 300 3078 
z
M 1813 3772 
Q 2469 3484 3163 3134 
L 2769 2497 
Q 2031 2909 1450 3184 
L 1813 3772 
z
" transform="scale(0.015625)"/>
      <path id="MicrosoftYaHei-Bold-9a8c" d="M 1138 4053 
L 969 2491 
L 1419 2491 
L 1563 4241 
L 200 4241 
L 200 4991 
L 2369 4991 
L 2163 2491 
L 2525 2491 
Q 2463 691 2413 203 
Q 2369 -553 1838 -672 
Q 1581 -709 644 -709 
Q 588 -253 519 134 
Q 906 91 1350 78 
Q 1669 78 1694 378 
Q 1731 791 1763 1741 
L 181 1741 
L 400 4053 
L 1138 4053 
z
M 5544 2647 
L 3163 2647 
L 3163 2997 
Q 2944 2797 2706 2603 
Q 2525 2991 2300 3391 
Q 3313 4134 3925 5278 
L 4875 5278 
L 4738 5053 
Q 5469 3984 6381 3466 
Q 6163 3116 5950 2691 
Q 5738 2828 5544 2984 
L 5544 2647 
z
M 2556 116 
L 4694 116 
Q 5063 1253 5250 2303 
L 6025 2103 
Q 5775 1141 5438 116 
L 6213 116 
L 6213 -634 
L 2556 -634 
L 2556 116 
z
M 3263 2172 
Q 3569 1397 3856 503 
L 3175 259 
Q 2981 978 2625 1934 
L 3263 2172 
z
M 4425 2428 
Q 4644 1584 4806 753 
L 4113 584 
Q 3988 1366 3763 2278 
L 4425 2428 
z
M 75 1216 
Q 763 1278 1525 1378 
Q 1531 984 1538 628 
Q 838 541 175 428 
L 75 1216 
z
M 4300 4347 
Q 4013 3897 3544 3384 
L 5113 3384 
Q 4663 3859 4300 4347 
z
" transform="scale(0.015625)"/>
      <path id="MicrosoftYaHei-Bold-20" transform="scale(0.015625)"/>
      <path id="MicrosoftYaHei-Bold-35" d="M 541 125 
L 541 997 
Q 1044 691 1613 691 
Q 2041 691 2283 902 
Q 2525 1113 2525 1472 
Q 2525 2225 1494 2225 
Q 1113 2225 616 2169 
L 797 4841 
L 3359 4841 
L 3359 4009 
L 1613 4009 
L 1544 2991 
Q 1803 3013 2022 3013 
Q 2731 3013 3142 2625 
Q 3553 2238 3553 1575 
Q 3553 844 3056 380 
Q 2559 -84 1706 -84 
Q 1016 -84 541 125 
z
" transform="scale(0.015625)"/>
      <path id="MicrosoftYaHei-Bold-8865" d="M 2806 2972 
L 3431 2578 
Q 3084 2116 2728 1688 
L 3338 1284 
L 2819 634 
Q 2350 1006 1925 1325 
L 1925 -866 
L 1056 -866 
L 1056 1528 
Q 713 1181 325 822 
Q 200 1322 44 1766 
Q 944 2491 1569 3309 
L 163 3309 
L 163 4122 
L 1284 4122 
Q 1019 4519 650 4991 
L 1369 5397 
Q 1794 4897 2113 4447 
L 1563 4122 
L 2581 4122 
L 2581 3372 
Q 2297 2941 1925 2488 
L 1925 2194 
Q 2056 2116 2181 2034 
Q 2509 2503 2806 2972 
z
M 4875 3428 
Q 5694 2716 6356 2059 
L 5675 1384 
Q 5150 1975 4569 2566 
L 4569 -866 
L 3663 -866 
L 3663 5297 
L 4569 5297 
L 4569 3156 
L 4875 3428 
z
" transform="scale(0.015625)"/>
      <path id="MicrosoftYaHei-Bold-5145" d="M 4269 3803 
Q 5231 2972 6113 2109 
L 5469 1503 
L 5000 1991 
L 4338 1969 
L 4338 384 
Q 4338 59 4669 59 
L 4913 59 
Q 5188 59 5275 232 
Q 5363 406 5438 1159 
Q 5788 997 6313 816 
Q 6131 -197 5878 -455 
Q 5625 -713 5025 -703 
L 4300 -703 
Q 3463 -703 3463 234 
L 3463 1941 
L 2759 1909 
Q 2603 -241 744 -853 
Q 363 -334 113 -47 
Q 1725 400 1894 1863 
Q 1256 1822 919 1778 
L 594 2522 
Q 1291 2934 2056 3816 
L 213 3816 
L 213 4641 
L 2756 4641 
L 2531 5159 
L 3444 5359 
L 3738 4641 
L 6188 4641 
L 6188 3816 
L 3191 3816 
Q 2634 3206 1956 2609 
Q 2834 2622 4325 2672 
L 3656 3328 
L 4269 3803 
z
" transform="scale(0.015625)"/>
      <path id="MicrosoftYaHei-Bold-ff1a" d="M 1594 3506 
Q 1831 3506 2000 3354 
Q 2169 3203 2169 2981 
Q 2169 2766 2003 2614 
Q 1838 2463 1594 2463 
Q 1353 2463 1189 2616 
Q 1025 2769 1025 2981 
Q 1025 3200 1192 3353 
Q 1359 3506 1594 3506 
z
M 1594 959 
Q 1831 959 2000 806 
Q 2169 653 2169 434 
Q 2169 222 2000 69 
Q 1831 -84 1594 -84 
Q 1356 -84 1190 69 
Q 1025 222 1025 434 
Q 1025 653 1190 806 
Q 1356 959 1594 959 
z
" transform="scale(0.015625)"/>
      <path id="MicrosoftYaHei-Bold-4e0d" d="M 350 4928 
L 6088 4928 
L 6088 4078 
L 3866 4078 
Q 3659 3556 3375 3072 
L 3675 3072 
L 3675 2341 
L 4300 2928 
Q 5144 2178 6338 1078 
L 5606 359 
Q 4809 1284 3675 2316 
L 3675 -853 
L 2731 -853 
L 2731 2141 
Q 1925 1138 725 303 
Q 525 591 88 1128 
Q 2069 2419 2813 4078 
L 350 4078 
L 350 4928 
z
" transform="scale(0.015625)"/>
      <path id="MicrosoftYaHei-Bold-540c" d="M 381 5078 
L 6019 5078 
L 6019 291 
Q 6019 -253 5776 -523 
Q 5534 -794 5107 -801 
Q 4681 -809 4075 -809 
Q 3981 -309 3881 59 
Q 4272 19 4597 19 
Q 4847 19 4950 45 
Q 5053 72 5117 165 
Q 5181 259 5181 416 
L 5181 4297 
L 1219 4297 
L 1219 -797 
L 381 -797 
L 381 5078 
z
M 4875 3078 
L 1525 3078 
L 1525 3791 
L 4875 3791 
L 4875 3078 
z
M 1738 2591 
L 4638 2591 
L 4638 403 
L 2550 403 
L 2550 3 
L 1738 3 
L 1738 2591 
z
M 3825 1103 
L 3825 1891 
L 2550 1891 
L 2550 1103 
L 3825 1103 
z
" transform="scale(0.015625)"/>
      <path id="MicrosoftYaHei-Bold-57fa" d="M 6319 853 
Q 6063 484 5856 159 
Q 5369 428 4925 791 
L 4925 384 
L 3631 384 
L 3631 3 
L 5875 3 
L 5875 -653 
L 525 -653 
L 525 3 
L 2775 3 
L 2775 384 
L 1450 384 
L 1450 766 
Q 1016 422 544 159 
Q 363 447 75 847 
Q 856 1141 1397 1584 
L 156 1584 
L 156 2241 
L 1244 2241 
L 1244 4141 
L 338 4141 
L 338 4797 
L 1244 4797 
L 1244 5341 
L 2100 5341 
L 2100 4797 
L 4313 4797 
L 4313 5341 
L 5163 5341 
L 5163 4797 
L 6069 4797 
L 6069 4141 
L 5163 4141 
L 5163 2241 
L 6244 2241 
L 6244 1584 
L 5013 1584 
Q 5675 1091 6319 853 
z
M 2100 3828 
L 4313 3828 
L 4313 4141 
L 2100 4141 
L 2100 3828 
z
M 2100 3028 
L 4313 3028 
L 4313 3341 
L 2100 3341 
L 2100 3028 
z
M 2100 2241 
L 4313 2241 
L 4313 2553 
L 2100 2553 
L 2100 2241 
z
M 2775 1466 
L 3631 1466 
L 3631 1028 
L 4647 1028 
Q 4359 1284 4091 1584 
L 2319 1584 
Q 2050 1284 1759 1028 
L 2775 1028 
L 2775 1466 
z
" transform="scale(0.015625)"/>
      <path id="MicrosoftYaHei-Bold-7840" d="M 6150 1847 
L 6150 -872 
L 5394 -872 
L 5394 -628 
L 2550 -628 
L 2550 1847 
L 3306 1847 
L 3306 97 
L 3963 97 
L 3963 2316 
L 2663 2316 
L 2663 4603 
L 3375 4603 
L 3375 3041 
L 3963 3041 
L 3963 5316 
L 4763 5316 
L 4763 3041 
L 5313 3041 
L 5313 4609 
L 6025 4609 
L 6025 2316 
L 4763 2316 
L 4763 97 
L 5394 97 
L 5394 1847 
L 6150 1847 
z
M 2450 4178 
L 1656 4178 
Q 1525 3653 1350 3166 
L 2269 3166 
L 2269 -509 
L 1644 -509 
L 1644 -191 
L 1256 -191 
L 1256 -616 
L 563 -616 
L 563 1553 
Q 463 1397 363 1253 
Q 244 1784 38 2216 
Q 619 3072 863 4178 
L 250 4178 
L 250 4878 
L 2450 4878 
L 2450 4178 
z
M 1644 2484 
L 1256 2484 
L 1256 491 
L 1644 491 
L 1644 2484 
z
" transform="scale(0.015625)"/>
      <path id="MicrosoftYaHei-Bold-8d34" d="M 3231 -834 
L 3231 2341 
L 4150 2341 
L 4150 5309 
L 4994 5309 
L 4994 4141 
L 6313 4141 
L 6313 3391 
L 4994 3391 
L 4994 2341 
L 6031 2341 
L 6031 -822 
L 5250 -822 
L 5250 -434 
L 4013 -434 
L 4013 -834 
L 3231 -834 
z
M 5250 1591 
L 4013 1591 
L 4013 316 
L 5250 316 
L 5250 1591 
z
M 350 1147 
L 350 5059 
L 2975 5059 
L 2975 1172 
L 2281 1172 
L 2281 4341 
L 1044 4341 
L 1044 1147 
L 350 1147 
z
M 1338 4078 
L 1988 4078 
L 1988 1841 
Q 1988 1559 1947 1300 
L 3088 -91 
L 2475 -609 
Q 2059 9 1706 503 
Q 1356 -259 563 -822 
Q 381 -547 94 -178 
Q 1338 703 1338 1847 
L 1338 4078 
z
" transform="scale(0.015625)"/>
      <path id="MicrosoftYaHei-Bold-5bf9" d="M 3050 4234 
L 4850 4234 
L 4850 5309 
L 5744 5309 
L 5744 4234 
L 6319 4234 
L 6319 3409 
L 5744 3409 
L 5744 216 
Q 5744 -250 5539 -490 
Q 5334 -731 4987 -754 
Q 4641 -778 3656 -778 
Q 3594 -359 3450 147 
Q 3931 109 4409 109 
Q 4850 109 4850 516 
L 4850 3409 
L 3050 3409 
L 3050 4234 
z
M 863 3772 
L 1691 2509 
Q 1934 3206 2025 4016 
L 188 4016 
L 188 4834 
L 2900 4834 
L 2900 4028 
Q 2709 2722 2247 1669 
L 3169 278 
L 2394 -228 
L 1781 778 
Q 1269 -47 550 -684 
Q 369 -316 88 153 
Q 816 772 1278 1594 
L 181 3341 
L 863 3772 
z
M 3463 3047 
Q 4069 2278 4588 1528 
L 3844 1041 
Q 3375 1841 2813 2609 
L 3463 3047 
z
" transform="scale(0.015625)"/>
      <path id="MicrosoftYaHei-Bold-8c61" d="M 1931 5334 
L 2913 5334 
Q 2763 5128 2597 4934 
L 5000 4934 
L 5000 4366 
L 4506 3966 
L 5944 3966 
L 5944 2366 
L 5491 2366 
L 5869 1822 
L 4975 1406 
Q 5506 509 6313 22 
Q 5900 -341 5638 -622 
Q 4900 -13 4334 1116 
L 4050 991 
Q 4184 584 4184 197 
Q 4184 -325 3028 -834 
L 2075 -834 
Q 2003 -541 1900 -203 
Q 1244 -538 431 -803 
Q 300 -503 94 -122 
Q 1875 300 3059 1231 
Q 3006 1338 2934 1450 
Q 1959 756 500 291 
Q 375 566 200 891 
Q 1781 1225 2700 1775 
Q 2628 1863 2547 1956 
Q 1753 1569 425 1253 
Q 294 1528 106 1853 
Q 1359 2059 2009 2366 
L 569 2366 
L 569 3506 
Q 381 3684 106 3916 
Q 1294 4553 1931 5334 
z
M 1538 3966 
L 3425 3966 
L 3881 4359 
L 2028 4359 
Q 1797 4153 1538 3966 
z
M 5150 2966 
L 5150 3366 
L 3778 3366 
Q 3709 3141 3644 2966 
L 5150 2966 
z
M 1363 2966 
L 2706 2966 
Q 2800 3134 2866 3366 
L 1363 3366 
L 1363 2966 
z
M 5191 2366 
L 3216 2366 
Q 3181 2338 3144 2309 
Q 3506 1991 3741 1628 
Q 4431 1931 5191 2366 
z
M 3247 700 
Q 2769 272 2128 -78 
Q 2569 -109 2791 -109 
Q 3288 -109 3288 378 
Q 3288 519 3247 700 
z
" transform="scale(0.015625)"/>
      <path id="MicrosoftYaHei-Bold-7684" d="M 1250 5303 
L 2181 5159 
L 1900 4309 
L 2963 4309 
L 2963 3091 
Q 3466 3934 3925 5316 
L 4788 5091 
Q 4650 4675 4494 4278 
L 6106 4278 
L 6034 681 
Q 6019 100 5937 -133 
Q 5856 -366 5684 -512 
Q 5513 -659 5205 -712 
Q 4897 -766 3863 -766 
Q 3769 -216 3625 178 
Q 4088 141 4609 141 
Q 4759 141 4868 175 
Q 4978 209 5048 279 
Q 5119 350 5144 437 
Q 5169 525 5184 1206 
L 5213 2484 
Q 5225 3081 5225 3453 
L 4138 3453 
Q 3931 3016 3700 2603 
Q 3403 2797 2963 2988 
L 2963 -734 
L 2094 -734 
L 2094 -284 
L 1206 -284 
L 1206 -772 
L 338 -772 
L 338 4309 
L 997 4309 
Q 1178 4922 1250 5303 
z
M 2094 3491 
L 1206 3491 
L 1206 2422 
L 2094 2422 
L 2094 3491 
z
M 1206 534 
L 2094 534 
L 2094 1603 
L 1206 1603 
L 1206 534 
z
M 3944 2703 
Q 4394 2166 4913 1397 
L 4125 872 
Q 3650 1653 3219 2203 
L 3944 2703 
z
" transform="scale(0.015625)"/>
      <path id="MicrosoftYaHei-Bold-6548" d="M 1169 2122 
L 1806 1500 
Q 2019 1891 2131 2341 
L 2778 2159 
Q 2425 2663 1944 3203 
L 2550 3634 
Q 2841 3325 3084 3041 
Q 3653 4084 3956 5359 
L 4769 5247 
Q 4666 4809 4506 4366 
L 6294 4366 
L 6294 3534 
L 5931 3534 
Q 5778 1931 5213 928 
Q 5666 353 6319 22 
Q 6100 -278 5788 -809 
Q 5156 -378 4703 216 
Q 4141 -419 3331 -866 
Q 3069 -478 2756 -147 
Q 3644 325 4213 1000 
Q 3863 1697 3688 2556 
Q 3534 2281 3363 2003 
Q 3259 2166 3128 2363 
L 2838 2144 
L 2919 2122 
Q 2725 1472 2394 919 
Q 2791 519 3081 209 
L 2475 -372 
Q 2219 -59 1928 266 
Q 1375 -388 581 -866 
Q 350 -484 56 -91 
Q 856 300 1366 872 
Q 1013 1241 619 1628 
L 1169 2122 
z
M 4713 1772 
Q 5038 2481 5147 3534 
L 4256 3534 
Q 4378 2525 4713 1772 
z
M 200 4553 
L 1388 4553 
Q 1294 4847 1163 5178 
L 2000 5359 
Q 2163 4922 2259 4553 
L 3325 4553 
L 3325 3778 
L 200 3778 
L 200 4553 
z
M 950 3609 
L 1663 3272 
Q 1200 2441 625 1872 
Q 269 2284 75 2466 
Q 588 2984 950 3609 
z
" transform="scale(0.015625)"/>
      <path id="MicrosoftYaHei-Bold-679c" d="M 225 1753 
L 2788 1753 
L 2788 2178 
L 788 2178 
L 788 5091 
L 5638 5091 
L 5638 2178 
L 3638 2178 
L 3638 1753 
L 6181 1753 
L 6181 978 
L 4197 978 
Q 5197 353 6338 178 
Q 6100 -291 5975 -659 
Q 4516 -222 3638 663 
L 3638 -841 
L 2788 -841 
L 2788 616 
Q 1991 -172 581 -691 
Q 388 -316 150 91 
Q 1481 384 2269 978 
L 225 978 
L 225 1753 
z
M 4800 4416 
L 3638 4416 
L 3638 3972 
L 4800 3972 
L 4800 4416 
z
M 1625 3972 
L 2788 3972 
L 2788 4416 
L 1625 4416 
L 1625 3972 
z
M 4800 2853 
L 4800 3297 
L 3638 3297 
L 3638 2853 
L 4800 2853 
z
M 1625 2853 
L 2788 2853 
L 2788 3297 
L 1625 3297 
L 1625 2853 
z
" transform="scale(0.015625)"/>
      <path id="MicrosoftYaHei-Bold-6bd4" d="M 5481 4441 
L 6294 3803 
Q 5234 2791 4119 1894 
L 4119 547 
Q 4119 153 4438 153 
L 4875 153 
Q 5119 153 5197 325 
Q 5275 497 5363 1597 
Q 5856 1409 6294 1278 
Q 6231 688 6131 248 
Q 6031 -191 5900 -358 
Q 5769 -525 5511 -617 
Q 5253 -709 4881 -709 
L 4094 -709 
Q 3194 -709 3194 247 
L 3194 5316 
L 4119 5316 
L 4119 3009 
Q 4797 3656 5481 4441 
z
M 1419 5241 
L 1419 3453 
L 2850 3453 
L 2850 2591 
L 1419 2591 
L 1419 372 
L 2869 866 
Q 2856 372 2888 -78 
Q 1500 -503 725 -922 
L 275 -184 
Q 494 -16 494 366 
L 494 5241 
L 1419 5241 
z
" transform="scale(0.015625)"/>
     </defs>
     <use xlink:href="#MicrosoftYaHei-Bold-5b9e"/>
     <use xlink:href="#MicrosoftYaHei-Bold-9a8c" x="100"/>
     <use xlink:href="#MicrosoftYaHei-Bold-20" x="200"/>
     <use xlink:href="#MicrosoftYaHei-Bold-35" x="229.785156"/>
     <use xlink:href="#MicrosoftYaHei-Bold-20" x="291.455078"/>
     <use xlink:href="#MicrosoftYaHei-Bold-8865" x="321.240234"/>
     <use xlink:href="#MicrosoftYaHei-Bold-5145" x="421.240234"/>
     <use xlink:href="#MicrosoftYaHei-Bold-ff1a" x="521.240234"/>
     <use xlink:href="#MicrosoftYaHei-Bold-4e0d" x="621.240234"/>
     <use xlink:href="#MicrosoftYaHei-Bold-540c" x="721.240234"/>
     <use xlink:href="#MicrosoftYaHei-Bold-57fa" x="821.240234"/>
     <use xlink:href="#MicrosoftYaHei-Bold-7840" x="921.240234"/>
     <use xlink:href="#MicrosoftYaHei-Bold-8865" x="1021.240234"/>
     <use xlink:href="#MicrosoftYaHei-Bold-8d34" x="1121.240234"/>
     <use xlink:href="#MicrosoftYaHei-Bold-5bf9" x="1221.240234"/>
     <use xlink:href="#MicrosoftYaHei-Bold-8c61" x="1321.240234"/>
     <use xlink:href="#MicrosoftYaHei-Bold-7684" x="1421.240234"/>
     <use xlink:href="#MicrosoftYaHei-Bold-6548" x="1521.240234"/>
     <use xlink:href="#MicrosoftYaHei-Bold-679c" x="1621.240234"/>
     <use xlink:href="#MicrosoftYaHei-Bold-5bf9" x="1721.240234"/>
     <use xlink:href="#MicrosoftYaHei-Bold-6bd4" x="1821.240234"/>
    </g>
   </g>
   <g id="PathCollection_1">
    <defs>
     <path id="mc7e44ee1b8" d="M 0 3.708099 
C 0.983399 3.708099 1.926654 3.317391 2.622022 2.622022 
C 3.317391 1.926654 3.708099 0.983399 3.708099 0 
C 3.708099 -0.983399 3.317391 -1.926654 2.622022 -2.622022 
C 1.926654 -3.317391 0.983399 -3.708099 0 -3.708099 
C -0.983399 -3.708099 -1.926654 -3.317391 -2.622022 -2.622022 
C -3.317391 -1.926654 -3.708099 -0.983399 -3.708099 0 
C -3.708099 0.983399 -3.317391 1.926654 -2.622022 2.622022 
C -1.926654 3.317391 -0.983399 3.708099 0 3.708099 
z
" style="stroke: #fbfaf6; stroke-width: 1.1"/>
    </defs>
    <g clip-path="url(#pe02fc5b0ef)">
     <use xlink:href="#mc7e44ee1b8" x="242.001692" y="174.186472" style="fill: #557c83; stroke: #fbfaf6; stroke-width: 1.1"/>
    </g>
   </g>
   <g id="PathCollection_2">
    <defs>
     <path id="me81b7bca58" d="M 0 3.708099 
C 0.983399 3.708099 1.926654 3.317391 2.622022 2.622022 
C 3.317391 1.926654 3.708099 0.983399 3.708099 0 
C 3.708099 -0.983399 3.317391 -1.926654 2.622022 -2.622022 
C 1.926654 -3.317391 0.983399 -3.708099 0 -3.708099 
C -0.983399 -3.708099 -1.926654 -3.317391 -2.622022 -2.622022 
C -3.317391 -1.926654 -3.708099 -0.983399 -3.708099 0 
C -3.708099 0.983399 -3.317391 1.926654 -2.622022 2.622022 
C -1.926654 3.317391 -0.983399 3.708099 0 3.708099 
z
" style="stroke: #fbfaf6; stroke-width: 1.1"/>
    </defs>
    <g clip-path="url(#pe02fc5b0ef)">
     <use xlink:href="#me81b7bca58" x="242.001692" y="174.186472" style="fill: #e58f3a; stroke: #fbfaf6; stroke-width: 1.1"/>
    </g>
   </g>
   <g id="PathCollection_3">
    <defs>
     <path id="md40e29e780" d="M 0 3.708099 
C 0.983399 3.708099 1.926654 3.317391 2.622022 2.622022 
C 3.317391 1.926654 3.708099 0.983399 3.708099 0 
C 3.708099 -0.983399 3.317391 -1.926654 2.622022 -2.622022 
C 1.926654 -3.317391 0.983399 -3.708099 0 -3.708099 
C -0.983399 -3.708099 -1.926654 -3.317391 -2.622022 -2.622022 
C -3.317391 -1.926654 -3.708099 -0.983399 -3.708099 0 
C -3.708099 0.983399 -3.317391 1.926654 -2.622022 2.622022 
C -1.926654 3.317391 -0.983399 3.708099 0 3.708099 
z
" style="stroke: #fbfaf6; stroke-width: 1.1"/>
    </defs>
    <g clip-path="url(#pe02fc5b0ef)">
     <use xlink:href="#md40e29e780" x="158.800681" y="174.186472" style="fill: #2f9c5b; stroke: #fbfaf6; stroke-width: 1.1"/>
    </g>
   </g>
   <g id="legend_1">
    <g id="patch_6">
     <path d="M 498.345934 365.960629 
L 639.330887 365.960629 
Q 641.270887 365.960629 641.270887 364.020629 
L 641.270887 319.944739 
Q 641.270887 318.004739 639.330887 318.004739 
L 498.345934 318.004739 
Q 496.405934 318.004739 496.405934 319.944739 
L 496.405934 364.020629 
Q 496.405934 365.960629 498.345934 365.960629 
z
" style="fill: #fbfaf6; opacity: 0.94; stroke: #d7d0c2; stroke-linejoin: miter"/>
    </g>
    <g id="line2d_29">
     <path d="M 500.285934 326.243676 
L 509.985934 326.243676 
L 519.685934 326.243676 
" style="fill: none; stroke: #557c83; stroke-width: 2.7; stroke-linecap: round"/>
    </g>
    <g id="text_18">
     <!-- 只补贴用户  阈值≈1.60 -->
     <g transform="translate(527.445934 329.638676) scale(0.097 -0.097)">
      <defs>
       <path id="MicrosoftYaHei-53ea" d="M 925 4909 
L 5525 4909 
L 5525 1516 
L 5013 1516 
L 5013 1809 
L 1438 1809 
L 1438 1516 
L 925 1516 
L 925 4909 
z
M 2194 1503 
L 2675 1184 
Q 1631 -28 550 -841 
Q 350 -666 81 -447 
Q 1288 378 2194 1503 
z
M 4081 1522 
Q 5256 547 6288 -391 
Q 6238 -434 5806 -828 
Q 4875 166 3700 1147 
L 4081 1522 
z
M 5013 2272 
L 5013 4447 
L 1438 4447 
L 1438 2272 
L 5013 2272 
z
" transform="scale(0.015625)"/>
       <path id="MicrosoftYaHei-7528" d="M 3088 -734 
L 3088 1253 
L 1269 1253 
Q 1163 -47 513 -903 
Q 350 -697 144 -472 
Q 550 103 694 803 
Q 831 1478 831 2716 
L 831 4947 
L 5925 4947 
L 5925 -22 
Q 5925 -766 5219 -766 
Q 4788 -766 4250 -747 
Q 4219 -541 4156 -228 
Q 4700 -266 5038 -266 
Q 5425 -266 5425 103 
L 5425 1253 
L 3588 1253 
L 3588 -734 
L 3088 -734 
z
M 3588 1703 
L 5425 1703 
L 5425 2872 
L 3588 2872 
L 3588 1703 
z
M 5425 4484 
L 3588 4484 
L 3588 3322 
L 5425 3322 
L 5425 4484 
z
M 1303 1703 
L 3088 1703 
L 3088 2872 
L 1331 2872 
Q 1350 2266 1303 1703 
z
M 1331 4484 
L 1331 3322 
L 3088 3322 
L 3088 4484 
L 1331 4484 
z
" transform="scale(0.015625)"/>
       <path id="MicrosoftYaHei-6237" d="M 2725 5116 
L 3175 5384 
Q 3475 5028 3769 4609 
L 3463 4416 
L 5794 4416 
L 5794 1647 
L 5294 1647 
L 5294 1972 
L 1347 1972 
Q 1263 172 419 -903 
Q 250 -697 56 -491 
Q 856 484 856 2434 
L 856 4416 
L 3241 4416 
Q 3013 4766 2725 5116 
z
M 1356 3966 
L 1356 2422 
L 5294 2422 
L 5294 3966 
L 1356 3966 
z
" transform="scale(0.015625)"/>
       <path id="MicrosoftYaHei-9608" d="M 3163 703 
Q 3475 947 3731 1234 
Q 3500 1984 3419 3141 
L 1225 3141 
L 1225 3541 
L 3394 3541 
Q 3381 3891 3381 4284 
L 3813 4284 
Q 3819 3891 3838 3541 
L 5313 3541 
L 5313 3141 
L 3856 3141 
Q 3925 2266 4075 1659 
Q 4425 2153 4650 2753 
L 5075 2572 
Q 4725 1791 4231 1166 
Q 4344 872 4488 678 
Q 4706 434 4763 691 
Q 4819 984 4844 1266 
Q 5088 1159 5269 1122 
Q 5194 584 5131 316 
Q 5038 -59 4819 -59 
Q 4469 -59 4106 434 
Q 3994 584 3906 784 
Q 3656 516 3381 284 
Q 3281 528 3163 703 
z
M 2425 4491 
L 2425 4916 
L 5988 4916 
L 5988 -3 
Q 5988 -766 5181 -766 
Q 4819 -766 4356 -753 
Q 4300 -403 4256 -284 
Q 4769 -322 5088 -322 
Q 5544 -322 5544 97 
L 5544 4491 
L 2425 4491 
z
M 1425 2609 
L 3106 2609 
L 3106 909 
L 2700 909 
L 2700 1134 
L 1831 1134 
L 1831 847 
L 1425 847 
L 1425 2609 
z
M 431 4084 
L 875 4084 
L 875 -816 
L 431 -816 
L 431 4084 
z
M 1119 378 
Q 2169 466 3200 578 
Q 3206 347 3213 153 
Q 2256 59 1181 -47 
L 1119 378 
z
M 2700 2234 
L 1831 2234 
L 1831 1509 
L 2700 1509 
L 2700 2234 
z
M 800 4984 
L 1119 5278 
Q 1563 4872 1975 4422 
L 1613 4091 
Q 1213 4566 800 4984 
z
M 4038 4141 
L 4269 4428 
Q 4619 4184 4931 3934 
L 4663 3616 
Q 4444 3809 4038 4141 
z
" transform="scale(0.015625)"/>
       <path id="MicrosoftYaHei-503c" d="M 1619 -216 
L 2250 -216 
L 2250 3653 
L 3725 3653 
L 3725 4222 
L 1913 4222 
L 1913 4647 
L 3725 4647 
L 3725 5309 
L 4200 5309 
L 4200 4647 
L 6169 4647 
L 6169 4222 
L 4200 4222 
L 4200 3653 
L 5713 3653 
L 5713 -216 
L 6306 -216 
L 6306 -641 
L 1619 -641 
L 1619 -216 
z
M 69 2247 
Q 906 3497 1369 5278 
L 1831 5141 
Q 1581 4334 1288 3628 
L 1288 -816 
L 831 -816 
L 831 2666 
Q 563 2166 263 1734 
Q 175 1997 69 2247 
z
M 2713 -216 
L 5250 -216 
L 5250 353 
L 2713 353 
L 2713 -216 
z
M 5250 3241 
L 2713 3241 
L 2713 2678 
L 5250 2678 
L 5250 3241 
z
M 2713 1716 
L 5250 1716 
L 5250 2278 
L 2713 2278 
L 2713 1716 
z
M 2713 753 
L 5250 753 
L 5250 1316 
L 2713 1316 
L 2713 753 
z
" transform="scale(0.015625)"/>
       <path id="MicrosoftYaHei-2248" d="M 4053 3256 
Q 4028 2750 3778 2472 
Q 3528 2194 3094 2194 
Q 2728 2194 2203 2550 
Q 1872 2778 1669 2778 
Q 1203 2778 1184 2191 
L 700 2191 
Q 722 2703 980 2978 
Q 1238 3253 1659 3253 
Q 2019 3253 2456 2959 
Q 2894 2663 3116 2663 
Q 3322 2663 3444 2823 
Q 3566 2984 3572 3256 
L 4053 3256 
z
M 4053 1853 
Q 4028 1347 3778 1067 
Q 3528 788 3094 788 
Q 2725 788 2203 1147 
Q 1878 1369 1669 1369 
Q 1203 1369 1184 784 
L 700 784 
Q 722 1294 980 1572 
Q 1238 1850 1659 1850 
Q 2022 1850 2456 1559 
Q 2906 1256 3116 1256 
Q 3319 1256 3441 1423 
Q 3563 1591 3572 1853 
L 4053 1853 
z
" transform="scale(0.015625)"/>
      </defs>
      <use xlink:href="#MicrosoftYaHei-53ea"/>
      <use xlink:href="#MicrosoftYaHei-8865" x="100"/>
      <use xlink:href="#MicrosoftYaHei-8d34" x="200"/>
      <use xlink:href="#MicrosoftYaHei-7528" x="300"/>
      <use xlink:href="#MicrosoftYaHei-6237" x="400"/>
      <use xlink:href="#MicrosoftYaHei-20" x="500"/>
      <use xlink:href="#MicrosoftYaHei-20" x="529.589844"/>
      <use xlink:href="#MicrosoftYaHei-9608" x="559.179688"/>
      <use xlink:href="#MicrosoftYaHei-503c" x="659.179688"/>
      <use xlink:href="#MicrosoftYaHei-2248" x="759.179688"/>
      <use xlink:href="#MicrosoftYaHei-31" x="833.447266"/>
      <use xlink:href="#MicrosoftYaHei-2e" x="892.089844"/>
      <use xlink:href="#MicrosoftYaHei-36" x="916.162109"/>
      <use xlink:href="#MicrosoftYaHei-30" x="974.804688"/>
     </g>
    </g>
    <g id="line2d_30">
     <path d="M 500.285934 341.258973 
L 509.985934 341.258973 
L 519.685934 341.258973 
" style="fill: none; stroke: #e58f3a; stroke-width: 2.7; stroke-linecap: round"/>
    </g>
    <g id="text_19">
     <!-- 只补贴商户  阈值≈1.60 -->
     <g transform="translate(527.445934 344.653973) scale(0.097 -0.097)">
      <defs>
       <path id="MicrosoftYaHei-5546" d="M 600 3309 
L 2119 3309 
Q 1903 3625 1650 3934 
L 2031 4191 
Q 2331 3841 2575 3541 
L 2238 3309 
L 3656 3309 
Q 3972 3716 4238 4166 
L 4713 3891 
Q 4416 3538 4213 3309 
L 5769 3309 
L 5769 34 
Q 5769 -753 5050 -759 
Q 4663 -766 4175 -753 
Q 4125 -391 4081 -228 
Q 4575 -278 4894 -278 
Q 5300 -278 5300 172 
L 5300 2878 
L 1069 2878 
L 1069 -834 
L 600 -834 
L 600 3309 
z
M 1950 -216 
L 1950 1797 
L 4456 1797 
L 4456 116 
L 2400 116 
L 2400 -216 
L 1950 -216 
z
M 144 4647 
L 2997 4647 
Q 2878 4869 2706 5141 
L 3188 5359 
Q 3375 5038 3581 4647 
L 6275 4647 
L 6275 4203 
L 144 4203 
L 144 4647 
z
M 4006 516 
L 4006 1397 
L 2400 1397 
L 2400 516 
L 4006 516 
z
M 2431 2809 
L 2769 2484 
Q 2038 1859 1400 1384 
Q 1213 1641 1106 1753 
Q 1794 2209 2431 2809 
z
M 3531 2466 
L 3806 2809 
Q 4731 2228 5206 1878 
L 4894 1484 
Q 4275 1984 3531 2466 
z
" transform="scale(0.015625)"/>
      </defs>
      <use xlink:href="#MicrosoftYaHei-53ea"/>
      <use xlink:href="#MicrosoftYaHei-8865" x="100"/>
      <use xlink:href="#MicrosoftYaHei-8d34" x="200"/>
      <use xlink:href="#MicrosoftYaHei-5546" x="300"/>
      <use xlink:href="#MicrosoftYaHei-6237" x="400"/>
      <use xlink:href="#MicrosoftYaHei-20" x="500"/>
      <use xlink:href="#MicrosoftYaHei-20" x="529.589844"/>
      <use xlink:href="#MicrosoftYaHei-9608" x="559.179688"/>
      <use xlink:href="#MicrosoftYaHei-503c" x="659.179688"/>
      <use xlink:href="#MicrosoftYaHei-2248" x="759.179688"/>
      <use xlink:href="#MicrosoftYaHei-31" x="833.447266"/>
      <use xlink:href="#MicrosoftYaHei-2e" x="892.089844"/>
      <use xlink:href="#MicrosoftYaHei-36" x="916.162109"/>
      <use xlink:href="#MicrosoftYaHei-30" x="974.804688"/>
     </g>
    </g>
    <g id="line2d_31">
     <path d="M 500.285934 356.27427 
L 509.985934 356.27427 
L 519.685934 356.27427 
" style="fill: none; stroke: #2f9c5b; stroke-width: 2.7; stroke-linecap: round"/>
    </g>
    <g id="text_20">
     <!-- 双边统一补贴  阈值≈0.90 -->
     <g transform="translate(527.445934 359.66927) scale(0.097 -0.097)">
      <defs>
       <path id="MicrosoftYaHei-39" d="M 578 656 
Q 978 425 1441 425 
Q 2091 425 2448 937 
Q 2806 1450 2806 2394 
Q 2800 2388 2794 2394 
Q 2475 1788 1722 1788 
Q 1113 1788 713 2206 
Q 313 2625 313 3294 
Q 313 4006 750 4464 
Q 1188 4922 1884 4922 
Q 2606 4922 3012 4355 
Q 3419 3788 3419 2703 
Q 3419 1363 2894 641 
Q 2369 -81 1441 -81 
Q 931 -81 578 84 
L 578 656 
z
M 931 3372 
Q 931 2884 1181 2598 
Q 1431 2313 1872 2313 
Q 2253 2313 2512 2573 
Q 2772 2834 2772 3206 
Q 2772 3728 2514 4070 
Q 2256 4413 1834 4413 
Q 1444 4413 1187 4116 
Q 931 3819 931 3372 
z
" transform="scale(0.015625)"/>
      </defs>
      <use xlink:href="#MicrosoftYaHei-53cc"/>
      <use xlink:href="#MicrosoftYaHei-8fb9" x="100"/>
      <use xlink:href="#MicrosoftYaHei-7edf" x="200"/>
      <use xlink:href="#MicrosoftYaHei-4e00" x="300"/>
      <use xlink:href="#MicrosoftYaHei-8865" x="400"/>
      <use xlink:href="#MicrosoftYaHei-8d34" x="500"/>
      <use xlink:href="#MicrosoftYaHei-20" x="600"/>
      <use xlink:href="#MicrosoftYaHei-20" x="629.589844"/>
      <use xlink:href="#MicrosoftYaHei-9608" x="659.179688"/>
      <use xlink:href="#MicrosoftYaHei-503c" x="759.179688"/>
      <use xlink:href="#MicrosoftYaHei-2248" x="859.179688"/>
      <use xlink:href="#MicrosoftYaHei-30" x="933.447266"/>
      <use xlink:href="#MicrosoftYaHei-2e" x="992.089844"/>
      <use xlink:href="#MicrosoftYaHei-39" x="1016.162109"/>
      <use xlink:href="#MicrosoftYaHei-30" x="1074.804688"/>
     </g>
    </g>
   </g>
  </g>
 </g>
 <defs>
  <clipPath id="pe02fc5b0ef">
   <rect x="51.827953" y="36.549562" width="594.292934" height="334.261067"/>
  </clipPath>
 </defs>
</svg>
