<?xml version="1.0" encoding="utf-8" standalone="no"?>
<!DOCTYPE svg PUBLIC "-//W3C//DTD SVG 1.1//EN"
  "http://www.w3.org/Graphics/SVG/1.1/DTD/svg11.dtd">
<svg xmlns:xlink="http://www.w3.org/1999/xlink" width="641.99952pt" height="411.59952pt" viewBox="0 0 641.99952 411.59952" xmlns="http://www.w3.org/2000/svg" version="1.1">
 <metadata>
  <rdf:RDF xmlns:dc="http://purl.org/dc/elements/1.1/" xmlns:cc="http://creativecommons.org/ns#" xmlns:rdf="http://www.w3.org/1999/02/22-rdf-syntax-ns#">
   <cc:Work>
    <dc:type rdf:resource="http://purl.org/dc/dcmitype/StillImage"/>
    <dc:date>2026-06-05T14:09:25.607138</dc:date>
    <dc:format>image/svg+xml</dc:format>
    <dc:creator>
     <cc:Agent>
      <dc:title>Matplotlib v3.9.2, https://matplotlib.org/</dc:title>
     </cc:Agent>
    </dc:creator>
   </cc:Work>
  </rdf:RDF>
 </metadata>
 <defs>
  <style type="text/css">*{stroke-linejoin: round; stroke-linecap: butt}</style>
 </defs>
 <g id="figure_1">
  <g id="patch_1">
   <path d="M 0 411.59952 
L 641.99952 411.59952 
L 641.99952 0 
L 0 0 
z
" style="fill: #f7f5ef"/>
  </g>
  <g id="axes_1">
   <g id="patch_2">
    <path d="M 51.827953 363.610629 
L 631.720887 363.610629 
L 631.720887 36.94925 
L 51.827953 36.94925 
z
" style="fill: #fbfaf6"/>
   </g>
   <g id="patch_3">
    <path d="M 51.827953 171.456877 
L 631.720887 171.456877 
L 631.720887 43.354375 
L 51.827953 43.354375 
z
" clip-path="url(#p90da4be096)" style="fill: #2f9c5b; opacity: 0.055"/>
   </g>
   <g id="PolyCollection_1">
    <defs>
     <path id="maa17e83202" d="M 51.827953 -47.988891 
L 51.827953 -48.531765 
L 57.626882 -48.590151 
L 63.425812 -48.654975 
L 69.224741 -48.726984 
L 75.02367 -48.807018 
L 80.8226 -48.896031 
L 86.621529 -48.995101 
L 92.420459 -49.105454 
L 98.219388 -49.228489 
L 104.018317 -49.365805 
L 109.817247 -49.519241 
L 115.616176 -49.690917 
L 121.415105 -49.883295 
L 127.214035 -50.099247 
L 133.012964 -50.34215 
L 138.811893 -50.616002 
L 144.610823 -50.92558 
L 150.409752 -51.276655 
L 156.208681 -368.156891 
L 162.007611 -368.165311 
L 167.80654 -368.172934 
L 173.605469 -368.179821 
L 179.404399 -368.18605 
L 185.203328 -368.191686 
L 191.002257 -368.196774 
L 196.801187 -368.201391 
L 202.600116 -368.20556 
L 208.399045 -368.209333 
L 214.197975 -368.212745 
L 219.996904 -368.215831 
L 225.795833 -368.21861 
L 231.594763 -368.221142 
L 237.393692 -368.223433 
L 243.192621 -368.225501 
L 248.991551 -368.227371 
L 254.79048 -368.229053 
L 260.589409 -368.230593 
L 266.388339 -368.231979 
L 272.187268 -368.233233 
L 277.986197 -368.234355 
L 283.785127 -368.235381 
L 289.584056 -368.236314 
L 295.382985 -368.23716 
L 301.181915 -368.23792 
L 306.980844 -368.238607 
L 312.779773 -368.239229 
L 318.578703 -368.239792 
L 324.377632 -368.240301 
L 330.176561 -368.240755 
L 335.975491 -368.241173 
L 341.77442 -368.24155 
L 347.573349 -368.241891 
L 353.372279 -368.242195 
L 359.171208 -368.242475 
L 364.970138 -368.242731 
L 370.769067 -368.242961 
L 376.567996 -368.24317 
L 382.366926 -368.24336 
L 388.165855 -368.243524 
L 393.964784 -368.243674 
L 399.763714 -368.243809 
L 405.562643 -368.243938 
L 411.361572 -368.244048 
L 417.160502 -368.244155 
L 422.959431 -368.24425 
L 428.75836 -368.244334 
L 434.55729 -368.244397 
L 440.356219 -368.244495 
L 446.155148 -368.244549 
L 451.954078 -368.244614 
L 457.753007 -368.244666 
L 463.551936 -368.244712 
L 469.350866 -368.24475 
L 475.149795 -368.244792 
L 480.948724 -368.244828 
L 486.747654 -368.244753 
L 492.546583 -368.244792 
L 498.345512 -368.244879 
L 504.144442 -368.244767 
L 509.943371 -368.24488 
L 515.7423 -368.244884 
L 521.54123 -368.244884 
L 527.340159 -368.244858 
L 533.139088 -368.244955 
L 538.938018 -368.244863 
L 544.736947 -368.24497 
L 550.535876 -368.244922 
L 556.334806 -368.244963 
L 562.133735 -368.244981 
L 567.932664 -368.244981 
L 573.731594 -368.24499 
L 579.530523 -368.245022 
L 585.329452 -368.245014 
L 591.128382 -368.245073 
L 596.927311 -368.245036 
L 602.72624 -368.245054 
L 608.52517 -368.245088 
L 614.324099 -368.24506 
L 620.123029 -368.24507 
L 625.921958 -368.245116 
L 631.720887 -368.24511 
L 631.720887 -47.988891 
L 631.720887 -47.988891 
L 625.921958 -47.988891 
L 620.123029 -47.988891 
L 614.324099 -47.988891 
L 608.52517 -47.988891 
L 602.72624 -47.988891 
L 596.927311 -47.988891 
L 591.128382 -47.988891 
L 585.329452 -47.988891 
L 579.530523 -47.988891 
L 573.731594 -47.988891 
L 567.932664 -47.988891 
L 562.133735 -47.988891 
L 556.334806 -47.988891 
L 550.535876 -47.988891 
L 544.736947 -47.988891 
L 538.938018 -47.988891 
L 533.139088 -47.988891 
L 527.340159 -47.988891 
L 521.54123 -47.988891 
L 515.7423 -47.988891 
L 509.943371 -47.988891 
L 504.144442 -47.988891 
L 498.345512 -47.988891 
L 492.546583 -47.988891 
L 486.747654 -47.988891 
L 480.948724 -47.988891 
L 475.149795 -47.988891 
L 469.350866 -47.988891 
L 463.551936 -47.988891 
L 457.753007 -47.988891 
L 451.954078 -47.988891 
L 446.155148 -47.988891 
L 440.356219 -47.988891 
L 434.55729 -47.988891 
L 428.75836 -47.988891 
L 422.959431 -47.988891 
L 417.160502 -47.988891 
L 411.361572 -47.988891 
L 405.562643 -47.988891 
L 399.763714 -47.988891 
L 393.964784 -47.988891 
L 388.165855 -47.988891 
L 382.366926 -47.988891 
L 376.567996 -47.988891 
L 370.769067 -47.988891 
L 364.970138 -47.988891 
L 359.171208 -47.988891 
L 353.372279 -47.988891 
L 347.573349 -47.988891 
L 341.77442 -47.988891 
L 335.975491 -47.988891 
L 330.176561 -47.988891 
L 324.377632 -47.988891 
L 318.578703 -47.988891 
L 312.779773 -47.988891 
L 306.980844 -47.988891 
L 301.181915 -47.988891 
L 295.382985 -47.988891 
L 289.584056 -47.988891 
L 283.785127 -47.988891 
L 277.986197 -47.988891 
L 272.187268 -47.988891 
L 266.388339 -47.988891 
L 260.589409 -47.988891 
L 254.79048 -47.988891 
L 248.991551 -47.988891 
L 243.192621 -47.988891 
L 237.393692 -47.988891 
L 231.594763 -47.988891 
L 225.795833 -47.988891 
L 219.996904 -47.988891 
L 214.197975 -47.988891 
L 208.399045 -47.988891 
L 202.600116 -47.988891 
L 196.801187 -47.988891 
L 191.002257 -47.988891 
L 185.203328 -47.988891 
L 179.404399 -47.988891 
L 173.605469 -47.988891 
L 167.80654 -47.988891 
L 162.007611 -47.988891 
L 156.208681 -47.988891 
L 150.409752 -47.988891 
L 144.610823 -47.988891 
L 138.811893 -47.988891 
L 133.012964 -47.988891 
L 127.214035 -47.988891 
L 121.415105 -47.988891 
L 115.616176 -47.988891 
L 109.817247 -47.988891 
L 104.018317 -47.988891 
L 98.219388 -47.988891 
L 92.420459 -47.988891 
L 86.621529 -47.988891 
L 80.8226 -47.988891 
L 75.02367 -47.988891 
L 69.224741 -47.988891 
L 63.425812 -47.988891 
L 57.626882 -47.988891 
L 51.827953 -47.988891 
z
" style="stroke: #2f9c5b; stroke-opacity: 0.08"/>
    </defs>
    <g clip-path="url(#p90da4be096)">
     <use xlink:href="#maa17e83202" x="0" y="411.59952" style="fill: #2f9c5b; fill-opacity: 0.08; stroke: #2f9c5b; stroke-opacity: 0.08"/>
    </g>
   </g>
   <g id="matplotlib.axis_1">
    <g id="xtick_1">
     <g id="line2d_1">
      <path d="M 51.827953 363.610629 
L 51.827953 36.94925 
" clip-path="url(#p90da4be096)" style="fill: none; stroke: #d8d1c5; stroke-opacity: 0.34; stroke-width: 0.85; stroke-linecap: square"/>
     </g>
     <g id="line2d_2">
      <defs>
       <path id="m4c29f2c25a" d="M 0 0 
L 0 3.5 
" style="stroke: #32383a; stroke-width: 0.8"/>
      </defs>
      <g>
       <use xlink:href="#m4c29f2c25a" x="51.827953" y="363.610629" style="fill: #32383a; stroke: #32383a; stroke-width: 0.8"/>
      </g>
     </g>
     <g id="text_1">
      <!-- 0 -->
      <g style="fill: #32383a" transform="translate(48.74932 379.004067) scale(0.105 -0.105)">
       <defs>
        <path id="MicrosoftYaHei-30" d="M 284 2325 
Q 284 3606 709 4264 
Q 1134 4922 1941 4922 
Q 3478 4922 3478 2441 
Q 3478 1216 3045 567 
Q 2613 -81 1831 -81 
Q 1094 -81 689 534 
Q 284 1150 284 2325 
z
M 909 2353 
Q 909 425 1888 425 
Q 2850 425 2850 2384 
Q 2850 4413 1906 4413 
Q 909 4413 909 2353 
z
" transform="scale(0.015625)"/>
       </defs>
       <use xlink:href="#MicrosoftYaHei-30"/>
      </g>
     </g>
    </g>
    <g id="xtick_2">
     <g id="line2d_3">
      <path d="M 167.80654 363.610629 
L 167.80654 36.94925 
" clip-path="url(#p90da4be096)" style="fill: none; stroke: #d8d1c5; stroke-opacity: 0.34; stroke-width: 0.85; stroke-linecap: square"/>
     </g>
     <g id="line2d_4">
      <g>
       <use xlink:href="#m4c29f2c25a" x="167.80654" y="363.610629" style="fill: #32383a; stroke: #32383a; stroke-width: 0.8"/>
      </g>
     </g>
     <g id="text_2">
      <!-- 1 -->
      <g style="fill: #32383a" transform="translate(164.727907 379.004067) scale(0.105 -0.105)">
       <defs>
        <path id="MicrosoftYaHei-31" d="M 1781 0 
L 1781 4141 
Q 1638 3997 1295 3819 
Q 953 3641 663 3569 
L 663 4169 
Q 1047 4275 1484 4508 
Q 1922 4741 2156 4947 
L 2388 4947 
L 2388 0 
L 1781 0 
z
" transform="scale(0.015625)"/>
       </defs>
       <use xlink:href="#MicrosoftYaHei-31"/>
      </g>
     </g>
    </g>
    <g id="xtick_3">
     <g id="line2d_5">
      <path d="M 283.785127 363.610629 
L 283.785127 36.94925 
" clip-path="url(#p90da4be096)" style="fill: none; stroke: #d8d1c5; stroke-opacity: 0.34; stroke-width: 0.85; stroke-linecap: square"/>
     </g>
     <g id="line2d_6">
      <g>
       <use xlink:href="#m4c29f2c25a" x="283.785127" y="363.610629" style="fill: #32383a; stroke: #32383a; stroke-width: 0.8"/>
      </g>
     </g>
     <g id="text_3">
      <!-- 2 -->
      <g style="fill: #32383a" transform="translate(280.706494 379.004067) scale(0.105 -0.105)">
       <defs>
        <path id="MicrosoftYaHei-32" d="M 2666 3572 
Q 2666 3963 2419 4186 
Q 2172 4409 1747 4409 
Q 1447 4409 1140 4256 
Q 834 4103 569 3819 
L 569 4413 
Q 806 4659 1107 4790 
Q 1409 4922 1816 4922 
Q 2472 4922 2872 4570 
Q 3272 4219 3272 3619 
Q 3272 3084 3026 2693 
Q 2781 2303 2188 1894 
Q 1581 1475 1376 1294 
Q 1172 1113 1090 947 
Q 1009 781 1009 544 
L 3416 544 
L 3416 0 
L 372 0 
L 372 241 
Q 372 659 486 951 
Q 600 1244 862 1520 
Q 1125 1797 1681 2184 
Q 2250 2584 2458 2886 
Q 2666 3188 2666 3572 
z
" transform="scale(0.015625)"/>
       </defs>
       <use xlink:href="#MicrosoftYaHei-32"/>
      </g>
     </g>
    </g>
    <g id="xtick_4">
     <g id="line2d_7">
      <path d="M 399.763714 363.610629 
L 399.763714 36.94925 
" clip-path="url(#p90da4be096)" style="fill: none; stroke: #d8d1c5; stroke-opacity: 0.34; stroke-width: 0.85; stroke-linecap: square"/>
     </g>
     <g id="line2d_8">
      <g>
       <use xlink:href="#m4c29f2c25a" x="399.763714" y="363.610629" style="fill: #32383a; stroke: #32383a; stroke-width: 0.8"/>
      </g>
     </g>
     <g id="text_4">
      <!-- 3 -->
      <g style="fill: #32383a" transform="translate(396.685081 379.004067) scale(0.105 -0.105)">
       <defs>
        <path id="MicrosoftYaHei-33" d="M 447 809 
Q 944 425 1569 425 
Q 2069 425 2361 670 
Q 2653 916 2653 1328 
Q 2653 2247 1338 2247 
L 934 2247 
L 934 2753 
L 1319 2753 
Q 2484 2753 2484 3616 
Q 2484 4413 1594 4413 
Q 1084 4413 634 4069 
L 634 4647 
Q 1109 4922 1744 4922 
Q 2363 4922 2738 4598 
Q 3113 4275 3113 3759 
Q 3113 2809 2144 2538 
L 2144 2525 
Q 2669 2469 2973 2155 
Q 3278 1841 3278 1372 
Q 3278 719 2808 319 
Q 2338 -81 1556 -81 
Q 869 -81 447 175 
L 447 809 
z
" transform="scale(0.015625)"/>
       </defs>
       <use xlink:href="#MicrosoftYaHei-33"/>
      </g>
     </g>
    </g>
    <g id="xtick_5">
     <g id="line2d_9">
      <path d="M 515.7423 363.610629 
L 515.7423 36.94925 
" clip-path="url(#p90da4be096)" style="fill: none; stroke: #d8d1c5; stroke-opacity: 0.34; stroke-width: 0.85; stroke-linecap: square"/>
     </g>
     <g id="line2d_10">
      <g>
       <use xlink:href="#m4c29f2c25a" x="515.7423" y="363.610629" style="fill: #32383a; stroke: #32383a; stroke-width: 0.8"/>
      </g>
     </g>
     <g id="text_5">
      <!-- 4 -->
      <g style="fill: #32383a" transform="translate(512.663668 379.004067) scale(0.105 -0.105)">
       <defs>
        <path id="MicrosoftYaHei-34" d="M 2906 4841 
L 2906 1644 
L 3631 1644 
L 3631 1138 
L 2906 1138 
L 2906 0 
L 2313 0 
L 2313 1138 
L 53 1138 
L 53 1616 
Q 656 2294 1265 3178 
Q 1875 4063 2272 4841 
L 2906 4841 
z
M 741 1644 
L 2313 1644 
L 2313 3950 
Q 1988 3366 1616 2817 
Q 1244 2269 741 1644 
z
" transform="scale(0.015625)"/>
       </defs>
       <use xlink:href="#MicrosoftYaHei-34"/>
      </g>
     </g>
    </g>
    <g id="xtick_6">
     <g id="line2d_11">
      <path d="M 631.720887 363.610629 
L 631.720887 36.94925 
" clip-path="url(#p90da4be096)" style="fill: none; stroke: #d8d1c5; stroke-opacity: 0.34; stroke-width: 0.85; stroke-linecap: square"/>
     </g>
     <g id="line2d_12">
      <g>
       <use xlink:href="#m4c29f2c25a" x="631.720887" y="363.610629" style="fill: #32383a; stroke: #32383a; stroke-width: 0.8"/>
      </g>
     </g>
     <g id="text_6">
      <!-- 5 -->
      <g style="fill: #32383a" transform="translate(628.642254 379.004067) scale(0.105 -0.105)">
       <defs>
        <path id="MicrosoftYaHei-35" d="M 3294 1494 
Q 3294 784 2823 350 
Q 2353 -84 1559 -84 
Q 878 -84 544 119 
L 544 744 
Q 1034 425 1544 425 
Q 2050 425 2361 704 
Q 2672 984 2672 1447 
Q 2672 1909 2348 2167 
Q 2025 2425 1434 2425 
Q 978 2425 613 2384 
L 791 4841 
L 3053 4841 
L 3053 4303 
L 1306 4303 
L 1206 2931 
L 1647 2950 
Q 2416 2950 2855 2567 
Q 3294 2184 3294 1494 
z
" transform="scale(0.015625)"/>
       </defs>
       <use xlink:href="#MicrosoftYaHei-35"/>
      </g>
     </g>
    </g>
    <g id="text_7">
     <!-- 统一补贴强度  b -->
     <g transform="translate(297.667608 401.366676) scale(0.122 -0.122)">
      <defs>
       <path id="MicrosoftYaHei-7edf" d="M 5100 3641 
Q 5625 2934 6175 2047 
Q 5956 1922 5713 1766 
Q 5556 2031 5413 2275 
Q 5122 2256 4813 2241 
L 4813 122 
Q 4813 -259 5094 -259 
L 5400 -259 
Q 5706 -259 5750 53 
Q 5800 428 5813 866 
Q 6019 778 6313 684 
Q 6263 141 6206 -159 
Q 6119 -703 5550 -703 
L 5013 -703 
Q 4331 -703 4331 78 
L 4331 2213 
Q 3981 2194 3606 2169 
Q 3556 809 3256 272 
Q 2900 -416 1925 -866 
Q 1788 -672 1606 -447 
Q 2513 -78 2819 522 
Q 3100 1000 3122 2138 
Q 2994 2128 2863 2122 
Q 2594 2097 2363 2041 
L 2150 2528 
Q 2419 2641 2581 2828 
Q 3050 3388 3463 4047 
L 2100 4047 
L 2100 4491 
L 4094 4491 
Q 3859 4850 3650 5128 
L 4063 5384 
Q 4300 5091 4594 4684 
L 4297 4491 
L 6200 4491 
L 6200 4047 
L 3663 4047 
L 4006 3897 
Q 3488 3197 2988 2609 
Q 4166 2650 5153 2694 
Q 4916 3075 4700 3391 
L 5100 3641 
z
M 894 1534 
Q 1394 1603 2175 1722 
Q 2138 1472 2113 1259 
Q 1331 1153 325 991 
L 225 1441 
Q 616 1841 1153 2744 
Q 503 2700 219 2678 
L 100 3103 
Q 650 3828 1288 5316 
L 1763 5128 
Q 1156 3941 656 3141 
Q 1066 3147 1394 3159 
Q 1581 3494 1788 3884 
L 2256 3678 
Q 1544 2434 894 1534 
z
M 81 222 
Q 1119 422 2225 672 
Q 2200 347 2200 222 
Q 1069 -28 225 -253 
L 81 222 
z
" transform="scale(0.015625)"/>
       <path id="MicrosoftYaHei-4e00" d="M 100 2703 
L 6313 2703 
L 6313 2153 
L 100 2153 
L 100 2703 
z
" transform="scale(0.015625)"/>
       <path id="MicrosoftYaHei-8865" d="M 163 3616 
L 163 4078 
L 2450 4078 
L 2450 3603 
Q 2106 3072 1700 2591 
L 1700 2228 
Q 1813 2147 1931 2066 
Q 2388 2516 2781 3009 
L 3169 2666 
Q 2681 2222 2256 1841 
Q 2650 1566 3031 1291 
L 2725 872 
Q 2156 1347 1700 1697 
L 1700 -841 
L 1194 -841 
L 1194 2047 
Q 750 1609 244 1228 
Q 163 1509 75 1766 
Q 1181 2597 1875 3616 
L 163 3616 
z
M 3775 5266 
L 4294 5266 
L 4294 3184 
L 4613 3434 
Q 5569 2584 6331 1784 
L 5888 1372 
Q 5194 2203 4294 3053 
L 4294 -841 
L 3775 -841 
L 3775 5266 
z
M 1038 5059 
L 1475 5278 
Q 1706 4909 1963 4422 
L 1500 4184 
Q 1256 4691 1038 5059 
z
" transform="scale(0.015625)"/>
       <path id="MicrosoftYaHei-8d34" d="M 3238 2116 
L 4213 2116 
L 4213 5322 
L 4719 5322 
L 4719 3997 
L 6313 3997 
L 6313 3522 
L 4719 3522 
L 4719 2116 
L 5975 2116 
L 5975 -866 
L 5500 -866 
L 5500 -503 
L 3713 -503 
L 3713 -866 
L 3238 -866 
L 3238 2116 
z
M 431 4997 
L 2831 4997 
L 2831 1078 
L 2381 1078 
L 2381 4541 
L 881 4541 
L 881 1041 
L 431 1041 
L 431 4997 
z
M 5500 1691 
L 3713 1691 
L 3713 -78 
L 5500 -78 
L 5500 1691 
z
M 1406 4022 
L 1856 4022 
L 1856 2691 
Q 1856 1466 1700 809 
L 1931 1016 
Q 2531 366 3050 -216 
L 2631 -553 
Q 2169 53 1650 634 
Q 1438 -78 475 -809 
Q 325 -609 125 -397 
Q 919 122 1169 709 
Q 1406 1203 1406 2509 
L 1406 4022 
z
" transform="scale(0.015625)"/>
       <path id="MicrosoftYaHei-5f3a" d="M 5250 466 
L 5669 666 
Q 6031 28 6363 -641 
L 5894 -878 
Q 5794 -641 5688 -416 
Q 3750 -547 2219 -653 
L 2150 -134 
Q 3088 -97 3969 -59 
L 3969 866 
L 2894 866 
L 2894 622 
L 2431 622 
L 2431 2616 
L 3969 2616 
L 3969 3297 
L 3144 3297 
L 3144 3047 
L 2681 3047 
L 2681 4972 
L 5731 4972 
L 5731 3047 
L 5269 3047 
L 5269 3297 
L 4444 3297 
L 4444 2616 
L 5988 2616 
L 5988 866 
L 4444 866 
L 4444 -41 
Q 4975 -22 5488 3 
Q 5369 241 5250 466 
z
M 425 3466 
L 1650 3466 
L 1650 4516 
L 238 4516 
L 238 4941 
L 2113 4941 
L 2113 2772 
L 1650 2772 
L 1650 3041 
L 831 3041 
L 719 2072 
L 2056 2072 
Q 1994 741 1944 128 
Q 1888 -722 1100 -722 
Q 819 -722 425 -716 
Q 388 -484 325 -216 
Q 731 -247 1019 -247 
Q 1444 -247 1475 191 
Q 1525 828 1563 1647 
L 225 1647 
L 425 3466 
z
M 5269 4547 
L 3144 4547 
L 3144 3722 
L 5269 3722 
L 5269 4547 
z
M 5525 1291 
L 5525 2191 
L 4444 2191 
L 4444 1291 
L 5525 1291 
z
M 2894 1291 
L 3969 1291 
L 3969 2191 
L 2894 2191 
L 2894 1291 
z
" transform="scale(0.015625)"/>
       <path id="MicrosoftYaHei-5ea6" d="M 1550 1216 
L 1550 1628 
L 5469 1628 
L 5469 1222 
Q 4903 613 4147 163 
Q 5050 -200 6263 -309 
L 6019 -797 
Q 4625 -603 3644 -109 
Q 2600 -619 1250 -866 
Q 1150 -666 994 -416 
Q 2231 -222 3166 166 
Q 2497 600 2066 1216 
L 1550 1216 
z
M 1363 3541 
L 2294 3541 
L 2294 4066 
L 2769 4066 
L 2769 3541 
L 4538 3541 
L 4538 4072 
L 5013 4072 
L 5013 3541 
L 6150 3541 
L 6150 3128 
L 5013 3128 
L 5013 1928 
L 4538 1928 
L 4538 2147 
L 2769 2147 
L 2769 1922 
L 2294 1922 
L 2294 3128 
L 1363 3128 
L 1363 3541 
z
M 3025 5172 
L 3481 5391 
Q 3694 5056 3909 4634 
L 6213 4634 
L 6213 4197 
L 1225 4197 
L 1225 2316 
Q 1225 178 394 -872 
Q 238 -666 38 -447 
Q 725 397 738 2347 
L 738 4634 
L 3331 4634 
Q 3188 4909 3025 5172 
z
M 2769 2547 
L 4538 2547 
L 4538 3128 
L 2769 3128 
L 2769 2547 
z
M 4819 1216 
L 2588 1216 
Q 3031 728 3656 391 
Q 4334 741 4819 1216 
z
" transform="scale(0.015625)"/>
       <path id="MicrosoftYaHei-20" transform="scale(0.015625)"/>
       <path id="MicrosoftYaHei-62" d="M 1159 488 
L 1159 0 
L 547 0 
L 547 5116 
L 1159 5116 
L 1159 2859 
L 1172 2859 
Q 1578 3538 2359 3538 
Q 3009 3538 3392 3080 
Q 3775 2622 3775 1828 
Q 3775 953 3345 436 
Q 2916 -81 2200 -81 
Q 1525 -81 1172 488 
L 1159 488 
z
M 1156 1422 
Q 1156 1003 1428 714 
Q 1700 425 2109 425 
Q 2597 425 2872 800 
Q 3147 1175 3147 1838 
Q 3147 2384 2890 2707 
Q 2634 3031 2191 3031 
Q 1741 3031 1448 2709 
Q 1156 2388 1156 1891 
L 1156 1422 
z
" transform="scale(0.015625)"/>
      </defs>
      <use xlink:href="#MicrosoftYaHei-7edf"/>
      <use xlink:href="#MicrosoftYaHei-4e00" x="100"/>
      <use xlink:href="#MicrosoftYaHei-8865" x="200"/>
      <use xlink:href="#MicrosoftYaHei-8d34" x="300"/>
      <use xlink:href="#MicrosoftYaHei-5f3a" x="400"/>
      <use xlink:href="#MicrosoftYaHei-5ea6" x="500"/>
      <use xlink:href="#MicrosoftYaHei-20" x="600"/>
      <use xlink:href="#MicrosoftYaHei-20" x="629.589844"/>
      <use xlink:href="#MicrosoftYaHei-62" x="659.179688"/>
     </g>
    </g>
   </g>
   <g id="matplotlib.axis_2">
    <g id="ytick_1">
     <g id="line2d_13">
      <path d="M 51.827953 363.610629 
L 631.720887 363.610629 
" clip-path="url(#p90da4be096)" style="fill: none; stroke: #d8d1c5; stroke-opacity: 0.34; stroke-width: 0.85; stroke-linecap: square"/>
     </g>
     <g id="line2d_14">
      <defs>
       <path id="me7b6fc2e43" d="M 0 0 
L -3.5 0 
" style="stroke: #32383a; stroke-width: 0.8"/>
      </defs>
      <g>
       <use xlink:href="#me7b6fc2e43" x="51.827953" y="363.610629" style="fill: #32383a; stroke: #32383a; stroke-width: 0.8"/>
      </g>
     </g>
     <g id="text_8">
      <!-- 0.0 -->
      <g style="fill: #32383a" transform="translate(29.985219 367.807348) scale(0.105 -0.105)">
       <defs>
        <path id="MicrosoftYaHei-2e" d="M 372 322 
Q 372 491 487 606 
Q 603 722 775 722 
Q 950 722 1065 605 
Q 1181 488 1181 322 
Q 1181 159 1065 42 
Q 950 -75 772 -75 
Q 600 -75 486 42 
Q 372 159 372 322 
z
" transform="scale(0.015625)"/>
       </defs>
       <use xlink:href="#MicrosoftYaHei-30"/>
       <use xlink:href="#MicrosoftYaHei-2e" x="58.642578"/>
       <use xlink:href="#MicrosoftYaHei-30" x="82.714844"/>
      </g>
     </g>
    </g>
    <g id="ytick_2">
     <g id="line2d_15">
      <path d="M 51.827953 299.559379 
L 631.720887 299.559379 
" clip-path="url(#p90da4be096)" style="fill: none; stroke: #d8d1c5; stroke-opacity: 0.34; stroke-width: 0.85; stroke-linecap: square"/>
     </g>
     <g id="line2d_16">
      <g>
       <use xlink:href="#me7b6fc2e43" x="51.827953" y="299.559379" style="fill: #32383a; stroke: #32383a; stroke-width: 0.8"/>
      </g>
     </g>
     <g id="text_9">
      <!-- 0.2 -->
      <g style="fill: #32383a" transform="translate(29.985219 303.756097) scale(0.105 -0.105)">
       <use xlink:href="#MicrosoftYaHei-30"/>
       <use xlink:href="#MicrosoftYaHei-2e" x="58.642578"/>
       <use xlink:href="#MicrosoftYaHei-32" x="82.714844"/>
      </g>
     </g>
    </g>
    <g id="ytick_3">
     <g id="line2d_17">
      <path d="M 51.827953 235.508128 
L 631.720887 235.508128 
" clip-path="url(#p90da4be096)" style="fill: none; stroke: #d8d1c5; stroke-opacity: 0.34; stroke-width: 0.85; stroke-linecap: square"/>
     </g>
     <g id="line2d_18">
      <g>
       <use xlink:href="#me7b6fc2e43" x="51.827953" y="235.508128" style="fill: #32383a; stroke: #32383a; stroke-width: 0.8"/>
      </g>
     </g>
     <g id="text_10">
      <!-- 0.4 -->
      <g style="fill: #32383a" transform="translate(29.985219 239.704846) scale(0.105 -0.105)">
       <use xlink:href="#MicrosoftYaHei-30"/>
       <use xlink:href="#MicrosoftYaHei-2e" x="58.642578"/>
       <use xlink:href="#MicrosoftYaHei-34" x="82.714844"/>
      </g>
     </g>
    </g>
    <g id="ytick_4">
     <g id="line2d_19">
      <path d="M 51.827953 171.456877 
L 631.720887 171.456877 
" clip-path="url(#p90da4be096)" style="fill: none; stroke: #d8d1c5; stroke-opacity: 0.34; stroke-width: 0.85; stroke-linecap: square"/>
     </g>
     <g id="line2d_20">
      <g>
       <use xlink:href="#me7b6fc2e43" x="51.827953" y="171.456877" style="fill: #32383a; stroke: #32383a; stroke-width: 0.8"/>
      </g>
     </g>
     <g id="text_11">
      <!-- 0.6 -->
      <g style="fill: #32383a" transform="translate(29.985219 175.653596) scale(0.105 -0.105)">
       <defs>
        <path id="MicrosoftYaHei-36" d="M 3181 4219 
Q 2803 4413 2391 4413 
Q 1763 4413 1381 3866 
Q 1000 3319 994 2372 
L 1009 2372 
Q 1353 3038 2106 3038 
Q 2734 3038 3109 2628 
Q 3484 2219 3484 1541 
Q 3484 831 3051 375 
Q 2619 -81 1947 -81 
Q 1209 -81 789 495 
Q 369 1072 369 2131 
Q 369 3413 920 4167 
Q 1472 4922 2372 4922 
Q 2888 4922 3181 4781 
L 3181 4219 
z
M 1031 1584 
Q 1031 1106 1286 765 
Q 1541 425 1963 425 
Q 2363 425 2613 719 
Q 2863 1013 2863 1475 
Q 2863 1975 2627 2253 
Q 2391 2531 1956 2531 
Q 1544 2531 1287 2250 
Q 1031 1969 1031 1584 
z
" transform="scale(0.015625)"/>
       </defs>
       <use xlink:href="#MicrosoftYaHei-30"/>
       <use xlink:href="#MicrosoftYaHei-2e" x="58.642578"/>
       <use xlink:href="#MicrosoftYaHei-36" x="82.714844"/>
      </g>
     </g>
    </g>
    <g id="ytick_5">
     <g id="line2d_21">
      <path d="M 51.827953 107.405626 
L 631.720887 107.405626 
" clip-path="url(#p90da4be096)" style="fill: none; stroke: #d8d1c5; stroke-opacity: 0.34; stroke-width: 0.85; stroke-linecap: square"/>
     </g>
     <g id="line2d_22">
      <g>
       <use xlink:href="#me7b6fc2e43" x="51.827953" y="107.405626" style="fill: #32383a; stroke: #32383a; stroke-width: 0.8"/>
      </g>
     </g>
     <g id="text_12">
      <!-- 0.8 -->
      <g style="fill: #32383a" transform="translate(29.985219 111.602345) scale(0.105 -0.105)">
       <defs>
        <path id="MicrosoftYaHei-38" d="M 306 1350 
Q 306 1769 556 2122 
Q 806 2475 1200 2625 
Q 884 2803 700 3081 
Q 516 3359 516 3684 
Q 516 4028 692 4312 
Q 869 4597 1183 4759 
Q 1497 4922 1875 4922 
Q 2256 4922 2572 4761 
Q 2888 4600 3063 4315 
Q 3238 4031 3238 3684 
Q 3238 3366 3058 3086 
Q 2878 2806 2559 2625 
Q 2953 2472 3200 2119 
Q 3447 1766 3447 1350 
Q 3447 938 3250 611 
Q 3053 284 2690 103 
Q 2328 -78 1875 -78 
Q 1425 -78 1065 103 
Q 706 284 506 612 
Q 306 941 306 1350 
z
M 906 1378 
Q 906 947 1172 687 
Q 1438 428 1878 428 
Q 2309 428 2582 692 
Q 2856 956 2856 1378 
Q 2856 1778 2579 2051 
Q 2303 2325 1878 2325 
Q 1456 2325 1181 2058 
Q 906 1791 906 1378 
z
M 1081 3634 
Q 1081 3309 1312 3076 
Q 1544 2844 1878 2844 
Q 2206 2844 2445 3078 
Q 2684 3313 2684 3634 
Q 2684 3963 2454 4191 
Q 2225 4419 1878 4419 
Q 1534 4419 1307 4195 
Q 1081 3972 1081 3634 
z
" transform="scale(0.015625)"/>
       </defs>
       <use xlink:href="#MicrosoftYaHei-30"/>
       <use xlink:href="#MicrosoftYaHei-2e" x="58.642578"/>
       <use xlink:href="#MicrosoftYaHei-38" x="82.714844"/>
      </g>
     </g>
    </g>
    <g id="ytick_6">
     <g id="line2d_23">
      <path d="M 51.827953 43.354375 
L 631.720887 43.354375 
" clip-path="url(#p90da4be096)" style="fill: none; stroke: #d8d1c5; stroke-opacity: 0.34; stroke-width: 0.85; stroke-linecap: square"/>
     </g>
     <g id="line2d_24">
      <g>
       <use xlink:href="#me7b6fc2e43" x="51.827953" y="43.354375" style="fill: #32383a; stroke: #32383a; stroke-width: 0.8"/>
      </g>
     </g>
     <g id="text_13">
      <!-- 1.0 -->
      <g style="fill: #32383a" transform="translate(29.985219 47.551094) scale(0.105 -0.105)">
       <use xlink:href="#MicrosoftYaHei-31"/>
       <use xlink:href="#MicrosoftYaHei-2e" x="58.642578"/>
       <use xlink:href="#MicrosoftYaHei-30" x="82.714844"/>
      </g>
     </g>
    </g>
    <g id="text_14">
     <!-- 平台 A 最终综合份额  $L_A$ -->
     <g transform="translate(16.952375 267.13594) rotate(-90) scale(0.122 -0.122)">
      <defs>
       <path id="MicrosoftYaHei-5e73" d="M 169 1934 
L 2938 1934 
L 2938 4547 
L 450 4547 
L 450 5028 
L 5975 5028 
L 5975 4547 
L 3463 4547 
L 3463 1934 
L 6250 1934 
L 6250 1453 
L 3463 1453 
L 3463 -847 
L 2938 -847 
L 2938 1453 
L 169 1453 
L 169 1934 
z
M 3950 2559 
Q 4638 3284 5188 4159 
L 5656 3859 
Q 4950 2891 4338 2234 
L 3950 2559 
z
M 769 3859 
L 1163 4134 
Q 1863 3316 2369 2553 
L 1925 2222 
Q 1444 3003 769 3859 
z
" transform="scale(0.015625)"/>
       <path id="MicrosoftYaHei-53f0" d="M 5431 2022 
L 5431 -816 
L 4919 -816 
L 4919 -403 
L 1481 -403 
L 1481 -816 
L 969 -816 
L 969 2022 
L 5431 2022 
z
M 4513 4503 
Q 5494 3591 6369 2634 
L 5925 2266 
Q 5675 2559 5419 2844 
Q 2613 2725 1131 2641 
Q 788 2616 469 2541 
L 263 3078 
Q 550 3184 781 3372 
Q 1850 4247 2738 5391 
L 3206 5103 
Q 2269 4003 1250 3147 
Q 3166 3206 5019 3284 
Q 4591 3750 4150 4191 
L 4513 4503 
z
M 4919 1559 
L 1481 1559 
L 1481 47 
L 4919 47 
L 4919 1559 
z
" transform="scale(0.015625)"/>
       <path id="MicrosoftYaHei-41" d="M 4428 0 
L 3738 0 
L 3244 1325 
L 1228 1325 
L 763 0 
L 72 0 
L 1916 4841 
L 2584 4841 
L 4428 0 
z
M 3050 1872 
L 2319 3884 
Q 2284 3981 2244 4222 
L 2228 4222 
Q 2194 4003 2150 3884 
L 1425 1872 
L 3050 1872 
z
" transform="scale(0.015625)"/>
       <path id="MicrosoftYaHei-6700" d="M 169 -28 
Q 475 3 781 38 
L 781 2416 
L 94 2416 
L 94 2791 
L 6288 2791 
L 6288 2416 
L 3025 2416 
L 3025 331 
Q 3325 375 3625 422 
Q 3619 309 3631 22 
Q 3338 -19 3025 -63 
L 3025 -859 
L 2600 -859 
L 2600 -125 
Q 1525 -278 281 -472 
L 169 -28 
z
M 1038 5053 
L 5363 5053 
L 5363 3047 
L 4925 3047 
L 4925 3191 
L 1475 3191 
L 1475 3047 
L 1038 3047 
L 1038 5053 
z
M 3338 1609 
L 3338 1972 
L 5819 1972 
L 5819 1609 
Q 5500 844 4981 278 
Q 5516 -113 6306 -316 
Q 6144 -553 6025 -753 
Q 5219 -488 4666 -34 
Q 4128 -516 3413 -822 
Q 3306 -634 3125 -428 
Q 3834 -156 4347 266 
Q 3825 825 3603 1609 
L 3338 1609 
z
M 1475 3553 
L 4925 3553 
L 4925 3953 
L 1475 3953 
L 1475 3553 
z
M 4925 4691 
L 1475 4691 
L 1475 4291 
L 4925 4291 
L 4925 4691 
z
M 5344 1609 
L 4025 1609 
Q 4222 994 4659 556 
Q 5094 1013 5344 1609 
z
M 2600 269 
L 2600 691 
L 1206 691 
L 1206 88 
Q 1913 172 2600 269 
z
M 1206 1916 
L 2600 1916 
L 2600 2416 
L 1206 2416 
L 1206 1916 
z
M 1206 1053 
L 2600 1053 
L 2600 1553 
L 1206 1553 
L 1206 1053 
z
" transform="scale(0.015625)"/>
       <path id="MicrosoftYaHei-7ec8" d="M 2156 3234 
Q 2944 4253 3356 5366 
L 3825 5209 
Q 3700 4925 3563 4653 
L 5906 4653 
L 5906 4209 
Q 5425 3378 4663 2750 
Q 5381 2259 6350 2097 
Q 6219 1797 6131 1566 
Q 5038 1875 4278 2456 
Q 3447 1878 2331 1503 
Q 2231 1734 2113 1941 
Q 3156 2238 3931 2756 
Q 3434 3228 3119 3847 
Q 2816 3350 2469 2903 
Q 2350 3041 2156 3234 
z
M 888 1528 
Q 1413 1603 2113 1709 
Q 2075 1466 2056 1241 
Q 1344 1141 319 978 
L 219 1434 
Q 594 1828 1163 2794 
Q 506 2753 219 2728 
L 100 3153 
Q 663 3897 1288 5366 
L 1763 5178 
Q 1156 3991 656 3191 
Q 1047 3200 1403 3209 
Q 1638 3625 1900 4122 
L 2369 3916 
Q 1463 2347 888 1528 
z
M 2625 109 
L 2819 547 
Q 3969 234 5675 -297 
L 5444 -791 
Q 3850 -222 2625 109 
z
M 5356 4234 
L 3372 4234 
Q 3750 3513 4303 3028 
Q 4938 3541 5356 4234 
z
M 88 66 
Q 1069 259 2250 547 
Q 2231 203 2231 78 
Q 1375 -109 225 -416 
L 88 66 
z
M 3338 1247 
L 3525 1666 
Q 4469 1384 5413 1047 
L 5206 553 
Q 4275 953 3338 1247 
z
" transform="scale(0.015625)"/>
       <path id="MicrosoftYaHei-7efc" d="M 881 1578 
Q 1550 1684 2100 1778 
Q 2063 1534 2044 1303 
Q 988 1159 306 1022 
L 194 1484 
Q 678 1988 1188 2756 
Q 581 2719 250 2691 
L 131 3116 
Q 813 4022 1394 5347 
L 1869 5159 
Q 1288 4041 694 3153 
Q 1091 3163 1453 3172 
Q 1691 3566 1938 4016 
L 2400 3784 
Q 1588 2484 881 1578 
z
M 2406 2016 
L 6275 2016 
L 6275 1603 
L 4638 1603 
L 4638 3 
Q 4638 -747 3888 -747 
Q 3631 -747 3213 -741 
Q 3181 -553 3119 -259 
Q 3469 -297 3756 -297 
Q 4163 -297 4163 134 
L 4163 1603 
L 2406 1603 
L 2406 2016 
z
M 2513 4528 
L 4166 4528 
Q 3931 4878 3713 5147 
L 4125 5397 
Q 4431 5041 4650 4716 
L 4347 4528 
L 6194 4528 
L 6194 3522 
L 5731 3522 
L 5731 4116 
L 2975 4116 
L 2975 3522 
L 2513 3522 
L 2513 4528 
z
M 2781 3241 
L 5913 3241 
L 5913 2828 
L 2781 2828 
L 2781 3241 
z
M 113 84 
Q 944 197 2175 428 
Q 2138 91 2131 -34 
Q 1425 -147 225 -391 
L 113 84 
z
M 3044 1284 
L 3500 1091 
Q 3081 203 2688 -428 
Q 2469 -309 2238 -197 
Q 2681 466 3044 1284 
z
M 5081 1059 
L 5506 1278 
Q 5931 641 6344 -134 
L 5888 -384 
Q 5469 441 5081 1059 
z
" transform="scale(0.015625)"/>
       <path id="MicrosoftYaHei-5408" d="M 1025 1909 
L 5381 1909 
L 5381 -866 
L 4881 -866 
L 4881 -447 
L 1525 -447 
L 1525 -878 
L 1025 -878 
L 1025 1909 
z
M 3700 5234 
L 3550 5053 
Q 4594 3697 6319 3009 
Q 6125 2734 5988 2509 
Q 5481 2753 5025 3059 
L 5025 2703 
L 1369 2703 
L 1369 3016 
Q 913 2716 394 2428 
Q 269 2641 81 2897 
Q 2013 3866 3000 5234 
L 3700 5234 
z
M 4881 1453 
L 1525 1453 
L 1525 -3 
L 4881 -3 
L 4881 1453 
z
M 3219 4691 
Q 2581 3872 1550 3147 
L 4894 3147 
Q 3944 3797 3219 4691 
z
" transform="scale(0.015625)"/>
       <path id="MicrosoftYaHei-4efd" d="M 2269 2653 
L 5394 2653 
Q 5388 2566 5300 366 
Q 5275 -709 4319 -722 
Q 3806 -722 3425 -703 
Q 3394 -416 3331 -184 
Q 3763 -241 4200 -253 
Q 4806 -297 4813 422 
Q 4863 1259 4888 2216 
L 3481 2216 
Q 3463 1222 3181 572 
Q 2844 -172 2019 -822 
Q 1856 -622 1656 -416 
Q 2450 203 2713 772 
Q 2969 1275 2997 2216 
L 2269 2216 
L 2269 2653 
z
M 75 2353 
Q 969 3534 1525 5284 
L 2013 5116 
Q 1709 4284 1350 3559 
L 1350 -809 
L 875 -809 
L 875 2691 
Q 588 2216 275 1797 
Q 181 2066 75 2353 
z
M 4006 5116 
L 4419 5291 
Q 5038 3703 6325 2972 
Q 6088 2697 5969 2516 
Q 4575 3472 4006 5116 
z
M 1588 2741 
Q 2563 3597 3163 5034 
L 3606 4866 
Q 3025 3409 1963 2397 
Q 1738 2628 1588 2741 
z
" transform="scale(0.015625)"/>
       <path id="MicrosoftYaHei-989d" d="M 863 2484 
L 1094 2834 
Q 1463 2653 1794 2491 
Q 2119 2809 2344 3203 
L 1125 3203 
Q 794 2659 419 2247 
Q 281 2397 125 2547 
Q 719 3172 1100 4072 
L 1513 3934 
Q 1425 3747 1331 3578 
L 2844 3578 
L 2844 3222 
Q 2588 2703 2194 2291 
Q 2738 2016 3194 1778 
L 2938 1372 
Q 2406 1678 1850 1978 
Q 1381 1597 763 1322 
L 2756 1322 
L 2756 -684 
L 2344 -684 
L 2344 -416 
L 1063 -416 
L 1063 -734 
L 650 -734 
L 650 1272 
Q 463 1197 269 1128 
Q 188 1297 63 1509 
Q 869 1766 1444 2191 
Q 1156 2334 863 2484 
z
M 3369 3728 
L 4281 3728 
L 4425 4516 
L 3244 4516 
L 3244 4941 
L 6231 4941 
L 6231 4516 
L 4906 4516 
L 4738 3728 
L 6038 3728 
L 6038 591 
L 5600 591 
L 5600 3303 
L 3806 3303 
L 3806 591 
L 3369 591 
L 3369 3728 
z
M 4481 2916 
L 4931 2916 
Q 4944 1322 4788 709 
Q 5688 78 6356 -453 
L 6044 -853 
Q 5438 -303 4619 291 
Q 4231 -416 3169 -916 
Q 3044 -734 2869 -516 
Q 4019 -3 4294 716 
Q 4519 1216 4481 2916 
z
M 250 4591 
L 1538 4591 
Q 1413 4872 1244 5172 
L 1650 5347 
Q 1881 4916 2031 4591 
L 3138 4591 
L 3138 3709 
L 2713 3709 
L 2713 4216 
L 675 4216 
L 675 3709 
L 250 3709 
L 250 4591 
z
M 2344 934 
L 1063 934 
L 1063 -28 
L 2344 -28 
L 2344 934 
z
" transform="scale(0.015625)"/>
       <path id="DejaVuSans-Oblique-4c" d="M 1075 4666 
L 1709 4666 
L 909 525 
L 3181 525 
L 3078 0 
L 172 0 
L 1075 4666 
z
" transform="scale(0.015625)"/>
       <path id="DejaVuSans-Oblique-41" d="M 2356 4666 
L 3072 4666 
L 3938 0 
L 3278 0 
L 3084 1197 
L 984 1197 
L 325 0 
L -341 0 
L 2356 4666 
z
M 2584 4044 
L 1275 1722 
L 2988 1722 
L 2584 4044 
z
" transform="scale(0.015625)"/>
      </defs>
      <use xlink:href="#MicrosoftYaHei-5e73" transform="translate(0 0.671875)"/>
      <use xlink:href="#MicrosoftYaHei-53f0" transform="translate(100 0.671875)"/>
      <use xlink:href="#MicrosoftYaHei-20" transform="translate(200 0.671875)"/>
      <use xlink:href="#MicrosoftYaHei-41" transform="translate(229.589844 0.671875)"/>
      <use xlink:href="#MicrosoftYaHei-20" transform="translate(299.951172 0.671875)"/>
      <use xlink:href="#MicrosoftYaHei-6700" transform="translate(329.541016 0.671875)"/>
      <use xlink:href="#MicrosoftYaHei-7ec8" transform="translate(429.541016 0.671875)"/>
      <use xlink:href="#MicrosoftYaHei-7efc" transform="translate(529.541016 0.671875)"/>
      <use xlink:href="#MicrosoftYaHei-5408" transform="translate(629.541016 0.671875)"/>
      <use xlink:href="#MicrosoftYaHei-4efd" transform="translate(729.541016 0.671875)"/>
      <use xlink:href="#MicrosoftYaHei-989d" transform="translate(829.541016 0.671875)"/>
      <use xlink:href="#MicrosoftYaHei-20" transform="translate(929.541016 0.671875)"/>
      <use xlink:href="#MicrosoftYaHei-20" transform="translate(959.130859 0.671875)"/>
      <use xlink:href="#DejaVuSans-Oblique-4c" transform="translate(988.720703 0.671875)"/>
      <use xlink:href="#DejaVuSans-Oblique-41" transform="translate(1044.433594 -15.734375) scale(0.7)"/>
     </g>
    </g>
   </g>
   <g id="line2d_25">
    <path d="M 51.827953 171.456877 
L 631.720887 171.456877 
" clip-path="url(#p90da4be096)" style="fill: none; stroke-dasharray: 4.6,4.6; stroke-dashoffset: 0; stroke: #687070; stroke-opacity: 0.7; stroke-width: 1.15"/>
   </g>
   <g id="line2d_26">
    <path d="M 51.827953 363.067755 
L 57.626882 363.009369 
L 63.425812 362.944545 
L 69.224741 362.872536 
L 75.02367 362.792502 
L 80.8226 362.703489 
L 86.621529 362.604419 
L 92.420459 362.494066 
L 98.219388 362.371031 
L 104.018317 362.233715 
L 109.817247 362.080279 
L 115.616176 361.908603 
L 121.415105 361.716225 
L 127.214035 361.500273 
L 133.012964 361.25737 
L 138.811893 360.983518 
L 144.610823 360.67394 
L 150.409752 360.322865 
L 156.208681 43.442629 
L 162.007611 43.434209 
L 167.80654 43.426586 
L 173.605469 43.419699 
L 179.404399 43.41347 
L 185.203328 43.407834 
L 191.002257 43.402746 
L 196.801187 43.398129 
L 202.600116 43.39396 
L 208.399045 43.390187 
L 214.197975 43.386775 
L 219.996904 43.383689 
L 225.795833 43.38091 
L 231.594763 43.378378 
L 237.393692 43.376087 
L 243.192621 43.374019 
L 248.991551 43.372149 
L 254.79048 43.370467 
L 260.589409 43.368927 
L 266.388339 43.367541 
L 272.187268 43.366287 
L 277.986197 43.365165 
L 283.785127 43.364139 
L 289.584056 43.363206 
L 295.382985 43.36236 
L 301.181915 43.3616 
L 306.980844 43.360913 
L 312.779773 43.360291 
L 318.578703 43.359728 
L 324.377632 43.359219 
L 330.176561 43.358765 
L 335.975491 43.358347 
L 341.77442 43.35797 
L 347.573349 43.357629 
L 353.372279 43.357325 
L 359.171208 43.357045 
L 364.970138 43.356789 
L 370.769067 43.356559 
L 376.567996 43.35635 
L 382.366926 43.35616 
L 388.165855 43.355996 
L 393.964784 43.355846 
L 399.763714 43.355711 
L 405.562643 43.355582 
L 411.361572 43.355472 
L 417.160502 43.355365 
L 422.959431 43.35527 
L 428.75836 43.355186 
L 434.55729 43.355123 
L 440.356219 43.355025 
L 446.155148 43.354971 
L 451.954078 43.354906 
L 457.753007 43.354854 
L 463.551936 43.354808 
L 469.350866 43.35477 
L 475.149795 43.354728 
L 480.948724 43.354692 
L 486.747654 43.354767 
L 492.546583 43.354728 
L 498.345512 43.354641 
L 504.144442 43.354753 
L 509.943371 43.35464 
L 515.7423 43.354636 
L 521.54123 43.354636 
L 527.340159 43.354662 
L 533.139088 43.354565 
L 538.938018 43.354657 
L 544.736947 43.35455 
L 550.535876 43.354598 
L 556.334806 43.354557 
L 562.133735 43.354539 
L 567.932664 43.354539 
L 573.731594 43.35453 
L 579.530523 43.354498 
L 585.329452 43.354506 
L 591.128382 43.354447 
L 596.927311 43.354484 
L 602.72624 43.354466 
L 608.52517 43.354432 
L 614.324099 43.35446 
L 620.123029 43.35445 
L 625.921958 43.354404 
L 631.720887 43.35441 
" clip-path="url(#p90da4be096)" style="fill: none; stroke: #2f9c5b; stroke-width: 2.8; stroke-linecap: round"/>
   </g>
   <g id="line2d_27">
    <path d="M 156.208681 363.610629 
L 156.208681 36.94925 
" clip-path="url(#p90da4be096)" style="fill: none; stroke-dasharray: 5.6,5.6; stroke-dashoffset: 0; stroke: #e58f3a; stroke-width: 1.4"/>
   </g>
   <g id="patch_4">
    <path d="M 51.827953 363.610629 
L 51.827953 36.94925 
" style="fill: none; stroke: #a9a197; stroke-width: 0.8; stroke-linejoin: miter; stroke-linecap: square"/>
   </g>
   <g id="patch_5">
    <path d="M 51.827953 363.610629 
L 631.720887 363.610629 
" style="fill: none; stroke: #a9a197; stroke-width: 0.8; stroke-linejoin: miter; stroke-linecap: square"/>
   </g>
   <g id="text_15">
    <!-- 补贴阈值 -->
    <g style="fill: #b4671f" transform="translate(165.486968 143.062745) scale(0.107 -0.107)">
     <defs>
      <path id="MicrosoftYaHei-9608" d="M 3163 703 
Q 3475 947 3731 1234 
Q 3500 1984 3419 3141 
L 1225 3141 
L 1225 3541 
L 3394 3541 
Q 3381 3891 3381 4284 
L 3813 4284 
Q 3819 3891 3838 3541 
L 5313 3541 
L 5313 3141 
L 3856 3141 
Q 3925 2266 4075 1659 
Q 4425 2153 4650 2753 
L 5075 2572 
Q 4725 1791 4231 1166 
Q 4344 872 4488 678 
Q 4706 434 4763 691 
Q 4819 984 4844 1266 
Q 5088 1159 5269 1122 
Q 5194 584 5131 316 
Q 5038 -59 4819 -59 
Q 4469 -59 4106 434 
Q 3994 584 3906 784 
Q 3656 516 3381 284 
Q 3281 528 3163 703 
z
M 2425 4491 
L 2425 4916 
L 5988 4916 
L 5988 -3 
Q 5988 -766 5181 -766 
Q 4819 -766 4356 -753 
Q 4300 -403 4256 -284 
Q 4769 -322 5088 -322 
Q 5544 -322 5544 97 
L 5544 4491 
L 2425 4491 
z
M 1425 2609 
L 3106 2609 
L 3106 909 
L 2700 909 
L 2700 1134 
L 1831 1134 
L 1831 847 
L 1425 847 
L 1425 2609 
z
M 431 4084 
L 875 4084 
L 875 -816 
L 431 -816 
L 431 4084 
z
M 1119 378 
Q 2169 466 3200 578 
Q 3206 347 3213 153 
Q 2256 59 1181 -47 
L 1119 378 
z
M 2700 2234 
L 1831 2234 
L 1831 1509 
L 2700 1509 
L 2700 2234 
z
M 800 4984 
L 1119 5278 
Q 1563 4872 1975 4422 
L 1613 4091 
Q 1213 4566 800 4984 
z
M 4038 4141 
L 4269 4428 
Q 4619 4184 4931 3934 
L 4663 3616 
Q 4444 3809 4038 4141 
z
" transform="scale(0.015625)"/>
      <path id="MicrosoftYaHei-503c" d="M 1619 -216 
L 2250 -216 
L 2250 3653 
L 3725 3653 
L 3725 4222 
L 1913 4222 
L 1913 4647 
L 3725 4647 
L 3725 5309 
L 4200 5309 
L 4200 4647 
L 6169 4647 
L 6169 4222 
L 4200 4222 
L 4200 3653 
L 5713 3653 
L 5713 -216 
L 6306 -216 
L 6306 -641 
L 1619 -641 
L 1619 -216 
z
M 69 2247 
Q 906 3497 1369 5278 
L 1831 5141 
Q 1581 4334 1288 3628 
L 1288 -816 
L 831 -816 
L 831 2666 
Q 563 2166 263 1734 
Q 175 1997 69 2247 
z
M 2713 -216 
L 5250 -216 
L 5250 353 
L 2713 353 
L 2713 -216 
z
M 5250 3241 
L 2713 3241 
L 2713 2678 
L 5250 2678 
L 5250 3241 
z
M 2713 1716 
L 5250 1716 
L 5250 2278 
L 2713 2278 
L 2713 1716 
z
M 2713 753 
L 5250 753 
L 5250 1316 
L 2713 1316 
L 2713 753 
z
" transform="scale(0.015625)"/>
     </defs>
     <use xlink:href="#MicrosoftYaHei-8865"/>
     <use xlink:href="#MicrosoftYaHei-8d34" x="100"/>
     <use xlink:href="#MicrosoftYaHei-9608" x="200"/>
     <use xlink:href="#MicrosoftYaHei-503c" x="300"/>
    </g>
    <!-- b*≈0.90 -->
    <g style="fill: #b4671f" transform="translate(165.486968 155.986674) scale(0.107 -0.107)">
     <defs>
      <path id="MicrosoftYaHei-2a" d="M 2663 3706 
L 1738 3525 
L 2384 2716 
L 1984 2441 
L 1466 3334 
L 941 2441 
L 541 2716 
L 1184 3525 
L 253 3706 
L 416 4156 
L 1297 3819 
L 1213 4841 
L 1716 4841 
L 1628 3819 
L 2509 4156 
L 2663 3706 
z
" transform="scale(0.015625)"/>
      <path id="MicrosoftYaHei-2248" d="M 4053 3256 
Q 4028 2750 3778 2472 
Q 3528 2194 3094 2194 
Q 2728 2194 2203 2550 
Q 1872 2778 1669 2778 
Q 1203 2778 1184 2191 
L 700 2191 
Q 722 2703 980 2978 
Q 1238 3253 1659 3253 
Q 2019 3253 2456 2959 
Q 2894 2663 3116 2663 
Q 3322 2663 3444 2823 
Q 3566 2984 3572 3256 
L 4053 3256 
z
M 4053 1853 
Q 4028 1347 3778 1067 
Q 3528 788 3094 788 
Q 2725 788 2203 1147 
Q 1878 1369 1669 1369 
Q 1203 1369 1184 784 
L 700 784 
Q 722 1294 980 1572 
Q 1238 1850 1659 1850 
Q 2022 1850 2456 1559 
Q 2906 1256 3116 1256 
Q 3319 1256 3441 1423 
Q 3563 1591 3572 1853 
L 4053 1853 
z
" transform="scale(0.015625)"/>
      <path id="MicrosoftYaHei-39" d="M 578 656 
Q 978 425 1441 425 
Q 2091 425 2448 937 
Q 2806 1450 2806 2394 
Q 2800 2388 2794 2394 
Q 2475 1788 1722 1788 
Q 1113 1788 713 2206 
Q 313 2625 313 3294 
Q 313 4006 750 4464 
Q 1188 4922 1884 4922 
Q 2606 4922 3012 4355 
Q 3419 3788 3419 2703 
Q 3419 1363 2894 641 
Q 2369 -81 1441 -81 
Q 931 -81 578 84 
L 578 656 
z
M 931 3372 
Q 931 2884 1181 2598 
Q 1431 2313 1872 2313 
Q 2253 2313 2512 2573 
Q 2772 2834 2772 3206 
Q 2772 3728 2514 4070 
Q 2256 4413 1834 4413 
Q 1444 4413 1187 4116 
Q 931 3819 931 3372 
z
" transform="scale(0.015625)"/>
     </defs>
     <use xlink:href="#MicrosoftYaHei-62"/>
     <use xlink:href="#MicrosoftYaHei-2a" x="63.867188"/>
     <use xlink:href="#MicrosoftYaHei-2248" x="109.375"/>
     <use xlink:href="#MicrosoftYaHei-30" x="183.642578"/>
     <use xlink:href="#MicrosoftYaHei-2e" x="242.285156"/>
     <use xlink:href="#MicrosoftYaHei-39" x="266.357422"/>
     <use xlink:href="#MicrosoftYaHei-30" x="325"/>
    </g>
   </g>
   <g id="text_16">
    <!-- 实验 5：补贴强度与最终市场份额 -->
    <g transform="translate(213.509451 20.94925) scale(0.172 -0.172)">
     <defs>
      <path id="MicrosoftYaHei-Bold-5b9e" d="M 4219 3716 
Q 4181 2422 4056 1653 
L 6238 1653 
L 6238 878 
L 3863 878 
Q 3850 841 3813 766 
Q 5019 372 6206 -66 
L 5881 -847 
Q 4619 -316 3369 153 
Q 2550 -616 863 -916 
Q 556 -384 331 -78 
Q 2338 209 2894 878 
L 169 878 
L 169 1653 
L 2144 1653 
Q 1481 2053 931 2328 
L 1319 2934 
Q 1894 2659 2638 2247 
L 2244 1653 
L 3175 1653 
Q 3331 2453 3350 3716 
L 4219 3716 
z
M 300 3078 
L 300 4703 
L 2819 4703 
Q 2700 5009 2606 5228 
L 3675 5341 
Q 3769 5084 3888 4703 
L 6094 4703 
L 6094 3078 
L 5225 3078 
L 5225 3953 
L 1169 3953 
L 1169 3078 
L 300 3078 
z
M 1813 3772 
Q 2469 3484 3163 3134 
L 2769 2497 
Q 2031 2909 1450 3184 
L 1813 3772 
z
" transform="scale(0.015625)"/>
      <path id="MicrosoftYaHei-Bold-9a8c" d="M 1138 4053 
L 969 2491 
L 1419 2491 
L 1563 4241 
L 200 4241 
L 200 4991 
L 2369 4991 
L 2163 2491 
L 2525 2491 
Q 2463 691 2413 203 
Q 2369 -553 1838 -672 
Q 1581 -709 644 -709 
Q 588 -253 519 134 
Q 906 91 1350 78 
Q 1669 78 1694 378 
Q 1731 791 1763 1741 
L 181 1741 
L 400 4053 
L 1138 4053 
z
M 5544 2647 
L 3163 2647 
L 3163 2997 
Q 2944 2797 2706 2603 
Q 2525 2991 2300 3391 
Q 3313 4134 3925 5278 
L 4875 5278 
L 4738 5053 
Q 5469 3984 6381 3466 
Q 6163 3116 5950 2691 
Q 5738 2828 5544 2984 
L 5544 2647 
z
M 2556 116 
L 4694 116 
Q 5063 1253 5250 2303 
L 6025 2103 
Q 5775 1141 5438 116 
L 6213 116 
L 6213 -634 
L 2556 -634 
L 2556 116 
z
M 3263 2172 
Q 3569 1397 3856 503 
L 3175 259 
Q 2981 978 2625 1934 
L 3263 2172 
z
M 4425 2428 
Q 4644 1584 4806 753 
L 4113 584 
Q 3988 1366 3763 2278 
L 4425 2428 
z
M 75 1216 
Q 763 1278 1525 1378 
Q 1531 984 1538 628 
Q 838 541 175 428 
L 75 1216 
z
M 4300 4347 
Q 4013 3897 3544 3384 
L 5113 3384 
Q 4663 3859 4300 4347 
z
" transform="scale(0.015625)"/>
      <path id="MicrosoftYaHei-Bold-20" transform="scale(0.015625)"/>
      <path id="MicrosoftYaHei-Bold-35" d="M 541 125 
L 541 997 
Q 1044 691 1613 691 
Q 2041 691 2283 902 
Q 2525 1113 2525 1472 
Q 2525 2225 1494 2225 
Q 1113 2225 616 2169 
L 797 4841 
L 3359 4841 
L 3359 4009 
L 1613 4009 
L 1544 2991 
Q 1803 3013 2022 3013 
Q 2731 3013 3142 2625 
Q 3553 2238 3553 1575 
Q 3553 844 3056 380 
Q 2559 -84 1706 -84 
Q 1016 -84 541 125 
z
" transform="scale(0.015625)"/>
      <path id="MicrosoftYaHei-Bold-ff1a" d="M 1594 3506 
Q 1831 3506 2000 3354 
Q 2169 3203 2169 2981 
Q 2169 2766 2003 2614 
Q 1838 2463 1594 2463 
Q 1353 2463 1189 2616 
Q 1025 2769 1025 2981 
Q 1025 3200 1192 3353 
Q 1359 3506 1594 3506 
z
M 1594 959 
Q 1831 959 2000 806 
Q 2169 653 2169 434 
Q 2169 222 2000 69 
Q 1831 -84 1594 -84 
Q 1356 -84 1190 69 
Q 1025 222 1025 434 
Q 1025 653 1190 806 
Q 1356 959 1594 959 
z
" transform="scale(0.015625)"/>
      <path id="MicrosoftYaHei-Bold-8865" d="M 2806 2972 
L 3431 2578 
Q 3084 2116 2728 1688 
L 3338 1284 
L 2819 634 
Q 2350 1006 1925 1325 
L 1925 -866 
L 1056 -866 
L 1056 1528 
Q 713 1181 325 822 
Q 200 1322 44 1766 
Q 944 2491 1569 3309 
L 163 3309 
L 163 4122 
L 1284 4122 
Q 1019 4519 650 4991 
L 1369 5397 
Q 1794 4897 2113 4447 
L 1563 4122 
L 2581 4122 
L 2581 3372 
Q 2297 2941 1925 2488 
L 1925 2194 
Q 2056 2116 2181 2034 
Q 2509 2503 2806 2972 
z
M 4875 3428 
Q 5694 2716 6356 2059 
L 5675 1384 
Q 5150 1975 4569 2566 
L 4569 -866 
L 3663 -866 
L 3663 5297 
L 4569 5297 
L 4569 3156 
L 4875 3428 
z
" transform="scale(0.015625)"/>
      <path id="MicrosoftYaHei-Bold-8d34" d="M 3231 -834 
L 3231 2341 
L 4150 2341 
L 4150 5309 
L 4994 5309 
L 4994 4141 
L 6313 4141 
L 6313 3391 
L 4994 3391 
L 4994 2341 
L 6031 2341 
L 6031 -822 
L 5250 -822 
L 5250 -434 
L 4013 -434 
L 4013 -834 
L 3231 -834 
z
M 5250 1591 
L 4013 1591 
L 4013 316 
L 5250 316 
L 5250 1591 
z
M 350 1147 
L 350 5059 
L 2975 5059 
L 2975 1172 
L 2281 1172 
L 2281 4341 
L 1044 4341 
L 1044 1147 
L 350 1147 
z
M 1338 4078 
L 1988 4078 
L 1988 1841 
Q 1988 1559 1947 1300 
L 3088 -91 
L 2475 -609 
Q 2059 9 1706 503 
Q 1356 -259 563 -822 
Q 381 -547 94 -178 
Q 1338 703 1338 1847 
L 1338 4078 
z
" transform="scale(0.015625)"/>
      <path id="MicrosoftYaHei-Bold-5f3a" d="M 163 1403 
L 325 3622 
L 1375 3622 
L 1375 4353 
L 194 4353 
L 194 5097 
L 2150 5097 
L 2150 2878 
L 1050 2878 
L 994 2147 
L 2081 2147 
Q 2056 622 2017 169 
Q 1978 -284 1847 -478 
Q 1716 -672 1497 -736 
Q 1278 -800 381 -784 
Q 331 -478 200 53 
Q 672 34 866 34 
Q 1113 34 1181 201 
Q 1250 369 1275 1403 
L 163 1403 
z
M 5716 816 
Q 6025 191 6344 -572 
L 5625 -859 
L 5463 -459 
Q 4025 -631 2325 -791 
L 2175 9 
L 3813 128 
L 3813 816 
L 2406 816 
L 2406 2797 
L 3813 2797 
L 3813 3228 
L 2613 3228 
L 2613 5091 
L 5813 5091 
L 5813 3228 
L 4613 3228 
L 4613 2797 
L 6031 2797 
L 6031 816 
L 5716 816 
z
M 5025 4403 
L 3400 4403 
L 3400 3916 
L 5025 3916 
L 5025 4403 
z
M 5256 1503 
L 5256 2109 
L 4613 2109 
L 4613 1503 
L 5256 1503 
z
M 3181 1503 
L 3813 1503 
L 3813 2109 
L 3181 2109 
L 3181 1503 
z
M 5709 816 
L 4613 816 
L 4613 200 
L 5150 253 
L 5013 553 
L 5709 816 
z
" transform="scale(0.015625)"/>
      <path id="MicrosoftYaHei-Bold-5ea6" d="M 5656 1697 
L 5656 1022 
Q 5156 447 4656 97 
Q 5344 -34 6306 -66 
Q 6119 -428 5938 -822 
Q 4556 -653 3719 -353 
Q 2825 -653 1494 -872 
Q 1338 -522 1088 -178 
Q 2100 -128 2888 78 
Q 2369 453 1938 1022 
L 1538 1022 
L 1538 1697 
L 5656 1697 
z
M 1325 2478 
Q 1338 134 700 -884 
Q 356 -553 19 -297 
Q 550 697 525 2591 
L 525 4772 
L 3013 4772 
Q 2944 4953 2831 5209 
L 3869 5359 
Q 3981 5072 4094 4772 
L 6256 4772 
L 6256 4072 
L 1325 4072 
L 1325 2478 
z
M 1463 3684 
L 2144 3684 
L 2144 3947 
L 2944 3947 
L 2944 3684 
L 4494 3684 
L 4494 3947 
L 5294 3947 
L 5294 3684 
L 6144 3684 
L 6144 3009 
L 5294 3009 
L 5294 1991 
L 2144 1991 
L 2144 3009 
L 1463 3009 
L 1463 3684 
z
M 3756 378 
Q 4325 641 4725 1022 
L 2825 1022 
Q 3225 622 3756 378 
z
M 4494 2628 
L 4494 3009 
L 2944 3009 
L 2944 2628 
L 4494 2628 
z
" transform="scale(0.015625)"/>
      <path id="MicrosoftYaHei-Bold-4e0e" d="M 6138 3747 
L 2000 3747 
L 1956 3041 
L 5838 3041 
L 5738 541 
Q 5709 -169 5351 -453 
Q 4994 -738 4381 -741 
L 3031 -741 
Q 2956 -359 2813 166 
Q 3463 134 4081 134 
Q 4731 134 4784 526 
Q 4838 919 4863 2234 
L 969 2234 
L 1144 5272 
L 2094 5272 
L 2050 4566 
L 6138 4566 
L 6138 3747 
z
M 4456 766 
L 181 766 
L 181 1584 
L 4456 1584 
L 4456 766 
z
" transform="scale(0.015625)"/>
      <path id="MicrosoftYaHei-Bold-6700" d="M 838 5109 
L 5563 5109 
L 5563 3134 
L 838 3134 
L 838 5109 
z
M 4700 4609 
L 1700 4609 
L 1700 4341 
L 4700 4341 
L 4700 4609 
z
M 4700 3634 
L 4700 3903 
L 1700 3903 
L 1700 3634 
L 4700 3634 
z
M 6038 1909 
L 6038 1328 
Q 5772 741 5366 294 
Q 5794 100 6313 -3 
Q 6156 -266 5938 -766 
Q 5284 -584 4747 -244 
Q 4256 -588 3631 -797 
Q 3534 -644 3363 -341 
Q 3259 -353 3163 -359 
L 3163 -866 
L 2400 -866 
L 2400 -428 
L 250 -641 
L 144 59 
L 613 84 
L 613 2241 
L 94 2241 
L 94 2853 
L 6306 2853 
L 6306 2241 
L 3163 2241 
L 3163 291 
L 3513 328 
Q 3488 169 3472 6 
Q 3819 109 4106 256 
Q 3741 609 3450 1066 
L 3813 1309 
L 3338 1309 
L 3338 1909 
L 6038 1909 
z
M 1375 1891 
L 2400 1891 
L 2400 2241 
L 1375 2241 
L 1375 1891 
z
M 1375 1066 
L 2400 1066 
L 2400 1416 
L 1375 1416 
L 1375 1066 
z
M 4722 672 
Q 5031 950 5238 1309 
L 4088 1309 
Q 4359 944 4722 672 
z
M 2400 219 
L 2400 591 
L 1375 591 
L 1375 138 
L 2400 219 
z
" transform="scale(0.015625)"/>
      <path id="MicrosoftYaHei-Bold-7ec8" d="M 5956 4759 
L 5956 4091 
Q 5569 3341 4919 2741 
Q 5544 2453 6369 2297 
Q 6213 1928 6050 1497 
Q 4963 1797 4250 2241 
Q 3506 1778 2519 1478 
Q 2350 1866 2138 2222 
Q 2981 2434 3613 2747 
Q 3338 3022 3106 3347 
Q 2888 3053 2656 2784 
Q 2406 3053 2119 3316 
Q 2963 4266 3381 5353 
L 4175 5209 
Q 4069 4978 3963 4759 
L 5956 4759 
z
M 913 3403 
Q 1075 3409 1344 3422 
Q 1525 3784 1731 4222 
L 2438 3928 
Q 1869 2859 1238 1772 
Q 1681 1828 2181 1897 
Q 2125 1572 2106 1147 
Q 1131 1084 425 922 
L 213 1628 
Q 525 1934 969 2716 
Q 625 2691 300 2659 
L 88 3347 
Q 413 3728 1019 5341 
L 1788 5109 
Q 1319 4128 913 3403 
z
M 2669 578 
Q 4344 291 5781 3 
L 5588 -809 
Q 4000 -472 2463 -184 
L 2669 578 
z
M 100 347 
Q 1319 528 2275 691 
Q 2244 166 2250 -172 
Q 1063 -366 225 -528 
L 100 347 
z
M 3288 1703 
Q 4719 1453 5481 1303 
L 5300 578 
Q 4231 809 3094 1022 
L 3288 1703 
z
M 3525 3966 
Q 3800 3484 4250 3134 
Q 4788 3541 5075 4047 
L 3569 4047 
Q 3550 4003 3525 3966 
z
" transform="scale(0.015625)"/>
      <path id="MicrosoftYaHei-Bold-5e02" d="M 1513 -191 
L 663 -191 
L 663 3003 
L 2750 3003 
L 2750 3728 
L 231 3728 
L 231 4541 
L 2678 4541 
Q 2556 4856 2444 5128 
L 3438 5359 
Q 3588 4969 3728 4541 
L 6200 4541 
L 6200 3728 
L 3650 3728 
L 3650 3003 
L 5888 3003 
L 5888 784 
Q 5888 509 5802 309 
Q 5716 109 5547 -9 
Q 5378 -128 5156 -161 
Q 4934 -194 4125 -203 
Q 4025 209 3894 609 
Q 4238 584 4600 584 
Q 5038 584 5038 1003 
L 5038 2216 
L 3650 2216 
L 3650 -853 
L 2750 -853 
L 2750 2216 
L 1513 2216 
L 1513 -191 
z
" transform="scale(0.015625)"/>
      <path id="MicrosoftYaHei-Bold-573a" d="M 3869 3053 
L 6113 3053 
Q 6113 1753 6038 378 
Q 5994 -659 5094 -722 
Q 4756 -747 4294 -759 
Q 4250 -391 4138 109 
Q 3781 -403 3300 -816 
Q 2944 -541 2544 -278 
Q 3906 759 4225 2303 
L 3719 2303 
Q 3375 1041 2550 284 
Q 2400 416 2256 534 
Q 2250 322 2256 72 
Q 1150 -153 244 -366 
L 81 528 
Q 444 591 813 659 
L 813 2866 
L 144 2866 
L 144 3722 
L 813 3722 
L 813 5303 
L 1644 5303 
L 1644 3722 
L 2238 3722 
L 2238 2866 
L 1644 2866 
L 1644 822 
Q 1794 853 1938 884 
Q 2631 1434 2925 2303 
L 2369 2303 
L 2369 3047 
L 4231 4253 
L 2363 4253 
L 2363 5003 
L 5700 5003 
L 5700 4284 
L 3869 3053 
z
M 4694 116 
Q 5213 116 5244 559 
Q 5300 1203 5325 2303 
L 5000 2303 
Q 4769 1047 4156 134 
Q 4450 116 4694 116 
z
" transform="scale(0.015625)"/>
      <path id="MicrosoftYaHei-Bold-4efd" d="M 1294 5291 
L 2175 5047 
Q 1953 4322 1669 3653 
L 1669 -797 
L 819 -797 
L 819 2013 
Q 603 1666 369 1341 
Q 294 1728 100 2472 
Q 863 3709 1294 5291 
z
M 5000 5184 
Q 5413 3928 6306 3147 
L 5938 2197 
Q 5806 2316 5684 2441 
L 5597 275 
Q 5575 -159 5378 -396 
Q 5181 -634 4906 -678 
Q 4631 -722 3800 -722 
Q 3700 -209 3588 178 
Q 4000 147 4234 147 
Q 4488 147 4606 237 
Q 4725 328 4734 759 
L 4769 2097 
L 3809 2097 
Q 3806 66 2394 -834 
Q 2194 -578 1769 -178 
Q 2916 491 2916 2097 
L 2525 2097 
L 2525 2466 
Q 2369 2294 2200 2134 
Q 2050 2516 1813 3028 
Q 2688 3834 3094 5197 
L 3906 4984 
Q 3581 3809 2869 2878 
L 5294 2878 
Q 4525 3822 4213 4984 
L 5000 5184 
z
" transform="scale(0.015625)"/>
      <path id="MicrosoftYaHei-Bold-989d" d="M 213 3753 
L 213 4803 
L 1272 4803 
Q 1206 5000 1125 5216 
L 2000 5347 
L 2175 4803 
L 3106 4803 
L 3106 5109 
L 6244 5109 
L 6244 4359 
L 4959 4359 
Q 4922 4069 4878 3822 
L 6069 3822 
L 6069 616 
L 5331 616 
L 5331 3103 
L 3956 3103 
L 3956 616 
L 3219 616 
L 3219 3822 
L 4069 3822 
Q 4109 4081 4144 4359 
L 3119 4359 
L 3119 3853 
L 2463 3853 
L 2463 4197 
L 869 4197 
L 869 3753 
L 213 3753 
z
M 538 -747 
L 538 1256 
Q 444 1228 350 1203 
Q 225 1547 94 1809 
Q 725 1978 1181 2247 
L 869 2403 
L 1225 2891 
L 1722 2659 
Q 1950 2884 2106 3153 
L 1291 3153 
Q 1044 2769 738 2434 
Q 531 2578 150 2778 
Q 819 3459 1069 4178 
L 1713 3934 
Q 1672 3841 1628 3753 
L 2925 3753 
L 2925 3166 
Q 2703 2706 2375 2341 
Q 2788 2131 3206 1903 
L 2875 1297 
L 2863 1303 
L 2863 -216 
Q 3722 91 4005 525 
Q 4288 959 4288 1966 
L 4288 2891 
L 5025 2891 
L 5025 1878 
Q 5025 1284 4925 838 
Q 5709 322 6306 -122 
L 5863 -872 
Q 5350 -419 4647 125 
Q 4241 -509 3256 -866 
Q 3069 -550 2863 -300 
L 2863 -703 
L 2138 -703 
L 2138 -497 
L 1263 -497 
L 1263 -747 
L 538 -747 
z
M 1000 1416 
L 2675 1416 
Q 2256 1663 1859 1881 
Q 1478 1609 1000 1416 
z
M 2138 734 
L 1263 734 
L 1263 184 
L 2138 184 
L 2138 734 
z
" transform="scale(0.015625)"/>
     </defs>
     <use xlink:href="#MicrosoftYaHei-Bold-5b9e"/>
     <use xlink:href="#MicrosoftYaHei-Bold-9a8c" x="100"/>
     <use xlink:href="#MicrosoftYaHei-Bold-20" x="200"/>
     <use xlink:href="#MicrosoftYaHei-Bold-35" x="229.785156"/>
     <use xlink:href="#MicrosoftYaHei-Bold-ff1a" x="291.455078"/>
     <use xlink:href="#MicrosoftYaHei-Bold-8865" x="391.455078"/>
     <use xlink:href="#MicrosoftYaHei-Bold-8d34" x="491.455078"/>
     <use xlink:href="#MicrosoftYaHei-Bold-5f3a" x="591.455078"/>
     <use xlink:href="#MicrosoftYaHei-Bold-5ea6" x="691.455078"/>
     <use xlink:href="#MicrosoftYaHei-Bold-4e0e" x="791.455078"/>
     <use xlink:href="#MicrosoftYaHei-Bold-6700" x="891.455078"/>
     <use xlink:href="#MicrosoftYaHei-Bold-7ec8" x="991.455078"/>
     <use xlink:href="#MicrosoftYaHei-Bold-5e02" x="1091.455078"/>
     <use xlink:href="#MicrosoftYaHei-Bold-573a" x="1191.455078"/>
     <use xlink:href="#MicrosoftYaHei-Bold-4efd" x="1291.455078"/>
     <use xlink:href="#MicrosoftYaHei-Bold-989d" x="1391.455078"/>
    </g>
   </g>
   <g id="PathCollection_1">
    <defs>
     <path id="m554f5f5e15" d="M 0 4.242641 
C 1.125161 4.242641 2.204391 3.795609 3 3 
C 3.795609 2.204391 4.242641 1.125161 4.242641 0 
C 4.242641 -1.125161 3.795609 -2.204391 3 -3 
C 2.204391 -3.795609 1.125161 -4.242641 0 -4.242641 
C -1.125161 -4.242641 -2.204391 -3.795609 -3 -3 
C -3.795609 -2.204391 -4.242641 -1.125161 -4.242641 0 
C -4.242641 1.125161 -3.795609 2.204391 -3 3 
C -2.204391 3.795609 -1.125161 4.242641 0 4.242641 
z
" style="stroke: #fbfaf6; stroke-width: 1.2"/>
    </defs>
    <g clip-path="url(#p90da4be096)">
     <use xlink:href="#m554f5f5e15" x="156.208681" y="171.456877" style="fill: #e58f3a; stroke: #fbfaf6; stroke-width: 1.2"/>
    </g>
   </g>
  </g>
 </g>
 <defs>
  <clipPath id="p90da4be096">
   <rect x="51.827953" y="36.94925" width="579.892934" height="326.661379"/>
  </clipPath>
 </defs>
</svg>
