<?xml version="1.0" encoding="utf-8" standalone="no"?>
<!DOCTYPE svg PUBLIC "-//W3C//DTD SVG 1.1//EN"
  "http://www.w3.org/Graphics/SVG/1.1/DTD/svg11.dtd">
<svg xmlns:xlink="http://www.w3.org/1999/xlink" width="670.79952pt" height="425.99952pt" viewBox="0 0 670.79952 425.99952" xmlns="http://www.w3.org/2000/svg" version="1.1">
 <metadata>
  <rdf:RDF xmlns:dc="http://purl.org/dc/elements/1.1/" xmlns:cc="http://creativecommons.org/ns#" xmlns:rdf="http://www.w3.org/1999/02/22-rdf-syntax-ns#">
   <cc:Work>
    <dc:type rdf:resource="http://purl.org/dc/dcmitype/StillImage"/>
    <dc:date>2026-06-05T14:09:25.156661</dc:date>
    <dc:format>image/svg+xml</dc:format>
    <dc:creator>
     <cc:Agent>
      <dc:title>Matplotlib v3.9.2, https://matplotlib.org/</dc:title>
     </cc:Agent>
    </dc:creator>
   </cc:Work>
  </rdf:RDF>
 </metadata>
 <defs>
  <style type="text/css">*{stroke-linejoin: round; stroke-linecap: butt}</style>
 </defs>
 <g id="figure_1">
  <g id="patch_1">
   <path d="M 0 425.99952 
L 670.79952 425.99952 
L 670.79952 0 
L 0 0 
z
" style="fill: #f7f5ef"/>
  </g>
  <g id="axes_1">
   <g id="patch_2">
    <path d="M 51.827953 378.010629 
L 663.59952 378.010629 
L 663.59952 36.94925 
L 51.827953 36.94925 
z
" style="fill: #fbfaf6"/>
   </g>
   <g id="patch_3">
    <path d="M 51.827953 177.386289 
L 663.59952 177.386289 
L 663.59952 43.636728 
L 51.827953 43.636728 
z
" clip-path="url(#p4c482ad4d5)" style="fill: #2f9c5b; opacity: 0.055"/>
   </g>
   <g id="matplotlib.axis_1">
    <g id="xtick_1">
     <g id="line2d_1">
      <path d="M 56.968891 378.010629 
L 56.968891 36.94925 
" clip-path="url(#p4c482ad4d5)" style="fill: none; stroke: #d8d1c5; stroke-opacity: 0.34; stroke-width: 0.85; stroke-linecap: square"/>
     </g>
     <g id="line2d_2">
      <defs>
       <path id="m76b1f7027b" d="M 0 0 
L 0 3.5 
" style="stroke: #32383a; stroke-width: 0.8"/>
      </defs>
      <g>
       <use xlink:href="#m76b1f7027b" x="56.968891" y="378.010629" style="fill: #32383a; stroke: #32383a; stroke-width: 0.8"/>
      </g>
     </g>
     <g id="text_1">
      <!-- 0 -->
      <g style="fill: #32383a" transform="translate(53.890258 393.404067) scale(0.105 -0.105)">
       <defs>
        <path id="MicrosoftYaHei-30" d="M 284 2325 
Q 284 3606 709 4264 
Q 1134 4922 1941 4922 
Q 3478 4922 3478 2441 
Q 3478 1216 3045 567 
Q 2613 -81 1831 -81 
Q 1094 -81 689 534 
Q 284 1150 284 2325 
z
M 909 2353 
Q 909 425 1888 425 
Q 2850 425 2850 2384 
Q 2850 4413 1906 4413 
Q 909 4413 909 2353 
z
" transform="scale(0.015625)"/>
       </defs>
       <use xlink:href="#MicrosoftYaHei-30"/>
      </g>
     </g>
    </g>
    <g id="xtick_2">
     <g id="line2d_3">
      <path d="M 159.787641 378.010629 
L 159.787641 36.94925 
" clip-path="url(#p4c482ad4d5)" style="fill: none; stroke: #d8d1c5; stroke-opacity: 0.34; stroke-width: 0.85; stroke-linecap: square"/>
     </g>
     <g id="line2d_4">
      <g>
       <use xlink:href="#m76b1f7027b" x="159.787641" y="378.010629" style="fill: #32383a; stroke: #32383a; stroke-width: 0.8"/>
      </g>
     </g>
     <g id="text_2">
      <!-- 10 -->
      <g style="fill: #32383a" transform="translate(153.630376 393.404067) scale(0.105 -0.105)">
       <defs>
        <path id="MicrosoftYaHei-31" d="M 1781 0 
L 1781 4141 
Q 1638 3997 1295 3819 
Q 953 3641 663 3569 
L 663 4169 
Q 1047 4275 1484 4508 
Q 1922 4741 2156 4947 
L 2388 4947 
L 2388 0 
L 1781 0 
z
" transform="scale(0.015625)"/>
       </defs>
       <use xlink:href="#MicrosoftYaHei-31"/>
       <use xlink:href="#MicrosoftYaHei-30" x="58.642578"/>
      </g>
     </g>
    </g>
    <g id="xtick_3">
     <g id="line2d_5">
      <path d="M 262.606392 378.010629 
L 262.606392 36.94925 
" clip-path="url(#p4c482ad4d5)" style="fill: none; stroke: #d8d1c5; stroke-opacity: 0.34; stroke-width: 0.85; stroke-linecap: square"/>
     </g>
     <g id="line2d_6">
      <g>
       <use xlink:href="#m76b1f7027b" x="262.606392" y="378.010629" style="fill: #32383a; stroke: #32383a; stroke-width: 0.8"/>
      </g>
     </g>
     <g id="text_3">
      <!-- 20 -->
      <g style="fill: #32383a" transform="translate(256.449127 393.404067) scale(0.105 -0.105)">
       <defs>
        <path id="MicrosoftYaHei-32" d="M 2666 3572 
Q 2666 3963 2419 4186 
Q 2172 4409 1747 4409 
Q 1447 4409 1140 4256 
Q 834 4103 569 3819 
L 569 4413 
Q 806 4659 1107 4790 
Q 1409 4922 1816 4922 
Q 2472 4922 2872 4570 
Q 3272 4219 3272 3619 
Q 3272 3084 3026 2693 
Q 2781 2303 2188 1894 
Q 1581 1475 1376 1294 
Q 1172 1113 1090 947 
Q 1009 781 1009 544 
L 3416 544 
L 3416 0 
L 372 0 
L 372 241 
Q 372 659 486 951 
Q 600 1244 862 1520 
Q 1125 1797 1681 2184 
Q 2250 2584 2458 2886 
Q 2666 3188 2666 3572 
z
" transform="scale(0.015625)"/>
       </defs>
       <use xlink:href="#MicrosoftYaHei-32"/>
       <use xlink:href="#MicrosoftYaHei-30" x="58.642578"/>
      </g>
     </g>
    </g>
    <g id="xtick_4">
     <g id="line2d_7">
      <path d="M 365.425143 378.010629 
L 365.425143 36.94925 
" clip-path="url(#p4c482ad4d5)" style="fill: none; stroke: #d8d1c5; stroke-opacity: 0.34; stroke-width: 0.85; stroke-linecap: square"/>
     </g>
     <g id="line2d_8">
      <g>
       <use xlink:href="#m76b1f7027b" x="365.425143" y="378.010629" style="fill: #32383a; stroke: #32383a; stroke-width: 0.8"/>
      </g>
     </g>
     <g id="text_4">
      <!-- 30 -->
      <g style="fill: #32383a" transform="translate(359.267877 393.404067) scale(0.105 -0.105)">
       <defs>
        <path id="MicrosoftYaHei-33" d="M 447 809 
Q 944 425 1569 425 
Q 2069 425 2361 670 
Q 2653 916 2653 1328 
Q 2653 2247 1338 2247 
L 934 2247 
L 934 2753 
L 1319 2753 
Q 2484 2753 2484 3616 
Q 2484 4413 1594 4413 
Q 1084 4413 634 4069 
L 634 4647 
Q 1109 4922 1744 4922 
Q 2363 4922 2738 4598 
Q 3113 4275 3113 3759 
Q 3113 2809 2144 2538 
L 2144 2525 
Q 2669 2469 2973 2155 
Q 3278 1841 3278 1372 
Q 3278 719 2808 319 
Q 2338 -81 1556 -81 
Q 869 -81 447 175 
L 447 809 
z
" transform="scale(0.015625)"/>
       </defs>
       <use xlink:href="#MicrosoftYaHei-33"/>
       <use xlink:href="#MicrosoftYaHei-30" x="58.642578"/>
      </g>
     </g>
    </g>
    <g id="xtick_5">
     <g id="line2d_9">
      <path d="M 468.243894 378.010629 
L 468.243894 36.94925 
" clip-path="url(#p4c482ad4d5)" style="fill: none; stroke: #d8d1c5; stroke-opacity: 0.34; stroke-width: 0.85; stroke-linecap: square"/>
     </g>
     <g id="line2d_10">
      <g>
       <use xlink:href="#m76b1f7027b" x="468.243894" y="378.010629" style="fill: #32383a; stroke: #32383a; stroke-width: 0.8"/>
      </g>
     </g>
     <g id="text_5">
      <!-- 40 -->
      <g style="fill: #32383a" transform="translate(462.086628 393.404067) scale(0.105 -0.105)">
       <defs>
        <path id="MicrosoftYaHei-34" d="M 2906 4841 
L 2906 1644 
L 3631 1644 
L 3631 1138 
L 2906 1138 
L 2906 0 
L 2313 0 
L 2313 1138 
L 53 1138 
L 53 1616 
Q 656 2294 1265 3178 
Q 1875 4063 2272 4841 
L 2906 4841 
z
M 741 1644 
L 2313 1644 
L 2313 3950 
Q 1988 3366 1616 2817 
Q 1244 2269 741 1644 
z
" transform="scale(0.015625)"/>
       </defs>
       <use xlink:href="#MicrosoftYaHei-34"/>
       <use xlink:href="#MicrosoftYaHei-30" x="58.642578"/>
      </g>
     </g>
    </g>
    <g id="xtick_6">
     <g id="line2d_11">
      <path d="M 571.062644 378.010629 
L 571.062644 36.94925 
" clip-path="url(#p4c482ad4d5)" style="fill: none; stroke: #d8d1c5; stroke-opacity: 0.34; stroke-width: 0.85; stroke-linecap: square"/>
     </g>
     <g id="line2d_12">
      <g>
       <use xlink:href="#m76b1f7027b" x="571.062644" y="378.010629" style="fill: #32383a; stroke: #32383a; stroke-width: 0.8"/>
      </g>
     </g>
     <g id="text_6">
      <!-- 50 -->
      <g style="fill: #32383a" transform="translate(564.905379 393.404067) scale(0.105 -0.105)">
       <defs>
        <path id="MicrosoftYaHei-35" d="M 3294 1494 
Q 3294 784 2823 350 
Q 2353 -84 1559 -84 
Q 878 -84 544 119 
L 544 744 
Q 1034 425 1544 425 
Q 2050 425 2361 704 
Q 2672 984 2672 1447 
Q 2672 1909 2348 2167 
Q 2025 2425 1434 2425 
Q 978 2425 613 2384 
L 791 4841 
L 3053 4841 
L 3053 4303 
L 1306 4303 
L 1206 2931 
L 1647 2950 
Q 2416 2950 2855 2567 
Q 3294 2184 3294 1494 
z
" transform="scale(0.015625)"/>
       </defs>
       <use xlink:href="#MicrosoftYaHei-35"/>
       <use xlink:href="#MicrosoftYaHei-30" x="58.642578"/>
      </g>
     </g>
    </g>
    <g id="text_7">
     <!-- 时间 t -->
     <g transform="translate(341.436268 415.766676) scale(0.122 -0.122)">
      <defs>
       <path id="MicrosoftYaHei-65f6" d="M 344 4728 
L 2500 4728 
L 2500 -366 
L 2006 -366 
L 2006 153 
L 838 153 
L 838 -441 
L 344 -441 
L 344 4728 
z
M 2706 3941 
L 4925 3941 
L 4925 5322 
L 5425 5322 
L 5425 3941 
L 6313 3941 
L 6313 3478 
L 5425 3478 
L 5425 116 
Q 5425 -722 4625 -722 
Q 4263 -722 3563 -703 
Q 3531 -478 3463 -178 
Q 4119 -228 4488 -228 
Q 4925 -228 4925 216 
L 4925 3478 
L 2706 3478 
L 2706 3941 
z
M 838 616 
L 2006 616 
L 2006 2234 
L 838 2234 
L 838 616 
z
M 2006 4266 
L 838 4266 
L 838 2684 
L 2006 2684 
L 2006 4266 
z
M 3406 2878 
Q 3906 1966 4163 1422 
Q 4000 1347 3663 1172 
Q 3419 1766 2963 2653 
L 3406 2878 
z
" transform="scale(0.015625)"/>
       <path id="MicrosoftYaHei-95f4" d="M 1863 3647 
L 4513 3647 
L 4513 553 
L 2313 553 
L 2313 166 
L 1863 166 
L 1863 3647 
z
M 2388 4453 
L 2388 4922 
L 6013 4922 
L 6013 -28 
Q 6013 -816 5119 -816 
Q 4756 -816 4169 -803 
Q 4144 -616 4069 -297 
Q 4588 -334 5056 -334 
Q 5525 -334 5525 122 
L 5525 4453 
L 2388 4453 
z
M 419 4084 
L 906 4084 
L 906 -816 
L 419 -816 
L 419 4084 
z
M 2313 997 
L 4063 997 
L 4063 1884 
L 2313 1884 
L 2313 997 
z
M 4063 3203 
L 2313 3203 
L 2313 2328 
L 4063 2328 
L 4063 3203 
z
M 744 5003 
L 1100 5322 
Q 1575 4872 1981 4447 
L 1575 4091 
Q 1194 4541 744 5003 
z
" transform="scale(0.015625)"/>
       <path id="MicrosoftYaHei-20" transform="scale(0.015625)"/>
       <path id="MicrosoftYaHei-74" d="M 2206 34 
Q 2006 -75 1666 -75 
Q 738 -75 738 953 
L 738 2950 
L 144 2950 
L 144 3456 
L 738 3456 
L 738 4288 
L 1347 4481 
L 1347 3456 
L 2206 3456 
L 2206 2950 
L 1347 2950 
L 1347 1063 
Q 1347 722 1462 575 
Q 1578 428 1847 428 
Q 2053 428 2206 544 
L 2206 34 
z
" transform="scale(0.015625)"/>
      </defs>
      <use xlink:href="#MicrosoftYaHei-65f6"/>
      <use xlink:href="#MicrosoftYaHei-95f4" x="100"/>
      <use xlink:href="#MicrosoftYaHei-20" x="200"/>
      <use xlink:href="#MicrosoftYaHei-74" x="229.589844"/>
     </g>
    </g>
   </g>
   <g id="matplotlib.axis_2">
    <g id="ytick_1">
     <g id="line2d_13">
      <path d="M 51.827953 378.010629 
L 663.59952 378.010629 
" clip-path="url(#p4c482ad4d5)" style="fill: none; stroke: #d8d1c5; stroke-opacity: 0.34; stroke-width: 0.85; stroke-linecap: square"/>
     </g>
     <g id="line2d_14">
      <defs>
       <path id="m7c20487cf0" d="M 0 0 
L -3.5 0 
" style="stroke: #32383a; stroke-width: 0.8"/>
      </defs>
      <g>
       <use xlink:href="#m7c20487cf0" x="51.827953" y="378.010629" style="fill: #32383a; stroke: #32383a; stroke-width: 0.8"/>
      </g>
     </g>
     <g id="text_8">
      <!-- 0.0 -->
      <g style="fill: #32383a" transform="translate(29.985219 382.207348) scale(0.105 -0.105)">
       <defs>
        <path id="MicrosoftYaHei-2e" d="M 372 322 
Q 372 491 487 606 
Q 603 722 775 722 
Q 950 722 1065 605 
Q 1181 488 1181 322 
Q 1181 159 1065 42 
Q 950 -75 772 -75 
Q 600 -75 486 42 
Q 372 159 372 322 
z
" transform="scale(0.015625)"/>
       </defs>
       <use xlink:href="#MicrosoftYaHei-30"/>
       <use xlink:href="#MicrosoftYaHei-2e" x="58.642578"/>
       <use xlink:href="#MicrosoftYaHei-30" x="82.714844"/>
      </g>
     </g>
    </g>
    <g id="ytick_2">
     <g id="line2d_15">
      <path d="M 51.827953 311.135849 
L 663.59952 311.135849 
" clip-path="url(#p4c482ad4d5)" style="fill: none; stroke: #d8d1c5; stroke-opacity: 0.34; stroke-width: 0.85; stroke-linecap: square"/>
     </g>
     <g id="line2d_16">
      <g>
       <use xlink:href="#m7c20487cf0" x="51.827953" y="311.135849" style="fill: #32383a; stroke: #32383a; stroke-width: 0.8"/>
      </g>
     </g>
     <g id="text_9">
      <!-- 0.2 -->
      <g style="fill: #32383a" transform="translate(29.985219 315.332568) scale(0.105 -0.105)">
       <use xlink:href="#MicrosoftYaHei-30"/>
       <use xlink:href="#MicrosoftYaHei-2e" x="58.642578"/>
       <use xlink:href="#MicrosoftYaHei-32" x="82.714844"/>
      </g>
     </g>
    </g>
    <g id="ytick_3">
     <g id="line2d_17">
      <path d="M 51.827953 244.261069 
L 663.59952 244.261069 
" clip-path="url(#p4c482ad4d5)" style="fill: none; stroke: #d8d1c5; stroke-opacity: 0.34; stroke-width: 0.85; stroke-linecap: square"/>
     </g>
     <g id="line2d_18">
      <g>
       <use xlink:href="#m7c20487cf0" x="51.827953" y="244.261069" style="fill: #32383a; stroke: #32383a; stroke-width: 0.8"/>
      </g>
     </g>
     <g id="text_10">
      <!-- 0.4 -->
      <g style="fill: #32383a" transform="translate(29.985219 248.457788) scale(0.105 -0.105)">
       <use xlink:href="#MicrosoftYaHei-30"/>
       <use xlink:href="#MicrosoftYaHei-2e" x="58.642578"/>
       <use xlink:href="#MicrosoftYaHei-34" x="82.714844"/>
      </g>
     </g>
    </g>
    <g id="ytick_4">
     <g id="line2d_19">
      <path d="M 51.827953 177.386289 
L 663.59952 177.386289 
" clip-path="url(#p4c482ad4d5)" style="fill: none; stroke: #d8d1c5; stroke-opacity: 0.34; stroke-width: 0.85; stroke-linecap: square"/>
     </g>
     <g id="line2d_20">
      <g>
       <use xlink:href="#m7c20487cf0" x="51.827953" y="177.386289" style="fill: #32383a; stroke: #32383a; stroke-width: 0.8"/>
      </g>
     </g>
     <g id="text_11">
      <!-- 0.6 -->
      <g style="fill: #32383a" transform="translate(29.985219 181.583007) scale(0.105 -0.105)">
       <defs>
        <path id="MicrosoftYaHei-36" d="M 3181 4219 
Q 2803 4413 2391 4413 
Q 1763 4413 1381 3866 
Q 1000 3319 994 2372 
L 1009 2372 
Q 1353 3038 2106 3038 
Q 2734 3038 3109 2628 
Q 3484 2219 3484 1541 
Q 3484 831 3051 375 
Q 2619 -81 1947 -81 
Q 1209 -81 789 495 
Q 369 1072 369 2131 
Q 369 3413 920 4167 
Q 1472 4922 2372 4922 
Q 2888 4922 3181 4781 
L 3181 4219 
z
M 1031 1584 
Q 1031 1106 1286 765 
Q 1541 425 1963 425 
Q 2363 425 2613 719 
Q 2863 1013 2863 1475 
Q 2863 1975 2627 2253 
Q 2391 2531 1956 2531 
Q 1544 2531 1287 2250 
Q 1031 1969 1031 1584 
z
" transform="scale(0.015625)"/>
       </defs>
       <use xlink:href="#MicrosoftYaHei-30"/>
       <use xlink:href="#MicrosoftYaHei-2e" x="58.642578"/>
       <use xlink:href="#MicrosoftYaHei-36" x="82.714844"/>
      </g>
     </g>
    </g>
    <g id="ytick_5">
     <g id="line2d_21">
      <path d="M 51.827953 110.511508 
L 663.59952 110.511508 
" clip-path="url(#p4c482ad4d5)" style="fill: none; stroke: #d8d1c5; stroke-opacity: 0.34; stroke-width: 0.85; stroke-linecap: square"/>
     </g>
     <g id="line2d_22">
      <g>
       <use xlink:href="#m7c20487cf0" x="51.827953" y="110.511508" style="fill: #32383a; stroke: #32383a; stroke-width: 0.8"/>
      </g>
     </g>
     <g id="text_12">
      <!-- 0.8 -->
      <g style="fill: #32383a" transform="translate(29.985219 114.708227) scale(0.105 -0.105)">
       <defs>
        <path id="MicrosoftYaHei-38" d="M 306 1350 
Q 306 1769 556 2122 
Q 806 2475 1200 2625 
Q 884 2803 700 3081 
Q 516 3359 516 3684 
Q 516 4028 692 4312 
Q 869 4597 1183 4759 
Q 1497 4922 1875 4922 
Q 2256 4922 2572 4761 
Q 2888 4600 3063 4315 
Q 3238 4031 3238 3684 
Q 3238 3366 3058 3086 
Q 2878 2806 2559 2625 
Q 2953 2472 3200 2119 
Q 3447 1766 3447 1350 
Q 3447 938 3250 611 
Q 3053 284 2690 103 
Q 2328 -78 1875 -78 
Q 1425 -78 1065 103 
Q 706 284 506 612 
Q 306 941 306 1350 
z
M 906 1378 
Q 906 947 1172 687 
Q 1438 428 1878 428 
Q 2309 428 2582 692 
Q 2856 956 2856 1378 
Q 2856 1778 2579 2051 
Q 2303 2325 1878 2325 
Q 1456 2325 1181 2058 
Q 906 1791 906 1378 
z
M 1081 3634 
Q 1081 3309 1312 3076 
Q 1544 2844 1878 2844 
Q 2206 2844 2445 3078 
Q 2684 3313 2684 3634 
Q 2684 3963 2454 4191 
Q 2225 4419 1878 4419 
Q 1534 4419 1307 4195 
Q 1081 3972 1081 3634 
z
" transform="scale(0.015625)"/>
       </defs>
       <use xlink:href="#MicrosoftYaHei-30"/>
       <use xlink:href="#MicrosoftYaHei-2e" x="58.642578"/>
       <use xlink:href="#MicrosoftYaHei-38" x="82.714844"/>
      </g>
     </g>
    </g>
    <g id="ytick_6">
     <g id="line2d_23">
      <path d="M 51.827953 43.636728 
L 663.59952 43.636728 
" clip-path="url(#p4c482ad4d5)" style="fill: none; stroke: #d8d1c5; stroke-opacity: 0.34; stroke-width: 0.85; stroke-linecap: square"/>
     </g>
     <g id="line2d_24">
      <g>
       <use xlink:href="#m7c20487cf0" x="51.827953" y="43.636728" style="fill: #32383a; stroke: #32383a; stroke-width: 0.8"/>
      </g>
     </g>
     <g id="text_13">
      <!-- 1.0 -->
      <g style="fill: #32383a" transform="translate(29.985219 47.833447) scale(0.105 -0.105)">
       <use xlink:href="#MicrosoftYaHei-31"/>
       <use xlink:href="#MicrosoftYaHei-2e" x="58.642578"/>
       <use xlink:href="#MicrosoftYaHei-30" x="82.714844"/>
      </g>
     </g>
    </g>
    <g id="text_14">
     <!-- 平台 A 综合份额  $L_A(t)$ -->
     <g transform="translate(16.952375 269.27294) rotate(-90) scale(0.122 -0.122)">
      <defs>
       <path id="MicrosoftYaHei-5e73" d="M 169 1934 
L 2938 1934 
L 2938 4547 
L 450 4547 
L 450 5028 
L 5975 5028 
L 5975 4547 
L 3463 4547 
L 3463 1934 
L 6250 1934 
L 6250 1453 
L 3463 1453 
L 3463 -847 
L 2938 -847 
L 2938 1453 
L 169 1453 
L 169 1934 
z
M 3950 2559 
Q 4638 3284 5188 4159 
L 5656 3859 
Q 4950 2891 4338 2234 
L 3950 2559 
z
M 769 3859 
L 1163 4134 
Q 1863 3316 2369 2553 
L 1925 2222 
Q 1444 3003 769 3859 
z
" transform="scale(0.015625)"/>
       <path id="MicrosoftYaHei-53f0" d="M 5431 2022 
L 5431 -816 
L 4919 -816 
L 4919 -403 
L 1481 -403 
L 1481 -816 
L 969 -816 
L 969 2022 
L 5431 2022 
z
M 4513 4503 
Q 5494 3591 6369 2634 
L 5925 2266 
Q 5675 2559 5419 2844 
Q 2613 2725 1131 2641 
Q 788 2616 469 2541 
L 263 3078 
Q 550 3184 781 3372 
Q 1850 4247 2738 5391 
L 3206 5103 
Q 2269 4003 1250 3147 
Q 3166 3206 5019 3284 
Q 4591 3750 4150 4191 
L 4513 4503 
z
M 4919 1559 
L 1481 1559 
L 1481 47 
L 4919 47 
L 4919 1559 
z
" transform="scale(0.015625)"/>
       <path id="MicrosoftYaHei-41" d="M 4428 0 
L 3738 0 
L 3244 1325 
L 1228 1325 
L 763 0 
L 72 0 
L 1916 4841 
L 2584 4841 
L 4428 0 
z
M 3050 1872 
L 2319 3884 
Q 2284 3981 2244 4222 
L 2228 4222 
Q 2194 4003 2150 3884 
L 1425 1872 
L 3050 1872 
z
" transform="scale(0.015625)"/>
       <path id="MicrosoftYaHei-7efc" d="M 881 1578 
Q 1550 1684 2100 1778 
Q 2063 1534 2044 1303 
Q 988 1159 306 1022 
L 194 1484 
Q 678 1988 1188 2756 
Q 581 2719 250 2691 
L 131 3116 
Q 813 4022 1394 5347 
L 1869 5159 
Q 1288 4041 694 3153 
Q 1091 3163 1453 3172 
Q 1691 3566 1938 4016 
L 2400 3784 
Q 1588 2484 881 1578 
z
M 2406 2016 
L 6275 2016 
L 6275 1603 
L 4638 1603 
L 4638 3 
Q 4638 -747 3888 -747 
Q 3631 -747 3213 -741 
Q 3181 -553 3119 -259 
Q 3469 -297 3756 -297 
Q 4163 -297 4163 134 
L 4163 1603 
L 2406 1603 
L 2406 2016 
z
M 2513 4528 
L 4166 4528 
Q 3931 4878 3713 5147 
L 4125 5397 
Q 4431 5041 4650 4716 
L 4347 4528 
L 6194 4528 
L 6194 3522 
L 5731 3522 
L 5731 4116 
L 2975 4116 
L 2975 3522 
L 2513 3522 
L 2513 4528 
z
M 2781 3241 
L 5913 3241 
L 5913 2828 
L 2781 2828 
L 2781 3241 
z
M 113 84 
Q 944 197 2175 428 
Q 2138 91 2131 -34 
Q 1425 -147 225 -391 
L 113 84 
z
M 3044 1284 
L 3500 1091 
Q 3081 203 2688 -428 
Q 2469 -309 2238 -197 
Q 2681 466 3044 1284 
z
M 5081 1059 
L 5506 1278 
Q 5931 641 6344 -134 
L 5888 -384 
Q 5469 441 5081 1059 
z
" transform="scale(0.015625)"/>
       <path id="MicrosoftYaHei-5408" d="M 1025 1909 
L 5381 1909 
L 5381 -866 
L 4881 -866 
L 4881 -447 
L 1525 -447 
L 1525 -878 
L 1025 -878 
L 1025 1909 
z
M 3700 5234 
L 3550 5053 
Q 4594 3697 6319 3009 
Q 6125 2734 5988 2509 
Q 5481 2753 5025 3059 
L 5025 2703 
L 1369 2703 
L 1369 3016 
Q 913 2716 394 2428 
Q 269 2641 81 2897 
Q 2013 3866 3000 5234 
L 3700 5234 
z
M 4881 1453 
L 1525 1453 
L 1525 -3 
L 4881 -3 
L 4881 1453 
z
M 3219 4691 
Q 2581 3872 1550 3147 
L 4894 3147 
Q 3944 3797 3219 4691 
z
" transform="scale(0.015625)"/>
       <path id="MicrosoftYaHei-4efd" d="M 2269 2653 
L 5394 2653 
Q 5388 2566 5300 366 
Q 5275 -709 4319 -722 
Q 3806 -722 3425 -703 
Q 3394 -416 3331 -184 
Q 3763 -241 4200 -253 
Q 4806 -297 4813 422 
Q 4863 1259 4888 2216 
L 3481 2216 
Q 3463 1222 3181 572 
Q 2844 -172 2019 -822 
Q 1856 -622 1656 -416 
Q 2450 203 2713 772 
Q 2969 1275 2997 2216 
L 2269 2216 
L 2269 2653 
z
M 75 2353 
Q 969 3534 1525 5284 
L 2013 5116 
Q 1709 4284 1350 3559 
L 1350 -809 
L 875 -809 
L 875 2691 
Q 588 2216 275 1797 
Q 181 2066 75 2353 
z
M 4006 5116 
L 4419 5291 
Q 5038 3703 6325 2972 
Q 6088 2697 5969 2516 
Q 4575 3472 4006 5116 
z
M 1588 2741 
Q 2563 3597 3163 5034 
L 3606 4866 
Q 3025 3409 1963 2397 
Q 1738 2628 1588 2741 
z
" transform="scale(0.015625)"/>
       <path id="MicrosoftYaHei-989d" d="M 863 2484 
L 1094 2834 
Q 1463 2653 1794 2491 
Q 2119 2809 2344 3203 
L 1125 3203 
Q 794 2659 419 2247 
Q 281 2397 125 2547 
Q 719 3172 1100 4072 
L 1513 3934 
Q 1425 3747 1331 3578 
L 2844 3578 
L 2844 3222 
Q 2588 2703 2194 2291 
Q 2738 2016 3194 1778 
L 2938 1372 
Q 2406 1678 1850 1978 
Q 1381 1597 763 1322 
L 2756 1322 
L 2756 -684 
L 2344 -684 
L 2344 -416 
L 1063 -416 
L 1063 -734 
L 650 -734 
L 650 1272 
Q 463 1197 269 1128 
Q 188 1297 63 1509 
Q 869 1766 1444 2191 
Q 1156 2334 863 2484 
z
M 3369 3728 
L 4281 3728 
L 4425 4516 
L 3244 4516 
L 3244 4941 
L 6231 4941 
L 6231 4516 
L 4906 4516 
L 4738 3728 
L 6038 3728 
L 6038 591 
L 5600 591 
L 5600 3303 
L 3806 3303 
L 3806 591 
L 3369 591 
L 3369 3728 
z
M 4481 2916 
L 4931 2916 
Q 4944 1322 4788 709 
Q 5688 78 6356 -453 
L 6044 -853 
Q 5438 -303 4619 291 
Q 4231 -416 3169 -916 
Q 3044 -734 2869 -516 
Q 4019 -3 4294 716 
Q 4519 1216 4481 2916 
z
M 250 4591 
L 1538 4591 
Q 1413 4872 1244 5172 
L 1650 5347 
Q 1881 4916 2031 4591 
L 3138 4591 
L 3138 3709 
L 2713 3709 
L 2713 4216 
L 675 4216 
L 675 3709 
L 250 3709 
L 250 4591 
z
M 2344 934 
L 1063 934 
L 1063 -28 
L 2344 -28 
L 2344 934 
z
" transform="scale(0.015625)"/>
       <path id="DejaVuSans-Oblique-4c" d="M 1075 4666 
L 1709 4666 
L 909 525 
L 3181 525 
L 3078 0 
L 172 0 
L 1075 4666 
z
" transform="scale(0.015625)"/>
       <path id="DejaVuSans-Oblique-41" d="M 2356 4666 
L 3072 4666 
L 3938 0 
L 3278 0 
L 3084 1197 
L 984 1197 
L 325 0 
L -341 0 
L 2356 4666 
z
M 2584 4044 
L 1275 1722 
L 2988 1722 
L 2584 4044 
z
" transform="scale(0.015625)"/>
       <path id="DejaVuSans-28" d="M 1984 4856 
Q 1566 4138 1362 3434 
Q 1159 2731 1159 2009 
Q 1159 1288 1364 580 
Q 1569 -128 1984 -844 
L 1484 -844 
Q 1016 -109 783 600 
Q 550 1309 550 2009 
Q 550 2706 781 3412 
Q 1013 4119 1484 4856 
L 1984 4856 
z
" transform="scale(0.015625)"/>
       <path id="DejaVuSans-Oblique-74" d="M 2706 3500 
L 2619 3053 
L 1472 3053 
L 1100 1153 
Q 1081 1047 1072 975 
Q 1063 903 1063 863 
Q 1063 663 1183 572 
Q 1303 481 1569 481 
L 2150 481 
L 2053 0 
L 1503 0 
Q 991 0 739 200 
Q 488 400 488 806 
Q 488 878 497 964 
Q 506 1050 525 1153 
L 897 3053 
L 409 3053 
L 500 3500 
L 978 3500 
L 1172 4494 
L 1747 4494 
L 1556 3500 
L 2706 3500 
z
" transform="scale(0.015625)"/>
       <path id="DejaVuSans-29" d="M 513 4856 
L 1013 4856 
Q 1481 4119 1714 3412 
Q 1947 2706 1947 2009 
Q 1947 1309 1714 600 
Q 1481 -109 1013 -844 
L 513 -844 
Q 928 -128 1133 580 
Q 1338 1288 1338 2009 
Q 1338 2731 1133 3434 
Q 928 4138 513 4856 
z
" transform="scale(0.015625)"/>
      </defs>
      <use xlink:href="#MicrosoftYaHei-5e73" transform="translate(0 0.671875)"/>
      <use xlink:href="#MicrosoftYaHei-53f0" transform="translate(100 0.671875)"/>
      <use xlink:href="#MicrosoftYaHei-20" transform="translate(200 0.671875)"/>
      <use xlink:href="#MicrosoftYaHei-41" transform="translate(229.589844 0.671875)"/>
      <use xlink:href="#MicrosoftYaHei-20" transform="translate(299.951172 0.671875)"/>
      <use xlink:href="#MicrosoftYaHei-7efc" transform="translate(329.541016 0.671875)"/>
      <use xlink:href="#MicrosoftYaHei-5408" transform="translate(429.541016 0.671875)"/>
      <use xlink:href="#MicrosoftYaHei-4efd" transform="translate(529.541016 0.671875)"/>
      <use xlink:href="#MicrosoftYaHei-989d" transform="translate(629.541016 0.671875)"/>
      <use xlink:href="#MicrosoftYaHei-20" transform="translate(729.541016 0.671875)"/>
      <use xlink:href="#MicrosoftYaHei-20" transform="translate(759.130859 0.671875)"/>
      <use xlink:href="#DejaVuSans-Oblique-4c" transform="translate(788.720703 0.671875)"/>
      <use xlink:href="#DejaVuSans-Oblique-41" transform="translate(844.433594 -15.734375) scale(0.7)"/>
      <use xlink:href="#DejaVuSans-28" transform="translate(895.053711 0.671875)"/>
      <use xlink:href="#DejaVuSans-Oblique-74" transform="translate(934.067383 0.671875)"/>
      <use xlink:href="#DejaVuSans-29" transform="translate(973.276367 0.671875)"/>
     </g>
    </g>
   </g>
   <g id="line2d_25">
    <path d="M 51.827953 177.386289 
L 663.59952 177.386289 
" clip-path="url(#p4c482ad4d5)" style="fill: none; stroke-dasharray: 4.4,4.4; stroke-dashoffset: 0; stroke: #687070; stroke-opacity: 0.65; stroke-width: 1.1"/>
   </g>
   <g id="line2d_26">
    <path d="M 56.968891 277.698459 
L 59.029387 292.580331 
L 61.089883 306.118235 
L 63.150379 317.944257 
L 65.210875 328.038954 
L 67.271371 336.541812 
L 69.331867 343.647121 
L 71.392363 349.555236 
L 73.452859 354.452093 
L 75.513355 358.501986 
L 77.573851 361.846348 
L 79.634347 364.605098 
L 81.694843 366.878972 
L 83.755339 368.752077 
L 85.815835 370.294351 
L 87.876331 371.563783 
L 89.936827 372.608358 
L 91.997323 373.46772 
L 95.088067 374.479467 
L 98.178811 375.234028 
L 102.299803 375.950372 
L 106.420795 376.434604 
L 111.572035 376.825538 
L 118.783771 377.132488 
L 129.086251 377.327001 
L 148.660963 377.425684 
L 226.959811 377.443813 
L 571.062644 377.443822 
L 571.062644 377.443822 
" clip-path="url(#p4c482ad4d5)" style="fill: none; stroke: #6e7885; stroke-width: 2.55; stroke-linecap: round"/>
   </g>
   <g id="line2d_27">
    <path d="M 56.968891 277.698459 
L 59.029387 286.791306 
L 66.241123 320.987736 
L 68.301619 329.346787 
L 70.362115 336.693841 
L 72.422611 343.04378 
L 74.483107 348.469502 
L 76.543603 353.068969 
L 78.604099 356.94627 
L 80.664595 360.201641 
L 82.725091 362.92675 
L 84.785587 365.202911 
L 86.846083 367.10088 
L 88.906579 368.681436 
L 90.967075 369.996327 
L 93.027571 371.089333 
L 95.088067 371.997319 
L 98.178811 373.078659 
L 101.269555 373.896079 
L 104.360299 374.513597 
L 108.481291 375.108361 
L 113.632531 375.597443 
L 119.814019 375.949006 
L 129.086251 376.213899 
L 143.509723 376.359532 
L 177.507907 376.410429 
L 571.062644 376.412817 
L 571.062644 376.412817 
" clip-path="url(#p4c482ad4d5)" style="fill: none; stroke: #557c83; stroke-width: 2.55; stroke-linecap: round"/>
   </g>
   <g id="line2d_28">
    <path d="M 56.968891 277.698459 
L 57.999139 275.342909 
L 59.029387 272.455728 
L 60.059635 268.892563 
L 61.089883 264.468611 
L 62.120131 258.957205 
L 63.150379 252.106574 
L 64.180627 243.695962 
L 65.210875 233.645057 
L 67.271371 209.6352 
L 70.362115 171.809032 
L 72.422611 149.723551 
L 74.483107 131.006449 
L 76.543603 115.424937 
L 78.604099 102.553557 
L 80.664595 91.959881 
L 82.725091 83.25747 
L 84.785587 76.116353 
L 86.846083 70.260206 
L 88.906579 65.459786 
L 90.967075 61.525844 
L 93.027571 58.302591 
L 95.088067 55.661993 
L 97.148563 53.498938 
L 99.209059 51.727194 
L 101.269555 50.276052 
L 103.330051 49.087549 
L 105.390547 48.114182 
L 108.481291 46.974332 
L 111.572035 46.129587 
L 114.662779 45.503563 
L 118.783771 44.913425 
L 123.935011 44.441091 
L 130.116499 44.112408 
L 139.388731 43.874996 
L 154.842451 43.74851 
L 198.112867 43.712667 
L 571.062644 43.712118 
L 571.062644 43.712118 
" clip-path="url(#p4c482ad4d5)" style="fill: none; stroke: #55a58f; stroke-width: 2.55; stroke-linecap: round"/>
   </g>
   <g id="line2d_29">
    <path d="M 56.968891 277.698459 
L 57.999139 266.298873 
L 59.029387 252.876182 
L 64.180627 179.023427 
L 66.241123 155.000568 
L 68.301619 135.019452 
L 70.362115 118.544972 
L 72.422611 105.009555 
L 74.483107 93.906664 
L 76.543603 84.806488 
L 78.604099 77.351093 
L 80.664595 71.244805 
L 82.725091 66.24432 
L 84.785587 62.149829 
L 86.846083 58.797434 
L 88.906579 56.052779 
L 90.967075 53.805776 
L 93.027571 51.966245 
L 95.088067 50.460328 
L 97.148563 49.227541 
L 99.209059 48.218358 
L 102.299803 47.037192 
L 105.390547 46.16237 
L 108.481291 45.514448 
L 112.602283 44.904078 
L 117.753523 44.415962 
L 123.935011 44.076644 
L 133.207243 43.831874 
L 148.660963 43.701728 
L 190.901131 43.665033 
L 571.062644 43.664418 
L 571.062644 43.664418 
" clip-path="url(#p4c482ad4d5)" style="fill: none; stroke: #e58f3a; stroke-width: 2.55; stroke-linecap: round"/>
   </g>
   <g id="line2d_30">
    <path d="M 56.968891 277.698459 
L 61.089883 207.823765 
L 63.150379 178.578113 
L 65.210875 154.276808 
L 67.271371 134.27171 
L 69.331867 117.855772 
L 71.392363 104.402108 
L 73.452859 93.382494 
L 75.513355 84.359166 
L 77.573851 76.971658 
L 79.634347 70.923987 
L 81.694843 65.973449 
L 83.755339 61.921164 
L 85.815835 58.604239 
L 87.876331 55.889281 
L 89.936827 53.667074 
L 91.997323 51.848204 
L 94.057819 50.359478 
L 96.118315 49.140976 
L 98.178811 48.143655 
L 101.269555 46.976599 
L 104.360299 46.112425 
L 107.451043 45.472533 
L 111.572035 44.869877 
L 116.723275 44.38808 
L 122.904763 44.05328 
L 132.176995 43.811886 
L 147.630715 43.68363 
L 190.901131 43.647455 
L 571.062644 43.64691 
L 571.062644 43.64691 
" clip-path="url(#p4c482ad4d5)" style="fill: none; stroke: #2f9c5b; stroke-width: 2.55; stroke-linecap: round"/>
   </g>
   <g id="patch_4">
    <path d="M 51.827953 378.010629 
L 51.827953 36.94925 
" style="fill: none; stroke: #a9a197; stroke-width: 0.8; stroke-linejoin: miter; stroke-linecap: square"/>
   </g>
   <g id="patch_5">
    <path d="M 51.827953 378.010629 
L 663.59952 378.010629 
" style="fill: none; stroke: #a9a197; stroke-width: 0.8; stroke-linejoin: miter; stroke-linecap: square"/>
   </g>
   <g id="text_15">
    <!-- 无补贴：弱势锁定 -->
    <g style="fill: #a94844" transform="translate(72.391703 351.260717) scale(0.105 -0.105)">
     <defs>
      <path id="MicrosoftYaHei-65e0" d="M 200 2878 
L 2650 2878 
Q 2781 3528 2806 4328 
L 675 4328 
L 675 4816 
L 5750 4816 
L 5750 4328 
L 3331 4328 
Q 3288 3528 3169 2878 
L 6225 2878 
L 6225 2391 
L 3063 2391 
Q 2588 278 450 -884 
Q 313 -672 113 -441 
Q 1975 491 2538 2391 
L 200 2391 
L 200 2878 
z
M 3400 1941 
L 3906 1941 
L 3906 297 
Q 3906 -197 4363 -197 
L 5219 -197 
Q 5644 -197 5700 172 
Q 5750 528 5775 1097 
Q 6013 1009 6300 916 
Q 6238 297 6188 -16 
Q 6106 -641 5300 -641 
L 4219 -641 
Q 3400 -641 3400 222 
L 3400 1941 
z
" transform="scale(0.015625)"/>
      <path id="MicrosoftYaHei-8865" d="M 163 3616 
L 163 4078 
L 2450 4078 
L 2450 3603 
Q 2106 3072 1700 2591 
L 1700 2228 
Q 1813 2147 1931 2066 
Q 2388 2516 2781 3009 
L 3169 2666 
Q 2681 2222 2256 1841 
Q 2650 1566 3031 1291 
L 2725 872 
Q 2156 1347 1700 1697 
L 1700 -841 
L 1194 -841 
L 1194 2047 
Q 750 1609 244 1228 
Q 163 1509 75 1766 
Q 1181 2597 1875 3616 
L 163 3616 
z
M 3775 5266 
L 4294 5266 
L 4294 3184 
L 4613 3434 
Q 5569 2584 6331 1784 
L 5888 1372 
Q 5194 2203 4294 3053 
L 4294 -841 
L 3775 -841 
L 3775 5266 
z
M 1038 5059 
L 1475 5278 
Q 1706 4909 1963 4422 
L 1500 4184 
Q 1256 4691 1038 5059 
z
" transform="scale(0.015625)"/>
      <path id="MicrosoftYaHei-8d34" d="M 3238 2116 
L 4213 2116 
L 4213 5322 
L 4719 5322 
L 4719 3997 
L 6313 3997 
L 6313 3522 
L 4719 3522 
L 4719 2116 
L 5975 2116 
L 5975 -866 
L 5500 -866 
L 5500 -503 
L 3713 -503 
L 3713 -866 
L 3238 -866 
L 3238 2116 
z
M 431 4997 
L 2831 4997 
L 2831 1078 
L 2381 1078 
L 2381 4541 
L 881 4541 
L 881 1041 
L 431 1041 
L 431 4997 
z
M 5500 1691 
L 3713 1691 
L 3713 -78 
L 5500 -78 
L 5500 1691 
z
M 1406 4022 
L 1856 4022 
L 1856 2691 
Q 1856 1466 1700 809 
L 1931 1016 
Q 2531 366 3050 -216 
L 2631 -553 
Q 2169 53 1650 634 
Q 1438 -78 475 -809 
Q 325 -609 125 -397 
Q 919 122 1169 709 
Q 1406 1203 1406 2509 
L 1406 4022 
z
" transform="scale(0.015625)"/>
      <path id="MicrosoftYaHei-ff1a" d="M 1606 3531 
Q 1772 3531 1890 3415 
Q 2009 3300 2009 3138 
Q 2009 2975 1893 2858 
Q 1778 2741 1606 2741 
Q 1434 2741 1318 2858 
Q 1203 2975 1203 3138 
Q 1203 3300 1322 3415 
Q 1441 3531 1606 3531 
z
M 1606 716 
Q 1772 716 1890 600 
Q 2009 484 2009 319 
Q 2009 150 1890 36 
Q 1772 -78 1606 -78 
Q 1441 -78 1322 36 
Q 1203 150 1203 319 
Q 1203 484 1322 600 
Q 1441 716 1606 716 
z
" transform="scale(0.015625)"/>
      <path id="MicrosoftYaHei-5f31" d="M 3963 3353 
L 3813 2559 
L 6044 2559 
Q 5994 1072 5938 241 
Q 5894 -753 4938 -753 
Q 4456 -753 4075 -734 
Q 4044 -497 3981 -216 
Q 4481 -278 4894 -278 
Q 5431 -278 5463 259 
Q 5519 1034 5550 2128 
L 3281 2128 
L 3594 3784 
L 5388 3784 
L 5388 4559 
L 3400 4559 
L 3400 4991 
L 5856 4991 
L 5856 3147 
L 5388 3147 
L 5388 3353 
L 3963 3353 
z
M 1025 3353 
L 881 2559 
L 2881 2559 
Q 2831 1059 2781 216 
Q 2738 -759 1763 -759 
Q 1381 -759 913 -741 
Q 881 -453 819 -222 
Q 1344 -284 1725 -284 
Q 2281 -284 2306 284 
Q 2369 1066 2394 2128 
L 356 2128 
L 656 3784 
L 2388 3784 
L 2388 4559 
L 375 4559 
L 375 4991 
L 2856 4991 
L 2856 3147 
L 2388 3147 
L 2388 3353 
L 1025 3353 
z
M 3206 528 
Q 4269 778 5231 1066 
Q 5219 747 5213 566 
Q 4419 359 3281 22 
L 3206 528 
z
M 156 503 
Q 1006 659 2144 947 
Q 2125 641 2113 466 
Q 1194 259 213 3 
L 156 503 
z
M 3563 1984 
Q 4094 1784 4756 1491 
Q 4625 1272 4519 1072 
Q 3994 1334 3344 1616 
L 3563 1984 
z
M 731 1984 
Q 1250 1772 1863 1472 
Q 1713 1228 1606 1047 
Q 1038 1372 494 1616 
L 731 1984 
z
" transform="scale(0.015625)"/>
      <path id="MicrosoftYaHei-52bf" d="M 531 1472 
L 2522 1472 
Q 2544 1653 2544 1859 
L 3031 1859 
Q 3025 1656 3006 1472 
L 5550 1472 
Q 5506 709 5450 128 
Q 5375 -666 4475 -672 
Q 4019 -678 3269 -659 
Q 3231 -397 3163 -116 
Q 3906 -178 4463 -178 
Q 4925 -178 4969 222 
Q 5006 516 5038 1047 
L 2934 1047 
Q 2784 388 2400 28 
Q 1806 -541 469 -853 
Q 344 -647 169 -391 
Q 1519 -116 2031 372 
Q 2313 622 2438 1047 
L 531 1047 
L 531 1472 
z
M 2663 3347 
L 2881 3697 
Q 3144 3566 3388 3441 
Q 3472 3706 3500 4097 
L 2819 4097 
L 2819 4522 
L 3513 4522 
L 3513 5347 
L 3963 5347 
L 3963 4522 
L 5288 4522 
Q 5288 3303 5350 2853 
Q 5419 2347 5625 2347 
Q 5744 2347 5800 2641 
Q 5850 2928 5869 3322 
Q 6088 3228 6306 3153 
Q 6275 2772 6225 2509 
Q 6100 1816 5613 1816 
Q 5056 1816 4919 2584 
Q 4838 3066 4838 4097 
L 3950 4097 
Q 3922 3575 3806 3216 
Q 4247 2969 4606 2741 
L 4338 2322 
Q 4000 2559 3613 2797 
Q 3291 2284 2344 1772 
Q 2206 1978 2019 2172 
Q 2891 2600 3194 3047 
Q 2938 3197 2663 3347 
z
M 250 3184 
Q 616 3244 1313 3378 
L 1313 4041 
L 313 4041 
L 313 4466 
L 1313 4466 
L 1313 5353 
L 1763 5353 
L 1763 4466 
L 2513 4466 
L 2513 4041 
L 1763 4041 
L 1763 3469 
Q 2109 3538 2525 3622 
Q 2538 3284 2544 3178 
Q 2147 3100 1763 3022 
L 1763 2384 
Q 1763 1766 1163 1759 
Q 894 1753 500 1766 
Q 475 2016 425 2222 
Q 831 2191 1075 2191 
Q 1313 2191 1313 2441 
L 1313 2925 
Q 828 2819 363 2709 
L 250 3184 
z
" transform="scale(0.015625)"/>
      <path id="MicrosoftYaHei-9501" d="M 2513 3491 
L 4013 3491 
L 4013 5266 
L 4488 5266 
L 4488 3491 
L 6000 3491 
L 6000 553 
L 5525 553 
L 5525 3053 
L 2988 3053 
L 2988 553 
L 2513 553 
L 2513 3491 
z
M 2263 541 
Q 2269 241 2294 22 
Q 1863 -191 1375 -484 
Q 1263 -547 1113 -697 
L 781 -266 
Q 981 -78 981 203 
L 981 1559 
L 144 1559 
L 144 1991 
L 981 1991 
L 981 2834 
L 563 2834 
L 563 3266 
L 2169 3266 
L 2169 2834 
L 1438 2834 
L 1438 1991 
L 2263 1991 
L 2263 1559 
L 1438 1559 
L 1438 78 
Q 1831 291 2263 541 
z
M 4019 2716 
L 4500 2716 
Q 4506 1191 4369 816 
Q 5381 197 6288 -441 
L 5950 -859 
Q 5081 -178 4188 391 
Q 3638 -516 2238 -928 
Q 2094 -716 1919 -484 
Q 3931 3 3994 1522 
Q 4019 1928 4019 2716 
z
M 69 3384 
Q 663 4228 1038 5316 
L 1506 5159 
Q 1338 4741 1144 4353 
L 2275 4353 
L 2275 3922 
L 919 3922 
Q 644 3416 331 2959 
Q 213 3184 69 3384 
z
M 5000 3884 
Q 5444 4441 5775 4978 
L 6219 4722 
Q 5850 4184 5388 3609 
L 5000 3884 
z
M 2294 4722 
L 2675 4959 
Q 3063 4478 3463 3903 
L 3031 3628 
Q 2675 4222 2294 4722 
z
" transform="scale(0.015625)"/>
      <path id="MicrosoftYaHei-5b9a" d="M 81 -384 
Q 1119 509 1281 2241 
L 1806 2159 
Q 1731 1581 1578 1081 
Q 2063 50 3081 -103 
L 3081 2647 
L 225 2647 
L 225 3116 
L 6163 3116 
L 6163 2647 
L 3600 2647 
L 3600 1634 
L 5775 1634 
L 5775 1172 
L 3600 1172 
L 3600 -138 
Q 4844 -169 6306 -116 
Q 6200 -359 6125 -634 
Q 4594 -653 3450 -616 
Q 2041 -616 1378 528 
Q 1022 -300 413 -872 
Q 269 -628 81 -384 
z
M 450 4566 
L 3116 4566 
Q 2931 4834 2725 5091 
L 3200 5347 
Q 3444 5066 3731 4716 
L 3450 4566 
L 5981 4566 
L 5981 3378 
L 5488 3378 
L 5488 4097 
L 944 4097 
L 944 3384 
L 450 3384 
L 450 4566 
z
" transform="scale(0.015625)"/>
     </defs>
     <use xlink:href="#MicrosoftYaHei-65e0"/>
     <use xlink:href="#MicrosoftYaHei-8865" x="100"/>
     <use xlink:href="#MicrosoftYaHei-8d34" x="200"/>
     <use xlink:href="#MicrosoftYaHei-ff1a" x="300"/>
     <use xlink:href="#MicrosoftYaHei-5f31" x="400"/>
     <use xlink:href="#MicrosoftYaHei-52bf" x="500"/>
     <use xlink:href="#MicrosoftYaHei-9501" x="600"/>
     <use xlink:href="#MicrosoftYaHei-5b9a" x="700"/>
    </g>
   </g>
   <g id="text_16">
    <!-- 双边统一补贴推动份额跃迁 -->
    <g style="fill: #247b46" transform="translate(314.015767 100.480291) scale(0.108 -0.108)">
     <defs>
      <path id="MicrosoftYaHei-53cc" d="M 2950 4384 
L 2950 4859 
L 5894 4859 
L 5894 4403 
Q 5628 2144 4750 953 
Q 5413 184 6325 -241 
Q 6106 -503 5919 -716 
Q 5072 -181 4434 566 
Q 3728 -222 2525 -866 
Q 2413 -703 2194 -428 
Q 3406 159 4119 963 
Q 3269 2159 3119 4384 
L 2950 4384 
z
M 250 3634 
L 644 3878 
Q 1213 3041 1778 2156 
Q 2159 3163 2275 4372 
L 175 4372 
L 175 4847 
L 2775 4847 
L 2775 4372 
Q 2559 2756 2091 1659 
Q 2509 1000 2925 309 
L 2513 -9 
Q 2163 584 1831 1131 
Q 1297 153 456 -653 
Q 263 -447 69 -303 
Q 1047 616 1541 1606 
Q 850 2734 250 3634 
z
M 5369 4384 
L 3578 4384 
Q 3738 2388 4428 1366 
Q 5172 2488 5369 4384 
z
" transform="scale(0.015625)"/>
      <path id="MicrosoftYaHei-8fb9" d="M 2050 4172 
L 3291 4172 
Q 3306 4772 3306 5291 
L 3831 5291 
Q 3825 4788 3806 4172 
L 5925 4172 
Q 5850 2334 5781 1441 
Q 5694 372 4819 372 
Q 4363 372 3831 397 
Q 3794 653 3738 959 
Q 4344 897 4681 897 
Q 5219 897 5275 1503 
Q 5350 2372 5394 3697 
L 3791 3697 
Q 3744 1225 2044 259 
Q 1894 447 1681 672 
Q 3219 1528 3278 3697 
L 2050 3697 
L 2050 4172 
z
M 2909 -153 
L 4425 -172 
L 6313 -109 
Q 6206 -366 6113 -609 
L 4356 -634 
L 2897 -619 
Q 1644 -597 1156 122 
Q 775 -209 369 -697 
L 100 -166 
Q 609 275 931 550 
L 931 2678 
L 131 2678 
L 131 3134 
L 1431 3134 
L 1431 456 
Q 1894 -125 2909 -153 
z
M 794 5266 
Q 1175 4803 1656 4147 
Q 1431 4016 1206 3853 
Q 819 4453 406 4997 
L 794 5266 
z
" transform="scale(0.015625)"/>
      <path id="MicrosoftYaHei-7edf" d="M 5100 3641 
Q 5625 2934 6175 2047 
Q 5956 1922 5713 1766 
Q 5556 2031 5413 2275 
Q 5122 2256 4813 2241 
L 4813 122 
Q 4813 -259 5094 -259 
L 5400 -259 
Q 5706 -259 5750 53 
Q 5800 428 5813 866 
Q 6019 778 6313 684 
Q 6263 141 6206 -159 
Q 6119 -703 5550 -703 
L 5013 -703 
Q 4331 -703 4331 78 
L 4331 2213 
Q 3981 2194 3606 2169 
Q 3556 809 3256 272 
Q 2900 -416 1925 -866 
Q 1788 -672 1606 -447 
Q 2513 -78 2819 522 
Q 3100 1000 3122 2138 
Q 2994 2128 2863 2122 
Q 2594 2097 2363 2041 
L 2150 2528 
Q 2419 2641 2581 2828 
Q 3050 3388 3463 4047 
L 2100 4047 
L 2100 4491 
L 4094 4491 
Q 3859 4850 3650 5128 
L 4063 5384 
Q 4300 5091 4594 4684 
L 4297 4491 
L 6200 4491 
L 6200 4047 
L 3663 4047 
L 4006 3897 
Q 3488 3197 2988 2609 
Q 4166 2650 5153 2694 
Q 4916 3075 4700 3391 
L 5100 3641 
z
M 894 1534 
Q 1394 1603 2175 1722 
Q 2138 1472 2113 1259 
Q 1331 1153 325 991 
L 225 1441 
Q 616 1841 1153 2744 
Q 503 2700 219 2678 
L 100 3103 
Q 650 3828 1288 5316 
L 1763 5128 
Q 1156 3941 656 3141 
Q 1066 3147 1394 3159 
Q 1581 3494 1788 3884 
L 2256 3678 
Q 1544 2434 894 1534 
z
M 81 222 
Q 1119 422 2225 672 
Q 2200 347 2200 222 
Q 1069 -28 225 -253 
L 81 222 
z
" transform="scale(0.015625)"/>
      <path id="MicrosoftYaHei-4e00" d="M 100 2703 
L 6313 2703 
L 6313 2153 
L 100 2153 
L 100 2703 
z
" transform="scale(0.015625)"/>
      <path id="MicrosoftYaHei-63a8" d="M 1694 3016 
Q 2488 3978 3106 5334 
L 3575 5178 
Q 3338 4681 3075 4222 
L 6200 4222 
L 6200 3797 
L 4650 3797 
L 4650 2828 
L 6113 2828 
L 6113 2403 
L 4650 2403 
L 4650 1434 
L 6113 1434 
L 6113 1009 
L 4650 1009 
L 4650 22 
L 6300 22 
L 6300 -391 
L 2875 -391 
L 2875 -859 
L 2400 -859 
L 2400 3150 
Q 2225 2903 2044 2666 
Q 1931 2803 1694 3016 
z
M 88 1978 
Q 506 2075 894 2175 
L 894 3691 
L 131 3691 
L 131 4128 
L 894 4128 
L 894 5316 
L 1363 5316 
L 1363 4128 
L 2088 4128 
L 2088 3691 
L 1363 3691 
L 1363 2297 
Q 1744 2400 2088 2503 
Q 2100 2216 2131 2016 
Q 1728 1903 1363 1797 
L 1363 -97 
Q 1363 -734 869 -766 
Q 556 -784 231 -778 
Q 206 -528 156 -259 
Q 469 -284 656 -284 
Q 894 -284 894 -41 
L 894 1663 
Q 500 1547 150 1441 
L 88 1978 
z
M 2875 22 
L 4175 22 
L 4175 1009 
L 2875 1009 
L 2875 22 
z
M 2875 1434 
L 4175 1434 
L 4175 2403 
L 2875 2403 
L 2875 1434 
z
M 2875 2828 
L 4175 2828 
L 4175 3797 
L 2875 3797 
L 2875 2828 
z
M 4019 5072 
L 4413 5316 
Q 4719 4922 4975 4541 
L 4544 4272 
Q 4313 4659 4019 5072 
z
" transform="scale(0.015625)"/>
      <path id="MicrosoftYaHei-52a8" d="M 2975 4022 
L 3906 4022 
Q 3916 4650 3913 5309 
L 4425 5309 
Q 4422 4656 4409 4022 
L 6094 4022 
Q 6050 1659 5969 216 
Q 5900 -666 5150 -678 
Q 4763 -678 4306 -659 
Q 4263 -397 4206 -109 
Q 4638 -166 4994 -172 
Q 5456 -172 5475 347 
Q 5569 1897 5588 3547 
L 4400 3547 
Q 4394 3278 4388 3016 
Q 4356 553 2900 -872 
Q 2725 -659 2525 -447 
Q 3831 716 3888 3028 
Q 3894 3284 3900 3547 
L 2975 3547 
L 2975 4022 
z
M 2338 1866 
Q 2731 1016 3063 178 
Q 2788 59 2594 -28 
Q 2550 91 2506 209 
Q 1316 97 338 -16 
L 119 491 
Q 394 647 563 997 
Q 869 1613 1200 2559 
L 144 2559 
L 144 3022 
L 3163 3022 
L 3163 2559 
L 1725 2559 
Q 1191 1228 800 491 
Q 1519 544 2347 631 
Q 2138 1163 1906 1672 
L 2338 1866 
z
M 406 4778 
L 2913 4778 
L 2913 4316 
L 406 4316 
L 406 4778 
z
" transform="scale(0.015625)"/>
      <path id="MicrosoftYaHei-8dc3" d="M 81 209 
Q 247 234 413 263 
L 413 2472 
L 850 2472 
L 850 338 
L 1475 447 
L 1475 3116 
L 975 3116 
L 975 2909 
L 538 2909 
L 538 4978 
L 2588 4978 
L 2588 3116 
L 1919 3116 
L 1919 2072 
L 2738 2072 
L 2738 1647 
L 1919 1647 
L 1919 525 
Q 2359 606 2800 691 
Q 2806 447 2819 228 
Q 1388 -34 200 -291 
L 81 209 
z
M 2600 2847 
L 4109 2847 
Q 4163 3469 4169 4428 
Q 3538 4384 2919 4347 
Q 2881 4559 2825 4797 
Q 4738 4891 5975 5028 
L 6069 4572 
Q 5356 4513 4659 4463 
Q 4647 3553 4606 2847 
L 6263 2847 
L 6263 2372 
L 4628 2372 
Q 4931 519 6319 -316 
Q 6106 -553 5925 -791 
Q 4722 159 4356 1753 
Q 3969 81 2644 -872 
Q 2488 -684 2281 -497 
Q 3800 547 4059 2372 
L 2600 2372 
L 2600 2847 
z
M 2150 3541 
L 2150 4553 
L 975 4553 
L 975 3541 
L 2150 3541 
z
" transform="scale(0.015625)"/>
      <path id="MicrosoftYaHei-8fc1" d="M 1919 2872 
L 3844 2872 
L 3844 4447 
Q 3047 4400 2231 4353 
Q 2188 4566 2119 4809 
Q 4188 4909 5869 5047 
L 5981 4584 
Q 5178 4531 4356 4478 
L 4356 2872 
L 6244 2872 
L 6244 2397 
L 4356 2397 
L 4356 84 
L 3844 84 
L 3844 2397 
L 1919 2397 
L 1919 2872 
z
M 2859 -150 
L 4338 -172 
L 6313 -109 
Q 6206 -366 6113 -609 
L 4188 -616 
L 2769 -603 
Q 1650 -575 1156 122 
Q 769 -209 369 -697 
L 100 -166 
Q 559 231 931 547 
L 931 2678 
L 131 2678 
L 131 3134 
L 1431 3134 
L 1431 459 
Q 1897 -131 2859 -150 
z
M 794 5278 
Q 1188 4809 1750 4072 
Q 1525 3941 1300 3778 
Q 763 4572 413 5003 
L 794 5278 
z
" transform="scale(0.015625)"/>
     </defs>
     <use xlink:href="#MicrosoftYaHei-53cc"/>
     <use xlink:href="#MicrosoftYaHei-8fb9" x="100"/>
     <use xlink:href="#MicrosoftYaHei-7edf" x="200"/>
     <use xlink:href="#MicrosoftYaHei-4e00" x="300"/>
     <use xlink:href="#MicrosoftYaHei-8865" x="400"/>
     <use xlink:href="#MicrosoftYaHei-8d34" x="500"/>
     <use xlink:href="#MicrosoftYaHei-63a8" x="600"/>
     <use xlink:href="#MicrosoftYaHei-52a8" x="700"/>
     <use xlink:href="#MicrosoftYaHei-4efd" x="800"/>
     <use xlink:href="#MicrosoftYaHei-989d" x="900"/>
     <use xlink:href="#MicrosoftYaHei-8dc3" x="1000"/>
     <use xlink:href="#MicrosoftYaHei-8fc1" x="1100"/>
    </g>
   </g>
   <g id="text_17">
    <!-- 实验 5：不同补贴强度下的动态演化 -->
    <g transform="translate(220.848768 20.94925) scale(0.172 -0.172)">
     <defs>
      <path id="MicrosoftYaHei-Bold-5b9e" d="M 4219 3716 
Q 4181 2422 4056 1653 
L 6238 1653 
L 6238 878 
L 3863 878 
Q 3850 841 3813 766 
Q 5019 372 6206 -66 
L 5881 -847 
Q 4619 -316 3369 153 
Q 2550 -616 863 -916 
Q 556 -384 331 -78 
Q 2338 209 2894 878 
L 169 878 
L 169 1653 
L 2144 1653 
Q 1481 2053 931 2328 
L 1319 2934 
Q 1894 2659 2638 2247 
L 2244 1653 
L 3175 1653 
Q 3331 2453 3350 3716 
L 4219 3716 
z
M 300 3078 
L 300 4703 
L 2819 4703 
Q 2700 5009 2606 5228 
L 3675 5341 
Q 3769 5084 3888 4703 
L 6094 4703 
L 6094 3078 
L 5225 3078 
L 5225 3953 
L 1169 3953 
L 1169 3078 
L 300 3078 
z
M 1813 3772 
Q 2469 3484 3163 3134 
L 2769 2497 
Q 2031 2909 1450 3184 
L 1813 3772 
z
" transform="scale(0.015625)"/>
      <path id="MicrosoftYaHei-Bold-9a8c" d="M 1138 4053 
L 969 2491 
L 1419 2491 
L 1563 4241 
L 200 4241 
L 200 4991 
L 2369 4991 
L 2163 2491 
L 2525 2491 
Q 2463 691 2413 203 
Q 2369 -553 1838 -672 
Q 1581 -709 644 -709 
Q 588 -253 519 134 
Q 906 91 1350 78 
Q 1669 78 1694 378 
Q 1731 791 1763 1741 
L 181 1741 
L 400 4053 
L 1138 4053 
z
M 5544 2647 
L 3163 2647 
L 3163 2997 
Q 2944 2797 2706 2603 
Q 2525 2991 2300 3391 
Q 3313 4134 3925 5278 
L 4875 5278 
L 4738 5053 
Q 5469 3984 6381 3466 
Q 6163 3116 5950 2691 
Q 5738 2828 5544 2984 
L 5544 2647 
z
M 2556 116 
L 4694 116 
Q 5063 1253 5250 2303 
L 6025 2103 
Q 5775 1141 5438 116 
L 6213 116 
L 6213 -634 
L 2556 -634 
L 2556 116 
z
M 3263 2172 
Q 3569 1397 3856 503 
L 3175 259 
Q 2981 978 2625 1934 
L 3263 2172 
z
M 4425 2428 
Q 4644 1584 4806 753 
L 4113 584 
Q 3988 1366 3763 2278 
L 4425 2428 
z
M 75 1216 
Q 763 1278 1525 1378 
Q 1531 984 1538 628 
Q 838 541 175 428 
L 75 1216 
z
M 4300 4347 
Q 4013 3897 3544 3384 
L 5113 3384 
Q 4663 3859 4300 4347 
z
" transform="scale(0.015625)"/>
      <path id="MicrosoftYaHei-Bold-20" transform="scale(0.015625)"/>
      <path id="MicrosoftYaHei-Bold-35" d="M 541 125 
L 541 997 
Q 1044 691 1613 691 
Q 2041 691 2283 902 
Q 2525 1113 2525 1472 
Q 2525 2225 1494 2225 
Q 1113 2225 616 2169 
L 797 4841 
L 3359 4841 
L 3359 4009 
L 1613 4009 
L 1544 2991 
Q 1803 3013 2022 3013 
Q 2731 3013 3142 2625 
Q 3553 2238 3553 1575 
Q 3553 844 3056 380 
Q 2559 -84 1706 -84 
Q 1016 -84 541 125 
z
" transform="scale(0.015625)"/>
      <path id="MicrosoftYaHei-Bold-ff1a" d="M 1594 3506 
Q 1831 3506 2000 3354 
Q 2169 3203 2169 2981 
Q 2169 2766 2003 2614 
Q 1838 2463 1594 2463 
Q 1353 2463 1189 2616 
Q 1025 2769 1025 2981 
Q 1025 3200 1192 3353 
Q 1359 3506 1594 3506 
z
M 1594 959 
Q 1831 959 2000 806 
Q 2169 653 2169 434 
Q 2169 222 2000 69 
Q 1831 -84 1594 -84 
Q 1356 -84 1190 69 
Q 1025 222 1025 434 
Q 1025 653 1190 806 
Q 1356 959 1594 959 
z
" transform="scale(0.015625)"/>
      <path id="MicrosoftYaHei-Bold-4e0d" d="M 350 4928 
L 6088 4928 
L 6088 4078 
L 3866 4078 
Q 3659 3556 3375 3072 
L 3675 3072 
L 3675 2341 
L 4300 2928 
Q 5144 2178 6338 1078 
L 5606 359 
Q 4809 1284 3675 2316 
L 3675 -853 
L 2731 -853 
L 2731 2141 
Q 1925 1138 725 303 
Q 525 591 88 1128 
Q 2069 2419 2813 4078 
L 350 4078 
L 350 4928 
z
" transform="scale(0.015625)"/>
      <path id="MicrosoftYaHei-Bold-540c" d="M 381 5078 
L 6019 5078 
L 6019 291 
Q 6019 -253 5776 -523 
Q 5534 -794 5107 -801 
Q 4681 -809 4075 -809 
Q 3981 -309 3881 59 
Q 4272 19 4597 19 
Q 4847 19 4950 45 
Q 5053 72 5117 165 
Q 5181 259 5181 416 
L 5181 4297 
L 1219 4297 
L 1219 -797 
L 381 -797 
L 381 5078 
z
M 4875 3078 
L 1525 3078 
L 1525 3791 
L 4875 3791 
L 4875 3078 
z
M 1738 2591 
L 4638 2591 
L 4638 403 
L 2550 403 
L 2550 3 
L 1738 3 
L 1738 2591 
z
M 3825 1103 
L 3825 1891 
L 2550 1891 
L 2550 1103 
L 3825 1103 
z
" transform="scale(0.015625)"/>
      <path id="MicrosoftYaHei-Bold-8865" d="M 2806 2972 
L 3431 2578 
Q 3084 2116 2728 1688 
L 3338 1284 
L 2819 634 
Q 2350 1006 1925 1325 
L 1925 -866 
L 1056 -866 
L 1056 1528 
Q 713 1181 325 822 
Q 200 1322 44 1766 
Q 944 2491 1569 3309 
L 163 3309 
L 163 4122 
L 1284 4122 
Q 1019 4519 650 4991 
L 1369 5397 
Q 1794 4897 2113 4447 
L 1563 4122 
L 2581 4122 
L 2581 3372 
Q 2297 2941 1925 2488 
L 1925 2194 
Q 2056 2116 2181 2034 
Q 2509 2503 2806 2972 
z
M 4875 3428 
Q 5694 2716 6356 2059 
L 5675 1384 
Q 5150 1975 4569 2566 
L 4569 -866 
L 3663 -866 
L 3663 5297 
L 4569 5297 
L 4569 3156 
L 4875 3428 
z
" transform="scale(0.015625)"/>
      <path id="MicrosoftYaHei-Bold-8d34" d="M 3231 -834 
L 3231 2341 
L 4150 2341 
L 4150 5309 
L 4994 5309 
L 4994 4141 
L 6313 4141 
L 6313 3391 
L 4994 3391 
L 4994 2341 
L 6031 2341 
L 6031 -822 
L 5250 -822 
L 5250 -434 
L 4013 -434 
L 4013 -834 
L 3231 -834 
z
M 5250 1591 
L 4013 1591 
L 4013 316 
L 5250 316 
L 5250 1591 
z
M 350 1147 
L 350 5059 
L 2975 5059 
L 2975 1172 
L 2281 1172 
L 2281 4341 
L 1044 4341 
L 1044 1147 
L 350 1147 
z
M 1338 4078 
L 1988 4078 
L 1988 1841 
Q 1988 1559 1947 1300 
L 3088 -91 
L 2475 -609 
Q 2059 9 1706 503 
Q 1356 -259 563 -822 
Q 381 -547 94 -178 
Q 1338 703 1338 1847 
L 1338 4078 
z
" transform="scale(0.015625)"/>
      <path id="MicrosoftYaHei-Bold-5f3a" d="M 163 1403 
L 325 3622 
L 1375 3622 
L 1375 4353 
L 194 4353 
L 194 5097 
L 2150 5097 
L 2150 2878 
L 1050 2878 
L 994 2147 
L 2081 2147 
Q 2056 622 2017 169 
Q 1978 -284 1847 -478 
Q 1716 -672 1497 -736 
Q 1278 -800 381 -784 
Q 331 -478 200 53 
Q 672 34 866 34 
Q 1113 34 1181 201 
Q 1250 369 1275 1403 
L 163 1403 
z
M 5716 816 
Q 6025 191 6344 -572 
L 5625 -859 
L 5463 -459 
Q 4025 -631 2325 -791 
L 2175 9 
L 3813 128 
L 3813 816 
L 2406 816 
L 2406 2797 
L 3813 2797 
L 3813 3228 
L 2613 3228 
L 2613 5091 
L 5813 5091 
L 5813 3228 
L 4613 3228 
L 4613 2797 
L 6031 2797 
L 6031 816 
L 5716 816 
z
M 5025 4403 
L 3400 4403 
L 3400 3916 
L 5025 3916 
L 5025 4403 
z
M 5256 1503 
L 5256 2109 
L 4613 2109 
L 4613 1503 
L 5256 1503 
z
M 3181 1503 
L 3813 1503 
L 3813 2109 
L 3181 2109 
L 3181 1503 
z
M 5709 816 
L 4613 816 
L 4613 200 
L 5150 253 
L 5013 553 
L 5709 816 
z
" transform="scale(0.015625)"/>
      <path id="MicrosoftYaHei-Bold-5ea6" d="M 5656 1697 
L 5656 1022 
Q 5156 447 4656 97 
Q 5344 -34 6306 -66 
Q 6119 -428 5938 -822 
Q 4556 -653 3719 -353 
Q 2825 -653 1494 -872 
Q 1338 -522 1088 -178 
Q 2100 -128 2888 78 
Q 2369 453 1938 1022 
L 1538 1022 
L 1538 1697 
L 5656 1697 
z
M 1325 2478 
Q 1338 134 700 -884 
Q 356 -553 19 -297 
Q 550 697 525 2591 
L 525 4772 
L 3013 4772 
Q 2944 4953 2831 5209 
L 3869 5359 
Q 3981 5072 4094 4772 
L 6256 4772 
L 6256 4072 
L 1325 4072 
L 1325 2478 
z
M 1463 3684 
L 2144 3684 
L 2144 3947 
L 2944 3947 
L 2944 3684 
L 4494 3684 
L 4494 3947 
L 5294 3947 
L 5294 3684 
L 6144 3684 
L 6144 3009 
L 5294 3009 
L 5294 1991 
L 2144 1991 
L 2144 3009 
L 1463 3009 
L 1463 3684 
z
M 3756 378 
Q 4325 641 4725 1022 
L 2825 1022 
Q 3225 622 3756 378 
z
M 4494 2628 
L 4494 3009 
L 2944 3009 
L 2944 2628 
L 4494 2628 
z
" transform="scale(0.015625)"/>
      <path id="MicrosoftYaHei-Bold-4e0b" d="M 4038 3372 
Q 5050 2647 6069 1866 
L 5425 1078 
Q 4363 1997 3488 2647 
L 3488 -822 
L 2475 -822 
L 2475 4066 
L 175 4066 
L 175 4947 
L 6213 4947 
L 6213 4066 
L 3488 4066 
L 3488 2822 
L 4038 3372 
z
" transform="scale(0.015625)"/>
      <path id="MicrosoftYaHei-Bold-7684" d="M 1250 5303 
L 2181 5159 
L 1900 4309 
L 2963 4309 
L 2963 3091 
Q 3466 3934 3925 5316 
L 4788 5091 
Q 4650 4675 4494 4278 
L 6106 4278 
L 6034 681 
Q 6019 100 5937 -133 
Q 5856 -366 5684 -512 
Q 5513 -659 5205 -712 
Q 4897 -766 3863 -766 
Q 3769 -216 3625 178 
Q 4088 141 4609 141 
Q 4759 141 4868 175 
Q 4978 209 5048 279 
Q 5119 350 5144 437 
Q 5169 525 5184 1206 
L 5213 2484 
Q 5225 3081 5225 3453 
L 4138 3453 
Q 3931 3016 3700 2603 
Q 3403 2797 2963 2988 
L 2963 -734 
L 2094 -734 
L 2094 -284 
L 1206 -284 
L 1206 -772 
L 338 -772 
L 338 4309 
L 997 4309 
Q 1178 4922 1250 5303 
z
M 2094 3491 
L 1206 3491 
L 1206 2422 
L 2094 2422 
L 2094 3491 
z
M 1206 534 
L 2094 534 
L 2094 1603 
L 1206 1603 
L 1206 534 
z
M 3944 2703 
Q 4394 2166 4913 1397 
L 4125 872 
Q 3650 1653 3219 2203 
L 3944 2703 
z
" transform="scale(0.015625)"/>
      <path id="MicrosoftYaHei-Bold-52a8" d="M 2469 2178 
L 3134 603 
Q 3563 1378 3553 3441 
L 2919 3441 
L 2919 4266 
L 3572 4266 
L 3581 5328 
L 4413 5328 
L 4400 4266 
L 6038 4266 
L 5966 734 
Q 5947 22 5905 -156 
Q 5863 -334 5731 -473 
Q 5600 -613 5387 -675 
Q 5175 -738 4269 -747 
Q 4169 -272 4044 191 
Q 4456 166 4728 166 
Q 4909 166 5006 237 
Q 5103 309 5120 445 
Q 5138 581 5161 1404 
Q 5184 2228 5194 3441 
L 4384 3441 
Q 4356 2047 4272 1445 
Q 4188 844 3925 228 
Q 3663 -388 3244 -866 
Q 2888 -584 2481 -341 
Q 2663 -156 2813 50 
L 1078 -97 
Q 688 -144 481 -228 
L 94 528 
Q 422 794 897 2491 
L 119 2491 
L 119 3291 
L 3006 3291 
L 3006 2491 
L 1806 2491 
Q 1516 1594 1188 747 
Q 1756 763 2216 788 
Q 1991 1416 1775 1947 
L 2469 2178 
z
M 2788 4066 
L 388 4066 
L 388 4866 
L 2788 4866 
L 2788 4066 
z
" transform="scale(0.015625)"/>
      <path id="MicrosoftYaHei-Bold-6001" d="M 300 4628 
L 2656 4628 
Q 2719 4953 2700 5334 
L 3625 5334 
Q 3613 4947 3584 4628 
L 6100 4628 
L 6100 3878 
L 3981 3878 
Q 4788 3000 6313 2703 
Q 6063 2228 5869 1784 
Q 4159 2303 3206 3700 
Q 2500 2331 588 1703 
Q 356 2197 88 2616 
Q 1869 3028 2369 3878 
L 300 3878 
L 300 4628 
z
M 2919 3022 
Q 3356 2753 3950 2347 
L 3388 1784 
Q 2863 2222 2406 2528 
L 2919 3022 
z
M 2975 1941 
Q 3619 1559 4163 1166 
L 3644 566 
Q 3119 997 2506 1372 
L 2975 1941 
z
M 5494 1709 
Q 5969 997 6331 278 
L 5588 -128 
Q 5244 603 4775 1353 
L 5494 1709 
z
M 4350 872 
Q 4813 647 5213 497 
Q 5022 -278 4744 -509 
Q 4466 -741 3913 -741 
L 2500 -741 
Q 1563 -741 1563 184 
L 1563 1491 
L 2388 1491 
L 2388 391 
Q 2388 9 2775 9 
L 3713 9 
Q 4019 9 4147 143 
Q 4275 278 4350 872 
z
M 663 1466 
L 1438 1203 
Q 1119 253 863 -353 
L 81 -53 
Q 413 659 663 1466 
z
" transform="scale(0.015625)"/>
      <path id="MicrosoftYaHei-Bold-6f14" d="M 4194 -197 
L 4491 366 
L 3347 366 
L 3725 -191 
Q 2931 -578 1919 -884 
L 1556 -184 
Q 2347 13 3247 366 
L 2025 366 
L 2025 2909 
L 3581 2909 
L 3581 3209 
L 2238 3209 
L 2238 3616 
L 1750 3616 
L 1750 4778 
L 3472 4778 
Q 3394 4947 3294 5147 
L 4150 5372 
Q 4328 5034 4444 4778 
L 6175 4778 
L 6175 3616 
L 5675 3616 
L 5675 3209 
L 4356 3209 
L 4356 2909 
L 5913 2909 
L 5913 366 
L 4681 366 
Q 5716 47 6313 -172 
L 5963 -872 
L 4194 -197 
z
M 5375 4109 
L 2550 4109 
L 2550 3816 
L 5375 3816 
L 5375 4109 
z
M 5150 2303 
L 4356 2303 
L 4356 1922 
L 5150 1922 
L 5150 2303 
z
M 2788 1922 
L 3581 1922 
L 3581 2303 
L 2788 2303 
L 2788 1922 
z
M 2788 972 
L 3581 972 
L 3581 1359 
L 2788 1359 
L 2788 972 
z
M 5150 972 
L 5150 1359 
L 4356 1359 
L 4356 972 
L 5150 972 
z
M 719 5278 
Q 1425 4772 1744 4509 
L 1163 3878 
Q 719 4309 200 4734 
L 719 5278 
z
M 594 3666 
Q 1069 3316 1581 2878 
L 1019 2203 
L 81 3072 
L 594 3666 
z
M 825 1784 
Q 1213 1616 1631 1491 
Q 1356 503 1050 -822 
Q 619 -672 225 -566 
Q 556 541 825 1784 
z
" transform="scale(0.015625)"/>
      <path id="MicrosoftYaHei-Bold-5316" d="M 1625 5297 
L 2494 5009 
Q 2200 4284 1856 3641 
L 1856 -797 
L 956 -797 
L 956 2191 
Q 653 1775 325 1403 
Q 219 1991 88 2497 
Q 1063 3728 1625 5297 
z
M 5456 4447 
L 6238 3847 
Q 5306 2809 4106 1900 
L 4106 622 
Q 4106 153 4513 153 
L 4781 153 
Q 5091 153 5189 359 
Q 5288 566 5350 1597 
Q 5863 1434 6300 1322 
Q 6188 419 6105 37 
Q 6022 -344 5705 -542 
Q 5388 -741 4831 -741 
L 4294 -741 
Q 3169 -741 3169 378 
L 3169 1234 
Q 2806 994 2425 766 
Q 2225 1097 1875 1584 
Q 2553 1947 3169 2378 
L 3169 5272 
L 4106 5272 
L 4106 3100 
Q 4834 3719 5456 4447 
z
" transform="scale(0.015625)"/>
     </defs>
     <use xlink:href="#MicrosoftYaHei-Bold-5b9e"/>
     <use xlink:href="#MicrosoftYaHei-Bold-9a8c" x="100"/>
     <use xlink:href="#MicrosoftYaHei-Bold-20" x="200"/>
     <use xlink:href="#MicrosoftYaHei-Bold-35" x="229.785156"/>
     <use xlink:href="#MicrosoftYaHei-Bold-ff1a" x="291.455078"/>
     <use xlink:href="#MicrosoftYaHei-Bold-4e0d" x="391.455078"/>
     <use xlink:href="#MicrosoftYaHei-Bold-540c" x="491.455078"/>
     <use xlink:href="#MicrosoftYaHei-Bold-8865" x="591.455078"/>
     <use xlink:href="#MicrosoftYaHei-Bold-8d34" x="691.455078"/>
     <use xlink:href="#MicrosoftYaHei-Bold-5f3a" x="791.455078"/>
     <use xlink:href="#MicrosoftYaHei-Bold-5ea6" x="891.455078"/>
     <use xlink:href="#MicrosoftYaHei-Bold-4e0b" x="991.455078"/>
     <use xlink:href="#MicrosoftYaHei-Bold-7684" x="1091.455078"/>
     <use xlink:href="#MicrosoftYaHei-Bold-52a8" x="1191.455078"/>
     <use xlink:href="#MicrosoftYaHei-Bold-6001" x="1291.455078"/>
     <use xlink:href="#MicrosoftYaHei-Bold-6f14" x="1391.455078"/>
     <use xlink:href="#MicrosoftYaHei-Bold-5316" x="1491.455078"/>
    </g>
   </g>
   <g id="legend_1">
    <g id="patch_6">
     <path d="M 598.667114 254.033229 
L 656.80952 254.033229 
Q 658.74952 254.033229 658.74952 252.093229 
L 658.74952 162.866651 
Q 658.74952 160.926651 656.80952 160.926651 
L 598.667114 160.926651 
Q 596.727114 160.926651 596.727114 162.866651 
L 596.727114 252.093229 
Q 596.727114 254.033229 598.667114 254.033229 
z
" style="fill: #fbfaf6; opacity: 0.94; stroke: #d7d0c2; stroke-linejoin: miter"/>
    </g>
    <g id="text_18">
     <!-- 补贴强度 -->
     <g transform="translate(608.138317 172.640526) scale(0.098 -0.098)">
      <defs>
       <path id="MicrosoftYaHei-5f3a" d="M 5250 466 
L 5669 666 
Q 6031 28 6363 -641 
L 5894 -878 
Q 5794 -641 5688 -416 
Q 3750 -547 2219 -653 
L 2150 -134 
Q 3088 -97 3969 -59 
L 3969 866 
L 2894 866 
L 2894 622 
L 2431 622 
L 2431 2616 
L 3969 2616 
L 3969 3297 
L 3144 3297 
L 3144 3047 
L 2681 3047 
L 2681 4972 
L 5731 4972 
L 5731 3047 
L 5269 3047 
L 5269 3297 
L 4444 3297 
L 4444 2616 
L 5988 2616 
L 5988 866 
L 4444 866 
L 4444 -41 
Q 4975 -22 5488 3 
Q 5369 241 5250 466 
z
M 425 3466 
L 1650 3466 
L 1650 4516 
L 238 4516 
L 238 4941 
L 2113 4941 
L 2113 2772 
L 1650 2772 
L 1650 3041 
L 831 3041 
L 719 2072 
L 2056 2072 
Q 1994 741 1944 128 
Q 1888 -722 1100 -722 
Q 819 -722 425 -716 
Q 388 -484 325 -216 
Q 731 -247 1019 -247 
Q 1444 -247 1475 191 
Q 1525 828 1563 1647 
L 225 1647 
L 425 3466 
z
M 5269 4547 
L 3144 4547 
L 3144 3722 
L 5269 3722 
L 5269 4547 
z
M 5525 1291 
L 5525 2191 
L 4444 2191 
L 4444 1291 
L 5525 1291 
z
M 2894 1291 
L 3969 1291 
L 3969 2191 
L 2894 2191 
L 2894 1291 
z
" transform="scale(0.015625)"/>
       <path id="MicrosoftYaHei-5ea6" d="M 1550 1216 
L 1550 1628 
L 5469 1628 
L 5469 1222 
Q 4903 613 4147 163 
Q 5050 -200 6263 -309 
L 6019 -797 
Q 4625 -603 3644 -109 
Q 2600 -619 1250 -866 
Q 1150 -666 994 -416 
Q 2231 -222 3166 166 
Q 2497 600 2066 1216 
L 1550 1216 
z
M 1363 3541 
L 2294 3541 
L 2294 4066 
L 2769 4066 
L 2769 3541 
L 4538 3541 
L 4538 4072 
L 5013 4072 
L 5013 3541 
L 6150 3541 
L 6150 3128 
L 5013 3128 
L 5013 1928 
L 4538 1928 
L 4538 2147 
L 2769 2147 
L 2769 1922 
L 2294 1922 
L 2294 3128 
L 1363 3128 
L 1363 3541 
z
M 3025 5172 
L 3481 5391 
Q 3694 5056 3909 4634 
L 6213 4634 
L 6213 4197 
L 1225 4197 
L 1225 2316 
Q 1225 178 394 -872 
Q 238 -666 38 -447 
Q 725 397 738 2347 
L 738 4634 
L 3331 4634 
Q 3188 4909 3025 5172 
z
M 2769 2547 
L 4538 2547 
L 4538 3128 
L 2769 3128 
L 2769 2547 
z
M 4819 1216 
L 2588 1216 
Q 3031 728 3656 391 
Q 4334 741 4819 1216 
z
" transform="scale(0.015625)"/>
      </defs>
      <use xlink:href="#MicrosoftYaHei-8865"/>
      <use xlink:href="#MicrosoftYaHei-8d34" x="100"/>
      <use xlink:href="#MicrosoftYaHei-5f3a" x="200"/>
      <use xlink:href="#MicrosoftYaHei-5ea6" x="300"/>
     </g>
    </g>
    <g id="line2d_31">
     <path d="M 600.607114 184.285682 
L 610.307114 184.285682 
L 620.007114 184.285682 
" style="fill: none; stroke: #6e7885; stroke-width: 2.55; stroke-linecap: round"/>
    </g>
    <g id="text_19">
     <!-- b=0.0 -->
     <g transform="translate(627.767114 187.680682) scale(0.097 -0.097)">
      <defs>
       <path id="MicrosoftYaHei-62" d="M 1159 488 
L 1159 0 
L 547 0 
L 547 5116 
L 1159 5116 
L 1159 2859 
L 1172 2859 
Q 1578 3538 2359 3538 
Q 3009 3538 3392 3080 
Q 3775 2622 3775 1828 
Q 3775 953 3345 436 
Q 2916 -81 2200 -81 
Q 1525 -81 1172 488 
L 1159 488 
z
M 1156 1422 
Q 1156 1003 1428 714 
Q 1700 425 2109 425 
Q 2597 425 2872 800 
Q 3147 1175 3147 1838 
Q 3147 2384 2890 2707 
Q 2634 3031 2191 3031 
Q 1741 3031 1448 2709 
Q 1156 2388 1156 1891 
L 1156 1422 
z
" transform="scale(0.015625)"/>
       <path id="MicrosoftYaHei-3d" d="M 3972 2497 
L 788 2497 
L 788 2969 
L 3972 2969 
L 3972 2497 
z
M 3972 1053 
L 788 1053 
L 788 1525 
L 3972 1525 
L 3972 1053 
z
" transform="scale(0.015625)"/>
      </defs>
      <use xlink:href="#MicrosoftYaHei-62"/>
      <use xlink:href="#MicrosoftYaHei-3d" x="63.867188"/>
      <use xlink:href="#MicrosoftYaHei-30" x="138.037109"/>
      <use xlink:href="#MicrosoftYaHei-2e" x="196.679688"/>
      <use xlink:href="#MicrosoftYaHei-30" x="220.751953"/>
     </g>
    </g>
    <g id="line2d_32">
     <path d="M 600.607114 199.300979 
L 610.307114 199.300979 
L 620.007114 199.300979 
" style="fill: none; stroke: #557c83; stroke-width: 2.55; stroke-linecap: round"/>
    </g>
    <g id="text_20">
     <!-- b=0.5 -->
     <g transform="translate(627.767114 202.695979) scale(0.097 -0.097)">
      <use xlink:href="#MicrosoftYaHei-62"/>
      <use xlink:href="#MicrosoftYaHei-3d" x="63.867188"/>
      <use xlink:href="#MicrosoftYaHei-30" x="138.037109"/>
      <use xlink:href="#MicrosoftYaHei-2e" x="196.679688"/>
      <use xlink:href="#MicrosoftYaHei-35" x="220.751953"/>
     </g>
    </g>
    <g id="line2d_33">
     <path d="M 600.607114 214.316276 
L 610.307114 214.316276 
L 620.007114 214.316276 
" style="fill: none; stroke: #55a58f; stroke-width: 2.55; stroke-linecap: round"/>
    </g>
    <g id="text_21">
     <!-- b=1.0 -->
     <g transform="translate(627.767114 217.711276) scale(0.097 -0.097)">
      <use xlink:href="#MicrosoftYaHei-62"/>
      <use xlink:href="#MicrosoftYaHei-3d" x="63.867188"/>
      <use xlink:href="#MicrosoftYaHei-31" x="138.037109"/>
      <use xlink:href="#MicrosoftYaHei-2e" x="196.679688"/>
      <use xlink:href="#MicrosoftYaHei-30" x="220.751953"/>
     </g>
    </g>
    <g id="line2d_34">
     <path d="M 600.607114 229.331572 
L 610.307114 229.331572 
L 620.007114 229.331572 
" style="fill: none; stroke: #e58f3a; stroke-width: 2.55; stroke-linecap: round"/>
    </g>
    <g id="text_22">
     <!-- b=1.5 -->
     <g transform="translate(627.767114 232.726572) scale(0.097 -0.097)">
      <use xlink:href="#MicrosoftYaHei-62"/>
      <use xlink:href="#MicrosoftYaHei-3d" x="63.867188"/>
      <use xlink:href="#MicrosoftYaHei-31" x="138.037109"/>
      <use xlink:href="#MicrosoftYaHei-2e" x="196.679688"/>
      <use xlink:href="#MicrosoftYaHei-35" x="220.751953"/>
     </g>
    </g>
    <g id="line2d_35">
     <path d="M 600.607114 244.346869 
L 610.307114 244.346869 
L 620.007114 244.346869 
" style="fill: none; stroke: #2f9c5b; stroke-width: 2.55; stroke-linecap: round"/>
    </g>
    <g id="text_23">
     <!-- b=2.0 -->
     <g transform="translate(627.767114 247.741869) scale(0.097 -0.097)">
      <use xlink:href="#MicrosoftYaHei-62"/>
      <use xlink:href="#MicrosoftYaHei-3d" x="63.867188"/>
      <use xlink:href="#MicrosoftYaHei-32" x="138.037109"/>
      <use xlink:href="#MicrosoftYaHei-2e" x="196.679688"/>
      <use xlink:href="#MicrosoftYaHei-30" x="220.751953"/>
     </g>
    </g>
   </g>
  </g>
 </g>
 <defs>
  <clipPath id="p4c482ad4d5">
   <rect x="51.827953" y="36.94925" width="611.771567" height="341.061379"/>
  </clipPath>
 </defs>
</svg>
